<?xml version="1.0" encoding="UTF-8" standalone="no"?>
<!-- Generator: Adobe Illustrator 19.0.0, SVG Export Plug-In . SVG Version: 6.00 Build 0)  -->

<svg
   xmlns:dc="http://purl.org/dc/elements/1.1/"
   xmlns:cc="http://creativecommons.org/ns#"
   xmlns:rdf="http://www.w3.org/1999/02/22-rdf-syntax-ns#"
   xmlns:svg="http://www.w3.org/2000/svg"
   xmlns="http://www.w3.org/2000/svg"
   xmlns:sodipodi="http://sodipodi.sourceforge.net/DTD/sodipodi-0.dtd"
   xmlns:inkscape="http://www.inkscape.org/namespaces/inkscape"
   version="1.1"
   id="svg2"
   inkscape:version="0.92.2 (5c3e80d, 2017-08-06)"
   sodipodi:docname="logo.svg"
   x="0px"
   y="0px"
   viewBox="-23 340 563.64185 84.75"
   xml:space="preserve"
   width="563.64185"
   height="84.75"><metadata
     id="metadata29"><rdf:RDF><cc:Work
         rdf:about=""><dc:format>image/svg+xml</dc:format><dc:type
           rdf:resource="http://purl.org/dc/dcmitype/StillImage" /><dc:title></dc:title></cc:Work></rdf:RDF></metadata><defs
     id="defs27" /><sodipodi:namedview
     inkscape:window-y="-8"
     inkscape:window-x="-8"
     inkscape:window-maximized="1"
     inkscape:window-height="901"
     objecttolerance="10"
     borderopacity="1"
     pagecolor="#ffffff"
     inkscape:zoom="0.90391815"
     guidetolerance="10"
     showgrid="false"
     inkscape:cy="180.77778"
     inkscape:cx="60.113187"
     gridtolerance="10"
     bordercolor="#666666"
     id="namedview19"
     inkscape:pageshadow="2"
     inkscape:window-width="1611"
     inkscape:pageopacity="0"
     inkscape:current-layer="svg2"
     fit-margin-top="0"
     fit-margin-left="0"
     fit-margin-right="0"
     fit-margin-bottom="0" /><g
     id="g24"
     transform="matrix(1,0,0,0.75,-0.18105956,85)"><g
       id="g4209"><g
         id="g4783"><path
           id="path7"
           inkscape:connector-curvature="0"
           d="m 57.4,363.5 -0.1,89.5 -24,-7.8 V 340 l 30.6,8.1 c 19.6,5.3 31.6,15.5 31.4,33.4 -0.2,20.9 -9.8,29.3 -28.7,23.8 v -41.2 c 0.1,-4.9 -9.2,-5.2 -9.2,-0.6 z"
           style="fill:#de1528" /><path
           id="path9"
           inkscape:connector-curvature="0"
           d="M 22.3,427.8 11,431.6 c -7.3,2.5 -13.6,-3.4 -6.8,-5.9 l 5.5,-1.9 -20.6,-6.5 c -6.3,2.1 -12.3,6.7 -11.9,13.2 0.4,6.5 15.3,8.1 26.8,9.9 10.7,1.8 20.5,0.8 29.4,-2.3 v -6.7 z m 35.2,25.2 21,-7.3 -21.2,-6.7 v 13.6 z"
           style="fill:#f4cb0e" /><path
           id="path16"
           inkscape:connector-curvature="0"
           d="m 113.3,433.4 0.4,-0.1 c 9.2,-3.2 13.1,-7.7 12.1,-11.9 -1.6,-7 -12.8,-10.8 -30,-12.1 -12.4,-0.9 -24.6,1.9 -36.5,5.9 l -1.9,0.7 21.4,6.6 12.5,-4.2 c 13.1,-2.4 18.3,1.9 5.8,5.9 l -6.2,2.1 z m -80,-31 -9.5,3.2 9.5,2.9 z"
           style="fill:#4177b3" /><path
           id="path13"
           inkscape:connector-curvature="0"
           d="m 78.5,445.7 34.8,-12.3 -22.6,-7 -33.3,11.4 v 1.2 z m -45.2,-21.6 -11,3.7 11,3.5 z m 24,5.8 V 416 l 21.4,6.6 z m -47.7,-6.1 23.7,-8.5 v -6.8 l -9.5,-2.9 -34.3,11.6 c -0.1,0 -0.3,0.1 -0.5,0.1 z"
           style="fill:#1ba0a5" /></g></g><g
       id="g4781"
       transform="matrix(1.2243408,0,0,1.2243408,61.37105,-612.11356)"><path
         id="path3003"
         inkscape:connector-curvature="0"
         d="M 64.9,801.3 V 847 H 72 v -41.3 h 6.6 c 0,0 4.8,0 6.4,2.1 1.4,1.8 1.7,5.1 1.7,7.4 0,2.4 -0.2,6.1 -1,7.4 -1.2,2.1 -3.2,2.5 -5,2.5 h -4.4 v 4.1 h 6.3 c 0,0 5.7,0.2 8.1,-2.2 3,-3 3.7,-7.1 3.7,-12.6 0,-5 -1.8,-10 -5.5,-11.7 -3,-1.4 -8.5,-1.4 -8.5,-1.4 H 64.9" /><path
         id="path3005"
         inkscape:connector-curvature="0"
         d="m 100.1,847 h 7.1 v -45.7 h -7.1 z" /><path
         id="path3007"
         inkscape:connector-curvature="0"
         d="m 145.2,812 13.1,34.2 -7.5,18.4 h 5.9 L 178.3,812 h -6.6 l -9.4,25.6 -8.7,-25.6 h -8.4" /><path
         id="path3009"
         inkscape:connector-curvature="0"
         d="m 183.6,846.7 v -4.3 c 0,0 7.5,0.3 9.1,0.3 3.5,0 5.2,-0.7 6.5,-2.1 0.8,-0.8 1.5,-4.6 1.5,-5.9 0,-1.3 -0.3,-4.2 -0.8,-5.4 -0.5,-1.1 -1.8,-2.2 -3.6,-2.4 -1.3,-0.1 -3.3,-0.4 -5.7,-0.5 -3.3,-0.2 -5.5,-1.9 -6.5,-3.1 -1,-1.2 -2.4,-3.1 -2.4,-8.8 0,-5.7 1.5,-8.9 3,-10.4 1.5,-1.5 3.6,-2.1 5.3,-2.4 1.9,-0.3 5,-0.3 5,-0.3 l 10,0.3 v 4.3 c 0,0 -7.3,-0.3 -8.9,-0.3 -3.5,0 -4.5,0.7 -5.8,2.1 -0.8,0.8 -1.4,3.1 -1.4,4.5 0,1.3 0.2,4 0.7,5.2 0.5,1.1 1.7,2.2 3.6,2.4 1.3,0.1 3.3,0.4 5.7,0.5 3.3,0.2 5.5,1.9 6.5,3.1 1,1.2 2.4,3.9 2.4,9.5 0,5.7 -1.5,9.8 -3,11.3 -1.5,1.5 -3.6,2.1 -5.3,2.4 -1.9,0.3 -5,0.4 -5,0.4 l -10.9,-0.4" /><path
         id="path3011"
         inkscape:connector-curvature="0"
         d="m 222.5,805.7 h -7.1 v 33.5 c 0,0 0.2,3.1 0.3,4.1 0.2,1.1 1.7,3.6 5.8,3.6 l 7.4,-0.1 v -4.3 c 0,0 -2,0.1 -3.2,0.1 -1.2,0 -2.7,-0.1 -3,-2.1 -0.3,-2.1 -0.3,-4.5 -0.3,-4.5 v -19.8 h 8.1 v -4.3 h -8.1 l 0.1,-6.2" /><path
         id="path3013"
         inkscape:connector-curvature="0"
         d="m 291.4,847 h 7.1 v -35 h -7.1 z" /><path
         id="path3015"
         inkscape:connector-curvature="0"
         d="m 291.4,807.7 h 7.1 v -6.4 h -7.1 z" /><path
         id="path3017"
         inkscape:connector-curvature="0"
         d="m 321.1,811.7 c 4.9,0 8.6,1.1 10.6,2.7 2,1.6 4.6,5.1 4.6,15.1 0,10 -2.5,13.5 -4.6,15.1 -2,1.6 -5.8,2.7 -10.6,2.7 -4.9,0 -8.6,-1.1 -10.7,-2.7 -2,-1.6 -4.5,-5.1 -4.5,-15.1 0,-10 2.5,-13.5 4.5,-15.1 2.1,-1.7 5.8,-2.7 10.7,-2.7 z m -4.9,6.7 c -1,1.2 -2.2,3.7 -2.2,11.1 0,7.4 1.2,9.9 2.2,11.1 1,1.2 2.8,2 5.1,2 2.3,0 4.1,-0.8 5.1,-2 1,-1.2 2.2,-3.7 2.2,-11.1 0,-7.4 -1.2,-9.9 -2.2,-11.1 -1,-1.2 -2.8,-2 -5.1,-2 -2.3,0 -4.1,0.8 -5.1,2" /><path
         id="path3019"
         inkscape:connector-curvature="0"
         d="m 351,816.9 7,-0.3 c 1.8,0 4,0.5 5,1.8 1,1.2 1.6,2.7 1.6,5.1 v 23.4 h 7.1 v -24 c 0,-4.5 -1.4,-7.2 -3.5,-8.8 -3,-2.4 -8.4,-2.1 -8.4,-2.1 l -16,0.3 V 847 h 7.1 l 0.1,-30.1" /><path
         id="path3021"
         inkscape:connector-curvature="0"
         d="m 277.2,805.7 h -7.1 v 33.5 c 0,0 0.2,3.1 0.3,4.1 0.2,1.1 1.7,3.6 5.8,3.6 l 7.4,-0.1 v -4.3 c 0,0 -2,0.1 -3.2,0.1 -1.2,0 -2.7,-0.1 -3,-2.1 -0.3,-2.1 -0.3,-4.5 -0.3,-4.5 v -19.8 h 8 v -4.3 h -8 v -6.2" /><path
         id="path3023"
         inkscape:connector-curvature="0"
         d="m 134.3,823.5 c 0,-2.4 -0.6,-3.9 -1.6,-5.1 -1,-1.3 -3.2,-1.8 -5,-1.8 l -9.4,0.3 v -4.7 l 11.3,-0.3 c 0,0 5.4,-0.2 8.4,2.1 2.1,1.7 3.5,4.3 3.5,8.8 v 23.7 l -13.7,0.3 c 0,0 -6.2,0 -9.3,-1.2 -3,-1.2 -4.7,-4.6 -4.7,-9.3 0,-4.5 1.4,-7.2 3.5,-8.8 3,-2.4 8.4,-2.1 8.4,-2.1 h 4.4 v 4 h -2.4 c -1.8,0 -3.7,0.3 -4.8,1.7 -1,1.2 -1.5,2.3 -1.5,4.7 0,3.1 0.6,4.6 2.1,5.6 1.3,1 3.6,1.2 6.3,1.2 l 4.7,-0.3 -0.2,-18.8" /><path
         id="path3025"
         inkscape:connector-curvature="0"
         d="m 254.6,823.5 c 0,-2.4 -0.6,-3.9 -1.6,-5.1 -1.1,-1.3 -3.2,-1.8 -5,-1.8 l -9.4,0.3 v -4.7 l 11.3,-0.3 c 0,0 5.4,-0.2 8.3,2.1 2.1,1.7 3.5,4.3 3.5,8.8 v 23.7 l -13.7,0.3 c 0,0 -6.2,0 -9.3,-1.2 -3,-1.2 -4.7,-4.6 -4.7,-9.3 0,-4.5 1.4,-7.2 3.5,-8.8 3,-2.4 8.4,-2.1 8.4,-2.1 h 4.4 v 4 h -2.5 c -1.8,0 -3.7,0.3 -4.8,1.7 -1,1.2 -1.5,2.3 -1.5,4.7 0,3.1 0.6,4.6 2.1,5.6 1.3,1 3.7,1.2 6.3,1.2 l 4.7,-0.3 v -18.8" /><path
         id="path3027"
         inkscape:connector-curvature="0"
         d="m 384.7,847.3 c 1.9,0 3.6,-0.7 4.9,-2 1.3,-1.3 2,-3.1 2,-4.9 0,-1.9 -0.7,-3.6 -2,-4.9 -1.3,-1.3 -3.1,-2 -4.9,-2 -3.8,0 -7,3.1 -7,7 0,1.9 0.7,3.6 2,4.9 1.4,1.2 3.2,1.9 5,1.9 z m -5.8,-7 c 0,-1.5 0.6,-3 1.7,-4.1 1.1,-1.1 2.5,-1.7 4.1,-1.7 1.6,0 3,0.6 4.1,1.7 1.1,1.1 1.7,2.5 1.7,4.1 0,3.2 -2.6,5.8 -5.8,5.8 -1.5,0 -3,-0.6 -4.1,-1.7 -1.1,-1.1 -1.7,-2.5 -1.7,-4.1" /><path
         id="path3029"
         inkscape:connector-curvature="0"
         d="m 388.2,843.6 c -0.1,0 -0.2,-0.2 -0.2,-0.3 0,-0.1 -0.1,-0.3 -0.1,-0.6 v -1 c 0,-0.5 -0.1,-0.8 -0.3,-1 -0.1,-0.2 -0.3,-0.3 -0.5,-0.4 0.2,-0.2 0.4,-0.3 0.6,-0.6 0.2,-0.3 0.3,-0.7 0.3,-1.2 0,-0.9 -0.4,-1.6 -1.1,-1.9 -0.4,-0.2 -0.9,-0.3 -1.5,-0.3 h -3.6 v 7.8 h 1.3 v -3.2 h 2.1 c 0.4,0 0.7,0 0.8,0.1 0.3,0.1 0.4,0.4 0.4,0.8 l 0.1,1.2 c 0,0.3 0,0.5 0.1,0.6 0,0.1 0.1,0.2 0.1,0.3 l 0.1,0.1 h 1.5 z m -1.6,-5 c 0,0.4 -0.1,0.7 -0.3,0.9 -0.2,0.2 -0.6,0.3 -1,0.3 h -2.2 v -2.2 h 2.3 c 0.3,0 0.6,0 0.7,0.1 0.4,0.1 0.5,0.4 0.5,0.9" /></g></g></svg>