<?xml version="1.0" encoding="UTF-8" standalone="no"?>
<svg
   xmlns:dc="http://purl.org/dc/elements/1.1/"
   xmlns:cc="http://creativecommons.org/ns#"
   xmlns:rdf="http://www.w3.org/1999/02/22-rdf-syntax-ns#"
   xmlns:svg="http://www.w3.org/2000/svg"
   xmlns="http://www.w3.org/2000/svg"
   xmlns:sodipodi="http://sodipodi.sourceforge.net/DTD/sodipodi-0.dtd"
   xmlns:inkscape="http://www.inkscape.org/namespaces/inkscape"
   viewBox="0 0 566.927 93.639758"
   height="93.639755"
   width="566.927"
   xml:space="preserve"
   version="1.1"
   id="svg2"
   inkscape:version="0.92.2 (5c3e80d, 2017-08-06)"
   sodipodi:docname="logo.svg"><sodipodi:namedview
     pagecolor="#ffffff"
     bordercolor="#666666"
     borderopacity="1"
     objecttolerance="10"
     gridtolerance="10"
     guidetolerance="10"
     inkscape:pageopacity="0"
     inkscape:pageshadow="2"
     inkscape:window-width="1920"
     inkscape:window-height="1017"
     id="namedview40"
     showgrid="false"
     fit-margin-top="0"
     fit-margin-left="0"
     fit-margin-right="0"
     fit-margin-bottom="0"
     inkscape:zoom="1.0880675"
     inkscape:cx="17.536453"
     inkscape:cy="-52.972011"
     inkscape:window-x="-8"
     inkscape:window-y="-8"
     inkscape:window-maximized="1"
     inkscape:current-layer="svg2" /><metadata
     id="metadata8"><rdf:RDF><cc:Work
         rdf:about=""><dc:format>image/svg+xml</dc:format><dc:type
           rdf:resource="http://purl.org/dc/dcmitype/StillImage" /><dc:title></dc:title></cc:Work></rdf:RDF></metadata><defs
     id="defs6"><clipPath
       id="clipPath16"
       clipPathUnits="userSpaceOnUse"><path
         id="path18"
         d="M 0,148.364 H 499.969 V 0 H 0 Z"
         inkscape:connector-curvature="0" /></clipPath></defs><g
     id="g3875"
     transform="matrix(1,0,0,0.75,-18.90745,-15.070281)"><g
       transform="translate(18.90745,20.093708)"
       id="g5"><path
         id="path7"
         d="M 33.98,108.929 33.912,67.342 h 5.384 v 49.797 H 33.912 L 5.249,75.215 5.384,117.139 H 0 V 67.342 h 5.652 z"
         inkscape:connector-curvature="0"
         style="fill:#1d1d1b" /><path
         id="path9"
         d="m 45.31,67.342 h 26.419 v 4.912 H 50.827 V 89.548 H 71.594 V 94.46 H 50.827 v 17.767 h 20.902 v 4.912 H 45.31 Z"
         inkscape:connector-curvature="0"
         style="fill:#1d1d1b" /><path
         id="path11"
         d="m 74.242,92.375 c 0,-15.341 11.911,-25.908 25.976,-25.908 14.602,0 25.975,11.171 25.975,25.773 0,14.604 -11.305,25.773 -25.975,25.773 -14.738,0 -25.976,-11.373 -25.976,-25.572 z m 5.585,-0.135 c 0,11.709 8.815,20.861 20.458,20.861 11.776,0 20.39,-9.486 20.39,-20.861 0,-11.373 -8.613,-20.861 -20.457,-20.861 -11.709,0 -20.391,9.286 -20.391,20.792 z"
         inkscape:connector-curvature="0"
         style="fill:#1d1d1b" /><path
         id="path13"
         d="m 172.16,80.262 c -1.548,-2.153 -3.433,-3.97 -5.586,-5.383 -3.23,-2.221 -7.133,-3.5 -11.574,-3.5 -10.902,0 -20.39,8.344 -20.39,20.792 0,12.652 9.556,20.996 20.457,20.996 5.249,0 9.892,-1.815 13.324,-4.508 3.5,-2.76 5.922,-6.527 6.73,-10.432 h -27.104 v -4.576 h 33.564 c -0.067,2.895 -0.74,6.527 -2.221,9.624 -4.307,9.354 -14.267,14.804 -24.293,14.804 -14.535,0 -26.042,-11.17 -26.042,-25.908 0,-14.938 11.709,-25.706 26.109,-25.706 10.094,0 19.448,5.653 23.351,13.795 h -6.325 z"
         inkscape:connector-curvature="0"
         style="fill:#1d1d1b" /><path
         id="path15"
         d="m 184.25,67.342 h 27.59 v 4.912 h -22.071 v 17.294 h 21.937 v 4.912 h -21.937 v 17.767 h 22.071 v 4.912 h -27.59 z"
         inkscape:connector-curvature="0"
         style="fill:#1d1d1b" /><path
         id="path17"
         d="m 214.061,92.375 c 0,-15.341 11.911,-25.908 25.975,-25.908 14.603,0 25.975,11.171 25.975,25.773 0,14.604 -11.305,25.773 -25.975,25.773 -14.737,0 -25.975,-11.373 -25.975,-25.572 z m 5.585,-0.135 c 0,11.709 8.815,20.861 20.457,20.861 11.777,0 20.39,-9.486 20.39,-20.861 0,-11.373 -8.613,-20.861 -20.457,-20.861 -11.709,0 -20.39,9.286 -20.39,20.792 z"
         inkscape:connector-curvature="0"
         style="fill:#1d1d1b" /></g><g
       transform="translate(18.90745,20.093708)"
       id="g19"><path
         id="path21"
         d="m 327.466,92.375 c 0,-15.341 11.91,-25.908 25.976,-25.908 14.603,0 25.976,11.171 25.976,25.773 0,14.604 -11.305,25.773 -25.976,25.773 -14.737,0 -25.976,-11.373 -25.976,-25.572 z m 5.584,-0.135 c 0,11.709 8.816,20.861 20.459,20.861 11.777,0 20.391,-9.486 20.391,-20.861 0,-11.373 -8.613,-20.861 -20.458,-20.861 -11.708,0 -20.392,9.286 -20.392,20.792 z"
         inkscape:connector-curvature="0"
         style="fill:#1d1d1b" /><path
         id="path23"
         d="m 435.001,103.748 c -3.229,7.672 -11.91,14.268 -22.879,14.268 -14.736,0 -25.976,-11.373 -25.976,-25.772 0,-14.2 10.97,-25.774 25.906,-25.774 12.313,0 20.054,8.21 22.946,14.535 h -5.99 c -1.684,-2.96 -7.334,-9.623 -16.956,-9.623 -11.642,0 -20.39,9.219 -20.39,20.793 0,11.777 8.813,20.929 20.39,20.929 10.433,0 15.745,-7.47 16.956,-9.354 z"
         inkscape:connector-curvature="0"
         style="fill:#1d1d1b" /><path
         id="path25"
         d="m 489.644,67.342 h 27.592 v 4.912 H 495.164 V 89.548 H 517.1 v 4.912 h -21.936 v 17.767 h 22.072 v 4.912 h -27.592 z"
         inkscape:connector-curvature="0"
         style="fill:#1d1d1b" /><path
         id="path27"
         d="m 545.228,72.254 h -16.047 v -4.912 h 37.746 v 4.912 h -16.113 v 44.885 h -5.586 z"
         inkscape:connector-curvature="0"
         style="fill:#1d1d1b" /></g><path
       id="path37"
       d="m 494.48145,137.23271 h 6.932 l -25.871,-24.968 23.783,-24.830003 h -6.055 l -26.105,26.998003 v -6.396 -20.601003 h -5.518 v 49.797003 h 5.518 v -16.228 l 5.08,-5.306 z"
       inkscape:connector-curvature="0"
       style="fill:#1d1d1b" /><path
       id="path41"
       d="m 321.70145,141.03871 c -10.838,-21.554 -21.646,-43.050003 -32.461,-64.562003 0.06,-0.042 0.108,-0.083 0.163,-0.11 2.697,-1.38 5.395,-2.76 8.091,-4.138 3.812,-1.946 7.625,-3.883 11.433,-5.839 4.003,-2.056 8.21,-3.293 12.751,-3.146 3.091,0.1 5.925,0.999 8.411,2.895 2.194,1.674 3.747,3.848 4.937,6.306 1.129,2.332 1.934,4.759 1.979,7.377 0.063,3.636 -1.036,6.924 -2.985,9.977 -1.306,2.042 -2.796,3.921 -4.544,5.584 -1.204,1.146 -2.491,2.204 -3.739,3.299 -4.569,-3.241 -9.041,-6.41 -13.531,-9.593 0.853,-3.113 1.693,-6.198 2.539,-9.291 4.361,0 8.662,0 12.94,0 0,-3.277 0,-6.527 0,-9.823 -6.682,0.064 -13.29,0.127 -19.897,0.193 -2.407,6.801 -4.803,13.565 -7.2,20.342 7.735,6.398 15.444,12.774003 23.159,19.157003 3.066,-1.169 5.975,-2.609 8.713,-4.387 4.363,-2.835 8,-6.396003 10.671,-10.881003 2.481,-4.169 3.728,-8.71 3.796,-13.559 0.042,-3.005 -0.414,-5.943 -1.298,-8.823 -1.173,-3.816 -2.987,-7.27 -5.755,-10.165 -5.189,-5.433 -11.553,-8.353 -19.081,-8.621 -4.45,-0.158 -8.66,0.847 -12.632,2.842 -1.789,0.9 -3.541,1.872 -5.341,2.744 -4.01,1.939 -8.04,3.837 -12.062,5.748 -3.547,1.686 -7.095,3.366 -10.642,5.047 -1.199,0.569 -2.399,1.14 -3.6,1.71 12.046,24.561 24.078,49.093003 36.104,73.625003 3.049,-1.312 6.035,-2.598 9.081,-3.908 z"
       inkscape:connector-curvature="0"
       style="fill:none" /><path
       id="path43"
       d="m 321.70145,141.03871 c -3.047,1.311 -6.032,2.596 -9.086,3.908 -12.025,-24.529 -24.059,-49.063003 -36.104,-73.624003 1.201,-0.57 2.4,-1.141 3.6,-1.71 3.547,-1.682 7.095,-3.362 10.642,-5.047 4.022,-1.911 8.052,-3.809 12.062,-5.748 1.8,-0.872 3.552,-1.844 5.341,-2.744 3.972,-1.996 8.182,-3 12.631,-2.842 7.529,0.268 13.893,3.188 19.082,8.621 2.768,2.895 4.582,6.348 5.754,10.165 0.885,2.879 1.341,5.818 1.299,8.823 -0.068,4.849 -1.313,9.39 -3.796,13.559 -2.673,4.484 -6.308,8.045003 -10.673,10.881003 -2.736,1.776 -5.645,3.217 -8.711,4.386 -7.715,-6.382 -15.424,-12.758003 -23.159,-19.156003 2.397,-6.777 4.793,-13.541 7.2,-20.342 6.607,-0.065 13.218,-0.129 19.897,-0.193 0,3.296 0,6.546 0,9.823 -4.278,0 -8.579,0 -12.94,0 -0.846,3.093 -1.688,6.178 -2.539,9.291 4.49,3.183 8.961,6.352 13.531,9.593 1.248,-1.095 2.535,-2.153 3.739,-3.299 1.748,-1.663 3.238,-3.542 4.543,-5.584 1.95,-3.053 3.05,-6.341 2.986,-9.977 -0.048,-2.618 -0.851,-5.045 -1.979,-7.377 -1.188,-2.458 -2.742,-4.632 -4.937,-6.306 -2.486,-1.896 -5.32,-2.794 -8.411,-2.895 -4.541,-0.147 -8.748,1.089 -12.751,3.146 -3.806,1.956 -7.621,3.893 -11.433,5.839 -2.697,1.378 -5.395,2.758 -8.091,4.138 -0.055,0.028 -0.104,0.069 -0.163,0.11 10.821,21.511 21.629,43.007003 32.466,64.561003 z"
       inkscape:connector-curvature="0"
       style="fill:#f10000" /><path
       id="path45"
       d="m 329.34645,46.619707 c -2.162,-0.445 -4.264,-0.879 -6.423,-1.324 1.257,-8.395 2.514,-16.787999 3.774,-25.201999 3.935,0.574 7.832,1.145 11.791,1.724 -3.055,8.287999 -6.093,16.528999 -9.142,24.801999 z"
       inkscape:connector-curvature="0"
       style="fill:#f10000" /><path
       id="path47"
       d="m 364.44645,39.772707 c 2.088,3.381 4.147,6.72 6.241,10.112 -6.819,4.222 -13.635,8.44 -20.472,12.671 -1.434,-2.14 -2.84,-4.241 -4.278,-6.391 6.165,-5.459 12.317,-10.908 18.509,-16.392 z"
       inkscape:connector-curvature="0"
       style="fill:#f10000;fill-opacity:1" /><path
       id="path49"
       d="m 347.97645,26.575708 c 3.017,2.085 5.979,4.133999 8.954,6.189999 -5.377,6.412 -10.738,12.805 -16.136,19.239 -1.888,-1.165 -3.759,-2.319 -5.683,-3.507 4.271,-7.275 8.549,-14.567 12.865,-21.921999 z"
       inkscape:connector-curvature="0"
       style="fill:#f10000;fill-opacity:1" /></g></svg>