<?xml version="1.0" encoding="UTF-8" standalone="no"?>
<!-- Generator: Adobe Illustrator 18.0.0, SVG Export Plug-In . SVG Version: 6.00 Build 0)  -->

<svg
   xmlns:dc="http://purl.org/dc/elements/1.1/"
   xmlns:cc="http://creativecommons.org/ns#"
   xmlns:rdf="http://www.w3.org/1999/02/22-rdf-syntax-ns#"
   xmlns:svg="http://www.w3.org/2000/svg"
   xmlns="http://www.w3.org/2000/svg"
   xmlns:xlink="http://www.w3.org/1999/xlink"
   xmlns:sodipodi="http://sodipodi.sourceforge.net/DTD/sodipodi-0.dtd"
   xmlns:inkscape="http://www.inkscape.org/namespaces/inkscape"
   version="1.1"
   x="0px"
   y="0px"
   viewBox="0 0 385.49999 141.0876"
   enable-background="new 0 0 413.2 193.3"
   xml:space="preserve"
   id="svg61"
   sodipodi:docname="controller.svg"
   width="385.5"
   height="141.0876"
   inkscape:version="0.92.2 (5c3e80d, 2017-08-06)"><metadata
     id="metadata67"><rdf:RDF><cc:Work
         rdf:about=""><dc:format>image/svg+xml</dc:format><dc:type
           rdf:resource="http://purl.org/dc/dcmitype/StillImage" /><dc:title /></cc:Work></rdf:RDF></metadata><defs
     id="defs65" /><sodipodi:namedview
     pagecolor="#ffffff"
     bordercolor="#666666"
     borderopacity="1"
     objecttolerance="10"
     gridtolerance="10"
     guidetolerance="10"
     inkscape:pageopacity="0"
     inkscape:pageshadow="2"
     inkscape:window-width="1920"
     inkscape:window-height="1017"
     id="namedview63"
     showgrid="false"
     fit-margin-top="0"
     fit-margin-left="0"
     fit-margin-right="0"
     fit-margin-bottom="0"
     inkscape:zoom="4.7779334"
     inkscape:cx="248.33644"
     inkscape:cy="62.998865"
     inkscape:window-x="-8"
     inkscape:window-y="-8"
     inkscape:window-maximized="1"
     inkscape:current-layer="svg61" /><g
     id="Layer_2"
     display="none"
     style="display:none"
     transform="translate(-15.7775,-44.271525)"><image
       sodipodi:absref="H:\emulationstation\.emulationstation\themes\rgbpi-recalbox\amstradcpc\29E65CD1.jpg"
       xlink:href="29E65CD1.jpg"
       style="display:inline;overflow:visible"
       id="image2"
       transform="translate(-6,-27)"
       height="248"
       width="428"
       overflow="visible"
       display="inline" /></g><g
     id="svg2"
     transform="matrix(1,0,0,0.8,-15.7775,-7.1997)"><g
       id="g10"
       transform="matrix(1.25,0,0,-1.25,0,193.34125)"><g
         id="g12"><g
           id="g38"><defs
             id="defs6"><rect
               id="SVGID_1_"
               x="-29.5"
               y="-15"
               width="389.5"
               height="182.60001" /></defs><clipPath
             id="SVGID_2_"><use
               xlink:href="#SVGID_1_"
               overflow="visible"
               id="use8"
               style="overflow:visible"
               x="0"
               y="0"
               width="100%"
               height="100%" /></clipPath><g
             id="g14"
             clip-path="url(#SVGID_2_)"><g
               id="g20"
               transform="translate(330.522,7.3857)"><path
                 id="path22_2_"
                 d="m -16.4,138.7 c 3.8,-0.4 6.9,-3.9 6.9,-7.8 V 33.8 C -9.5,14.7 -21.9,-1 -41.1,-1 h -245.2 c -19.1,0 -31.6,15.7 -31.6,34.8 V 131 c 0,3.8 3.1,7.3 6.9,7.8 z"
                 inkscape:connector-curvature="0"
                 style="fill:#deddde" /></g><g
               id="g24"
               transform="translate(324.5191,8.9755)"><path
                 id="path26"
                 d="m -9.1,36.2 c 0,-19 -12.3,-29.7 -31.3,-29.7 h -234.4 c -19,0 -31.3,10.7 -31.3,29.7 v 91.4 h 297 z"
                 inkscape:connector-curvature="0"
                 style="fill:#e9e9e9" /></g><g
               id="g28_1_"
               transform="translate(80.1548,45.8535)"><path
                 id="path30_1_"
                 d="M 22.6,17.3 C 22.6,-1.4 7.5,-16.6 -11.2,-16.6 -29.9,-16.6 -45,-1.4 -45,17.3 -45,36 -29.9,51.2 -11.2,51.2 7.4,51.2 22.6,36 22.6,17.3"
                 inkscape:connector-curvature="0"
                 style="fill:#cccccc" /></g><g
               id="g28_2_"
               transform="translate(80.1548,45.8535)"
               display="none"
               style="display:none"><path
                 id="path30_2_"
                 display="inline"
                 d="M 23.6,18.1 C 23.6,-1.2 8,-16.8 -11.2,-16.8 -30.5,-16.8 -46,-1.2 -46,18.1 -46,37.4 -30.5,53 -11.2,53 8,53 23.6,37.3 23.6,18.1"
                 inkscape:connector-curvature="0"
                 style="display:inline;fill:#cccccc" /></g><g
               id="g28_3_"
               transform="translate(80.1548,45.8535)"
               display="none"
               style="display:none"><path
                 id="path30_3_"
                 display="inline"
                 d="M 23.6,17.3 C 23.6,-2 8,-17.6 -11.2,-17.6 -30.5,-17.6 -46,-2 -46,17.3 c 0,19.3 15.6,34.9 34.8,34.9 19.2,0 34.8,-15.7 34.8,-34.9"
                 inkscape:connector-curvature="0"
                 style="display:inline;fill:#cccccc" /></g><g
               id="g28"
               transform="translate(80.1548,45.8535)"><path
                 id="path30"
                 d="m 19.8,17.5 c 0,-17.2 -13.9,-31.1 -31,-31.1 -17.1,0 -31,13.9 -31,31.1 0,17.2 13.9,31.1 31,31.1 17.1,0 31,-13.9 31,-31.1"
                 inkscape:connector-curvature="0"
                 style="fill:#999999" /></g><g
               id="g80"
               transform="translate(250.4331,44.5893)"><path
                 id="path82"
                 d="m -21.8,13.6 c -6.2,0 -11.3,-5 -11.3,-11.2 0,-6.2 5.1,-11.3 11.3,-11.3 6.2,0 11.3,5.1 11.3,11.3 0,6.2 -5.1,11.2 -11.3,11.2 m 0,-27.2 c -8.9,0 -16.1,7.2 -16.1,16 0,8.8 7.2,16 16.1,16 8.8,0 16,-7.2 16,-16 0,-8.8 -7.2,-16 -16,-16"
                 inkscape:connector-curvature="0"
                 style="fill:#cccccc" /></g><g
               id="g84"
               transform="translate(250.4331,20.2788)"><path
                 id="path86"
                 d="m -21.8,13.1 c 7.6,0 13.7,6.1 13.7,13.7 0,7.6 -6.1,13.6 -13.7,13.6 -7.6,0 -13.7,-6 -13.7,-13.6 0,-7.6 6.1,-13.7 13.7,-13.7"
                 inkscape:connector-curvature="0"
                 style="fill:#990033" /></g><g
               id="g88"
               transform="translate(287.8648,17.767)"><path
                 id="path90"
                 d="m -17.3,13 c 9,0 16.3,7.2 16.3,16.2 0,9 -7.3,16.2 -16.3,16.2 -9,0 -16.3,-7.2 -16.3,-16.2 0,-9 7.3,-16.2 16.3,-16.2"
                 inkscape:connector-curvature="0"
                 style="fill:#cccccc" /></g><g
               id="g92"
               transform="translate(287.8648,20.2788)"><path
                 id="path94"
                 d="m -17.3,13.1 c 7.6,0 13.7,6.1 13.7,13.7 0,7.6 -6.1,13.6 -13.7,13.6 -7.6,0 -13.7,-6 -13.7,-13.6 0,-7.6 6.2,-13.7 13.7,-13.7"
                 inkscape:connector-curvature="0"
                 style="fill:#990033" /></g><g
               id="g96"
               transform="translate(124.1763,154.6733)"><path
                 id="path98"
                 d="m -14.7,-7.2 c -2,0 -3.7,-1.1 -3.7,-2.4 v -50.9 l 62.5,-17.4 62.5,17.3 v 51 c 0,1.3 -1.7,2.4 -3.7,2.4 z"
                 inkscape:connector-curvature="0"
                 style="fill:#deddde" /></g><g
               id="g100"
               transform="translate(57.8438,75.8115)"><path
                 id="path102"
                 d="m 19.5,17.9 c 0,0.5 -0.4,1.1 -1,1.2 0,0 -2.9,0.9 -7.5,0.9 C 6.6,20 3.5,19.1 3.5,19.1 3,19 2.5,18.5 2.5,17.9 V -3 c 0,-0.5 -0.4,-1 -1,-1 h -20.9 c -0.5,0 -1.1,-0.4 -1.2,-1 0,0 -0.9,-2.9 -0.9,-7.5 0,-3.9 0.9,-7.5 0.9,-7.5 0.1,-0.5 0.6,-1 1.2,-1 H 1.7 c 0.5,0 1,-0.4 1,-1 v -20.9 c 0,-0.5 0.4,-1.1 1,-1.2 0,0 2.6,-0.9 7.5,-0.9 5,0 7.5,0.9 7.5,0.9 0.5,0.1 1,0.6 1,1.2 V -22 c 0,0.5 0.4,1 1,1 h 20.9 c 0.5,0 1.1,0.4 1.2,1 0,0 0.9,2.5 0.9,7.5 0,5.2 -0.9,7.5 -0.9,7.5 -0.1,0.5 -0.6,1 -1.2,1 H 20.5 c -0.5,0 -1,0.4 -1,1 z"
                 inkscape:connector-curvature="0"
                 style="fill:#aaaaaa" /></g><g
               id="g104"
               transform="translate(56.5425,45.8535)"><path
                 id="path106"
                 d="m 19.5,17.5 c 0,-3.9 -3.2,-7.1 -7.1,-7.1 -3.9,0 -7.1,3.2 -7.1,7.1 0,3.9 3.2,7.1 7.1,7.1 3.9,0 7.1,-3.2 7.1,-7.1"
                 inkscape:connector-curvature="0"
                 style="fill:#999999" /></g></g></g></g></g><rect
       x="179"
       y="123.3"
       width="66"
       height="30"
       id="rect42"
       style="fill:#999999" /><polygon
       points="237.3,123.3 221.3,153.3 209.7,153.3 225.7,123.3 "
       id="polygon44"
       style="fill:#990033" /><g
       id="g48"><path
         d="m 185.3,149.8 0.2,-3 h 1.3 l 0.3,3 h 3.1 l -1.9,-15.3 h -4 l -2,15.3 h 3 m 1.3,-5.6 h -0.9 l 0.5,-5.9 0.4,5.9 m 8.6,-9.7 h -4.3 v 15.3 h 2.9 v -8.7 l 1.2,8.7 h 1.9 l 1.2,-8.7 v 8.7 h 2.9 v -15.3 h -4.3 l -0.8,6.8 -0.7,-6.8 m 6.4,1.8 c 0,1.1 0,2.1 0,3.2 0,0.2 0,0.3 0,0.5 0,0.3 0,0.3 0.1,0.5 0,0.2 0.1,0.4 0.2,0.6 0.1,0.1 0.1,0.2 0.2,0.3 0.1,0.1 0.2,0.2 0.3,0.3 0.3,0.2 0.6,0.4 0.9,0.6 0.6,0.4 1.3,0.7 1.9,1.1 0.1,0.1 0.2,0.1 0.3,0.2 0.2,0.2 0.2,0.5 0.2,0.7 v 0.3 2.1 c 0,0.2 0,0.3 -0.1,0.5 0,0 -0.1,0.1 -0.1,0.1 -0.1,0.1 -0.3,0.1 -0.5,0.1 -0.1,0 -0.1,-0.1 -0.1,-0.1 -0.2,-0.2 -0.1,-0.4 -0.2,-0.6 v -3.1 h -3.3 v 3.5 c 0,0.4 0,0.8 0.1,1.3 0,0.2 0.1,0.4 0.3,0.6 0.1,0.2 0.3,0.4 0.5,0.5 0.2,0.1 0.4,0.2 0.6,0.3 0.2,0.1 0.3,0.1 0.4,0.1 0.1,0 0.3,0 0.4,0 h 3.3 c 0.1,0 0.3,0 0.5,0 0.2,-0.1 0.4,-0.1 0.6,-0.3 0.2,-0.1 0.3,-0.3 0.5,-0.4 0.1,-0.2 0.2,-0.3 0.2,-0.5 0.1,-0.2 0.1,-0.3 0.1,-0.5 0,-0.2 0.1,-0.4 0.1,-0.6 0,-0.2 0,-0.5 0,-0.7 v -2.5 c 0,0 0,-0.1 0,-0.2 0,-0.1 0,-0.3 0,-0.4 0,-0.2 0,-0.4 0,-0.5 0,-0.1 0,-0.2 0,-0.3 0,-0.1 0,-0.1 0,-0.2 0,-0.1 0,-0.1 -0.1,-0.2 0,-0.1 -0.1,-0.2 -0.2,-0.4 -0.1,-0.1 -0.2,-0.3 -0.3,-0.4 -0.1,-0.1 -0.2,-0.2 -0.4,-0.3 -0.3,-0.2 -0.6,-0.4 -1,-0.6 l -1.4,-0.8 c -0.1,0 -0.2,-0.1 -0.2,-0.1 -0.1,-0.1 -0.2,-0.1 -0.2,-0.1 -0.1,-0.1 -0.1,-0.1 -0.1,-0.1 0,0 0,0 0,-0.1 -0.1,-0.1 -0.1,-0.2 -0.1,-0.4 0,-0.1 0,-0.1 0,-0.2 0,-0.5 0,-1 0,-1.4 0,-0.1 0,-0.2 0,-0.3 0,-0.1 0,-0.1 0.1,-0.2 0.2,-0.2 0.3,-0.2 0.6,-0.2 0,0 0.1,0.1 0.1,0.1 0,0 0.1,0.1 0.1,0.1 0,0.1 0,0.1 0,0.2 0,0.2 0,0.4 0,0.6 v 1.8 h 3.3 c 0,-0.9 0,-1.9 0,-2.8 0,-0.2 0,-0.4 0,-0.6 0,-0.1 0,-0.2 0,-0.3 0,-0.1 0,-0.1 -0.1,-0.2 0,-0.1 0,-0.1 -0.1,-0.2 -0.1,-0.1 -0.1,-0.3 -0.2,-0.4 -0.1,-0.1 -0.2,-0.3 -0.4,-0.4 -0.1,-0.1 -0.3,-0.2 -0.5,-0.2 -0.3,-0.1 -0.5,-0.1 -0.7,-0.1 -0.1,0 -0.2,0 -0.4,0 H 204 c -0.3,0 -0.6,0.1 -1,0.1 -0.1,0 -0.2,0.1 -0.3,0.1 -0.2,0.1 -0.3,0.2 -0.5,0.4 -0.1,0.1 -0.2,0.2 -0.2,0.4 -0.3,0.1 -0.4,0.4 -0.4,0.7 m 8,-1.8 v 2.5 h 1.6 v 12.8 h 3.3 V 137 h 1.6 v -2.5 h -6.5 m 10.9,0 H 217 v 15.3 h 3.3 v -6.1 c 0.2,0 0.4,0 0.6,0 0,0 0.1,0 0.1,0.1 0.2,0.1 0.1,0.3 0.2,0.5 0,0.3 0,0.6 0,0.9 v 4.6 h 3.3 V 145 c 0,-0.5 0,-0.9 -0.1,-1.4 0,-0.1 -0.1,-0.2 -0.1,-0.3 -0.1,-0.2 -0.2,-0.3 -0.3,-0.5 -0.1,-0.1 -0.3,-0.3 -0.4,-0.4 -0.1,-0.1 -0.3,-0.2 -0.5,-0.2 0.1,0 0.2,0 0.3,-0.1 0.2,-0.1 0.3,-0.2 0.5,-0.3 0.1,-0.1 0.3,-0.3 0.4,-0.4 0.1,-0.2 0.2,-0.3 0.2,-0.5 0,-0.1 0.1,-0.3 0.1,-0.4 0.1,-0.5 0.1,-1 0.1,-1.6 v -1.6 c 0,-0.3 0,-0.6 0,-1 0,-0.2 0,-0.3 -0.1,-0.4 0,-0.1 -0.1,-0.2 -0.1,-0.3 0,-0.1 -0.1,-0.2 -0.1,-0.3 -0.1,-0.1 -0.1,-0.2 -0.2,-0.3 -0.1,-0.1 -0.2,-0.2 -0.4,-0.3 -0.3,-0.2 -0.6,-0.3 -0.9,-0.3 -1,0.1 -1.7,0.1 -2.4,0.1 m -0.2,2.5 c 0.2,0 0.3,0 0.5,0 0.1,0 0.1,0 0.2,0.1 0.2,0.1 0.2,0.3 0.2,0.5 0,0.2 0,0.4 0,0.6 0,0.7 0,1.3 0,2 0,0.1 0,0.2 0,0.4 0,0.1 0,0.1 0,0.2 0,0 -0.1,0.1 -0.1,0.1 -0.1,0.1 -0.2,0.1 -0.3,0.1 -0.1,0 -0.3,0 -0.4,0 v -4 m 7.8,12.8 0.2,-3 h 1.3 l 0.3,3 h 3.1 l -1.9,-15.3 h -4 l -2,15.3 h 3 m 1.3,-5.6 h -0.9 l 0.5,-5.9 0.4,5.9 m 11.3,-8.8 c -0.1,-0.2 -0.3,-0.3 -0.4,-0.5 -0.2,-0.1 -0.4,-0.2 -0.5,-0.3 -0.1,-0.1 -0.2,-0.1 -0.3,-0.1 -0.1,0 -0.2,0 -0.3,0 -0.1,0 -0.2,0 -0.4,0 -0.2,0 -0.6,0 -0.9,0 h -4.2 v 15.3 h 5.2 c 0.1,0 0.3,0 0.4,-0.1 0.3,0 0.5,-0.1 0.8,-0.2 0.1,-0.1 0.3,-0.1 0.4,-0.2 0.1,-0.1 0.2,-0.2 0.4,-0.4 0.1,-0.2 0.2,-0.4 0.3,-0.7 0.1,-0.3 0.1,-0.6 0.1,-1 v -10.4 c 0,-0.2 -0.1,-0.5 -0.1,-0.7 -0.3,-0.3 -0.3,-0.5 -0.5,-0.7 m -3.6,1.6 c 0.1,0 0.1,0 0.2,0 0.1,0 0.1,0 0.2,0 0.1,0 0.1,0 0.1,0.1 0,0 0.1,0.1 0.1,0.1 0.1,0.2 0.1,0.4 0.1,0.6 v 8.8 c 0,0.1 0,0.1 0,0.2 0,0.1 0,0.1 0,0.2 0,0.1 0,0.1 -0.1,0.1 0,0 -0.1,0.1 -0.1,0.1 0,0 -0.1,0.1 -0.1,0.1 H 237 V 137 h 0.2"
         id="path46"
         inkscape:connector-curvature="0"
         style="fill:#e9e9e9" /></g><g
       id="g108"
       transform="translate(41.9597,62.1521)"><path
         id="path110"
         d="m 12.5,51.4 10.9,8.5 v -2.8 h 5.3 V 45.7 h -5.3 v -2.6 z"
         inkscape:connector-curvature="0"
         style="fill:#999999" /></g><g
       id="g116"
       transform="translate(97.3761,61.9341)"><path
         id="path118"
         d="m 20.4,51.8 -11,-8.5 v 2.8 H 4.2 V 57.5 H 9.5 V 60 Z"
         inkscape:connector-curvature="0"
         style="fill:#999999" /></g><g
       id="g108_1_"
       transform="translate(41.9597,62.1521)"><path
         id="path110_1_"
         d="m 44.2,19.8 -8.5,10.9 h 2.8 V 36 H 50 v -5.3 h 2.6 z"
         inkscape:connector-curvature="0"
         style="fill:#999999" /></g><g
       id="g116_1_"
       transform="translate(97.3761,61.9341)"><path
         id="path118_1_"
         d="m -11.4,83.3 8.5,-10.9 h -2.8 v -5.3 h -11.5 v 5.3 h -2.6 z"
         inkscape:connector-curvature="0"
         style="fill:#999999" /></g><text
       transform="scale(1.10761,0.90284486)"
       font-size="11.4118"
       id="text58"
       style="font-size:12.63982487px;font-family:KenVector-Future-Thin;fill:#999999;stroke-width:1.10760999;fill-opacity:1;"
       x="254.82796"
       y="185.13414"><tspan
         style="font-style:normal;font-variant:normal;font-weight:normal;font-stretch:normal;font-family:Ubuntu;-inkscape-font-specification:Ubuntu;stroke-width:1.10760999;fill:#999999;fill-opacity:1;"
         id="tspan864">1</tspan></text>
</g><text
     transform="scale(1.2383456,0.80752901)"
     font-size="11.4118"
     id="text58-9"
     style="font-size:11.30540276px;font-family:KenVector-Future-Thin;fill:#999999;stroke-width:0.99067646;fill-opacity:1;"
     x="257.6123"
     y="156.85417"><tspan
       style="font-style:normal;font-variant:normal;font-weight:normal;font-stretch:normal;font-family:Ubuntu;-inkscape-font-specification:Ubuntu;stroke-width:0.99067646;fill:#999999;fill-opacity:1;"
       id="tspan864-2">2</tspan></text>
</svg>