<?xml version="1.0" encoding="UTF-8" standalone="no"?>
<!-- Generator: Adobe Illustrator 13.0.0, SVG Export Plug-In . SVG Version: 6.00 Build 14948)  -->

<svg
   xmlns:ns="&amp;#38;ns_sfw;"
   xmlns:dc="http://purl.org/dc/elements/1.1/"
   xmlns:cc="http://creativecommons.org/ns#"
   xmlns:rdf="http://www.w3.org/1999/02/22-rdf-syntax-ns#"
   xmlns:svg="http://www.w3.org/2000/svg"
   xmlns="http://www.w3.org/2000/svg"
   xmlns:sodipodi="http://sodipodi.sourceforge.net/DTD/sodipodi-0.dtd"
   xmlns:inkscape="http://www.inkscape.org/namespaces/inkscape"
   version="1.2"
   id="Layer_3"
   x="0px"
   y="0px"
   width="546.55298"
   height="251.84508"
   viewBox="0 0 546.55295 251.84507"
   xml:space="preserve"
   inkscape:version="0.92.2 (5c3e80d, 2017-08-06)"
   sodipodi:docname="controller.svg"><defs
     id="defs79" /><sodipodi:namedview
     pagecolor="#ffffff"
     bordercolor="#666666"
     borderopacity="1"
     objecttolerance="10"
     gridtolerance="10"
     guidetolerance="10"
     inkscape:pageopacity="0"
     inkscape:pageshadow="2"
     inkscape:window-width="1920"
     inkscape:window-height="1017"
     id="namedview77"
     showgrid="false"
     fit-margin-top="0"
     fit-margin-left="0"
     fit-margin-right="0"
     fit-margin-bottom="0"
     inkscape:zoom="0.48145317"
     inkscape:cx="273.52251"
     inkscape:cy="165.57142"
     inkscape:window-x="-8"
     inkscape:window-y="-8"
     inkscape:window-maximized="1"
     inkscape:current-layer="Layer_3" /><metadata
     id="metadata55"><rdf:RDF><cc:Work
         rdf:about=""><dc:format>image/svg+xml</dc:format><dc:type
           rdf:resource="http://purl.org/dc/dcmitype/StillImage" /><dc:title></dc:title></cc:Work></rdf:RDF><ns:sfw><ns:slices /><ns:sliceSourceBounds
         x="-7231"
         y="-7652"
         width="16383"
         height="16383"
         bottomLeftOrigin="true" /></ns:sfw></metadata><path
     id="path3"
     d="m 9.753,7.5143965e-4 c -2.444,0 -4.725,-0.0412499996 -6.587,0.48750000035 C 2.235,0.75225144 1.414,1.1955014 0.848,1.8457514 0.282,2.4960014 0,3.3172514 0,4.3267514 V 248.112 c 0,1.00875 0.277,1.8135 0.876,2.418 0.599,0.60375 1.471,0.9555 2.403,1.12425 1.865,0.33525 4.084,0.12675 6.475,0.12675 h 526.988 c 2.391,0 4.609,0.2085 6.475,-0.12675 0.934,-0.16875 1.806,-0.5205 2.404,-1.12425 0.448,-0.453 0.658,-1.059 0.763,-1.7385 h 0.113 V 248.11275 4.3267514 c 0,-1.0095 -0.254,-1.83075 -0.82,-2.481 -0.566,-0.65025 -1.415,-1.09274996 -2.347,-1.35749996 -1.863,-0.52575 -4.144,-0.4845 -6.587,-0.4845 H 9.755 Z m 0,1.35674996035 h 526.988 c 2.447,0 4.595,0.02175 5.938,0.40275 0.672,0.18975 1.141,0.44775 1.471,0.82725 0.335,0.378 0.543,0.91275 0.543,1.7385 v 243.1072486 0.678 c 0,0.82575 -0.212,1.31175 -0.509,1.61175 -0.298,0.3 -0.716,0.47325 -1.386,0.59325 -1.341,0.2415 -3.549,0.1065 -6.051,0.1065 H 9.759 c -2.501,0 -4.71,0.13575 -6.051,-0.1065 -0.669,-0.12225 -1.087,-0.2985 -1.384,-0.597 -0.298,-0.2985 -0.509,-0.7875 -0.509,-1.6155 V 4.3267514 c 0,-0.82575 0.208,-1.3605 0.537,-1.7385 0.33,-0.3795 0.798,-0.6375 1.471,-0.82725 1.343,-0.38175 3.49,-0.40275 5.937,-0.40275 H 9.753 Z"
     inkscape:connector-curvature="0"
     style="fill:#f4f4f4;stroke-width:0.86602539" /><path
     id="path5"
     d="m 26.746,68.559003 c -8.13,0 -15.267,3.156 -19.368,7.9305 l 1.499,0.7425 c 3.78,-4.401 10.365,-7.31625 17.87,-7.31625 h 492.489 c 7.604,0 14.257,2.98725 18.011,7.485 l 1.528,-0.7185 c -4.073,-4.88175 -11.299,-8.1225 -19.538,-8.1225 H 26.748 Z"
     inkscape:connector-curvature="0"
     style="fill:#f4f4f4;stroke-width:0.86602539" /><path
     id="path7"
     d="m 16.568,75.854253 c -3.426,0 -6.545,1.0095 -8.85,2.64975 l 1.244,0.9975 c 1.982,-1.4115 4.653,-2.2905 7.606,-2.2905 h 512.847 c 3.265,0 6.176,1.0725 8.199,2.757 l 1.357,-0.91275 c -2.353,-1.95825 -5.77,-3.2025 -9.557,-3.2025 l -512.846,10e-4 z"
     inkscape:connector-curvature="0"
     style="fill:#f4f4f4;stroke-width:0.86602539" /><path
     id="path9"
     d="m 24.542,96.300003 c -1.712,0 -3.11,1.0485 -3.11,2.3325 V 112.077 c 0,1.284 1.398,2.35425 3.11,2.35425 h 28.783 c 1.711,0 3.139,-1.07025 3.139,-2.35425 v -0.67875 H 56.436 V 98.632503 c 0,-1.284 -1.399,-2.3325 -3.11,-2.3325 z m 0,1.35675 h 28.783 c 0.733,0 1.301,0.42525 1.301,0.97575 v 13.444497 0.0427 c -0.035,0.52575 -0.591,0.954 -1.301,0.954 H 24.542 c -0.734,0 -1.301,-0.44625 -1.301,-0.99675 V 98.632453 c 0,-0.54975 0.566,-0.97575 1.301,-0.97575 z"
     inkscape:connector-curvature="0"
     style="fill:#f4f4f4;stroke-width:0.86602539" /><path
     id="path11"
     d="m 72.326,96.300003 c -1.712,0 -3.11,1.0485 -3.11,2.3325 V 112.077 c 0,1.284 1.398,2.35425 3.11,2.35425 h 28.783 c 1.712,0 3.11,-1.07025 3.11,-2.35425 v -0.67875 -12.765747 c 0,-1.28325 -1.398,-2.3325 -3.11,-2.3325 z m 0,1.35675 h 28.783 c 0.734,0 1.301,0.42525 1.301,0.97575 V 112.077 c 0,0.5505 -0.568,0.99675 -1.301,0.99675 H 72.326 c -0.733,0 -1.301,-0.44625 -1.301,-0.99675 V 98.632503 c 10e-4,-0.54975 0.569,-0.97575 1.301,-0.97575 z"
     inkscape:connector-curvature="0"
     style="fill:#f4f4f4;stroke-width:0.86602539" /><path
     id="path13"
     d="m 120.111,96.300003 c -1.712,0 -3.11,1.0485 -3.11,2.3325 V 112.077 c 0,1.28325 1.398,2.35425 3.11,2.35425 h 28.783 c 1.711,0 3.11,-1.07025 3.11,-2.35425 V 98.632503 c 0,-1.284 -1.399,-2.3325 -3.11,-2.3325 z m 0,1.35675 h 28.783 c 0.733,0 1.301,0.42525 1.301,0.97575 V 112.077 c 0,0.5505 -0.568,0.99675 -1.301,0.99675 h -28.783 c -0.734,0 -1.301,-0.4455 -1.301,-0.99675 V 98.632503 c 0,-0.54975 0.567,-0.97575 1.301,-0.97575 z"
     inkscape:connector-curvature="0"
     style="fill:#f4f4f4;stroke-width:0.86602539" /><path
     id="path15"
     d="m 167.893,96.300003 c -1.712,0 -3.139,1.0485 -3.139,2.3325 V 112.077 c 0,1.28325 1.427,2.35425 3.139,2.35425 h 28.783 c 1.712,0 3.11,-1.07025 3.11,-2.35425 V 98.632503 c 0,-1.28325 -1.398,-2.3325 -3.11,-2.3325 z m 0,1.35675 h 28.783 c 0.734,0 1.301,0.42525 1.301,0.97575 V 112.077 c 0,0.55125 -0.566,0.99675 -1.301,0.99675 h -28.783 c -0.735,0 -1.33,-0.4455 -1.33,-0.99675 V 98.632503 c 0,-0.54975 0.596,-0.97575 1.33,-0.97575 z"
     inkscape:connector-curvature="0"
     style="fill:#f4f4f4;stroke-width:0.86602539" /><path
     id="path17"
     d="m 215.684,96.300003 c -1.711,0 -3.139,1.0485 -3.139,2.3325 V 112.077 c 0,1.28325 1.426,2.35425 3.139,2.35425 h 28.783 c 1.712,0 3.11,-1.07025 3.11,-2.35425 V 98.632503 c 0,-1.284 -1.398,-2.3325 -3.11,-2.3325 z m 0,1.35675 h 28.783 c 0.733,0 1.301,0.42525 1.301,0.97575 V 112.077 c 0,0.5505 -0.568,0.99675 -1.301,0.99675 h -28.783 c -0.734,0 -1.329,-0.4455 -1.329,-0.99675 V 98.632503 c 0,-0.54975 0.596,-0.97575 1.329,-0.97575 z"
     inkscape:connector-curvature="0"
     style="fill:#f4f4f4;stroke-width:0.86602539" /><path
     id="path19"
     d="m 263.439,96.300003 c -1.712,0 -3.11,1.0485 -3.11,2.3325 V 112.077 c 0,1.284 1.398,2.35425 3.11,2.35425 h 28.783 c 1.711,0 3.139,-1.07025 3.139,-2.35425 V 98.632503 c 0,-1.28325 -1.426,-2.3325 -3.139,-2.3325 z m 0,1.35675 h 28.783 c 0.734,0 1.329,0.42525 1.329,0.97575 V 112.077 c 0,0.5505 -0.596,0.99675 -1.329,0.99675 h -28.783 c -0.733,0 -1.301,-0.44625 -1.301,-0.99675 V 98.632503 c 0,-0.54975 0.568,-0.97575 1.301,-0.97575 z"
     inkscape:connector-curvature="0"
     style="fill:#f4f4f4;stroke-width:0.86602539" /><path
     id="path21"
     d="m 311.221,96.300003 c -1.712,0 -3.11,1.0485 -3.11,2.3325 V 112.077 c 0,1.28325 1.398,2.35425 3.11,2.35425 h 28.783 c 1.712,0 3.139,-1.07025 3.139,-2.35425 V 98.632503 c 0,-1.28325 -1.426,-2.3325 -3.139,-2.3325 z m 0,1.35675 h 28.783 c 0.734,0 1.329,0.42525 1.329,0.97575 V 112.077 c 0,0.5505 -0.596,0.99675 -1.329,0.99675 h -28.783 c -0.735,0 -1.301,-0.4455 -1.301,-0.99675 V 98.632503 c 0,-0.54975 0.567,-0.97575 1.301,-0.97575 z"
     inkscape:connector-curvature="0"
     style="fill:#f4f4f4;stroke-width:0.86602539" /><path
     id="path23"
     d="m 359.003,96.300003 c -1.712,0 -3.11,1.0485 -3.11,2.3325 V 112.077 c 0,1.28325 1.398,2.35425 3.11,2.35425 h 28.783 c 1.711,0 3.11,-1.07025 3.11,-2.35425 V 98.632503 c 0,-1.28325 -1.397,-2.3325 -3.11,-2.3325 z m 0,1.35675 h 28.783 c 0.734,0 1.301,0.42525 1.301,0.97575 V 112.077 c 0,0.5505 -0.567,0.99675 -1.301,0.99675 h -28.783 c -0.734,0 -1.301,-0.4455 -1.301,-0.99675 V 98.632503 c 0,-0.54975 0.568,-0.97575 1.301,-0.97575 z"
     inkscape:connector-curvature="0"
     style="fill:#f4f4f4;stroke-width:0.86602539" /><path
     id="path25"
     d="m 406.785,96.300003 c -1.712,0 -3.11,1.0485 -3.11,2.3325 V 112.077 c 0,1.28325 1.397,2.35425 3.11,2.35425 h 28.782 c 1.713,0 3.11,-1.07025 3.11,-2.35425 V 98.632503 c 0,-1.28325 -1.397,-2.3325 -3.11,-2.3325 z m 0,1.35675 h 28.782 c 0.735,0 1.301,0.42525 1.301,0.97575 V 112.077 c 0,0.5505 -0.566,0.99675 -1.301,0.99675 h -28.782 c -0.734,0 -1.301,-0.4455 -1.301,-0.99675 V 98.632503 c 0.001,-0.54975 0.568,-0.97575 1.301,-0.97575 z"
     inkscape:connector-curvature="0"
     style="fill:#f4f4f4;stroke-width:0.86602539" /><path
     id="path27"
     d="m 454.576,96.300003 c -1.711,0 -3.138,1.0485 -3.138,2.3325 V 112.077 c 0,1.28325 1.426,2.35425 3.138,2.35425 h 28.783 c 1.712,0 3.11,-1.07025 3.11,-2.35425 V 98.632503 c 0,-1.28325 -1.398,-2.3325 -3.11,-2.3325 z m 0,1.35675 h 28.783 c 0.734,0 1.301,0.42525 1.301,0.97575 V 112.077 c 0,0.5505 -0.567,0.99675 -1.301,0.99675 h -28.783 c -0.733,0 -1.329,-0.4455 -1.329,-0.99675 V 98.632503 c 0,-0.54975 0.596,-0.97575 1.329,-0.97575 z"
     inkscape:connector-curvature="0"
     style="fill:#f4f4f4;stroke-width:0.86602539" /><path
     id="path29"
     d="m 49.791,131.3295 c -1.712,0 -3.11,1.04775 -3.11,2.3325 v 13.4655 c 0,1.28325 1.398,2.3325 3.11,2.3325 h 28.783 c 1.712,0 3.11,-1.0485 3.11,-2.3325 V 133.662 c 0,-1.28475 -1.397,-2.3325 -3.11,-2.3325 z m 0,1.35675 h 28.783 c 0.734,0 1.3,0.42525 1.3,0.97575 v 13.4655 c 0,0.549 -0.566,0.97575 -1.3,0.97575 H 49.791 c -0.733,0 -1.301,-0.42675 -1.301,-0.97575 V 133.662 c 0,-0.55125 0.568,-0.97575 1.301,-0.97575 z"
     inkscape:connector-curvature="0"
     style="fill:#f4f4f4;stroke-width:0.86602539" /><path
     id="path31"
     d="m 97.572,131.3295 c -1.712,0 -3.139,1.04775 -3.139,2.3325 v 13.4655 c 0,1.28325 1.426,2.3325 3.139,2.3325 h 28.783 c 1.712,0 3.11,-1.04925 3.11,-2.3325 V 133.662 c 0,-1.284 -1.397,-2.3325 -3.11,-2.3325 z m 0,1.35675 h 28.783 c 0.734,0 1.301,0.4245 1.301,0.97575 v 13.4655 c 0,0.54975 -0.566,0.97575 -1.301,0.97575 H 97.572 c -0.734,0 -1.329,-0.42675 -1.329,-0.97575 V 133.662 c 0,-0.55125 0.595,-0.97575 1.329,-0.97575 z"
     inkscape:connector-curvature="0"
     style="fill:#f4f4f4;stroke-width:0.86602539" /><path
     id="path33"
     d="m 145.364,131.3295 c -1.712,0 -3.139,1.04775 -3.139,2.3325 v 13.4655 c 0,1.28325 1.426,2.3325 3.139,2.3325 h 28.783 c 1.712,0 3.11,-1.0485 3.11,-2.3325 V 133.662 c 0,-1.28475 -1.397,-2.3325 -3.11,-2.3325 z m 0,1.35675 h 28.783 c 0.734,0 1.301,0.42525 1.301,0.97575 v 13.4655 c 0,0.549 -0.566,0.97575 -1.301,0.97575 h -28.783 c -0.734,0 -1.33,-0.42675 -1.33,-0.97575 V 133.662 c 0,-0.55125 0.596,-0.97575 1.33,-0.97575 z"
     inkscape:connector-curvature="0"
     style="fill:#f4f4f4;stroke-width:0.86602539" /><path
     id="path35"
     d="m 193.118,131.3295 c -1.712,0 -3.11,1.04775 -3.11,2.3325 v 13.4655 c 0,1.28325 1.397,2.3325 3.11,2.3325 h 28.783 c 1.711,0 3.139,-1.0485 3.139,-2.3325 V 133.662 c 0,-1.284 -1.426,-2.3325 -3.139,-2.3325 z m 0,1.35675 h 28.783 c 0.734,0 1.329,0.4245 1.329,0.97575 v 13.4655 c 0,0.549 -0.596,0.97575 -1.329,0.97575 h -28.783 c -0.734,0 -1.301,-0.42675 -1.301,-0.97575 V 133.662 c 0.001,-0.55125 0.567,-0.97575 1.301,-0.97575 z"
     inkscape:connector-curvature="0"
     style="fill:#f4f4f4;stroke-width:0.86602539" /><path
     id="path37"
     d="m 240.901,131.3295 c -1.712,0 -3.11,1.04775 -3.11,2.3325 v 13.4655 c 0,1.28325 1.397,2.3325 3.11,2.3325 h 28.783 c 1.712,0 3.139,-1.04925 3.139,-2.3325 V 133.662 c 0,-1.284 -1.426,-2.3325 -3.139,-2.3325 z m 0,1.35675 h 28.783 c 0.734,0 1.329,0.4245 1.329,0.97575 v 13.4655 c 0,0.54975 -0.595,0.97575 -1.329,0.97575 h -28.783 c -0.734,0 -1.301,-0.42675 -1.301,-0.97575 V 133.662 c 0,-0.55125 0.567,-0.97575 1.301,-0.97575 z"
     inkscape:connector-curvature="0"
     style="fill:#f4f4f4;stroke-width:0.86602539" /><path
     id="path39"
     d="m 288.683,131.3295 c -1.712,0 -3.111,1.047 -3.111,2.3325 v 13.4655 c 0,1.28325 1.398,2.3325 3.111,2.3325 h 28.783 c 1.711,0 3.139,-1.0485 3.139,-2.3325 V 133.662 c 0,-1.28475 -1.427,-2.3325 -3.139,-2.3325 z m 0,1.35675 h 28.783 c 0.732,0 1.329,0.42525 1.329,0.97575 v 13.4655 c 0,0.549 -0.598,0.97575 -1.329,0.97575 h -28.783 c -0.734,0 -1.301,-0.42675 -1.301,-0.97575 V 133.662 c 0,-0.5505 0.568,-0.97575 1.301,-0.97575 z"
     inkscape:connector-curvature="0"
     style="fill:#f4f4f4;stroke-width:0.86602539" /><path
     id="path41"
     d="m 336.474,131.3295 c -1.712,0 -3.11,1.04775 -3.11,2.3325 v 13.4655 c 0,1.28325 1.397,2.3325 3.11,2.3325 h 28.783 c 1.712,0 3.11,-1.0485 3.11,-2.3325 V 133.662 c 0,-1.284 -1.397,-2.3325 -3.11,-2.3325 z m 0,1.35675 h 28.783 c 0.733,0 1.301,0.4245 1.301,0.97575 v 13.4655 c 0,0.549 -0.568,0.97575 -1.301,0.97575 h -28.783 c -0.733,0 -1.301,-0.42675 -1.301,-0.97575 V 133.662 c 0,-0.55125 0.568,-0.97575 1.301,-0.97575 z"
     inkscape:connector-curvature="0"
     style="fill:#f4f4f4;stroke-width:0.86602539" /><path
     id="path43"
     d="m 384.256,131.3295 c -1.712,0 -3.11,1.04775 -3.11,2.3325 v 13.4655 c 0,1.2825 1.396,2.3325 3.11,2.3325 h 28.783 c 1.712,0 3.11,-1.0485 3.11,-2.3325 V 133.662 c 0,-1.28475 -1.398,-2.3325 -3.11,-2.3325 z m 0,1.35675 h 28.783 c 0.734,0 1.301,0.42525 1.301,0.97575 v 13.4655 c 0,0.549 -0.568,0.97575 -1.301,0.97575 h -28.783 c -0.735,0 -1.3,-0.426 -1.3,-0.97575 V 133.662 c 0,-0.55125 0.565,-0.97575 1.3,-0.97575 z"
     inkscape:connector-curvature="0"
     style="fill:#f4f4f4;stroke-width:0.86602539" /><path
     id="path45"
     d="m 432.038,131.3295 c -1.712,0 -3.139,1.047 -3.139,2.3325 v 13.4655 c 0,1.28325 1.426,2.3325 3.139,2.3325 h 28.783 c 1.712,0 3.109,-1.0485 3.109,-2.3325 V 133.662 c 0,-1.284 -1.396,-2.3325 -3.109,-2.3325 z m 0,1.35675 h 28.783 c 0.733,0 1.3,0.4245 1.3,0.97575 v 13.4655 c 0,0.549 -0.567,0.97575 -1.3,0.97575 h -28.783 c -0.732,0 -1.329,-0.42675 -1.329,-0.97575 V 133.662 c 0,-0.5505 0.598,-0.97575 1.329,-0.97575 z"
     inkscape:connector-curvature="0"
     style="fill:#f4f4f4;stroke-width:0.86602539" /><path
     id="path47"
     d="m 479.82,131.3295 c -1.711,0 -3.138,1.04775 -3.138,2.3325 v 13.4655 c 0,1.28325 1.426,2.3325 3.138,2.3325 h 28.784 c 1.712,0 3.11,-1.04925 3.11,-2.3325 V 133.662 c 0,-1.284 -1.398,-2.3325 -3.11,-2.3325 z m 0,1.35675 h 28.784 c 0.733,0 1.301,0.4245 1.301,0.97575 v 13.4655 c 0,0.54975 -0.567,0.97575 -1.301,0.97575 H 479.82 c -0.733,0 -1.328,-0.42675 -1.328,-0.97575 V 133.662 c -0.001,-0.55125 0.595,-0.97575 1.328,-0.97575 z"
     inkscape:connector-curvature="0"
     style="fill:#f4f4f4;stroke-width:0.86602539" /><path
     id="path49"
     d="m 61.977,166.365 c -1.712,0 -3.138,1.07025 -3.138,2.35425 v 13.4445 c 0,1.28325 1.426,2.3325 3.138,2.3325 h 28.784 c 1.711,0 3.11,-1.0485 3.11,-2.3325 V 181.485 168.71925 c 0,-1.28325 -1.398,-2.35425 -3.11,-2.35425 z m 0,1.3575 h 28.784 c 0.733,0 1.3,0.44625 1.3,0.996 v 13.4445 c 0,0.5505 -0.567,0.97575 -1.3,0.97575 H 61.977 c -0.733,0 -1.329,-0.42525 -1.329,-0.97575 v -13.4445 c 10e-4,-0.5505 0.596,-0.996 1.329,-0.996 z"
     inkscape:connector-curvature="0"
     style="fill:#f4f4f4;stroke-width:0.86602539" /><path
     id="path51"
     d="m 109.732,166.365 c -1.712,0 -3.11,1.07025 -3.11,2.35425 v 13.4445 c 0,1.28325 1.398,2.3325 3.11,2.3325 h 28.784 c 1.712,0 3.138,-1.04925 3.138,-2.3325 v -13.4445 c 0,-1.28325 -1.426,-2.35425 -3.138,-2.35425 z m 0,1.3575 h 28.784 c 0.733,0 1.329,0.44625 1.329,0.996 v 13.4445 c 0,0.55125 -0.594,0.97575 -1.329,0.97575 h -28.784 c -0.734,0 -1.3,-0.42525 -1.3,-0.97575 v -13.4445 c 0,-0.5505 0.566,-0.996 1.3,-0.996 z"
     inkscape:connector-curvature="0"
     style="fill:#f4f4f4;stroke-width:0.86602539" /><path
     id="path53"
     d="m 157.514,166.365 c -1.711,0 -3.11,1.07025 -3.11,2.35425 v 13.4445 c 0,1.28325 1.398,2.3325 3.11,2.3325 h 28.784 c 1.712,0 3.138,-1.0485 3.138,-2.3325 v -13.4445 c 0,-1.284 -1.426,-2.35425 -3.138,-2.35425 z m 0,1.3575 h 28.784 c 0.733,0 1.329,0.44625 1.329,0.996 v 13.4445 c 0,0.5505 -0.594,0.97575 -1.329,0.97575 h -28.784 c -0.733,0 -1.3,-0.42525 -1.3,-0.97575 v -13.4445 c 0,-0.5505 0.568,-0.996 1.3,-0.996 z"
     inkscape:connector-curvature="0"
     style="fill:#f4f4f4;stroke-width:0.86602539" /><path
     id="path55"
     d="m 205.306,166.365 c -1.712,0 -3.11,1.07025 -3.11,2.35425 v 13.4445 c 0,1.28325 1.398,2.3325 3.11,2.3325 h 28.783 c 1.711,0 3.138,-1.0485 3.138,-2.3325 v -13.4445 c 0,-1.284 -1.426,-2.35425 -3.138,-2.35425 z m 0,1.3575 h 28.783 c 0.733,0 1.329,0.44625 1.329,0.996 v 13.4445 c 0,0.5505 -0.595,0.97575 -1.329,0.97575 h -28.783 c -0.734,0 -1.301,-0.42525 -1.301,-0.97575 v -13.4445 c 0,-0.5505 0.567,-0.996 1.301,-0.996 z"
     inkscape:connector-curvature="0"
     style="fill:#f4f4f4;stroke-width:0.86602539" /><path
     id="path57"
     d="m 253.088,166.365 c -1.711,0 -3.11,1.07025 -3.11,2.35425 v 13.4445 c 0,1.28325 1.398,2.3325 3.11,2.3325 h 28.784 c 1.711,0 3.11,-1.0485 3.11,-2.3325 v -13.4445 c 0,-1.28325 -1.398,-2.35425 -3.11,-2.35425 z m 0,1.3575 h 28.784 c 0.733,0 1.301,0.44625 1.301,0.996 v 13.4445 c 0,0.5505 -0.567,0.97575 -1.301,0.97575 h -28.784 c -0.734,0 -1.3,-0.42525 -1.3,-0.97575 v -13.4445 c -0.001,-0.5505 0.567,-0.996 1.3,-0.996 z"
     inkscape:connector-curvature="0"
     style="fill:#f4f4f4;stroke-width:0.86602539" /><path
     id="path59"
     d="m 300.87,166.365 c -1.713,0 -3.11,1.07025 -3.11,2.35425 v 13.4445 c 0,1.28325 1.397,2.3325 3.11,2.3325 h 28.783 c 1.711,0 3.11,-1.0485 3.11,-2.3325 v -13.4445 c 0,-1.28325 -1.398,-2.35425 -3.11,-2.35425 z m 0,1.3575 h 28.783 c 0.734,0 1.301,0.44625 1.301,0.996 v 13.4445 c 0,0.5505 -0.567,0.97575 -1.301,0.97575 H 300.87 c -0.734,0 -1.301,-0.42525 -1.301,-0.97575 v -13.4445 c 10e-4,-0.5505 0.568,-0.996 1.301,-0.996 z"
     inkscape:connector-curvature="0"
     style="fill:#f4f4f4;stroke-width:0.86602539" /><path
     id="path61"
     d="m 348.653,166.365 c -1.712,0 -3.139,1.07025 -3.139,2.35425 v 13.4445 c 0,1.28325 1.426,2.3325 3.139,2.3325 h 28.782 c 1.712,0 3.11,-1.0485 3.11,-2.3325 v -13.4445 c 0,-1.28325 -1.396,-2.35425 -3.11,-2.35425 z m 0,1.3575 h 28.782 c 0.734,0 1.301,0.44625 1.301,0.996 v 13.4445 c 0,0.5505 -0.566,0.97575 -1.301,0.97575 h -28.782 c -0.734,0 -1.329,-0.42525 -1.329,-0.97575 v -13.4445 c 0,-0.5505 0.595,-0.996 1.329,-0.996 z"
     inkscape:connector-curvature="0"
     style="fill:#f4f4f4;stroke-width:0.86602539" /><path
     id="path63"
     d="m 396.444,166.365 c -1.712,0 -3.139,1.07025 -3.139,2.35425 v 13.4445 c 0,1.28325 1.426,2.3325 3.139,2.3325 h 28.783 c 1.711,0 3.11,-1.0485 3.11,-2.3325 v -13.4445 c 0,-1.28325 -1.398,-2.35425 -3.11,-2.35425 z m 0,1.3575 h 28.783 c 0.734,0 1.301,0.44625 1.301,0.996 v 13.4445 c 0,0.5505 -0.567,0.97575 -1.301,0.97575 h -28.783 c -0.735,0 -1.329,-0.42525 -1.329,-0.97575 v -13.4445 c 0,-0.5505 0.594,-0.996 1.329,-0.996 z"
     inkscape:connector-curvature="0"
     style="fill:#f4f4f4;stroke-width:0.86602539" /><path
     id="path65"
     d="m 444.199,166.365 c -1.712,0 -3.109,1.07025 -3.109,2.35425 v 13.4445 c 0,1.28325 1.396,2.3325 3.109,2.3325 h 28.783 c 1.712,0 3.139,-1.04925 3.139,-2.3325 v -13.4445 c 0,-1.2825 -1.425,-2.35425 -3.139,-2.35425 z m 0,1.3575 h 28.783 c 0.735,0 1.329,0.4455 1.329,0.996 v 13.4445 c 0,0.55125 -0.595,0.97575 -1.329,0.97575 h -28.783 c -0.735,0 -1.3,-0.4245 -1.3,-0.97575 v -13.4445 c 0,-0.5505 0.565,-0.996 1.3,-0.996 z"
     inkscape:connector-curvature="0"
     style="fill:#f4f4f4;stroke-width:0.86602539" /><path
     id="path67"
     d="m 84.512,201.414 c -1.71,0 -3.139,1.0485 -3.139,2.3325 v 13.44525 c 0,1.28325 1.427,2.3535 3.139,2.3535 h 28.783 c 1.712,0 3.11,-1.07025 3.11,-2.3535 V 203.7465 c 0,-1.284 -1.398,-2.3325 -3.11,-2.3325 z m 0,1.3575 h 28.783 c 0.735,0 1.301,0.4245 1.301,0.97575 v 13.44525 c 0,0.54975 -0.566,0.996 -1.301,0.996 H 84.512 c -0.733,0 -1.329,-0.447 -1.329,-0.996 v -13.446 c 0,-0.55125 0.595,-0.975 1.329,-0.975 z"
     inkscape:connector-curvature="0"
     style="fill:#f4f4f4;stroke-width:0.86602539" /><path
     id="path69"
     d="m 25.163,201.414 c -1.711,0 -3.11,1.0485 -3.11,2.3325 v 13.44525 c 0,1.28325 1.398,2.3535 3.11,2.3535 h 37.209 c 1.711,0 3.11,-1.0695 3.11,-2.3535 V 216.513 203.7465 c 0,-1.284 -1.399,-2.3325 -3.11,-2.3325 z m 0,1.3575 h 37.209 c 0.735,0 1.301,0.4245 1.301,0.97575 v 13.44525 c 0,0.54975 -0.567,0.996 -1.301,0.996 H 25.163 c -0.733,0 -1.301,-0.447 -1.301,-0.996 v -13.446 c 0.001,-0.55125 0.567,-0.975 1.301,-0.975 z"
     inkscape:connector-curvature="0"
     style="fill:#f4f4f4;stroke-width:0.86602539" /><path
     id="path71"
     d="m 132.298,201.414 c -1.71,0 -3.138,1.0485 -3.138,2.3325 v 13.44525 c 0,1.2825 1.426,2.3535 3.138,2.3535 h 28.784 c 1.711,0 3.11,-1.0695 3.11,-2.3535 V 203.7465 c 0,-1.284 -1.398,-2.3325 -3.11,-2.3325 z m 0,1.3575 h 28.784 c 0.733,0 1.3,0.4245 1.3,0.97575 v 13.44525 c 0,0.54975 -0.567,0.996 -1.3,0.996 h -28.784 c -0.734,0 -1.329,-0.447 -1.329,-0.996 v -13.446 c 0,-0.55125 0.595,-0.975 1.329,-0.975 z"
     inkscape:connector-curvature="0"
     style="fill:#f4f4f4;stroke-width:0.86602539" /><path
     id="path73"
     d="m 180.053,201.414 c -1.711,0 -3.11,1.0485 -3.11,2.3325 v 13.44525 c 0,1.28325 1.398,2.3535 3.11,2.3535 h 28.783 c 1.712,0 3.139,-1.0695 3.139,-2.3535 V 203.7465 c 0,-1.284 -1.427,-2.3325 -3.139,-2.3325 z m 0,1.3575 h 28.783 c 0.735,0 1.329,0.4245 1.329,0.97575 v 13.44525 c 0,0.54975 -0.594,0.996 -1.329,0.996 h -28.783 c -0.733,0 -1.301,-0.447 -1.301,-0.996 v -13.446 c 0,-0.55125 0.567,-0.975 1.301,-0.975 z"
     inkscape:connector-curvature="0"
     style="fill:#f4f4f4;stroke-width:0.86602539" /><path
     id="path75"
     d="m 227.835,201.414 c -1.711,0 -3.11,1.0485 -3.11,2.3325 v 13.44525 c 0,1.2825 1.398,2.3535 3.11,2.3535 h 28.783 c 1.711,0 3.139,-1.0695 3.139,-2.3535 V 203.7465 c 0,-1.284 -1.427,-2.3325 -3.139,-2.3325 z m 0,1.3575 h 28.783 c 0.733,0 1.329,0.4245 1.329,0.97575 v 13.44525 c 0,0.54975 -0.596,0.996 -1.329,0.996 h -28.783 c -0.734,0 -1.301,-0.447 -1.301,-0.996 v -13.446 c 0,-0.552 0.566,-0.975 1.301,-0.975 z"
     inkscape:connector-curvature="0"
     style="fill:#f4f4f4;stroke-width:0.86602539" /><path
     id="path77"
     d="m 275.617,201.414 c -1.712,0 -3.11,1.0485 -3.11,2.3325 v 13.44525 c 0,1.2825 1.398,2.3535 3.11,2.3535 H 304.4 c 1.712,0 3.11,-1.07025 3.11,-2.3535 V 203.7465 c 0,-1.284 -1.398,-2.3325 -3.11,-2.3325 z m 0,1.3575 H 304.4 c 0.735,0 1.3,0.42375 1.3,0.97575 v 13.44525 c 0,0.54975 -0.564,0.996 -1.3,0.996 h -28.783 c -0.735,0 -1.301,-0.447 -1.301,-0.996 v -13.446 c 0.001,-0.552 0.566,-0.975 1.301,-0.975 z"
     inkscape:connector-curvature="0"
     style="fill:#f4f4f4;stroke-width:0.86602539" /><path
     id="path79"
     d="m 323.408,201.414 c -1.711,0 -3.11,1.0485 -3.11,2.3325 v 13.44525 c 0,1.2825 1.398,2.3535 3.11,2.3535 h 28.783 c 1.712,0 3.11,-1.0695 3.11,-2.3535 V 203.7465 c 0,-1.284 -1.397,-2.3325 -3.11,-2.3325 z m 0,1.3575 h 28.783 c 0.736,0 1.301,0.4245 1.301,0.97575 v 13.44525 c 0,0.54975 -0.566,0.996 -1.301,0.996 h -28.783 c -0.734,0 -1.301,-0.447 -1.301,-0.996 v -13.446 c 10e-4,-0.552 0.568,-0.975 1.301,-0.975 z"
     inkscape:connector-curvature="0"
     style="fill:#f4f4f4;stroke-width:0.86602539" /><path
     id="path81"
     d="m 371.191,201.414 c -1.711,0 -3.11,1.0485 -3.11,2.3325 v 13.44525 c 0,1.2825 1.397,2.3535 3.11,2.3535 h 28.783 c 1.712,0 3.11,-1.0695 3.11,-2.3535 V 203.7465 c 0,-1.284 -1.398,-2.3325 -3.11,-2.3325 z m 0,1.3575 h 28.783 c 0.736,0 1.301,0.4245 1.301,0.97575 v 13.44525 c 0,0.54975 -0.565,0.996 -1.301,0.996 h -28.783 c -0.736,0 -1.301,-0.447 -1.301,-0.996 v -13.446 c 0,-0.552 0.565,-0.975 1.301,-0.975 z"
     inkscape:connector-curvature="0"
     style="fill:#f4f4f4;stroke-width:0.86602539" /><path
     id="path83"
     d="m 418.973,201.414 c -1.711,0 -3.139,1.0485 -3.139,2.3325 v 13.44525 c 0,1.2825 1.426,2.3535 3.139,2.3535 h 28.783 c 1.711,0 3.11,-1.0695 3.11,-2.3535 V 203.7465 c 0,-1.284 -1.398,-2.3325 -3.11,-2.3325 z m 0,1.3575 h 28.783 c 0.734,0 1.301,0.4245 1.301,0.97575 v 13.44525 c 0,0.54975 -0.567,0.996 -1.301,0.996 h -28.783 c -0.734,0 -1.329,-0.447 -1.329,-0.996 v -13.446 c 0,-0.55125 0.596,-0.975 1.329,-0.975 z"
     inkscape:connector-curvature="0"
     style="fill:#f4f4f4;stroke-width:0.86602539" /><path
     id="path85"
     d="m 467.886,201.414 c -1.71,0 -3.11,1.0485 -3.11,2.3325 v 13.44525 c 0,1.2825 1.398,2.3535 3.11,2.3535 h 49.623 c 1.711,0 3.109,-1.0695 3.109,-2.3535 V 203.7465 c 0,-1.284 -1.398,-2.3325 -3.109,-2.3325 z m 0,1.3575 h 49.623 c 0.734,0 1.3,0.4245 1.3,0.97575 v 13.44525 c 0,0.54975 -0.567,0.996 -1.3,0.996 h -49.623 c -0.734,0 -1.301,-0.447 -1.301,-0.996 v -13.446 c 0,-0.55125 0.567,-0.975 1.301,-0.975 z"
     inkscape:connector-curvature="0"
     style="fill:#f4f4f4;stroke-width:0.86602539" /><path
     id="path87"
     d="m 491.981,166.365 c -1.712,0 -3.11,1.07025 -3.11,2.35425 v 13.4445 c 0,1.28325 1.398,2.3325 3.11,2.3325 h 28.783 c 1.712,0 3.139,-1.0485 3.139,-2.3325 v -13.4445 c 0,-1.28325 -1.425,-2.35425 -3.139,-2.35425 z m 0,1.3575 h 28.783 c 0.735,0 1.329,0.44625 1.329,0.996 v 13.4445 c 0,0.5505 -0.594,0.97575 -1.329,0.97575 h -28.783 c -0.734,0 -1.301,-0.4245 -1.301,-0.97575 v -13.4445 c 0,-0.5505 0.567,-0.996 1.301,-0.996 z"
     inkscape:connector-curvature="0"
     style="fill:#f4f4f4;stroke-width:0.86602539" /><path
     id="path89"
     d="M 464.077,250.91775"
     inkscape:connector-curvature="0"
     style="fill:none;stroke:#f4f4f4;stroke-width:1.56715953" /><path
     id="line91"
     d="m 481.522,218.637 -14.618,25.617 1.668,0.5295 14.59,-25.61625 z"
     inkscape:connector-curvature="0"
     style="fill:#f4f4f4;stroke-width:0.86602539" /><path
     id="line93"
     d="m 501.453,183.669 -10.349,18.153 1.669,0.5295 10.349,-18.15225 z"
     inkscape:connector-curvature="0"
     style="fill:#f4f4f4;stroke-width:0.86602539" /><path
     id="line95"
     d="m 544.657,107.87625 -33.533,58.8045 1.669,0.53025 33.532,-58.8045 z"
     inkscape:connector-curvature="0"
     style="fill:#f4f4f4;stroke-width:0.86602539" /><path
     id="path97"
     d="M 471.316,250.91775"
     inkscape:connector-curvature="0"
     style="fill:none;stroke:#f4f4f4;stroke-width:1.56715953" /><path
     id="line99"
     d="m 488.697,218.6985 -14.533,25.46775 1.668,0.55125 14.533,-25.48875 z"
     inkscape:connector-curvature="0"
     style="fill:#f4f4f4;stroke-width:0.86602539" /><path
     id="line101"
     d="m 508.638,183.7305 -10.292,18.0675 1.64,0.53025 10.323,-18.07125 -1.664,-0.5295 z"
     inkscape:connector-curvature="0"
     style="fill:#f4f4f4;stroke-width:0.86602539" /><path
     id="line103"
     d="m 544.739,120.39075 -26.465,46.41975 1.668,0.5295 26.466,-46.41975 z"
     inkscape:connector-curvature="0"
     style="fill:#f4f4f4;stroke-width:0.86602539" /><path
     id="path105"
     d="M 478.544,250.91775"
     inkscape:connector-curvature="0"
     style="fill:none;stroke:#f4f4f4;stroke-width:1.56715953" /><path
     id="line107"
     d="m 495.971,218.61675 -14.788,25.956 1.668,0.5295 14.788,-25.95525 z"
     inkscape:connector-curvature="0"
     style="fill:#f4f4f4;stroke-width:0.86602539" /><path
     id="line109"
     d="m 515.904,183.642 -10.35,18.17325 1.669,0.5295 10.35,-18.1725 z"
     inkscape:connector-curvature="0"
     style="fill:#f4f4f4;stroke-width:0.86602539" /><path
     id="line111"
     d="m 544.576,133.365 -22.507,39.444 1.668,0.53025 22.507,-39.444 z"
     inkscape:connector-curvature="0"
     style="fill:#f4f4f4;stroke-width:0.86602539" /><path
     id="path113"
     d="M 485.782,250.91775"
     inkscape:connector-curvature="0"
     style="fill:none;stroke:#f4f4f4;stroke-width:1.56715953" /><path
     id="line115"
     d="m 503.065,218.84775 -14.59,25.638 1.668,0.53025 14.59,-25.63875 -1.665,-0.5295 z"
     inkscape:connector-curvature="0"
     style="fill:#f4f4f4;stroke-width:0.86602539" /><path
     id="line117"
     d="m 544.884,145.4775 -32.148,56.42925 1.64,0.55125 32.177,-56.45175 z"
     inkscape:connector-curvature="0"
     style="fill:#f4f4f4;stroke-width:0.86602539" /><path
     id="path119"
     d="M 493.012,250.91775"
     inkscape:connector-curvature="0"
     style="fill:none;stroke:#f4f4f4;stroke-width:1.56715953" /><path
     id="line121"
     d="m 510.448,218.61675 -14.621,25.63725 1.664,0.54975 14.622,-25.65825 -1.668,-0.53025 z"
     inkscape:connector-curvature="0"
     style="fill:#f4f4f4;stroke-width:0.86602539" /><path
     id="line123"
     d="m 544.858,158.24175 -25.958,45.5295 1.669,0.53025 25.957,-45.53025 z"
     inkscape:connector-curvature="0"
     style="fill:#f4f4f4;stroke-width:0.86602539" /><path
     id="polygon125"
     d="m 19.99,6.8505014 v 0.67875 9.8820016 0.67875 h 0.905 25.221 v 0.23325 H 20.781 19.876 v 0.67875 3.64725 0.67875 h 0.905 33.76 0.905 v -0.67875 -9.395252 -0.67875 H 54.541 27.764 v -0.1275 h 27.116 0.905 v -0.67875 -4.2412496 -0.67875 H 54.88 20.894 Z m 1.809,1.35675 H 53.975 V 11.091001 H 26.86 25.955 v 0.67875 1.48425 0.67875 h 0.905 26.776 v 8.037002 h -31.95 v -2.2905 h 25.334 0.905 v -0.67875 -1.59075 -0.67875 H 47.02 21.799 Z"
     inkscape:connector-curvature="0"
     style="fill:#f4f4f4;stroke-width:0.86602539" /><path
     id="rect127"
     d="m 56.124,6.6802514 v 0.678 15.2895016 0.67875 h 0.905 6.871 0.905 v -0.67875 -15.2887516 -0.678 H 63.9 57.029 56.124 Z m 1.81,1.3575 h 5.061 V 21.969753 h -5.061 z"
     inkscape:connector-curvature="0"
     style="fill:#f4f4f4;stroke-width:0.86602539" /><path
     id="rect129"
     d="m 55.926,3.1177514 v 0.67875 2.0355 0.67875 h 0.905 7.125 0.905 v -0.67875 -2.0355 -0.67875 h -0.905 -7.125 z m 1.81,1.3575 h 5.316 v 0.67875 h -5.316 z"
     inkscape:connector-curvature="0"
     style="fill:#f4f4f4;stroke-width:0.86602539" /><path
     id="rect131"
     d="m 179.682,6.6802514 v 0.678 15.6292516 0.67875 h 0.905 6.871 0.905 v -0.67875 -15.6285016 -0.678 h -0.905 -6.871 -0.905 z m 1.809,1.3575 h 5.062 V 22.309503 h -5.062 z"
     inkscape:connector-curvature="0"
     style="fill:#f4f4f4;stroke-width:0.86602539" /><path
     id="rect133"
     d="m 179.456,3.1177514 v 0.67875 2.0355 0.67875 h 0.905 7.153 0.905 v -0.67875 -2.0355 -0.67875 h -0.905 -7.153 z m 1.809,1.3575 h 5.344 v 0.67875 h -5.344 z"
     inkscape:connector-curvature="0"
     style="fill:#f4f4f4;stroke-width:0.86602539" /><path
     id="polygon135"
     d="m 65.003,6.8505014 v 0.67875 15.0352516 0.67875 h 0.905 6.022 0.905 v -0.67875 -9.819002 h 18.463 v 9.945002 0.67875 h 0.905 6.079 0.905 V 22.690503 7.5277514 6.8490014 H 98.282 65.907 Z m 1.809,1.35675 H 97.377 V 22.012503 h -4.27 v -9.945002 -0.67875 H 92.202 71.93 71.026 v 0.67875 9.818252 H 66.813 V 8.2072514 Z"
     inkscape:connector-curvature="0"
     style="fill:#f4f4f4;stroke-width:0.86602539" /><path
     id="polygon137"
     d="m 99.87,6.6382514 v 0.67875 15.4582516 0.67875 h 0.904 33.93 0.905 v -0.67875 -4.623 -0.67875 h -0.905 -25.448 v -4.770752 h 25.023 0.905 v -0.67875 -4.7077496 -0.67875 h -0.905 -33.506 -0.903 z m 1.81,1.35675 h 31.696 v 3.3502496 h -25.023 -0.905 v 0.67875 6.128252 0.67875 h 0.905 25.447 v 3.2655 h -32.12 z"
     inkscape:connector-curvature="0"
     style="fill:#f4f4f4;stroke-width:0.86602539" /><path
     id="rect139"
     d="m 135.519,3.3300014 v 0.67875 18.7665016 0.67875 h 0.905 6.701 0.905 v -0.67875 -18.7672516 -0.678 h -0.905 -6.701 z m 1.809,1.35675 h 4.892 V 22.096503 h -4.892 z"
     inkscape:connector-curvature="0"
     style="fill:#f4f4f4;stroke-width:0.86602539" /><path
     id="polygon141"
     d="m 144.006,6.6382514 v 0.67875 4.0717496 0.67875 h 0.905 26.38 v 0.97575 h -26.352 -0.905 v 0.678 9.055502 0.67875 h 0.905 33.45 0.905 v -0.67875 -15.4597516 -0.67875 h -0.905 -33.478 z m 1.81,1.35675 h 31.668 V 22.096503 h -31.64 v -7.698002 h 26.352 0.905 v -0.67875 -2.3325 -0.67875 h -0.905 -26.38 z"
     inkscape:connector-curvature="0"
     style="fill:#f4f4f4;stroke-width:0.86602539" /><path
     id="polygon143"
     d="m 188.115,6.6382514 v 0.67875 15.6277516 0.67875 h 0.905 6.813 0.905 v -0.67875 -10.581752 h 27.087 0.905 v -0.67875 -4.3687496 -0.67875 h -0.905 -34.806 z m 1.81,1.35675 h 32.997 v 3.0112496 h -27.088 -0.904 v 0.67875 10.581752 h -5.005 z"
     inkscape:connector-curvature="0"
     style="fill:#f4f4f4;stroke-width:0.86602539" /><path
     id="rect145"
     d="m 151.073,16.032001 v 0.678752 3.03225 0.67875 h 0.904 20.16 0.905 v -0.67875 -3.03225 -0.678752 h -0.905 -20.16 z m 1.809,1.357502 h 18.35 v 1.6755 h -18.35 z"
     inkscape:connector-curvature="0"
     style="fill:#f4f4f4;stroke-width:0.86602539" /><path
     id="line147"
     d="m 0.847,243.9345 v 1.3575 h 544.74 v -1.3575 z"
     inkscape:connector-curvature="0"
     style="fill:#f4f4f4;stroke-width:0.86602539" /></svg>