<?xml version="1.0" encoding="UTF-8" standalone="no"?>
<!-- Generator: Adobe Illustrator 13.0.0, SVG Export Plug-In . SVG Version: 6.00 Build 14948)  -->

<svg
   xmlns:dc="http://purl.org/dc/elements/1.1/"
   xmlns:cc="http://creativecommons.org/ns#"
   xmlns:rdf="http://www.w3.org/1999/02/22-rdf-syntax-ns#"
   xmlns:svg="http://www.w3.org/2000/svg"
   xmlns="http://www.w3.org/2000/svg"
   xmlns:sodipodi="http://sodipodi.sourceforge.net/DTD/sodipodi-0.dtd"
   xmlns:inkscape="http://www.inkscape.org/namespaces/inkscape"
   version="1.2"
   id="Ebene_1"
   x="0px"
   y="0px"
   width="403.078"
   height="62.518501"
   viewBox="0 0 403.07799 62.518503"
   xml:space="preserve"
   inkscape:version="0.92.2 (5c3e80d, 2017-08-06)"
   sodipodi:docname="logo.svg"><metadata
     id="metadata55"><rdf:RDF><cc:Work
         rdf:about=""><dc:format>image/svg+xml</dc:format><dc:type
           rdf:resource="http://purl.org/dc/dcmitype/StillImage" /><dc:title></dc:title></cc:Work></rdf:RDF></metadata><defs
     id="defs53" /><sodipodi:namedview
     pagecolor="#ffffff"
     bordercolor="#666666"
     borderopacity="1"
     objecttolerance="10"
     gridtolerance="10"
     guidetolerance="10"
     inkscape:pageopacity="0"
     inkscape:pageshadow="2"
     inkscape:window-width="1920"
     inkscape:window-height="1017"
     id="namedview51"
     showgrid="false"
     inkscape:zoom="1.696271"
     inkscape:cx="-20.985059"
     inkscape:cy="84.884532"
     inkscape:window-x="-8"
     inkscape:window-y="-8"
     inkscape:window-maximized="1"
     inkscape:current-layer="Ebene_1"
     fit-margin-top="0"
     fit-margin-left="0"
     fit-margin-right="0"
     fit-margin-bottom="0" /><g
     id="g3778"
     transform="matrix(1,0,0,0.75,1.8087635e-5,0)"><path
       id="path3"
       d="M 0.56598191,52.343 V 44.608 H 61.130982 V 35.781 H 0.56598191 l -0.381,-23.82 H 68.994982 v 7.714 H 8.4289819 l 0.381,8.394 H 69.373982 V 52.345 H 0.56598191 Z"
       inkscape:connector-curvature="0"
       style="fill:#000000;fill-opacity:1" /><path
       id="path5"
       d="m 74.356982,52.343 v -40.23 h 8.244 v 40.23 z"
       inkscape:connector-curvature="0"
       style="fill:#000000;fill-opacity:1" /><path
       id="path7"
       d="m 87.025982,52.343 v -40.23 h 68.809998 v 40.23 h -8.244 V 19.826 H 95.268982 v 32.52 z"
       inkscape:connector-curvature="0"
       style="fill:#000000;fill-opacity:1" /><path
       id="path9"
       d="m 160.23698,52.343 v -40.23 h 68.86 v 7.714 h -60.564 v 24.782 h 60.564 v 7.739 h -68.86 z"
       inkscape:connector-curvature="0"
       style="fill:#000000;fill-opacity:1" /><path
       id="path11"
       d="M 234.58298,52.343 V 0 h 8.246 v 52.345 h -8.246 z"
       inkscape:connector-curvature="0"
       style="fill:#000000;fill-opacity:1" /><path
       id="path13"
       d="m 320.99398,52.343 v -40.23 h 8.295 v 40.23 z"
       inkscape:connector-curvature="0"
       style="fill:#000000;fill-opacity:1" /><path
       id="path15"
       d="m 334.27098,52.343 v -40.23 h 68.807 v 7.714 h -60.563 v 32.521 h -8.244 z"
       inkscape:connector-curvature="0"
       style="fill:#000000;fill-opacity:1" /><path
       id="path17"
       d="m 247.22798,12.113 v 7.714 h 60.564 v 8.824 h -60.564 v 23.694 h 68.861 V 12.113 Z m 60.564,32.496 h -52.271 v -8.827 h 52.271 z"
       inkscape:connector-curvature="0"
       style="fill:#000000;fill-opacity:1" /><path
       id="path19"
       d="M 74.356982,7.739 V 0 h 8.244 v 7.739 z"
       inkscape:connector-curvature="0"
       style="fill:#000000;fill-opacity:1" /><path
       id="path21"
       d="M 320.99398,7.739 V 0 h 8.295 v 7.739 z"
       inkscape:connector-curvature="0"
       style="fill:#000000;fill-opacity:1" /><path
       style="fill:#f05953;fill-opacity:1"
       id="path23"
       d="M -1.8087635e-5,80.22 9.6879819,68.634 H 0.75998191 V 65.298 H 14.974982 v 3.136 L 5.2869819,80.02 h 9.9410001 v 3.338 H -1.8087635e-5 Z"
       inkscape:connector-curvature="0" /><path
       style="fill:#f05953;fill-opacity:1"
       id="path25"
       d="m 21.984982,73.897 -5.819,-8.601 h 4.604 l 3.542,5.768 3.668,-5.768 h 4.351 l -5.792,8.625 6.298,9.436 h -4.73 l -3.947,-6.247 -4.022,6.247 h -4.479 z"
       inkscape:connector-curvature="0" /><path
       d="m 48.142309,74.89165 c -0.87458,8e-6 -1.546705,0.238896 -2.016376,0.716664 -0.469684,0.477783 -0.704522,1.162054 -0.704517,2.052816 -5e-6,0.890773 0.234833,1.575045 0.704517,2.052817 0.469671,0.46968 1.141796,0.704519 2.016376,0.704517 0.866465,2e-6 1.530492,-0.234837 1.992082,-0.704517 0.461569,-0.477772 0.692359,-1.162044 0.69237,-2.052817 -1.1e-5,-0.89886 -0.230801,-1.583131 -0.69237,-2.052816 -0.46159,-0.477768 -1.125617,-0.716656 -1.992082,-0.716664 m -3.413263,-1.542649 c -1.101317,-0.332004 -1.931351,-0.84217 -2.490102,-1.530502 -0.558757,-0.688309 -0.838134,-1.546685 -0.838132,-2.575131 -2e-6,-1.530487 0.570899,-2.696582 1.712704,-3.49829 1.141799,-0.801674 2.818061,-1.202519 5.028793,-1.202538 2.194519,1.9e-5 3.862684,0.400864 5.004499,1.202538 1.141789,0.79361 1.71269,1.959706 1.712705,3.49829 -1.5e-5,1.028446 -0.283441,1.886822 -0.850279,2.575131 -0.558768,0.688332 -1.388802,1.198498 -2.490103,1.530502 1.230867,0.340121 2.158075,0.894826 2.781627,1.664118 0.631621,0.761209 0.947438,1.724858 0.947454,2.890948 -1.6e-5,1.797736 -0.599259,3.158181 -1.797733,4.081339 -1.190403,0.915063 -2.959791,1.372593 -5.30817,1.372594 -2.356494,-10e-7 -4.138029,-0.457531 -5.344611,-1.372594 -1.19849,-0.923158 -1.797734,-2.283603 -1.797732,-4.081339 -2e-6,-1.16609 0.311767,-2.129739 0.935307,-2.890948 0.631632,-0.769292 1.562889,-1.323997 2.793773,-1.664118 m 1.093216,-3.631906 c -6e-6,0.720725 0.198392,1.275431 0.595196,1.664118 0.404887,0.38871 0.979837,0.583059 1.724851,0.583048 0.728801,1.1e-5 1.291605,-0.194338 1.688411,-0.583048 0.396786,-0.388687 0.595185,-0.943393 0.595196,-1.664118 -1.1e-5,-0.720698 -0.19841,-1.271355 -0.595196,-1.65197 -0.396806,-0.388684 -0.95961,-0.583033 -1.688411,-0.583049 -0.745014,1.6e-5 -1.319964,0.194365 -1.724851,0.583049 -0.396804,0.388713 -0.595202,0.939369 -0.595196,1.65197"
       style="font-style:normal;font-variant:normal;font-weight:bold;font-stretch:normal;font-size:24.87673378px;line-height:125%;font-family:Sans;-inkscape-font-specification:'Sans Bold';text-align:start;letter-spacing:-3.73150992px;word-spacing:0px;writing-mode:lr-tb;text-anchor:start;fill:#f05953;fill-opacity:1"
       id="path3824"
       inkscape:connector-curvature="0" /><path
       d="m 57.109287,80.12694 h 4.129927 V 68.405237 l -4.239248,0.874572 v -3.182472 l 4.214954,-0.874573 h 4.445745 V 80.12694 h 4.129926 V 83.358 H 57.109287 v -3.23106"
       style="font-style:normal;font-variant:normal;font-weight:bold;font-stretch:normal;font-size:24.87673378px;line-height:125%;font-family:Sans;-inkscape-font-specification:'Sans Bold';text-align:start;letter-spacing:-3.73150992px;word-spacing:0px;writing-mode:lr-tb;text-anchor:start;fill:#f05953;fill-opacity:1"
       id="path3826"
       inkscape:connector-curvature="0" /></g></svg>