<?xml version="1.0" encoding="UTF-8" standalone="no"?>
<!-- Generator: Adobe Illustrator 13.0.0, SVG Export Plug-In . SVG Version: 6.00 Build 14948)  -->

<svg
   xmlns:dc="http://purl.org/dc/elements/1.1/"
   xmlns:cc="http://creativecommons.org/ns#"
   xmlns:rdf="http://www.w3.org/1999/02/22-rdf-syntax-ns#"
   xmlns:svg="http://www.w3.org/2000/svg"
   xmlns="http://www.w3.org/2000/svg"
   xmlns:sodipodi="http://sodipodi.sourceforge.net/DTD/sodipodi-0.dtd"
   xmlns:inkscape="http://www.inkscape.org/namespaces/inkscape"
   id="Layer_3"
   xml:space="preserve"
   height="313.77527"
   viewBox="0 0 322.11792 313.77826"
   width="322.11893"
   version="1.2"
   y="0px"
   x="0px"
   sodipodi:docname="controller.svg"
   inkscape:version="0.92.2 (5c3e80d, 2017-08-06)"><defs
     id="defs16" /><sodipodi:namedview
     pagecolor="#ffffff"
     bordercolor="#666666"
     borderopacity="1"
     objecttolerance="10"
     gridtolerance="10"
     guidetolerance="10"
     inkscape:pageopacity="0"
     inkscape:pageshadow="2"
     inkscape:window-width="1920"
     inkscape:window-height="1017"
     id="namedview14"
     showgrid="false"
     fit-margin-top="0"
     fit-margin-left="0"
     fit-margin-right="0"
     fit-margin-bottom="0"
     inkscape:zoom="0.56408049"
     inkscape:cx="161.06296"
     inkscape:cy="209.177"
     inkscape:window-x="-8"
     inkscape:window-y="-8"
     inkscape:window-maximized="1"
     inkscape:current-layer="Layer_3" /><metadata
     id="metadata27"><rdf:RDF><cc:Work
         rdf:about=""><dc:format>image/svg+xml</dc:format><dc:type
           rdf:resource="http://purl.org/dc/dcmitype/StillImage" /><dc:title></dc:title></cc:Work></rdf:RDF></metadata><path
     id="path3"
     style="color:#000000;text-indent:0;text-align:start;text-transform:none;direction:ltr;baseline-shift:baseline;fill:#f4f4f4;stroke-width:0.86602539;enable-background:accumulate"
     d="M 11.27896,0 C 5.0647595,0 -0.00204045,3.8001 -0.00204045,8.46075 v 296.88 c 0,4.66087 5.06679995,8.4375 11.28100045,8.4375 h 299.56 c 6.2145,0 11.281,-3.77663 11.281,-8.4375 v -0.75 -296.13 c 0,-4.65982 -5.06,-8.46 -11.28,-8.46 h -299.56 z m 0,1.5 h 299.56 c 5.1346,0 9.2812,3.1107 9.2812,6.9609 v 296.88 c 0,3.85012 -4.1477,6.9375 -9.2812,6.9375 h -299.56 c -5.1323005,0.007 -9.2800005,-3.0825 -9.2800005,-6.9375 V 8.4609 c 0,-3.84997 4.1477,-6.96075 9.2810005,-6.96075 z"
     inkscape:connector-curvature="0" /><path
     id="path5"
     style="color:#000000;text-indent:0;text-align:start;text-transform:none;direction:ltr;baseline-shift:baseline;fill:#f4f4f4;stroke-width:0.86602539;enable-background:accumulate"
     d="m 55.34196,23.9295 c -10.396,0 -18.844,6.336 -18.844,14.133 v 49.125 0.75 h 1 85.906 1 v -0.75 -62.508 -0.75 h -1 z m 0,1.5 h 67.062 v 61.008 h -83.906 v -48.375 c 0,-6.9867 7.5292,-12.633 16.844,-12.633 z"
     inkscape:connector-curvature="0" /><path
     id="path7"
     style="color:#000000;text-indent:0;text-align:start;text-transform:none;direction:ltr;baseline-shift:baseline;fill:#f4f4f4;stroke-width:0.86602539;enable-background:accumulate"
     d="m 126.18796,23.9295 v 0.75 64.28925 h -88.406 -1 v 0.75 184.38 c 0,7.797 8.4483,14.133 18.844,14.133 h 210.88 c 10.398,0 18.844,-6.3363 18.844,-14.133 v -236.04 c 0,-7.797 -8.4464,-14.133 -18.844,-14.133 h -139.31 -1 z m 2,1.5 h 138.31 c 9.3167,0 16.844,5.64607 16.844,12.633 v 236.04 c 0,6.98595 -7.5261,12.633 -16.844,12.633 h -210.88 c -9.3146,0 -16.844,-5.64615 -16.844,-12.633 v -183.63 h 88.406 1 v -0.75 -64.28925 z"
     inkscape:connector-curvature="0" /><path
     id="path9"
     style="color:#000000;text-indent:0;text-align:start;text-transform:none;direction:ltr;baseline-shift:baseline;fill:#f4f4f4;stroke-width:0.86602539;enable-background:accumulate"
     d="m 60.74796,92.505 c -6.8129,0.002 -12.343,4.14802 -12.344,9.258 v 110.9325 c 0.0022,5.109 5.5307,9.258 12.344,9.258 h 200.62 c 6.8112,-7.5e-4 12.343,-4.14855 12.344,-9.258 V 101.763 c -10e-4,-5.1099 -5.5326,-9.25725 -12.344,-9.258 z m 0,1.5 h 200.62 c 5.7202,6.8e-4 10.326,3.46927 10.344,7.758 3e-5,0.008 0,0.0154 0,0.0234 v 110.91 c -9.1e-4,4.29877 -4.6129,7.75725 -10.344,7.758 h -200.62 c -5.7329,0 -10.342,-3.45885 -10.344,-7.758 v -110.91 -0.0234 c 0.01796,-4.28873 4.6213,-7.7565 10.344,-7.758 z m 0,1.75785 c -4.4204,0.006 -8.0233,2.68402 -8.0312,6 v 110.9325 c 0.0091,3.31522 3.6113,6.01657 8.0312,6.0234 h 200.62 c 4.4191,-0.007 8.0221,-2.70825 8.0312,-6.0234 v -110.9325 c -0.009,-3.3159 -3.6118,-5.994 -8.0312,-6 z m 0,1.5 h 200.62 c 3.332,0.004 6.0075,2.0025 6.0312,4.5 8e-5,0.008 -2e-5,0.0155 0,0.0234 v 110.91 c -0.007,2.50778 -2.6883,4.5183 -6.0312,4.5234 h -200.62 c -3.344,-0.005 -6.0244,-2.0157 -6.0312,-4.5234 v -110.91 c 1.9e-5,-0.008 -7.2e-5,-0.0155 0,-0.0234 0.0228,-2.4975 2.6982,-4.4955 6.0312,-4.5 z"
     inkscape:connector-curvature="0" /><path
     id="path11"
     style="color:#000000;text-indent:0;text-align:start;text-transform:none;direction:ltr;baseline-shift:baseline;fill:#f4f4f4;stroke-width:0.86602539;enable-background:accumulate"
     d="m 161.05796,110.9325 c -3.0258,0 -6.0407,0.87427 -8.3438,2.6016 l -5.4062,4.03125 c -3.493,2.74005 -5.4397,3.5625 -11.656,3.5625 h -7.4375 c -6.5134,0 -11.812,3.9744 -11.812,8.859 v 5.2734 c 0,2.31113 -0.1571,3.72255 -0.71875,4.8984 -0.56165,1.17593 -1.5637,2.20853 -3.5312,3.7734 l -5.9,4.425 c -4.6063,3.4539 -4.6063,9.0855 0,12.53925 l 5.6562,4.24215 h 0.0312 v 0.0234 c 1.813,1.20158 2.869,2.13848 3.5312,3.51563 0.66223,1.37714 0.9375,3.2679 0.9375,6.32812 v 4.26563 c 0,4.88572 5.3001,8.859 11.812,8.859 h 7.0312 c 6.5893,0 8.7228,1.1139 12.031,3.51562 l 5.4375,4.07813 c 4.6061,3.45457 12.081,3.45457 16.688,0 l 5.125,-3.82035 c 2.117,-1.59788 3.4181,-2.51888 4.9375,-3.04688 1.5194,-0.52799 3.4089,-0.72656 6.875,-0.72656 h 7.5625 c 6.5143,0 11.812,-3.97433 11.812,-8.859 v -5.17965 c 0,-2.97998 0.50503,-4.77713 1.4688,-6.1875 0.96372,-1.41038 2.4622,-2.49998 4.6875,-4.00785 l 0.0312,-0.0234 3.9688,-2.9766 c 4.6061,-3.45458 4.6063,-9.0855 0,-12.53925 l -4.3125,-3.23438 -0.0312,-0.0234 c -2.1217,-1.3794 -3.5341,-2.37825 -4.4375,-3.75 -0.90339,-1.37175 -1.375,-3.1932 -1.375,-6.28125 v -5.0859 c 0,-4.8858 -5.2992,-8.859 -11.812,-8.859 h -7.5625 c -3.4271,3.7e-4 -5.4732,-0.33841 -7.1562,-0.98437 -1.6831,-0.64596 -3.0751,-1.64333 -5.0625,-3.09375 l -4.7188,-3.51563 c -2.303,-1.72725 -5.318,-2.6016 -8.3438,-2.6016 z m 0,1.5 c 2.5097,0 5.0165,0.71552 6.9375,2.15625 l 4.7188,3.51562 v 0.0234 c 1.9876,1.45058 3.5351,2.57348 5.5625,3.3516 2.0274,0.77813 4.4586,1.14885 8.0625,1.1484 h 7.5625 c 5.4327,0 9.8125,3.28425 9.8125,7.35938 v 5.0859 c 0,3.1992 0.49739,5.27273 1.5938,6.9375 1.087,1.6506 2.7191,2.81265 4.8438,4.19535 0.0183,0.0119 0.0441,0.0115 0.0625,0.0234 l 4.25,3.1875 c 3.8417,2.8806 3.8419,7.548 0,10.4295 l -3.9375,2.92965 -0.0312,0.0234 c -2.2312,1.51252 -3.9451,2.74875 -5.0938,4.42965 -1.1548,1.68998 -1.6875,3.76395 -1.6875,6.86715 v 5.17965 c 0,4.07445 -4.3788,7.35938 -9.8125,7.35938 h -7.5625 c -3.5659,0 -5.7969,0.1993 -7.7188,0.86715 -1.9219,0.66788 -3.372,1.7454 -5.5,3.3516 l -5.11,3.81 c -3.8419,2.88142 -10.033,2.88142 -13.875,0 l -5.4375,-4.07813 h -0.0312 v -0.0234 c -3.4236,-2.48527 -6.4755,-3.9375 -13.406,-3.9375 h -7.0312 c -5.4316,0 -9.8125,-3.2841 -9.8125,-7.35937 v -4.26563 c 0,-3.12427 -0.26398,-5.18317 -1.0625,-6.84375 -0.79353,-1.65015 -2.1322,-2.83935 -4.0312,-4.1016 l -0.0312,-0.0234 -5.625,-4.19535 c -3.8417,-2.8806 -3.8417,-7.54875 0,-10.4295 l 5.9375,-4.42965 0.0312,-0.0234 c 2.0344,-1.61805 3.2734,-2.8332 3.9688,-4.2891 0.69535,-1.45582 0.8125,-3.06165 0.8125,-5.4141 v -5.2734 c 0,-4.07452 4.3799,-7.35937 9.8125,-7.35937 h 7.4375 c 6.4935,0 9.4467,-1.1469 13.094,-4.00785 l 5.375,-4.03125 c 1.921,-1.44075 4.4278,-2.15625 6.9375,-2.15625 z"
     inkscape:connector-curvature="0" /><path
     id="path13"
     style="color:#000000;text-indent:0;text-align:start;text-transform:none;direction:ltr;baseline-shift:baseline;fill:#f4f4f4;stroke-width:0.86602539;enable-background:accumulate"
     d="m 161.05796,115.665 c -2.7209,10e-6 -5.4304,0.7677 -7.5,2.32035 l -4.8125,3.60937 c -3.1012,2.43128 -4.796,3.14063 -10.312,3.14063 h -6.5938 c -5.8555,0 -10.625,3.57705 -10.625,7.96875 v 4.6875 c 0,2.0547 -0.13285,3.30502 -0.625,4.3359 -0.49215,1.03095 -1.3775,1.93875 -3.125,3.32812 l -5.25,3.9375 c -4.1402,3.10515 -4.1402,8.16825 0,11.27325 l 5.0312,3.7734 v 0.0234 h 0.0312 c 1.6076,1.06582 2.5121,1.88377 3.0938,3.09375 0.58164,1.20997 0.84375,2.88142 0.84375,5.60159 v 3.79688 c 0,4.3923 4.7687,7.96875 10.625,7.96875 h 6.25 c 5.8451,0 7.6895,0.98617 10.625,3.11715 l 4.8438,3.63285 c 4.14,3.10672 10.859,3.10657 15,0 l 4.5625,-3.42188 c 1.8824,-1.42154 3.0139,-2.23312 4.3438,-2.69534 1.3299,-0.46218 3.0162,-0.63282 6.0938,-0.63282 h 6.75 c 5.8554,0 10.594,-3.57652 10.594,-7.96875 v -4.59375 c 0,-2.64547 0.43398,-4.22152 1.2812,-5.4609 0.84727,-1.23937 2.1764,-2.2215 4.1562,-3.5625 l 0.0312,-0.0234 3.5312,-2.6484 c 4.139,-3.1059 4.1391,-8.16825 0,-11.27325 l -3.8125,-2.85937 -0.0312,-0.0234 -0.0312,-0.0234 c -1.8867,-1.22678 -3.1129,-2.10015 -3.9062,-3.30465 -0.79339,-1.2045 -1.2188,-2.81355 -1.2188,-5.55465 v -4.5234 c 0,-4.39088 -4.7381,-7.96875 -10.594,-7.96875 h -6.75 c -3.039,3.6e-4 -4.8332,-0.29948 -6.3125,-0.86715 -1.474,-0.5657 -2.7109,-1.45935 -4.4688,-2.74215 h -0.0312 l -4.1562,-3.14063 h -0.0312 c -2.071,-1.55242 -4.7791,-2.32035 -7.5,-2.32035 z m 0,1.4766 c 2.2049,1e-5 4.4048,0.63238 6.0938,1.8984 l 4.1875,3.1641 h 0.0312 c 1.7681,1.29045 3.1453,2.30025 4.9688,3 1.8234,0.69979 4.0028,1.03162 7.2188,1.03125 h 6.75 c 4.7744,0 8.5938,2.88862 8.5938,6.46875 v 4.5234 c 0,2.85232 0.41989,4.71345 1.4062,6.2109 0.98009,1.488 2.4762,2.51453 4.375,3.75 0.0122,0.008 0.0191,0.0155 0.0312,0.0234 l 3.79,2.835 c 3.3749,2.53185 3.375,6.63143 0,9.16425 l -3.5,2.6025 c -2.0032,1.35675 -3.5553,2.46525 -4.5938,3.98437 -1.0385,1.51913 -1.5,3.39533 -1.5,6.1641 v 4.59375 c 0,3.58178 -3.8191,6.46875 -8.5938,6.46875 h -6.75 c -3.1774,0 -5.1739,0.17137 -6.9062,0.7734 -1.7324,0.60208 -3.044,1.57006 -4.9375,3 l -4.5625,3.42188 c -3.377,2.53342 -8.8116,2.53327 -12.188,0 l -4.8438,-3.65625 h -0.0312 c -3.0505,-2.21445 -5.8131,-3.5391 -12,-3.5391 h -6.25 c -4.7757,0 -8.625,-2.88705 -8.625,-6.46875 v -3.79687 c 0,-2.78415 -0.25089,-4.62383 -0.96875,-6.11716 -0.71028,-1.47765 -1.9096,-2.53417 -3.5938,-3.65625 l -0.0312,-0.0234 -5,-3.75 c -3.3758,-2.53185 -3.3758,-6.63225 0,-9.16425 l 5.2812,-3.9375 v -0.0234 c 1.8145,-1.44262 2.9366,-2.53282 3.5625,-3.84374 0.62585,-1.31093 0.75,-2.75573 0.75,-4.8516 v -4.6875 c 0,-3.5808 3.8505,-6.46875 8.625,-6.46875 h 6.5938 c 5.7832,0 8.4717,-1.06748 11.719,-3.60938 h 0.0312 l 4.7812,-3.5859 c 1.6874,-1.26585 3.8889,-1.89847 6.0938,-1.8984 z"
     inkscape:connector-curvature="0" /><path
     id="circle15"
     style="color:#000000;text-indent:0;text-align:start;text-transform:none;direction:ltr;baseline-shift:baseline;fill:#f4f4f4;stroke-width:0.86602539;enable-background:accumulate"
     d="m 161.05796,132.915 c -15.971,0 -28.938,9.74775 -28.938,21.72675 0,11.97825 12.966,21.7035 28.938,21.7035 15.971,0 28.938,-9.7245 28.938,-21.7035 0,-11.97825 -12.966,-21.72675 -28.938,-21.72675 z m 0,1.5 c 14.89,0 26.938,9.0585 26.938,20.22675 0,11.1675 -12.047,20.2035 -26.938,20.2035 -14.89,0 -26.938,-9.03525 -26.938,-20.2035 0,-11.1675 12.047,-20.22675 26.938,-20.22675 z"
     inkscape:connector-curvature="0" /><path
     id="circle17"
     style="color:#000000;text-indent:0;text-align:start;text-transform:none;direction:ltr;baseline-shift:baseline;fill:#f4f4f4;stroke-width:0.86602539;enable-background:accumulate"
     d="m 161.05796,140.2275 c -10.595,0 -19.219,6.46755 -19.219,14.41425 0,7.94625 8.6234,14.391 19.219,14.391 10.595,0 19.219,-6.44415 19.219,-14.391 0,-7.94625 -8.6234,-14.41425 -19.219,-14.41425 z m 0,1.5 c 9.5145,0 17.219,5.77822 17.219,12.91425 0,7.13587 -7.7043,12.891 -17.219,12.891 -9.5145,0 -17.219,-5.75475 -17.219,-12.891 0,-7.13588 7.7043,-12.91425 17.219,-12.91425 z"
     inkscape:connector-curvature="0" /><path
     id="path19"
     style="color:#000000;text-indent:0;text-align:start;text-transform:none;direction:ltr;baseline-shift:baseline;fill:#f4f4f4;stroke-width:0.86602539;enable-background:accumulate"
     d="m 127.55796,30.21075 a 1.0011,0.750825 0 1 0 0.0937,1.5 h 136.69 c 5.4338,0 9.8125,3.28485 9.8125,7.35938 v 234.02249 c 0,4.07363 -4.3799,7.35938 -9.8125,7.35938 h -206.56 c -5.4325,0 -9.8125,-3.28658 -9.8125,-7.35938 v -183.33 a 1.0001,0.750075 0 1 0 -2,0 v 183.33 c 0,4.8837 5.299,8.859 11.812,8.859 h 206.56 c 6.5134,0 11.812,-3.975 11.812,-8.859 V 39.07013 c 0,-4.88498 -5.2983,-8.859 -11.812,-8.859 h -136.69 a 1.0001,0.750075 0 0 0 -0.0937,0 z"
     inkscape:connector-curvature="0" /><path
     id="path21"
     style="color:#000000;text-indent:0;text-align:start;text-transform:none;direction:ltr;baseline-shift:baseline;fill:#f4f4f4;stroke-width:0.86602539;enable-background:accumulate"
     d="m 57.77896,30.21075 c -6.5133,0 -11.812,3.97432 -11.812,8.859 v 48.141 a 1.0001,0.750075 0 1 0 2,0 v -48.141 c 0,-4.07445 4.3798,-7.35937 9.8125,-7.35937 h 65.5 a 1.0001,0.750075 0 1 0 0,-1.5 h -65.5 z"
     inkscape:connector-curvature="0" /></svg>