<?xml version="1.0" encoding="UTF-8" standalone="no"?>
<svg
   xmlns:dc="http://purl.org/dc/elements/1.1/"
   xmlns:cc="http://creativecommons.org/ns#"
   xmlns:rdf="http://www.w3.org/1999/02/22-rdf-syntax-ns#"
   xmlns:svg="http://www.w3.org/2000/svg"
   xmlns="http://www.w3.org/2000/svg"
   xmlns:sodipodi="http://sodipodi.sourceforge.net/DTD/sodipodi-0.dtd"
   xmlns:inkscape="http://www.inkscape.org/namespaces/inkscape"
   viewBox="0 0 431.76099 222.60236"
   height="222.60236"
   width="431.76099"
   xml:space="preserve"
   version="1.1"
   id="svg2"
   sodipodi:docname="controller.svg"
   inkscape:version="0.92.2 (5c3e80d, 2017-08-06)"><sodipodi:namedview
     pagecolor="#ffffff"
     bordercolor="#666666"
     borderopacity="1"
     objecttolerance="10"
     gridtolerance="10"
     guidetolerance="10"
     inkscape:pageopacity="0"
     inkscape:pageshadow="2"
     inkscape:window-width="1920"
     inkscape:window-height="1017"
     id="namedview52"
     showgrid="false"
     fit-margin-top="0"
     fit-margin-left="0"
     fit-margin-right="0"
     fit-margin-bottom="0"
     inkscape:zoom="0.79514158"
     inkscape:cx="215.88038"
     inkscape:cy="148.40113"
     inkscape:window-x="-8"
     inkscape:window-y="-8"
     inkscape:window-maximized="1"
     inkscape:current-layer="g14" /><metadata
     id="metadata8"><rdf:RDF><cc:Work
         rdf:about=""><dc:format>image/svg+xml</dc:format><dc:type
           rdf:resource="http://purl.org/dc/dcmitype/StillImage" /><dc:title></dc:title></cc:Work></rdf:RDF></metadata><defs
     id="defs6"><clipPath
       id="clipPath16"
       clipPathUnits="userSpaceOnUse"><path
         id="path18"
         d="M 0,237.442 H 345.409 V 0 H 0 Z"
         inkscape:connector-curvature="0" /></clipPath></defs><g
     transform="matrix(1.25,0,0,-1.25,-2.5e-4,222.60248)"
     id="g10"><g
       id="g12"><g
         clip-path="url(#clipPath16)"
         id="g14"><g
           transform="matrix(1,0,0,0.75,345.4092,3.8101)"
           id="g20"><path
             id="path22"
             style="fill:#383838;fill-opacity:1;fill-rule:nonzero;stroke:none"
             d="m 0,0 c 0,-2.805 -2.275,-5.08 -5.077,-5.08 h -335.255 c -2.803,0 -5.077,2.275 -5.077,5.08 v 227.283 c 0,2.807 2.274,5.079 5.077,5.079 H -5.077 c 2.802,0 5.077,-2.272 5.077,-5.079 z"
             inkscape:connector-curvature="0" /></g><g
           transform="matrix(1,0,0,0.75,142.1651,112.6729)"
           id="g24"><path
             id="path26"
             style="fill:#2d2d2d;fill-opacity:1;fill-rule:nonzero;stroke:none"
             d="m 0,0 c 0,-24.741 -20.057,-44.799 -44.799,-44.799 -24.744,0 -44.799,20.058 -44.799,44.799 0,24.743 20.055,44.801 44.799,44.801 C -20.057,44.801 0,24.743 0,0"
             inkscape:connector-curvature="0" /></g><g
           transform="matrix(1,0,0,0.75,115.2881,112.2247)"
           id="g28"><path
             id="path30"
             style="fill:#3f3f3f;fill-opacity:1;fill-rule:nonzero;stroke:none"
             d="m 0,0 c 0,-9.898 -8.025,-17.92 -17.922,-17.92 -9.897,0 -17.918,8.022 -17.918,17.92 0,9.897 8.021,17.92 17.918,17.92 C -8.025,17.92 0,9.897 0,0"
             inkscape:connector-curvature="0" /></g><g
           transform="matrix(1,0,0,0.75,273.5293,126.2857)"
           id="g32"><path
             id="path34"
             style="fill:#2d2d2d;fill-opacity:1;fill-rule:nonzero;stroke:none"
             d="M 0,0 C 13.08,6.902 17.825,15.031 14.581,26.328 11.336,37.623 -0.451,44.152 -11.747,40.906 -39.226,32.102 -72.601,-0.266 -96.945,-43.67 c -5.826,-10.21 -3.599,-23.037 6.258,-29.437 9.862,-6.399 23.499,-3.88 29.44,6.262 C -41.019,-32.299 -31.383,-17.438 0,0"
             inkscape:connector-curvature="0" /></g><g
           transform="matrix(1,0,0,0.75,208.9932,85.094275)"
           id="g36"><path
             id="path38"
             style="fill:#494949;fill-opacity:1;fill-rule:nonzero;stroke:none"
             d="m 0,0 c 0,-7.857 -6.369,-14.225 -14.226,-14.225 -7.857,0 -14.221,6.368 -14.221,14.225 0,7.854 6.364,14.224 14.221,14.224 C -6.369,14.224 0,7.854 0,0"
             inkscape:connector-curvature="0" /></g><g
           transform="matrix(1,0,0,0.75,228.0049,107.66462)"
           id="g40"><path
             id="path42"
             style="fill:#494949;fill-opacity:1;fill-rule:nonzero;stroke:none"
             d="m 0,0 c 0,-7.857 -6.365,-14.224 -14.223,-14.224 -7.856,0 -14.225,6.367 -14.225,14.224 0,7.857 6.369,14.225 14.225,14.225 C -6.365,14.225 0,7.857 0,0"
             inkscape:connector-curvature="0" /></g><g
           transform="matrix(1,0,0,0.75,253.0225,127.4239)"
           id="g44"><path
             id="path46"
             style="fill:#494949;fill-opacity:1;fill-rule:nonzero;stroke:none"
             d="m 0,0 c 0,-7.857 -6.369,-14.224 -14.222,-14.224 -7.857,0 -14.226,6.367 -14.226,14.224 0,7.855 6.369,14.225 14.226,14.225 C -6.369,14.225 0,7.855 0,0"
             inkscape:connector-curvature="0" /></g><g
           transform="matrix(1,0,0,0.75,282.294,142.1719)"
           id="g48"><path
             id="path50"
             style="fill:#494949;fill-opacity:1;fill-rule:nonzero;stroke:none"
             d="m 0,0 c 0,-7.856 -6.365,-14.224 -14.223,-14.224 -7.856,0 -14.225,6.368 -14.225,14.224 0,7.857 6.369,14.225 14.225,14.225 C -6.365,14.225 0,7.857 0,0"
             inkscape:connector-curvature="0" /></g><g
           transform="matrix(1,0,0,0.75,142.9971,149.82722)"
           id="g52"><path
             id="path54"
             style="fill:#494949;fill-opacity:1;fill-rule:nonzero;stroke:none"
             d="m 0,0 c -2.373,0.316 -4.037,2.494 -3.719,4.867 0.32,2.37 2.497,4.035 4.865,3.716 l 13.691,-1.83 c 2.372,-0.319 4.037,-2.497 3.723,-4.867 -0.32,-2.37 -2.498,-4.034 -4.87,-3.718 z"
             inkscape:connector-curvature="0" /></g><g
           transform="matrix(1,0,0,0.75,201.212,149.82722)"
           id="g56"><path
             id="path58"
             style="fill:#494949;fill-opacity:1;fill-rule:nonzero;stroke:none"
             d="M 0,0 C 2.368,0.316 4.032,2.494 3.719,4.867 3.399,7.237 1.222,8.902 -1.15,8.583 l -13.692,-1.83 c -2.367,-0.319 -4.036,-2.497 -3.718,-4.867 0.32,-2.37 2.498,-4.034 4.865,-3.718 z"
             inkscape:connector-curvature="0" /></g><g
           transform="matrix(1,0,0,0.75,16.9034,166.34185)"
           id="g60"
           style="fill:#c19528;fill-opacity:1"><path
             id="path62"
             style="fill:#c19528;fill-opacity:1;fill-rule:nonzero;stroke:none"
             d="M 0,0 H 2.404 V 3.866 L 6.751,0 h 2.386 v 6.469 h -2.4 V 2.6 L 2.391,6.469 H 0 Z"
             inkscape:connector-curvature="0" /></g><g
           transform="matrix(1,0,0,0.75,26.3096,166.34185)"
           id="g64"
           style="fill:#c19528;fill-opacity:1"><path
             id="path66"
             style="fill:#c19528;fill-opacity:1;fill-rule:nonzero;stroke:none"
             d="M 0,0 H 2.399 V 3.066 L 6.012,0 H 8.866 L 4.976,3.328 8.8,6.469 H 5.945 L 2.399,3.603 V 6.469 H 0 Z"
             inkscape:connector-curvature="0" /></g><g
           transform="matrix(1,0,0,0.75,16.5059,169.8421)"
           id="g68"
           style="fill:#c19528;fill-opacity:1"><path
             id="path70"
             style="fill:#c19528;fill-opacity:1;fill-rule:nonzero;stroke:none"
             d="m 0,0 v 1.802 h -7.003 c -1.217,0.019 -2,-0.928 -2,-2.068 0,-1.141 0.752,-2.09 2,-2.069 h 4.436 c 0.164,0 0.3,-0.117 0.3,-0.266 0,-0.148 -0.136,-0.265 -0.3,-0.265 h -6.369 v -1.801 h 7.001 c 1.222,-0.022 2.001,0.925 2.001,2.066 0,1.143 -0.748,2.09 -2.001,2.068 H -6.37 c -0.164,0 -0.301,0.12 -0.301,0.267 0,0.147 0.137,0.266 0.301,0.266 z"
             inkscape:connector-curvature="0" /></g><g
           transform="matrix(1,0,0,0.75,182.3916,31.181425)"
           id="g72"
           style="fill:#c19528;fill-opacity:1"><path
             id="path74"
             style="fill:#c19528;fill-opacity:1;fill-rule:nonzero;stroke:none"
             d="m 0,0 v -3.139 h -0.23 c -0.266,0.864 -0.673,1.514 -1.222,1.953 -0.536,0.447 -0.859,0.677 -1.505,0.677 -0.611,0 -1.125,-0.195 -1.531,-0.564 -0.416,-0.379 -0.699,-0.895 -0.872,-1.563 -0.169,-0.669 -0.253,-1.355 -0.253,-2.058 0,-0.852 0.093,-1.598 0.279,-2.24 0.186,-0.651 0.486,-0.994 0.902,-1.293 0.416,-0.298 0.748,-0.447 1.32,-0.447 0.204,0 0.407,0.016 0.611,0.06 0.212,0.053 0.376,0.113 0.593,0.201 v 2.27 c 0,0.349 -0.022,0.579 -0.062,0.685 -0.048,0.096 -0.141,0.192 -0.279,0.272 -0.138,0.086 -0.31,0.133 -0.514,0.133 h -0.212 v 0.237 H 1.031 V -5.053 C 0.73,-5.081 0.521,-5.124 0.398,-5.194 0.275,-5.257 0.186,-5.372 0.119,-5.528 0.088,-5.617 0.07,-5.819 0.066,-6.143 L 0.049,-8.342 c -0.523,-0.245 -1.001,-0.456 -1.572,-0.589 -0.571,-0.121 -1.165,-0.227 -1.775,-0.227 -0.784,0 -1.279,0.061 -1.793,0.29 -0.522,0.227 -0.97,0.437 -1.368,0.807 -0.389,0.378 -0.699,0.799 -0.929,1.266 -0.274,0.609 -0.424,1.275 -0.424,2.032 0,1.336 0.442,2.461 1.314,3.381 0.863,0.926 1.961,1.382 3.279,1.382 0.603,0 1.143,-0.166 1.705,-0.396 0.399,-0.166 0.633,-0.246 0.708,-0.246 0.111,0 0.212,0.044 0.31,0.133 0.098,0.088 0.185,0.254 0.266,0.509 z"
             inkscape:connector-curvature="0" /></g><g
           transform="matrix(1,0,0,0.75,167.6026,30.75295)"
           id="g76"
           style="fill:#c19528;fill-opacity:1"><path
             id="path78"
             style="fill:#c19528;fill-opacity:1;fill-rule:nonzero;stroke:none"
             d="m 0,0 c -0.774,-0.009 -1.354,-0.405 -1.752,-1.195 -0.332,-0.642 -0.496,-1.582 -0.496,-2.795 0,-1.452 0.234,-2.541 0.739,-3.227 C -1.146,-7.699 -0.637,-7.93 0,-7.93 v -0.674 h -0.009 c -1.562,0 -2.775,0.535 -3.634,1.608 -0.672,0.844 -1.013,1.844 -1.013,3.006 0,1.301 0.438,2.39 1.314,3.251 0.881,0.872 1.966,1.284 3.254,1.233 L 0,0.494 Z M 0.018,0 H 0 V 0.494 C 1.342,0.527 2.452,0.115 3.298,-0.73 4.161,-1.6 4.59,-2.683 4.59,-3.981 4.59,-5.1 4.268,-6.075 3.625,-6.928 2.767,-8.043 1.562,-8.604 0,-8.604 v 0.674 c 0.43,0 0.806,0.124 1.089,0.336 0.368,0.264 0.602,0.694 0.81,1.282 0.2,0.58 0.341,1.328 0.341,2.269 0,1.124 -0.106,1.961 -0.318,2.514 C 1.718,-0.967 1.447,-0.58 1.134,-0.343 0.806,-0.115 0.43,0 0.018,0"
             inkscape:connector-curvature="0" /></g><g
           transform="matrix(1,0,0,0.75,158.6133,30.640225)"
           id="g80"
           style="fill:#c19528;fill-opacity:1"><path
             id="path82"
             style="fill:#c19528;fill-opacity:1;fill-rule:nonzero;stroke:none"
             d="m 0,0 v -3.508 h 0.177 c 0.562,0 0.783,0.177 1.035,0.537 0.253,0.353 0.412,0.87 0.478,1.566 H 1.942 V -6.064 H 1.69 C 1.642,-5.553 1.531,-5.141 1.367,-4.816 1.194,-4.49 1,-4.271 0.778,-4.165 0.562,-4.053 0.42,-3.999 0,-3.999 V -6.608 C 0,-7.1 0.021,-7.4 0.062,-7.505 0.106,-7.62 0.177,-7.709 0.292,-7.779 0.407,-7.848 0.584,-7.883 0.845,-7.883 h 0.531 c 0.819,0 1.059,0.192 1.554,0.579 0.496,0.379 0.837,0.82 1.057,1.61 h 0.244 l -0.38,-2.681 h -7.242 v 0.246 h 0.301 c 0.252,0 0.465,0.042 0.62,0.131 0.115,0.061 0.203,0.168 0.261,0.318 0.049,0.104 0.075,0.376 0.075,0.823 v 5.854 c 0,0.396 -0.009,0.645 -0.035,0.739 -0.04,0.151 -0.12,0.273 -0.244,0.352 -0.163,0.125 -0.389,0.183 -0.677,0.183 H -3.391 V 0.52 H 4.036 V -2.109 H 3.793 C 3.665,-1.467 3.492,-1.01 3.253,-0.73 3.027,-0.447 2.708,-0.246 2.288,-0.113 2.04,-0.033 1.584,0 0.911,0 Z"
             inkscape:connector-curvature="0" /></g><g
           transform="matrix(1,0,0,0.75,148.9854,31.02985)"
           id="g84"
           style="fill:#c19528;fill-opacity:1"><path
             id="path86"
             style="fill:#c19528;fill-opacity:1;fill-rule:nonzero;stroke:none"
             d="m 0,0 4.568,-5.521 v 3.826 c 0,0.534 -0.07,0.894 -0.234,1.08 -0.222,0.255 -0.482,0.379 -1.005,0.367 V 0 H 6.091 V -0.248 C 5.701,-0.289 5.635,-0.36 5.507,-0.432 5.369,-0.511 5.264,-0.633 5.187,-0.808 5.113,-0.976 5.073,-1.274 5.073,-1.695 v -7.403 h -0.23 l -6.268,7.403 v -5.653 c 0,-0.51 0.124,-0.851 0.367,-1.037 0.244,-0.176 0.523,-0.263 0.837,-0.263 H 0 v -0.247 h -3.288 v 0.247 c 0.509,0 0.862,0.103 1.066,0.298 0.195,0.193 0.301,0.527 0.301,1.002 v 6.276 l -0.203,0.236 c -0.195,0.238 -0.368,0.387 -0.514,0.467 -0.155,0.07 -0.017,0.115 -0.292,0.121 V 0 Z"
             inkscape:connector-curvature="0" /></g><g
           transform="matrix(1,0,0,0.75,195.2803,30.75295)"
           id="g88"
           style="fill:#c19528;fill-opacity:1"><path
             id="path90"
             style="fill:#c19528;fill-opacity:1;fill-rule:nonzero;stroke:none"
             d="m 0,0 c -0.77,-0.009 -1.35,-0.405 -1.748,-1.195 -0.336,-0.642 -0.5,-1.582 -0.5,-2.795 0,-1.452 0.239,-2.541 0.744,-3.227 C -1.146,-7.699 -0.633,-7.93 0,-7.93 v -0.674 h -0.008 c -1.562,0 -2.775,0.535 -3.63,1.608 -0.677,0.844 -1.018,1.844 -1.018,3.006 0,1.301 0.438,2.39 1.319,3.251 0.876,0.872 1.961,1.284 3.249,1.233 L 0,0.494 Z M 0.018,0 H 0 V 0.494 C 1.346,0.527 2.453,0.115 3.298,-0.73 4.17,-1.6 4.604,-2.683 4.604,-3.981 4.604,-5.1 4.276,-6.075 3.635,-6.928 2.771,-8.043 1.567,-8.604 0,-8.604 v 0.674 c 0.435,0 0.807,0.124 1.094,0.336 0.367,0.264 0.601,0.694 0.805,1.282 0.205,0.58 0.341,1.328 0.341,2.269 0,1.124 -0.106,1.961 -0.318,2.514 C 1.718,-0.967 1.452,-0.58 1.134,-0.343 0.807,-0.115 0.435,0 0.018,0"
             inkscape:connector-curvature="0" /></g><g
           transform="matrix(1,0,0,0.75,186.2911,30.640225)"
           id="g92"
           style="fill:#c19528;fill-opacity:1"><path
             id="path94"
             style="fill:#c19528;fill-opacity:1;fill-rule:nonzero;stroke:none"
             d="m 0,0 v -3.508 h 0.177 c 0.566,0 0.783,0.177 1.036,0.537 0.252,0.353 0.416,0.87 0.482,1.566 H 1.947 V -6.064 H 1.695 C 1.646,-5.553 1.531,-5.141 1.367,-4.816 1.199,-4.49 1,-4.271 0.783,-4.165 0.561,-4.053 0.425,-3.999 0,-3.999 V -6.608 C 0,-7.1 0.026,-7.4 0.066,-7.505 0.106,-7.62 0.177,-7.709 0.292,-7.779 0.407,-7.848 0.589,-7.883 0.845,-7.883 h 0.531 c 0.824,0 1.058,0.192 1.558,0.579 0.497,0.379 0.836,0.82 1.058,1.61 H 4.235 L 3.85,-8.375 h -7.236 v 0.246 h 0.301 c 0.252,0 0.46,0.042 0.619,0.131 0.115,0.061 0.204,0.168 0.262,0.318 0.049,0.104 0.07,0.376 0.07,0.823 v 5.854 c 0,0.396 -0.009,0.645 -0.031,0.739 -0.039,0.151 -0.123,0.273 -0.248,0.352 -0.158,0.125 -0.389,0.183 -0.672,0.183 H -3.386 V 0.52 H 4.041 V -2.109 H 3.793 C 3.665,-1.467 3.492,-1.01 3.258,-0.73 3.027,-0.447 2.713,-0.246 2.288,-0.113 2.045,-0.033 1.589,0 0.911,0 Z"
             inkscape:connector-curvature="0" /></g><g
           transform="matrix(1,0,0,0.75,173.335,28.3858)"
           id="g96"
           style="fill:#c19528;fill-opacity:1"><path
             id="path98"
             style="fill:#c19528;fill-opacity:1;fill-rule:evenodd;stroke:none"
             d="M 0,0 H 0.049 C 0.514,0 0.89,-0.396 0.89,-0.869 0.89,-1.344 0.514,-1.73 0.049,-1.73 H 0 c -0.465,0 -0.837,0.386 -0.837,0.861 C -0.837,-0.396 -0.465,0 0,0"
             inkscape:connector-curvature="0" /></g><g
           transform="matrix(1,0,0,0.75,172.7022,162.79398)"
           id="g100"><path
             id="path102"
             style="fill:#494949;fill-opacity:1;fill-rule:nonzero;stroke:none"
             d="M 0,0 C 21.281,0 167.63,20.384 167.63,20.384 H -167.625 C -167.625,20.384 -20.83,0 0,0"
             inkscape:connector-curvature="0" /></g></g></g></g></svg>