<?xml version="1.0" encoding="UTF-8" standalone="no"?>
<!-- Generator: Adobe Illustrator 13.0.0, SVG Export Plug-In . SVG Version: 6.00 Build 14948)  -->

<svg
   xmlns:ns="&amp;#38;ns_sfw;"
   xmlns:dc="http://purl.org/dc/elements/1.1/"
   xmlns:cc="http://creativecommons.org/ns#"
   xmlns:rdf="http://www.w3.org/1999/02/22-rdf-syntax-ns#"
   xmlns:svg="http://www.w3.org/2000/svg"
   xmlns="http://www.w3.org/2000/svg"
   xmlns:sodipodi="http://sodipodi.sourceforge.net/DTD/sodipodi-0.dtd"
   xmlns:inkscape="http://www.inkscape.org/namespaces/inkscape"
   version="1.2"
   id="Layer_3"
   x="0px"
   y="0px"
   width="501.40399"
   height="245.45625"
   viewBox="0 0 501.40397 245.45624"
   xml:space="preserve"
   inkscape:version="0.92.2 (5c3e80d, 2017-08-06)"
   sodipodi:docname="controller.svg"><defs
     id="defs31" /><sodipodi:namedview
     pagecolor="#ffffff"
     bordercolor="#666666"
     borderopacity="1"
     objecttolerance="10"
     gridtolerance="10"
     guidetolerance="10"
     inkscape:pageopacity="0"
     inkscape:pageshadow="2"
     inkscape:window-width="1920"
     inkscape:window-height="1017"
     id="namedview29"
     showgrid="false"
     fit-margin-top="0"
     fit-margin-left="0"
     fit-margin-right="0"
     fit-margin-bottom="0"
     inkscape:zoom="0.48145317"
     inkscape:cx="250.57351"
     inkscape:cy="160.64301"
     inkscape:window-x="-8"
     inkscape:window-y="-8"
     inkscape:window-maximized="1"
     inkscape:current-layer="Layer_3" /><metadata
     id="metadata55"><rdf:RDF><cc:Work
         rdf:about=""><dc:format>image/svg+xml</dc:format><dc:type
           rdf:resource="http://purl.org/dc/dcmitype/StillImage" /><dc:title></dc:title></cc:Work></rdf:RDF><ns:sfw><ns:slices /><ns:sliceSourceBounds
         x="-7231"
         y="-7652"
         width="16383"
         height="16383"
         bottomLeftOrigin="true" /></ns:sfw></metadata><path
     id="circle3"
     d="m 97.656,23.8605 c -48.809,0 -88.395,29.68725 -88.395,66.2955 0,36.606 39.584,66.29625 88.395,66.29625 48.809,0 88.395,-29.68725 88.395,-66.29625 C 186.043,53.55075 146.464,23.8605 97.656,23.8605 Z m 0,1.28475 c 47.882,0 86.681,29.09625 86.681,65.01 0,35.9115 -38.795,65.01075 -86.681,65.01075 -47.883,0 -86.681,-29.09925 -86.681,-65.01075 0,-35.91 38.797,-65.01 86.681,-65.01 z"
     inkscape:connector-curvature="0"
     style="fill:#f4f4f4;stroke-width:0.86602539" /><path
     id="path5"
     d="m 97.656,1.7085 c -14.385,0 -27.405,2.8395 -37.755,7.00875 -1.877,0.75675 -3.052,2.51475 -4.097,4.74 -1.045,2.226 -1.875,4.96875 -2.544,7.73175 -1.336,5.52675 -2.094,11.26425 -2.57,12.9135 l 1.685,0.28125 c 0.564,-1.953 1.251,-7.51875 2.571,-12.97425 0.66,-2.72775 1.471,-5.3985 2.463,-7.51125 0.992,-2.112 2.248,-3.62475 3.321,-4.05675 10.108,-4.07175 22.841,-6.84825 36.925,-6.84825 14.19,0 27.281,2.49525 37.113,6.9285 1.636,0.73725 3.057,2.47125 4.124,4.7595 1.067,2.28825 1.792,5.0985 2.302,7.8525 0.51,2.75325 0.803,5.4555 0.991,7.5915 0.094,1.068 0.153,1.992 0.214,2.71125 0.062,0.71925 0.098,1.19175 0.187,1.52625 l 1.688,-0.26025 c -0.031,-0.1155 -0.1,-0.636 -0.161,-1.3455 -0.061,-0.711 -0.12,-1.6365 -0.214,-2.71125 -0.19,-2.1495 -0.499,-4.88925 -1.018,-7.692 -0.519,-2.802 -1.254,-5.67225 -2.383,-8.09325 C 139.369,11.83875 137.892,9.828 135.651,8.81775 125.488,4.236 112.113,1.71 97.657,1.71 Z"
     inkscape:connector-curvature="0"
     style="fill:#f4f4f4;stroke-width:0.86602539" /><path
     id="path7"
     d="m 97.656,0.0015 c -8.937,0 -17.073,0.876 -23.324,2.3295 h -0.027 -0.026 c -1.329,0.3495 -2.165,1.023 -2.651,1.626 -0.243,0.3015 -0.399,0.59625 -0.509,0.8235 -0.11,0.22725 -0.184,0.43575 -0.188,0.44175 l 1.634,0.402 c 0.057,-0.129 0.078,-0.23175 0.161,-0.402 0.083,-0.171 0.205,-0.39225 0.375,-0.60225 0.333,-0.41175 0.854,-0.825 1.714,-1.06425 0.021,-0.0067 0.032,-0.015 0.053,-0.02025 6.026,-1.39575 14.026,-2.24925 22.788,-2.24925 8.607,0 16.481,0.83625 22.466,2.1885 0.008,7.5e-4 0.02,-0.0015 0.027,0 1.006,0.24825 1.744,0.7035 2.222,1.125 0.242,0.2115 0.403,0.40725 0.509,0.5625 0.105,0.1545 0.134,0.312 0.134,0.1605 h 1.714 c 0,-0.3315 -0.149,-0.49125 -0.321,-0.74325 -0.163,-0.252 -0.386,-0.5355 -0.72,-0.8235 -0.651,-0.576 -1.654,-1.1745 -3.025,-1.506 h -0.026 C 114.439,0.8475 106.428,0.0015 97.662,0.0015 Z"
     inkscape:connector-curvature="0"
     style="fill:#f4f4f4;stroke-width:0.86602539" /><path
     id="circle9"
     d="m 403.748,23.8605 c -48.809,0 -88.395,29.68725 -88.395,66.2955 0,36.606 39.584,66.29625 88.395,66.29625 48.809,0 88.395,-29.68725 88.395,-66.29625 -0.009,-36.60525 -39.588,-66.2955 -88.395,-66.2955 z m 0,1.28475 c 47.883,0 86.681,29.09625 86.681,65.01 0,35.9115 -38.795,65.01075 -86.681,65.01075 -47.883,0 -86.681,-29.09625 -86.681,-65.01075 0,-35.91075 38.796,-65.01 86.681,-65.01 z"
     inkscape:connector-curvature="0"
     style="fill:#f4f4f4;stroke-width:0.86602539" /><path
     id="path11"
     d="m 9.291,82.28025 c -0.96,11.082 -3.274,39.50175 -5.355,65.949 -1.041,13.22625 -2.038,25.9635 -2.758,35.79 C 0.457,193.85175 0,200.7225 0,202.41825 c 0,23.7585 25.706,43.038 57.383,43.038 10.802,0 18.655,-2.24925 24.93,-6.16575 6.274,-3.9165 10.974,-9.453 15.691,-16.047 8.933,-12.48675 19.282,-27.47775 28.357,-40.36575 9.074,-12.88875 16.917,-23.727 20.671,-27.77475 3.798,-4.09425 7.15,-6.50175 11.247,-7.97325 4.097,-1.4715 9.012,-2.00925 15.933,-2.18925 13.863,-0.3585 46.765,0 57.838,0 h 37.301 c 11.072,0 43.977,-0.3585 57.839,0 6.921,0.18 11.836,0.71775 15.933,2.18925 4.097,1.47225 7.476,3.87975 11.273,7.97325 3.754,4.047 11.569,14.886 20.645,27.77475 9.076,12.88875 19.449,27.879 28.384,40.36575 4.718,6.594 9.391,12.1305 15.665,16.047 6.274,3.9165 14.128,6.16575 24.93,6.16575 31.678,0 57.384,-19.27875 57.384,-43.038 0,-1.698 -0.457,-8.56575 -1.179,-18.39525 -0.72,-9.8295 -1.689,-22.56375 -2.73,-35.7885 -2.082,-26.4495 -4.422,-54.87075 -5.383,-65.94975 l -1.713,0.1005 c 0.96,11.07375 3.3,39.4845 5.382,65.93025 1.04,13.224 2.011,25.9605 2.731,35.78775 0.72,9.82725 1.178,16.80225 1.178,18.31575 0,23.064 -24.918,41.7525 -55.67,41.7525 -10.489,0 -17.847,-2.13 -23.832,-5.86425 -5.983,-3.73425 -10.579,-9.1395 -15.261,-15.68325 -8.926,-12.4755 -19.278,-27.432 -28.358,-40.3275 C 367.49,169.401 359.72,158.619 355.79,154.38 c -3.889,-4.19175 -7.486,-6.8235 -11.915,-8.41425 -4.431,-1.5915 -9.619,-2.1285 -16.629,-2.31 -13.994,-0.3615 -46.869,0 -57.893,0 h -37.3 c -11.023,0 -43.896,-0.3615 -57.892,0 -7.009,0.1815 -12.199,0.7185 -16.628,2.31 -4.43,1.59075 -8.027,4.2225 -11.916,8.41425 -3.931,4.23825 -11.7,15.0195 -20.779,27.9165 -9.08,12.89475 -19.434,27.85275 -28.357,40.3275 -4.683,6.5445 -9.279,11.94975 -15.263,15.68325 -5.984,3.73425 -13.342,5.86425 -23.832,5.86425 -30.74,0 -55.658,-18.6885 -55.658,-41.75325 0,-1.51425 0.458,-8.4885 1.178,-18.31575 0.72,-9.8265 1.69,-22.56375 2.731,-35.78775 2.081,-26.448 4.422,-54.85875 5.382,-65.93025 L 9.305,82.284 Z"
     inkscape:connector-curvature="0"
     style="fill:#f4f4f4;stroke-width:0.86602539" /><path
     id="path13"
     d="m 403.748,1.7085 c -14.456,0 -27.806,2.52675 -37.969,7.10925 -2.243,1.01025 -3.745,3.021 -4.875,5.442 -1.128,2.42175 -1.862,5.29125 -2.383,8.094 -0.519,2.80275 -0.828,5.54175 -1.017,7.692 -0.095,1.07475 -0.153,2.00025 -0.215,2.71125 -0.061,0.7095 -0.129,1.23 -0.16,1.3455 l 1.687,0.261 c 0.09,-0.33525 0.127,-0.80775 0.188,-1.52625 0.063,-0.71925 0.121,-1.644 0.215,-2.71125 0.188,-2.136 0.48,-4.83825 0.99,-7.5915 0.511,-2.75325 1.236,-5.5635 2.303,-7.8525 1.066,-2.289 2.488,-4.02225 4.124,-4.7595 9.833,-4.43325 22.923,-6.9285 37.113,-6.9285 14.083,0 26.843,2.7765 36.952,6.84825 1.072,0.432 2.303,1.94475 3.293,4.05675 0.992,2.112 1.805,4.7835 2.465,7.51125 1.317,5.45475 2.005,11.02125 2.57,12.97425 l 1.679,-0.28275 c -0.477,-1.64925 -1.234,-7.38675 -2.57,-12.9135 -0.668,-2.76375 -1.472,-5.50575 -2.517,-7.73175 -1.046,-2.226 -2.247,-3.984 -4.124,-4.74 -10.351,-4.16925 -23.367,-7.008 -37.754,-7.008 z"
     inkscape:connector-curvature="0"
     style="fill:#f4f4f4;stroke-width:0.86602539" /><path
     id="path15"
     d="m 403.748,0.0015 c -8.766,0 -16.777,0.846 -22.973,2.24925 h -0.026 c -1.367,0.3315 -2.371,0.93 -3.025,1.506 -0.327,0.28725 -0.551,0.5715 -0.724,0.8235 -0.172,0.252 -0.321,0.41175 -0.321,0.7425 h 1.714 c 0,0.1515 0.028,-0.0067 0.134,-0.1605 0.105,-0.1545 0.269,-0.3495 0.509,-0.5625 0.479,-0.42075 1.217,-0.876 2.223,-1.125 0.007,-0.0015 0.019,0.0015 0.027,0 5.98,-1.35225 13.854,-2.1885 22.467,-2.1885 8.762,0 16.763,0.8535 22.788,2.24925 0.017,0.0038 0.035,0.01575 0.053,0.02025 0.861,0.23925 1.382,0.6525 1.714,1.0635 0.17,0.21075 0.292,0.432 0.375,0.60225 0.083,0.17025 0.103,0.2715 0.161,0.40125 l 1.636,-0.4215 C 430.478,5.19605 430.404,5.007 430.293,4.779 430.182,4.55175 430.026,4.257 429.777,3.9555 429.289,3.35175 428.459,2.67825 427.131,2.3295 h -0.027 C 420.849,0.876 412.692,0 403.754,0 h -0.006 z"
     inkscape:connector-curvature="0"
     style="fill:#f4f4f4;stroke-width:0.86602539" /><path
     id="line17"
     d="m 159.051,42.417 v 1.2855 H 342.773 V 42.417 Z"
     inkscape:connector-curvature="0"
     style="fill:#f4f4f4;stroke-width:0.86602539" /><path
     id="path19"
     d="m 75.885,37.9785 c -2.055,0 -3.749,1.27125 -3.749,2.81175 V 69.267 l -0.134,0.12075 H 34.005 c -2.054,0 -3.722,1.25025 -3.722,2.7915 v 32.67525 c 0,1.542 1.668,2.7915 3.722,2.7915 h 38.078 l 0.054,0.0405 v 28.55775 c 0,1.542 1.694,2.811 3.749,2.811 h 43.539 c 2.055,0 3.749,-1.269 3.749,-2.811 V 107.727 l 0.08,-0.0803 h 38.05 c 2.054,0 3.749,-1.25025 3.749,-2.7915 V 72.1807 c 0,-1.5405 -1.695,-2.7915 -3.749,-2.7915 h -38.023 l -0.107,-0.1005 V 40.79025 c 0,-1.54125 -1.695,-2.81175 -3.749,-2.81175 z m 0,1.2855 h 43.539 c 1.128,0 2.035,0.68025 2.035,1.52625 v 28.719 0.22125 l 0.188,0.18075 0.509,0.50175 0.268,0.261 h 0.429 38.452 c 1.128,0 2.035,0.66 2.035,1.506 v 32.67525 c 0,0.84675 -0.907,1.506 -2.035,1.506 h -38.506 -0.455 l -0.241,0.28125 -0.482,0.50175 -0.161,0.1605 v 0.2205 28.719 c 0,0.846 -0.907,1.5255 -2.035,1.5255 H 75.886 c -1.128,0 -2.035,-0.6795 -2.035,-1.5255 v -28.8195 -0.261 L 73.61,106.983 73.06,106.572 72.82,106.3725 H 72.472 34.018 c -1.127,0 -2.008,-0.65925 -2.008,-1.506 V 72.192 c 0,-0.846 0.881,-1.50675 2.008,-1.50675 h 38.452 0.402 l 0.268,-0.261 0.563,-0.543 0.161,-0.1605 V 69.4995 40.803 c 0,-0.846 0.907,-1.52625 2.035,-1.52625 z"
     inkscape:connector-curvature="0"
     style="fill:#f4f4f4;stroke-width:0.86602539" /><path
     id="path21"
     d="m 383.929,36.23175 c -2.09,0 -3.803,1.284 -3.803,2.8515 v 29.1195 l -0.134,0.12075 h -38.827 c -2.091,0 -3.803,1.2855 -3.803,2.85225 v 33.35775 c 0,1.56675 1.714,2.8515 3.803,2.8515 h 38.881 l 0.08,0.0397 v 29.20125 c 0,1.56675 1.714,2.8515 3.803,2.8515 h 44.504 c 2.09,0 3.802,-1.2855 3.802,-2.8515 v -29.16 l 0.08,-0.0803 h 38.882 c 2.09,0 3.802,-1.28475 3.802,-2.8515 v -33.357 c 0,-1.5675 -1.713,-2.8515 -3.802,-2.8515 h -38.854 l -0.107,-0.1005 V 39.0824 c 0,-1.56675 -1.714,-2.85225 -3.802,-2.85225 l -44.505,10e-4 z m 0,1.2855 h 44.504 c 1.162,0 2.088,0.69375 2.088,1.566 v 29.361 0.2205 l 0.188,0.1605 0.509,0.522 0.269,0.26175 h 0.428 39.283 c 1.162,0 2.088,0.69375 2.088,1.566 v 33.35775 c 0,0.87225 -0.925,1.56675 -2.088,1.56675 h -39.337 -0.428 l -0.269,0.28125 -0.481,0.522 -0.161,0.1605 v 0.201 29.361 c 0,0.87075 -0.925,1.566 -2.088,1.566 h -44.505 c -1.162,0 -2.089,-0.69525 -2.089,-1.566 V 107.184 106.90275 l -0.24,-0.18075 -0.563,-0.42225 -0.269,-0.201 h -0.348 -39.256 c -1.162,0 -2.089,-0.6945 -2.089,-1.56675 V 71.17425 c 0,-0.8715 0.927,-1.566 2.089,-1.566 h 39.256 0.428 l 0.241,-0.261 0.59,-0.54225 0.16,-0.18075 V 68.40375 39.084 c 10e-4,-0.87225 0.926,-1.56675 2.09,-1.56675 z"
     inkscape:connector-curvature="0"
     style="fill:#f4f4f4;stroke-width:0.86602539" /><path
     id="path23"
     d="m 85.977,52.86 c -3.644,0 -6.611,2.24475 -6.611,4.98075 V 68.6445 c 0,0.88125 0.291,1.71075 0.831,2.43 l 0.053,0.0608 0.081,0.06 11.407,9.03675 0.026,0.0405 0.027,-0.0195 c 1.389,1.287 3.487,2.1285 5.864,2.1285 2.428,0 4.585,-0.891 5.971,-2.229 l 0.027,0.0203 0.054,-0.0608 11.407,-9.05775 0.081,-0.06 0.053,-0.1005 c 0.464,-0.678 0.723,-1.437 0.723,-2.24925 v -10.8045 c 0,-2.736 -2.968,-4.98075 -6.614,-4.98075 H 85.981 Z m 0,1.2855 h 23.376 c 2.721,0 4.9,1.6545 4.9,3.69525 V 68.6445 c 0,0.591 -0.182,1.134 -0.508,1.62675 l -11.354,9.0165 -0.027,0.0202 -0.027,0.0405 c -1.072,1.06125 -2.769,1.7475 -4.686,1.7475 -1.866,0 -3.502,-0.654 -4.579,-1.6665 l -0.027,-0.0203 -0.027,-0.0203 -11.353,-8.9775 c -0.383,-0.52425 -0.59,-1.12575 -0.59,-1.767 l -0.006,-10.803 c 0,-2.04075 2.18,-3.69525 4.9,-3.69525 z"
     inkscape:connector-curvature="0"
     style="fill:#f4f4f4;stroke-width:0.86602539" /><path
     id="polygon25"
     d="m 97.656,42.63825 -0.589,0.462 -6.881,5.1405 -1.446,1.10475 h 2.061 13.737 2.062 l -1.473,-1.10475 -6.855,-5.1405 z m 0.026,1.827 4.793,3.59475 h -9.613 l 4.824,-3.59475 z"
     inkscape:connector-curvature="0"
     style="fill:#f4f4f4;stroke-width:0.86602539" /><path
     id="path27"
     d="m 56.767,74.79375 c -3.646,0 -6.641,2.2245 -6.641,4.9605 V 97.2855 c 0,2.73525 2.995,4.96125 6.641,4.96125 h 14.406 c 1.174,0 2.281,-0.237 3.24,-0.642 l 0.08,-0.0202 0.08,-0.0608 12.05,-8.55525 c 0.02,-0.012 0.034,-0.0285 0.053,-0.0405 1.71,-1.0425 2.785,-2.64 2.785,-4.41825 0,-1.821 -1.162,-3.4185 -2.945,-4.45875 L 86.55,84.0195 86.47,83.979 74.393,75.42375 74.286,75.36295 74.179,75.32325 C 73.276,74.97675 72.264,74.781 71.18,74.781 H 56.774 Z m 0,1.2855 h 14.406 c 0.798,0 1.532,0.15 2.196,0.40125 0.007,0.003 0.019,-0.003 0.026,0 l 11.97,8.475 0.027,0.0397 0.053,0.0203 c 1.415,0.804 2.303,2.05725 2.303,3.495 0,1.3995 -0.844,2.64675 -2.195,3.45375 l -0.027,0.0203 -0.027,0.0203 -11.996,8.5155 c -0.698,0.2865 -1.474,0.44175 -2.33,0.44175 H 56.767 c -2.72,0 -4.927,-1.635 -4.927,-3.675 v -17.532 c 0,-2.0415 2.206,-3.67575 4.927,-3.67575 z"
     inkscape:connector-curvature="0"
     style="fill:#f4f4f4;stroke-width:0.86602539" /><path
     id="polygon29"
     d="m 45.413,81.8175 -1.447,1.086 -6.881,5.16075 -0.589,0.44175 0.589,0.462 6.881,5.14125 1.446,1.10475 v -1.5465 -10.30275 -1.5465 z m -1.714,3.11325 v 7.17 l -3.319,-4.659 4.766,-3.5925 z"
     inkscape:connector-curvature="0"
     style="fill:#f4f4f4;stroke-width:0.86602539" /><path
     id="path31"
     d="m 97.656,94.6515 c -2.428,0 -4.584,0.87225 -5.971,2.20875 -0.016,0.015 -0.038,0.0255 -0.054,0.0405 l -11.406,9.078 -0.08,0.06 -0.054,0.0803 c -0.465,0.67875 -0.723,1.4565 -0.723,2.2695 v 10.8045 c 0,2.7345 2.967,4.96125 6.614,4.96125 h 23.376 c 3.646,0 6.614,-2.226 6.614,-4.96125 v -10.8045 c 0,-0.88125 -0.317,-1.71075 -0.856,-2.43 l -0.054,-0.0803 -0.053,-0.0405 -11.407,-9.03675 c -0.016,-0.015 -0.038,-0.0255 -0.053,-0.0405 -1.39,-1.2825 -3.521,-2.10825 -5.893,-2.109 z m 0,1.2855 c 1.867,0 3.531,0.654 4.605,1.6665 l 0.027,0.0203 0.027,0.0203 11.354,9.0165 c 0.367,0.516 0.589,1.09875 0.589,1.72725 v 10.80375 c 0,2.04075 -2.18,3.675 -4.9,3.675 H 85.982 c -2.721,0 -4.9,-1.63425 -4.9,-3.675 v -10.80385 c 0,-0.59175 0.181,-1.15425 0.509,-1.647 l 11.327,-8.997 0.027,-0.0397 0.034,-0.0195 c 1.072,-1.06125 2.77,-1.7475 4.687,-1.7475 z"
     inkscape:connector-curvature="0"
     style="fill:#f4f4f4;stroke-width:0.86602539" /><path
     id="polygon33"
     d="m 88.736,127.6905 1.446,1.10475 6.881,5.14125 0.589,0.46125 0.616,-0.46125 6.855,-5.14125 1.473,-1.10475 h -2.062 -13.735 z m 4.124,1.28475 h 9.613 L 97.68,132.591 Z"
     inkscape:connector-curvature="0"
     style="fill:#f4f4f4;stroke-width:0.86602539" /><path
     id="path35"
     d="m 124.168,74.79375 c -1.175,0 -2.281,0.2175 -3.24,0.6225 l -0.107,0.0397 -0.08,0.06 -12.023,8.55525 -0.053,0.0405 c -1.709,1.04175 -2.812,2.61975 -2.812,4.398 0,1.82625 1.154,3.45825 2.946,4.4985 l 0.053,0.0195 12.104,8.5755 0.08,0.0608 0.107,0.0397 c 0.905,0.348 1.942,0.54225 3.026,0.54225 h 14.405 c 3.646,0 6.614,-2.2245 6.614,-4.9605 v -17.532 c 0,-2.7345 -2.967,-4.9605 -6.614,-4.9605 l -14.406,7.5e-4 z m 0,1.2855 h 14.405 c 2.72,0 4.9,1.635 4.9,3.675 V 97.2855 c 0,2.0415 -2.18,3.67575 -4.9,3.67575 h -14.405 c -0.77,0 -1.498,-0.147 -2.143,-0.38175 l -12.049,-8.5155 -0.053,-0.0202 -0.027,-0.0195 c -1.415,-0.8055 -2.329,-2.07825 -2.329,-3.5145 0,-1.40025 0.872,-2.628 2.222,-3.435 l 0.027,-0.0202 0.027,-0.0195 11.916,-8.496 h 0.027 c 0.705,-0.29325 1.514,-0.4605 2.382,-0.45975 z"
     inkscape:connector-curvature="0"
     style="fill:#f4f4f4;stroke-width:0.86602539" /><path
     id="polygon37"
     d="m 149.9,81.8175 v 1.5465 10.302 1.5465 l 1.473,-1.10475 6.855,-5.14125 0.616,-0.462 -0.616,-0.44175 -6.855,-5.16075 z m 1.713,3.093 4.82,3.615 -4.82,3.59475 z"
     inkscape:connector-curvature="0"
     style="fill:#f4f4f4;stroke-width:0.86602539" /><path
     id="path39"
     d="m 209.152,106.66275 c -2.32,0 -4.204,1.43325 -4.204,3.1725 v 9.11775 c 0,1.74075 1.884,3.1725 4.204,3.1725 h 20.512 c 2.017,0 3.633,-1.10625 4.043,-2.5305 h 0.161 v -0.64275 -9.11775 c 0,-1.73925 -1.884,-3.1725 -4.204,-3.1725 h -20.512 z m 0,1.2855 h 20.512 c 1.395,0 2.49,0.84375 2.49,1.88775 v 8.475 0.64275 c 0,1.04625 -1.096,1.88775 -2.49,1.88775 h -20.512 c -1.394,0 -2.491,-0.8415 -2.491,-1.88775 V 109.836 c 0.001,-1.04475 1.097,-1.88775 2.491,-1.88775 z"
     inkscape:connector-curvature="0"
     style="fill:#f4f4f4;stroke-width:0.86602539" /><path
     id="path41"
     d="m 276.176,106.66275 c -2.188,0 -3.989,1.3515 -3.989,2.99175 v 9.6 c 0,1.641 1.804,2.9925 3.989,2.9925 0.567,0 1.093,-0.1215 1.581,-0.28125 v 0.0203 l 0.134,-0.0405 21.931,-5.04075 0.08,-0.0195 0.054,-0.0405 c 1.26,-0.501 2.115,-1.4925 2.115,-2.63025 0,-1.1145 -0.817,-2.1 -2.035,-2.61075 l -0.08,-0.0398 -0.107,-0.0202 -22.306,-4.6995 c -0.026,-0.007 -0.054,-0.0135 -0.08,-0.0195 -0.406,-0.105 -0.838,-0.162 -1.287,-0.162 z m 0,1.2855 c 0.276,0 0.534,0.0337 0.776,0.1005 l 0.027,0.0195 h 0.026 l 22.253,4.67925 c 0.665,0.29625 1.098,0.8385 1.098,1.46625 0,0.63525 -0.473,1.173 -1.152,1.4655 l -21.957,5.08125 h -0.054 l -0.053,0.0195 c -0.298,0.10725 -0.612,0.1815 -0.965,0.1815 -1.26,0 -2.275,-0.7605 -2.275,-1.707 v -9.6 c 0.001,-0.94575 1.017,-1.707 2.276,-1.70625 z"
     inkscape:connector-curvature="0"
     style="fill:#f4f4f4;stroke-width:0.86602539" /><path
     id="circle43"
     d="m 363.312,71.09175 c -12.334,0 -22.359,7.51875 -22.359,16.77 0,9.24975 10.025,16.74825 22.359,16.74825 12.334,0 22.358,-7.4985 22.358,-16.74825 0,-9.2505 -10.024,-16.77 -22.358,-16.77 z m 0,1.28475 c 11.409,0 20.645,6.92775 20.645,15.4845 0,8.556 -9.235,15.4635 -20.645,15.4635 -11.408,0 -20.646,-6.9075 -20.646,-15.4635 10e-4,-8.556 9.238,-15.4845 20.646,-15.4845 z"
     inkscape:connector-curvature="0"
     style="fill:#f4f4f4;stroke-width:0.86602539" /><path
     id="circle45"
     d="m 406.181,103.25025 c -12.334,0 -22.359,7.51875 -22.359,16.77 0,9.25125 10.025,16.76925 22.359,16.76925 12.334,0 22.359,-7.518 22.359,-16.76925 0,-9.25125 -10.025,-16.77 -22.359,-16.77 z m 0,1.28475 c 11.408,0 20.646,6.92775 20.646,15.4845 0,8.55525 -9.237,15.4845 -20.646,15.4845 -11.409,0 -20.646,-6.9285 -20.646,-15.4845 10e-4,-8.556 9.238,-15.4845 20.646,-15.4845 z"
     inkscape:connector-curvature="0"
     style="fill:#f4f4f4;stroke-width:0.86602539" /><path
     id="circle47"
     d="m 449.051,71.09175 c -12.331,0 -22.331,7.5195 -22.331,16.77375 0,9.2505 9.999,16.749 22.332,16.749 12.334,0 22.359,-7.4985 22.359,-16.749 0,-9.2505 -10.024,-16.76925 -22.359,-16.76925 z m 0,1.28475 c 11.407,0 20.645,6.92775 20.645,15.4845 0,8.556 -9.237,15.4635 -20.645,15.4635 -11.409,0 -20.618,-6.9075 -20.618,-15.4635 0,-8.556 9.21,-15.4845 20.618,-15.4845 z"
     inkscape:connector-curvature="0"
     style="fill:#f4f4f4;stroke-width:0.86602539" /><path
     id="circle49"
     d="m 406.181,38.922 c -12.334,0 -22.359,7.518 -22.359,16.76925 0,9.2505 10.025,16.76925 22.359,16.76925 12.334,0 22.359,-7.518 22.359,-16.76925 C 428.541,46.44 418.515,38.922 406.181,38.922 Z m 0,1.2855 c 11.408,0 20.646,6.92775 20.646,15.48375 0,8.55675 -9.237,15.4845 -20.646,15.4845 -11.409,0 -20.646,-6.92775 -20.646,-15.4845 10e-4,-8.556 9.238,-15.48375 20.646,-15.48375 z"
     inkscape:connector-curvature="0"
     style="fill:#f4f4f4;stroke-width:0.86602539" /><path
     id="line51"
     d="m 173.841,136.083 v 1.2855 h 153.731 v -1.2855 z"
     inkscape:connector-curvature="0"
     style="fill:#f4f4f4;stroke-width:0.86602539" /></svg>