<?xml version="1.0" encoding="UTF-8" standalone="no"?>
<!-- Generator: Adobe Illustrator 13.0.0, SVG Export Plug-In . SVG Version: 6.00 Build 14948)  -->

<svg
   xmlns:ns="&amp;ns_sfw;"
   xmlns:dc="http://purl.org/dc/elements/1.1/"
   xmlns:cc="http://creativecommons.org/ns#"
   xmlns:rdf="http://www.w3.org/1999/02/22-rdf-syntax-ns#"
   xmlns:svg="http://www.w3.org/2000/svg"
   xmlns="http://www.w3.org/2000/svg"
   xmlns:sodipodi="http://sodipodi.sourceforge.net/DTD/sodipodi-0.dtd"
   xmlns:inkscape="http://www.inkscape.org/namespaces/inkscape"
   version="1.1"
   id="svg2"
   x="0px"
   y="0px"
   width="567.92694"
   height="84.774002"
   viewBox="0.25 0 567.92694 84.774004"
   enable-background="new 0.25 0 567.927 113.032"
   xml:space="preserve"
   sodipodi:docname="logo.svg"
   inkscape:version="0.92.2 (5c3e80d, 2017-08-06)"><defs
     id="defs20" /><sodipodi:namedview
     pagecolor="#ffffff"
     bordercolor="#666666"
     borderopacity="1"
     objecttolerance="10"
     gridtolerance="10"
     guidetolerance="10"
     inkscape:pageopacity="0"
     inkscape:pageshadow="2"
     inkscape:window-width="1920"
     inkscape:window-height="1017"
     id="namedview18"
     showgrid="false"
     fit-margin-top="0"
     fit-margin-left="0"
     fit-margin-right="0"
     fit-margin-bottom="0"
     inkscape:zoom="0.6145156"
     inkscape:cx="283.96345"
     inkscape:cy="56.516001"
     inkscape:window-x="-8"
     inkscape:window-y="-8"
     inkscape:window-maximized="1"
     inkscape:current-layer="svg2" /><metadata
     id="metadata2"><ns:sfw><ns:slices /><ns:sliceSourceBounds
         x="677.036"
         y="482.984"
         width="567.927"
         height="113.032"
         bottomLeftOrigin="true" /></ns:sfw><rdf:RDF><cc:Work
         rdf:about=""><dc:format>image/svg+xml</dc:format><dc:type
           rdf:resource="http://purl.org/dc/dcmitype/StillImage" /><dc:title></dc:title></cc:Work></rdf:RDF></metadata><g
     id="g5"
     transform="matrix(1,0,0,0.75,-4.8124013e-5,0)"><path
       id="path2998_1_"
       d="m 165.884,28.918 v 28.77 28.77 h 5.039 5.039 V 60.776 35.095 h 6.186 c 4.461,0 6.475,0.12 7.233,0.438 1.496,0.625 3.036,2.529 3.667,4.521 0.331,1.047 0.604,3.313 0.701,5.831 0.2,5.154 -0.398,8.356 -1.971,10.433 -1.641,2.168 -2.645,2.51 -7.284,2.51 h -3.982 v 3.119 3.127 l 6.257,-0.121 6.258,-0.121 2.214,-1.047 c 4.045,-1.908 6.982,-5.811 8.167,-10.84 0.662,-2.808 0.652,-9.086 -0.021,-12.099 -0.646,-2.896 -1.991,-5.813 -3.504,-7.579 -0.633,-0.738 -1.857,-1.797 -2.712,-2.347 -2.933,-1.882 -4.062,-2.001 -18.356,-2.001 h -12.931 z m 44.535,0 v 28.77 28.77 h 5.038 5.039 v -28.77 -28.77 h -5.039 z m 126.372,0 c -4.514,0.001 -9.158,0.16 -10.32,0.346 -2.623,0.418 -5.682,1.805 -7.416,3.372 -1.748,1.579 -3.234,3.949 -4.043,6.44 -0.502,1.548 -0.66,2.959 -0.68,5.933 -0.029,4.103 0.316,5.851 1.727,8.614 0.916,1.798 3.361,4.393 5.039,5.363 1.949,1.13 4.441,1.728 8.729,2.072 3.26,0.265 4.02,0.426 5.08,1.129 0.834,0.551 1.563,1.453 2.184,2.711 0.869,1.771 0.918,2.142 0.914,5.953 -0.004,3.801 -0.057,4.176 -0.896,5.771 -0.566,1.084 -1.385,2.032 -2.242,2.603 l -1.354,0.896 -8.563,0.103 -8.555,0.092 v 3.077 3.068 h 9.73 c 5.92,0 10.412,-0.146 11.459,-0.367 3.984,-0.838 7.299,-3.42 8.908,-6.938 1.355,-2.963 1.834,-6.008 1.656,-10.575 -0.188,-4.816 -0.9,-7.44 -2.824,-10.32 -2.391,-3.575 -5.064,-4.801 -11.855,-5.423 -2.512,-0.23 -5.086,-0.635 -5.719,-0.904 -1.398,-0.592 -2.705,-2.082 -3.281,-3.738 -0.566,-1.633 -0.561,-6.361 0.021,-8.359 0.57,-1.973 2.305,-3.79 4.135,-4.338 0.883,-0.266 3.852,-0.396 8.848,-0.396 H 345 v -3.09 -3.09 h -8.209 z m 115.806,0 v 4.227 4.226 h 5.039 5.039 v -4.226 -4.227 h -5.039 z m -96.902,6.502 0.104,20.723 c 0.09,20.398 0.105,20.754 0.803,22.604 0.393,1.033 1.229,2.58 1.857,3.443 1.293,1.76 2.973,2.994 5.1,3.738 1.023,0.359 2.764,0.498 6.064,0.51 l 4.633,0.02 V 83.37 80.282 h -3.027 c -2.881,0 -3.068,-0.039 -3.891,-0.895 -0.508,-0.529 -1.006,-1.563 -1.207,-2.52 -0.221,-1.033 -0.313,-6.406 -0.256,-14.791 l 0.092,-13.166 5.445,-0.092 5.445,-0.092 V 45.65 42.57 h -5.527 -5.525 V 38.994 35.42 h -5.049 z m 69.596,0 v 20.469 c 0,19.797 0.023,20.54 0.672,22.512 0.771,2.348 2.338,4.672 4.043,5.973 0.65,0.498 1.939,1.166 2.863,1.482 1.289,0.445 2.73,0.582 6.156,0.59 l 4.469,0.01 V 83.368 80.28 h -2.885 c -2.41,0 -3.02,-0.104 -3.727,-0.662 -0.467,-0.365 -0.996,-1.205 -1.18,-1.867 -0.205,-0.74 -0.336,-6.584 -0.336,-15.105 V 48.748 h 5.537 5.535 l -0.094,-3.007 -0.092,-3.008 -5.445,-0.09 -5.439,-0.093 V 38.985 35.42 h -5.039 z m -8.889,7.069 -10.758,0.174 c -11.568,0.178 -12.766,0.32 -16.162,2.042 -3.799,1.925 -6.447,5.663 -7.648,10.788 -0.502,2.138 -0.59,3.979 -0.59,12.109 0,9.23 0.027,9.661 0.742,11.428 1.441,3.561 3.586,5.76 6.674,6.826 1.361,0.471 2.781,0.58 7.457,0.588 l 5.771,0.012 v -3.09 -3.088 h -4.043 c -3.828,0 -4.088,-0.047 -4.998,-0.813 -0.602,-0.506 -1.092,-1.35 -1.32,-2.256 -0.453,-1.793 -0.475,-15.938 -0.031,-19.361 0.631,-4.865 1.727,-7.146 4.014,-8.371 0.787,-0.42 2.146,-0.57 5.977,-0.67 l 4.957,-0.132 v 18.896 18.885 h 5.199 5.201 V 74.315 c 0,-6.674 -0.104,-16.566 -0.225,-21.982 z M 263.73,42.5 252.922,42.662 c -11.746,0.181 -13.433,0.396 -16.64,2.113 -3.725,1.994 -6.385,5.936 -7.508,11.123 -0.713,3.295 -1.047,16.791 -0.498,20.054 0.48,2.846 1.811,5.713 3.404,7.334 1.172,1.192 3.117,2.368 4.743,2.864 0.447,0.138 3.481,0.259 6.745,0.272 l 5.932,0.031 V 83.365 80.28 h -4.154 c -4.687,0 -5.303,-0.221 -6.187,-2.234 -0.395,-0.896 -0.549,-2.662 -0.65,-7.416 -0.146,-6.756 0.324,-14.085 1.056,-16.52 0.657,-2.185 1.881,-3.863 3.321,-4.57 1.052,-0.516 2.019,-0.613 6.125,-0.62 l 4.875,-0.011 0.082,18.773 0.082,18.771 h 5.039 5.039 v -21.98 z m 10.85,0.071 c -2.928,0 -5.319,0.037 -5.313,0.082 0.004,0.045 3.346,9.857 7.426,21.811 l 7.416,21.738 -4.176,10.771 c -2.295,5.927 -4.175,10.817 -4.175,10.868 0,0.051 1.993,0.051 4.429,0 l 4.43,-0.092 12.951,-32.508 c 7.127,-17.879 12.963,-32.542 12.963,-32.588 0.002,-0.045 -2.102,-0.082 -4.684,-0.082 -3.404,0 -4.766,0.113 -4.947,0.408 -0.137,0.223 -2.627,6.543 -5.525,14.049 -2.896,7.504 -5.396,13.688 -5.564,13.744 -0.17,0.057 -2.473,-6.266 -5.107,-14.049 l -4.796,-14.152 z m 178.017,0 v 21.942 21.942 h 5.039 5.039 V 64.513 42.571 h -5.039 z m 60.951,0.162 -0.094,21.861 h 0.012 l -0.092,21.861 h 5.211 5.201 V 67.571 48.676 l 4.957,0.133 c 5.262,0.137 6.141,0.356 7.619,1.939 1.156,1.24 1.984,3.499 2.354,6.439 0.191,1.539 0.348,8.603 0.348,16.011 v 13.258 h 5.037 5.037 l -0.01,-12.922 c -0.002,-13.705 -0.242,-16.957 -1.563,-20.673 -1.797,-5.053 -5.104,-8.049 -10.482,-9.508 -1.779,-0.483 -3.68,-0.567 -12.811,-0.59 z m -25.478,0.092 c -2.842,0 -5.674,0.357 -7.709,1.057 -2.709,0.932 -4.41,2.023 -6.117,3.921 -1.852,2.06 -3.193,4.849 -3.98,8.259 -0.479,2.09 -0.596,3.845 -0.564,8.938 0.023,5.358 0.133,6.729 0.711,8.849 0.979,3.596 2.26,6.017 4.205,7.985 1.916,1.938 4.748,3.422 7.936,4.146 1.434,0.324 3.422,0.427 6.461,0.345 5.238,-0.14 7.73,-0.814 10.787,-2.904 2.563,-1.752 4.5,-4.517 5.598,-7.996 1.57,-4.967 1.846,-13.155 0.641,-19.198 -0.586,-2.936 -2.01,-6.119 -3.598,-8.056 -1.492,-1.821 -3.936,-3.418 -6.551,-4.287 -2.117,-0.702 -4.978,-1.059 -7.82,-1.059 z m 0.123,6.054 c 1.475,0 2.953,0.285 4.113,0.873 1.514,0.768 2.465,2.104 3.291,4.632 0.541,1.653 0.676,3.158 0.803,8.625 0.166,7.142 -0.162,10.507 -1.27,13.043 -0.781,1.793 -2.045,3.187 -3.434,3.779 -0.596,0.254 -2.156,0.446 -3.605,0.446 -2.055,0 -2.844,-0.146 -3.992,-0.75 -0.902,-0.478 -1.773,-1.295 -2.336,-2.204 -1.469,-2.371 -1.953,-5.48 -1.973,-12.484 -0.016,-6.668 0.328,-9.347 1.557,-12.06 0.416,-0.92 1.256,-2.043 1.879,-2.52 1.184,-0.903 3.07,-1.38 4.967,-1.38 z"
       inkscape:connector-curvature="0"
       style="fill:#777777" /></g><g
     id="g8"
     transform="matrix(1,0,0,0.75,-4.8124013e-5,0)"><path
       id="path3775_1_"
       d="m 559.435,83.913 h 0.77 v -2.836 h 1.756 c 0.48,0 0.795,0.078 0.939,0.232 0.139,0.148 0.229,0.492 0.268,1.031 l 0.068,0.836 c 0.012,0.16 0.027,0.293 0.055,0.4 0.021,0.113 0.063,0.228 0.117,0.334 h 0.807 v -0.209 c -0.063,-0.059 -0.105,-0.125 -0.135,-0.205 -0.037,-0.096 -0.064,-0.211 -0.072,-0.352 l -0.07,-0.973 c -0.047,-0.473 -0.107,-0.797 -0.188,-0.973 -0.117,-0.264 -0.322,-0.422 -0.611,-0.477 0.311,-0.07 0.555,-0.244 0.742,-0.525 0.189,-0.285 0.283,-0.633 0.283,-1.039 0,-0.334 -0.068,-0.625 -0.207,-0.871 -0.146,-0.273 -0.354,-0.486 -0.617,-0.635 -0.217,-0.119 -0.477,-0.197 -0.777,-0.234 -0.199,-0.021 -0.508,-0.035 -0.914,-0.035 h -2.209 v 6.527 h -0.004 v 0.004 z m 0.772,-3.538 v -2.289 h 1.557 c 0.307,0 0.523,0.008 0.662,0.021 0.205,0.033 0.369,0.094 0.488,0.176 0.146,0.096 0.256,0.219 0.328,0.367 0.08,0.158 0.121,0.334 0.121,0.525 0,0.434 -0.121,0.738 -0.367,0.922 -0.246,0.186 -0.648,0.273 -1.207,0.273 z"
       inkscape:connector-curvature="0"
       style="fill:#777777" /></g><path
     d="m 555.46595,60.486 c 0,-2.61375 2.807,-4.73625 6.287,-4.7655 v 0 c 0.023,-0.0015 0.047,-0.003 0.07,-0.003 v 0 c 3.508,0.0015 6.354,2.1345 6.354,4.7685 v 0 h -0.002 c 0,2.63325 -2.844,4.7655 -6.354,4.7655 v 0 c -3.509,0 -6.355,-2.13075 -6.355,-4.7655 z m 2,0 c 0.004,1.80525 1.949,3.26475 4.357,3.267 v 0 c 2.402,-0.0045 4.35,-1.46475 4.354,-3.267 v 0 c -0.006,-1.773 -1.885,-3.2115 -4.227,-3.2655 v 0 h -0.129 c -2.405,0.0023 -4.351,1.46175 -4.355,3.2655 z m 3.953,-3.3315 c 0.125,0.03975 0.219,0.054 0.293,0.06 v 0 c -0.088,-0.0082 -0.172,-0.02325 -0.254,-0.04725 v 0 c -0.061,-0.0165 -0.115,-0.039 -0.17,-0.06525 v 0 c -0.014,-0.006 -0.025,-0.012 -0.039,-0.018 v 0 c 0.061,0.03075 0.12,0.05475 0.17,0.0705 z m -0.47,-0.32325 c -0.002,-0.0023 -0.002,-0.0038 -0.004,-0.006 v 0 c 0.002,0.0022 0.002,0.0037 0.004,0.006 z m -0.012,-0.01575 c -0.002,-0.003 -0.004,-0.006 -0.006,-0.0075 v 0 c 0.002,0.0037 0.004,0.0045 0.006,0.0075 z m -0.113,-0.3495 c 0,-0.08475 0.021,-0.17025 0.059,-0.249 v 0 c -0.032,0.0585 -0.061,0.13875 -0.059,0.249 z"
     id="path10"
     inkscape:connector-curvature="0"
     style="fill:#777777;stroke-width:0.86602539" /><g
     id="g3"
     transform="matrix(1,0,0,0.75,-61.685648,-234.651)"><path
       id="path7"
       d="m 142.207,336.374 -0.099,89.525 -23.986,-7.801 v -105.23 l 30.618,8.096 c 19.599,5.267 31.592,15.507 31.398,33.45 -0.195,20.873 -9.849,29.257 -28.667,23.796 v -41.154 c -0.002,-4.976 -9.264,-5.267 -9.264,-0.682 z"
       inkscape:connector-curvature="0"
       style="fill:#de0029" /><path
       id="path9"
       d="m 107.102,400.738 -11.311,3.805 c -7.314,2.537 -13.554,-3.412 -6.826,-5.854 l 5.46,-1.947 -20.575,-6.537 c -6.338,2.148 -12.288,6.73 -11.896,13.168 0.39,6.533 15.309,8.097 26.815,9.947 10.726,1.754 20.477,0.779 29.351,-2.342 v -6.73 z m 35.2,25.162 20.965,-7.313 -21.16,-6.729 v 13.557 z"
       inkscape:connector-curvature="0"
       style="fill:#f3c202" /><path
       id="path11"
       d="m 198.08,406.299 0.389,-0.099 c 9.167,-3.219 13.067,-7.707 12.092,-11.898 -1.56,-7.021 -12.773,-10.826 -30.033,-12.094 -12.384,-0.877 -24.572,1.854 -36.468,5.947 l -1.95,0.686 21.355,6.633 12.48,-4.197 c 13.067,-2.436 18.333,1.854 5.755,5.854 l -6.242,2.146 z m -79.958,-31.013 -9.459,3.217 9.459,2.926 z"
       inkscape:connector-curvature="0"
       style="fill:#326db3" /><path
       id="path13"
       d="m 163.268,418.585 34.812,-12.287 -22.624,-7.021 -33.348,11.41 v 1.17 z m -45.146,-21.552 -11.019,3.705 11.019,3.512 z m 23.985,5.755 v -13.945 l 21.355,6.631 z m -47.682,-6.046 23.696,-8.484 v -6.826 l -9.459,-2.928 -34.324,11.605 c -0.097,0 -0.292,0.096 -0.487,0.096 z"
       inkscape:connector-curvature="0"
       style="fill:#00aa9e" /></g></svg>