<?xml version="1.0" encoding="UTF-8" standalone="no"?>
<!-- Generator: Adobe Illustrator 16.0.0, SVG Export Plug-In . SVG Version: 6.00 Build 0)  -->

<svg
   xmlns:dc="http://purl.org/dc/elements/1.1/"
   xmlns:cc="http://creativecommons.org/ns#"
   xmlns:rdf="http://www.w3.org/1999/02/22-rdf-syntax-ns#"
   xmlns:svg="http://www.w3.org/2000/svg"
   xmlns="http://www.w3.org/2000/svg"
   xmlns:xlink="http://www.w3.org/1999/xlink"
   xmlns:sodipodi="http://sodipodi.sourceforge.net/DTD/sodipodi-0.dtd"
   xmlns:inkscape="http://www.inkscape.org/namespaces/inkscape"
   version="1.1"
   id="svg2"
   inkscape:export-filename="/home/kivutar/Bureau/lakka-menu/reload.png"
   inkscape:export-xdpi="90"
   inkscape:version="0.92.2 (5c3e80d, 2017-08-06)"
   inkscape:export-ydpi="90"
   sodipodi:docname="logo.svg"
   x="0px"
   y="0px"
   width="260.64178"
   height="40.5"
   viewBox="0 128 260.64179 40.5"
   enable-background="new 0 128 64 64"
   xml:space="preserve"><metadata
     id="metadata8"><rdf:RDF><cc:Work
         rdf:about=""><dc:format>image/svg+xml</dc:format><dc:type
           rdf:resource="http://purl.org/dc/dcmitype/StillImage" /><dc:title /></cc:Work></rdf:RDF></metadata><defs
     id="defs6"><linearGradient
       inkscape:collect="always"
       id="linearGradient821"><stop
         style="stop-color:#cc9900;stop-opacity:1;"
         offset="0"
         id="stop817" /><stop
         style="stop-color:#cc9900;stop-opacity:0;"
         offset="1"
         id="stop819" /></linearGradient><linearGradient
       inkscape:collect="always"
       xlink:href="#linearGradient821"
       id="linearGradient825"
       x1="64.166428"
       y1="155.80267"
       x2="260.65118"
       y2="155.80267"
       gradientUnits="userSpaceOnUse" /></defs><sodipodi:namedview
     pagecolor="#ffffff"
     bordercolor="#666666"
     borderopacity="1"
     objecttolerance="10"
     gridtolerance="10"
     guidetolerance="10"
     inkscape:pageopacity="0"
     inkscape:pageshadow="2"
     inkscape:window-width="1920"
     inkscape:window-height="1017"
     id="namedview4"
     showgrid="true"
     fit-margin-top="0"
     fit-margin-left="0"
     fit-margin-right="0"
     fit-margin-bottom="0"
     inkscape:zoom="5.2149125"
     inkscape:cx="136.96468"
     inkscape:cy="25.777491"
     inkscape:window-x="-8"
     inkscape:window-y="-8"
     inkscape:window-maximized="1"
     inkscape:current-layer="svg2"><inkscape:grid
       type="xygrid"
       id="grid823"
       originx="-5.8229455"
       originy="-5.0282" /></sodipodi:namedview><g
     aria-label="FAVORITOS"
     transform="scale(1.1547005,0.86602542)"
     style="font-style:normal;font-weight:normal;font-size:34.64101791px;line-height:1.25;font-family:sans-serif;letter-spacing:0px;word-spacing:0px;fill:#cc9900;fill-opacity:1;stroke:none;stroke-width:0.86602539"
     id="text817"><path
       d="m 55.561633,183.12299 v -22.40581 h 14.161248 v 3.45948 H 59.635417 v 5.7227 h 8.955857 v 3.45948 h -8.955857 v 9.76415 z"
       style="font-style:normal;font-variant:normal;font-weight:500;font-stretch:normal;font-size:32.33161545px;font-family:Ubuntu;-inkscape-font-specification:'Ubuntu Medium';fill:#cc9900;fill-opacity:1;stroke-width:0.86602539"
       id="path822" /><path
       d="m 86.599984,183.12299 q -0.452643,-1.3256 -0.937617,-2.61887 -0.484974,-1.29326 -0.937617,-2.65119 h -9.440832 q -0.452642,1.35793 -0.937616,2.68353 -0.452643,1.29326 -0.905286,2.58653 h -4.235441 q 1.260933,-3.58881 2.392539,-6.62799 1.131607,-3.03917 2.19855,-5.75502 1.099275,-2.71586 2.166218,-5.17306 1.066944,-2.4572 2.19855,-4.84974 h 3.847462 q 1.131607,2.39254 2.19855,4.84974 1.066944,2.4572 2.133887,5.17306 1.099275,2.71585 2.230881,5.75502 1.163939,3.03918 2.424872,6.62799 z m -6.59565,-18.07338 q -0.743627,1.71358 -1.713575,4.17078 -0.937617,2.4572 -1.972229,5.33472 h 7.371609 q -1.034612,-2.87752 -2.004561,-5.36705 -0.969948,-2.48953 -1.681244,-4.13845 z"
       style="font-style:normal;font-variant:normal;font-weight:500;font-stretch:normal;font-size:32.33161545px;font-family:Ubuntu;-inkscape-font-specification:'Ubuntu Medium';fill:#cc9900;fill-opacity:1;stroke-width:0.86602539"
       id="path824" /><path
       d="m 98.462656,183.12299 q -2.424871,-5.23773 -4.688084,-10.96042 -2.230882,-5.7227 -4.170779,-11.44539 h 4.494095 q 0.775959,2.26321 1.584249,4.62342 0.80829,2.36021 1.616581,4.65575 0.80829,2.26321 1.61658,4.3971 0.808291,2.13389 1.584252,3.91213 0.74362,-1.77824 1.55192,-3.8798 0.80829,-2.13389 1.61658,-4.42943 0.84062,-2.29554 1.64891,-4.65575 0.80829,-2.36021 1.55192,-4.62342 h 4.36476 q -1.97222,5.72269 -4.20311,11.44539 -2.23088,5.72269 -4.65575,10.96042 z"
       style="font-style:normal;font-variant:normal;font-weight:500;font-stretch:normal;font-size:32.33161545px;font-family:Ubuntu;-inkscape-font-specification:'Ubuntu Medium';fill:#cc9900;fill-opacity:1;stroke-width:0.86602539"
       id="path826" /><path
       d="m 116.86136,171.90392 q 0,1.8429 0.45265,3.36248 0.45264,1.48726 1.29326,2.5542 0.87295,1.03461 2.10156,1.61658 1.2286,0.58197 2.78051,0.58197 1.51959,0 2.74819,-0.58197 1.2286,-0.58197 2.06923,-1.61658 0.87295,-1.06694 1.32559,-2.5542 0.45264,-1.51958 0.45264,-3.36248 0,-1.84291 -0.45264,-3.33016 -0.45264,-1.51959 -1.32559,-2.5542 -0.84063,-1.06694 -2.06923,-1.64891 -1.2286,-0.58197 -2.74819,-0.58197 -1.55191,0 -2.78051,0.58197 -1.22861,0.58197 -2.10156,1.64891 -0.84062,1.06694 -1.29326,2.5542 -0.45265,1.48725 -0.45265,3.33016 z m 17.49141,0 q 0,2.87751 -0.87296,5.07606 -0.84062,2.19855 -2.32787,3.6858 -1.45493,1.45493 -3.42715,2.19855 -1.97223,0.74363 -4.20311,0.74363 -2.23089,0 -4.23545,-0.74363 -1.97222,-0.74362 -3.45948,-2.19855 -1.45492,-1.48725 -2.32787,-3.6858 -0.87296,-2.19855 -0.87296,-5.07606 0,-2.87752 0.87296,-5.04374 0.87295,-2.19855 2.3602,-3.6858 1.51959,-1.48726 3.49182,-2.23088 1.97223,-0.74363 4.17078,-0.74363 2.19855,0 4.17077,0.74363 1.97223,0.74362 3.42716,2.23088 1.48725,1.48725 2.3602,3.6858 0.87296,2.16622 0.87296,5.04374 z"
       style="font-style:normal;font-variant:normal;font-weight:500;font-stretch:normal;font-size:32.33161545px;font-family:Ubuntu;-inkscape-font-specification:'Ubuntu Medium';fill:#cc9900;fill-opacity:1;stroke-width:0.86602539"
       id="path828" /><path
       d="m 144.96562,160.49086 q 4.84975,0 7.40394,1.77823 2.58653,1.77824 2.58653,5.43172 0,4.55875 -4.49409,6.17533 0.6143,0.74363 1.39026,1.81057 0.77596,1.06695 1.58425,2.32788 0.80829,1.2286 1.55192,2.5542 0.74362,1.29326 1.32559,2.5542 h -4.55876 q -0.6143,-1.16394 -1.32559,-2.32788 -0.7113,-1.19627 -1.45493,-2.29555 -0.71129,-1.1316 -1.42259,-2.10155 -0.71129,-1.00228 -1.32559,-1.77824 -0.45265,0.0323 -0.77596,0.0323 -0.32332,0 -0.6143,0 h -1.97223 v 8.47089 h -4.07378 v -22.0825 q 1.48725,-0.32331 3.16849,-0.42031 1.68125,-0.12932 3.00684,-0.12932 z m 0.29099,3.52414 q -1.29327,0 -2.39254,0.097 v 7.24228 h 1.77824 q 1.48725,0 2.61886,-0.16166 1.13161,-0.16166 1.87523,-0.58197 0.77596,-0.42031 1.16394,-1.13161 0.38798,-0.71129 0.38798,-1.81057 0,-1.03461 -0.38798,-1.7459 -0.38798,-0.7113 -1.13161,-1.13161 -0.71129,-0.42031 -1.71357,-0.58197 -1.00228,-0.19399 -2.19855,-0.19399 z"
       style="font-style:normal;font-variant:normal;font-weight:500;font-stretch:normal;font-size:32.33161545px;font-family:Ubuntu;-inkscape-font-specification:'Ubuntu Medium';fill:#cc9900;fill-opacity:1;stroke-width:0.86602539"
       id="path830" /><path
       d="m 159.50273,160.71718 h 4.07378 v 22.40581 h -4.07378 z"
       style="font-style:normal;font-variant:normal;font-weight:500;font-stretch:normal;font-size:32.33161545px;font-family:Ubuntu;-inkscape-font-specification:'Ubuntu Medium';fill:#cc9900;fill-opacity:1;stroke-width:0.86602539"
       id="path832" /><path
       d="m 184.59105,160.71718 v 3.52414 h -6.88663 v 18.88167 h -4.10612 v -18.88167 h -6.88663 v -3.52414 z"
       style="font-style:normal;font-variant:normal;font-weight:500;font-stretch:normal;font-size:32.33161545px;font-family:Ubuntu;-inkscape-font-specification:'Ubuntu Medium';fill:#cc9900;fill-opacity:1;stroke-width:0.86602539"
       id="path834" /><path
       d="m 190.23897,171.90392 q 0,1.8429 0.45265,3.36248 0.45264,1.48726 1.29326,2.5542 0.87295,1.03461 2.10155,1.61658 1.22861,0.58197 2.78052,0.58197 1.51959,0 2.74819,-0.58197 1.2286,-0.58197 2.06922,-1.61658 0.87296,-1.06694 1.3256,-2.5542 0.45264,-1.51958 0.45264,-3.36248 0,-1.84291 -0.45264,-3.33016 -0.45264,-1.51959 -1.3256,-2.5542 -0.84062,-1.06694 -2.06922,-1.64891 -1.2286,-0.58197 -2.74819,-0.58197 -1.55191,0 -2.78052,0.58197 -1.2286,0.58197 -2.10155,1.64891 -0.84062,1.06694 -1.29326,2.5542 -0.45265,1.48725 -0.45265,3.33016 z m 17.49141,0 q 0,2.87751 -0.87296,5.07606 -0.84062,2.19855 -2.32787,3.6858 -1.45493,1.45493 -3.42715,2.19855 -1.97223,0.74363 -4.20311,0.74363 -2.23089,0 -4.23545,-0.74363 -1.97222,-0.74362 -3.45948,-2.19855 -1.45492,-1.48725 -2.32788,-3.6858 -0.87295,-2.19855 -0.87295,-5.07606 0,-2.87752 0.87295,-5.04374 0.87296,-2.19855 2.36021,-3.6858 1.51959,-1.48726 3.49182,-2.23088 1.97223,-0.74363 4.17078,-0.74363 2.19855,0 4.17077,0.74363 1.97223,0.74362 3.42716,2.23088 1.48725,1.48725 2.3602,3.6858 0.87296,2.16622 0.87296,5.04374 z"
       style="font-style:normal;font-variant:normal;font-weight:500;font-stretch:normal;font-size:32.33161545px;font-family:Ubuntu;-inkscape-font-specification:'Ubuntu Medium';fill:#cc9900;fill-opacity:1;stroke-width:0.86602539"
       id="path836" /><path
       d="m 217.28387,180.08381 q 2.19855,0 3.20083,-0.74362 1.00228,-0.74363 1.00228,-2.10156 0,-0.80829 -0.35565,-1.39026 -0.32331,-0.58197 -0.96994,-1.03461 -0.61431,-0.48497 -1.51959,-0.87295 -0.90529,-0.42031 -2.06922,-0.80829 -1.16394,-0.42031 -2.26322,-0.90529 -1.06694,-0.5173 -1.90756,-1.26093 -0.80829,-0.74363 -1.3256,-1.77824 -0.48497,-1.03461 -0.48497,-2.48953 0,-3.03918 2.10155,-4.75275 2.10156,-1.74591 5.7227,-1.74591 2.10155,0 3.71813,0.48497 1.64892,0.45265 2.58653,1.00228 l -1.26093,3.29783 q -1.09927,-0.6143 -2.42487,-0.93762 -1.29327,-0.32331 -2.68352,-0.32331 -1.64892,0 -2.58653,0.67896 -0.90529,0.67896 -0.90529,1.90757 0,0.74362 0.29099,1.29326 0.32331,0.51731 0.87295,0.93762 0.58197,0.42031 1.3256,0.77596 0.77595,0.35564 1.68124,0.67896 1.58425,0.58197 2.81285,1.19627 1.26093,0.58197 2.10155,1.42259 0.87296,0.80829 1.3256,1.9399 0.45264,1.09927 0.45264,2.68352 0,3.03917 -2.16621,4.72042 -2.13389,1.64891 -6.27234,1.64891 -1.39026,0 -2.5542,-0.19399 -1.1316,-0.16166 -2.03689,-0.42031 -0.87295,-0.25865 -1.51958,-0.51731 -0.64664,-0.29098 -1.03462,-0.5173 l 1.19627,-3.33016 q 0.87296,0.48498 2.36021,0.96995 1.48726,0.48497 3.58881,0.48497 z"
       style="font-style:normal;font-variant:normal;font-weight:500;font-stretch:normal;font-size:32.33161545px;font-family:Ubuntu;-inkscape-font-specification:'Ubuntu Medium';fill:#cc9900;fill-opacity:1;stroke-width:0.86602539"
       id="path838" /></g><path
     inkscape:connector-curvature="0"
     style="fill:#cc9900;fill-opacity:1;stroke-width:0.86602539"
     d="m 27,128 c -22.415,0 -27,3.41475 -27,20.25 0,16.83525 4.514,20.25 27,20.25 22.489003,0 27.000003,-3.408 27.000003,-20.25 C 54.000003,131.4065 49.415003,128 27,128 Z m 0.162109,5.25 5.187504,9.57129 13.7207,0.9082 -10.5332,6.65772 3.08789,10.06933 L 26.927734,155 l -11.814453,5.31298 3.304688,-10.02831 -10.388672,-6.78516 13.740234,-0.74268 z"
     id="Settings_1_-3" /></svg>