<?xml version="1.0" encoding="UTF-8" standalone="no"?>
<svg
   xmlns:dc="http://purl.org/dc/elements/1.1/"
   xmlns:cc="http://creativecommons.org/ns#"
   xmlns:rdf="http://www.w3.org/1999/02/22-rdf-syntax-ns#"
   xmlns:svg="http://www.w3.org/2000/svg"
   xmlns="http://www.w3.org/2000/svg"
   xmlns:sodipodi="http://sodipodi.sourceforge.net/DTD/sodipodi-0.dtd"
   xmlns:inkscape="http://www.inkscape.org/namespaces/inkscape"
   viewBox="0 0 557.59998 241.75313"
   height="241.75313"
   width="557.59998"
   xml:space="preserve"
   version="1.1"
   id="svg2"
   sodipodi:docname="console.svg"
   inkscape:version="0.92.2 (5c3e80d, 2017-08-06)"><sodipodi:namedview
     pagecolor="#ffffff"
     bordercolor="#666666"
     borderopacity="1"
     objecttolerance="10"
     gridtolerance="10"
     guidetolerance="10"
     inkscape:pageopacity="0"
     inkscape:pageshadow="2"
     inkscape:window-width="1920"
     inkscape:window-height="1017"
     id="namedview122"
     showgrid="false"
     fit-margin-top="0"
     fit-margin-left="0"
     fit-margin-right="0"
     fit-margin-bottom="0"
     inkscape:zoom="0.62589673"
     inkscape:cx="278.79999"
     inkscape:cy="161.16875"
     inkscape:window-x="-8"
     inkscape:window-y="-8"
     inkscape:window-maximized="1"
     inkscape:current-layer="svg2" /><metadata
     id="metadata8"><rdf:RDF><cc:Work
         rdf:about=""><dc:format>image/svg+xml</dc:format><dc:type
           rdf:resource="http://purl.org/dc/dcmitype/StillImage" /><dc:title></dc:title></cc:Work></rdf:RDF></metadata><defs
     id="defs6"><clipPath
       id="clipPath16"
       clipPathUnits="userSpaceOnUse"><path
         id="path18"
         d="M 0,257.87 H 446.08 V 0 H 0 Z"
         inkscape:connector-curvature="0" /></clipPath></defs><g
     transform="matrix(1.25,0,0,-0.9375,0,241.75312)"
     id="g10"><g
       id="g12"><g
         clip-path="url(#clipPath16)"
         id="g14"><g
           transform="translate(446.08,52.35)"
           id="g20"><path
             id="path22"
             style="fill:#a4a9ab;fill-opacity:1;fill-rule:nonzero;stroke:none"
             d="m 0,0 v -5.85 -14.42 c 0,0 -1.508,-10.79 -6.806,-15.92 -5.288,-5.12 -18.755,-7.41 -18.755,-7.41 l -54.573,-4.34 -96.389,-4.41 h -92.259 l -76.942,3.16 -71.263,5.17 c 0,0 -29.093,1.17 -29.093,22.83 v 20.98 c 17.537,-1.87 61.616,-5.83 118.915,-5.7 1.063,-0.29 1.921,-0.28 1.921,-0.28 l 64.373,-1 h 75.744 c 0,0 55.936,1.09 63.94,1.09 1.095,0 2.014,0.14 2.799,0.4 C -59.158,-5.84 -15.595,-1.72 0,0"
             inkscape:connector-curvature="0" /></g><g
           transform="translate(446.08,249)"
           id="g24"><path
             id="path26"
             style="fill:#b1b7bb;fill-opacity:1;fill-rule:nonzero;stroke:none"
             d="m 0,0 v -196.65 c -15.595,-1.72 -59.158,-5.84 -118.388,-5.7 -0.785,-0.26 -1.704,-0.4 -2.799,-0.4 -8.004,0 -63.94,-1.09 -63.94,-1.09 h -75.744 l -64.373,1 c 0,0 -0.858,-0.01 -1.921,0.28 -57.299,-0.13 -101.378,3.83 -118.915,5.7 V -196 -12 0.66 c 0,0 0.341,5 12.218,6.17 11.877,1.17 25.654,2.04 25.654,2.04 H -37.79 c 0,0 26.078,-2.12 30.561,-3.37 C -2.758,4.25 0,4.08 0,0"
             inkscape:connector-curvature="0" /></g><g
           transform="translate(12.29,17.75)"
           id="g28"><path
             id="path30"
             style="fill:#414144;fill-opacity:1;fill-rule:nonzero;stroke:none"
             d="m 0,0 v -0.2 c -3.08,3.26 -5.21,7.66 -5.21,13.61 v 21.84 184 17.93 l 1.331,0.326 0.289,-74.136 V 13.41 C -3.59,7.58 -2.95,3.24 0,0"
             inkscape:connector-curvature="0" /></g><g
           transform="translate(433.6236,17.75)"
           id="g32"><path
             id="path34"
             style="fill:#414144;fill-opacity:1;fill-rule:nonzero;stroke:none"
             d="m 0,0 v -0.2 c 3.08,3.26 5.21,7.66 5.21,13.61 v 21.84 184 l 0.017,17.5 -1.35,0.294 L 3.59,163.37 V 13.41 C 3.59,7.58 2.95,3.24 0,0"
             inkscape:connector-curvature="0" /></g><g
           transform="translate(324.37,46.65)"
           id="g36"><path
             id="path38"
             style="fill:#16181d;fill-opacity:1;fill-rule:nonzero;stroke:none"
             d="m 0,0 c -0.76,-0.26 -1.65,-0.4 -2.71,-0.4 -7.75,0 -61.91,-1.09 -61.91,-1.09 h -73.34 l -62.33,1 c 0,0 -0.83,-0.01 -1.86,0.28 -1.68,0.47 -3.89,1.73 -3.89,5.14 v 191.92 c 0,0 -0.13,5.52 4.58,5.52 4.71,0 100.17,-0.02 100.17,-0.02 h 100.5 c 0,0 4.83,0.58 4.83,-4.71 L 4.04,7.35 C 4.04,7.35 4.79,1.57 0,0"
             inkscape:connector-curvature="0" /></g><g
           transform="translate(315.9756,55.7805)"
           id="g40"><path
             id="path42"
             style="fill:#16181d;fill-opacity:1;fill-rule:nonzero;stroke:none"
             d="m 0,0 c -0.702,-0.229 -1.524,-0.352 -2.503,-0.352 -6.23,0 -44.928,-0.726 -54.862,-0.915 -1.396,-0.026 -2.617,-0.93 -3.057,-2.254 l -0.886,-2.662 c -0.301,-0.906 -1.149,-1.518 -2.104,-1.518 h -59.515 c -0.848,0 -1.621,0.484 -1.993,1.246 l -1.724,3.534 c -0.481,0.987 -1.478,1.621 -2.577,1.637 l -55.78,0.853 c 0,0 -0.767,-0.009 -1.718,0.246 -1.552,0.414 -3.593,1.522 -3.593,4.523 v 168.874 c 0,0 -0.12,4.857 4.23,4.857 4.351,0 92.524,-0.017 92.524,-0.017 H -0.73 c 0,0 4.462,0.51 4.462,-4.145 V 6.467 C 3.732,6.467 4.424,1.381 0,0"
             inkscape:connector-curvature="0" /></g><path
           id="path44"
           style="fill:#565e64;fill-opacity:1;fill-rule:nonzero;stroke:none"
           d="m 133.705,225.398 h 178.5 V 66.892 h -178.5 z"
           inkscape:connector-curvature="0" /><g
           transform="translate(96.58,227.41)"
           id="g46"><path
             id="path48"
             style="fill:#656971;fill-opacity:1;fill-rule:nonzero;stroke:none"
             d="m 0,0 c 0,-4.32 -3.5,-7.82 -7.81,-7.82 -3.86,0 -7.06,2.79 -7.69,6.47 l -16.52,0.02 c -0.05,-0.57 -0.14,-1.17 -0.25,-1.82 -0.41,-2.42 -2.5,-4.46 -4.26,-4.46 h -26.42 c 0,0 -3.86,-0.28 -5.03,5.04 -0.55,2.52 0.01,5.75 0.01,5.75 0,0 1.16,3.96 5.02,4.43 h 25.4 c 0,0 4.32,0 5.38,-5.53 0.06,-0.26 0.11,-0.51 0.14,-0.78 l 16.51,-0.03 c 0.61,3.71 3.82,6.54 7.71,6.54 C -3.5,7.81 0,4.31 0,0"
             inkscape:connector-curvature="0" /></g><g
           transform="translate(35.8925,232.4966)"
           id="g50"><path
             id="path52"
             style="fill:#404044;fill-opacity:1;fill-rule:nonzero;stroke:none"
             d="m 0,0 h 20.937 c 0,0 3.563,0 4.436,-3.696 0.314,-1.036 0.21,-2.111 -0.081,-3.499 -0.339,-1.615 -2.063,-2.984 -3.511,-2.982 H 0 c 0,0 -3.188,-0.186 -4.146,3.373 -0.453,1.684 0.004,3.844 0.004,3.844 0,0 0.954,2.647 4.142,2.96"
             inkscape:connector-curvature="0" /></g><g
           transform="translate(83.0175,227.4072)"
           id="g54"><path
             id="path56"
             style="fill:#eb223b;fill-opacity:1;fill-rule:nonzero;stroke:none"
             d="M 0,0 C 0,3.176 2.574,5.75 5.75,5.75 8.926,5.75 11.5,3.176 11.5,0 11.5,-3.176 8.926,-5.75 5.75,-5.75 2.574,-5.75 0,-3.176 0,0"
             inkscape:connector-curvature="0" /></g><g
           transform="translate(347.58,143.33)"
           id="g58"><path
             id="path60"
             style="fill:#263246;fill-opacity:1;fill-rule:nonzero;stroke:none"
             d="M 0,0 C 0,9.527 7.723,17.25 17.25,17.25 26.777,17.25 34.5,9.527 34.5,0 34.5,-9.527 26.777,-17.25 17.25,-17.25 7.723,-17.25 0,-9.527 0,0"
             inkscape:connector-curvature="0" /></g><g
           transform="translate(390.955,175.205)"
           id="g62"><path
             id="path64"
             style="fill:#263246;fill-opacity:1;fill-rule:nonzero;stroke:none"
             d="M 0,0 C 0,9.389 7.611,17 17,17 26.389,17 34,9.389 34,0 34,-9.389 26.389,-17 17,-17 7.611,-17 0,-9.389 0,0"
             inkscape:connector-curvature="0" /></g><g
           transform="translate(410.46,40.45)"
           id="g66"><path
             id="path68"
             style="fill:#666a6e;fill-opacity:1;fill-rule:nonzero;stroke:none"
             d="m 0,0 c -2.08,0 -3.76,-1.67 -3.76,-3.74 0,-2.08 1.68,-3.76 3.76,-3.76 2.07,0 3.74,1.68 3.74,3.76 C 3.74,-1.67 2.07,0 0,0 m -0.005,24.505 c 2.071,0 3.75,1.679 3.75,3.75 0,2.071 -1.679,3.75 -3.75,3.75 -2.071,0 -3.75,-1.679 -3.75,-3.75 0,-2.071 1.679,-3.75 3.75,-3.75 m 0,32.25 c 2.071,0 3.75,1.679 3.75,3.75 0,2.071 -1.679,3.75 -3.75,3.75 -2.071,0 -3.75,-1.679 -3.75,-3.75 0,-2.071 1.679,-3.75 3.75,-3.75 M -27.38,-2 c -2.07,0 -3.75,-1.67 -3.75,-3.74 0,-2.08 1.68,-3.76 3.75,-3.76 2.07,0 3.75,1.68 3.75,3.76 0,2.07 -1.68,3.74 -3.75,3.74 m 0,24.505 c 2.071,0 3.75,1.679 3.75,3.75 0,2.071 -1.679,3.75 -3.75,3.75 -2.071,0 -3.75,-1.679 -3.75,-3.75 0,-2.071 1.679,-3.75 3.75,-3.75 m 0,32.25 c 2.071,0 3.75,1.679 3.75,3.75 0,2.071 -1.679,3.75 -3.75,3.75 -2.071,0 -3.75,-1.679 -3.75,-3.75 0,-2.071 1.679,-3.75 3.75,-3.75 M -54.63,-4.74 c -2.07,0 -3.75,-1.68 -3.75,-3.76 0,-2.07 1.68,-3.74 3.75,-3.74 2.07,0 3.75,1.67 3.75,3.74 0,2.08 -1.68,3.76 -3.75,3.76 m 0,24.495 c 2.071,0 3.75,1.679 3.75,3.75 0,2.071 -1.679,3.75 -3.75,3.75 -2.071,0 -3.75,-1.679 -3.75,-3.75 0,-2.071 1.679,-3.75 3.75,-3.75 m -3.75,36 c 0,2.071 1.679,3.75 3.75,3.75 2.071,0 3.75,-1.679 3.75,-3.75 0,-2.071 -1.679,-3.75 -3.75,-3.75 -2.071,0 -3.75,1.679 -3.75,3.75"
             inkscape:connector-curvature="0" /></g><g
           transform="translate(87.8925,55.955)"
           id="g70"><path
             id="path72"
             style="fill:#16181d;fill-opacity:1;fill-rule:nonzero;stroke:none"
             d="M 0,0 C 1.208,0 2.188,0.979 2.188,2.188 2.188,3.396 1.208,4.375 0,4.375 -1.208,4.375 -2.188,3.396 -2.188,2.188 -2.188,0.979 -1.208,0 0,0 m 0,7.437 c 1.208,0 2.188,0.98 2.188,2.188 0,1.208 -0.98,2.188 -2.188,2.188 -1.208,0 -2.188,-0.98 -2.188,-2.188 0,-1.208 0.98,-2.188 2.188,-2.188 m 0,7.438 c 1.208,0 2.188,0.979 2.188,2.187 0,1.209 -0.98,2.188 -2.188,2.188 -1.208,0 -2.188,-0.979 -2.188,-2.188 0,-1.208 0.98,-2.187 2.188,-2.187 m 0,7.562 c 1.208,0 2.188,0.98 2.188,2.188 0,1.208 -0.98,2.187 -2.188,2.187 -1.208,0 -2.188,-0.979 -2.188,-2.187 0,-1.208 0.98,-2.188 2.188,-2.188 M -8.438,0 c 1.209,0 2.188,0.979 2.188,2.188 0,1.208 -0.979,2.187 -2.188,2.187 -1.208,0 -2.187,-0.979 -2.187,-2.187 C -10.625,0.979 -9.646,0 -8.438,0 m 0,7.437 c 1.209,0 2.188,0.98 2.188,2.188 0,1.208 -0.979,2.188 -2.188,2.188 -1.208,0 -2.187,-0.98 -2.187,-2.188 0,-1.208 0.979,-2.188 2.187,-2.188 m 0,7.438 c 1.209,0 2.188,0.979 2.188,2.187 0,1.209 -0.979,2.188 -2.188,2.188 -1.208,0 -2.187,-0.979 -2.187,-2.188 0,-1.208 0.979,-2.187 2.187,-2.187 m 0,7.562 c 1.209,0 2.188,0.98 2.188,2.188 0,1.208 -0.979,2.187 -2.188,2.187 -1.208,0 -2.187,-0.979 -2.187,-2.187 0,-1.208 0.979,-2.188 2.187,-2.188 M -16.687,0 c 1.208,0 2.187,0.979 2.187,2.188 0,1.208 -0.979,2.187 -2.187,2.187 -1.209,0 -2.188,-0.979 -2.188,-2.187 0,-1.209 0.979,-2.188 2.188,-2.188 m 0,7.437 c 1.208,0 2.187,0.98 2.187,2.188 0,1.208 -0.979,2.188 -2.187,2.188 -1.209,0 -2.188,-0.98 -2.188,-2.188 0,-1.208 0.979,-2.188 2.188,-2.188 m 0,7.438 c 1.208,0 2.187,0.979 2.187,2.187 0,1.209 -0.979,2.188 -2.187,2.188 -1.209,0 -2.188,-0.979 -2.188,-2.188 0,-1.208 0.979,-2.187 2.188,-2.187 m 0,7.562 c 1.208,0 2.187,0.98 2.187,2.188 0,1.208 -0.979,2.187 -2.187,2.187 -1.209,0 -2.188,-0.979 -2.188,-2.187 0,-1.208 0.979,-2.188 2.188,-2.188 M -24.937,0 c 1.208,0 2.187,0.979 2.187,2.188 0,1.208 -0.979,2.187 -2.187,2.187 -1.209,0 -2.188,-0.979 -2.188,-2.187 0,-1.209 0.979,-2.188 2.188,-2.188 m 0,7.437 c 1.208,0 2.187,0.98 2.187,2.188 0,1.208 -0.979,2.188 -2.187,2.188 -1.209,0 -2.188,-0.98 -2.188,-2.188 0,-1.208 0.979,-2.188 2.188,-2.188 m 0,7.438 c 1.208,0 2.187,0.979 2.187,2.187 0,1.209 -0.979,2.188 -2.187,2.188 -1.209,0 -2.188,-0.979 -2.188,-2.188 0,-1.208 0.979,-2.187 2.188,-2.187 m 0,7.562 c 1.208,0 2.187,0.98 2.187,2.188 0,1.208 -0.979,2.187 -2.187,2.187 -1.209,0 -2.188,-0.979 -2.188,-2.187 0,-1.208 0.979,-2.188 2.188,-2.188 M -33.063,0 c 1.209,0 2.188,0.979 2.188,2.188 0,1.208 -0.979,2.187 -2.188,2.187 -1.208,0 -2.187,-0.979 -2.187,-2.187 0,-1.209 0.979,-2.188 2.187,-2.188 m 0,7.437 c 1.209,0 2.188,0.98 2.188,2.188 0,1.208 -0.979,2.188 -2.188,2.188 -1.208,0 -2.187,-0.98 -2.187,-2.188 0,-1.208 0.979,-2.188 2.187,-2.188 m 0,7.438 c 1.209,0 2.188,0.979 2.188,2.187 0,1.209 -0.979,2.188 -2.188,2.188 -1.208,0 -2.187,-0.979 -2.187,-2.188 0,-1.208 0.979,-2.187 2.187,-2.187 m -2.187,9.75 c 0,1.208 0.979,2.187 2.187,2.187 1.209,0 2.188,-0.979 2.188,-2.187 0,-1.208 -0.979,-2.188 -2.188,-2.188 -1.208,0 -2.187,0.98 -2.187,2.188"
             inkscape:connector-curvature="0" /></g><g
           transform="translate(402.1634,227.2466)"
           id="g74"><path
             id="path76"
             style="fill:#656971;fill-opacity:1;fill-rule:nonzero;stroke:none"
             d="m 0,0 c 0,5.201 4.216,9.417 9.417,9.417 5.2,0 9.416,-4.216 9.416,-9.417 0,-5.201 -4.216,-9.417 -9.416,-9.417 C 4.216,-9.417 0,-5.201 0,0"
             inkscape:connector-curvature="0" /></g><g
           transform="translate(404.9967,227.2466)"
           id="g78"><path
             id="path80"
             style="fill:#404044;fill-opacity:1;fill-rule:nonzero;stroke:none"
             d="m 0,0 c 0,3.636 2.947,6.583 6.583,6.583 3.636,0 6.584,-2.947 6.584,-6.583 0,-3.636 -2.948,-6.583 -6.584,-6.583 C 2.947,-6.583 0,-3.636 0,0"
             inkscape:connector-curvature="0" /></g><g
           transform="translate(36.87,162.33)"
           id="g82"><path
             id="path84"
             style="fill:#404044;fill-opacity:1;fill-rule:nonzero;stroke:none"
             d="m 0,0 h -6.9 c -0.09,-1.11 -0.14,-2.24 -0.14,-3.38 0,-1.03 0.04,-2.05 0.11,-3.06 h 6.9 c -0.09,1.01 -0.14,2.03 -0.14,3.06 0,1.14 0.06,2.27 0.17,3.38 m 9.11,-26.98 -4.91,-4.8 c 0.81,-0.86 1.65,-1.68 2.52,-2.46 l 4.8,4.93 c -0.83,0.74 -1.64,1.52 -2.41,2.33 M 34.46,-38 c -1.14,0 -2.26,0.05 -3.37,0.16 v -6.9 c 1.11,-0.09 2.23,-0.14 3.37,-0.14 1.03,0 2.05,0.04 3.06,0.12 v 6.89 C 36.51,-37.95 35.49,-38 34.46,-38 m 25.94,11.67 c -0.75,-0.83 -1.52,-1.62 -2.33,-2.39 l 4.79,-4.91 c 0.86,0.8 1.68,1.64 2.47,2.52 z m 15.45,26.02 h -6.9 c 0.09,-1.01 0.14,-2.03 0.14,-3.07 0,-1.14 -0.05,-2.26 -0.16,-3.37 h 6.89 c 0.09,1.11 0.14,2.23 0.14,3.37 0,1.03 -0.04,2.06 -0.11,3.07 M 62.2,27.49 57.4,22.56 c 0.83,-0.74 1.64,-1.52 2.41,-2.33 l 4.9,4.79 c -0.8,0.86 -1.64,1.68 -2.51,2.47 M 34.46,38.12 c -1.03,0 -2.05,-0.04 -3.06,-0.11 v -6.89 c 1.01,0.08 2.03,0.13 3.06,0.13 1.14,0 2.26,-0.05 3.37,-0.16 v 6.89 c -1.11,0.09 -2.23,0.14 -3.37,0.14 M 10.85,21.97 C 10.04,21.2 9.27,20.41 8.53,19.57 l -4.94,4.79 c 0.79,0.88 1.62,1.72 2.47,2.52 z"
             inkscape:connector-curvature="0" /></g><g
           transform="translate(105.82,162.02)"
           id="g86"><path
             id="path88"
             style="fill:#656971;fill-opacity:1;fill-rule:nonzero;stroke:none"
             d="M 0,0 H 6.9 C 6.18,9.78 2.08,18.61 -4.24,25.33 l -4.9,-4.79 C -4.04,15.05 -0.69,7.91 0,0 m -8.55,-26.02 4.93,-4.78 c 5.9,6.57 9.74,15.02 10.49,24.36 h -6.89 c -0.73,-7.48 -3.83,-14.26 -8.53,-19.58 m -22.88,-11.54 v -6.89 c 9.78,0.71 18.61,4.81 25.34,11.13 l -4.79,4.91 c -5.49,-5.1 -12.64,-8.45 -20.55,-9.15 M -6.75,27.8 c -6.57,5.91 -15.03,9.74 -24.37,10.49 V 31.4 c 7.47,-0.72 14.25,-3.82 19.57,-8.53 z m -30.8,3.63 v 6.89 c -9.77,-0.71 -18.6,-4.81 -25.34,-11.13 l 4.79,-4.91 c 5.49,5.11 12.64,8.46 20.55,9.15 m -24.68,-65.36 c 6.57,-5.91 15.03,-9.75 24.37,-10.5 v 6.9 c -7.47,0.72 -14.25,3.82 -19.57,8.53 z m -6.75,27.8 h -6.9 c 0.72,-9.78 4.82,-18.61 11.13,-25.34 l 4.91,4.8 c -5.1,5.48 -8.45,12.63 -9.14,20.54 m 0.03,6.44 h -6.9 c 0.75,9.34 4.59,17.8 10.49,24.36 l 4.94,-4.79 c -4.71,-5.32 -7.81,-12.1 -8.53,-19.57"
             inkscape:connector-curvature="0" /></g><g
           transform="translate(104.42,155.72)"
           id="g90"><path
             id="path92"
             style="fill:#83898b;fill-opacity:1;fill-rule:nonzero;stroke:none"
             d="m 0,0 c -0.7,-7.19 -3.68,-13.69 -8.19,-18.8 -0.72,-0.8 -1.46,-1.56 -2.24,-2.3 -5.27,-4.89 -12.13,-8.11 -19.72,-8.78 -0.97,-0.08 -1.95,-0.12 -2.94,-0.12 -1.09,0 -2.17,0.04 -3.24,0.15 -7.17,0.69 -13.67,3.67 -18.78,8.19 -0.8,0.71 -1.58,1.46 -2.31,2.24 -4.9,5.26 -8.12,12.12 -8.78,19.71 -0.09,0.97 -0.13,1.95 -0.13,2.94 0,1.09 0.05,2.18 0.16,3.24 0.69,7.18 3.67,13.68 8.19,18.79 0.71,0.81 1.45,1.57 2.23,2.31 5.27,4.9 12.13,8.12 19.72,8.78 0.97,0.08 1.95,0.12 2.94,0.12 1.09,0 2.17,-0.04 3.24,-0.15 7.17,-0.69 13.67,-3.67 18.78,-8.19 0.8,-0.71 1.58,-1.46 2.31,-2.24 C -3.86,20.62 -0.64,13.77 0.02,6.18 0.11,5.21 0.15,4.23 0.15,3.23 0.15,2.14 0.11,1.06 0,0 m 1.4,6.3 c -0.69,7.91 -4.04,15.05 -9.14,20.54 -0.77,0.81 -1.58,1.59 -2.41,2.33 -5.32,4.71 -12.1,7.81 -19.57,8.53 -1.11,0.11 -2.23,0.16 -3.37,0.16 -1.03,0 -2.05,-0.05 -3.06,-0.13 -7.91,-0.69 -15.06,-4.04 -20.55,-9.15 -0.81,-0.77 -1.58,-1.56 -2.32,-2.4 -4.71,-5.32 -7.81,-12.1 -8.53,-19.57 -0.11,-1.11 -0.17,-2.24 -0.17,-3.38 0,-1.03 0.05,-2.05 0.14,-3.06 0.69,-7.91 4.04,-15.06 9.14,-20.54 0.77,-0.81 1.58,-1.59 2.41,-2.33 5.32,-4.71 12.1,-7.81 19.57,-8.53 1.11,-0.11 2.23,-0.16 3.37,-0.16 1.03,0 2.05,0.05 3.06,0.13 7.91,0.7 15.06,4.05 20.55,9.15 0.81,0.77 1.58,1.56 2.33,2.39 4.7,5.32 7.8,12.1 8.53,19.58 0.11,1.11 0.16,2.23 0.16,3.37 0,1.04 -0.05,2.06 -0.14,3.07"
             inkscape:connector-curvature="0" /></g><g
           transform="translate(104.57,158.95)"
           id="g94"><path
             id="path96"
             style="fill:#a1a9ac;fill-opacity:1;fill-rule:nonzero;stroke:none"
             d="m 0,0 c 0,-1.09 -0.04,-2.17 -0.15,-3.23 -0.7,-7.19 -3.68,-13.69 -8.19,-18.8 -0.72,-0.8 -1.46,-1.56 -2.24,-2.3 -5.27,-4.89 -12.13,-8.11 -19.72,-8.78 -0.97,-0.08 -1.95,-0.12 -2.94,-0.12 -1.09,0 -2.17,0.04 -3.24,0.15 -7.17,0.69 -13.67,3.67 -18.78,8.19 -0.8,0.71 -1.58,1.46 -2.31,2.24 -4.9,5.26 -8.12,12.12 -8.78,19.71 -0.09,0.97 -0.13,1.95 -0.13,2.94 0,1.09 0.05,2.18 0.16,3.24 0.69,7.18 3.67,13.68 8.19,18.79 0.71,0.81 1.45,1.57 2.23,2.31 5.27,4.9 12.13,8.12 19.72,8.78 0.97,0.08 1.95,0.12 2.94,0.12 1.09,0 2.17,-0.04 3.24,-0.15 7.17,-0.69 13.67,-3.67 18.78,-8.19 0.8,-0.71 1.58,-1.46 2.31,-2.24 4.9,-5.27 8.12,-12.12 8.78,-19.71 C -0.04,1.98 0,1 0,0"
             inkscape:connector-curvature="0" /></g><g
           transform="translate(49.9133,158.955)"
           id="g98"><path
             id="path100"
             style="fill:#404044;fill-opacity:1;fill-rule:nonzero;stroke:none"
             d="m 0,0 c 0,11.828 9.589,21.417 21.417,21.417 11.828,0 21.416,-9.589 21.416,-21.417 0,-11.828 -9.588,-21.417 -21.416,-21.417 C 9.589,-21.417 0,-11.828 0,0"
             inkscape:connector-curvature="0" /></g><g
           transform="translate(53.8925,158.955)"
           id="g102"><path
             id="path104"
             style="fill:#252528;fill-opacity:1;fill-rule:nonzero;stroke:none"
             d="M 0,0 C 0,9.63 7.807,17.437 17.437,17.437 27.068,17.437 34.875,9.63 34.875,0 34.875,-9.63 27.068,-17.437 17.437,-17.437 7.807,-17.437 0,-9.63 0,0"
             inkscape:connector-curvature="0" /></g><g
           transform="translate(80.08,158.955)"
           id="g106"><path
             id="path108"
             style="fill:#2a2b2d;fill-opacity:1;fill-rule:nonzero;stroke:none"
             d="m 0,0 c 0,4.832 -3.918,8.75 -8.75,8.75 -4.832,0 -8.75,-3.918 -8.75,-8.75 0,-4.832 3.918,-8.75 8.75,-8.75 C -3.918,-8.75 0,-4.832 0,0"
             inkscape:connector-curvature="0" /></g><g
           transform="translate(214.12,19.62)"
           id="g110"><path
             id="path112"
             style="fill:#636875;fill-opacity:1;fill-rule:nonzero;stroke:none"
             d="m 0,0 c -0.83,1.63 -1.46,2.04 -2.16,2.04 h -11.67 c 0,0 -0.51,0.13 -0.81,0.63 -0.18,0.3 -0.15,1.25 0.18,1.66 0.3,0.37 0.8,0.46 1.09,0.46 H 0.21 V 8.27 H -15.5 c -0.51,0 -1.01,-0.17 -1.42,-0.49 -0.59,-0.47 -1.39,-1.24 -1.62,-2.07 -0.38,-1.38 -0.5,-4.31 0,-5.31 0.5,-1 2,-1.75 2.5,-1.75 h 11.25 c 0,0 0.58,-0.06 0.83,-0.56 0.25,-0.5 0.13,-1.38 -0.25,-1.63 -0.37,-0.25 -0.54,-0.21 -1,-0.21 H -18.87 V -6.88 H -2 c 0,0 2,0.26 2.21,1.67 C 0.42,-3.79 0.84,-1.62 0,0 M 15.27,8.27 V -0.54 L 6.49,8.24 H 2.02 V -6.85 h 4 v 9.18 l 9.22,-9.21 h 4.1 V 8.27 Z M 38.58,-6.85 h -5.31 l -4.81,4.81 -3.28,-3.28 V -6.85 H 20.77 V 8.27 h 4.57 V 0.59 l 7.4,7.4 H 38.4 L 31.07,0.66 Z"
             inkscape:connector-curvature="0" /></g><g
           transform="translate(30.8989,243.5096)"
           id="g114"><path
             id="path116"
             style="fill:#231f20;fill-opacity:1;fill-rule:nonzero;stroke:none"
             d="m 0,0 c 0.212,-0.045 0.479,-0.063 0.803,-0.063 1.171,0 1.885,0.459 1.885,1.296 0,0.802 -0.703,1.189 -1.773,1.189 C 0.491,2.422 0.167,2.395 0,2.359 Z M -0.971,2.926 C -0.502,2.989 0.111,3.043 0.892,3.043 1.852,3.043 2.554,2.863 3,2.539 3.413,2.251 3.658,1.81 3.658,1.27 3.658,0.72 3.458,0.288 3.078,-0.027 2.565,-0.468 1.729,-0.693 0.781,-0.693 0.491,-0.693 0.223,-0.684 0,-0.639 V -3.07 h -0.971 z"
             inkscape:connector-curvature="0" /></g><g
           transform="translate(36.4506,243.4379)"
           id="g118"><path
             id="path120"
             style="fill:#231f20;fill-opacity:1;fill-rule:nonzero;stroke:none"
             d="m 0,0 c 0,-1.296 0.87,-2.458 2.398,-2.458 1.54,0 2.409,1.144 2.409,2.521 C 4.807,1.269 4.026,2.53 2.409,2.53 0.803,2.53 0,1.332 0,0 m 5.833,0.099 c 0,-2.089 -1.572,-3.196 -3.491,-3.196 -1.985,0 -3.38,1.243 -3.38,3.079 0,1.926 1.484,3.187 3.492,3.187 2.052,0 3.379,-1.27 3.379,-3.07"
             inkscape:connector-curvature="0" /></g><g
           transform="translate(44.768,240.4398)"
           id="g122"><path
             id="path124"
             style="fill:#231f20;fill-opacity:1;fill-rule:nonzero;stroke:none"
             d="m 0,0 -1.907,6.068 h 1.026 L 0.011,2.998 C 0.234,2.242 0.435,1.485 0.569,0.9 H 0.591 C 0.714,1.503 0.948,2.224 1.205,3.007 L 2.208,6.068 H 3.224 L 4.138,2.989 C 4.35,2.269 4.551,1.548 4.663,0.909 H 4.685 C 4.841,1.576 5.053,2.25 5.287,3.007 L 6.28,6.068 H 7.272 L 5.142,0 H 4.127 L 3.179,3.16 C 2.945,3.934 2.789,4.528 2.688,5.141 H 2.666 C 2.532,4.538 2.365,3.943 2.086,3.16 L 1.015,0 Z"
             inkscape:connector-curvature="0" /></g><g
           transform="translate(56.8661,243.2845)"
           id="g126"><path
             id="path128"
             style="fill:#231f20;fill-opacity:1;fill-rule:nonzero;stroke:none"
             d="m 0,0 h -2.922 v -2.188 h 3.256 v -0.657 h -4.227 v 6.068 h 4.06 V 2.566 H -2.922 V 0.648 H 0 Z"
             inkscape:connector-curvature="0" /></g><g
           transform="translate(59.4291,243.663)"
           id="g130"><path
             id="path132"
             style="fill:#231f20;fill-opacity:1;fill-rule:nonzero;stroke:none"
             d="M 0,0 H 0.993 C 2.03,0 2.688,0.459 2.688,1.152 2.688,1.936 1.985,2.277 0.959,2.287 0.491,2.287 0.156,2.25 0,2.214 Z M -0.971,2.764 C -0.48,2.845 0.223,2.89 0.892,2.89 1.929,2.89 2.599,2.737 3.067,2.395 3.446,2.125 3.658,1.71 3.658,1.242 3.658,0.441 3.034,-0.09 2.242,-0.306 v -0.027 c 0.58,-0.162 0.925,-0.594 1.104,-1.225 0.245,-0.846 0.424,-1.431 0.58,-1.665 H 2.922 C 2.799,-3.052 2.632,-2.53 2.42,-1.774 2.197,-0.937 1.795,-0.622 0.915,-0.594 H 0 v -2.629 h -0.971 z"
             inkscape:connector-curvature="0" /></g><g
           transform="translate(358.6025,227.6029)"
           id="g134"><path
             id="path136"
             style="fill:#231f20;fill-opacity:1;fill-rule:nonzero;stroke:none"
             d="m 0,0 c 0,-1.296 0.87,-2.458 2.398,-2.458 1.54,0 2.41,1.144 2.41,2.521 C 4.808,1.269 4.026,2.53 2.409,2.53 0.804,2.53 0,1.332 0,0 m 5.834,0.099 c 0,-2.089 -1.573,-3.196 -3.491,-3.196 -1.986,0 -3.38,1.243 -3.38,3.079 0,1.926 1.483,3.187 3.491,3.187 2.053,0 3.38,-1.27 3.38,-3.07"
             inkscape:connector-curvature="0" /></g><g
           transform="translate(366.664,227.6747)"
           id="g138"><path
             id="path140"
             style="fill:#231f20;fill-opacity:1;fill-rule:nonzero;stroke:none"
             d="m 0,0 c 0.212,-0.045 0.479,-0.063 0.803,-0.063 1.171,0 1.885,0.459 1.885,1.296 0,0.802 -0.703,1.189 -1.774,1.189 C 0.49,2.422 0.167,2.395 0,2.359 Z M -0.971,2.926 C -0.502,2.989 0.111,3.043 0.892,3.043 1.852,3.043 2.554,2.863 3,2.539 3.413,2.251 3.658,1.81 3.658,1.27 3.658,0.72 3.457,0.288 3.078,-0.027 2.565,-0.468 1.729,-0.693 0.78,-0.693 0.49,-0.693 0.223,-0.684 0,-0.639 V -3.07 h -0.971 z"
             inkscape:connector-curvature="0" /></g><g
           transform="translate(373.0517,230.0067)"
           id="g142"><path
             id="path144"
             style="fill:#231f20;fill-opacity:1;fill-rule:nonzero;stroke:none"
             d="M 0,0 H -2.286 V 0.666 H 3.279 V 0 H 0.981 V -5.402 H 0 Z"
             inkscape:connector-curvature="0" /></g><path
           id="path146"
           style="fill:#231f20;fill-opacity:1;fill-rule:nonzero;stroke:none"
           d="m 378.136,224.605 h -0.971 v 6.068 h 0.971 z"
           inkscape:connector-curvature="0" /><g
           transform="translate(380.4208,227.6029)"
           id="g148"><path
             id="path150"
             style="fill:#231f20;fill-opacity:1;fill-rule:nonzero;stroke:none"
             d="m 0,0 c 0,-1.296 0.87,-2.458 2.398,-2.458 1.54,0 2.41,1.144 2.41,2.521 C 4.808,1.269 4.026,2.53 2.409,2.53 0.804,2.53 0,1.332 0,0 m 5.834,0.099 c 0,-2.089 -1.573,-3.196 -3.491,-3.196 -1.986,0 -3.38,1.243 -3.38,3.079 0,1.926 1.483,3.187 3.491,3.187 2.053,0 3.38,-1.27 3.38,-3.07"
             inkscape:connector-curvature="0" /></g><g
           transform="translate(387.5117,224.6049)"
           id="g152"><path
             id="path154"
             style="fill:#231f20;fill-opacity:1;fill-rule:nonzero;stroke:none"
             d="M 0,0 V 6.068 H 1.06 L 3.469,2.998 C 4.026,2.287 4.462,1.647 4.818,1.026 L 4.841,1.035 C 4.752,1.846 4.729,2.584 4.729,3.529 V 6.068 H 5.644 V 0 H 4.662 L 2.275,3.079 C 1.751,3.754 1.249,4.447 0.87,5.104 L 0.836,5.096 C 0.893,4.33 0.914,3.601 0.914,2.593 V 0 Z"
             inkscape:connector-curvature="0" /></g><g
           transform="translate(365.9374,173.0638)"
           id="g156"><path
             id="path158"
             style="fill:#231f20;fill-opacity:1;fill-rule:nonzero;stroke:none"
             d="M 0,0 -1.227,2.91 C -1.505,3.57 -1.69,4.17 -1.877,4.755 H -1.914 C -2.1,4.155 -2.304,3.54 -2.545,2.925 L -3.771,0 Z M -4.106,-1.02 -5.408,-4.2 H -7.08 l 4.256,10.11 h 1.951 L 3.402,-4.2 H 1.674 l -1.339,3.18 z"
             inkscape:connector-curvature="0" /></g><g
           transform="translate(405.2343,200.5414)"
           id="g160"><path
             id="path162"
             style="fill:#231f20;fill-opacity:1;fill-rule:nonzero;stroke:none"
             d="m 0,0 c 0.315,-0.045 0.78,-0.06 1.356,-0.06 1.673,0 3.216,0.495 3.216,1.965 0,1.38 -1.468,1.95 -3.234,1.95 H 0 Z m 0,4.845 h 1.468 c 1.71,0 2.714,0.72 2.714,1.695 0,1.185 -1.116,1.65 -2.751,1.65 C 0.687,8.19 0.26,8.145 0,8.1 Z m -1.617,4.14 c 0.706,0.12 1.821,0.21 2.955,0.21 C 2.955,9.195 3.996,8.97 4.776,8.46 5.427,8.07 5.817,7.47 5.817,6.675 5.817,5.7 5.018,4.845 3.698,4.455 V 4.425 C 4.888,4.185 6.281,3.39 6.281,1.89 6.281,1.02 5.854,0.36 5.223,-0.135 4.349,-0.78 2.937,-1.08 0.892,-1.08 c -1.116,0 -1.97,0.06 -2.509,0.12 z"
             inkscape:connector-curvature="0" /></g><g
           transform="translate(250.2485,51.7088)"
           id="g164"><path
             id="path166"
             style="fill:#565759;fill-opacity:1;fill-rule:nonzero;stroke:none"
             d="M 0,0 C 0,0.732 -0.009,1.465 0.006,2.197 0.01,2.413 -0.061,2.458 -0.259,2.451 -0.662,2.437 -1.066,2.457 -1.469,2.443 -1.676,2.435 -1.647,2.557 -1.654,2.685 -1.661,2.828 -1.635,2.9 -1.463,2.899 -0.312,2.892 0.839,2.891 1.989,2.9 2.184,2.901 2.166,2.796 2.163,2.674 2.161,2.557 2.196,2.436 1.994,2.443 1.569,2.457 1.142,2.439 0.717,2.451 0.545,2.455 0.505,2.395 0.505,2.232 0.511,0.737 0.509,-0.757 0.507,-2.252 0.506,-2.327 0.553,-2.443 0.458,-2.472 0.325,-2.514 0.174,-2.513 0.04,-2.471 -0.03,-2.449 0.001,-2.351 0.001,-2.287 -0.001,-1.524 0,-0.762 0,0"
             inkscape:connector-curvature="0" /></g><g
           transform="translate(248.3896,49.4497)"
           id="g168"><path
             id="path170"
             style="fill:#565759;fill-opacity:1;fill-rule:nonzero;stroke:none"
             d="m 0,0 c -0.006,-0.157 -0.018,-0.237 -0.215,-0.236 -1.038,0.011 -2.078,0.01 -3.117,0.001 -0.182,-0.001 -0.224,0.055 -0.222,0.229 0.008,0.822 0.003,1.645 0.003,2.467 0,0.83 0.004,1.66 -0.002,2.489 -0.002,0.151 0.033,0.209 0.197,0.208 1.017,-0.007 2.033,-0.008 3.05,10e-4 0.192,0.001 0.193,-0.089 0.197,-0.232 0.004,-0.155 -0.022,-0.228 -0.205,-0.225 -0.837,0.009 -1.674,0 -2.511,0.007 -0.173,0.002 -0.235,-0.04 -0.23,-0.224 0.012,-0.5 0.011,-1.001 0,-1.502 C -3.059,2.809 -2.996,2.771 -2.835,2.772 -2.072,2.78 -1.31,2.77 -0.547,2.781 -0.366,2.783 -0.32,2.728 -0.323,2.553 -0.325,2.387 -0.355,2.32 -0.543,2.323 -1.306,2.334 -2.068,2.322 -2.831,2.331 -3.012,2.334 -3.058,2.276 -3.055,2.102 c 0.011,-0.553 0.011,-1.107 0,-1.66 -0.003,-0.176 0.046,-0.23 0.226,-0.228 0.867,0.009 1.734,0 2.601,0.008 C -0.056,0.223 0.008,0.182 0,0"
             inkscape:connector-curvature="0" /></g><g
           transform="translate(244.6183,49.2217)"
           id="g172"><path
             id="path174"
             style="fill:#565759;fill-opacity:1;fill-rule:nonzero;stroke:none"
             d="M 0,0 C -0.227,0 -0.41,-0.004 -0.592,0.001 -0.698,0.004 -0.732,0.105 -0.784,0.174 -1.423,1.012 -2.064,1.848 -2.695,2.692 -2.807,2.843 -2.881,2.863 -3.018,2.724 -3.229,2.513 -3.455,2.316 -3.683,2.124 -3.793,2.032 -3.827,1.931 -3.825,1.793 -3.819,1.255 -3.832,0.716 -3.817,0.179 -3.812,-0.03 -3.931,-0.01 -4.058,-0.001 -4.175,0.007 -4.329,-0.07 -4.328,0.171 -4.32,1.853 -4.321,3.534 -4.327,5.216 -4.328,5.439 -4.187,5.38 -4.073,5.38 -3.961,5.379 -3.815,5.441 -3.819,5.217 -3.828,4.425 -3.823,3.632 -3.82,2.84 c 0,-0.068 -0.045,-0.165 0.042,-0.199 0.068,-0.026 0.11,0.061 0.157,0.104 0.858,0.79 1.729,1.566 2.562,2.381 0.28,0.274 0.564,0.268 0.955,0.242 C -0.607,4.91 -1.065,4.494 -1.523,4.078 -1.8,3.827 -2.07,3.568 -2.356,3.328 -2.495,3.212 -2.482,3.134 -2.378,3.004 -1.633,2.077 -0.896,1.146 -0.157,0.215 -0.112,0.159 -0.072,0.099 0,0"
             inkscape:connector-curvature="0" /></g><g
           transform="translate(239.1997,50.6492)"
           id="g176"><path
             id="path178"
             style="fill:#565759;fill-opacity:1;fill-rule:nonzero;stroke:none"
             d="m 0,0 c -0.386,-1.012 -1.104,-1.52 -2.146,-1.52 -1.125,0.001 -1.894,0.533 -2.242,1.61 -0.359,1.113 -0.288,2.177 0.45,3.146 0.829,1.087 3.167,1.26 3.883,-0.568 C -0.021,2.582 0.06,2.463 -0.102,2.447 -0.235,2.434 -0.403,2.218 -0.513,2.488 -0.745,3.057 -1.101,3.502 -1.745,3.609 -2.482,3.732 -3.11,3.529 -3.567,2.915 c -0.481,-0.646 -0.55,-1.39 -0.467,-2.16 0.052,-0.492 0.197,-0.952 0.553,-1.318 0.887,-0.917 2.348,-0.693 2.916,0.446 0.057,0.113 0.113,0.231 0.143,0.353 0.037,0.15 0.116,0.159 0.245,0.123 C 0.108,0.281 0.109,0.286 0,0"
             inkscape:connector-curvature="0" /></g><g
           transform="translate(232.9479,50.3728)"
           id="g180"><path
             id="path182"
             style="fill:#565759;fill-opacity:1;fill-rule:nonzero;stroke:none"
             d="M 0,0 C -0.719,-1.119 -2.356,-1.145 -3.112,-0.05 -3.705,0.809 -3.697,2.308 -3.096,3.163 -2.356,4.216 -0.712,4.182 0,3.099 0.277,2.678 0.403,2.188 0.403,1.538 0.417,0.986 0.301,0.468 0,0 M 0.93,1.779 C 0.835,3.242 0.07,4.148 -1.261,4.3 -2.588,4.452 -3.605,3.785 -3.953,2.498 -4.11,1.918 -4.121,1.327 -3.992,0.743 c 0.2,-0.908 0.685,-1.606 1.614,-1.867 0.928,-0.26 1.818,-0.164 2.547,0.544 0.592,0.575 0.754,1.321 0.762,2.113 0,0.082 0.005,0.164 -0.001,0.246"
             inkscape:connector-curvature="0" /></g><g
           transform="translate(230.8505,60.7703)"
           id="g184"><path
             id="path186"
             style="fill:#df2025;fill-opacity:1;fill-rule:nonzero;stroke:none"
             d="M 0,0 C -0.054,0.082 -0.069,0.144 0.025,0.226 0.824,0.925 1.618,1.628 2.409,2.336 2.512,2.428 2.551,2.407 2.615,2.301 2.85,1.908 3.091,1.519 3.336,1.133 3.392,1.043 3.386,0.996 3.292,0.946 3.195,0.894 3.106,0.827 3.014,0.767 2.232,0.284 1.449,-0.195 0.672,-0.684 0.545,-0.764 0.49,-0.744 0.417,-0.624 0.287,-0.411 0.14,-0.207 0,0"
             inkscape:connector-curvature="0" /></g><g
           transform="translate(228.19,66.2497)"
           id="g188"><path
             id="path190"
             style="fill:#df2025;fill-opacity:1;fill-rule:nonzero;stroke:none"
             d="M 0,0 C 0.021,-0.003 0.043,-0.007 0.064,-0.01 0.1,-0.037 0.139,-0.041 0.181,-0.027 0.203,-0.031 0.224,-0.035 0.246,-0.039 0.302,-0.073 0.361,-0.074 0.423,-0.062 0.444,-0.065 0.465,-0.069 0.486,-0.072 0.522,-0.1 0.562,-0.102 0.604,-0.089 0.625,-0.093 0.647,-0.097 0.668,-0.101 0.714,-0.13 0.764,-0.131 0.815,-0.118 0.836,-0.122 0.858,-0.126 0.88,-0.13 0.94,-0.185 0.901,-0.242 0.881,-0.296 0.811,-0.49 0.739,-0.683 0.668,-0.876 0.348,-1.743 0.028,-2.61 -0.291,-3.477 c -0.028,-0.077 -0.047,-0.159 -0.161,-0.135 -0.231,0.05 -0.462,0.097 -0.693,0.143 -0.077,0.015 -0.094,0.053 -0.083,0.128 0.105,0.679 0.207,1.359 0.309,2.04 0.05,0.336 0.097,0.674 0.145,1.011 0.004,0.021 0.008,0.043 0.012,0.064 0.027,0.036 0.031,0.075 0.017,0.117 0.004,0.022 0.007,0.043 0.011,0.065 0.02,0.119 0.088,0.146 0.197,0.108 C -0.502,0.052 -0.461,0.06 -0.422,0.059 -0.401,0.056 -0.38,0.053 -0.358,0.05 -0.322,0.025 -0.283,0.021 -0.242,0.036 -0.21,0.03 -0.179,0.025 -0.147,0.019 -0.101,-0.011 -0.052,-0.014 0,0"
             inkscape:connector-curvature="0" /></g><g
           transform="translate(229.2223,62.1892)"
           id="g192"><path
             id="path194"
             style="fill:#df2025;fill-opacity:1;fill-rule:nonzero;stroke:none"
             d="M 0,0 C -0.026,0.073 0.021,0.126 0.053,0.181 0.602,1.118 1.153,2.054 1.7,2.992 1.754,3.084 1.793,3.112 1.892,3.041 2.231,2.797 2.576,2.562 2.922,2.329 3.003,2.274 3.022,2.234 2.95,2.155 2.853,2.047 2.767,1.929 2.676,1.816 2.636,1.772 2.594,1.729 2.555,1.683 1.988,1.005 1.42,0.328 0.856,-0.353 0.787,-0.436 0.733,-0.448 0.643,-0.39 0.432,-0.255 0.215,-0.129 0,0"
             inkscape:connector-curvature="0" /></g><g
           transform="translate(223.5947,56.1305)"
           id="g196"><path
             id="path198"
             style="fill:#df2025;fill-opacity:1;fill-rule:nonzero;stroke:none"
             d="m 0,0 0.001,-0.01 c 0.01,-0.017 0.02,-0.033 0.029,-0.05 l 0.001,-0.011 c 0.01,-0.016 0.02,-0.033 0.03,-0.049 V -0.131 C 0.062,-0.164 0.07,-0.194 0.1,-0.214 0.107,-0.229 0.115,-0.244 0.122,-0.258 L 0.119,-0.269 0.13,-0.273 C 0.136,-0.286 0.143,-0.299 0.15,-0.312 0.151,-0.359 0.173,-0.396 0.211,-0.423 0.438,-0.882 0.661,-1.342 0.891,-1.799 1.693,-3.398 2.495,-4.996 3.305,-6.591 3.375,-6.73 3.368,-6.796 3.214,-6.837 3.157,-6.851 3.106,-6.887 3.052,-6.914 3.037,-6.923 3.021,-6.933 3.005,-6.943 2.992,-6.946 2.979,-6.95 2.965,-6.953 2.743,-7.047 2.521,-7.14 2.299,-7.234 2.113,-7.312 2.112,-7.313 2.024,-7.132 c -1.334,2.718 -2.667,5.436 -4.001,8.153 -0.281,0.573 -0.566,1.144 -0.85,1.716 -0.005,0.019 -0.008,0.039 -0.017,0.057 -0.125,0.264 -0.125,0.264 0.145,0.393 1.221,0.58 2.444,1.157 3.663,1.742 0.371,0.178 0.721,0.398 1.12,0.518 C 4.255,6.098 6.572,4.733 6.879,2.479 7.131,0.631 6.169,-0.548 6.166,-0.584 v 0 C 6.151,-0.596 6.132,-0.606 6.12,-0.622 5.519,-1.399 4.727,-1.912 3.831,-2.286 3.716,-2.334 3.639,-2.318 3.55,-2.238 3.389,-2.094 3.219,-1.96 3.053,-1.823 2.213,-1.128 1.374,-0.433 0.532,0.259 0.445,0.33 0.42,0.392 0.461,0.502 0.59,0.839 0.71,1.181 0.828,1.523 0.957,1.897 1.109,2.264 1.215,2.646 1.22,2.655 1.423,3.196 1.423,3.196 1.434,3.205 1.445,3.214 1.456,3.222 2.048,3.222 3.791,3.24 4.07,3.237 4.13,3.236 4.192,3.248 4.235,3.191 4.235,3.16 4.236,2.13 4.235,1.885 4.065,1.879 3.895,1.867 3.725,1.866 3.331,1.863 2.936,1.865 2.541,1.865 2.475,1.865 2.409,1.873 2.388,1.783 2.351,1.628 2.309,1.474 2.27,1.32 2.25,1.303 2.119,0.796 2.079,0.688 2.043,0.591 2.071,0.532 2.154,0.474 2.645,0.132 3.131,-0.216 3.619,-0.56 c 0.344,-0.243 0.349,-0.247 0.663,0.027 0.31,0.272 0.959,1.195 0.956,1.201 V 0.669 C 5.258,0.697 5.281,0.723 5.296,0.754 5.719,1.608 5.594,2.422 5.104,3.203 4.683,3.876 4.065,4.206 3.274,4.204 2.711,4.202 2.181,4.052 1.681,3.798 0.832,3.37 -0.016,2.941 -0.859,2.503 -1.264,2.293 -1.211,2.413 -1.015,1.991 -1.011,1.982 -1.002,1.977 -0.995,1.969 Z"
             inkscape:connector-curvature="0" /></g><g
           transform="translate(220.5854,50.2408)"
           id="g200"><path
             id="path202"
             style="fill:#565759;fill-opacity:1;fill-rule:nonzero;stroke:none"
             d="M 0,0 C -0.756,-0.985 -2.273,-0.958 -2.996,0.049 -3.621,0.92 -3.594,2.462 -2.978,3.339 -2.292,4.314 -0.376,4.401 0.26,2.933 0.436,2.527 0.504,2.103 0.501,1.665 0.502,1.059 0.376,0.49 0,0 M 1.019,1.978 C 0.929,3.267 0.198,4.305 -1.167,4.436 -2.354,4.55 -3.369,4.058 -3.803,2.824 -3.933,2.453 -3.981,2.068 -3.964,1.676 c 0,-0.127 -0.009,-0.255 0.002,-0.381 0.101,-1.196 0.804,-2.252 2.159,-2.389 1.276,-0.128 2.32,0.449 2.697,1.739 0.127,0.437 0.157,0.883 0.125,1.333"
             inkscape:connector-curvature="0" /></g><g
           transform="translate(216.474,49.4452)"
           id="g204"><path
             id="path206"
             style="fill:#565759;fill-opacity:1;fill-rule:nonzero;stroke:none"
             d="m 0,0 c -0.003,-0.171 -0.039,-0.232 -0.224,-0.23 -1.039,0.009 -2.079,0.008 -3.118,0 -0.17,-0.001 -0.215,0.046 -0.213,0.213 0.008,0.83 0.003,1.66 0.003,2.491 0,0.822 0.004,1.645 -0.002,2.467 -0.002,0.154 0.021,0.224 0.203,0.223 1.01,-0.01 2.02,-0.01 3.029,0 C -0.137,5.165 -0.12,5.091 -0.118,4.94 -0.117,4.778 -0.14,4.703 -0.334,4.705 -1.164,4.717 -1.994,4.706 -2.825,4.714 -2.996,4.716 -3.059,4.679 -3.054,4.493 -3.04,3.985 -3.044,3.476 -3.052,2.968 -3.054,2.82 -3.009,2.776 -2.861,2.777 c 0.77,0.007 1.54,-0.004 2.31,0.008 0.198,0.004 0.212,-0.08 0.214,-0.237 C -0.334,2.39 -0.366,2.325 -0.545,2.328 -1.3,2.338 -2.056,2.327 -2.811,2.336 -2.989,2.338 -3.059,2.302 -3.054,2.106 c 0.014,-0.553 0.012,-1.107 10e-4,-1.66 -0.004,-0.175 0.04,-0.23 0.223,-0.228 0.867,0.01 1.735,0 2.602,0.009 C -0.049,0.228 0.002,0.178 0,0"
             inkscape:connector-curvature="0" /></g><g
           transform="translate(212.2768,50.0726)"
           id="g208"><path
             id="path210"
             style="fill:#565759;fill-opacity:1;fill-rule:nonzero;stroke:none"
             d="m 0,0 c 0,-0.092 -0.005,-0.172 -0.095,-0.233 -0.998,-0.674 -2.076,-0.941 -3.231,-0.517 -0.989,0.364 -1.518,1.124 -1.6,2.179 -0.038,0.495 -0.01,0.988 0.147,1.464 0.433,1.316 1.564,1.834 2.858,1.709 C -1.07,4.519 -0.438,4.128 -0.137,3.291 -0.103,3.197 -0.061,3.084 -0.216,3.077 -0.348,3.071 -0.511,2.847 -0.613,3.095 -0.943,3.907 -1.556,4.253 -2.412,4.217 -3.236,4.183 -3.829,3.796 -4.18,3.051 c -0.443,-0.94 -0.276,-2.29 0.356,-2.959 0.612,-0.648 1.373,-0.725 2.191,-0.563 0.364,0.072 0.693,0.23 1.003,0.431 0.099,0.063 0.141,0.139 0.138,0.258 -0.007,0.328 -0.009,0.658 0.001,0.986 0.004,0.152 -0.053,0.191 -0.196,0.189 C -1.128,1.386 -1.569,1.4 -2.01,1.386 -2.199,1.38 -2.211,1.466 -2.209,1.613 c 0.002,0.143 0.003,0.241 0.196,0.231 0.306,-0.017 0.613,-0.005 0.92,-0.005 0.299,0 0.598,-0.008 0.896,0.003 C -0.035,1.848 0.004,1.79 0.002,1.637 -0.005,1.091 -0.001,0.546 0,0"
             inkscape:connector-curvature="0" /></g><g
           transform="translate(205.8077,50.4159)"
           id="g212"><path
             id="path214"
             style="fill:#565759;fill-opacity:1;fill-rule:nonzero;stroke:none"
             d="m 0,0 c -0.739,-1.206 -2.508,-1.212 -3.2,0.02 -0.547,0.973 -0.544,2.006 0.008,2.977 0.668,1.178 2.414,1.196 3.161,0.064 C 0.28,2.588 0.386,2.059 0.377,1.484 0.39,0.966 0.282,0.46 0,0 M 0.903,1.741 C 0.805,3.197 0.05,4.094 -1.271,4.254 -2.605,4.416 -3.635,3.744 -3.981,2.45 -4.137,1.869 -4.148,1.279 -4.018,0.695 c 0.202,-0.908 0.689,-1.606 1.618,-1.864 0.928,-0.257 1.818,-0.16 2.545,0.55 0.591,0.575 0.751,1.322 0.768,2.134 -0.002,0.062 -0.004,0.144 -0.01,0.226"
             inkscape:connector-curvature="0" /></g><g
           transform="translate(201.7927,49.4384)"
           id="g216"><path
             id="path218"
             style="fill:#565759;fill-opacity:1;fill-rule:nonzero;stroke:none"
             d="m 0,0 c -0.003,-0.177 -0.051,-0.225 -0.228,-0.223 -1.032,0.008 -2.063,0.009 -3.094,-0.001 -0.197,-0.002 -0.232,0.066 -0.23,0.244 0.008,0.822 0.003,1.644 0.003,2.466 0,0.822 0.005,1.644 -0.003,2.467 -0.002,0.163 0.037,0.218 0.21,0.217 1.009,-0.008 2.019,-0.011 3.027,0.001 0.207,0.003 0.201,-0.092 0.208,-0.241 0.006,-0.161 -0.032,-0.219 -0.208,-0.218 -0.837,0.01 -1.674,0 -2.511,0.009 C -3.005,4.723 -3.055,4.669 -3.051,4.494 -3.04,4.001 -3.038,3.508 -3.052,3.015 -3.057,2.819 -2.987,2.781 -2.808,2.784 -2.054,2.792 -1.298,2.78 -0.543,2.793 -0.35,2.796 -0.33,2.721 -0.327,2.56 -0.323,2.386 -0.369,2.331 -0.55,2.334 -1.313,2.345 -2.075,2.334 -2.837,2.343 -3.007,2.344 -3.053,2.293 -3.051,2.127 -3.041,1.567 -3.04,1.006 -3.052,0.446 -3.056,0.26 -2.988,0.224 -2.82,0.226 -1.96,0.233 -1.1,0.224 -0.241,0.233 -0.057,0.236 0.003,0.191 0,0"
             inkscape:connector-curvature="0" /></g><g
           transform="translate(197.6158,49.4223)"
           id="g220"><path
             id="path222"
             style="fill:#565759;fill-opacity:1;fill-rule:nonzero;stroke:none"
             d="M 0,0 C 0,-0.149 -0.03,-0.203 -0.194,-0.21 -0.432,-0.22 -0.581,-0.153 -0.722,0.058 -1.612,1.397 -2.52,2.724 -3.423,4.053 -3.477,4.132 -3.516,4.224 -3.6,4.277 -3.671,4.247 -3.645,4.189 -3.644,4.14 c 0.009,-1.361 0.015,-2.721 0.033,-4.082 0.002,-0.198 -0.04,-0.266 -0.255,-0.271 -0.235,-0.005 -0.243,0.101 -0.242,0.279 0.004,1.616 10e-4,3.231 0.006,4.846 0,0.089 -0.072,0.249 0.08,0.258 0.161,0.009 0.356,0.1 0.488,-0.102 0.263,-0.4 0.536,-0.793 0.804,-1.19 0.697,-1.027 1.392,-2.055 2.09,-3.081 0.04,-0.058 0.061,-0.138 0.173,-0.163 0,0.385 0.003,0.761 -0.001,1.137 C -0.477,2.84 -0.482,3.909 -0.505,4.978 -0.511,5.21 -0.385,5.18 -0.241,5.184 -0.093,5.187 0.004,5.19 0.003,4.98 -0.007,3.32 -0.004,1.66 0,0"
             inkscape:connector-curvature="0" /></g><g
           transform="translate(316.7554,241.1445)"
           id="g224"><path
             id="path226"
             style="fill:#e8222e;fill-opacity:1;fill-rule:nonzero;stroke:none"
             d="m 0,0 c -0.336,-0.024 -0.669,-0.004 -1.003,-0.004 l -0.001,-0.007 c -0.306,0 -0.61,0.01 -0.917,-0.003 -0.253,-0.011 -0.366,0.065 -0.317,0.342 0.086,0.479 0.154,0.96 0.215,1.439 0.031,0.243 0.139,0.337 0.382,0.332 0.638,-0.01 1.282,0.013 1.918,-0.01 C 0.954,2.065 1.277,1.69 1.198,1.077 1.11,0.402 0.732,0.052 0,0 m 1.534,-3.208 c -0.256,0.892 -0.19,1.938 -1.003,2.614 0.104,0.061 0.154,0.096 0.207,0.12 0.894,0.409 1.315,0.998 1.322,1.847 0.006,0.793 -0.382,1.225 -1.32,1.35 -1.019,0.137 -2.084,0.03 -3.124,0.059 -0.298,0.008 -0.294,-0.197 -0.322,-0.386 -0.268,-1.8 -0.53,-3.601 -0.809,-5.402 -0.047,-0.299 0.022,-0.4 0.331,-0.406 0.33,-0.004 0.456,0.102 0.476,0.426 0.016,0.274 0.066,0.552 0.12,0.827 0.088,0.446 -0.041,1.016 0.283,1.305 0.348,0.311 0.896,0.094 1.355,0.103 0.755,0.014 1.174,-0.327 1.334,-1.038 0.095,-0.421 0.172,-0.849 0.26,-1.273 0.06,-0.288 0.518,-0.471 0.8,-0.325 0.084,0.043 0.113,0.105 0.09,0.179"
             inkscape:connector-curvature="0" /></g><g
           transform="translate(307.6128,238.3305)"
           id="g228"><path
             id="path230"
             style="fill:#e8222e;fill-opacity:1;fill-rule:nonzero;stroke:none"
             d="m 0,0 c -0.994,0.037 -1.657,0.8 -1.652,1.912 10e-4,0.2 0.026,0.405 0.033,0.504 0.092,0.605 0.236,1.092 0.546,1.536 0.55,0.785 1.279,1.107 2.15,1.057 C 1.876,4.962 2.369,4.548 2.597,3.831 2.807,3.174 2.721,2.475 2.484,1.781 2.08,0.599 1.166,-0.042 0,0 m 1.033,5.686 c -1.792,0.002 -3.186,-1.278 -3.47,-3.183 -0.279,-1.879 0.74,-3.18 2.489,-3.18 1.77,0 3.149,1.271 3.435,3.166 0.289,1.914 -0.695,3.195 -2.454,3.197"
             inkscape:connector-curvature="0" /></g><g
           transform="translate(299.2643,240.9326)"
           id="g232"><path
             id="path234"
             style="fill:#e8222e;fill-opacity:1;fill-rule:nonzero;stroke:none"
             d="M 0,0 C 0.134,0.9 0.281,1.801 0.395,2.701 0.435,3.022 0.569,3.084 0.858,3.089 1.169,3.095 1.238,2.988 1.191,2.688 0.951,1.163 0.744,-0.362 0.497,-1.887 0.433,-2.278 0.546,-2.388 0.924,-2.375 c 0.729,0.025 1.452,-0.004 2.18,0.012 0.3,0.007 0.349,-0.118 0.309,-0.389 -0.038,-0.262 -0.134,-0.357 -0.403,-0.354 -1.044,0.012 -2.089,0.013 -3.137,0 -0.279,-0.004 -0.326,0.109 -0.285,0.361 C -0.266,-1.83 -0.136,-0.915 0,0"
             inkscape:connector-curvature="0" /></g><g
           transform="translate(295.1642,239.4055)"
           id="g236"><path
             id="path238"
             style="fill:#e8222e;fill-opacity:1;fill-rule:nonzero;stroke:none"
             d="m 0,0 c -0.479,-0.737 -1.12,-1.148 -1.968,-1.166 -0.858,-0.017 -1.454,0.328 -1.716,1.094 -0.318,0.929 -0.173,1.889 0.403,2.821 0.522,0.843 1.474,1.245 2.43,1.077 C -0.017,3.68 0.542,2.909 0.525,1.92 0.522,1.733 0.496,1.544 0.48,1.355 0.416,0.882 0.275,0.425 0,0 M 1.329,2.324 C 1.171,3.935 -0.185,4.833 -1.859,4.47 -3.34,4.15 -4.372,2.977 -4.611,1.336 -4.626,1.235 -4.646,1.133 -4.656,1.031 c -0.125,-1.301 0.501,-2.37 1.601,-2.741 1.14,-0.385 2.492,-0.029 3.367,0.926 0.854,0.931 1.125,1.999 1.017,3.108"
             inkscape:connector-curvature="0" /></g><g
           transform="translate(285.653,237.6459)"
           id="g240"><path
             id="path242"
             style="fill:#e8222e;fill-opacity:1;fill-rule:nonzero;stroke:none"
             d="M 0,0 C -1.445,-0.003 -2.359,0.8 -2.429,2.222 -2.496,3.585 -2.18,4.881 -0.859,5.827 0.184,6.575 1.716,6.556 2.573,5.844 2.84,5.623 3.029,5.342 3.108,4.997 3.149,4.819 3.329,4.595 3.039,4.424 2.771,4.266 2.39,4.443 2.323,4.722 2.177,5.333 1.747,5.616 1.128,5.676 0.323,5.755 -0.428,5.54 -0.941,4.789 -1.671,3.719 -1.835,2.599 -1.404,1.535 -1.05,0.658 0.213,0.375 1.153,0.897 1.479,1.077 1.714,1.336 1.869,1.67 2.021,1.996 2.405,2.161 2.683,2.028 2.871,1.939 2.751,1.781 2.704,1.653 2.366,0.733 1.405,0.061 0.349,0.001 0.232,-0.006 0.116,0 0,0"
             inkscape:connector-curvature="0" /></g></g></g></g></svg>