<?xml version="1.0" encoding="UTF-8" standalone="no"?>
<!-- Generator: Adobe Illustrator 16.0.3, SVG Export Plug-In . SVG Version: 6.00 Build 0)  -->

<svg
   xmlns:dc="http://purl.org/dc/elements/1.1/"
   xmlns:cc="http://creativecommons.org/ns#"
   xmlns:rdf="http://www.w3.org/1999/02/22-rdf-syntax-ns#"
   xmlns:svg="http://www.w3.org/2000/svg"
   xmlns="http://www.w3.org/2000/svg"
   xmlns:sodipodi="http://sodipodi.sourceforge.net/DTD/sodipodi-0.dtd"
   xmlns:inkscape="http://www.inkscape.org/namespaces/inkscape"
   version="1.1"
   id="Ebene_2"
   x="0px"
   y="0px"
   width="566.92902"
   height="57.89925"
   viewBox="0 0 566.929 57.899252"
   enable-background="new 0 0 566.929 77.199"
   xml:space="preserve"
   sodipodi:docname="logo.svg"
   inkscape:version="0.92.2 (5c3e80d, 2017-08-06)"><metadata
     id="metadata31"><rdf:RDF><cc:Work
         rdf:about=""><dc:format>image/svg+xml</dc:format><dc:type
           rdf:resource="http://purl.org/dc/dcmitype/StillImage" /><dc:title></dc:title></cc:Work></rdf:RDF></metadata><defs
     id="defs29" /><sodipodi:namedview
     pagecolor="#ffffff"
     bordercolor="#666666"
     borderopacity="1"
     objecttolerance="10"
     gridtolerance="10"
     guidetolerance="10"
     inkscape:pageopacity="0"
     inkscape:pageshadow="2"
     inkscape:window-width="1920"
     inkscape:window-height="1017"
     id="namedview27"
     showgrid="false"
     fit-margin-top="0"
     fit-margin-left="0"
     fit-margin-right="0"
     fit-margin-bottom="0"
     inkscape:zoom="0.61559735"
     inkscape:cx="283.46451"
     inkscape:cy="38.599501"
     inkscape:window-x="-8"
     inkscape:window-y="-8"
     inkscape:window-maximized="1"
     inkscape:current-layer="Ebene_2" /><g
     id="g24"
     transform="scale(1,0.75)"><g
       id="g10"><path
         d="m 76.534,26.614 -1.553,-0.719 c 0.097,-0.32 0.194,-0.719 0.194,-1.119 0,-1.039 -9.127,-6.633 -24.953,-6.633 -15.146,0 -21.651,3.836 -21.651,8.79 0,13.104 57.186,-6.072 57.186,22.854 0,10.548 -12.428,18.699 -37.283,18.699 -23.689,0 -30.486,-6.233 -32.719,-6.233 -0.583,0 -0.874,0.398 -1.359,0.639 l -1.262,-0.24 8.058,-13.585 1.554,0.639 c 0,0.322 -0.195,0.642 -0.195,1.28 0,4.716 12.525,8.069 24.953,8.069 17.671,0 23.69,-4.153 23.69,-8.55 0,-15.66 -56.41,3.755 -56.41,-22.771 0,-13.425 17.185,-19.019 36.021,-19.019 16.894,0 28.739,6.073 29.904,6.073 1.262,0 1.456,-0.319 1.748,-0.559 l 1.553,0.399 z"
         id="path2"
         inkscape:connector-curvature="0" /><path
         d="m 93.229,66.567 c 2.136,0 2.524,-0.639 2.524,-2.398 V 13.03 c 0,-1.758 -0.389,-2.397 -2.524,-2.397 V 9.514 h 63.012 c 2.33,0 3.301,-0.64 3.301,-1.758 h 1.359 v 13.265 h -1.359 c 0,-1.438 -0.971,-2.077 -3.301,-2.077 H 109.54 v 14.224 h 30.487 c 2.33,0 3.301,-0.64 3.301,-2.078 h 1.359 v 13.422 h -1.359 c 0,-0.639 -0.194,-1.118 -0.777,-1.438 -0.485,-0.319 -1.359,-0.48 -2.524,-0.48 H 109.54 v 15.664 h 47.575 c 2.33,0 3.301,-0.641 3.301,-1.918 h 1.359 v 13.104 h -1.359 c 0,-1.119 -0.971,-1.758 -3.301,-1.758 H 93.229 Z"
         id="path4"
         inkscape:connector-curvature="0" /><path
         d="m 247.888,37.002 v 1.119 c -0.971,0.16 -1.845,0.799 -1.845,2.557 v 15.741 c 0,1.279 0.486,1.757 1.748,1.997 v 1.119 c -6.117,2.876 -21.069,8.951 -37.866,8.951 -22.331,0 -41.943,-9.112 -41.943,-29.886 0,-20.776 22.913,-29.886 43.108,-29.886 7.962,0 15.535,1.518 21.069,2.957 5.146,1.838 8.932,3.277 9.612,3.277 0.874,0 1.748,-0.4 2.136,-0.879 l 1.359,0.479 -9.417,13.104 -1.36,-0.719 c 0.097,-0.319 0.194,-0.799 0.194,-1.358 0,-2.478 -10.485,-7.432 -23.398,-7.432 -16.311,0 -29.515,6.633 -29.515,20.138 0,14.143 13.204,20.773 28.156,20.773 12.234,0 19.418,-3.436 22.331,-5.193 V 47.23 h -16.699 c -1.942,0 -3.107,0.799 -3.107,1.916 h -1.36 V 35.085 h 1.36 c 0,1.118 1.165,1.917 3.107,1.917 z"
         id="path6"
         inkscape:connector-curvature="0" /><path
         d="m 252.736,67.687 v -1.119 c 1.748,-0.079 2.33,-0.479 3.689,-3.037 l 26.506,-49.062 c 0.485,-0.799 1.067,-1.678 1.067,-2.397 0,-0.879 -0.775,-1.279 -2.039,-1.438 v -1.12 h 21.167 v 1.119 c -1.456,0.16 -2.04,0.639 -2.04,1.199 0,0.639 0.389,1.278 0.874,2.078 l 28.156,49.621 c 1.359,2.478 1.748,3.037 3.786,3.037 v 1.119 h -19.32 v -1.119 c 1.263,0 1.748,-0.4 1.748,-0.799 0,-0.879 -0.874,-1.998 -7.38,-13.425 h -33.302 c -5.631,10.387 -7.087,11.986 -7.087,13.025 0,0.719 0.582,1.119 1.456,1.198 v 1.119 H 252.736 Z M 303.321,43.234 291.67,22.299 280.213,43.234 Z"
         id="path8"
         inkscape:connector-curvature="0" /></g><g
       id="g14"><path
         d="M 546.461,77.199 H 0 V 0 H 546.461 Z M 4.917,72.282 H 541.544 V 4.917 H 4.917 Z"
         id="path12"
         inkscape:connector-curvature="0" /></g><g
       id="g20"><polygon
         points="553.137,10.271 553.137,1.424 556.459,1.424 556.459,0 548.183,0 548.183,1.424 551.504,1.424 551.504,10.271 "
         id="polygon16" /><polygon
         points="556.7,0 556.7,10.271 558.262,10.271 558.262,2.599 561.142,10.271 562.487,10.271 565.366,2.602 565.366,10.271 566.929,10.271 566.929,0 564.854,0 561.807,8.09 558.774,0 "
         id="polygon18" /></g><path
       d="M 350.736,9.514 V 67.686 H 537.592 V 9.514 Z m 7.921,40.835 c -1.553,-10.357 32.851,-24.162 77.67,-31.437 -1.011,0.261 -2.969,0.762 -2.969,0.762 0,0 -4.404,1.076 -5.622,1.374 -22.864,5.587 -38.882,15.652 -37.545,24.577 1.37,9.137 20.469,14.083 44.766,12.392 1.35,-0.095 6.139,-0.325 7.181,-0.372 -44.989,6.179 -81.929,3.064 -83.481,-7.296 z m 112.04,2.238 c -9.931,2.257 -22.345,4.173 -22.345,4.173 V 30.801 l 6.4,21.124 c 0,0 15.242,-2.474 26.844,-7.304 10.084,-4.199 16.339,-9.466 15.917,-15.077 -0.684,-9.115 -20.068,-13.978 -43.999,-12.439 -1.596,0.103 -6.895,0.375 -7.937,0.421 44.981,-6.181 81.917,-3.064 83.471,7.293 1.321,8.81 -23.371,20.109 -58.351,27.768 z"
       id="path22"
       inkscape:connector-curvature="0" /></g></svg>