<?xml version="1.0" encoding="UTF-8" standalone="no"?>
<!-- Generator: Adobe Illustrator 16.0.3, SVG Export Plug-In . SVG Version: 6.00 Build 0)  -->

<svg
   xmlns:dc="http://purl.org/dc/elements/1.1/"
   xmlns:cc="http://creativecommons.org/ns#"
   xmlns:rdf="http://www.w3.org/1999/02/22-rdf-syntax-ns#"
   xmlns:svg="http://www.w3.org/2000/svg"
   xmlns="http://www.w3.org/2000/svg"
   xmlns:sodipodi="http://sodipodi.sourceforge.net/DTD/sodipodi-0.dtd"
   xmlns:inkscape="http://www.inkscape.org/namespaces/inkscape"
   version="1.1"
   id="svg2"
   inkscape:version="0.92.2 (5c3e80d, 2017-08-06)"
   sodipodi:version="0.32"
   sodipodi:docname="logo.svg"
   x="0px"
   y="0px"
   width="566.92706"
   height="73.929596"
   viewBox="0 0 566.92705 73.929598"
   enable-background="new 0 0 566.929 98.574"
   xml:space="preserve"><metadata
     id="metadata15"><rdf:RDF><cc:Work
         rdf:about=""><dc:format>image/svg+xml</dc:format><dc:type
           rdf:resource="http://purl.org/dc/dcmitype/StillImage" /><dc:title></dc:title></cc:Work></rdf:RDF></metadata><defs
     id="defs13" /><sodipodi:namedview
     width="1000px"
     height="200px"
     guidetolerance="10.0"
     id="base"
     gridtolerance="10.0"
     bordercolor="#666666"
     objecttolerance="10.0"
     inkscape:cx="416.63489"
     pagecolor="#ffffff"
     borderopacity="1.0"
     inkscape:cy="-180.96774"
     inkscape:zoom="0.70710678"
     inkscape:window-height="1017"
     inkscape:window-x="-8"
     inkscape:pageopacity="0.0"
     inkscape:window-width="1920"
     inkscape:pageshadow="2"
     inkscape:current-layer="svg2"
     inkscape:window-y="-8"
     showgrid="false"
     fit-margin-top="0"
     fit-margin-left="0"
     fit-margin-right="0"
     fit-margin-bottom="0"
     inkscape:window-maximized="1" /><g
     id="g10"
     transform="matrix(1,0,0,0.75,-9.5978415e-4,-4.8064855e-4)"><polygon
       id="_43443024"
       points="542.313,0.917 566.928,0.917 532.221,54.913 526.586,97.041 504.338,97.041 510.862,48.973 488.614,0.917 512.645,0.917 524.514,28.215 "
       style="fill:#2e3192" /><polygon
       id="_43441624"
       points="283.027,59.066 312.393,59.066 315.362,37.706 286.29,37.706 288.368,22.276 322.182,22.276 325.446,0.917 269.379,0.917 256.029,97.041 311.799,97.041 314.766,75.671 280.951,75.671 "
       style="fill:#2e3192" /><path
       id="_43775888"
       d="m 112.146,49.565 7.416,-19.874 2.375,19.874 z m -8.009,18.987 h 20.172 l 3.563,28.48 h 36.488 l 16.91,-52.213 8.309,52.213 h 19.283 l 21.359,-55.179 3.561,55.179 h 21.359 L 249.207,0.913 H 223.693 L 203.818,51.64 196.103,0.913 H 173.261 L 147.156,79.825 137.365,0.913 h -28.48 l -31.744,79.8 4.154,-31.149 H 42.729 l -2.672,18.987 h 16.912 l -1.188,6.526 c -2.967,1.778 -9.789,2.076 -12.459,2.076 -2.67,0 -22.545,-1.779 -21.656,-23.14 C 22.555,32.655 51.035,12.779 84.854,23.755 L 88.12,3.285 C 65.572,-4.427 6.354,-0.111 0.305,52.828 -3.254,83.977 25.226,98.811 44.211,98.516 55.188,99.11 67.649,94.955 72.098,92.581 l -1.482,4.451 h 22.547 z"
       inkscape:connector-curvature="0"
       style="fill:#2e3192" /><path
       id="_44102912"
       d="m 464.581,0.028 c -15.428,-0.594 -37.678,8.306 -45.094,44.204 -7.416,35.894 12.459,50.431 30.852,52.804 18.396,2.373 44.205,-9.196 48.951,-43.609 C 504.038,19.013 487.125,0.919 464.581,0.028 Z m -2.373,20.47 c 6.229,0 19.578,4.154 16.314,29.071 -3.262,24.92 -18.688,27.887 -24.326,27.293 -5.637,-0.594 -17.207,-4.448 -13.943,-27.293 3.263,-22.841 15.425,-29.368 21.955,-29.071 z"
       inkscape:connector-curvature="0"
       style="fill:#2e3192" /><path
       id="_44104296"
       d="m 370.833,37.706 h 12.461 c 9.197,0 10.977,-5.934 11.271,-8.305 0.297,-2.375 -2.371,-7.122 -7.117,-7.122 h -14.537 z m -5.34,37.971 h 16.912 c 9.195,0 11.271,-7.119 11.566,-9.493 0.299,-2.373 -2.371,-7.118 -7.117,-7.118 H 367.868 Z M 340.575,97.038 353.925,0.92 h 40.938 c 9.793,0 24.031,11.274 22.252,26.403 -1.779,15.13 -6.527,16.02 -9.791,18.393 5.045,4.447 10.088,11.568 8.012,24.918 -2.078,13.352 -13.055,26.403 -32.338,26.403 z"
       inkscape:connector-curvature="0"
       style="fill:#2e3192" /><path
       id="_44106160"
       d="m 538.618,82.498 c -3.66,0 -6.615,2.951 -6.615,6.593 0,3.681 2.953,6.633 6.615,6.633 3.641,0 6.592,-2.952 6.592,-6.633 -0.001,-3.643 -2.954,-6.593 -6.592,-6.593 v -0.907 c 4.15,0 7.498,3.366 7.498,7.5 0,4.172 -3.348,7.538 -7.498,7.538 -4.174,-0.001 -7.539,-3.366 -7.539,-7.538 0,-4.135 3.365,-7.499 7.539,-7.499 z"
       inkscape:connector-curvature="0"
       style="fill:#2e3192" /><path
       id="_42975192"
       d="m 536.84,85.638 h 2.402 c 1.045,0 2.182,0.157 2.182,1.457 0,1.711 -1.828,1.516 -3.01,1.516 L 536.84,88.61 v 0.808 h 1.891 l 2.402,3.878 h 1.219 l -2.539,-3.878 c 1.496,-0.038 2.656,-0.649 2.656,-2.302 0,-0.71 -0.313,-1.457 -0.945,-1.813 -0.627,-0.374 -1.338,-0.413 -2.047,-0.413 h -3.658 v 8.404 h 1.021 z"
       inkscape:connector-curvature="0"
       style="fill:#2e3192" /></g></svg>