<?xml version="1.0" encoding="UTF-8" standalone="no"?>
<svg
   xmlns:dc="http://purl.org/dc/elements/1.1/"
   xmlns:cc="http://creativecommons.org/ns#"
   xmlns:rdf="http://www.w3.org/1999/02/22-rdf-syntax-ns#"
   xmlns:svg="http://www.w3.org/2000/svg"
   xmlns="http://www.w3.org/2000/svg"
   xmlns:sodipodi="http://sodipodi.sourceforge.net/DTD/sodipodi-0.dtd"
   xmlns:inkscape="http://www.inkscape.org/namespaces/inkscape"
   viewBox="0 0 316.0907 161.92032"
   height="161.92032"
   width="316.0907"
   xml:space="preserve"
   version="1.1"
   id="svg2"
   sodipodi:docname="controller.svg"
   inkscape:version="0.92.2 (5c3e80d, 2017-08-06)"><sodipodi:namedview
     pagecolor="#ffffff"
     bordercolor="#666666"
     borderopacity="1"
     objecttolerance="10"
     gridtolerance="10"
     guidetolerance="10"
     inkscape:pageopacity="0"
     inkscape:pageshadow="2"
     inkscape:window-width="1920"
     inkscape:window-height="1017"
     id="namedview83"
     showgrid="false"
     fit-margin-top="0"
     fit-margin-left="0"
     fit-margin-right="0"
     fit-margin-bottom="0"
     inkscape:zoom="1.0931303"
     inkscape:cx="158.04562"
     inkscape:cy="107.94687"
     inkscape:window-x="-8"
     inkscape:window-y="-8"
     inkscape:window-maximized="1"
     inkscape:current-layer="svg2" /><metadata
     id="metadata8"><rdf:RDF><cc:Work
         rdf:about=""><dc:format>image/svg+xml</dc:format><dc:type
           rdf:resource="http://purl.org/dc/dcmitype/StillImage" /><dc:title></dc:title></cc:Work></rdf:RDF></metadata><defs
     id="defs6"><clipPath
       id="clipPath16"
       clipPathUnits="userSpaceOnUse"><path
         id="path18"
         d="M 0,172.715 H 252.873 V 0 H 0 Z"
         inkscape:connector-curvature="0" /></clipPath></defs><g
     transform="matrix(1.25,0,0,-0.9375,0,161.92031)"
     id="g10"><g
       id="g12"><g
         clip-path="url(#clipPath16)"
         id="g14"><g
           transform="translate(188.4402)"
           id="g20"><path
             id="path22"
             style="fill:#242d32;fill-opacity:1;fill-rule:nonzero;stroke:none"
             d="m 0,0 h -123.763 c -42.109,3.803 -63.139,37.722 -64.637,76.413 -1.799,46.484 56.787,96.302 126.396,96.302 69.609,0 128.195,-49.818 126.396,-96.302 C 62.894,37.722 41.864,3.803 -0.245,0"
             inkscape:connector-curvature="0" /></g><g
           transform="translate(126.4363,161.4623)"
           id="g24"><path
             id="path26"
             style="fill:#42494c;fill-opacity:1;fill-rule:nonzero;stroke:none"
             d="m 0,0 c -52.137,0 -113.743,-51.541 -112.396,-86.357 1.122,-28.98 16.307,-54.909 47.847,-57.757 H 64.549 c 31.54,2.848 46.725,28.777 47.847,57.757 C 113.743,-51.541 52.137,0 0,0"
             inkscape:connector-curvature="0" /></g><g
           transform="translate(91.9935,135.4262)"
           id="g28"><path
             id="path30"
             style="fill:none;stroke:#6d7779;stroke-width:2;stroke-linecap:butt;stroke-linejoin:miter;stroke-miterlimit:10;stroke-dasharray:none;stroke-opacity:1"
             d="m 0,0 c -14.599,-11.37 -22.068,-25.633 -17.811,-37.33 6.276,-17.242 35.655,-22.378 65.62,-11.471 29.965,10.906 49.17,33.725 42.894,50.967 -6.276,17.242 -35.655,22.378 -65.62,11.472"
             inkscape:connector-curvature="0" /></g><g
           transform="translate(144.591,112.5428)"
           id="g32"><path
             id="path34"
             style="fill:#c66a56;fill-opacity:1;fill-rule:nonzero;stroke:none"
             d="M 0,0 V 6.673 L -6.281,3.337 Z"
             inkscape:connector-curvature="0" /></g><g
           transform="translate(150.8716,112.69)"
           id="g36"><path
             id="path38"
             style="fill:#c66a56;fill-opacity:1;fill-rule:nonzero;stroke:none"
             d="M 0,0 V 6.673 L -6.281,3.337 Z"
             inkscape:connector-curvature="0" /></g><g
           transform="translate(38.3689,40.0594)"
           id="g40"><path
             id="path42"
             style="fill:#f86745;fill-opacity:1;fill-rule:nonzero;stroke:none"
             d="M 0,0 -13.984,13.984 V 33.761 L 0,47.745 H 19.777 L 33.761,33.761 V 13.984 L 19.777,0 Z"
             inkscape:connector-curvature="0" /></g><g
           transform="translate(38.3689,40.0594)"
           id="g44"><path
             id="path46"
             style="fill:none;stroke:#c66a56;stroke-width:1;stroke-linecap:butt;stroke-linejoin:miter;stroke-miterlimit:10;stroke-dasharray:none;stroke-opacity:1"
             d="M 0,0 V 11.347 L -2.666,14.02 H -13.984"
             inkscape:connector-curvature="0" /></g><g
           transform="translate(72.1299,54.0616)"
           id="g48"><path
             id="path50"
             style="fill:none;stroke:#c66a56;stroke-width:1;stroke-linecap:butt;stroke-linejoin:miter;stroke-miterlimit:10;stroke-dasharray:none;stroke-opacity:1"
             d="M 0,0 H -11.347 L -14.02,-2.666 V -13.984"
             inkscape:connector-curvature="0" /></g><g
           transform="translate(24.3667,73.8204)"
           id="g52"><path
             id="path54"
             style="fill:none;stroke:#c66a56;stroke-width:1;stroke-linecap:butt;stroke-linejoin:miter;stroke-miterlimit:10;stroke-dasharray:none;stroke-opacity:1"
             d="M 0,0 H 11.347 L 14.02,2.666 V 13.984"
             inkscape:connector-curvature="0" /></g><g
           transform="translate(58.1277,87.8226)"
           id="g56"><path
             id="path58"
             style="fill:none;stroke:#c66a56;stroke-width:1;stroke-linecap:butt;stroke-linejoin:miter;stroke-miterlimit:10;stroke-dasharray:none;stroke-opacity:1"
             d="M 0,0 V -11.347 L 2.666,-14.02 H 13.984"
             inkscape:connector-curvature="0" /></g><g
           transform="translate(54.5382,64.2305)"
           id="g60"><path
             id="path62"
             style="fill:#c66a56;fill-opacity:1;fill-rule:nonzero;stroke:none"
             d="m 0,0 c 0,-3.469 -2.812,-6.281 -6.281,-6.281 -3.468,0 -6.28,2.812 -6.28,6.281 0,3.469 2.812,6.281 6.28,6.281 C -2.812,6.281 0,3.469 0,0"
             inkscape:connector-curvature="0" /></g><g
           transform="translate(35.7201,59.157)"
           id="g64"><path
             id="path66"
             style="fill:#c66a56;fill-opacity:1;fill-rule:nonzero;stroke:none"
             d="M 0,0 V 10.147 L -9.55,5.073 Z"
             inkscape:connector-curvature="0" /></g><g
           transform="translate(60.7944,69.304)"
           id="g68"><path
             id="path70"
             style="fill:#c66a56;fill-opacity:1;fill-rule:nonzero;stroke:none"
             d="m 0,0 v -10.147 l 9.55,5.074 z"
             inkscape:connector-curvature="0" /></g><g
           transform="translate(53.3311,51.3945)"
           id="g72"><path
             id="path74"
             style="fill:#c66a56;fill-opacity:1;fill-rule:nonzero;stroke:none"
             d="m 0,0 h -10.147 l 5.074,-9.55 z"
             inkscape:connector-curvature="0" /></g><g
           transform="translate(43.1842,76.4696)"
           id="g76"><path
             id="path78"
             style="fill:#c66a56;fill-opacity:1;fill-rule:nonzero;stroke:none"
             d="M 0,0 H 10.147 L 5.073,9.55 Z"
             inkscape:connector-curvature="0" /></g><g
           transform="translate(198.5222,63.941)"
           id="g80"><path
             id="path82"
             style="fill:#f86745;fill-opacity:1;fill-rule:nonzero;stroke:none"
             d="m 0,0 c 0,-6.937 -5.624,-12.561 -12.561,-12.561 -6.937,0 -12.561,5.624 -12.561,12.561 0,6.937 5.624,12.561 12.561,12.561 C -5.624,12.561 0,6.937 0,0"
             inkscape:connector-curvature="0" /></g><g
           transform="translate(235.0902,64.8233)"
           id="g84"><path
             id="path86"
             style="fill:#f86745;fill-opacity:1;fill-rule:nonzero;stroke:none"
             d="m 0,0 c 0,-6.937 -5.624,-12.561 -12.561,-12.561 -6.937,0 -12.561,5.624 -12.561,12.561 0,6.937 5.624,12.561 12.561,12.561 C -5.624,12.561 0,6.937 0,0"
             inkscape:connector-curvature="0" /></g><path
           id="path88"
           style="fill:#405762;fill-opacity:1;fill-rule:nonzero;stroke:none"
           d="m 225.498,93.038 h -21.303 v 8.628 h 21.303 z"
           inkscape:connector-curvature="0" /><g
           transform="translate(223.8123,100.4508)"
           id="g90"><path
             id="path92"
             style="fill:#ffffff;fill-opacity:1;fill-rule:nonzero;stroke:none"
             d="M 0,0 -2.025,-2.958 0.178,-6.19 h -2.035 l -1.21,1.73 -1.22,-1.734 h -2.021 c 0.055,0.114 2.212,3.236 2.212,3.236 l -0.92,1.279 -3.9,-0.004 c -0.182,-0.015 -0.405,0.041 -0.496,-0.165 -0.032,-0.068 -0.046,-0.168 -0.009,-0.236 0.031,-0.078 0.104,-0.15 0.186,-0.173 l 0.123,-0.009 h 1.561 c 0.724,-0.018 1.393,-0.469 1.707,-1.12 0.278,-0.546 0.237,-1.292 -0.073,-1.811 -0.391,-0.66 -1.088,-1.029 -1.843,-1.002 h -4.342 c 0,0 -0.665,2.399 -0.669,2.403 l -0.67,-2.403 h -1.583 l -0.637,2.413 -0.697,-2.408 h -1.752 c 0,0 1.611,5.798 1.716,6.181 h 1.479 l 0.697,-2.585 0.71,2.585 h 1.451 l 1.243,-4.502 h 2.895 c 0.199,0.01 0.477,-0.045 0.559,0.201 0.032,0.109 0.005,0.223 -0.072,0.3 -0.073,0.064 -0.164,0.082 -0.26,0.082 h -1.556 c -0.738,0.023 -1.47,0.505 -1.743,1.215 -0.296,0.71 -0.123,1.562 0.418,2.111 0.382,0.384 0.837,0.575 1.37,0.597 l 5.107,0.005 1.029,-1.484 L -2.003,0 Z"
             inkscape:connector-curvature="0" /></g><g
           transform="translate(102.9262,33.9185)"
           id="g94"><path
             id="path96"
             style="fill:#c66a56;fill-opacity:1;fill-rule:nonzero;stroke:none"
             d="M 0,0 C 0.446,0.011 0.95,0.035 1.27,0.362 1.361,0.458 1.51,0.651 1.51,0.966 1.499,1.278 1.361,1.472 1.281,1.569 0.892,1.991 0.263,1.943 -0.252,1.943 H -0.995 V 0 H 0 M -3.718,-4.841 V 4.216 H 0.08 C 1.361,4.202 2.597,4.135 3.455,2.983 3.695,2.658 4.027,2.06 4.027,1.058 4.027,-0.202 3.478,-0.961 3.1,-1.315 2.425,-1.991 1.522,-2.059 0.629,-2.101 H -1.03 v -2.74 z"
             inkscape:connector-curvature="0" /></g><g
           transform="translate(111.0721,31.9758)"
           id="g98"><path
             id="path100"
             style="fill:#c66a56;fill-opacity:1;fill-rule:nonzero;stroke:none"
             d="M 0,0 C -0.332,-0.116 -0.675,-0.219 -1.018,-0.334 L -1.27,-0.411 c -0.126,-0.025 -0.515,-0.11 -0.515,-0.597 0,-0.218 0.126,-0.615 0.629,-0.615 0.069,0 0.378,0.029 0.538,0.081 0.458,0.128 0.492,0.425 0.618,0.555 L 0,0 M 0.24,-2.908 0.137,-2.305 C -0.206,-2.574 -0.835,-3.1 -1.968,-3.1 c -0.194,0 -1.041,0.026 -1.624,0.512 -0.252,0.219 -0.687,0.745 -0.687,1.616 0,0.205 0.057,0.556 0.389,0.991 0.469,0.629 1.03,0.799 1.751,0.967 l 1.212,0.151 c 0.138,0.039 0.286,0.077 0.446,0.102 0.035,0.014 0.229,0.04 0.332,0.117 0.103,0.076 0.183,0.372 0.183,0.513 0,0.257 -0.331,0.466 -0.846,0.466 -0.458,0 -0.675,-0.166 -0.79,-0.333 C -1.659,1.913 -1.682,1.836 -1.693,1.63 l -2.3,0.014 c 0.103,0.525 0.206,0.948 0.584,1.384 0.469,0.527 1.212,0.86 2.665,0.86 0.275,0 1.396,0.115 2.22,-0.436 C 1.808,3.233 2.025,2.976 2.174,2.63 2.425,2.091 2.357,1.439 2.357,0.874 V -0.934 C 2.345,-2.062 2.425,-2.266 2.631,-2.908 Z"
             inkscape:connector-curvature="0" /></g><g
           transform="translate(118.2341,29.0607)"
           id="g102"><path
             id="path104"
             style="fill:#c66a56;fill-opacity:1;fill-rule:nonzero;stroke:none"
             d="M 0,0 V 3.208 C 0,2.826 0.103,4.461 -0.24,4.622 -0.355,4.678 -0.572,4.789 -0.835,4.783 -1.133,4.778 -1.464,4.634 -1.579,4.369 -1.705,4.047 -1.75,3.75 -1.739,3.079 V -0.002 H -4.21 v 6.64 h 2.334 l 0.034,-0.771 c 0.32,0.392 0.698,0.899 2.071,0.899 1.007,0 1.773,-0.351 2.082,-1.371 C 2.38,5.138 2.414,4.889 2.437,4.36 V 0 H 0"
             inkscape:connector-curvature="0" /></g><g
           transform="translate(131.9631,33.7801)"
           id="g106"><path
             id="path108"
             style="fill:#c66a56;fill-opacity:1;fill-rule:nonzero;stroke:none"
             d="m 0,0 c -0.046,0.253 -0.229,0.672 -0.858,0.672 -0.275,0 -0.481,-0.075 -0.584,-0.139 -0.057,-0.024 -0.148,-0.19 -0.148,-0.38 0,-0.05 0.045,-0.201 0.194,-0.29 0.092,-0.052 0.309,-0.115 0.561,-0.143 l 0.972,-0.253 c 0.687,-0.174 1.282,-0.296 1.762,-0.777 0.24,-0.228 0.366,-0.523 0.401,-0.643 0.114,-0.343 0.057,-0.612 0.057,-0.726 0,-0.783 -0.378,-1.254 -0.595,-1.457 -0.469,-0.43 -1.213,-0.755 -2.574,-0.755 -1.133,0 -1.842,0.298 -2.266,0.543 -0.903,0.524 -0.949,1.489 -1.006,1.792 l 2.356,0.008 c 0.023,-0.228 0.058,-0.398 0.241,-0.562 0.148,-0.139 0.309,-0.235 0.732,-0.235 0.503,0 0.789,0.242 0.801,0.463 0.011,0.026 0.011,0.204 -0.057,0.292 -0.115,0.19 -0.424,0.27 -0.87,0.384 0,0 -1.373,0.295 -1.476,0.345 -0.309,0.141 -1.556,0.422 -1.556,1.813 0,0.783 0.401,1.2 0.629,1.415 0.424,0.367 1.122,0.708 2.369,0.708 0.274,0 1.441,0.013 2.311,-0.582 C 1.636,1.329 1.831,1.127 1.979,0.887 2.185,0.546 2.22,0.138 2.242,0 H 0"
             inkscape:connector-curvature="0" /></g><g
           transform="translate(138.6331,33.8293)"
           id="g110"><path
             id="path112"
             style="fill:#c66a56;fill-opacity:1;fill-rule:nonzero;stroke:none"
             d="m 0,0 c -0.217,0.204 -0.549,0.245 -0.664,0.245 -0.286,0 -0.492,-0.166 -0.56,-0.216 -0.298,-0.242 -0.515,-0.609 -0.515,-1.434 0,-0.647 0.149,-1.731 1.064,-1.731 0.263,0 0.515,0.069 0.675,0.259 0.217,0.241 0.446,0.677 0.435,1.439 C 0.435,-1.4 0.446,-0.456 0,0 M 1.831,-4.009 C 1.43,-4.415 0.606,-4.948 -0.755,-4.948 c -0.435,0 -1.636,0.025 -2.517,1.066 -0.366,0.444 -0.812,1.181 -0.812,2.502 0,0.229 0,0.75 0.217,1.321 0.492,1.447 1.831,2.107 3.238,2.094 0.377,0 1.556,-0.037 2.402,-0.901 0.424,-0.432 0.961,-1.219 0.95,-2.616 0,-0.342 -0.023,-1.638 -0.892,-2.527"
             inkscape:connector-curvature="0" /></g><path
           id="path114"
           style="fill:#c66a56;fill-opacity:1;fill-rule:nonzero;stroke:none"
           d="m 148.85,38.194 h 2.425 v -1.736 h -2.425 z m 0,-2.474 h 2.425 v -6.671 h -2.425 z"
           inkscape:connector-curvature="0" /><g
           transform="translate(155.9431,33.1691)"
           id="g116"><path
             id="path118"
             style="fill:#c66a56;fill-opacity:1;fill-rule:nonzero;stroke:none"
             d="m 0,0 c -0.183,0.801 -0.572,0.841 -1.007,0.841 -0.354,0 -0.469,-0.12 -0.583,-0.22 -0.309,-0.263 -0.412,-0.589 -0.412,-1.402 0,-0.062 -0.034,-1.149 0.56,-1.562 0.172,-0.113 0.252,-0.12 0.458,-0.12 0.069,0 0.275,-0.007 0.458,0.08 0.24,0.112 0.492,0.318 0.537,0.882 l 2.346,0.019 C 2.334,-1.633 2.242,-2.165 2.014,-2.603 1.43,-3.766 0.24,-4.251 -0.961,-4.251 c -0.492,0 -0.835,0.074 -1.041,0.112 -0.95,0.238 -1.785,0.901 -2.151,1.852 -0.103,0.287 -0.24,0.725 -0.24,1.452 0,0.3 0.011,1.075 0.434,1.851 0.058,0.125 0.252,0.438 0.527,0.725 0.892,0.877 2.219,0.902 2.54,0.902 1.235,0 2.002,-0.464 2.379,-0.814 C 1.602,1.716 1.831,1.414 2.014,1.001 2.162,0.664 2.242,0.363 2.3,0 H 0"
             inkscape:connector-curvature="0" /></g><g
           transform="translate(124.6181,30.3947)"
           id="g120"><path
             id="path122"
             style="fill:#c66a56;fill-opacity:1;fill-rule:nonzero;stroke:none"
             d="m 0,0 c -0.16,-0.051 -0.435,-0.04 -0.503,-0.037 -0.412,0.028 -0.63,0.403 -0.63,0.622 0,0.487 0.389,0.566 0.515,0.591 l 0.263,0.073 C -0.023,1.365 0.32,1.462 0.652,1.578 L 0.664,0.73 C 0.561,0.539 0.446,0.128 0,0 m 3.032,0.612 v 1.804 c 0,0.564 0,1.323 -0.24,1.861 C 2.631,4.623 2.517,4.815 2.185,5.033 1.361,5.584 0.149,5.48 -0.126,5.48 -1.579,5.48 -2.322,5.097 -2.792,4.571 -3.169,4.135 -3.249,3.708 -3.352,3.182 h 2.299 c 0.012,0.206 0.046,0.282 0.092,0.373 0.126,0.166 0.309,0.375 0.766,0.375 C 0.32,3.93 0.652,3.668 0.652,3.412 0.652,3.271 0.641,3.041 0.538,2.964 0.435,2.887 0.172,2.795 0.126,2.782 0.011,2.763 -0.137,2.729 -0.32,2.681 L -1.522,2.528 C -2.242,2.361 -2.803,2.215 -3.272,1.587 -3.615,1.151 -3.615,0.753 -3.615,0.548 c 0,-0.872 0.377,-1.375 0.629,-1.594 0.583,-0.486 1.419,-0.468 1.625,-0.468 1.132,0 1.727,0.498 2.082,0.767 L 0.824,-1.376 H 3.306 C 3.169,-0.94 3.02,-0.713 3.032,0.612"
             inkscape:connector-curvature="0" /></g><g
           transform="translate(145.9209,29.0733)"
           id="g124"><path
             id="path126"
             style="fill:#c66a56;fill-opacity:1;fill-rule:nonzero;stroke:none"
             d="M 0,0 V 3.229 C 0,2.846 0.114,4.461 -0.229,4.623 -0.343,4.677 -0.561,4.789 -0.812,4.783 -1.11,4.778 -1.453,4.634 -1.556,4.369 -1.693,4.047 -1.762,3.827 -1.75,3.157 l -0.023,-3.17 -2.414,0.011 v 6.64 h 2.322 l 0.034,-0.771 c 0.321,0.392 0.698,0.899 2.083,0.899 0.995,0 1.762,-0.423 2.07,-1.443 C 2.391,5.066 2.403,4.898 2.437,4.369 V -0.002 L 0,0"
             inkscape:connector-curvature="0" /></g><path
           id="path128"
           style="fill:#5e676a;fill-opacity:1;fill-rule:nonzero;stroke:none"
           d="M 161.241,103.106 H 94.903 v 3.664 h 66.338 z"
           inkscape:connector-curvature="0" /><g
           transform="translate(159.4092,103.1056)"
           id="g130"><path
             id="path132"
             style="fill:#231f20;fill-opacity:1;fill-rule:nonzero;stroke:none"
             d="m 0,0 h -9.22 c -1.007,0 -1.831,0.824 -1.831,1.832 0,1.007 0.824,1.832 1.831,1.832 H 0 C 1.007,3.664 1.832,2.839 1.832,1.832 1.832,0.824 1.007,0 0,0"
             inkscape:connector-curvature="0" /></g><path
           id="path134"
           style="fill:#5e676a;fill-opacity:1;fill-rule:nonzero;stroke:none"
           d="M 161.241,123.125 H 94.903 v 3.664 h 66.338 z"
           inkscape:connector-curvature="0" /><g
           transform="translate(112.1743,123.1249)"
           id="g136"><path
             id="path138"
             style="fill:#231f20;fill-opacity:1;fill-rule:nonzero;stroke:none"
             d="m 0,0 h -9.22 c -1.007,0 -1.831,0.824 -1.831,1.832 v 0 c 0,1.007 0.824,1.832 1.831,1.832 H 0 c 1.008,0 1.832,-0.825 1.832,-1.832 v 0 C 1.832,0.824 1.008,0 0,0"
             inkscape:connector-curvature="0" /></g><g
           transform="translate(105.9919,112.69)"
           id="g140"><path
             id="path142"
             style="fill:#c66a56;fill-opacity:1;fill-rule:nonzero;stroke:none"
             d="M 0,0 V 6.673 L -6.281,3.337 Z"
             inkscape:connector-curvature="0" /></g><g
           transform="translate(157.1521,112.69)"
           id="g144"><path
             id="path146"
             style="fill:#c66a56;fill-opacity:1;fill-rule:nonzero;stroke:none"
             d="M 0,0 V 6.673 L -6.281,3.337 Z"
             inkscape:connector-curvature="0" /></g><g
           transform="translate(107.0713,116.0265)"
           id="g148"><path
             id="path150"
             style="fill:none;stroke:#c66a56;stroke-width:1;stroke-linecap:butt;stroke-linejoin:miter;stroke-miterlimit:10;stroke-dasharray:none;stroke-opacity:1"
             d="M 0,0 H 29.767"
             inkscape:connector-curvature="0" /></g></g></g><text
       id="text152"
       style="font-style:italic;font-variant:normal;font-weight:normal;font-stretch:normal;font-size:14.91629982px;font-family:Arial;-inkscape-font-specification:Arial-ItalicMT;writing-mode:lr-tb;fill:#c66a56;fill-opacity:1;fill-rule:nonzero;stroke:none"
       transform="matrix(0.85763225,0,0,-1,85.3516,137.125)"><tspan
         id="tspan154"
         y="0"
         x="0 9.949172 21.554054 35.63504 45.584213 56.353783 60.500511 69.3414 79.290573">POWER PAD</tspan></text>
<text
       id="text156"
       style="font-variant:normal;font-weight:bold;font-stretch:normal;font-size:9.42080021px;font-family:Arial;-inkscape-font-specification:Arial-BoldMT;writing-mode:lr-tb;fill:#c66a56;fill-opacity:1;fill-rule:nonzero;stroke:none"
       transform="matrix(1,0,0,-1,182.1768,82.0293)"><tspan
         id="tspan158"
         y="0"
         x="0">B</tspan><tspan
         id="tspan160"
         y="-20.292402"
         x="-95.253708">B</tspan><tspan
         id="tspan162"
         y="-0.52756482"
         x="37.165054">A</tspan><tspan
         id="tspan164"
         y="-39.134003"
         x="-95.253708">A</tspan></text>
</g></svg>