<?xml version="1.0" encoding="UTF-8" standalone="no"?>
<svg
   xmlns:dc="http://purl.org/dc/elements/1.1/"
   xmlns:cc="http://creativecommons.org/ns#"
   xmlns:rdf="http://www.w3.org/1999/02/22-rdf-syntax-ns#"
   xmlns:svg="http://www.w3.org/2000/svg"
   xmlns="http://www.w3.org/2000/svg"
   xmlns:sodipodi="http://sodipodi.sourceforge.net/DTD/sodipodi-0.dtd"
   xmlns:inkscape="http://www.inkscape.org/namespaces/inkscape"
   viewBox="0 0 535.77875 249.10434"
   height="249.10434"
   width="535.77875"
   xml:space="preserve"
   version="1.1"
   id="svg2"
   sodipodi:docname="controller.svg"
   inkscape:version="0.92.2 (5c3e80d, 2017-08-06)"><sodipodi:namedview
     pagecolor="#ffffff"
     bordercolor="#666666"
     borderopacity="1"
     objecttolerance="10"
     gridtolerance="10"
     guidetolerance="10"
     inkscape:pageopacity="0"
     inkscape:pageshadow="2"
     inkscape:window-width="1920"
     inkscape:window-height="1017"
     id="namedview139"
     showgrid="false"
     fit-margin-top="0"
     fit-margin-left="0"
     fit-margin-right="0"
     fit-margin-bottom="0"
     inkscape:zoom="0.65138829"
     inkscape:cx="267.88937"
     inkscape:cy="166.06999"
     inkscape:window-x="-8"
     inkscape:window-y="-8"
     inkscape:window-maximized="1"
     inkscape:current-layer="svg2" /><metadata
     id="metadata8"><rdf:RDF><cc:Work
         rdf:about=""><dc:format>image/svg+xml</dc:format><dc:type
           rdf:resource="http://purl.org/dc/dcmitype/StillImage" /><dc:title></dc:title></cc:Work></rdf:RDF></metadata><defs
     id="defs6"><clipPath
       id="clipPath16"
       clipPathUnits="userSpaceOnUse"><path
         id="path18"
         d="M 0,265.712 H 428.623 V 0 H 0 Z"
         inkscape:connector-curvature="0" /></clipPath></defs><g
     transform="matrix(1.25,0,0,-0.9375,0,249.10434)"
     id="g10"><g
       id="g12"><g
         clip-path="url(#clipPath16)"
         id="g14"><g
           transform="translate(313.9199,251.5383)"
           id="g20"><path
             id="path22"
             style="fill:#666666;fill-opacity:1;fill-rule:nonzero;stroke:none"
             d="M 0,0 C 0,7.795 6.378,14.173 14.173,14.173 H 37.265 C 45.06,14.173 51.438,7.795 51.438,0"
             inkscape:connector-curvature="0" /></g><g
           transform="translate(61.0339,251.2792)"
           id="g24"><path
             id="path26"
             style="fill:#666666;fill-opacity:1;fill-rule:nonzero;stroke:none"
             d="M 0,0 C 0,7.795 6.378,14.173 14.173,14.173 H 37.265 C 45.06,14.173 51.438,7.795 51.438,0"
             inkscape:connector-curvature="0" /></g><g
           transform="translate(123.8625,214.1754)"
           id="g28"><path
             id="path30"
             style="fill:#d1d2d4;fill-opacity:1;fill-rule:nonzero;stroke:none"
             d="m 0,0 c -3.018,19.5 -4.412,29.25 -5.805,36.447 -1.392,7.196 -13.697,10.91 -31.222,10.91 -17.528,0 -29.83,-3.714 -31.223,-10.91 C -69.645,29.25 -71.035,19.5 -74.055,0"
             inkscape:connector-curvature="0" /></g><g
           transform="translate(106.1653,220.5387)"
           id="g32"><path
             id="path34"
             style="fill:#b2b2b2;fill-opacity:1;fill-rule:nonzero;stroke:none"
             d="m 0,0 c -2.727,0 -4.883,-2.211 -4.883,-4.94 v -126.055 c 0,-2.728 2.156,-4.883 4.883,-4.883 h 216.271 c 2.727,0 4.94,2.155 4.94,4.883 V -4.94 c 0,2.729 -2.213,4.94 -4.94,4.94 h -93.783 c -0.484,-0.797 -1.383,-1.331 -2.385,-1.331 H 94.684 c -1,0 -1.846,0.536 -2.331,1.331 z"
             inkscape:connector-curvature="0" /></g><g
           transform="translate(113.2356,213.2291)"
           id="g36"><path
             id="path38"
             style="fill:#d1d2d4;fill-opacity:1;fill-rule:nonzero;stroke:none"
             d="m 0,0 h 202.152 c 0.422,0 0.764,-0.33 0.764,-0.739 v -120.142 c 0,-0.409 -0.342,-0.739 -0.764,-0.739 H 0 c -0.422,0 -0.764,0.33 -0.764,0.739 V -0.739 C -0.764,-0.33 -0.422,0 0,0"
             inkscape:connector-curvature="0" /></g><g
           transform="translate(21.4856,184.4654)"
           id="g40"><path
             id="path42"
             style="fill:#d1d2d4;fill-opacity:1;fill-rule:nonzero;stroke:none"
             d="m 0,0 c -9.75,-53.393 -16.108,-110.507 -20.893,-135.571 -7.502,-39.315 58.198,-72.362 83.108,-26.93 18.912,34.492 40.392,78.466 40.392,78.466 z"
             inkscape:connector-curvature="0" /></g><g
           transform="translate(108.0285,104.6129)"
           id="g44"><path
             id="path46"
             style="fill:#999999;fill-opacity:1;fill-rule:nonzero;stroke:none"
             d="m 0,0 c -0.042,-0.805 -0.067,-1.614 -0.067,-2.429 0,-24.252 19.659,-43.909 43.909,-43.909 24.25,0 43.907,19.657 43.907,43.909 0,24.249 -19.657,43.909 -43.907,43.909 -0.757,0 -1.51,-0.02 -2.258,-0.059"
             inkscape:connector-curvature="0" /></g><g
           transform="translate(150.8693,144.4475)"
           id="g48"><path
             id="path50"
             style="fill:#999999;fill-opacity:1;fill-rule:nonzero;stroke:none"
             d="m 0,0 c 2.667,7.316 4.122,15.214 4.122,23.452 0,37.814 -30.654,68.471 -68.47,68.471 -37.815,0 -68.469,-30.657 -68.469,-68.471 0,-37.814 30.654,-68.471 68.469,-68.471 8.147,0 15.959,1.426 23.205,4.037 -0.042,-0.797 -0.067,-1.597 -0.067,-2.404"
             inkscape:connector-curvature="0" /></g><g
           transform="translate(407.0969,184.4654)"
           id="g52"><path
             id="path54"
             style="fill:#d1d2d4;fill-opacity:1;fill-rule:nonzero;stroke:none"
             d="m 0,0 c 9.75,-53.393 16.109,-111.436 20.893,-135.571 7.781,-39.26 -58.198,-72.363 -83.108,-26.93 -18.912,34.492 -40.392,78.466 -40.392,78.466 z"
             inkscape:connector-curvature="0" /></g><g
           transform="translate(278.3445,146.1283)"
           id="g56"><path
             id="path58"
             style="fill:#999999;fill-opacity:1;fill-rule:nonzero;stroke:none"
             d="m 0,0 c -0.805,0.042 -1.614,0.067 -2.429,0.067 -24.252,0 -43.909,-19.659 -43.909,-43.909 0,-24.25 19.657,-43.907 43.909,-43.907 24.249,0 43.909,19.657 43.909,43.907 0,0.757 -0.02,1.51 -0.059,2.258"
             inkscape:connector-curvature="0" /></g><g
           transform="translate(376.6653,214.1754)"
           id="g60"><path
             id="path62"
             style="fill:#d1d2d4;fill-opacity:1;fill-rule:nonzero;stroke:none"
             d="m 0,0 c -3.018,19.5 -4.41,29.25 -5.805,36.447 -1.392,7.196 -13.695,10.91 -31.222,10.91 -17.528,0 -29.83,-3.714 -31.225,-10.91 C -69.643,29.25 -71.037,19.5 -74.053,0"
             inkscape:connector-curvature="0" /></g><g
           transform="translate(318.1791,103.2875)"
           id="g64"><path
             id="path66"
             style="fill:#999999;fill-opacity:1;fill-rule:nonzero;stroke:none"
             d="m 0,0 c 7.316,-2.667 15.214,-4.122 23.452,-4.122 37.814,0 68.471,30.654 68.471,68.47 0,37.815 -30.657,68.469 -68.471,68.469 -37.814,0 -68.471,-30.654 -68.471,-68.469 0,-8.147 1.426,-15.959 4.037,-23.205 -0.797,0.042 -1.597,0.067 -2.404,0.067"
             inkscape:connector-curvature="0" /></g><g
           transform="translate(150.3215,144.985)"
           id="g68"><path
             id="path70"
             style="fill:#d1d2d4;fill-opacity:1;fill-rule:nonzero;stroke:none"
             d="m 0,0 c 2.555,7.11 3.951,14.774 3.951,22.767 0,37.18 -30.14,67.32 -67.322,67.32 -37.18,0 -67.32,-30.14 -67.32,-67.32 0,-37.182 30.14,-67.322 67.32,-67.322 7.652,0 15.006,1.28 21.861,3.632 -0.023,-0.59 -0.041,-1.18 -0.041,-1.775 0,-23.591 19.125,-42.714 42.715,-42.714 23.592,0 42.715,19.123 42.715,42.714 0,23.59 -19.123,42.715 -42.715,42.715 C 0.775,0.017 0.387,0.011 0,0"
             inkscape:connector-curvature="0" /></g><g
           transform="translate(318.5735,104.483)"
           id="g72"><path
             id="path74"
             style="fill:#d1d2d4;fill-opacity:1;fill-rule:nonzero;stroke:none"
             d="m 0,0 c 7.193,-2.622 14.959,-4.053 23.059,-4.053 37.179,0 67.322,30.14 67.322,67.322 0,37.18 -30.143,67.32 -67.322,67.32 -37.18,0 -67.323,-30.14 -67.323,-67.32 0,-8.01 1.403,-15.692 3.969,-22.816 -0.783,0.041 -1.57,0.066 -2.363,0.066 -23.592,0 -42.715,-19.125 -42.715,-42.715 0,-23.591 19.123,-42.714 42.715,-42.714 23.59,0 42.715,19.123 42.715,42.714 C 0.057,-1.46 0.037,-0.728 0,0"
             inkscape:connector-curvature="0" /></g><g
           transform="translate(184.4524,102.2867)"
           id="g76"><path
             id="path78"
             style="fill:#b2b2b2;fill-opacity:1;fill-rule:nonzero;stroke:none"
             d="m 0,0 c 0,-18.205 -14.762,-32.964 -32.967,-32.964 -18.205,0 -32.963,14.759 -32.963,32.964 0,18.206 14.758,32.965 32.963,32.965 C -14.762,32.965 0,18.206 0,0"
             inkscape:connector-curvature="0" /></g><g
           transform="translate(180.2727,102.2867)"
           id="g80"><path
             id="path82"
             style="fill:#666666;fill-opacity:1;fill-rule:nonzero;stroke:none"
             d="m 0,0 c 0,-15.897 -12.889,-28.785 -28.787,-28.785 -15.897,0 -28.783,12.888 -28.783,28.785 0,15.898 12.886,28.786 28.783,28.786 C -12.889,28.786 0,15.898 0,0"
             inkscape:connector-curvature="0" /></g><g
           transform="translate(327.8116,217.5045)"
           id="g84"><path
             id="path86"
             style="fill:#b2b2b2;fill-opacity:1;fill-rule:nonzero;stroke:none"
             d="m 0,0 c -2.725,0 -4.937,-2.213 -4.937,-4.939 v -26.028 h -26.084 c -2.727,0 -4.885,-2.214 -4.885,-4.94 v -27.694 c 0,-2.726 2.158,-4.939 4.885,-4.939 h 26.084 v -26.027 c 0,-2.728 2.212,-4.94 4.937,-4.94 h 27.695 c 2.727,0 4.883,2.212 4.883,4.94 v 26.027 h 26.084 c 2.727,0 4.883,2.213 4.883,4.939 v 27.694 c 0,2.726 -2.156,4.94 -4.883,4.94 H 32.578 V -4.939 C 32.578,-2.213 30.422,0 27.695,0 Z"
             inkscape:connector-curvature="0" /></g><g
           transform="translate(164.9192,166.8141)"
           id="g88"><path
             id="path90"
             style="fill:#666666;fill-opacity:1;fill-rule:nonzero;stroke:none"
             d="m 0,0 h 19.795 c 0.238,0 0.434,-0.193 0.434,-0.433 v -10.973 c 0,-0.239 -0.196,-0.432 -0.434,-0.432 H 0 c -0.24,0 -0.432,0.193 -0.432,0.432 V -0.433 C -0.432,-0.193 -0.24,0 0,0"
             inkscape:connector-curvature="0" /></g><g
           transform="translate(204.1946,127.3668)"
           id="g92"><path
             id="path94"
             style="fill:#666666;fill-opacity:1;fill-rule:nonzero;stroke:none"
             d="m 0,0 h 19.793 c 0.24,0 0.436,-0.192 0.436,-0.433 v -10.974 c 0,-0.239 -0.196,-0.431 -0.436,-0.431 H 0 c -0.24,0 -0.434,0.192 -0.434,0.431 V -0.433 C -0.434,-0.192 -0.24,0 0,0"
             inkscape:connector-curvature="0" /></g><g
           transform="translate(204.1946,103.8785)"
           id="g96"><path
             id="path98"
             style="fill:#808080;fill-opacity:1;fill-rule:nonzero;stroke:none"
             d="m 0,0 h 19.793 c 0.24,0 0.436,-0.077 0.436,-0.174 v -4.367 c 0,-0.095 -0.196,-0.172 -0.436,-0.172 H 0 c -0.24,0 -0.434,0.077 -0.434,0.172 v 4.367 C -0.434,-0.077 -0.24,0 0,0"
             inkscape:connector-curvature="0" /></g><g
           transform="translate(259.8976,160.8951)"
           id="g100"><path
             id="path102"
             style="fill:#666666;fill-opacity:1;fill-rule:nonzero;stroke:none"
             d="m 0,0 c 0,-2.581 -15.09,-5.919 -15.09,-5.919 -1.67,-0.445 -2.785,0.326 -2.785,2.784 v 6.269 c 0,2.486 1.219,3.193 2.785,2.785 C -15.09,5.919 0,2.43 0,0"
             inkscape:connector-curvature="0" /></g><g
           transform="translate(356.257,199.0904)"
           id="g104"><path
             id="path106"
             style="fill:#666666;fill-opacity:1;fill-rule:nonzero;stroke:none"
             d="m 0,0 c 0,-8.077 -6.549,-14.625 -14.625,-14.625 -8.076,0 -14.625,6.548 -14.625,14.625 0,8.077 6.549,14.625 14.625,14.625 C -6.549,14.625 0,8.077 0,0"
             inkscape:connector-curvature="0" /></g><g
           transform="translate(356.257,136.1793)"
           id="g108"><path
             id="path110"
             style="fill:#666666;fill-opacity:1;fill-rule:nonzero;stroke:none"
             d="m 0,0 c 0,-8.077 -6.549,-14.625 -14.625,-14.625 -8.076,0 -14.625,6.548 -14.625,14.625 0,8.078 6.549,14.625 14.625,14.625 C -6.549,14.625 0,8.078 0,0"
             inkscape:connector-curvature="0" /></g><g
           transform="translate(358.4621,167.6354)"
           id="g112"><path
             id="path114"
             style="fill:#666666;fill-opacity:1;fill-rule:nonzero;stroke:none"
             d="M 0,0 C 0,8.076 6.549,14.626 14.625,14.626 22.703,14.626 29.25,8.076 29.25,0 29.25,-8.077 22.703,-14.625 14.625,-14.625 6.549,-14.625 0,-8.077 0,0"
             inkscape:connector-curvature="0" /></g><g
           transform="translate(295.5519,167.6354)"
           id="g116"><path
             id="path118"
             style="fill:#666666;fill-opacity:1;fill-rule:nonzero;stroke:none"
             d="M 0,0 C 0,8.076 6.547,14.626 14.625,14.626 22.703,14.626 29.25,8.076 29.25,0 29.25,-8.077 22.703,-14.625 14.625,-14.625 6.547,-14.625 0,-8.077 0,0"
             inkscape:connector-curvature="0" /></g><g
           transform="translate(72.8156,218.36)"
           id="g120"><path
             id="path122"
             style="fill:#b2b2b2;fill-opacity:1;fill-rule:nonzero;stroke:none"
             d="m 0,0 c -2.729,0 -4.939,-2.212 -4.939,-4.939 v -26.028 h -26.084 c -2.729,0 -4.883,-2.212 -4.883,-4.939 v -27.693 c 0,-2.727 2.154,-4.939 4.883,-4.939 h 26.084 v -26.027 c 0,-2.728 2.21,-4.94 4.939,-4.94 h 27.691 c 2.729,0 4.883,2.212 4.883,4.94 v 26.027 h 26.084 c 2.729,0 4.885,2.212 4.885,4.939 v 27.693 c 0,2.727 -2.156,4.939 -4.885,4.939 H 32.574 V -4.939 C 32.574,-2.212 30.42,0 27.691,0 Z"
             inkscape:connector-curvature="0" /></g><g
           transform="translate(308.8801,102.2867)"
           id="g124"><path
             id="path126"
             style="fill:#b2b2b2;fill-opacity:1;fill-rule:nonzero;stroke:none"
             d="m 0,0 c 0,-18.205 -14.76,-32.964 -32.965,-32.964 -18.205,0 -32.965,14.759 -32.965,32.964 0,18.206 14.76,32.965 32.965,32.965 C -14.76,32.965 0,18.206 0,0"
             inkscape:connector-curvature="0" /></g><g
           transform="translate(304.7003,102.2867)"
           id="g128"><path
             id="path130"
             style="fill:#666666;fill-opacity:1;fill-rule:nonzero;stroke:none"
             d="m 0,0 c 0,-15.897 -12.887,-28.785 -28.785,-28.785 -15.899,0 -28.785,12.888 -28.785,28.785 0,15.898 12.886,28.786 28.785,28.786 C -12.887,28.786 0,15.898 0,0"
             inkscape:connector-curvature="0" /></g><g
           transform="translate(86.634,213.1197)"
           id="g132"><path
             id="path134"
             style="fill:#808080;fill-opacity:1;fill-rule:nonzero;stroke:none"
             d="M 0,0 -6.721,-6.382 H 6.719 Z"
             inkscape:connector-curvature="0" /></g><g
           transform="translate(86.634,124.0953)"
           id="g136"><path
             id="path138"
             style="fill:#808080;fill-opacity:1;fill-rule:nonzero;stroke:none"
             d="M 0,0 -6.721,6.382 H 6.719 Z"
             inkscape:connector-curvature="0" /></g><g
           transform="translate(131.1457,168.608)"
           id="g140"><path
             id="path142"
             style="fill:#808080;fill-opacity:1;fill-rule:nonzero;stroke:none"
             d="M 0,0 -6.383,6.718 V -6.72 Z"
             inkscape:connector-curvature="0" /></g><g
           transform="translate(42.1203,168.608)"
           id="g144"><path
             id="path146"
             style="fill:#808080;fill-opacity:1;fill-rule:nonzero;stroke:none"
             d="M 0,0 6.383,6.718 V -6.72 Z"
             inkscape:connector-curvature="0" /></g><g
           transform="translate(103.1848,178.5729)"
           id="g148"><path
             id="path150"
             style="fill:#666666;fill-opacity:1;fill-rule:nonzero;stroke:none"
             d="m 0,0 c -0.596,-0.051 -1.143,-0.355 -1.5,-0.833 l -6.215,-7.881 c -0.578,-0.753 -0.578,-1.801 0,-2.553 l 6.215,-7.936 c 0.395,-0.522 1.01,-0.83 1.666,-0.833 l 14.43,-0.055 c 0.56,-0.005 1.097,0.218 1.496,0.613 0.394,0.397 0.615,0.936 0.611,1.496 v 15.595 c 0.01,1.146 -0.906,2.087 -2.053,2.109 L 0.221,0 C 0.148,0.003 0.074,0.003 0,0"
             inkscape:connector-curvature="0" /></g><g
           transform="translate(70.0832,178.7301)"
           id="g152"><path
             id="path154"
             style="fill:#666666;fill-opacity:1;fill-rule:nonzero;stroke:none"
             d="m 0,0 c 0.594,-0.051 1.139,-0.354 1.496,-0.834 l 6.217,-7.88 c 0.58,-0.751 0.58,-1.8 0,-2.553 l -6.217,-7.934 c -0.394,-0.524 -1.008,-0.832 -1.664,-0.834 l -14.428,-0.055 c -0.562,-0.004 -1.099,0.217 -1.498,0.612 -0.394,0.398 -0.615,0.936 -0.611,1.497 v 15.594 c -0.01,1.148 0.906,2.087 2.053,2.11 L -0.223,0 C -0.148,0.003 -0.074,0.003 0,0"
             inkscape:connector-curvature="0" /></g><g
           transform="translate(96.5989,152.0563)"
           id="g156"><path
             id="path158"
             style="fill:#666666;fill-opacity:1;fill-rule:nonzero;stroke:none"
             d="m 0,0 c -0.053,0.596 -0.355,1.141 -0.834,1.498 l -7.881,6.216 c -0.752,0.579 -1.801,0.579 -2.553,0 l -7.935,-6.216 c -0.522,-0.394 -0.83,-1.01 -0.832,-1.664 l -0.057,-14.429 c -0.002,-0.561 0.219,-1.099 0.613,-1.495 0.397,-0.397 0.936,-0.618 1.497,-0.614 h 15.595 c 1.145,-0.009 2.086,0.907 2.108,2.054 L 0,-0.221 C 0.002,-0.148 0.002,-0.073 0,0"
             inkscape:connector-curvature="0" /></g><g
           transform="translate(96.7551,185.1588)"
           id="g160"><path
             id="path162"
             style="fill:#666666;fill-opacity:1;fill-rule:nonzero;stroke:none"
             d="m 0,0 c -0.051,-0.596 -0.354,-1.14 -0.832,-1.499 l -7.879,-6.215 c -0.754,-0.58 -1.803,-0.58 -2.555,0 l -7.935,6.215 c -0.524,0.394 -0.83,1.012 -0.832,1.665 l -0.057,14.43 c -0.004,0.56 0.217,1.098 0.613,1.495 0.397,0.396 0.936,0.617 1.497,0.613 h 15.593 c 1.149,0.008 2.088,-0.906 2.11,-2.054 L 0,0.223 C 0.004,0.147 0.004,0.074 0,0"
             inkscape:connector-curvature="0" /></g><g
           transform="translate(221.8664,175.9166)"
           id="g164"><path
             id="path166"
             style="fill:#666666;fill-opacity:1;fill-rule:evenodd;stroke:none"
             d="M 0,0 C 0.422,-0.068 0.654,-0.107 0.977,-0.179 1.346,-0.259 1.713,-0.356 2.07,-0.48 2.506,-0.632 2.922,-0.817 3.287,-1.104 3.578,-1.333 3.803,-1.607 3.912,-1.974 4.012,-2.301 3.953,-2.603 3.781,-2.885 3.584,-3.211 3.293,-3.442 2.98,-3.648 2.594,-3.898 2.174,-4.077 1.746,-4.235 1.709,-4.246 1.668,-4.25 1.629,-4.261 1.598,-4.273 1.566,-4.264 1.533,-4.253 c -0.377,0.113 -0.75,0.23 -1.129,0.348 -0.599,0.187 -1.199,0.375 -1.797,0.557 -0.347,0.107 -0.693,0.218 -1.039,0.324 -0.031,0.009 -0.072,0.014 -0.084,0.056 0.016,0.033 0.047,0.038 0.077,0.047 0.382,0.132 0.765,0.268 1.148,0.393 0.27,0.09 0.537,0.191 0.787,0.334 0.117,0.062 0.231,0.139 0.324,0.236 0.026,0.027 0.049,0.055 0.069,0.088 0.054,0.099 0.039,0.197 -0.051,0.273 -0.092,0.076 -0.201,0.115 -0.313,0.143 -0.187,0.043 -0.38,0.06 -0.572,0.066 -0.449,0.012 -0.889,-0.042 -1.326,-0.119 -0.148,-0.027 -0.291,-0.086 -0.432,-0.135 -0.597,-0.209 -1.201,-0.401 -1.802,-0.604 -0.043,-0.015 -0.086,-0.038 -0.135,-0.038 -0.215,0.051 -0.424,0.124 -0.635,0.19 -0.66,0.203 -1.322,0.409 -1.982,0.613 -0.412,0.128 -0.871,0.257 -1.284,0.382 -0.025,0.01 0.016,0.02 0,0.04 0,0.006 -0.003,0.011 0,0.015 0.006,0.01 -0.007,0.009 0,0.012 0.405,0.137 0.825,0.275 1.235,0.402 0.601,0.181 1.207,0.345 1.822,0.477 0.35,0.076 0.332,0.076 1.051,0.193 C -3.818,0.157 -1.258,0.198 0,0"
             inkscape:connector-curvature="0" /></g><g
           transform="translate(204.6692,170.2193)"
           id="g168"><path
             id="path170"
             style="fill:#666666;fill-opacity:1;fill-rule:evenodd;stroke:none"
             d="m 0,0 c -0.686,0.034 -1.504,0.183 -2.252,0.295 -0.566,0.086 -1.135,0.178 -1.695,0.303 -0.506,0.111 -1.008,0.24 -1.477,0.467 -0.156,0.075 -0.303,0.166 -0.441,0.277 -0.283,0.231 -0.389,0.527 -0.35,0.89 0.059,0.595 0.371,1.045 0.813,1.418 0.334,0.28 0.709,0.488 1.113,0.651 0.088,0.034 0.174,0.083 0.273,0.093 0.094,0 0.178,-0.04 0.264,-0.067 0.648,-0.207 1.291,-0.409 1.938,-0.615 0.49,-0.157 0.978,-0.31 1.466,-0.467 0.034,-0.011 0.141,-0.022 0.164,-0.051 0,0 -0.119,-0.041 -0.15,-0.051 C -0.561,3.062 -0.789,2.98 -1.018,2.897 -1.176,2.842 -1.342,2.793 -1.488,2.701 -1.545,2.667 -1.6,2.626 -1.646,2.572 -1.82,2.38 -1.781,2.149 -1.578,1.972 -1.363,1.786 -1.102,1.703 -0.82,1.675 -0.467,1.637 -0.137,1.724 0.193,1.841 0.5,1.949 0.809,2.049 1.119,2.152 1.414,2.249 1.709,2.35 2.002,2.45 2.033,2.461 2.066,2.478 2.104,2.474 2.342,2.399 2.578,2.323 2.818,2.249 3.221,2.118 3.695,1.989 4.102,1.86 4.135,1.851 4.08,1.846 4.102,1.814 4.105,1.401 4.111,0.985 4.102,0.569 4.104,0.566 4.107,0.562 4.102,0.564 4.113,0.519 4.104,0.509 4.102,0.467 3.758,0.377 3.117,0.264 2.785,0.203 2.785,0.203 1.168,-0.038 0,0"
             inkscape:connector-curvature="0" /></g><g
           transform="translate(219.3547,172.9459)"
           id="g172"><path
             id="path174"
             style="fill:#666666;fill-opacity:1;fill-rule:evenodd;stroke:none"
             d="M 0,0 C 0.145,-0.068 0.303,-0.101 0.453,-0.148 1.102,-0.352 1.75,-0.549 2.398,-0.751 2.717,-0.849 3.033,-0.949 3.35,-1.05 3.613,-1.13 3.877,-1.21 4.141,-1.29 4.029,-1.331 3.918,-1.373 3.809,-1.415 3.488,-1.525 3.166,-1.64 2.848,-1.751 2.326,-1.934 1.807,-2.116 1.287,-2.298 0.812,-2.467 0.342,-2.636 -0.129,-2.801 -0.674,-2.993 -1.217,-3.185 -1.76,-3.376 c -0.168,-0.061 -0.334,-0.129 -0.508,-0.175 -0.05,-0.011 -0.097,0.014 -0.144,0.026 -0.422,0.135 -0.842,0.269 -1.264,0.401 -0.795,0.257 -1.662,0.506 -2.455,0.758 -0.033,0.01 0.018,0.016 0,0.051 v 0.22 c 0.012,0.031 -0.025,0.032 0,0.043 0.486,0.16 1.022,0.332 1.504,0.493 0.74,0.254 1.475,0.506 2.211,0.758 0.51,0.172 1.016,0.347 1.525,0.521 0.266,0.091 0.536,0.181 0.799,0.275 C -0.061,0.004 -0.029,0.032 0,0"
             inkscape:connector-curvature="0" /></g><g
           transform="translate(204.4133,173.4156)"
           id="g176"><path
             id="path178"
             style="fill:#666666;fill-opacity:1;fill-rule:evenodd;stroke:none"
             d="M 0,0 C -0.52,0.164 -1.039,0.33 -1.561,0.5 -2.293,0.73 -3.029,0.965 -3.76,1.197 -3.016,1.448 -2.272,1.7 -1.525,1.949 -0.363,2.342 0.799,2.734 1.959,3.125 2.184,3.2 2.408,3.277 2.635,3.35 2.664,3.36 2.697,3.35 2.728,3.341 3.252,3.177 3.834,3.014 4.357,2.857 c 0.059,-0.017 0.002,-0.044 0,-0.104 0,-0.398 0.002,-0.792 0,-1.187 C 4.352,1.534 4.383,1.523 4.357,1.515 3.894,1.351 3.381,1.183 2.916,1.019 2.367,0.822 1.818,0.624 1.275,0.428 0.877,0.286 0.488,0.146 0.096,0.006 0.066,-0.005 0.035,-0.023 0,0"
             inkscape:connector-curvature="0" /></g><g
           transform="translate(213.2239,170.6305)"
           id="g180"><path
             id="path182"
             style="fill:#666666;fill-opacity:1;fill-rule:evenodd;stroke:none"
             d="M 0,0 C 1.291,-0.411 2.57,-0.823 3.863,-1.235 3.678,-1.314 3.479,-1.371 3.283,-1.443 2.879,-1.587 2.471,-1.728 2.063,-1.869 1.525,-2.058 0.988,-2.244 0.451,-2.429 0.324,-2.475 0.127,-2.521 0,-2.566 v 0.028 c -0.016,0.017 0,0.038 0,0.063 v 2.459 z"
             inkscape:connector-curvature="0" /></g><g
           transform="translate(208.7707,174.9732)"
           id="g184"><path
             id="path186"
             style="fill:#666666;fill-opacity:1;fill-rule:evenodd;stroke:none"
             d="M 0,0 C 0.002,0.401 0,0.798 0,1.201 0.002,1.239 0.047,1.261 0,1.276 -0.391,1.392 -0.824,1.514 -1.217,1.637 -1.385,1.691 -1.555,1.74 -1.723,1.792 -1.428,1.896 -1.131,1.999 -0.832,2.1 -0.553,2.198 -0.281,2.292 0,2.39 0.006,2.396 0.002,2.392 0,2.384 0.002,2.369 0,2.352 0,2.338 0.002,1.576 0,0.818 0,0.057 0,0.037 0.002,0.019 0,0 -0.004,-0.004 0.002,-0.004 0,0"
             inkscape:connector-curvature="0" /></g><g
           transform="translate(217.1223,173.65)"
           id="g188"><path
             id="path190"
             style="fill:#666666;fill-opacity:1;fill-rule:evenodd;stroke:none"
             d="m 0,0 c -0.221,-0.08 -0.44,-0.157 -0.658,-0.233 -1.088,-0.372 -2.157,-0.742 -3.24,-1.117 v 0.059 2.45 0.049 C -3.406,1.055 -2.928,0.902 -2.436,0.751 -2.014,0.619 -1.592,0.488 -1.174,0.358 -0.781,0.236 -0.391,0.117 0,0"
             inkscape:connector-curvature="0" /></g><g
           transform="translate(206.7707,172.6754)"
           id="g192"><path
             id="path194"
             style="fill:#666666;fill-opacity:1;fill-rule:evenodd;stroke:none"
             d="M 0,0 C 0.244,0.084 0.486,0.17 0.732,0.251 1.162,0.398 1.572,0.537 2,0.68 2.002,0.43 2,0.178 2,-0.07 2.002,-0.264 2.002,-0.453 2,-0.643 1.607,-0.519 1.234,-0.395 0.842,-0.27 0.562,-0.181 0.277,-0.092 0,0"
             inkscape:connector-curvature="0" /></g><g
           transform="translate(208.7707,172.0309)"
           id="g196"><path
             id="path198"
             style="fill:#666666;fill-opacity:1;fill-rule:evenodd;stroke:none"
             d="M 0,0 C -0.004,0.443 -0.004,0.887 0,1.328 -0.006,1.795 0.002,2.264 0,2.729 0,2.799 -0.006,2.87 0,2.938 0.004,3.695 0,4.449 0,5.205 0.002,5.248 -0.02,5.291 0,5.329 0.004,5.36 0,5.392 0,5.421 0.002,9.187 0.018,12.955 0.018,16.72 v 0.071 c 0.003,0.02 0.015,0.028 0.035,0.018 0.189,-0.051 0.375,-0.104 0.562,-0.155 0.531,-0.142 1.063,-0.283 1.594,-0.422 0.484,-0.13 0.975,-0.255 1.459,-0.384 0.572,-0.151 1.143,-0.304 1.713,-0.452 0.463,-0.121 0.922,-0.253 1.369,-0.411 0.781,-0.277 1.531,-0.622 2.217,-1.089 0.369,-0.25 0.713,-0.529 1.017,-0.853 0.323,-0.336 0.594,-0.708 0.819,-1.123 0.244,-0.452 0.406,-0.934 0.513,-1.438 0.043,-0.202 0.065,-0.41 0.09,-0.615 0.012,-0.03 -0.002,-0.061 0.012,-0.091 0,-0.036 0.002,-0.071 0.004,-0.106 0.012,-0.045 -0.004,-0.09 0.01,-0.135 V 8.898 C 11.418,8.84 11.434,8.781 11.422,8.723 11.42,8.683 11.418,8.641 11.418,8.601 11.402,8.563 11.42,8.52 11.406,8.482 11.404,8.453 11.404,8.418 11.402,8.389 11.391,8.362 11.404,8.328 11.395,8.3 11.393,8.276 11.391,8.256 11.391,8.234 11.377,8.209 11.391,8.185 11.379,8.156 11.379,8.14 11.377,8.122 11.377,8.103 11.361,8.082 11.377,8.054 11.363,8.03 11.314,7.687 11.258,7.346 11.166,7.01 11.039,6.561 10.863,6.131 10.598,5.744 10.297,5.306 9.908,4.971 9.422,4.754 9.1,4.615 8.758,4.542 8.408,4.507 8.377,4.496 8.346,4.51 8.316,4.498 8.266,4.496 8.219,4.494 8.168,4.493 8.074,4.484 7.979,4.484 7.885,4.493 7.836,4.494 7.785,4.496 7.734,4.498 7.695,4.51 7.654,4.494 7.615,4.507 7.596,4.508 7.57,4.51 7.551,4.51 7.527,4.524 7.5,4.51 7.475,4.521 7.293,4.531 7.107,4.562 6.928,4.599 6.715,4.643 6.498,4.683 6.291,4.754 6.256,4.763 6.219,4.771 6.182,4.781 6.162,4.785 6.152,4.797 6.152,4.814 v 0.065 7.462 c 0,0.03 0.008,0.06 -0.004,0.089 -0.023,0.243 -0.164,0.406 -0.367,0.52 -0.133,0.072 -0.281,0.117 -0.435,0.129 -0.075,0.007 -0.149,0.007 -0.223,0 C 4.877,13.056 4.66,12.981 4.521,12.758 4.484,12.701 4.463,12.641 4.463,12.575 4.449,12.502 4.459,12.43 4.457,12.355 4.453,12.143 4.463,11.923 4.453,11.707 c 0,-0.27 -0.004,-0.543 -0.006,-0.812 L 4.453,2.85 c 0.004,-0.008 0,-0.017 0,-0.026 0.004,-0.027 0,-0.059 0,-0.086 V 0.36 0.269 c 0.004,-0.478 0.004,-0.959 0,-1.435 0.004,-0.079 0.004,-0.156 0,-0.234 0.004,-0.603 0,-1.2 0,-1.8 v -0.658 -0.08 -0.029 c -0.297,0.101 -0.697,0.2 -0.998,0.298 -0.328,0.108 -0.654,0.214 -0.982,0.32 C 2.08,-3.225 1.689,-3.097 1.301,-2.968 0.92,-2.845 0.379,-2.723 0,-2.6 v 0.114 z"
             inkscape:connector-curvature="0" /></g><g
           transform="translate(193.4875,161.7242)"
           id="g200"><path
             id="path202"
             style="fill:#666666;fill-opacity:1;fill-rule:nonzero;stroke:none"
             d="m 0,0 v 0.65 c 0.229,0 0.449,-0.004 0.67,0 C 1.24,0.658 1.482,0.851 1.541,1.412 1.578,1.797 1.58,2.19 1.533,2.571 1.475,3.089 1.117,3.367 0.602,3.372 c -0.381,0.003 -0.76,0 -1.168,0 V -2.575 H -1.6 V 4.05 c 0.012,0.007 0.026,0.023 0.039,0.023 C -0.645,4.061 0.27,4.064 1.184,4.035 1.43,4.024 1.684,3.936 1.914,3.839 2.215,3.721 2.422,3.488 2.521,3.172 2.732,2.499 2.762,1.815 2.596,1.126 2.436,0.461 2.023,0.062 1.342,0.006 0.9,-0.031 0.455,0 0,0"
             inkscape:connector-curvature="0" /></g><g
           transform="translate(228.1379,161.733)"
           id="g204"><path
             id="path206"
             style="fill:#666666;fill-opacity:1;fill-rule:nonzero;stroke:none"
             d="m 0,0 c 0.049,-0.372 0.068,-0.747 0.154,-1.107 0.129,-0.535 0.475,-0.776 1.022,-0.785 0.592,-0.005 0.939,0.218 1.082,0.768 0.197,0.741 0.197,1.497 0.004,2.24 C 2.127,1.64 1.771,1.861 1.182,1.849 0.604,1.837 0.27,1.607 0.148,1.088 0.068,0.735 0.049,0.367 0,0 M 3.498,-0.079 C 3.453,-0.442 3.434,-0.869 3.344,-1.275 3.158,-2.102 2.748,-2.483 1.906,-2.561 1.373,-2.607 0.824,-2.589 0.295,-2.524 c -0.645,0.08 -1.039,0.499 -1.193,1.116 -0.225,0.886 -0.221,1.781 -0.028,2.671 0.158,0.734 0.614,1.193 1.369,1.251 C 1.006,2.559 1.59,2.562 2.146,2.483 2.916,2.374 3.26,1.803 3.383,1.093 3.445,0.724 3.457,0.35 3.498,-0.079"
             inkscape:connector-curvature="0" /></g><g
           transform="translate(204.3235,156.5855)"
           id="g208"><path
             id="path210"
             style="fill:#666666;fill-opacity:1;fill-rule:nonzero;stroke:none"
             d="m 0,0 c 0.295,0.732 0.543,1.436 0.865,2.108 0.227,0.475 0.217,0.884 0.024,1.371 -0.518,1.306 -0.983,2.634 -1.469,3.955 -0.024,0.064 -0.041,0.13 -0.072,0.224 0.355,0 0.687,0.009 1.017,-0.009 C 0.432,7.644 0.518,7.534 0.549,7.454 0.914,6.471 1.277,5.488 1.641,4.504 1.662,4.444 1.686,4.387 1.725,4.286 1.803,4.467 1.869,4.615 1.932,4.765 2.297,5.672 2.666,6.576 3.027,7.483 3.076,7.614 3.143,7.667 3.285,7.663 3.545,7.651 3.807,7.658 4.102,7.658 3.926,7.225 3.768,6.818 3.6,6.418 2.773,4.369 1.943,2.323 1.121,0.276 1.039,0.068 0.941,-0.031 0.711,-0.007 0.492,0.019 0.266,0 0,0"
             inkscape:connector-curvature="0" /></g><g
           transform="translate(219.0481,162.3707)"
           id="g212"><path
             id="path214"
             style="fill:#666666;fill-opacity:1;fill-rule:nonzero;stroke:none"
             d="m 0,0 v -0.664 c -0.154,0 -0.305,0.015 -0.451,-0.006 -0.194,-0.029 -0.391,-0.066 -0.574,-0.134 -0.188,-0.074 -0.303,-0.231 -0.307,-0.443 -0.008,-0.23 -0.029,-0.461 -0.004,-0.689 0.043,-0.407 0.221,-0.573 0.637,-0.589 0.429,-0.018 0.859,-0.004 1.324,-0.004 v 0.243 c 0,0.852 0,1.704 -0.002,2.556 0,0.592 -0.313,0.918 -0.906,0.933 -0.467,0.011 -0.938,0.002 -1.414,0.002 V 1.906 C -0.91,1.864 -0.133,1.861 0.637,1.764 1.279,1.684 1.611,1.295 1.637,0.65 1.68,-0.424 1.668,-1.498 1.68,-2.572 c 0.002,-0.206 0,-0.409 0,-0.666 -0.387,0 -0.739,-0.007 -1.096,0.002 -0.633,0.019 -1.277,0 -1.902,0.084 -0.733,0.095 -1.018,0.415 -1.092,1.141 -0.041,0.357 -0.004,0.727 0.035,1.09 0.037,0.378 0.283,0.61 0.629,0.735 C -1.187,0.018 -0.606,0.006 0,0"
             inkscape:connector-curvature="0" /></g><g
           transform="translate(202.0051,159.8414)"
           id="g216"><path
             id="path218"
             style="fill:#666666;fill-opacity:1;fill-rule:nonzero;stroke:none"
             d="M 0,0 V 1.455 C 0,1.909 0.002,2.363 0,2.814 -0.006,3.378 -0.314,3.71 -0.879,3.73 -1.268,3.743 -1.658,3.734 -2.049,3.734 h -0.275 v 0.642 c 0.043,0.006 0.094,0.02 0.146,0.02 C -1.518,4.382 -0.855,4.385 -0.197,4.34 0.262,4.309 0.687,4.136 0.889,3.68 0.988,3.463 1.033,3.203 1.039,2.965 1.055,1.779 1.045,0.59 1.047,-0.595 c 0,-0.022 -0.01,-0.046 -0.025,-0.106 -0.309,0 -0.624,-0.008 -0.938,0.002 -0.668,0.015 -1.344,-0.011 -2.002,0.067 -0.746,0.092 -1.029,0.401 -1.115,1.148 -0.047,0.38 -0.002,0.775 0.051,1.156 0.054,0.403 0.353,0.635 0.722,0.706 0.526,0.101 1.067,0.141 1.625,0.21 V 1.865 c -0.152,0 -0.312,0.024 -0.467,-0.006 C -1.318,1.816 -1.559,1.773 -1.746,1.66 -2.049,1.48 -1.967,1.14 -1.992,0.855 -1.998,0.778 -1.978,0.696 -1.969,0.619 -1.918,0.201 -1.752,0.023 -1.328,0.006 -0.898,-0.015 -0.467,0 0,0"
             inkscape:connector-curvature="0" /></g><g
           transform="translate(209.1789,159.1715)"
           id="g220"><path
             id="path222"
             style="fill:#666666;fill-opacity:1;fill-rule:nonzero;stroke:none"
             d="m 0,0 v 0.646 c 0.41,0 0.812,-0.005 1.217,0.003 C 1.422,0.655 1.633,0.67 1.83,0.717 2.205,0.809 2.449,1.051 2.477,1.448 2.5,1.748 2.514,2.053 2.479,2.348 2.436,2.722 2.256,2.869 1.881,2.914 1.707,2.935 1.533,2.949 1.357,2.962 0.051,3.06 -0.156,3.613 -0.236,4.574 -0.264,4.922 -0.18,5.287 -0.1,5.63 0.043,6.231 0.475,6.552 1.068,6.588 1.742,6.629 2.42,6.598 3.115,6.598 V 5.967 C 2.789,5.967 2.465,5.969 2.143,5.963 1.941,5.959 1.744,5.95 1.547,5.922 1.209,5.875 0.965,5.695 0.902,5.344 0.863,5.111 0.828,4.869 0.844,4.635 0.867,4.245 1.08,4.053 1.467,4.014 1.807,3.98 2.15,3.958 2.488,3.918 2.969,3.859 3.285,3.602 3.434,3.131 3.656,2.404 3.707,1.678 3.467,0.948 3.271,0.361 2.846,0.037 2.244,0.009 1.506,-0.025 0.764,0 0,0"
             inkscape:connector-curvature="0" /></g><g
           transform="translate(236.7668,159.1461)"
           id="g224"><path
             id="path226"
             style="fill:#666666;fill-opacity:1;fill-rule:nonzero;stroke:none"
             d="m 0,0 h -1.027 v 1.154 c 0,0.782 0.002,1.563 0,2.343 -0.004,0.585 -0.307,0.905 -0.885,0.928 -0.326,0.014 -0.652,0.005 -0.979,0.005 -0.033,0 -0.062,-0.008 -0.127,-0.017 V -0.002 H -4.045 V 5.06 c 0,0.002 0.014,0.02 0.026,0.02 C -3.08,5.068 -2.143,5.077 -1.205,5.028 -0.932,5.014 -0.644,4.86 -0.402,4.711 -0.129,4.545 -0.008,4.242 -0.004,3.93 0.006,2.628 0,1.324 0,0"
             inkscape:connector-curvature="0" /></g><g
           transform="translate(221.9289,165.1813)"
           id="g228"><path
             id="path230"
             style="fill:#666666;fill-opacity:1;fill-rule:nonzero;stroke:none"
             d="m 0,0 h 1.045 v -0.933 h 1.174 v -0.66 h -1.17 v -0.25 c 0,-0.925 -0.004,-1.848 0,-2.77 0,-0.128 0.015,-0.256 0.045,-0.377 0.066,-0.267 0.185,-0.35 0.459,-0.35 H 1.975 V -6.027 C 1.48,-6.01 0.982,-6.104 0.496,-5.957 0.176,-5.859 0.006,-5.608 0.006,-5.291 -0.002,-3.533 0,-1.777 0,0"
             inkscape:connector-curvature="0" /></g><g
           transform="translate(213.843,165.1852)"
           id="g232"><path
             id="path234"
             style="fill:#666666;fill-opacity:1;fill-rule:nonzero;stroke:none"
             d="M 0,0 H 1.047 V -0.939 H 2.229 V -1.601 H 1.053 v -0.288 -2.673 c 0,-0.118 0,-0.239 0.019,-0.355 0.061,-0.317 0.201,-0.43 0.524,-0.427 H 1.971 V -6.03 C 1.473,-6.014 0.967,-6.111 0.473,-5.95 0.186,-5.857 0.049,-5.629 0.014,-5.338 0,-5.219 0,-5.101 0,-4.982 v 4.678 z"
             inkscape:connector-curvature="0" /></g><path
           id="path236"
           style="fill:#666666;fill-opacity:1;fill-rule:nonzero;stroke:none"
           d="m 197.984,159.149 h -1.031 v 6.644 h 1.031 z"
           inkscape:connector-curvature="0" /><path
           id="path238"
           style="fill:#666666;fill-opacity:1;fill-rule:nonzero;stroke:none"
           d="m 224.995,164.235 h 1.021 v -5.086 h -1.021 z"
           inkscape:connector-curvature="0" /><path
           id="path240"
           style="fill:#666666;fill-opacity:1;fill-rule:nonzero;stroke:none"
           d="m 224.993,165.786 h 1.023 v -0.904 h -1.023 z"
           inkscape:connector-curvature="0" /><g
           transform="translate(213.5012,167.8092)"
           id="g242"><path
             id="path244"
             style="fill:none;stroke:#d1d2d4;stroke-width:0.55199999;stroke-linecap:butt;stroke-linejoin:miter;stroke-miterlimit:10;stroke-dasharray:none;stroke-opacity:1"
             d="M 0,0 V 7.379"
             inkscape:connector-curvature="0" /></g><g
           transform="translate(208.4992,170.4059)"
           id="g246"><path
             id="path248"
             style="fill:none;stroke:#d1d2d4;stroke-width:0.55199999;stroke-linecap:butt;stroke-linejoin:miter;stroke-miterlimit:10;stroke-dasharray:none;stroke-opacity:1"
             d="M 0,0 V 7.38"
             inkscape:connector-curvature="0" /></g><g
           transform="translate(319.1774,159.0619)"
           id="g250"><path
             id="path252"
             style="fill:#bc82a1;fill-opacity:1;fill-rule:nonzero;stroke:none"
             d="m 0,0 v 17.146 c 0,0.318 -0.26,0.578 -0.578,0.578 h -16.845 c -0.318,0 -0.578,-0.26 -0.578,-0.578 V 0 c 0,-0.318 0.26,-0.578 0.578,-0.578 H -0.578 C -0.26,-0.578 0,-0.318 0,0 m -1.415,0.988 h -15.171 v 15.17 h 15.171 z"
             inkscape:connector-curvature="0" /></g><g
           transform="translate(372.5753,177.0231)"
           id="g254"><path
             id="path256"
             style="fill:#ca6869;fill-opacity:1;fill-rule:nonzero;stroke:none"
             d="m 0,0 c -5.15,0 -9.325,-4.175 -9.325,-9.325 0,-5.15 4.175,-9.325 9.325,-9.325 5.15,0 9.325,4.175 9.325,9.325 C 9.325,-4.175 5.15,0 0,0 m 10.81,-9.139 c 0,-5.893 -4.778,-10.67 -10.671,-10.67 -5.893,0 -10.67,4.777 -10.67,10.67 0,5.893 4.777,10.671 10.67,10.671 5.893,0 10.671,-4.778 10.671,-10.671"
             inkscape:connector-curvature="0" /></g><g
           transform="translate(351.3919,192.5354)"
           id="g258"><path
             id="path260"
             style="fill:#5e9d81;fill-opacity:1;fill-rule:nonzero;stroke:none"
             d="m 0,0 v 0 c -0.308,-0.178 -0.706,-0.072 -0.884,0.237 l -9.35,16.186 c -0.178,0.308 -0.072,0.706 0.236,0.884 0.309,0.178 0.707,0.072 0.885,-0.237 L 0.237,0.884 C 0.415,0.576 0.308,0.178 0,0"
             inkscape:connector-curvature="0" /></g><g
           transform="translate(351.7149,193.132)"
           id="g262"><path
             id="path264"
             style="fill:#5e9d81;fill-opacity:1;fill-rule:nonzero;stroke:none"
             d="m 0,0 v 0 c 0,-0.356 -0.291,-0.647 -0.647,-0.647 h -18.61 c -0.356,0 -0.647,0.291 -0.647,0.647 v 0 c 0,0.356 0.291,0.647 0.647,0.647 h 18.61 C -0.291,0.647 0,0.356 0,0"
             inkscape:connector-curvature="0" /></g><g
           transform="translate(332.1344,192.4982)"
           id="g266"><path
             id="path268"
             style="fill:#5e9d81;fill-opacity:1;fill-rule:nonzero;stroke:none"
             d="m 0,0 v 0 c -0.308,0.178 -0.415,0.576 -0.238,0.884 l 9.321,16.173 c 0.177,0.308 0.575,0.415 0.884,0.237 0.308,-0.177 0.415,-0.575 0.237,-0.884 L 0.884,0.238 C 0.706,-0.071 0.308,-0.178 0,0"
             inkscape:connector-curvature="0" /></g><g
           transform="translate(349.7843,128.0268)"
           id="g270"><path
             id="path272"
             style="fill:#5e9ec4;fill-opacity:1;fill-rule:nonzero;stroke:none"
             d="m 0,0 v 0 c -0.301,-0.301 -0.793,-0.301 -1.093,0 l -15.291,15.29 c -0.3,0.301 -0.3,0.793 0,1.093 v 0.001 c 0.301,0.3 0.793,0.3 1.094,0 L 0,1.093 C 0.301,0.793 0.301,0.301 0,0"
             inkscape:connector-curvature="0" /></g><g
           transform="translate(333.4778,127.9484)"
           id="g274"><path
             id="path276"
             style="fill:#5e9ec4;fill-opacity:1;fill-rule:nonzero;stroke:none"
             d="m 0,0 v 0 c -0.301,0.301 -0.301,0.793 0,1.093 l 15.29,15.29 c 0.301,0.301 0.793,0.301 1.094,0 0.3,-0.3 0.3,-0.792 0,-1.093 L 1.093,0 C 0.793,-0.301 0.301,-0.301 0,0"
             inkscape:connector-curvature="0" /></g></g></g></g></svg>