<?xml version="1.0" encoding="UTF-8" standalone="no"?>
<!-- Generator: Adobe Illustrator 13.0.0, SVG Export Plug-In . SVG Version: 6.00 Build 14948)  -->

<svg
   xmlns:ns="&amp;#38;ns_sfw;"
   xmlns:dc="http://purl.org/dc/elements/1.1/"
   xmlns:cc="http://creativecommons.org/ns#"
   xmlns:rdf="http://www.w3.org/1999/02/22-rdf-syntax-ns#"
   xmlns:svg="http://www.w3.org/2000/svg"
   xmlns="http://www.w3.org/2000/svg"
   xmlns:sodipodi="http://sodipodi.sourceforge.net/DTD/sodipodi-0.dtd"
   xmlns:inkscape="http://www.inkscape.org/namespaces/inkscape"
   version="1.2"
   id="Layer_3"
   x="0px"
   y="0px"
   width="584.99103"
   height="189.18225"
   viewBox="0 0 584.991 189.18225"
   xml:space="preserve"
   inkscape:version="0.92.2 (5c3e80d, 2017-08-06)"
   sodipodi:docname="controller.svg"><defs
     id="defs28" /><sodipodi:namedview
     pagecolor="#ffffff"
     bordercolor="#666666"
     borderopacity="1"
     objecttolerance="10"
     gridtolerance="10"
     guidetolerance="10"
     inkscape:pageopacity="0"
     inkscape:pageshadow="2"
     inkscape:window-width="1920"
     inkscape:window-height="1017"
     id="namedview26"
     showgrid="false"
     fit-margin-top="0"
     fit-margin-left="0"
     fit-margin-right="0"
     fit-margin-bottom="0"
     inkscape:zoom="1.9258127"
     inkscape:cx="198.06794"
     inkscape:cy="122.03062"
     inkscape:window-x="-8"
     inkscape:window-y="-8"
     inkscape:window-maximized="1"
     inkscape:current-layer="Layer_3" /><metadata
     id="metadata55"><rdf:RDF><cc:Work
         rdf:about=""><dc:format>image/svg+xml</dc:format><dc:type
           rdf:resource="http://purl.org/dc/dcmitype/StillImage" /><dc:title></dc:title></cc:Work></rdf:RDF><ns:sfw><ns:slices /><ns:sliceSourceBounds
         x="-7231"
         y="-7652"
         width="16383"
         height="16383"
         bottomLeftOrigin="true" /></ns:sfw></metadata><path
     id="path3"
     d="m 125.256,7.5e-4 c -22.057,0 -42.807,3.54975 -60.807,11.142 -0.007,0.003 -0.022,-0.003 -0.03,0 v 0.0225 c -0.983,0.4065 -1.52,1.122 -1.628,1.82625 -0.109,0.7155 0,1.45425 0,2.4135 h 1.925 c 0,-1.03725 -0.098,-1.81275 -0.03,-2.25525 0.068,-0.4425 0.095,-0.51675 0.662,-0.744 h 0.03 c 17.677,-7.4595 38.082,-10.962 59.878,-10.962 h 62.638 c 1.36,0 2.875,0.12975 3.909,0.474 1.034,0.34425 1.563,0.741 1.563,1.69125 h 1.925 c 0,-1.48275 -1.232,-2.53125 -2.707,-3.0225 C 191.103,0.096 189.379,0 187.888,0 h -62.641 0.009 z"
     inkscape:connector-curvature="0"
     style="fill:#f4f4f4;stroke-width:0.86602539" /><path
     id="path5"
     d="M 124.226,2.865 C 55.634,2.865 0,44.56875 0,96.01275 c 0,51.4455 55.634,93.1695 124.226,93.1695 27.078,0 52.123,-6.49125 72.535,-17.5245 l 0.03,-0.0225 2.556,-1.46625 v -0.0225 h 0.029 c 4.11,-2.46075 9.304,-3.92325 14.976,-3.92325 h 45.83 64.626 45.83 c 5.674,0 10.867,1.4625 14.976,3.92325 h 0.03 v 0.0225 l 2.556,1.46625 0.03,0.0225 c 20.411,11.03325 45.457,17.5245 72.534,17.5245 68.595,0 124.227,-41.7255 124.227,-93.1695 C 584.991,44.56725 529.356,2.865 460.764,2.865 H 325.742 300.751 299.79 V 3.5865 4.53375 H 285.476 V 3.5865 2.865 h -0.962 -25.261 -135.024 z m 0,1.44375 h 135.023 24.298 v 0.948 0.7215 h 0.962 16.238 0.963 v -0.7215 -0.948 h 24.028 135.022 c 67.556,0 122.301,41.04075 122.301,91.704 0,50.66625 -54.749,91.72575 -122.301,91.72575 -26.657,0 -51.299,-6.39825 -71.393,-17.2545 h -0.029 l -2.526,-1.4655 c -4.438,-2.65725 -10.062,-4.23975 -16.179,-4.23975 h -45.83 -64.624 -45.831 c -6.117,0 -11.741,1.5825 -16.178,4.23975 l -2.526,1.4655 h -0.03 c -20.084,10.86225 -44.719,17.2575 -71.385,17.2575 -67.552,0 -122.301,-41.0595 -122.301,-91.72575 0,-50.664 54.75,-91.704 122.301,-91.704 z"
     inkscape:connector-curvature="0"
     style="fill:#f4f4f4;stroke-width:0.86602539" /><path
     id="path7"
     d="m 397.11,7.5e-4 c -1.495,0 -3.217,0.09525 -4.691,0.5865 -1.474,0.49125 -2.706,1.53975 -2.706,3.0225 h 1.925 c 0,-0.95025 0.529,-1.347 1.563,-1.69125 1.029,-0.34425 2.541,-0.474 3.907,-0.474 h 62.637 c 21.793,0 42.197,3.50175 59.874,10.962 h 0.031 c 0.566,0.22725 0.594,0.3015 0.661,0.744 0.068,0.44325 -0.03,1.218 -0.03,2.25525 h 1.925 c 0,-0.95925 0.109,-1.698 0,-2.4135 -0.108,-0.705 -0.645,-1.4205 -1.624,-1.827 -0.007,-0.003 0.007,-0.02025 0,-0.0225 -0.008,-0.003 -0.022,0.003 -0.029,0 C 502.547,3.5505 481.799,7.5e-4 459.743,7.5e-4 h -62.641 z"
     inkscape:connector-curvature="0"
     style="fill:#f4f4f4;stroke-width:0.86602539" /><path
     id="circle9"
     d="m 124.832,45.696 c -36.827,0 -66.7,22.4055 -66.7,50.025 0,27.62025 29.874,50.02575 66.7,50.02575 36.827,0 66.731,-22.407 66.731,-50.02575 0,-27.62025 -29.903,-50.025 -66.731,-50.025 z m 0,1.443 c 35.787,0 64.807,21.7425 64.807,48.58125 0,26.8395 -29.02,48.582 -64.807,48.582 -35.787,0 -64.776,-21.7425 -64.776,-48.582 C 60.057,68.88 89.047,47.139 124.832,47.139 Z"
     inkscape:connector-curvature="0"
     style="fill:#f4f4f4;stroke-width:0.86602539" /><path
     id="path11"
     d="m 113.67,58.8 c -3.101,0 -5.624,1.893 -5.624,4.218 v 19.66725 c 0,0.38325 -0.074,0.49275 0,0.429 0.074,-0.0645 10e-4,0.0217 -0.631,0.0217 H 81.251 c -3.1,0 -5.654,1.893 -5.654,4.218 v 16.7355 c 0,2.325 2.554,4.218 5.654,4.218 h 26.073 c 0.457,0 0.606,0.0735 0.631,0.09 0.025,0.0165 0.091,0.0848 0.091,0.38325 v 19.64475 c 0,2.3265 2.523,4.218 5.624,4.218 h 22.344 c 3.1,0 5.624,-1.8915 5.624,-4.218 v -19.7115 c 0,-0.2205 0.048,-0.26325 0.09,-0.29325 0.042,-0.0308 0.183,-0.1125 0.571,-0.1125 h 26.133 c 3.1,0 5.654,-1.89225 5.654,-4.218 V 87.3547 c 0,-2.325 -2.554,-4.218 -5.654,-4.218 h -26.163 c -0.32,0 -0.453,-0.069 -0.512,-0.1125 -0.059,-0.0428 -0.12,-0.1155 -0.12,-0.33825 v -19.6665 c 0,-2.32575 -2.524,-4.218 -5.624,-4.218 l -22.343,-0.002 z m 0,1.44375 h 22.344 c 2.06,0 3.699,1.22925 3.699,2.77425 v 19.66725 c 0,0.5085 0.21,1.02075 0.692,1.37625 0.481,0.35475 1.179,0.51825 1.864,0.51825 h 26.164 c 2.06,0 3.729,1.22925 3.729,2.77425 v 16.7355 c 0,1.545 -1.669,2.77425 -3.729,2.77425 h -26.134 c -0.714,0 -1.404,0.16275 -1.895,0.51825 -0.491,0.357 -0.692,0.8475 -0.692,1.33125 v 19.71225 c 0,1.54575 -1.638,2.77425 -3.699,2.77425 h -22.344 c -2.06,0 -3.699,-1.22925 -3.699,-2.77425 v -19.64475 c 0,-0.52875 -0.193,-1.08 -0.722,-1.44375 -0.529,-0.363 -1.213,-0.47325 -1.925,-0.47325 H 81.252 c -2.061,0 -3.729,-1.22925 -3.729,-2.77425 V 87.35325 c 0,-1.545 1.669,-2.77425 3.729,-2.77425 h 26.163 c 0.828,0 1.568,-0.081 2.075,-0.51825 0.507,-0.438 0.481,-0.933 0.481,-1.3755 V 63.018 c 10e-4,-1.54575 1.639,-2.77425 3.699,-2.77425 z"
     inkscape:connector-curvature="0"
     style="fill:#f4f4f4;stroke-width:0.86602539" /><path
     id="path13"
     d="m 111.6,56.8605 c -3.101,0 -5.624,1.89225 -5.624,4.218 v 19.66725 c 0,0.38325 -0.075,0.4695 0,0.4065 0.075,-0.0645 0,0.0225 -0.631,0.0225 H 79.182 c -3.1,0 -5.654,1.914 -5.654,4.23975 v 20.613 c 0,2.3265 2.554,4.2405 5.654,4.2405 h 26.073 c 0.456,0 0.606,0.0735 0.632,0.0907 0.025,0.0172 0.09,0.0623 0.09,0.36075 v 19.6448 c 0,2.3265 2.523,4.21725 5.624,4.21725 h 26.494 c 3.1,0 5.624,-1.89075 5.624,-4.21725 V 110.6745 c 0,-0.21975 0.048,-0.285 0.09,-0.315 0.042,-0.0308 0.182,-0.0915 0.572,-0.0908 h 26.132 c 3.1,0 5.653,-1.91475 5.653,-4.2405 V 85.41445 c 0,-2.325 -2.553,-4.23975 -5.653,-4.23975 h -26.164 c -0.319,0 -0.452,-0.0472 -0.511,-0.0908 -0.059,-0.0442 -0.12,-0.117 -0.12,-0.33825 V 61.0784 c 0,-2.325 -2.523,-4.218 -5.624,-4.218 H 111.6 Z m 0,1.443 h 26.494 c 2.06,0 3.699,1.22925 3.699,2.77425 V 80.745 c 0,0.50775 0.21,1.02075 0.692,1.3755 0.481,0.354 1.178,0.4965 1.865,0.4965 h 26.163 c 2.06,0 3.729,1.25175 3.729,2.79675 v 20.613 c 0,1.545 -1.669,2.79675 -3.729,2.79675 h -26.132 c -0.716,0 -1.404,0.141 -1.895,0.49575 -0.491,0.357 -0.691,0.87 -0.691,1.353 v 19.6905 c 0,1.545 -1.64,2.77425 -3.699,2.77425 h -26.494 c -2.06,0 -3.699,-1.23 -3.699,-2.77425 V 110.718 c 0,-0.528 -0.193,-1.08 -0.722,-1.44375 -0.529,-0.36375 -1.213,-0.45075 -1.925,-0.45075 H 79.183 c -2.06,0 -3.729,-1.25175 -3.729,-2.79675 V 85.413 c 0,-1.545 1.669,-2.79675 3.729,-2.79675 h 26.163 c 0.828,0 1.568,-0.081 2.075,-0.519 0.507,-0.43725 0.481,-0.90975 0.481,-1.353 V 61.077 c 0,-1.545 1.639,-2.77425 3.698,-2.7735 z"
     inkscape:connector-curvature="0"
     style="fill:#f4f4f4;stroke-width:0.86602539" /><path
     id="circle15"
     d="m 124.832,86.2485 c -6.97,0 -12.63,4.24575 -12.63,9.4725 0,5.22675 5.661,9.4725 12.63,9.4725 6.969,0 12.66,-4.24575 12.66,-9.4725 0,-5.22675 -5.691,-9.4725 -12.66,-9.4725 z m 0,1.44375 c 5.929,0 10.736,3.582 10.736,8.0295 0,4.44675 -4.807,8.0295 -10.736,8.0295 -5.929,0 -10.706,-3.58275 -10.706,-8.0295 0,-4.4475 4.777,-8.0295 10.706,-8.0295 z"
     inkscape:connector-curvature="0"
     style="fill:#f4f4f4;stroke-width:0.86602539" /><path
     id="path17"
     d="m 124.832,61.9125 c -1.408,0 -2.639,0.597 -3.278,1.46625 v 0.0225 l -0.029,0.0225 -7.277,11.412 c -0.225,0.3615 -0.361,0.771 -0.361,1.1955 0,1.54575 1.699,2.79675 3.759,2.79675 h 14.404 c 2.061,0 3.759,-1.251 3.759,-2.79675 0,-0.42975 -0.131,-0.8535 -0.36,-1.218 l -7.338,-11.45775 -0.03,-0.045 -0.03,-0.0225 c -0.657,-0.8175 -1.861,-1.37625 -3.219,-1.3755 z m 0,1.44375 c 0.656,0 1.24,0.27225 1.563,0.654 l 0.03,0.0225 7.278,11.412 c 0.112,0.17775 0.18,0.37425 0.18,0.5865 0,0.76575 -0.814,1.353 -1.834,1.353 h -14.405 c -1.021,0 -1.835,-0.58725 -1.835,-1.353 0,-0.21 0.071,-0.4095 0.181,-0.5865 l 7.247,-11.36775 0.03,-0.045 c 0.32,-0.39975 0.891,-0.6765 1.565,-0.67575 z"
     inkscape:connector-curvature="0"
     style="fill:#f4f4f4;stroke-width:0.86602539" /><path
     id="path19"
     d="m 98.58,87.51225 c -0.571,0 -1.106,0.0975 -1.593,0.27075 L 81.68,93.2865 h -0.03 l -0.06,0.0225 c -1.089,0.492 -1.804,1.39575 -1.804,2.4135 0,1.056 0.767,1.9785 1.925,2.4585 l 0.03,0.0225 h 0.03 l 15.216,5.45775 v 0.0225 c 0.482,0.16875 1.028,0.24825 1.594,0.24825 2.06,0 3.759,-1.251 3.759,-2.79675 V 90.3315 c -0.001,-1.5465 -1.7,-2.81925 -3.76,-2.81925 z m 0,1.443 c 1.021,0 1.834,0.60975 1.834,1.37625 v 10.803 c 0,0.7665 -0.813,1.35375 -1.834,1.35375 -0.269,0 -0.523,-0.0368 -0.752,-0.1125 H 97.799 L 82.642,96.918 c -0.007,-0.003 -0.023,0.002 -0.03,0 -0.554,-0.2355 -0.902,-0.67875 -0.902,-1.1955 0,-0.48225 0.322,-0.882 0.812,-1.12725 l 15.277,-5.5035 c 0.236,-0.0855 0.499,-0.1365 0.781,-0.1365 z"
     inkscape:connector-curvature="0"
     style="fill:#f4f4f4;stroke-width:0.86602539" /><path
     id="path21"
     d="m 117.644,112.61325 c -2.061,0 -3.759,1.27275 -3.759,2.82 0,0.4275 0.129,0.82875 0.361,1.1955 l 7.338,11.48025 0.03,0.0233 0.03,0.0217 c 0.657,0.81525 1.831,1.3755 3.188,1.3755 1.407,0 2.669,-0.59625 3.308,-1.4655 v -0.0225 h 0.03 l 7.277,-11.41275 v -0.0225 c 0.225,-0.3615 0.36,-0.7485 0.36,-1.17225 0,-1.54575 -1.698,-2.82 -3.758,-2.82 h -14.405 z m 0,1.4445 h 14.405 c 1.021,0 1.834,0.60975 1.834,1.3755 0,0.20925 -0.071,0.38775 -0.18,0.564 l -7.248,11.36775 c -0.01,0.0135 -0.019,0.0308 -0.03,0.045 -0.317,0.39825 -0.919,0.6765 -1.593,0.6765 -0.633,0 -1.174,-0.24825 -1.504,-0.60975 l -0.03,-0.0457 c -0.008,-0.009 -0.022,-0.0135 -0.03,-0.0217 l -7.285,-11.39625 c -0.004,-0.007 0.004,-0.0157 0,-0.0225 -0.105,-0.17175 -0.18,-0.3585 -0.18,-0.564 0,-0.76575 0.813,-1.3755 1.833,-1.3755 z"
     inkscape:connector-curvature="0"
     style="fill:#f4f4f4;stroke-width:0.86602539" /><path
     id="path23"
     d="m 151.114,87.51225 c -2.061,0 -3.759,1.27275 -3.759,2.81925 v 10.803 c 0,1.54575 1.698,2.79675 3.759,2.79675 0.57,0 1.105,-0.0967 1.594,-0.27075 l 15.306,-5.5035 h 0.03 l 0.06,-0.0225 c 1.089,-0.49275 1.804,-1.39575 1.804,-2.4135 0,-1.056 -0.765,-1.97925 -1.924,-2.4585 l -0.03,-0.0225 h -0.03 l -15.216,-5.4585 c -0.485,-0.1695 -1.029,-0.26925 -1.594,-0.26925 z m 0,1.443 c 0.268,0 0.523,0.0577 0.751,0.13575 0.008,0.003 0.021,-0.003 0.03,0 l 15.156,5.436 0.03,0.0225 c 0.542,0.23625 0.902,0.66075 0.902,1.17225 0,0.4845 -0.313,0.906 -0.812,1.1505 -0.019,0.008 -0.041,0.0143 -0.061,0.0225 l -15.216,5.481 c -0.24,0.093 -0.5,0.12225 -0.789,0.12225 -1.021,0 -1.834,-0.588 -1.834,-1.353 V 90.34125 c 0,-0.7665 0.814,-1.3755 1.834,-1.3755 z"
     inkscape:connector-curvature="0"
     style="fill:#f4f4f4;stroke-width:0.86602539" /><path
     id="path25"
     d="m 252.638,94.34625 c -2.254,-0.1485 -4.601,0.3615 -6.466,1.53375 l -25.17,15.83325 c -3.73,2.34525 -4.24,6.54075 -1.113,9.33825 3.126,2.79675 8.72,3.156 12.451,0.8115 l 25.201,-15.834 c 3.73,-2.3445 4.208,-6.54 1.083,-9.33825 -1.563,-1.39875 -3.73,-2.19675 -5.984,-2.34525 h -0.002 z M 252.457,95.79 c 1.76,0.11625 3.463,0.72675 4.692,1.82625 2.458,2.2005 2.091,5.46375 -0.842,7.308 l -25.201,15.83325 c -2.933,1.84275 -7.285,1.56825 -9.744,-0.6315 -2.458,-2.19975 -2.061,-5.4645 0.872,-7.30725 l 25.203,-15.8355 c 1.467,-0.92175 3.263,-1.311 5.022,-1.1955 z"
     inkscape:connector-curvature="0"
     style="fill:#f4f4f4;stroke-width:0.86602539" /><path
     id="path27"
     d="m 250.444,90.8025 c -2.605,0.2025 -5.154,0.969 -7.308,2.32275 l -25.204,15.8565 c -5.744,3.612 -6.497,10.03725 -1.684,14.3445 4.815,4.308 13.412,4.8735 19.156,1.26375 l 25.202,-15.83325 c 5.743,-3.612 6.498,-10.0365 1.684,-14.3445 -3.009,-2.69325 -7.507,-3.94575 -11.848,-3.609 z m 2.436,1.42125 c 2.972,0.1965 5.866,1.25775 7.938,3.1125 4.147,3.71025 3.473,9.20475 -1.473,12.3135 L 234.174,123.483 c -4.947,3.11025 -12.304,2.628 -16.45,-1.08225 -4.146,-3.71025 -3.504,-9.20475 1.443,-12.3135 l 25.201,-15.834 c 2.475,-1.554 5.54,-2.226 8.512,-2.0295 z"
     inkscape:connector-curvature="0"
     style="fill:#f4f4f4;stroke-width:0.86602539" /><path
     id="path29"
     d="m 315.612,94.34625 c -2.255,-0.1485 -4.57,0.3615 -6.436,1.53375 l -25.201,15.83325 c -3.724,2.34 -4.22,6.51675 -1.113,9.3135 v 0.0232 c 3.126,2.7975 8.721,3.15675 12.451,0.8115 l 25.201,-15.8332 c 3.729,-2.3445 4.208,-6.53925 1.082,-9.3375 -1.563,-1.39725 -3.73,-2.19525 -5.984,-2.3445 z M 315.431,95.79 c 1.76,0.11625 3.463,0.72675 4.692,1.82625 2.458,2.2005 2.091,5.46375 -0.843,7.308 l -25.201,15.83325 c -2.931,1.84275 -7.284,1.56825 -9.743,-0.6315 -2.459,-2.19975 -2.061,-5.4645 0.872,-7.30725 l 25.201,-15.834 c 1.467,-0.92175 3.264,-1.311 5.023,-1.19475 z"
     inkscape:connector-curvature="0"
     style="fill:#f4f4f4;stroke-width:0.86602539" /><path
     id="path31"
     d="m 313.418,90.8025 c -2.605,0.2025 -5.154,0.969 -7.308,2.32275 l -25.203,15.8565 c -5.744,3.612 -6.499,10.03725 -1.684,14.3445 4.813,4.308 13.412,4.8735 19.156,1.26375 l 25.193,-15.83475 c 5.745,-3.612 6.498,-10.0365 1.685,-14.3445 -3.009,-2.69325 -7.508,-3.94575 -11.849,-3.609 z m 2.436,1.42125 c 2.971,0.1965 5.866,1.25775 7.938,3.1125 4.146,3.71025 3.474,9.20475 -1.474,12.3135 L 297.147,123.483 c -4.947,3.11025 -12.304,2.62725 -16.449,-1.08225 -4.146,-3.71025 -3.504,-9.20475 1.443,-12.3135 l 25.202,-15.834 c 2.474,-1.554 5.54,-2.226 8.511,-2.0295 z"
     inkscape:connector-curvature="0"
     style="fill:#f4f4f4;stroke-width:0.86602539" /><path
     id="path33"
     d="m 461.317,12.96975 c -61.001,0 -110.483,37.1145 -110.483,82.86225 0,45.75 49.484,82.84125 110.483,82.84125 34.631,0 65.541,-11.94225 85.796,-30.651 l 0.089,-0.09 0.061,-0.09 0.211,-0.384 0.481,-0.85725 -1.233,-0.13575 c -0.691,-0.0713 -1.232,-0.49275 -1.232,-1.03725 0,-0.59625 0.619,-1.0605 1.413,-1.0605 0.663,0 1.221,0.321 1.384,0.7665 l 0.57,1.60125 1.174,-1.39725 0.541,-0.6765 0.03,-0.0457 c 13.317,-13.686 21.171,-30.54825 21.171,-48.7845 0,-45.75 -49.455,-82.863 -110.455,-82.863 v 0.0015 z m 0,1.443 c 59.96,0 108.529,36.45225 108.529,81.41925 0,17.87775 -7.697,34.38675 -20.72,47.81475 -0.6,-0.423 -1.343,-0.72225 -2.226,-0.72225 -1.834,0 -3.338,1.13025 -3.338,2.50425 0,0.888 0.744,1.53975 1.684,1.9845 -19.908,18.1935 -50.098,29.81775 -83.932,29.81775 -59.96,0 -108.56,-36.42825 -108.56,-81.39825 0,-44.97 48.603,-81.41925 108.56,-81.41925 z"
     inkscape:connector-curvature="0"
     style="fill:#f4f4f4;stroke-width:0.86602539" /><path
     id="circle35"
     d="m 405.078,79.41375 c -12.558,0 -22.764,7.65525 -22.764,17.07375 0,9.4185 10.206,17.07375 22.764,17.07375 12.559,0 22.766,-7.65525 22.766,-17.07375 0,-9.4185 -10.207,-17.07375 -22.766,-17.07375 z m 0,1.443 c 11.519,0 20.841,6.99225 20.841,15.63075 0,8.6385 -9.322,15.63 -20.841,15.63 -11.517,0 -20.839,-6.9915 -20.839,-15.63 0,-8.6385 9.322,-15.63075 20.839,-15.63075 z"
     inkscape:connector-curvature="0"
     style="fill:#f4f4f4;stroke-width:0.86602539" /><path
     id="circle37"
     d="m 460.354,47.11725 c -12.559,0 -22.735,7.65375 -22.735,17.07375 0,9.41775 10.177,17.073 22.735,17.073 12.558,0 22.765,-7.65525 22.765,-17.073 0,-9.42 -10.207,-17.07375 -22.765,-17.07375 z m 0,1.443 c 11.518,0 20.84,6.9915 20.84,15.63 0,8.6385 -9.322,15.62925 -20.84,15.62925 -11.518,0 -20.811,-6.99075 -20.811,-15.62925 10e-4,-8.6385 9.292,-15.63 20.811,-15.63 z"
     inkscape:connector-curvature="0"
     style="fill:#f4f4f4;stroke-width:0.86602539" /><path
     id="path39"
     d="M 458.43,42.42525 C 452.906,42.705 447.45,44.1735 442.754,46.914 L 387.48,79.212 c -12.508,7.3065 -14.764,20.86425 -5.022,30.2445 9.742,9.38175 27.819,11.0505 40.328,3.74475 L 478.061,80.9175 c 12.51,-7.30425 14.762,-20.85975 5.022,-30.2415 -6.091,-5.8635 -15.454,-8.721 -24.654,-8.25525 z m 0.15,1.42125 c 8.584,-0.43725 17.287,2.235 22.975,7.71375 9.104,8.76675 6.998,21.38925 -4.69,28.21575 l -55.273,32.29725 c -11.688,6.82725 -28.519,5.24775 -37.621,-3.51825 -9.104,-8.76675 -6.997,-21.38775 4.691,-28.21575 l 55.273,-32.2755 c 4.382,-2.55975 9.496,-3.9555 14.645,-4.21725 z"
     inkscape:connector-curvature="0"
     style="fill:#f4f4f4;stroke-width:0.86602539" /><path
     id="circle41"
     d="m 462.182,110.946 c -12.559,0 -22.765,7.6545 -22.765,17.07375 0,9.41925 10.206,17.05125 22.765,17.05125 12.559,0 22.734,-7.63275 22.734,-17.05125 0,-9.4185 -10.175,-17.07375 -22.734,-17.07375 z m 0,1.44375 c 11.519,0 20.81,6.9915 20.81,15.63 0,8.63925 -9.291,15.6075 -20.81,15.6075 -11.519,0 -20.84,-6.96825 -20.84,-15.6075 0.001,-8.6385 9.322,-15.63 20.84,-15.63 z"
     inkscape:connector-curvature="0"
     style="fill:#f4f4f4;stroke-width:0.86602539" /><path
     id="circle43"
     d="m 517.458,78.64875 c -12.558,0 -22.766,7.65525 -22.766,17.073 0,9.41925 10.208,17.07375 22.766,17.07375 12.559,0 22.764,-7.6545 22.764,-17.07375 0,-9.41775 -10.206,-17.073 -22.764,-17.073 z m 0,1.443 c 11.518,0 20.84,6.9915 20.84,15.62925 0,8.63925 -9.322,15.63 -20.84,15.63 -11.518,0 -20.84,-6.9915 -20.84,-15.63 0,-8.63775 9.322,-15.62925 20.84,-15.62925 z"
     inkscape:connector-curvature="0"
     style="fill:#f4f4f4;stroke-width:0.86602539" /><path
     id="path45"
     d="m 515.534,73.9575 c -5.522,0.27975 -11.008,1.749 -15.698,4.488 l -55.273,32.29725 c -12.508,7.30725 -14.765,20.8635 -5.022,30.24525 9.742,9.38025 27.818,11.04975 40.328,3.744 l 55.272,-32.2755 c 12.509,-7.3065 14.766,-20.86425 5.022,-30.246 -6.088,-5.862 -15.426,-8.7195 -24.629,-8.253 z m 0.12,1.4205 c 8.583,-0.4365 17.287,2.235 22.974,7.7145 9.104,8.766 7.028,21.38775 -4.66,28.21575 l -55.274,32.29725 c -11.688,6.82725 -28.518,5.247 -37.62,-3.51825 -9.103,-8.76675 -7.025,-21.3885 4.662,-28.215 l 55.303,-32.2755 c 4.382,-2.562 9.464,-3.95625 14.615,-4.21875 z"
     inkscape:connector-curvature="0"
     style="fill:#f4f4f4;stroke-width:0.86602539" /></svg>