<?xml version="1.0" encoding="UTF-8" standalone="no"?>
<svg
   xmlns:dc="http://purl.org/dc/elements/1.1/"
   xmlns:cc="http://creativecommons.org/ns#"
   xmlns:rdf="http://www.w3.org/1999/02/22-rdf-syntax-ns#"
   xmlns:svg="http://www.w3.org/2000/svg"
   xmlns="http://www.w3.org/2000/svg"
   xmlns:sodipodi="http://sodipodi.sourceforge.net/DTD/sodipodi-0.dtd"
   xmlns:inkscape="http://www.inkscape.org/namespaces/inkscape"
   viewBox="0 0 457.75393 330.79208"
   height="330.79208"
   width="457.75394"
   xml:space="preserve"
   version="1.1"
   id="svg2"
   sodipodi:docname="controller.svg"
   inkscape:version="0.92.2 (5c3e80d, 2017-08-06)"><sodipodi:namedview
     pagecolor="#ffffff"
     bordercolor="#666666"
     borderopacity="1"
     objecttolerance="10"
     gridtolerance="10"
     guidetolerance="10"
     inkscape:pageopacity="0"
     inkscape:pageshadow="2"
     inkscape:window-width="1920"
     inkscape:window-height="1017"
     id="namedview116"
     showgrid="false"
     fit-margin-top="0"
     fit-margin-left="0"
     fit-margin-right="0"
     fit-margin-bottom="0"
     inkscape:zoom="0.53507915"
     inkscape:cx="228.87699"
     inkscape:cy="220.52813"
     inkscape:window-x="-8"
     inkscape:window-y="-8"
     inkscape:window-maximized="1"
     inkscape:current-layer="svg2" /><metadata
     id="metadata8"><rdf:RDF><cc:Work
         rdf:about=""><dc:format>image/svg+xml</dc:format><dc:type
           rdf:resource="http://purl.org/dc/dcmitype/StillImage" /><dc:title></dc:title></cc:Work></rdf:RDF></metadata><defs
     id="defs6"><clipPath
       id="clipPath16"
       clipPathUnits="userSpaceOnUse"><path
         id="path18"
         d="M 0,352.845 H 366.069 V 0 H 0 Z"
         inkscape:connector-curvature="0" /></clipPath></defs><g
     transform="matrix(1.2504581,0,0,-0.9375,0,330.79209)"
     id="g10"><g
       id="g12"><g
         clip-path="url(#clipPath16)"
         id="g14"><g
           transform="translate(329.7138,293.8449)"
           id="g20"><path
             id="path22"
             style="fill:#515151;fill-opacity:1;fill-rule:nonzero;stroke:none"
             d="m 0,0 v 12.5 c 0,0 -39,26 -147.75,26 -108.75,0 -147.75,-26 -147.75,-26 V 0"
             inkscape:connector-curvature="0" /></g><g
           transform="translate(8.3798,238.0109)"
           id="g24"><path
             id="path26"
             style="fill:#a3a3a3;fill-opacity:1;fill-rule:nonzero;stroke:none"
             d="m 0,0 c -4.998,-23.332 -10.999,-63.715 -5.999,-111.334 4.046,-38.535 21.029,-51.408 30.583,-51.582 17.259,-0.314 29.602,43.146 34.751,68.25 8,39 7.333,49 7.333,49 z"
             inkscape:connector-curvature="0" /></g><g
           transform="translate(8.3798,238.0109)"
           id="g28"><path
             id="path30"
             style="fill:none;stroke:#a3a3a3;stroke-width:1;stroke-linecap:round;stroke-linejoin:round;stroke-miterlimit:10;stroke-dasharray:none;stroke-opacity:1"
             d="m 0,0 c -4.998,-23.332 -10.999,-63.715 -5.999,-111.334 4.046,-38.535 21.029,-51.408 30.583,-51.582 17.259,-0.314 29.602,43.146 34.751,68.25 8,39 7.333,49 7.333,49 z"
             inkscape:connector-curvature="0" /></g><g
           transform="translate(357.6894,238.0119)"
           id="g32"><path
             id="path34"
             style="fill:#a3a3a3;fill-opacity:1;fill-rule:nonzero;stroke:none"
             d="m 0,0 c 4.998,-23.333 10.999,-63.715 5.999,-111.334 -4.046,-38.536 -21.029,-51.409 -30.583,-51.583 -17.259,-0.314 -29.601,43.147 -34.751,68.25 -8,39 -7.333,49 -7.333,49 z"
             inkscape:connector-curvature="0" /></g><g
           transform="translate(357.6894,238.0119)"
           id="g36"><path
             id="path38"
             style="fill:none;stroke:#a3a3a3;stroke-width:1;stroke-linecap:round;stroke-linejoin:round;stroke-miterlimit:10;stroke-dasharray:none;stroke-opacity:1"
             d="m 0,0 c 4.998,-23.333 10.999,-63.715 5.999,-111.334 -4.046,-38.536 -21.029,-51.409 -30.583,-51.583 -17.259,-0.314 -29.601,43.147 -34.751,68.25 -8,39 -7.333,49 -7.333,49 z"
             inkscape:connector-curvature="0" /></g><g
           transform="translate(182.9111,0.0109)"
           id="g40"><path
             id="path42"
             style="fill:#b2b2b2;fill-opacity:1;fill-rule:nonzero;stroke:none"
             d="m 0,0 c 27,-1 40.198,67.001 49.864,126.668 9.228,56.959 14,53 48.667,60 18.856,3.808 76.667,-2.001 77,62.333 0.333,64.334 -95.333,71.333 -95.333,71.333 l -9,17.5 c 0,0 -38.198,15 -71.198,15 -33,0 -71.197,-15 -71.197,-15 l -9,-17.5 c 0,0 -95.666,-7 -95.333,-71.334 0.333,-64.334 58.144,-58.525 77,-62.332 34.667,-7 39.439,-3.041 48.667,-60 C -40.197,67.001 -27,-1 0,0"
             inkscape:connector-curvature="0" /></g><g
           transform="translate(101.9619,246.3449)"
           id="g44"><path
             id="path46"
             style="fill:#a3a3a3;fill-opacity:1;fill-rule:nonzero;stroke:none"
             d="m 0,0 c 0,-19.969 -16.187,-36.154 -36.154,-36.154 -19.968,0 -36.155,16.185 -36.155,36.154 0,19.967 16.187,36.154 36.155,36.154 C -16.187,36.154 0,19.967 0,0"
             inkscape:connector-curvature="0" /></g><g
           transform="translate(101.9619,246.3449)"
           id="g48"><path
             id="path50"
             style="fill:none;stroke:#a3a3a3;stroke-width:1;stroke-linecap:round;stroke-linejoin:round;stroke-miterlimit:10;stroke-dasharray:none;stroke-opacity:1"
             d="m 0,0 c 0,-19.969 -16.187,-36.154 -36.154,-36.154 -19.968,0 -36.155,16.185 -36.155,36.154 0,19.967 16.187,36.154 36.155,36.154 C -16.187,36.154 0,19.967 0,0 Z"
             inkscape:connector-curvature="0" /></g><g
           transform="translate(72.458,218.3468)"
           id="g52"><path
             id="path54"
             style="fill:#515151;fill-opacity:1;fill-rule:nonzero;stroke:none"
             d="m 0,0 h -12.485 c -1.379,0 -2.5,1.121 -2.5,2.498 v 16.961 h -16.553 c -1.375,0 -2.497,1.123 -2.497,2.5 v 12.484 c 0,1.379 1.119,2.498 2.497,2.498 h 16.553 v 16.553 c 0,1.381 1.121,2.5 2.5,2.5 H 0 c 1.377,0 2.497,-1.119 2.497,-2.5 V 36.941 h 15.74 c 1.378,0 2.497,-1.119 2.497,-2.498 V 21.959 c 0,-1.377 -1.119,-2.496 -2.497,-2.496 H 2.497 V 2.5 C 2.497,1.121 1.377,0 0,0"
             inkscape:connector-curvature="0" /></g><g
           transform="translate(199.7363,239.8517)"
           id="g56"><path
             id="path58"
             style="fill:#a3a3a3;fill-opacity:1;fill-rule:nonzero;stroke:none"
             d="m 0,0 c 0,-9.864 -7.997,-17.861 -17.861,-17.861 -9.865,0 -17.862,7.997 -17.862,17.86 0,9.865 7.997,17.861 17.862,17.861 C -7.997,17.86 0,9.864 0,0"
             inkscape:connector-curvature="0" /></g><g
           transform="translate(199.7363,239.8517)"
           id="g60"><path
             id="path62"
             style="fill:none;stroke:#a3a3a3;stroke-width:1;stroke-linecap:round;stroke-linejoin:round;stroke-miterlimit:10;stroke-dasharray:none;stroke-opacity:1"
             d="m 0,0 c 0,-9.864 -7.997,-17.861 -17.861,-17.861 -9.865,0 -17.862,7.997 -17.862,17.86 0,9.865 7.997,17.861 17.862,17.861 C -7.997,17.86 0,9.864 0,0 Z"
             inkscape:connector-curvature="0" /></g><g
           transform="translate(221.2363,164.3664)"
           id="g64"><path
             id="path66"
             style="fill:#515151;fill-opacity:1;fill-rule:nonzero;stroke:none"
             d="m 0,0 c 0,-21.738 -17.623,-39.361 -39.361,-39.361 -21.739,0 -39.362,17.623 -39.362,39.361 0,21.738 17.623,39.361 39.362,39.361 C -17.623,39.361 0,21.738 0,0"
             inkscape:connector-curvature="0" /></g><g
           transform="translate(265.9286,226.0507)"
           id="g68"><path
             id="path70"
             style="fill:#a3a3a3;fill-opacity:1;fill-rule:nonzero;stroke:none"
             d="m 0,0 -2.309,-2.23 -8.13,8.416 2.309,2.231 z"
             inkscape:connector-curvature="0" /></g><g
           transform="translate(329.289,264.5109)"
           id="g72"><path
             id="path74"
             style="fill:#a3a3a3;fill-opacity:1;fill-rule:nonzero;stroke:none"
             d="M 0,0 C 0,-14.634 -11.865,-26.499 -26.5,-26.499 -41.135,-26.499 -53,-14.634 -53,0 -53,14.636 -41.135,26.5 -26.5,26.5 -11.865,26.5 0,14.636 0,0"
             inkscape:connector-curvature="0" /></g><g
           transform="translate(328.289,264.5109)"
           id="g76"><path
             id="path78"
             style="fill:#afafaf;fill-opacity:1;fill-rule:nonzero;stroke:none"
             d="M 0,0 C 0,-14.082 -11.417,-25.499 -25.5,-25.499 -39.583,-25.499 -51,-14.082 -51,0 -51,14.084 -39.583,25.5 -25.5,25.5 -11.417,25.5 0,14.084 0,0"
             inkscape:connector-curvature="0" /></g><g
           transform="translate(71.6279,246.3449)"
           id="g80"><path
             id="path82"
             style="fill:#3d3d3d;fill-opacity:1;fill-rule:nonzero;stroke:none"
             d="m 0,0 c 0,-3.215 -2.605,-5.82 -5.82,-5.82 -3.215,0 -5.821,2.605 -5.821,5.82 0,3.215 2.606,5.82 5.821,5.82 C -2.605,5.82 0,3.215 0,0"
             inkscape:connector-curvature="0" /></g><g
           transform="translate(61.3701,233.1164)"
           id="g84"><path
             id="path86"
             style="fill:#3d3d3d;fill-opacity:1;fill-rule:nonzero;stroke:none"
             d="M 0,0 H 8.875 L 4.437,-9.543 Z"
             inkscape:connector-curvature="0" /></g><g
           transform="translate(61.3701,233.1164)"
           id="g88"><path
             id="path90"
             style="fill:none;stroke:#3d3d3d;stroke-width:1;stroke-linecap:butt;stroke-linejoin:round;stroke-miterlimit:10;stroke-dasharray:none;stroke-opacity:1"
             d="M 0,0 H 8.875 L 4.437,-9.543 Z"
             inkscape:connector-curvature="0" /></g><g
           transform="translate(70.2451,259.5734)"
           id="g92"><path
             id="path94"
             style="fill:#3d3d3d;fill-opacity:1;fill-rule:nonzero;stroke:none"
             d="m 0,0 h -8.875 l 4.438,9.543 z"
             inkscape:connector-curvature="0" /></g><g
           transform="translate(70.2451,259.5734)"
           id="g96"><path
             id="path98"
             style="fill:none;stroke:#3d3d3d;stroke-width:1;stroke-linecap:butt;stroke-linejoin:round;stroke-miterlimit:10;stroke-dasharray:none;stroke-opacity:1"
             d="m 0,0 h -8.875 l 4.438,9.543 z"
             inkscape:connector-curvature="0" /></g><g
           transform="translate(52.579,250.7824)"
           id="g100"><path
             id="path102"
             style="fill:#3d3d3d;fill-opacity:1;fill-rule:nonzero;stroke:none"
             d="m 0,0 v -8.875 l -9.543,4.438 z"
             inkscape:connector-curvature="0" /></g><g
           transform="translate(52.579,250.7824)"
           id="g104"><path
             id="path106"
             style="fill:none;stroke:#3d3d3d;stroke-width:1;stroke-linecap:butt;stroke-linejoin:round;stroke-miterlimit:10;stroke-dasharray:none;stroke-opacity:1"
             d="m 0,0 v -8.875 l -9.543,4.438 z"
             inkscape:connector-curvature="0" /></g><g
           transform="translate(79.0361,241.9074)"
           id="g108"><path
             id="path110"
             style="fill:#3d3d3d;fill-opacity:1;fill-rule:nonzero;stroke:none"
             d="M 0,0 V 8.875 L 9.543,4.437 Z"
             inkscape:connector-curvature="0" /></g><g
           transform="translate(79.0361,241.9074)"
           id="g112"><path
             id="path114"
             style="fill:none;stroke:#3d3d3d;stroke-width:1;stroke-linecap:butt;stroke-linejoin:round;stroke-miterlimit:10;stroke-dasharray:none;stroke-opacity:1"
             d="M 0,0 V 8.875 L 9.543,4.437 Z"
             inkscape:connector-curvature="0" /></g><g
           transform="translate(195.8759,239.8517)"
           id="g116"><path
             id="path118"
             style="fill:#ca2e39;fill-opacity:1;fill-rule:nonzero;stroke:none"
             d="m 0,0 c 0,-7.732 -6.269,-14.001 -14.001,-14.001 -7.732,0 -14.001,6.268 -14.001,14 0,7.732 6.269,14.002 14.001,14.002 C -6.269,14.001 0,7.731 0,0"
             inkscape:connector-curvature="0" /></g><g
           transform="translate(262.7031,243.1203)"
           id="g120"><path
             id="path122"
             style="fill:#00935c;fill-opacity:1;fill-rule:nonzero;stroke:none"
             d="m 0,0 c 0,-8.191 -6.642,-14.833 -14.834,-14.833 -8.192,0 -14.834,6.642 -14.834,14.833 0,8.193 6.642,14.834 14.834,14.834 C -6.642,14.834 0,8.193 0,0"
             inkscape:connector-curvature="0" /></g><g
           transform="translate(292.5399,264.5109)"
           id="g124"><path
             id="path126"
             style="fill:#e1c245;fill-opacity:1;fill-rule:nonzero;stroke:none"
             d="m 0,0 c 0,-5.354 -4.34,-9.693 -9.693,-9.693 -5.354,0 -9.694,4.339 -9.694,9.693 0,5.353 4.34,9.693 9.694,9.693 C -4.34,9.693 0,5.353 0,0"
             inkscape:connector-curvature="0" /></g><g
           transform="translate(332.4238,264.5109)"
           id="g128"><path
             id="path130"
             style="fill:#e1c245;fill-opacity:1;fill-rule:nonzero;stroke:none"
             d="m 0,0 c 0,-5.354 -4.34,-9.693 -9.693,-9.693 -5.354,0 -9.694,4.339 -9.694,9.693 0,5.353 4.34,9.693 9.694,9.693 C -4.34,9.693 0,5.353 0,0"
             inkscape:connector-curvature="0" /></g><g
           transform="translate(302.789,254.2628)"
           id="g132"><path
             id="path134"
             style="fill:#e1c245;fill-opacity:1;fill-rule:nonzero;stroke:none"
             d="m 0,0 c 5.353,0 9.693,-4.34 9.693,-9.693 0,-5.354 -4.34,-9.694 -9.693,-9.694 -5.354,0 -9.693,4.34 -9.693,9.694 C -9.693,-4.34 -5.354,0 0,0"
             inkscape:connector-curvature="0" /></g><g
           transform="translate(302.789,294.1476)"
           id="g136"><path
             id="path138"
             style="fill:#e1c245;fill-opacity:1;fill-rule:nonzero;stroke:none"
             d="m 0,0 c 5.353,0 9.693,-4.34 9.693,-9.693 0,-5.354 -4.34,-9.694 -9.693,-9.694 -5.354,0 -9.693,4.34 -9.693,9.694 C -9.693,-4.34 -5.354,0 0,0"
             inkscape:connector-curvature="0" /></g><g
           transform="translate(165.0136,147.8507)"
           id="g140"><path
             id="path142"
             style="fill:#212121;fill-opacity:1;fill-rule:nonzero;stroke:none"
             d="M 0,0 -6.739,16.76 0.347,33.377 17.105,40.116 33.723,33.03 40.462,16.271 33.376,-0.346 16.617,-7.085 Z"
             inkscape:connector-curvature="0" /></g><g
           transform="translate(289.6142,216.3878)"
           id="g144"><path
             id="path146"
             style="fill:#143f9e;fill-opacity:1;fill-rule:nonzero;stroke:none"
             d="m 0,0 c 0,-8.192 -6.642,-14.834 -14.834,-14.834 -8.192,0 -14.834,6.642 -14.834,14.834 0,8.192 6.642,14.834 14.834,14.834 C -6.642,14.834 0,8.192 0,0"
             inkscape:connector-curvature="0" /></g><g
           transform="translate(200.7363,164.3664)"
           id="g148"><path
             id="path150"
             style="fill:#b2b2b2;fill-opacity:1;fill-rule:nonzero;stroke:none"
             d="m 0,0 c 0,-10.417 -8.444,-18.861 -18.861,-18.861 -10.417,0 -18.862,8.443 -18.862,18.861 0,10.416 8.445,18.861 18.862,18.861 C -8.444,18.861 0,10.417 0,0"
             inkscape:connector-curvature="0" /></g><g
           transform="translate(196.6334,164.3664)"
           id="g152"><path
             id="path154"
             style="fill:#a3a3a3;fill-opacity:1;fill-rule:nonzero;stroke:none"
             d="m 0,0 c 0,-8.151 -6.608,-14.759 -14.759,-14.759 -8.15,0 -14.758,6.607 -14.758,14.759 0,8.15 6.608,14.758 14.758,14.758 C -6.608,14.758 0,8.151 0,0"
             inkscape:connector-curvature="0" /></g><g
           transform="translate(195.7363,164.3664)"
           id="g156"><path
             id="path158"
             style="fill:#b2b2b2;fill-opacity:1;fill-rule:nonzero;stroke:none"
             d="m 0,0 c 0,-7.655 -6.206,-13.861 -13.861,-13.861 -7.656,0 -13.862,6.205 -13.862,13.861 0,7.654 6.206,13.861 13.862,13.861 C -6.206,13.861 0,7.655 0,0"
             inkscape:connector-curvature="0" /></g><g
           transform="translate(192.7764,164.3664)"
           id="g160"><path
             id="path162"
             style="fill:#a3a3a3;fill-opacity:1;fill-rule:nonzero;stroke:none"
             d="m 0,0 c 0,-6.021 -4.881,-10.902 -10.902,-10.902 -6.02,0 -10.901,4.881 -10.901,10.902 0,6.02 4.881,10.901 10.901,10.901 C -4.881,10.901 0,6.02 0,0"
             inkscape:connector-curvature="0" /></g><g
           transform="translate(191.8056,164.3664)"
           id="g164"><path
             id="path166"
             style="fill:#b2b2b2;fill-opacity:1;fill-rule:nonzero;stroke:none"
             d="m 0,0 c 0,-5.484 -4.446,-9.931 -9.931,-9.931 -5.484,0 -9.93,4.447 -9.93,9.931 0,5.484 4.446,9.931 9.93,9.931 C -4.446,9.931 0,5.484 0,0"
             inkscape:connector-curvature="0" /></g><g
           transform="translate(188.1641,164.3664)"
           id="g168"><path
             id="path170"
             style="fill:#a3a3a3;fill-opacity:1;fill-rule:nonzero;stroke:none"
             d="m 0,0 c 0,-3.474 -2.816,-6.289 -6.289,-6.289 -3.474,0 -6.289,2.815 -6.289,6.289 0,3.473 2.815,6.289 6.289,6.289 C -2.816,6.289 0,3.473 0,0"
             inkscape:connector-curvature="0" /></g><g
           transform="translate(187.0947,164.3664)"
           id="g172"><path
             id="path174"
             style="fill:#b2b2b2;fill-opacity:1;fill-rule:nonzero;stroke:none"
             d="m 0,0 c 0,-2.883 -2.337,-5.22 -5.22,-5.22 -2.883,0 -5.219,2.337 -5.219,5.22 0,2.883 2.336,5.22 5.219,5.22 C -2.337,5.22 0,2.883 0,0"
             inkscape:connector-curvature="0" /></g><g
           transform="translate(182.9179,299.7648)"
           id="g176"><path
             id="path178"
             style="fill:#a3a3a3;fill-opacity:1;fill-rule:evenodd;stroke:none"
             d="m 0,0 h 31.522 c 0.555,0 1.106,0.039 1.655,0.137 4.401,0.777 7.33,5.144 6.355,9.484 -0.834,3.715 -4.012,6.272 -7.816,6.272 -21.145,0.003 -42.289,10e-4 -63.434,0 -1.866,0 -3.533,-0.579 -5,-1.733 -3.397,-2.674 -3.996,-7.721 -1.3,-11.1 1.652,-2.072 3.83,-3.06 6.47,-3.06 z m -0.001,18.352 c 10.516,0 21.033,-0.004 31.549,0.003 1.947,0.002 3.782,-0.416 5.453,-1.421 2.852,-1.719 4.586,-4.229 5.049,-7.536 0.707,-5.058 -2.253,-9.759 -7.076,-11.343 -1.104,-0.362 -2.239,-0.51 -3.399,-0.51 -18.676,0.002 -37.353,0.002 -56.029,0.002 -2.504,0 -5.008,-0.02 -7.51,0.008 -4.697,0.048 -8.851,3.404 -9.92,7.974 -1.238,5.303 1.717,10.59 6.884,12.309 1.12,0.373 2.272,0.515 3.45,0.515 10.516,-0.003 21.032,-0.001 31.549,-0.001"
             inkscape:connector-curvature="0" /></g><g
           transform="translate(156.4208,305.8742)"
           id="g180"><path
             id="path182"
             style="fill:#a3a3a3;fill-opacity:1;fill-rule:evenodd;stroke:none"
             d="m 0,0 v 0.275 c 0,2.028 0.004,4.053 -0.006,6.08 0,0.219 0.058,0.272 0.272,0.268 C 1.07,6.611 1.876,6.613 2.682,6.621 2.85,6.623 2.898,6.58 2.898,6.408 2.893,3.35 2.893,0.293 2.898,-2.764 c 0,-0.183 -0.048,-0.232 -0.23,-0.23 -0.814,0.01 -1.629,0.01 -2.443,0 -0.174,-0.004 -0.259,0.062 -0.347,0.197 -1.38,2.147 -2.765,4.289 -4.149,6.432 -0.051,0.08 -0.104,0.16 -0.204,0.236 V 3.607 c 0,-2.095 -0.007,-4.191 0.006,-6.287 0.003,-0.273 -0.078,-0.322 -0.329,-0.316 -0.77,0.015 -1.542,0.012 -2.311,0.002 -0.185,-0.002 -0.254,0.031 -0.253,0.238 0.007,3.047 0.007,6.096 -0.001,9.145 0,0.209 0.07,0.234 0.25,0.232 0.875,-0.008 1.75,-0.01 2.625,0.002 0.18,0.002 0.275,-0.063 0.367,-0.209 1.353,-2.141 2.711,-4.281 4.066,-6.42 C -0.036,-0.004 -0.018,-0.002 0,0"
             inkscape:connector-curvature="0" /></g><g
           transform="translate(204.497,306.0304)"
           id="g184"><path
             id="path186"
             style="fill:#a3a3a3;fill-opacity:1;fill-rule:evenodd;stroke:none"
             d="m 0,0 c 0,0.459 0.009,0.92 -0.002,1.377 -0.016,0.654 -0.444,1.1 -1.057,1.117 -0.63,0.02 -1.138,-0.394 -1.162,-1.041 -0.036,-0.959 -0.023,-1.92 -0.006,-2.881 0.008,-0.414 0.258,-0.658 0.677,-0.732 0.282,-0.049 0.568,-0.057 0.853,-0.01 0.447,0.076 0.685,0.336 0.694,0.795 C 0.006,-0.916 -0.001,-0.457 0,0 m 0.002,2.943 c 0,0.944 -0.003,1.842 0.002,2.741 0,0.25 -0.106,0.572 0.04,0.728 C 0.191,6.57 0.519,6.457 0.767,6.459 1.398,6.467 2.031,6.457 2.664,6.465 2.833,6.467 2.901,6.439 2.9,6.246 2.895,3.188 2.895,0.129 2.899,-2.928 2.9,-3.092 2.865,-3.152 2.688,-3.15 c -0.824,0.009 -1.647,0.002 -2.469,0.005 -0.093,0 -0.203,-0.044 -0.226,0.129 -0.018,0.155 -0.128,0.026 -0.174,0.008 -0.512,-0.195 -1.044,-0.316 -1.591,-0.344 -1.308,-0.062 -2.265,0.559 -2.946,1.616 -1.543,2.396 0.032,4.711 1.898,5.203 0.9,0.236 1.748,0.07 2.552,-0.373 0.075,-0.041 0.148,-0.082 0.27,-0.151"
             inkscape:connector-curvature="0" /></g><g
           transform="translate(192.6396,308.5285)"
           id="g188"><path
             id="path190"
             style="fill:#a3a3a3;fill-opacity:1;fill-rule:evenodd;stroke:none"
             d="M 0,0 C 0.326,0.125 0.596,0.295 0.869,0.453 2.543,1.416 4.471,0.65 5.443,-0.809 5.574,-1.008 5.629,-1.23 5.628,-1.475 5.622,-2.859 5.622,-4.244 5.629,-5.629 5.63,-5.799 5.606,-5.869 5.41,-5.867 c -0.84,0.012 -1.679,0.012 -2.519,0.002 -0.184,-0.002 -0.23,0.05 -0.229,0.228 0.008,1.352 0.004,2.703 0.004,4.053 0,0.66 -0.803,1.269 -1.451,1.104 -0.202,-0.053 -0.391,-0.137 -0.576,-0.231 -0.44,-0.221 -0.668,-0.519 -0.652,-1.061 0.038,-1.289 0.008,-2.58 0.017,-3.869 0.002,-0.187 -0.05,-0.226 -0.229,-0.224 -0.814,0.01 -1.628,0.01 -2.442,0 -0.185,-0.004 -0.227,0.05 -0.227,0.23 0.005,2.018 0.006,4.035 0,6.053 0,0.191 0.064,0.223 0.236,0.221 0.805,-0.008 1.61,-0.012 2.416,0.002 C -0.025,0.646 0.023,0.57 0.002,0.381 -0.012,0.264 0,0.145 0,0"
             inkscape:connector-curvature="0" /></g><g
           transform="translate(168.4755,308.7316)"
           id="g192"><path
             id="path194"
             style="fill:#a3a3a3;fill-opacity:1;fill-rule:evenodd;stroke:none"
             d="M 0,0 C 0.264,0.141 0.5,0.246 0.716,0.387 2.094,1.27 3.762,0.949 4.885,-0.115 5.387,-0.592 5.678,-1.113 5.648,-1.846 5.6,-3.082 5.628,-4.322 5.642,-5.561 5.645,-5.809 5.566,-5.857 5.338,-5.852 c -0.797,0.012 -1.594,0.012 -2.391,0 -0.213,-0.005 -0.276,0.049 -0.275,0.268 0.012,1.324 0.006,2.65 0.006,3.975 0,0.728 -0.807,1.332 -1.516,1.132 C 0.971,-0.531 0.791,-0.613 0.615,-0.705 0.201,-0.924 -0.027,-1.211 -0.012,-1.73 c 0.038,-1.272 0.004,-2.547 0.02,-3.819 0.004,-0.262 -0.074,-0.31 -0.317,-0.305 -0.779,0.016 -1.558,0.012 -2.337,0.002 -0.174,-0.002 -0.239,0.036 -0.238,0.225 0.007,2.027 0.005,4.053 10e-4,6.08 0,0.156 0.037,0.205 0.201,0.203 0.823,-0.008 1.645,-0.008 2.467,0 C -0.051,0.658 0.023,0.623 0.004,0.445 -0.011,0.316 0,0.185 0,0"
             inkscape:connector-curvature="0" /></g><g
           transform="translate(211.6552,306.0382)"
           id="g196"><path
             id="path198"
             style="fill:#a3a3a3;fill-opacity:1;fill-rule:evenodd;stroke:none"
             d="m 0,0 h 0.001 c 0,-0.623 -0.008,-1.244 0.003,-1.867 0.007,-0.449 0.225,-0.699 0.664,-0.799 0.229,-0.055 0.464,-0.049 0.697,-0.033 0.564,0.035 0.862,0.328 0.865,0.889 0.01,1.203 0.013,2.404 0,3.607 C 2.225,2.494 1.796,2.918 1.14,2.918 0.436,2.916 0.012,2.504 0.001,1.791 -0.008,1.193 0,0.598 0,0 M 1.158,3.565 C 2.198,3.561 3.17,3.274 4.019,2.627 5.836,1.244 5.877,-1.105 4.115,-2.559 2.475,-3.91 -0.153,-3.924 -1.807,-2.588 c -1.787,1.443 -1.73,3.906 0.123,5.266 0.839,0.613 1.789,0.879 2.842,0.887"
             inkscape:connector-curvature="0" /></g><g
           transform="translate(184.3994,307.1457)"
           id="g200"><path
             id="path202"
             style="fill:#a3a3a3;fill-opacity:1;fill-rule:evenodd;stroke:none"
             d="M 0,0 H 0.416 C 1.166,0 1.166,0 1.115,0.758 1.073,1.365 0.626,1.793 0.01,1.809 -0.607,1.826 -1.041,1.465 -1.107,0.859 -1.133,0.619 -1.111,0.375 -1.121,0.135 -1.126,0.006 -1.057,-0.002 -0.959,0 -0.639,0.002 -0.32,0 0,0 m 1.552,-1.082 c -0.814,0 -1.628,-0.006 -2.441,0.002 -0.173,0.002 -0.24,-0.029 -0.236,-0.221 0.015,-0.537 0.002,-1.074 0.008,-1.609 0.006,-0.563 0.294,-0.86 0.859,-0.897 0.225,-0.015 0.449,-0.019 0.671,0.032 0.468,0.109 0.692,0.382 0.702,0.863 0.006,0.242 0.008,0.484 0,0.726 -0.004,0.123 0.03,0.166 0.157,0.165 0.874,-0.004 1.749,-0.006 2.624,0 C 4.104,-2.02 4.044,-2.127 4.004,-2.233 3.699,-3.023 3.15,-3.602 2.432,-4.033 0.734,-5.051 -1.605,-4.867 -3.08,-3.6 -4.695,-2.209 -4.701,-0.021 -3.092,1.371 -1.397,2.838 1.447,2.816 3.094,1.324 3.734,0.746 4.125,0.037 4.215,-0.834 4.234,-1.023 4.201,-1.092 3.993,-1.088 3.18,-1.076 2.365,-1.082 1.552,-1.082"
             inkscape:connector-curvature="0" /></g><g
           transform="translate(175.8457,306.1476)"
           id="g204"><path
             id="path206"
             style="fill:#a3a3a3;fill-opacity:1;fill-rule:evenodd;stroke:none"
             d="M 0,0 C 0,1.006 -0.005,2.01 0.005,3.014 0.007,3.201 -0.05,3.248 -0.228,3.24 -0.591,3.229 -0.956,3.242 -1.319,3.234 -1.458,3.23 -1.515,3.26 -1.519,3.416 c -0.021,0.691 -0.027,0.691 0.67,0.691 0.225,0 0.451,0.008 0.676,-0.002 C -0.038,4.1 0.007,4.139 0.003,4.279 -0.007,4.615 0.007,4.953 -0.003,5.291 -0.007,5.437 0.038,5.48 0.186,5.479 1.043,5.473 1.9,5.473 2.758,5.479 2.914,5.48 2.971,5.441 2.964,5.277 2.951,4.949 2.968,4.619 2.957,4.291 2.952,4.143 3.001,4.1 3.146,4.105 3.526,4.115 3.908,4.102 4.289,4.111 4.435,4.115 4.475,4.072 4.478,3.926 4.487,3.236 4.493,3.24 3.802,3.236 3.527,3.232 3.163,3.352 3.007,3.184 2.871,3.035 2.962,2.676 2.962,2.408 2.96,0.605 2.957,-1.195 2.966,-2.998 2.967,-3.211 2.914,-3.273 2.696,-3.27 1.874,-3.256 1.05,-3.258 0.228,-3.268 0.048,-3.27 -0.007,-3.227 -0.005,-3.039 0.005,-2.027 0,-1.014 0,0"
             inkscape:connector-curvature="0" /></g><g
           transform="translate(164.0009,306.1359)"
           id="g208"><path
             id="path210"
             style="fill:#a3a3a3;fill-opacity:1;fill-rule:evenodd;stroke:none"
             d="m 0,0 c 0,-1.004 -0.005,-2.01 0.006,-3.014 0.002,-0.195 -0.048,-0.246 -0.243,-0.242 -0.806,0.01 -1.611,0.01 -2.416,0 -0.179,-0.002 -0.235,0.047 -0.235,0.231 0.007,2.017 0.007,4.035 0,6.052 -10e-4,0.19 0.058,0.227 0.234,0.225 0.814,-0.008 1.629,-0.008 2.443,0 C -0.045,3.254 0.006,3.213 0.005,3.039 -0.004,2.025 0,1.014 0,0"
             inkscape:connector-curvature="0" /></g><g
           transform="translate(162.5498,310.7668)"
           id="g212"><path
             id="path214"
             style="fill:#a3a3a3;fill-opacity:1;fill-rule:evenodd;stroke:none"
             d="m 0,0 c -0.416,0 -0.832,0.004 -1.248,-0.004 -0.148,-0.004 -0.19,0.045 -0.188,0.189 0.008,0.46 0.006,0.92 0,1.379 0,0.12 0.03,0.164 0.16,0.164 0.856,-0.005 1.714,-0.005 2.572,0 0.127,0 0.16,-0.041 0.159,-0.162 C 1.448,1.098 1.446,0.631 1.455,0.162 1.459,0.014 1.398,-0.006 1.273,-0.004 0.848,0.002 0.424,0 0,0"
             inkscape:connector-curvature="0" /></g><g
           transform="translate(217.4091,309.7277)"
           id="g216"><path
             id="path218"
             style="fill:#a3a3a3;fill-opacity:1;fill-rule:evenodd;stroke:none"
             d="M 0,0 C 0.674,-0.006 1.266,0.576 1.27,1.248 1.273,1.965 0.697,2.574 0.014,2.574 -0.697,2.576 -1.232,2.014 -1.234,1.264 -1.237,0.555 -0.699,0.004 0,0 M 0.005,2.81 C 0.805,2.813 1.498,2.094 1.5,1.258 1.501,0.471 0.794,-0.24 0.01,-0.24 c -0.807,0 -1.483,0.679 -1.485,1.494 -0.002,0.857 0.661,1.555 1.48,1.556"
             inkscape:connector-curvature="0" /></g><g
           transform="translate(217.3632,311.0382)"
           id="g220"><path
             id="path222"
             style="fill:#a3a3a3;fill-opacity:1;fill-rule:evenodd;stroke:none"
             d="M 0,0 C 0.179,-0.017 0.332,-0.008 0.335,0.219 0.341,0.475 0.162,0.461 -0.02,0.475 -0.223,0.494 -0.253,0.418 -0.261,0.233 -0.27,0.006 -0.181,-0.039 0,0 m -0.49,0.035 c -0.001,0.043 -0.005,0.088 0.001,0.131 0.017,0.176 -0.087,0.445 0.051,0.508 0.214,0.094 0.494,0.072 0.735,-0.008 0.286,-0.098 0.382,-0.525 0.152,-0.758 -0.124,-0.127 -0.1,-0.203 -0.024,-0.322 0.045,-0.07 0.137,-0.152 -0.01,-0.231 -0.154,-0.08 -0.142,0.071 -0.193,0.129 -0.039,0.047 -0.069,0.102 -0.092,0.157 -0.063,0.146 -0.189,0.093 -0.293,0.092 -0.15,0 -0.076,-0.124 -0.088,-0.194 -0.011,-0.084 0.018,-0.176 -0.123,-0.174 -0.139,0.002 -0.115,0.094 -0.116,0.178 -0.001,0.164 0,0.328 0,0.492"
             inkscape:connector-curvature="0" /></g><g
           transform="translate(254.1093,337.8449)"
           id="g224"><path
             id="path226"
             style="fill:#a3a3a3;fill-opacity:1;fill-rule:nonzero;stroke:none"
             d="M 0,0 -6.24,-75.75 9,-17.5 Z"
             inkscape:connector-curvature="0" /></g><g
           transform="translate(111.7021,337.8449)"
           id="g228"><path
             id="path230"
             style="fill:#a3a3a3;fill-opacity:1;fill-rule:nonzero;stroke:none"
             d="M 0,0 6.24,-75.75 -9,-17.5 Z"
             inkscape:connector-curvature="0" /></g></g></g></g></svg>