<?xml version="1.0" encoding="UTF-8" standalone="no"?>
<!-- Generator: Adobe Illustrator 13.0.0, SVG Export Plug-In . SVG Version: 6.00 Build 14948)  -->

<svg
   xmlns:ns="&amp;ns_sfw;"
   xmlns:dc="http://purl.org/dc/elements/1.1/"
   xmlns:cc="http://creativecommons.org/ns#"
   xmlns:rdf="http://www.w3.org/1999/02/22-rdf-syntax-ns#"
   xmlns:svg="http://www.w3.org/2000/svg"
   xmlns="http://www.w3.org/2000/svg"
   xmlns:sodipodi="http://sodipodi.sourceforge.net/DTD/sodipodi-0.dtd"
   xmlns:inkscape="http://www.inkscape.org/namespaces/inkscape"
   version="1.2"
   id="Ebene_2"
   x="0px"
   y="0px"
   width="566.92902"
   height="69.7005"
   viewBox="0 0 566.929 69.700502"
   xml:space="preserve"
   sodipodi:docname="logo.svg"
   inkscape:version="0.92.2 (5c3e80d, 2017-08-06)"><defs
     id="defs39" /><sodipodi:namedview
     pagecolor="#ffffff"
     bordercolor="#666666"
     borderopacity="1"
     objecttolerance="10"
     gridtolerance="10"
     guidetolerance="10"
     inkscape:pageopacity="0"
     inkscape:pageshadow="2"
     inkscape:window-width="1920"
     inkscape:window-height="1017"
     id="namedview37"
     showgrid="false"
     fit-margin-top="0"
     fit-margin-left="0"
     fit-margin-right="0"
     fit-margin-bottom="0"
     inkscape:zoom="0.61559735"
     inkscape:cx="283.46451"
     inkscape:cy="46.467001"
     inkscape:window-x="-8"
     inkscape:window-y="-8"
     inkscape:window-maximized="1"
     inkscape:current-layer="Ebene_2" /><metadata
     id="metadata2"><ns:sfw><ns:slices /><ns:sliceSourceBounds
         x="677.036"
         y="493.033"
         width="566.929"
         height="92.934"
         bottomLeftOrigin="true" /></ns:sfw><rdf:RDF><cc:Work
         rdf:about=""><dc:format>image/svg+xml</dc:format><dc:type
           rdf:resource="http://purl.org/dc/dcmitype/StillImage" /><dc:title></dc:title></cc:Work></rdf:RDF></metadata><g
     id="g34"
     transform="scale(1,0.75)"><g
       id="g14"><path
         d="m 162.729,4.833 c 3.574,-4.573 10.968,-5.354 15.352,-1.521 1.792,1.512 3.048,3.597 3.689,5.837 8.115,27.926 16.267,55.834 24.372,83.762 -4.791,0.003 -9.582,-0.008 -14.371,0.003 -2.258,-7.694 -4.463,-15.41 -6.693,-23.114 -9.26,-0.027 -18.519,-0.008 -27.777,-0.011 -2.269,7.701 -4.505,15.411 -6.733,23.13 -4.763,-0.021 -9.525,-0.008 -14.29,-0.011 7.71,-26.638 15.428,-53.272 23.175,-79.901 0.921,-2.786 1.265,-5.9 3.276,-8.174 m 8.454,17.11 c -3.396,11.568 -6.723,23.16 -10.098,34.734 6.73,0.03 13.458,0.011 20.186,0.011 -3.368,-11.581 -6.72,-23.163 -10.088,-34.745 z"
         id="path4"
         inkscape:connector-curvature="0"
         style="fill:#686868" /><path
         d="m 263.614,5.434 c 2.495,-3.62 7.32,-5.379 11.567,-4.261 3.89,0.896 6.865,4.248 7.893,8.021 8.106,27.905 16.241,55.798 24.345,83.694 -4.793,0.043 -9.588,0 -14.383,0.021 -2.229,-7.704 -4.437,-15.423 -6.683,-23.122 -9.245,0.003 -18.489,-0.021 -27.733,0.006 -2.21,7.713 -4.487,15.405 -6.698,23.113 -4.759,0.003 -9.517,0 -14.274,0.003 7.704,-26.78 15.501,-53.539 23.268,-80.305 0.817,-2.417 1.13,-5.081 2.698,-7.17 m -1.166,51.254 c 6.702,0.01 13.401,0.003 20.102,0.003 -3.332,-11.604 -6.719,-23.191 -10.045,-34.8 -3.347,11.6 -6.728,23.192 -10.057,34.797 z"
         id="path6"
         inkscape:connector-curvature="0"
         style="fill:#686868" /><path
         d="m 195.418,1.034 c 17.325,0 34.65,0 51.97,0 0,4.675 0,9.344 0,14.018 -6.378,0.005 -12.755,-0.007 -19.131,0.005 0,25.952 0.004,51.902 -0.003,77.854 -4.566,0 -9.139,0 -13.706,0 0,-25.951 -0.004,-51.901 0.004,-77.854 -6.379,-0.012 -12.755,0 -19.133,-0.005 -0.001,-4.673 -0.004,-9.344 -0.001,-14.018 z"
         id="path8"
         inkscape:connector-curvature="0"
         style="fill:#686868" /><path
         d="m 322.652,1.604 c 1.316,-0.455 2.721,-0.608 4.111,-0.577 5.461,0.021 10.922,0.005 16.389,0.009 9.197,0.168 17.979,5.88 21.961,14.157 2.756,5.377 3.041,11.633 2.344,17.53 -0.475,6.176 -3.068,12.35 -7.814,16.44 -2.508,2.236 -5.631,3.592 -8.313,5.578 -1.475,1.126 -1.545,3.302 -0.785,4.859 7.25,11.194 14.789,22.207 22.189,33.309 -5.412,0.011 -10.824,-0.016 -16.238,0.011 -7.088,-10.646 -14.104,-21.344 -21.16,-32 -2.074,-3.031 -2.637,-7.051 -1.396,-10.518 0.971,-2.652 3.293,-4.599 5.877,-5.599 4.936,-1.882 9.799,-4.842 12.533,-9.498 2.076,-3.503 1.973,-7.816 1.039,-11.647 -1.098,-4.974 -5.943,-8.89 -11.061,-8.716 -3.543,0.024 -7.08,-0.021 -10.615,0.018 -1.6,-0.037 -3.105,1.353 -3.086,2.979 -0.018,24.99 0.01,49.985 -0.006,74.979 -4.605,-0.008 -9.203,0 -13.809,-0.008 -0.01,-26.902 0.01,-53.814 -0.01,-80.719 0.024,-4.716 3.377,-9.154 7.85,-10.587 z"
         id="path10"
         inkscape:connector-curvature="0"
         style="fill:#686868" /><path
         d="m 379.968,1.034 c 4.842,0 9.684,0 14.529,0 -0.006,30.63 0.004,61.251 -0.01,91.876 -4.84,-0.013 -9.68,0 -14.521,-0.003 0.002,-30.625 0.002,-61.246 0.002,-91.873 z"
         id="path12"
         inkscape:connector-curvature="0"
         style="fill:#686868" /></g><g
       id="g26"><path
         d="m 40.963,0.865 c 2.326,-0.009 4.651,0 6.981,-0.006 0.008,5.472 0,10.942 0.003,16.41 0.021,4.567 -0.106,9.131 -0.295,13.694 -0.312,6.586 -0.725,13.188 -1.814,19.696 -0.75,4.486 -2.305,8.819 -4.229,12.932 -3.142,6.622 -8.081,12.226 -13.632,16.938 -4.964,4.37 -10.892,7.555 -17.126,9.701 C 7.324,91.455 3.694,92.386 0,92.91 0.003,88.322 0.003,83.729 0,79.143 c 4.449,-0.67 8.726,-2.249 12.696,-4.337 4.712,-2.492 8.954,-5.841 12.526,-9.794 3.688,-4.077 6.626,-8.801 8.856,-13.813 2.627,-5.765 4.033,-11.994 4.989,-18.229 1.198,-7.927 1.697,-15.951 1.882,-23.958 0.03,-2.713 0.007,-5.429 0.014,-8.147 z"
         id="path16"
         inkscape:connector-curvature="0"
         style="fill:#686868" /><path
         d="m 50.75,0.875 c 4.283,-0.028 8.565,-0.003 12.85,-0.01 10e-4,30.68 10e-4,61.362 0,92.042 -4.274,0.011 -8.547,-0.021 -12.82,0.021 C 50.728,83.147 50.773,73.357 50.758,63.577 50.752,42.678 50.766,21.778 50.75,0.875 Z"
         id="path18"
         inkscape:connector-curvature="0"
         style="fill:#686868" /><path
         d="m 66.458,0.865 c 2.315,-0.006 4.627,-0.009 6.939,0 -0.076,9.354 0.244,18.729 1.358,28.021 0.913,7.22 2.201,14.494 5.076,21.218 2.725,6.505 6.654,12.555 11.774,17.433 4.892,4.663 10.814,8.248 17.252,10.309 1.796,0.571 3.632,1.021 5.501,1.299 -0.001,4.586 -0.004,9.171 0,13.757 -3.669,-0.499 -7.267,-1.444 -10.769,-2.636 C 99.42,88.817 95.387,86.937 91.682,84.524 88.978,82.793 86.519,80.71 84.158,78.539 80.264,74.944 76.781,70.869 74.162,66.245 72.116,62.645 70.622,58.759 69.451,54.797 68.378,50.814 67.923,46.69 67.506,42.596 66.701,33.741 66.4,24.843 66.456,15.956 c 0.002,-5.033 0,-10.061 0.002,-15.091 z"
         id="path20"
         inkscape:connector-curvature="0"
         style="fill:#686868" /><path
         d="m 50.75,0.875 c 0.015,20.9 0.003,41.803 0.008,62.7 0.014,9.778 -0.032,19.565 0.022,29.352 4.272,-0.039 8.547,-0.01 12.82,-0.021 10e-4,-30.68 10e-4,-61.361 0,-92.047 -4.283,0.013 -8.566,-0.011 -12.85,0.016"
         id="path22"
         inkscape:connector-curvature="0"
         style="fill:#686868" /><path
         d="m 66.458,0.865 c -0.002,5.026 0,10.058 0,15.085 -0.057,8.884 0.245,17.781 1.05,26.64 0.417,4.094 0.872,8.218 1.945,12.201 1.169,3.962 2.665,7.851 4.711,11.448 2.618,4.622 6.102,8.699 9.996,12.294 2.363,2.174 4.82,4.254 7.524,5.985 3.705,2.413 7.738,4.29 11.907,5.742 3.501,1.189 7.1,2.134 10.769,2.636 -0.004,-4.586 -0.001,-9.171 0,-13.757 -1.867,-0.272 -3.706,-0.728 -5.501,-1.299 C 102.421,75.779 96.498,72.194 91.607,67.531 86.487,62.659 82.558,56.605 79.833,50.098 76.958,43.374 75.67,36.1 74.757,28.88 73.642,19.589 73.323,10.214 73.399,0.859 71.084,0.858 68.771,0.861 66.458,0.865"
         id="path24"
         inkscape:connector-curvature="0"
         style="fill:#686868" /></g><g
       id="g32"><path
         d="m 432.912,59.248 1.672,1.313 c 5.854,4.538 12.9,8.242 20.426,8.242 3.229,0 8.361,-1.313 8.361,-5.377 0,-4.061 -4.301,-4.418 -7.285,-5.016 l -6.572,-1.193 C 436.737,54.947 425.987,47.42 425.987,33.324 425.982,11.945 445.455,0 465.044,0 c 10.27,0 19.707,2.508 28.547,7.884 l -8.84,23.054 c -5.613,-3.819 -11.943,-6.808 -18.99,-6.808 -2.867,0 -7.049,1.073 -7.049,4.776 0,3.346 4.063,3.821 6.568,4.419 L 472.687,35 c 13.855,3.104 23.891,10.511 23.891,25.801 0,21.5 -19.59,32.133 -39.061,32.133 -11.35,0 -24.486,-3.105 -34.641,-8.243 z"
         id="path28"
         inkscape:connector-curvature="0"
         style="fill:#686868" /><path
         d="m 498.126,1.433 h 68.803 V 26.7 l -18.037,0.051 V 91.5 H 516.163 V 26.75 L 498.126,26.7 Z"
         id="path30"
         inkscape:connector-curvature="0"
         style="fill:#686868" /></g></g></svg>