<?xml version="1.0" encoding="UTF-8" standalone="no"?>
<svg
   xmlns:dc="http://purl.org/dc/elements/1.1/"
   xmlns:cc="http://creativecommons.org/ns#"
   xmlns:rdf="http://www.w3.org/1999/02/22-rdf-syntax-ns#"
   xmlns:svg="http://www.w3.org/2000/svg"
   xmlns="http://www.w3.org/2000/svg"
   xmlns:sodipodi="http://sodipodi.sourceforge.net/DTD/sodipodi-0.dtd"
   xmlns:inkscape="http://www.inkscape.org/namespaces/inkscape"
   viewBox="0 0 420.0611 180.11063"
   height="180.11063"
   width="420.0611"
   xml:space="preserve"
   version="1.1"
   id="svg2"
   sodipodi:docname="console.svg"
   inkscape:version="0.92.2 (5c3e80d, 2017-08-06)"><sodipodi:namedview
     pagecolor="#ffffff"
     bordercolor="#666666"
     borderopacity="1"
     objecttolerance="10"
     gridtolerance="10"
     guidetolerance="10"
     inkscape:pageopacity="0"
     inkscape:pageshadow="2"
     inkscape:window-width="1920"
     inkscape:window-height="1017"
     id="namedview77"
     showgrid="false"
     fit-margin-top="0"
     fit-margin-left="0"
     fit-margin-right="0"
     fit-margin-bottom="0"
     inkscape:zoom="0.83083122"
     inkscape:cx="210.03062"
     inkscape:cy="120.07375"
     inkscape:window-x="-8"
     inkscape:window-y="-8"
     inkscape:window-maximized="1"
     inkscape:current-layer="svg2" /><metadata
     id="metadata8"><rdf:RDF><cc:Work
         rdf:about=""><dc:format>image/svg+xml</dc:format><dc:type
           rdf:resource="http://purl.org/dc/dcmitype/StillImage" /><dc:title></dc:title></cc:Work></rdf:RDF></metadata><defs
     id="defs6"><clipPath
       id="clipPath16"
       clipPathUnits="userSpaceOnUse"><path
         id="path18"
         d="M 0,192.118 H 336.049 V 0 H 0 Z"
         inkscape:connector-curvature="0" /></clipPath></defs><g
     transform="matrix(1.25,0,0,-0.9375,0,180.11062)"
     id="g10"><g
       id="g12"><g
         clip-path="url(#clipPath16)"
         id="g14"><g
           transform="translate(13.0227,160.331)"
           id="g20"><path
             id="path22"
             style="fill:#bbbbb9;fill-opacity:1;fill-rule:nonzero;stroke:none"
             d="m 0,0 -3.828,1.855 c 0,0 6.488,14.735 19.021,17.751 12.534,3.016 51.166,6.613 51.166,6.613 z"
             inkscape:connector-curvature="0" /></g><g
           transform="translate(12.8782,153.4863)"
           id="g24"><path
             id="path26"
             style="fill:#bbbbb9;fill-opacity:1;fill-rule:nonzero;stroke:none"
             d="m 0,0 -5.308,-0.957 c 0,0 -9.223,-66.736 -7.309,-100.67 0.348,-17.576 16.619,-25.58 17.664,-25.668 1.043,-0.087 4.35,0.522 7.308,2.697 C 11.05,-123.379 0,0 0,0"
             inkscape:connector-curvature="0" /></g><g
           transform="translate(323.0256,160.331)"
           id="g28"><path
             id="path30"
             style="fill:#bbbbb9;fill-opacity:1;fill-rule:nonzero;stroke:none"
             d="m 0,0 3.829,1.855 c 0,0 -6.488,14.735 -19.021,17.751 -12.535,3.016 -51.166,6.613 -51.166,6.613 z"
             inkscape:connector-curvature="0" /></g><g
           transform="translate(323.1712,153.4863)"
           id="g32"><path
             id="path34"
             style="fill:#bbbbb9;fill-opacity:1;fill-rule:nonzero;stroke:none"
             d="m 0,0 5.307,-0.957 c 0,0 9.224,-66.736 7.309,-100.67 -0.349,-17.576 -16.618,-25.58 -17.663,-25.668 -1.044,-0.087 -4.351,0.522 -7.308,2.697 C -11.051,-123.379 0,0 0,0"
             inkscape:connector-curvature="0" /></g><g
           transform="translate(169.8572)"
           id="g36"><path
             id="path38"
             style="fill:#595eb0;fill-opacity:1;fill-rule:nonzero;stroke:none"
             d="m 0,0 c 27.321,0 69.259,5.744 77.787,7.137 8.526,1.392 21.23,10.093 29.409,11.136 8.179,1.045 29.757,6.788 39.153,10.616 9.398,3.828 16.248,13.138 16.184,24.189 -0.079,13.922 0.283,46.158 -7.918,106.108 -0.496,3.628 -3.621,9.561 -11.398,10.426 -9.136,1.015 -20.765,3.48 -33.063,8.005 -15.546,6.032 -24.015,14.501 -36.544,14.501 H -77.678 c -12.529,0 -20.997,-8.469 -36.543,-14.501 -12.298,-4.525 -23.928,-6.99 -33.064,-8.005 -7.776,-0.865 -10.901,-6.798 -11.398,-10.426 -8.199,-59.95 -7.838,-92.186 -7.918,-106.108 -0.064,-11.051 6.787,-20.361 16.184,-24.189 9.397,-3.828 30.975,-9.571 39.154,-10.616 8.179,-1.043 20.882,-9.744 29.409,-11.136 C -73.327,5.744 -31.389,0 -4.067,0 Z"
             inkscape:connector-curvature="0" /></g><g
           transform="translate(167.823,171.9316)"
           id="g40"><path
             id="path42"
             style="fill:#201e1e;fill-opacity:1;fill-rule:nonzero;stroke:none"
             d="m 0,0 c 39.1,0 66.476,-3.307 71.522,-4.176 5.047,-0.871 10.093,-3.481 11.485,-11.66 1.392,-8.178 7.135,-97.449 5.568,-108.413 -1.565,-10.963 -8.178,-16.88 -19.489,-19.489 -11.312,-2.611 -48.029,-9.224 -69.086,-9.399 -21.056,0.175 -57.773,6.788 -69.085,9.399 -11.312,2.609 -17.924,8.526 -19.49,19.489 -1.566,10.964 4.176,100.235 5.568,108.413 1.392,8.179 6.439,10.789 11.485,11.66 C -66.476,-3.307 -39.1,0 0,0"
             inkscape:connector-curvature="0" /></g><g
           transform="translate(50.1516,91.5292)"
           id="g44"><path
             id="path46"
             style="fill:#bbbbb9;fill-opacity:1;fill-rule:nonzero;stroke:none"
             d="m 0,0 h -9.544 c -1.054,0 -1.911,0.854 -1.911,1.908 v 12.967 h -12.653 c -1.053,0 -1.91,0.858 -1.91,1.91 v 9.544 c 0,1.054 0.856,1.91 1.91,1.91 h 12.653 v 12.654 c 0,1.054 0.857,1.911 1.911,1.911 H 0 c 1.052,0 1.91,-0.857 1.91,-1.911 V 28.239 h 12.031 c 1.053,0 1.91,-0.856 1.91,-1.91 v -9.544 c 0,-1.052 -0.857,-1.908 -1.91,-1.908 H 1.91 V 1.91 C 1.91,0.854 1.054,0 0,0"
             inkscape:connector-curvature="0" /></g><g
           transform="translate(71.6453,71.1601)"
           id="g48"><path
             id="path50"
             style="fill:#394494;fill-opacity:1;fill-rule:nonzero;stroke:none"
             d="m 0,0 c 1.817,-1.496 2.743,-3.936 2.193,-6.389 -0.78,-3.47 -4.227,-5.65 -7.695,-4.869 l -24.642,5.94 c -3.471,0.78 -5.652,4.225 -4.874,7.696 0.781,3.47 4.227,5.651 7.696,4.87 L -2.678,1.309 C -1.663,1.078 -0.753,0.621 0,0"
             inkscape:connector-curvature="0" /></g><g
           transform="translate(70.7693,51.9248)"
           id="g52"><path
             id="path54"
             style="fill:#394494;fill-opacity:1;fill-rule:nonzero;stroke:none"
             d="m 0,0 c 1.816,-1.495 2.742,-3.938 2.192,-6.387 -0.78,-3.472 -4.226,-5.651 -7.695,-4.872 l -24.642,5.94 c -3.471,0.782 -5.652,4.226 -4.874,7.697 0.782,3.469 4.228,5.652 7.697,4.87 L -2.678,1.309 C -1.664,1.079 -0.754,0.621 0,0"
             inkscape:connector-curvature="0" /></g><g
           transform="translate(73.1194,66.1523)"
           id="g56"><path
             id="path58"
             style="fill:#bbbbb9;fill-opacity:1;fill-rule:nonzero;stroke:none"
             d="m 0,0 c 0,-2.98 -2.415,-5.396 -5.396,-5.396 -2.981,0 -5.398,2.416 -5.398,5.396 0,2.981 2.417,5.398 5.398,5.398 C -2.415,5.398 0,2.981 0,0"
             inkscape:connector-curvature="0" /></g><g
           transform="translate(72.3303,46.8486)"
           id="g60"><path
             id="path62"
             style="fill:#bbbbb9;fill-opacity:1;fill-rule:nonzero;stroke:none"
             d="m 0,0 c 0,-2.982 -2.417,-5.398 -5.397,-5.398 -2.981,0 -5.396,2.416 -5.396,5.398 0,2.979 2.415,5.395 5.396,5.395 C -2.417,5.395 0,2.979 0,0"
             inkscape:connector-curvature="0" /></g><g
           transform="translate(288.9763,107.9843)"
           id="g64"><path
             id="path66"
             style="fill:#bbbbb9;fill-opacity:1;fill-rule:nonzero;stroke:none"
             d="m 0,0 c 0,-5.929 -4.807,-10.733 -10.734,-10.733 -5.929,0 -10.733,4.804 -10.733,10.733 0,5.928 4.804,10.732 10.733,10.732 C -4.807,10.732 0,5.928 0,0"
             inkscape:connector-curvature="0" /></g><g
           transform="translate(319.5901,118.7167)"
           id="g68"><path
             id="path70"
             style="fill:#bbbbb9;fill-opacity:1;fill-rule:nonzero;stroke:none"
             d="m 0,0 c 0,-5.928 -4.807,-10.732 -10.735,-10.732 -5.927,0 -10.732,4.804 -10.732,10.732 0,5.93 4.805,10.734 10.732,10.734 C -4.807,10.734 0,5.93 0,0"
             inkscape:connector-curvature="0" /></g><g
           transform="translate(281.4939,158.998)"
           id="g72"><path
             id="path74"
             style="fill:#6dc847;fill-opacity:1;fill-rule:nonzero;stroke:none"
             d="m 0,0 c 0,-1.795 -1.456,-3.251 -3.252,-3.251 -1.795,0 -3.249,1.456 -3.249,3.251 0,1.796 1.454,3.25 3.249,3.25 C -1.456,3.25 0,1.796 0,0"
             inkscape:connector-curvature="0" /></g><g
           transform="translate(281.4939,158.998)"
           id="g76"><path
             id="path78"
             style="fill:none;stroke:#6dc847;stroke-width:0.105;stroke-linecap:butt;stroke-linejoin:miter;stroke-miterlimit:10;stroke-dasharray:none;stroke-opacity:1"
             d="m 0,0 c 0,-1.795 -1.456,-3.251 -3.252,-3.251 -1.795,0 -3.249,1.456 -3.249,3.251 0,1.796 1.454,3.25 3.249,3.25 C -1.456,3.25 0,1.796 0,0 Z"
             inkscape:connector-curvature="0" /></g><g
           transform="translate(267.989,63.6054)"
           id="g80"><path
             id="path82"
             style="fill:none;stroke:#2d3867;stroke-width:2.78399992;stroke-linecap:round;stroke-linejoin:miter;stroke-miterlimit:10;stroke-dasharray:none;stroke-opacity:1"
             d="M 0,0 35.24,8.701"
             inkscape:connector-curvature="0" /></g><g
           transform="translate(267.989,56.1855)"
           id="g84"><path
             id="path86"
             style="fill:none;stroke:#2d3867;stroke-width:2.78399992;stroke-linecap:round;stroke-linejoin:miter;stroke-miterlimit:10;stroke-dasharray:none;stroke-opacity:1"
             d="M 0,0 35.24,8.701"
             inkscape:connector-curvature="0" /></g><g
           transform="translate(267.989,48.7656)"
           id="g88"><path
             id="path90"
             style="fill:none;stroke:#2d3867;stroke-width:2.78399992;stroke-linecap:round;stroke-linejoin:miter;stroke-miterlimit:10;stroke-dasharray:none;stroke-opacity:1"
             d="M 0,0 35.24,8.7"
             inkscape:connector-curvature="0" /></g><g
           transform="translate(267.989,41.3457)"
           id="g92"><path
             id="path94"
             style="fill:none;stroke:#2d3867;stroke-width:2.78399992;stroke-linecap:round;stroke-linejoin:miter;stroke-miterlimit:10;stroke-dasharray:none;stroke-opacity:1"
             d="M 0,0 35.24,8.699"
             inkscape:connector-curvature="0" /></g><g
           transform="translate(41.3704,124.5117)"
           id="g96"><path
             id="path98"
             style="fill:#8f9295;fill-opacity:1;fill-rule:nonzero;stroke:none"
             d="M 0,0 H 7.395 L 3.557,7.223 Z"
             inkscape:connector-curvature="0" /></g><g
           transform="translate(48.7659,101.455)"
           id="g100"><path
             id="path102"
             style="fill:#8f9295;fill-opacity:1;fill-rule:nonzero;stroke:none"
             d="m 0,0 h -7.395 l 3.837,-7.223 z"
             inkscape:connector-curvature="0" /></g><g
           transform="translate(56.5969,116.6806)"
           id="g104"><path
             id="path106"
             style="fill:#8f9295;fill-opacity:1;fill-rule:nonzero;stroke:none"
             d="m 0,0 v -7.396 l 7.222,3.838 z"
             inkscape:connector-curvature="0" /></g><g
           transform="translate(33.5393,109.2851)"
           id="g108"><path
             id="path110"
             style="fill:#8f9295;fill-opacity:1;fill-rule:nonzero;stroke:none"
             d="M 0,0 V 7.396 L -7.222,3.558 Z"
             inkscape:connector-curvature="0" /></g><g
           transform="translate(155.0803,45.7031)"
           id="g112"><path
             id="path114"
             style="fill:#110f0d;fill-opacity:1;fill-rule:nonzero;stroke:none"
             d="m 0,0 c 1.211,0 1.959,-0.521 2.67,-1.354 0.259,0.243 0.539,0.459 0.838,0.643 0.751,0.461 1.581,0.696 2.41,0.699 l 11.238,0.001 -0.748,-1.155 14.133,0.011 1.286,-2.182 1.163,2.159 9.38,-0.006 2.329,-1.795 v 1.795 H 62.357 V -9.479 H 46.062 l -2.369,1.809 v -1.81 l -13.2,0.001 v -0.005 l -0.898,1.431 C 28.871,-8.854 27.575,-9.48 25.45,-9.48 L 12.521,-9.486 12.337,-10.654 H 7.805 l 0.104,0.642 C 7.863,-10.039 7.82,-10.071 7.774,-10.098 6.73,-10.74 5.531,-10.951 4.4,-10.695 c -0.867,0.197 -1.618,0.651 -2.204,1.279 -0.761,-0.738 -1.786,-1.223 -2.763,-1.223 l -22.245,-0.015 -0.357,1.996 -0.913,-1.996 h -3.709 c -1.169,-0.196 -2.346,-0.025 -3.392,0.502 -1.45,0.728 -2.406,2.05 -2.557,3.534 -0.251,2.47 0.711,4.438 2.781,5.698 1.988,1.213 4.1,1.449 6.277,0.707 l 0.4,-0.139 0.153,0.341 h 4.156 l 0.314,-1.854 0.614,1.854 L 0,0"
             inkscape:connector-curvature="0" /></g><g
           transform="translate(180.2888,38.9375)"
           id="g116"><path
             id="path118"
             style="fill:#ffffff;fill-opacity:1;fill-rule:nonzero;stroke:none"
             d="M 0,0 H -1.492 V 2.971 H 0.61 C 1.746,2.971 2.276,2.518 2.276,1.548 2.276,0.393 1.701,0 0,0 M 10.361,4.217 H 8.646 L 8.6,4.134 6.636,0.625 4.552,4.137 4.505,4.217 H 2.663 L 2.813,3.973 3.168,3.398 C 2.601,3.929 1.729,4.217 0.597,4.217 h -3.706 v -4.562 l -2.746,4.479 -0.046,0.077 h -1.42 l -0.046,-0.078 -3.125,-5.176 -0.146,-0.242 h 1.228 v -0.002 h 2.73 v 1.216 h -1.607 l 1.608,2.85 2.27,-3.982 0.047,-0.082 h 1.83 l -0.003,0.006 h 2.808 c 2.422,0 3.654,0.931 3.654,2.765 0,0.319 -0.043,0.614 -0.124,0.881 L 6,-1.203 6.049,-1.279 H 7.12 l 0.047,0.08 3.051,5.174 0.143,0.242"
             inkscape:connector-curvature="0" /></g><g
           transform="translate(201.3489,43.1542)"
           id="g120"><path
             id="path122"
             style="fill:#ffffff;fill-opacity:1;fill-rule:nonzero;stroke:none"
             d="M 0,0 H -0.164 V -3.27 L -4.367,-0.033 -4.411,0 h -1.101 v -4.564 l -2.751,4.484 -0.048,0.077 h -1.416 l -0.048,-0.079 -3.124,-5.175 -0.146,-0.243 h 1.664 l 0.005,0.006 h 2.292 v 1.216 h -1.606 l 1.605,2.842 2.269,-3.982 0.046,-0.082 h 1.83 l -10e-4,0.004 h 0.925 v 3.314 L 0.17,-5.463 0.214,-5.496 h 1.1 V 0 Z"
             inkscape:connector-curvature="0" /></g><g
           transform="translate(207.9612,43.1523)"
           id="g124"><path
             id="path126"
             style="fill:#ffffff;fill-opacity:1;fill-rule:nonzero;stroke:none"
             d="M 0,0 H -3.275 C -4.427,0 -4.814,-0.349 -4.814,-1.387 V -4.11 c 0,-1.033 0.387,-1.384 1.539,-1.384 H 0 c 1.152,0 1.541,0.351 1.541,1.384 v 0.772 H 1.377 L 0.088,-3.334 H -0.077 V -4.18 H -3.2 v 2.902 h 3.123 v -0.763 h 0.165 l 1.288,-0.008 h 0.165 v 0.662 C 1.541,-0.336 1.167,0 0,0"
             inkscape:connector-curvature="0" /></g><g
           transform="translate(215.8977,38.9375)"
           id="g128"><path
             id="path130"
             style="fill:#ffffff;fill-opacity:1;fill-rule:nonzero;stroke:none"
             d="m 0,0 h -4.253 v 0.965 h 2.538 V 2.178 H -4.253 V 2.972 H 0.103 V 4.215 H -5.871 V -1.279 H 0.166 V 0 Z"
             inkscape:connector-curvature="0" /></g><g
           transform="translate(131.7874,40.3515)"
           id="g132"><path
             id="path134"
             style="fill:#ffffff;fill-opacity:1;fill-rule:nonzero;stroke:none"
             d="M 0,0 0.692,1.523 0.993,0 Z M 9.542,3.975 7.686,-0.322 6.883,3.975 H 5.263 L 3.169,-2.365 2.096,3.975 H 0.073 L -2.986,-2.855 -2.53,0 h -3.041 l -0.232,-1.471 h 1.27 l -0.145,-0.787 c -0.729,-0.283 -1.967,-0.178 -2.494,0.752 -0.335,0.592 -0.646,1.909 0.763,3.117 1.147,0.987 3.132,1.163 4.279,0.645 0,0 0.146,0.824 0.255,1.593 -2.203,0.754 -3.915,0.126 -5.061,-0.573 -1.562,-0.95 -2.313,-2.399 -2.113,-4.368 0.232,-2.285 3.242,-3.725 5.79,-2.275 0.024,0.013 0.042,0.023 0.059,0.034 l -0.241,-0.536 h 1.711 l 1.076,2.348 h 1.893 l 0.418,-2.348 h 2.787 l 1.42,4.389 0.91,-4.389 h 1.093 l 2.132,4.854 0.216,-4.854 h 1.64 L 11.509,3.975 H 9.542"
             inkscape:connector-curvature="0" /></g><g
           transform="translate(143.7693,36.4824)"
           id="g136"><path
             id="path138"
             style="fill:#ffffff;fill-opacity:1;fill-rule:nonzero;stroke:none"
             d="M 0,0 H 4.571 L 4.844,1.686 H 1.984 L 2.211,3.082 H 4.698 L 4.971,4.764 H 2.458 L 2.677,6.16 H 5.535 L 5.808,7.844 H 1.275 Z"
             inkscape:connector-curvature="0" /></g><g
           transform="translate(166.093,41.7656)"
           id="g140"><path
             id="path142"
             style="fill:#ffffff;fill-opacity:1;fill-rule:nonzero;stroke:none"
             d="m 0,0 -1.02,2.561 h -1.876 l 1.93,-4.135 -0.593,-3.709 H 0.08 l 0.502,3.277 2.95,4.567 H 1.62 Z"
             inkscape:connector-curvature="0" /></g><g
           transform="translate(162.2664,39.6503)"
           id="g144"><path
             id="path146"
             style="fill:#ffffff;fill-opacity:1;fill-rule:nonzero;stroke:none"
             d="m 0,0 c -0.444,-1.307 -1.505,-2.055 -2.373,-1.673 -0.864,0.38 -1.21,1.747 -0.767,3.052 0.441,1.305 1.503,2.053 2.37,1.671 C 0.098,2.67 0.441,1.303 0,0 M -0.642,4.607 C -2.457,5.02 -4.343,3.598 -4.851,1.43 c -0.509,-2.168 0.55,-4.26 2.367,-4.673 1.815,-0.413 3.7,1.01 4.209,3.179 0.509,2.168 -0.552,4.259 -2.367,4.671"
             inkscape:connector-curvature="0" /></g><g
           transform="translate(154.367,41.1718)"
           id="g148"><path
             id="path150"
             style="fill:#ffffff;fill-opacity:1;fill-rule:nonzero;stroke:none"
             d="m 0,0 h -1.138 l 0.252,1.457 H 0.18 C 1.336,1.457 1.102,0 0,0 m -0.199,-3.162 h -1.446 l 0.254,1.563 h 1.373 c 1.301,0 1.265,-1.563 -0.181,-1.563 m 0.957,6.271 c -0.885,0.015 -3.072,0 -3.072,0 h 0.018 L -3.56,-4.672 h 3.686 c 1.518,0 3.738,2.2 1.717,3.996 2.077,2.115 0.019,3.768 -1.085,3.785"
             inkscape:connector-curvature="0" /></g><path
           id="path152"
           style="fill:#131210;fill-opacity:1;fill-rule:nonzero;stroke:#131210;stroke-width:0.69599998;stroke-linecap:butt;stroke-linejoin:miter;stroke-miterlimit:10;stroke-dasharray:none;stroke-opacity:1"
           d="M 241.955,55.688 H 93.691 V 155.69 h 148.264 z"
           inkscape:connector-curvature="0" /></g></g></g></svg>