<?xml version="1.0" encoding="UTF-8" standalone="no"?>
<svg
   xmlns:dc="http://purl.org/dc/elements/1.1/"
   xmlns:cc="http://creativecommons.org/ns#"
   xmlns:rdf="http://www.w3.org/1999/02/22-rdf-syntax-ns#"
   xmlns:svg="http://www.w3.org/2000/svg"
   xmlns="http://www.w3.org/2000/svg"
   xmlns:sodipodi="http://sodipodi.sourceforge.net/DTD/sodipodi-0.dtd"
   xmlns:inkscape="http://www.inkscape.org/namespaces/inkscape"
   viewBox="0 0 552.36665 157.80141"
   height="157.80141"
   width="552.36664"
   xml:space="preserve"
   version="1.1"
   id="svg2"
   sodipodi:docname="controller.svg"
   inkscape:version="0.92.2 (5c3e80d, 2017-08-06)"><sodipodi:namedview
     pagecolor="#ffffff"
     bordercolor="#666666"
     borderopacity="1"
     objecttolerance="10"
     gridtolerance="10"
     guidetolerance="10"
     inkscape:pageopacity="0"
     inkscape:pageshadow="2"
     inkscape:window-width="1920"
     inkscape:window-height="1017"
     id="namedview604"
     showgrid="false"
     fit-margin-top="0"
     fit-margin-left="0"
     fit-margin-right="0"
     fit-margin-bottom="0"
     inkscape:zoom="1.5225818"
     inkscape:cx="276.18364"
     inkscape:cy="107.49213"
     inkscape:window-x="-8"
     inkscape:window-y="-8"
     inkscape:window-maximized="1"
     inkscape:current-layer="svg2" /><metadata
     id="metadata8"><rdf:RDF><cc:Work
         rdf:about=""><dc:format>image/svg+xml</dc:format><dc:type
           rdf:resource="http://purl.org/dc/dcmitype/StillImage" /><dc:title></dc:title></cc:Work></rdf:RDF></metadata><defs
     id="defs6"><clipPath
       id="clipPath16"
       clipPathUnits="userSpaceOnUse"><path
         id="path18"
         d="M 0,445.559 H 168.322 V 0 H 0 Z"
         inkscape:connector-curvature="0" /></clipPath><clipPath
       id="clipPath28"
       clipPathUnits="userSpaceOnUse"><path
         id="path30"
         d="M 91.6221,364.864 H 144.684 V 311.803 H 91.6221 Z"
         inkscape:connector-curvature="0" /></clipPath><clipPath
       id="clipPath52"
       clipPathUnits="userSpaceOnUse"><path
         id="path54"
         d="M 92.3097,364.024 H 143.844 V 312.49 H 92.3097 Z"
         inkscape:connector-curvature="0" /></clipPath><clipPath
       id="clipPath68"
       clipPathUnits="userSpaceOnUse"><path
         id="path70"
         d="m 84.911,371.422 h 66.331 V 305.091 H 84.911 Z"
         inkscape:connector-curvature="0" /></clipPath><clipPath
       id="clipPath88"
       clipPathUnits="userSpaceOnUse"><path
         id="path90"
         d="M 7.99342,160.329 H 162.206 V 6.11584 H 7.99342 Z"
         inkscape:connector-curvature="0" /></clipPath><linearGradient
       id="linearGradient144"
       spreadMethod="pad"
       gradientTransform="matrix(39.822853,39.822853,39.822853,-39.822853,65.123558,63.310898)"
       gradientUnits="userSpaceOnUse"
       y2="0"
       x2="1"
       y1="0"
       x1="0"><stop
         id="stop146"
         offset="0"
         style="stop-opacity:1;stop-color:#a6a8ab" /><stop
         id="stop148"
         offset="1"
         style="stop-opacity:1;stop-color:#e6e7e8" /></linearGradient><clipPath
       id="clipPath156"
       clipPathUnits="userSpaceOnUse"><path
         id="path158"
         d="M 0,445.559 H 168.322 V 0 H 0 Z"
         inkscape:connector-curvature="0" /></clipPath><clipPath
       id="clipPath164"
       clipPathUnits="userSpaceOnUse"><path
         id="path166"
         d="M 62.5988,105.659 H 107.471 V 60.786 H 62.5988 Z"
         inkscape:connector-curvature="0" /></clipPath><clipPath
       id="clipPath180"
       clipPathUnits="userSpaceOnUse"><path
         id="path182"
         d="M 56.9234,111.205 H 113.017 V 55.1107 H 56.9234 Z"
         inkscape:connector-curvature="0" /></clipPath><clipPath
       id="clipPath184"
       clipPathUnits="userSpaceOnUse"><path
         id="path186"
         d="m 58.434,83.504 c 0,14.847 12.035,26.882 26.882,26.882 14.847,0 26.883,-12.035 26.883,-26.882 0,-14.847 -12.036,-26.883 -26.883,-26.883 -14.847,0 -26.882,12.036 -26.882,26.883 m 54.583,-0.346 c 0,15.49 -12.557,28.047 -28.047,28.047 -15.49,0 -28.047,-12.557 -28.047,-28.047 0,-15.49 12.557,-28.047 28.047,-28.047 15.49,0 28.047,12.557 28.047,28.047"
         inkscape:connector-curvature="0" /></clipPath><linearGradient
       id="linearGradient192"
       spreadMethod="pad"
       gradientTransform="matrix(39.664417,-39.664417,-39.664417,-39.664417,65.138191,102.98982)"
       gradientUnits="userSpaceOnUse"
       y2="0"
       x2="1"
       y1="0"
       x1="0"><stop
         id="stop194"
         offset="0"
         style="stop-opacity:0;stop-color:#ffffff" /><stop
         id="stop196"
         offset="0.20751882"
         style="stop-opacity:1;stop-color:#ffffff" /><stop
         id="stop198"
         offset="0.5"
         style="stop-opacity:1;stop-color:#ffffff" /><stop
         id="stop200"
         offset="0.79248118"
         style="stop-opacity:1;stop-color:#ffffff" /><stop
         id="stop202"
         offset="1"
         style="stop-opacity:0;stop-color:#ffffff" /></linearGradient><mask
       id="mask204"
       height="1"
       width="1"
       y="0"
       x="0"
       maskUnits="userSpaceOnUse"><g
         id="g206"><g
           id="g208"><g
             id="g210"><g
               id="g212"><path
                 id="path214"
                 style="fill:url(#linearGradient192);stroke:none"
                 d="M -32768,32767 H 32767 V -32768 H -32768 Z"
                 inkscape:connector-curvature="0" /></g></g></g></g></mask><linearGradient
       id="linearGradient216"
       spreadMethod="pad"
       gradientTransform="matrix(39.664417,-39.664417,-39.664417,-39.664417,65.138191,102.98982)"
       gradientUnits="userSpaceOnUse"
       y2="0"
       x2="1"
       y1="0"
       x1="0"><stop
         id="stop218"
         offset="0"
         style="stop-opacity:1;stop-color:#231f20" /><stop
         id="stop220"
         offset="0.20751882"
         style="stop-opacity:1;stop-color:#231f20" /><stop
         id="stop222"
         offset="0.5"
         style="stop-opacity:1;stop-color:#231f20" /><stop
         id="stop224"
         offset="0.79248118"
         style="stop-opacity:1;stop-color:#231f20" /><stop
         id="stop226"
         offset="1"
         style="stop-opacity:1;stop-color:#231f20" /></linearGradient><clipPath
       id="clipPath250"
       clipPathUnits="userSpaceOnUse"><path
         id="path252"
         d="M 56.9238,111.205 H 113.018 V 55.111 H 56.9238 Z"
         inkscape:connector-curvature="0" /></clipPath><clipPath
       id="clipPath254"
       clipPathUnits="userSpaceOnUse"><path
         id="path256"
         d="m 111.507,82.812 c 0,-14.847 -12.036,-26.883 -26.882,-26.883 -14.847,0 -26.883,12.036 -26.883,26.883 0,14.847 12.036,26.883 26.883,26.883 14.846,0 26.882,-12.036 26.882,-26.883 m -54.583,0.346 c 0,-15.49 12.556,-28.047 28.047,-28.047 15.49,0 28.047,12.557 28.047,28.047 0,15.49 -12.557,28.047 -28.047,28.047 -15.491,0 -28.047,-12.557 -28.047,-28.047"
         inkscape:connector-curvature="0" /></clipPath><linearGradient
       id="linearGradient262"
       spreadMethod="pad"
       gradientTransform="matrix(-39.664425,39.664425,39.664425,39.664425,104.80286,63.325817)"
       gradientUnits="userSpaceOnUse"
       y2="0"
       x2="1"
       y1="0"
       x1="0"><stop
         id="stop264"
         offset="0"
         style="stop-opacity:0;stop-color:#ffffff" /><stop
         id="stop266"
         offset="0.5"
         style="stop-opacity:1;stop-color:#ffffff" /><stop
         id="stop268"
         offset="1"
         style="stop-opacity:0;stop-color:#ffffff" /></linearGradient><mask
       id="mask270"
       height="1"
       width="1"
       y="0"
       x="0"
       maskUnits="userSpaceOnUse"><g
         id="g272"><g
           id="g274"><g
             id="g276"><g
               id="g278"><path
                 id="path280"
                 style="fill:url(#linearGradient262);stroke:none"
                 d="M -32768,32767 H 32767 V -32768 H -32768 Z"
                 inkscape:connector-curvature="0" /></g></g></g></g></mask><linearGradient
       id="linearGradient282"
       spreadMethod="pad"
       gradientTransform="matrix(-39.664425,39.664425,39.664425,39.664425,104.80286,63.325817)"
       gradientUnits="userSpaceOnUse"
       y2="0"
       x2="1"
       y1="0"
       x1="0"><stop
         id="stop284"
         offset="0"
         style="stop-opacity:1;stop-color:#ffffff" /><stop
         id="stop286"
         offset="0.5"
         style="stop-opacity:1;stop-color:#ffffff" /><stop
         id="stop288"
         offset="1"
         style="stop-opacity:1;stop-color:#ffffff" /></linearGradient><clipPath
       id="clipPath316"
       clipPathUnits="userSpaceOnUse"><path
         id="path318"
         d="M 91.9548,294.602 H 145.017 V 241.54 H 91.9548 Z"
         inkscape:connector-curvature="0" /></clipPath><clipPath
       id="clipPath340"
       clipPathUnits="userSpaceOnUse"><path
         id="path342"
         d="M 92.6425,293.762 H 144.176 V 242.228 H 92.6425 Z"
         inkscape:connector-curvature="0" /></clipPath><clipPath
       id="clipPath356"
       clipPathUnits="userSpaceOnUse"><path
         id="path358"
         d="M 85.2437,301.16 H 151.575 V 234.829 H 85.2437 Z"
         inkscape:connector-curvature="0" /></clipPath><clipPath
       id="clipPath376"
       clipPathUnits="userSpaceOnUse"><path
         id="path378"
         d="M 91.1369,435.126 H 144.199 V 382.065 H 91.1369 Z"
         inkscape:connector-curvature="0" /></clipPath><clipPath
       id="clipPath396"
       clipPathUnits="userSpaceOnUse"><path
         id="path398"
         d="M 91.8246,434.286 H 143.358 V 382.752 H 91.8246 Z"
         inkscape:connector-curvature="0" /></clipPath><clipPath
       id="clipPath412"
       clipPathUnits="userSpaceOnUse"><path
         id="path414"
         d="M 84.4258,441.684 H 150.757 V 375.353 H 84.4258 Z"
         inkscape:connector-curvature="0" /></clipPath><clipPath
       id="clipPath432"
       clipPathUnits="userSpaceOnUse"><path
         id="path434"
         d="M 27.5181,329.248 H 80.5799 V 276.186 H 27.5181 Z"
         inkscape:connector-curvature="0" /></clipPath><clipPath
       id="clipPath456"
       clipPathUnits="userSpaceOnUse"><path
         id="path458"
         d="M 28.2057,328.408 H 79.7394 V 276.874 H 28.2057 Z"
         inkscape:connector-curvature="0" /></clipPath><clipPath
       id="clipPath472"
       clipPathUnits="userSpaceOnUse"><path
         id="path474"
         d="M 20.8069,335.806 H 87.1383 V 269.475 H 20.8069 Z"
         inkscape:connector-curvature="0" /></clipPath><clipPath
       id="clipPath492"
       clipPathUnits="userSpaceOnUse"><path
         id="path494"
         d="M 27.0329,399.51 H 80.0947 V 346.448 H 27.0329 Z"
         inkscape:connector-curvature="0" /></clipPath><clipPath
       id="clipPath516"
       clipPathUnits="userSpaceOnUse"><path
         id="path518"
         d="M 27.7205,398.67 H 79.2543 V 347.136 H 27.7205 Z"
         inkscape:connector-curvature="0" /></clipPath><clipPath
       id="clipPath532"
       clipPathUnits="userSpaceOnUse"><path
         id="path534"
         d="M 20.3217,406.068 H 86.6531 V 339.737 H 20.3217 Z"
         inkscape:connector-curvature="0" /></clipPath><clipPath
       id="clipPath552"
       clipPathUnits="userSpaceOnUse"><path
         id="path554"
         d="M 26.9564,258.304 H 80.0183 V 205.242 H 26.9564 Z"
         inkscape:connector-curvature="0" /></clipPath><clipPath
       id="clipPath576"
       clipPathUnits="userSpaceOnUse"><path
         id="path578"
         d="M 27.644,257.464 H 79.1778 V 205.93 H 27.644 Z"
         inkscape:connector-curvature="0" /></clipPath><clipPath
       id="clipPath592"
       clipPathUnits="userSpaceOnUse"><path
         id="path594"
         d="M 20.2453,264.862 H 86.5767 V 198.531 H 20.2453 Z"
         inkscape:connector-curvature="0" /></clipPath></defs><g
     transform="matrix(0,-0.9375,1.25,0,0,157.80141)"
     id="g10"><g
       id="g12"><g
         clip-path="url(#clipPath16)"
         id="g14"><g
           transform="translate(118.153,305.0354)"
           id="g20"><path
             id="path22"
             style="fill:#c0392b;fill-opacity:1;fill-rule:nonzero;stroke:none"
             d="m 0,0 c -18.39,0 -33.298,14.908 -33.298,33.298 0,18.39 14.908,33.298 33.298,33.298 18.39,0 33.298,-14.908 33.298,-33.298 C 33.298,14.908 18.39,0 0,0"
             inkscape:connector-curvature="0" /></g><g
           id="g24"><g
             id="g26" /><g
             id="g32"><g
               style="opacity:0.30000299"
               id="g34"
               clip-path="url(#clipPath28)"><g
                 id="g36"
                 transform="translate(118.153,311.8026)"><path
                   id="path38"
                   style="fill:#c0392b;fill-opacity:1;fill-rule:nonzero;stroke:none"
                   d="m 0,0 c -14.653,0 -26.531,11.878 -26.531,26.531 0,14.652 11.878,26.531 26.531,26.531 14.653,0 26.531,-11.879 26.531,-26.531 C 26.531,11.878 14.653,0 0,0"
                   inkscape:connector-curvature="0" /></g></g></g></g><g
           transform="translate(118.0767,312.4901)"
           id="g40"><path
             id="path42"
             style="fill:#c0392b;fill-opacity:1;fill-rule:nonzero;stroke:none"
             d="m 0,0 c -14.231,0 -25.767,11.536 -25.767,25.767 0,14.231 11.536,25.767 25.767,25.767 14.231,0 25.767,-11.536 25.767,-25.767 C 25.767,11.536 14.231,0 0,0"
             inkscape:connector-curvature="0" /></g><g
           transform="translate(118.0767,312.4901)"
           id="g44"><path
             id="path46"
             style="fill:#c0392b;fill-opacity:1;fill-rule:nonzero;stroke:none"
             d="m 0,0 c -14.231,0 -25.767,11.536 -25.767,25.767 0,14.231 11.536,25.767 25.767,25.767 14.231,0 25.767,-11.536 25.767,-25.767 C 25.767,11.536 14.231,0 0,0"
             inkscape:connector-curvature="0" /></g><g
           id="g48"><g
             id="g50" /><g
             id="g56"><g
               style="opacity:0.19999701"
               id="g58"
               clip-path="url(#clipPath52)"><g
                 id="g60"
                 transform="translate(93.6971,338.575)"><path
                   id="path62"
                   style="fill:#c0392b;fill-opacity:1;fill-rule:nonzero;stroke:none"
                   d="M 0,0 C 0,13.64 11.057,24.697 24.697,24.697 38.337,24.697 49.395,13.64 49.395,0 49.395,-13.64 38.337,-24.698 24.697,-24.698 11.057,-24.698 0,-13.64 0,0 m 50.146,-0.318 c 0,14.231 -11.536,25.767 -25.766,25.767 -14.231,0 -25.767,-11.536 -25.767,-25.767 0,-14.231 11.536,-25.767 25.767,-25.767 14.23,0 25.766,11.536 25.766,25.767"
                   inkscape:connector-curvature="0" /></g></g></g></g><g
           id="g64"><g
             id="g66" /><g
             id="g72"><g
               style="opacity:0.14999402"
               id="g74"
               clip-path="url(#clipPath68)"><g
                 id="g76"
                 transform="translate(86.6967,338.666)"><path
                   id="path78"
                   style="fill:#c0392b;fill-opacity:1;fill-rule:nonzero;stroke:none"
                   d="M 0,0 C 0,17.557 14.233,31.789 31.789,31.789 49.346,31.789 63.578,17.557 63.578,0 63.578,-17.556 49.346,-31.789 31.789,-31.789 14.233,-31.789 0,-17.556 0,0 m 64.546,-0.409 c 0,18.317 -14.849,33.166 -33.166,33.166 -18.317,0 -33.166,-14.849 -33.166,-33.166 0,-18.317 14.849,-33.165 33.166,-33.165 18.317,0 33.166,14.848 33.166,33.165"
                   inkscape:connector-curvature="0" /></g></g></g></g><g
           transform="translate(85.0995)"
           id="g80"><path
             id="path82"
             style="fill:#231f20;fill-opacity:1;fill-rule:nonzero;stroke:none"
             d="m 0,0 c -45.962,0 -83.222,37.26 -83.222,83.222 0,45.963 37.26,83.222 83.222,83.222 45.962,0 83.222,-37.259 83.222,-83.222 C 83.222,37.26 45.962,0 0,0"
             inkscape:connector-curvature="0" /></g><g
           id="g84"><g
             id="g86" /><g
             id="g92"><g
               style="opacity:0.10000598"
               id="g94"
               clip-path="url(#clipPath88)"><g
                 id="g96"
                 transform="translate(85.0992,6.1158)"><path
                   id="path98"
                   style="fill:#84849b;fill-opacity:1;fill-rule:nonzero;stroke:none"
                   d="M 0,0 16.896,16.323 H 8.643 V 34.997 H -8.643 V 16.323 h -8.252 z"
                   inkscape:connector-curvature="0" /></g><g
                 id="g100"
                 transform="translate(139.622,28.6993)"><path
                   id="path102"
                   style="fill:#84849b;fill-opacity:1;fill-rule:nonzero;stroke:none"
                   d="M 0,0 0.405,23.489 -5.43,17.654 -18.635,30.858 -30.858,18.635 -17.653,5.431 -23.489,-0.405 Z"
                   inkscape:connector-curvature="0" /></g><g
                 id="g104"
                 transform="translate(162.2061,83.2215)"><path
                   id="path106"
                   style="fill:#84849b;fill-opacity:1;fill-rule:nonzero;stroke:none"
                   d="M 0,0 -16.323,16.896 V 8.644 H -34.997 V -8.643 h 18.674 v -8.252 z"
                   inkscape:connector-curvature="0" /></g><g
                 id="g108"
                 transform="translate(139.6227,137.7441)"><path
                   id="path110"
                   style="fill:#84849b;fill-opacity:1;fill-rule:nonzero;stroke:none"
                   d="m 0,0 -23.489,0.405 5.835,-5.835 -13.205,-13.205 12.224,-12.223 13.204,13.205 5.836,-5.835 z"
                   inkscape:connector-curvature="0" /></g><g
                 id="g112"
                 transform="translate(85.1005,160.3285)"><path
                   id="path114"
                   style="fill:#84849b;fill-opacity:1;fill-rule:nonzero;stroke:none"
                   d="m 0,0 -16.896,-16.322 h 8.252 V -34.997 H 8.643 v 18.674 l 8.252,0.001 z"
                   inkscape:connector-curvature="0" /></g><g
                 id="g116"
                 transform="translate(30.5779,137.7453)"><path
                   id="path118"
                   style="fill:#84849b;fill-opacity:1;fill-rule:nonzero;stroke:none"
                   d="m 0,0 -0.405,-23.489 5.835,5.835 13.205,-13.205 12.223,12.223 -13.205,13.205 5.835,5.836 z"
                   inkscape:connector-curvature="0" /></g><g
                 id="g120"
                 transform="translate(7.9934,83.223)"><path
                   id="path122"
                   style="fill:#84849b;fill-opacity:1;fill-rule:nonzero;stroke:none"
                   d="m 0,0 16.322,-16.895 v 8.251 H 34.997 V 8.642 H 16.323 l -0.001,8.253 z"
                   inkscape:connector-curvature="0" /></g><g
                 id="g124"
                 transform="translate(30.5767,28.7004)"><path
                   id="path126"
                   style="fill:#84849b;fill-opacity:1;fill-rule:nonzero;stroke:none"
                   d="M 0,0 23.489,-0.405 17.654,5.43 30.859,18.635 18.636,30.858 5.431,17.653 -0.405,23.488 Z"
                   inkscape:connector-curvature="0" /></g></g></g></g><g
           transform="translate(84.1609,0.0119)"
           id="g128"><path
             id="path130"
             style="fill:#6d6e70;fill-opacity:1;fill-rule:nonzero;stroke:none"
             d="m 0,0 c -45.529,0.504 -82.284,37.562 -82.284,83.21 0,45.649 36.755,82.707 82.284,83.211 -0.313,0.003 -0.625,0.012 -0.939,0.012 -45.962,0 -83.222,-37.26 -83.222,-83.223 0,-45.962 37.26,-83.222 83.222,-83.222 0.314,0 0.626,0.009 0.939,0.012"
             inkscape:connector-curvature="0" /></g></g></g><g
       id="g132"><g
         id="g134"><g
           id="g140"><g
             id="g142"><path
               id="path150"
               style="fill:url(#linearGradient144);stroke:none"
               d="m 56.876,83.222 c 0,-15.551 12.608,-28.159 28.159,-28.159 v 0 c 15.552,0 28.159,12.608 28.159,28.159 v 0 c 0,15.552 -12.607,28.159 -28.159,28.159 v 0 c -15.551,0 -28.159,-12.607 -28.159,-28.159"
               inkscape:connector-curvature="0" /></g></g></g></g><g
       id="g152"><g
         clip-path="url(#clipPath156)"
         id="g154"><g
           id="g160"><g
             id="g162" /><g
             id="g168"><g
               style="opacity:0.30000299"
               id="g170"
               clip-path="url(#clipPath164)"><g
                 id="g172"
                 transform="translate(85.035,60.786)"><path
                   id="path174"
                   style="fill:#231f20;fill-opacity:1;fill-rule:nonzero;stroke:none"
                   d="m 0,0 c -12.391,0 -22.436,10.045 -22.436,22.436 0,12.391 10.045,22.437 22.436,22.437 12.391,0 22.436,-10.046 22.436,-22.437 C 22.436,10.045 12.391,0 0,0"
                   inkscape:connector-curvature="0" /></g></g></g></g><g
           id="g176"><g
             id="g178" /><g
             id="g228"><g
               style="opacity:0.14999402"
               id="g230"
               clip-path="url(#clipPath180)"><g
                 id="g232"><g
                   id="g234"
                   clip-path="url(#clipPath184)"><g
                     id="g236"><g
                       id="g238" /><g
                       id="g240"
                       mask="url(#mask204)"><g
                         id="g242"><path
                           id="path244"
                           style="fill:url(#linearGradient216);stroke:none"
                           d="m 58.434,83.504 c 0,14.847 12.035,26.882 26.882,26.882 14.847,0 26.883,-12.035 26.883,-26.882 0,-14.847 -12.036,-26.883 -26.883,-26.883 -14.847,0 -26.882,12.036 -26.882,26.883 m 54.583,-0.346 c 0,15.49 -12.557,28.047 -28.047,28.047 -15.49,0 -28.047,-12.557 -28.047,-28.047 0,-15.49 12.557,-28.047 28.047,-28.047 15.49,0 28.047,12.557 28.047,28.047"
                           inkscape:connector-curvature="0" /></g></g></g></g></g></g></g></g><g
           id="g246"><g
             id="g248" /><g
             id="g290"><g
               style="opacity:0.39999402"
               id="g292"
               clip-path="url(#clipPath250)"><g
                 id="g294"><g
                   id="g296"
                   clip-path="url(#clipPath254)"><g
                     id="g298"><g
                       id="g300" /><g
                       id="g302"
                       mask="url(#mask270)"><g
                         id="g304"><path
                           id="path306"
                           style="fill:url(#linearGradient282);stroke:none"
                           d="m 111.507,82.812 c 0,-14.847 -12.036,-26.883 -26.882,-26.883 -14.847,0 -26.883,12.036 -26.883,26.883 0,14.847 12.036,26.883 26.883,26.883 14.846,0 26.882,-12.036 26.882,-26.883 m -54.583,0.346 c 0,-15.49 12.556,-28.047 28.047,-28.047 15.49,0 28.047,12.557 28.047,28.047 0,15.49 -12.557,28.047 -28.047,28.047 -15.491,0 -28.047,-12.557 -28.047,-28.047"
                           inkscape:connector-curvature="0" /></g></g></g></g></g></g></g></g><g
           transform="translate(118.4858,234.7732)"
           id="g308"><path
             id="path310"
             style="fill:#c0392b;fill-opacity:1;fill-rule:nonzero;stroke:none"
             d="m 0,0 c -18.39,0 -33.298,14.908 -33.298,33.298 0,18.39 14.908,33.298 33.298,33.298 18.39,0 33.298,-14.908 33.298,-33.298 C 33.298,14.908 18.39,0 0,0"
             inkscape:connector-curvature="0" /></g><g
           id="g312"><g
             id="g314" /><g
             id="g320"><g
               style="opacity:0.30000299"
               id="g322"
               clip-path="url(#clipPath316)"><g
                 id="g324"
                 transform="translate(118.4858,241.5404)"><path
                   id="path326"
                   style="fill:#c0392b;fill-opacity:1;fill-rule:nonzero;stroke:none"
                   d="m 0,0 c -14.653,0 -26.531,11.878 -26.531,26.531 0,14.652 11.878,26.531 26.531,26.531 14.653,0 26.531,-11.879 26.531,-26.531 C 26.531,11.878 14.653,0 0,0"
                   inkscape:connector-curvature="0" /></g></g></g></g><g
           transform="translate(118.4094,242.2279)"
           id="g328"><path
             id="path330"
             style="fill:#c0392b;fill-opacity:1;fill-rule:nonzero;stroke:none"
             d="m 0,0 c -14.231,0 -25.767,11.536 -25.767,25.767 0,14.231 11.536,25.767 25.767,25.767 14.231,0 25.767,-11.536 25.767,-25.767 C 25.767,11.536 14.231,0 0,0"
             inkscape:connector-curvature="0" /></g><g
           transform="translate(118.4094,242.2279)"
           id="g332"><path
             id="path334"
             style="fill:#c0392b;fill-opacity:1;fill-rule:nonzero;stroke:none"
             d="m 0,0 c -14.231,0 -25.767,11.536 -25.767,25.767 0,14.231 11.536,25.767 25.767,25.767 14.231,0 25.767,-11.536 25.767,-25.767 C 25.767,11.536 14.231,0 0,0"
             inkscape:connector-curvature="0" /></g><g
           id="g336"><g
             id="g338" /><g
             id="g344"><g
               style="opacity:0.19999701"
               id="g346"
               clip-path="url(#clipPath340)"><g
                 id="g348"
                 transform="translate(94.0298,268.3128)"><path
                   id="path350"
                   style="fill:#c0392b;fill-opacity:1;fill-rule:nonzero;stroke:none"
                   d="M 0,0 C 0,13.64 11.057,24.697 24.697,24.697 38.337,24.697 49.395,13.64 49.395,0 49.395,-13.64 38.337,-24.698 24.697,-24.698 11.057,-24.698 0,-13.64 0,0 m 50.146,-0.318 c 0,14.231 -11.536,25.767 -25.766,25.767 -14.231,0 -25.767,-11.536 -25.767,-25.767 0,-14.231 11.536,-25.767 25.767,-25.767 14.23,0 25.766,11.536 25.766,25.767"
                   inkscape:connector-curvature="0" /></g></g></g></g><g
           id="g352"><g
             id="g354" /><g
             id="g360"><g
               style="opacity:0.14999402"
               id="g362"
               clip-path="url(#clipPath356)"><g
                 id="g364"
                 transform="translate(87.0294,268.4037)"><path
                   id="path366"
                   style="fill:#c0392b;fill-opacity:1;fill-rule:nonzero;stroke:none"
                   d="M 0,0 C 0,17.557 14.233,31.789 31.789,31.789 49.346,31.789 63.578,17.557 63.578,0 63.578,-17.556 49.346,-31.789 31.789,-31.789 14.233,-31.789 0,-17.556 0,0 m 64.546,-0.409 c 0,18.317 -14.849,33.166 -33.166,33.166 -18.317,0 -33.166,-14.849 -33.166,-33.166 0,-18.317 14.849,-33.165 33.166,-33.165 18.317,0 33.166,14.848 33.166,33.165"
                   inkscape:connector-curvature="0" /></g></g></g></g><g
           transform="translate(117.6679,375.2973)"
           id="g368"><path
             id="path370"
             style="fill:#c0392b;fill-opacity:1;fill-rule:nonzero;stroke:none"
             d="m 0,0 c -18.39,0 -33.298,14.908 -33.298,33.298 0,18.39 14.908,33.298 33.298,33.298 18.39,0 33.298,-14.908 33.298,-33.298 C 33.298,14.908 18.39,0 0,0"
             inkscape:connector-curvature="0" /></g><g
           id="g372"><g
             id="g374" /><g
             id="g380"><g
               style="opacity:0.30000299"
               id="g382"
               clip-path="url(#clipPath376)"><g
                 id="g384"
                 transform="translate(117.6679,382.0645)"><path
                   id="path386"
                   style="fill:#c0392b;fill-opacity:1;fill-rule:nonzero;stroke:none"
                   d="m 0,0 c -14.653,0 -26.531,11.878 -26.531,26.531 0,14.652 11.878,26.531 26.531,26.531 14.653,0 26.531,-11.879 26.531,-26.531 C 26.531,11.878 14.653,0 0,0"
                   inkscape:connector-curvature="0" /></g></g></g></g><g
           transform="translate(117.5915,382.752)"
           id="g388"><path
             id="path390"
             style="fill:#c0392b;fill-opacity:1;fill-rule:nonzero;stroke:none"
             d="m 0,0 c -14.231,0 -25.767,11.536 -25.767,25.767 0,14.231 11.536,25.767 25.767,25.767 14.231,0 25.767,-11.536 25.767,-25.767 C 25.767,11.536 14.231,0 0,0"
             inkscape:connector-curvature="0" /></g><g
           id="g392"><g
             id="g394" /><g
             id="g400"><g
               style="opacity:0.19999701"
               id="g402"
               clip-path="url(#clipPath396)"><g
                 id="g404"
                 transform="translate(93.2119,408.837)"><path
                   id="path406"
                   style="fill:#c0392b;fill-opacity:1;fill-rule:nonzero;stroke:none"
                   d="M 0,0 C 0,13.64 11.057,24.697 24.697,24.697 38.337,24.697 49.395,13.64 49.395,0 49.395,-13.64 38.337,-24.698 24.697,-24.698 11.057,-24.698 0,-13.64 0,0 m 50.146,-0.318 c 0,14.231 -11.536,25.767 -25.766,25.767 -14.231,0 -25.767,-11.536 -25.767,-25.767 0,-14.231 11.536,-25.767 25.767,-25.767 14.23,0 25.766,11.536 25.766,25.767"
                   inkscape:connector-curvature="0" /></g></g></g></g><g
           id="g408"><g
             id="g410" /><g
             id="g416"><g
               style="opacity:0.14999402"
               id="g418"
               clip-path="url(#clipPath412)"><g
                 id="g420"
                 transform="translate(86.2115,408.9279)"><path
                   id="path422"
                   style="fill:#c0392b;fill-opacity:1;fill-rule:nonzero;stroke:none"
                   d="M 0,0 C 0,17.557 14.233,31.789 31.789,31.789 49.346,31.789 63.578,17.557 63.578,0 63.578,-17.556 49.346,-31.789 31.789,-31.789 14.233,-31.789 0,-17.556 0,0 m 64.546,-0.409 c 0,18.317 -14.849,33.166 -33.166,33.166 -18.317,0 -33.166,-14.849 -33.166,-33.166 0,-18.317 14.849,-33.165 33.166,-33.165 18.317,0 33.166,14.848 33.166,33.165"
                   inkscape:connector-curvature="0" /></g></g></g></g><g
           transform="translate(54.049,269.4192)"
           id="g424"><path
             id="path426"
             style="fill:#c0392b;fill-opacity:1;fill-rule:nonzero;stroke:none"
             d="m 0,0 c -18.39,0 -33.298,14.908 -33.298,33.298 0,18.39 14.908,33.298 33.298,33.298 18.39,0 33.298,-14.908 33.298,-33.298 C 33.298,14.908 18.39,0 0,0"
             inkscape:connector-curvature="0" /></g><g
           id="g428"><g
             id="g430" /><g
             id="g436"><g
               style="opacity:0.30000299"
               id="g438"
               clip-path="url(#clipPath432)"><g
                 id="g440"
                 transform="translate(54.049,276.1864)"><path
                   id="path442"
                   style="fill:#c0392b;fill-opacity:1;fill-rule:nonzero;stroke:none"
                   d="m 0,0 c -14.653,0 -26.531,11.878 -26.531,26.531 0,14.652 11.878,26.531 26.531,26.531 14.653,0 26.531,-11.879 26.531,-26.531 C 26.531,11.878 14.653,0 0,0"
                   inkscape:connector-curvature="0" /></g></g></g></g><g
           transform="translate(53.9726,276.8739)"
           id="g444"><path
             id="path446"
             style="fill:#c0392b;fill-opacity:1;fill-rule:nonzero;stroke:none"
             d="m 0,0 c -14.231,0 -25.767,11.536 -25.767,25.767 0,14.231 11.536,25.767 25.767,25.767 14.231,0 25.767,-11.536 25.767,-25.767 C 25.767,11.536 14.231,0 0,0"
             inkscape:connector-curvature="0" /></g><g
           transform="translate(53.9726,276.8739)"
           id="g448"><path
             id="path450"
             style="fill:#c0392b;fill-opacity:1;fill-rule:nonzero;stroke:none"
             d="m 0,0 c -14.231,0 -25.767,11.536 -25.767,25.767 0,14.231 11.536,25.767 25.767,25.767 14.231,0 25.767,-11.536 25.767,-25.767 C 25.767,11.536 14.231,0 0,0"
             inkscape:connector-curvature="0" /></g><g
           id="g452"><g
             id="g454" /><g
             id="g460"><g
               style="opacity:0.19999701"
               id="g462"
               clip-path="url(#clipPath456)"><g
                 id="g464"
                 transform="translate(29.593,302.9589)"><path
                   id="path466"
                   style="fill:#c0392b;fill-opacity:1;fill-rule:nonzero;stroke:none"
                   d="M 0,0 C 0,13.64 11.057,24.697 24.697,24.697 38.337,24.697 49.395,13.64 49.395,0 49.395,-13.64 38.337,-24.698 24.697,-24.698 11.057,-24.698 0,-13.64 0,0 m 50.146,-0.318 c 0,14.231 -11.536,25.767 -25.766,25.767 -14.231,0 -25.767,-11.536 -25.767,-25.767 0,-14.231 11.536,-25.767 25.767,-25.767 14.23,0 25.766,11.536 25.766,25.767"
                   inkscape:connector-curvature="0" /></g></g></g></g><g
           id="g468"><g
             id="g470" /><g
             id="g476"><g
               style="opacity:0.14999402"
               id="g478"
               clip-path="url(#clipPath472)"><g
                 id="g480"
                 transform="translate(22.5926,303.0498)"><path
                   id="path482"
                   style="fill:#c0392b;fill-opacity:1;fill-rule:nonzero;stroke:none"
                   d="M 0,0 C 0,17.557 14.233,31.789 31.789,31.789 49.346,31.789 63.578,17.557 63.578,0 63.578,-17.556 49.346,-31.789 31.789,-31.789 14.233,-31.789 0,-17.556 0,0 m 64.546,-0.409 c 0,18.317 -14.849,33.166 -33.166,33.166 -18.317,0 -33.166,-14.849 -33.166,-33.166 0,-18.317 14.849,-33.165 33.166,-33.165 18.317,0 33.166,14.848 33.166,33.165"
                   inkscape:connector-curvature="0" /></g></g></g></g><g
           transform="translate(53.5638,339.6811)"
           id="g484"><path
             id="path486"
             style="fill:#c0392b;fill-opacity:1;fill-rule:nonzero;stroke:none"
             d="m 0,0 c -18.39,0 -33.298,14.908 -33.298,33.298 0,18.39 14.908,33.298 33.298,33.298 18.39,0 33.298,-14.908 33.298,-33.298 C 33.298,14.908 18.39,0 0,0"
             inkscape:connector-curvature="0" /></g><g
           id="g488"><g
             id="g490" /><g
             id="g496"><g
               style="opacity:0.30000299"
               id="g498"
               clip-path="url(#clipPath492)"><g
                 id="g500"
                 transform="translate(53.5638,346.4483)"><path
                   id="path502"
                   style="fill:#c0392b;fill-opacity:1;fill-rule:nonzero;stroke:none"
                   d="m 0,0 c -14.653,0 -26.531,11.878 -26.531,26.531 0,14.652 11.878,26.531 26.531,26.531 14.653,0 26.531,-11.879 26.531,-26.531 C 26.531,11.878 14.653,0 0,0"
                   inkscape:connector-curvature="0" /></g></g></g></g><g
           transform="translate(53.4874,347.1358)"
           id="g504"><path
             id="path506"
             style="fill:#c0392b;fill-opacity:1;fill-rule:nonzero;stroke:none"
             d="m 0,0 c -14.231,0 -25.767,11.536 -25.767,25.767 0,14.231 11.536,25.767 25.767,25.767 14.231,0 25.767,-11.536 25.767,-25.767 C 25.767,11.536 14.231,0 0,0"
             inkscape:connector-curvature="0" /></g><g
           transform="translate(53.4874,347.1358)"
           id="g508"><path
             id="path510"
             style="fill:#c0392b;fill-opacity:1;fill-rule:nonzero;stroke:none"
             d="m 0,0 c -14.231,0 -25.767,11.536 -25.767,25.767 0,14.231 11.536,25.767 25.767,25.767 14.231,0 25.767,-11.536 25.767,-25.767 C 25.767,11.536 14.231,0 0,0"
             inkscape:connector-curvature="0" /></g><g
           id="g512"><g
             id="g514" /><g
             id="g520"><g
               style="opacity:0.19999701"
               id="g522"
               clip-path="url(#clipPath516)"><g
                 id="g524"
                 transform="translate(29.1078,373.2208)"><path
                   id="path526"
                   style="fill:#c0392b;fill-opacity:1;fill-rule:nonzero;stroke:none"
                   d="M 0,0 C 0,13.64 11.057,24.697 24.697,24.697 38.337,24.697 49.395,13.64 49.395,0 49.395,-13.64 38.337,-24.698 24.697,-24.698 11.057,-24.698 0,-13.64 0,0 m 50.146,-0.318 c 0,14.231 -11.536,25.767 -25.766,25.767 -14.231,0 -25.767,-11.536 -25.767,-25.767 0,-14.231 11.536,-25.767 25.767,-25.767 14.23,0 25.766,11.536 25.766,25.767"
                   inkscape:connector-curvature="0" /></g></g></g></g><g
           id="g528"><g
             id="g530" /><g
             id="g536"><g
               style="opacity:0.14999402"
               id="g538"
               clip-path="url(#clipPath532)"><g
                 id="g540"
                 transform="translate(22.1074,373.3117)"><path
                   id="path542"
                   style="fill:#c0392b;fill-opacity:1;fill-rule:nonzero;stroke:none"
                   d="M 0,0 C 0,17.557 14.233,31.789 31.789,31.789 49.346,31.789 63.578,17.557 63.578,0 63.578,-17.556 49.346,-31.789 31.789,-31.789 14.233,-31.789 0,-17.556 0,0 m 64.546,-0.409 c 0,18.317 -14.849,33.166 -33.166,33.166 -18.317,0 -33.166,-14.849 -33.166,-33.166 0,-18.317 14.849,-33.165 33.166,-33.165 18.317,0 33.166,14.848 33.166,33.165"
                   inkscape:connector-curvature="0" /></g></g></g></g><g
           transform="translate(53.4874,198.475)"
           id="g544"><path
             id="path546"
             style="fill:#c0392b;fill-opacity:1;fill-rule:nonzero;stroke:none"
             d="m 0,0 c -18.39,0 -33.298,14.908 -33.298,33.298 0,18.39 14.908,33.298 33.298,33.298 18.39,0 33.298,-14.908 33.298,-33.298 C 33.298,14.908 18.39,0 0,0"
             inkscape:connector-curvature="0" /></g><g
           id="g548"><g
             id="g550" /><g
             id="g556"><g
               style="opacity:0.30000299"
               id="g558"
               clip-path="url(#clipPath552)"><g
                 id="g560"
                 transform="translate(53.4874,205.2422)"><path
                   id="path562"
                   style="fill:#c0392b;fill-opacity:1;fill-rule:nonzero;stroke:none"
                   d="m 0,0 c -14.653,0 -26.531,11.878 -26.531,26.531 0,14.652 11.878,26.531 26.531,26.531 14.653,0 26.531,-11.879 26.531,-26.531 C 26.531,11.878 14.653,0 0,0"
                   inkscape:connector-curvature="0" /></g></g></g></g><g
           transform="translate(53.411,205.9297)"
           id="g564"><path
             id="path566"
             style="fill:#c0392b;fill-opacity:1;fill-rule:nonzero;stroke:none"
             d="m 0,0 c -14.231,0 -25.767,11.536 -25.767,25.767 0,14.231 11.536,25.767 25.767,25.767 14.231,0 25.767,-11.536 25.767,-25.767 C 25.767,11.536 14.231,0 0,0"
             inkscape:connector-curvature="0" /></g><g
           transform="translate(53.411,205.9297)"
           id="g568"><path
             id="path570"
             style="fill:#c0392b;fill-opacity:1;fill-rule:nonzero;stroke:none"
             d="m 0,0 c -14.231,0 -25.767,11.536 -25.767,25.767 0,14.231 11.536,25.767 25.767,25.767 14.231,0 25.767,-11.536 25.767,-25.767 C 25.767,11.536 14.231,0 0,0"
             inkscape:connector-curvature="0" /></g><g
           id="g572"><g
             id="g574" /><g
             id="g580"><g
               style="opacity:0.19999701"
               id="g582"
               clip-path="url(#clipPath576)"><g
                 id="g584"
                 transform="translate(29.0314,232.0147)"><path
                   id="path586"
                   style="fill:#c0392b;fill-opacity:1;fill-rule:nonzero;stroke:none"
                   d="M 0,0 C 0,13.64 11.057,24.697 24.697,24.697 38.337,24.697 49.395,13.64 49.395,0 49.395,-13.64 38.337,-24.698 24.697,-24.698 11.057,-24.698 0,-13.64 0,0 m 50.146,-0.318 c 0,14.231 -11.536,25.767 -25.766,25.767 -14.231,0 -25.767,-11.536 -25.767,-25.767 0,-14.231 11.536,-25.767 25.767,-25.767 14.23,0 25.766,11.536 25.766,25.767"
                   inkscape:connector-curvature="0" /></g></g></g></g><g
           id="g588"><g
             id="g590" /><g
             id="g596"><g
               style="opacity:0.14999402"
               id="g598"
               clip-path="url(#clipPath592)"><g
                 id="g600"
                 transform="translate(22.031,232.1056)"><path
                   id="path602"
                   style="fill:#c0392b;fill-opacity:1;fill-rule:nonzero;stroke:none"
                   d="M 0,0 C 0,17.557 14.233,31.789 31.789,31.789 49.346,31.789 63.578,17.557 63.578,0 63.578,-17.556 49.346,-31.789 31.789,-31.789 14.233,-31.789 0,-17.556 0,0 m 64.546,-0.409 c 0,18.317 -14.849,33.165 -33.166,33.165 -18.317,0 -33.166,-14.848 -33.166,-33.165 0,-18.317 14.849,-33.165 33.166,-33.165 18.317,0 33.166,14.848 33.166,33.165"
                   inkscape:connector-curvature="0" /></g></g></g></g><g
           transform="translate(144.8838,83.5414)"
           id="g604"><path
             id="path606"
             style="fill:#c0392b;fill-opacity:1;fill-rule:nonzero;stroke:none"
             d="m 0,0 c 0,-21.526 -17.45,-38.977 -38.977,-38.977 -21.526,0 -38.976,17.451 -38.976,38.977 0,21.526 17.45,38.977 38.976,38.977 C -17.45,38.977 0,21.526 0,0"
             inkscape:connector-curvature="0" /></g></g></g></g></svg>