<?xml version="1.0" encoding="UTF-8" standalone="no"?>
<!-- Generator: Adobe Illustrator 13.0.0, SVG Export Plug-In . SVG Version: 6.00 Build 14948)  -->

<svg
   xmlns:ns="&amp;#38;ns_sfw;"
   xmlns:dc="http://purl.org/dc/elements/1.1/"
   xmlns:cc="http://creativecommons.org/ns#"
   xmlns:rdf="http://www.w3.org/1999/02/22-rdf-syntax-ns#"
   xmlns:svg="http://www.w3.org/2000/svg"
   xmlns="http://www.w3.org/2000/svg"
   xmlns:sodipodi="http://sodipodi.sourceforge.net/DTD/sodipodi-0.dtd"
   xmlns:inkscape="http://www.inkscape.org/namespaces/inkscape"
   version="1.2"
   id="Layer_3"
   x="0px"
   y="0px"
   width="285.36801"
   height="236.61674"
   viewBox="0 0 285.368 236.61673"
   xml:space="preserve"
   inkscape:version="0.92.2 (5c3e80d, 2017-08-06)"
   sodipodi:docname="controller.svg"><defs
     id="defs94" /><sodipodi:namedview
     pagecolor="#ffffff"
     bordercolor="#666666"
     borderopacity="1"
     objecttolerance="10"
     gridtolerance="10"
     guidetolerance="10"
     inkscape:pageopacity="0"
     inkscape:pageshadow="2"
     inkscape:window-width="1920"
     inkscape:window-height="1017"
     id="namedview92"
     showgrid="false"
     fit-margin-top="0"
     fit-margin-left="0"
     fit-margin-right="0"
     fit-margin-bottom="0"
     inkscape:zoom="0.48145317"
     inkscape:cx="142.02151"
     inkscape:cy="163.08499"
     inkscape:window-x="-8"
     inkscape:window-y="-8"
     inkscape:window-maximized="1"
     inkscape:current-layer="Layer_3" /><metadata
     id="metadata55"><rdf:RDF><cc:Work
         rdf:about=""><dc:format>image/svg+xml</dc:format><dc:type
           rdf:resource="http://purl.org/dc/dcmitype/StillImage" /><dc:title></dc:title></cc:Work></rdf:RDF><ns:sfw><ns:slices /><ns:sliceSourceBounds
         x="818.479"
         y="376.415"
         width="285.368"
         height="315.489"
         bottomLeftOrigin="true" /></ns:sfw></metadata><path
     d="M 25.794,236.61675 C 11.549,236.61525 0.002,227.955 0,217.27125 v 0 V 19.3455 C 0.002,8.66175 11.549,0.0015 25.794,0 v 0 h 233.782 c 14.245,0.0015 25.792,8.66175 25.792,19.3455 v 0 197.92575 c 0,10.68375 -11.547,19.344 -25.792,19.3455 v 0 H 25.794 Z M 2.001,19.3455 v 197.92575 c 0.023,9.85575 10.653,17.82675 23.793,17.844 v 0 h 233.782 c 13.141,-0.0172 23.769,-7.98825 23.792,-17.844 v 0 V 19.3455 C 283.345,9.4905 272.717,1.51875 259.576,1.5015 v 0 H 25.794 C 12.654,1.51875 2.024,9.48975 2.001,19.3455 Z"
     id="path4"
     inkscape:connector-curvature="0"
     style="fill:#f4f4f4;stroke-width:0.86602539" /><path
     d="m 29.164,128.682 c -0.002,-13.99725 4.614,-27.1605 12.452,-38.85525 v 0 c 1.128,-1.88025 1.585,-3.525 1.585,-5.02575 v 0 c 0.006,-3.3 -2.233,-6.042 -5.031,-8.916 v 0 C 35.352,72.9675 29.974,69.33525 21.383,61.61325 v 0 c -5.747,-5.166 -9.485,-11.73 -9.485,-19.02075 v 0 C 11.9,26.58375 29.203,13.6065 50.548,13.605 v 0 c 14.664,0.0015 27.068,6.267 33.937,15.1065 v 0 c 5.403,6.99975 10.979,14.02875 17.652,15.8415 v 0 c 3.67,1.0245 6.47,1.38075 9.08,1.38075 v 0 c 2.415,0 4.694,-0.309 7.348,-0.72525 v 0 c 7.914,-1.24125 16.112,-1.98825 24.546,-1.98825 v 0 c 62.933,10e-4 113.949,38.26425 113.949,85.46175 v 0 c 0,47.19975 -51.017,85.46175 -113.949,85.46175 v 0 C 80.18,214.14375 29.164,175.881 29.164,128.682 Z M 43.421,90.4725 C 35.699,101.985 31.164,114.921 31.164,128.68125 v 0 c 0,23.1885 12.529,44.1735 32.788,59.37 v 0 c 20.263,15.19575 48.244,24.591 79.16,24.591 v 0 c 30.918,0 58.898,-9.39525 79.16,-24.591 v 0 c 20.261,-15.1965 32.788,-36.183 32.788,-59.37 v 0 c 0,-23.187 -12.527,-44.172 -32.788,-59.37 v 0 C 202.01,54.117 174.028,44.72025 143.112,44.72025 v 0 c -8.277,0 -16.335,0.732 -24.136,1.95525 v 0 c -2.677,0.42 -5.11,0.75825 -7.757,0.75825 v 0 c -2.862,0 -5.942,-0.40275 -9.778,-1.476 v 0 C 93.67,43.731 88.225,36.43575 82.759,29.466 v 0 C 76.193,21.0315 64.428,15.1035 50.55,15.10575 v 0 c -10.125,0 -19.279,3.07425 -25.915,8.0505 v 0 C 18,28.1325 13.901,34.99875 13.901,42.59175 v 0 c 0,6.90075 3.529,13.12125 9.019,18.06075 v 0 c 8.535,7.67625 13.81,11.208 16.868,14.34975 v 0 c 2.825,2.90925 5.409,5.95575 5.413,9.798 v 0 c 0.002,1.73325 -0.535,3.60225 -1.761,5.64225 v 0 L 42.529,90.135 Z"
     id="path6"
     inkscape:connector-curvature="0"
     style="fill:#f4f4f4;stroke-width:0.86602539" /><path
     d="M 48.631,128.65875 C 48.633,89.5245 90.932,57.7995 143.113,57.7995 v 0 c 52.181,0 94.479,31.72575 94.481,70.85925 v 0 c -0.002,39.13575 -42.301,70.86075 -94.481,70.86225 v 0 C 90.931,199.5195 48.633,167.79375 48.631,128.65875 Z M 77.719,79.61325 C 60.98,92.1675 50.632,109.50225 50.632,128.658 v 0 c 0,19.15575 10.349,36.492 27.087,49.047 v 0 c 16.737,12.552 39.852,20.316 65.394,20.316 v 0 c 25.541,0 48.656,-7.764 65.393,-20.316 v 0 c 16.737,-12.55425 27.088,-29.8905 27.088,-49.047 v 0 c 0,-19.15575 -10.351,-36.4905 -27.088,-49.04475 v 0 C 191.77,67.0605 168.654,59.29725 143.113,59.29725 v 0 c -25.542,7.5e-4 -48.657,7.764 -65.394,20.316 z"
     id="path8"
     inkscape:connector-curvature="0"
     style="fill:#f4f4f4;stroke-width:0.86602539" /><path
     d="m 96.198,128.65875 c 0,-19.43175 21.004,-35.184 46.914,-35.1855 v 0 c 25.911,0.002 46.915,15.75375 46.915,35.1855 v 0 c 0,19.43325 -21.004,35.1855 -46.915,35.187 v 0 c -25.911,-0.001 -46.914,-15.75375 -46.914,-35.187 z m 15.155,-23.81925 c -8.13,6.099 -13.153,14.5155 -13.155,23.81925 v 0 c 0.002,9.30525 5.025,17.72175 13.155,23.82075 v 0 c 8.13,6.096 19.354,9.86475 31.759,9.86475 v 0 c 12.405,0 23.627,-3.76875 31.76,-9.86475 v 0 c 8.13,-6.099 13.155,-14.51625 13.155,-23.82075 v 0 c 0,-9.30375 -5.025,-17.72025 -13.155,-23.81925 v 0 c -8.133,-6.096 -19.354,-9.8655 -31.76,-9.8655 v 0 c -12.405,0 -23.629,3.7695 -31.759,9.8655 z"
     id="path10"
     inkscape:connector-curvature="0"
     style="fill:#f4f4f4;stroke-width:0.86602539" /><path
     d="m 61.916,128.65875 c 0,-33.633 36.353,-60.89625 81.196,-60.89775 v 0 c 44.845,0.001 81.195,27.26475 81.197,60.89775 v 0 c -0.002,33.633 -36.353,60.897 -81.197,60.897 v 0 c -44.844,7.5e-4 -81.196,-27.264 -81.196,-60.897 z m 25.197,-42 c -14.334,10.752 -23.197,25.596 -23.197,42 v 0 c 0,16.40475 8.863,31.248 23.197,41.99925 v 0 c 14.333,10.7505 34.128,17.39775 55.999,17.39775 v 0 c 21.873,0 41.665,-6.64725 56.001,-17.39775 v 0 c 14.332,-10.75125 23.194,-25.596 23.194,-41.99925 v 0 c 0,-16.40475 -8.862,-31.24875 -23.194,-42 v 0 C 184.777,75.90825 164.985,69.261 143.112,69.261 v 0 c -21.873,0 -41.666,6.64725 -55.999,17.39775 z"
     id="path12"
     inkscape:connector-curvature="0"
     style="fill:#f4f4f4;stroke-width:0.86602539" /><path
     d="m 74.281,128.65875 c 0.002,-28.5105 30.817,-51.62175 68.831,-51.624 v 0 c 38.013,10e-4 68.83,23.11275 68.83,51.624 v 0 c 0,28.50975 -30.817,51.6225 -68.83,51.6225 v 0 C 105.098,180.282 74.283,157.1685 74.281,128.65875 Z m 21.575,-35.442 C 83.761,102.29025 76.282,114.816 76.282,128.6595 v 0 c 0,13.8435 7.479,26.3685 19.574,35.44125 v 0 c 12.097,9.072 28.797,14.6805 47.256,14.682 v 0 c 18.458,-0.001 35.158,-5.61 47.256,-14.682 v 0 c 12.095,-9.07275 19.573,-21.59925 19.575,-35.44125 v 0 c -0.002,-13.8435 -7.48,-26.36925 -19.575,-35.44275 v 0 c -12.098,-9.07125 -28.8,-14.6805 -47.256,-14.6805 v 0 c -18.458,0 -35.159,5.6085 -47.256,14.6805 z"
     id="path14"
     inkscape:connector-curvature="0"
     style="fill:#f4f4f4;stroke-width:0.86602539" /><path
     d="M 84.321,128.65875 C 84.323,104.307 110.643,84.5655 143.112,84.5655 v 0 c 32.469,0 58.789,19.7415 58.789,44.09325 v 0 h 0.002 c -0.002,24.35175 -26.322,44.0925 -58.791,44.0925 v 0 C 110.643,172.752 84.323,153.0105 84.321,128.65875 Z m 18.635,-30.117 C 92.677,106.251 86.322,116.895 86.322,128.65875 v 0 c 0,11.7645 6.354,22.40775 16.634,30.117 v 0 c 10.279,7.7085 24.471,12.4755 40.156,12.4755 v 0 c 15.686,0 29.877,-4.76625 40.156,-12.4755 v 0 c 10.279,-7.70925 16.634,-18.35325 16.634,-30.117 v 0 c 0,-11.7645 -6.354,-22.40775 -16.634,-30.117 v 0 C 172.989,90.8325 158.797,86.06625 143.112,86.06625 v 0 c -15.685,0 -29.877,4.76625 -40.156,12.4755 z"
     id="path16"
     inkscape:connector-curvature="0"
     style="fill:#f4f4f4;stroke-width:0.86602539" /><path
     d="M 22.552,41.6745 C 22.554,30.05175 35.114,20.63175 50.611,20.63025 v 0 c 15.498,0.0015 28.059,9.4215 28.059,21.04425 v 0 c 0,11.62275 -12.562,21.04425 -28.059,21.04425 v 0 c -15.498,0 -28.058,-9.42075 -28.059,-21.04425 z m 2,0 c 0.025,10.794 11.667,19.52475 26.058,19.5435 v 0 C 65.002,61.2 76.643,52.4685 76.67,41.6745 v 0 C 76.643,30.8805 65.002,22.14975 50.61,22.131 v 0 C 36.219,22.1498 24.577,30.88125 24.552,41.6745 Z"
     id="path18"
     inkscape:connector-curvature="0"
     style="fill:#f4f4f4;stroke-width:0.86602539" /><path
     d="m 129.391,154.25325 v -0.75075 l 0.708,-0.531 -0.708,0.531 v 0.75075 h -0.414 l -19.99,-14.994 V 118.056 l 19.99,-14.991 h 28.269 l 19.992,14.991 v 21.204 l -19.99,14.9925 h -27.857 z m 27.027,-1.50075 18.819,-14.115 V 118.68 l -18.819,-14.1135 h -26.613 l -18.817,14.112 v 19.959 l 18.819,14.115 z"
     id="path20"
     inkscape:connector-curvature="0"
     style="fill:#f4f4f4;stroke-width:0.86602539" /><path
     d="m 133.727,128.65875 c 0,-3.88875 4.2,-7.04025 9.384,-7.04025 v 0 c 5.186,0 9.389,3.1515 9.389,7.04025 v 0 c 0,3.8895 -4.203,7.0395 -9.389,7.0395 v 0 c -5.184,-7.5e-4 -9.384,-3.15075 -9.384,-7.0395 z m 1.999,0 c 0.008,3.06 3.307,5.53425 7.385,5.54025 v 0 c 4.08,-0.006 7.381,-2.48025 7.39,-5.54025 v 0 c -0.009,-3.05925 -3.31,-5.535 -7.39,-5.541 v 0 c -4.078,0.006 -7.377,2.481 -7.385,5.541 z"
     id="path22"
     inkscape:connector-curvature="0"
     style="fill:#f4f4f4;stroke-width:0.86602539" /><rect
     x="86.533913"
     y="74.84269"
     transform="matrix(0.98040069,-0.19701395,0.33642492,0.94171029,0,0)"
     width="11.821527"
     height="4.7094417"
     id="rect24"
     style="fill:#f4f4f4;stroke-width:0.87059331" /><rect
     x="49.164906"
     y="88.451599"
     transform="matrix(0.9439168,-0.33018341,0.52808572,0.84919107,0,0)"
     width="11.521778"
     height="4.9002829"
     id="rect26"
     style="fill:#f4f4f4;stroke-width:0.87663966" /><rect
     x="11.867702"
     y="98.467331"
     transform="matrix(0.88532116,-0.46498005,0.68246449,0.73091875,0,0)"
     width="11.101486"
     height="5.1454387"
     id="rect28"
     style="fill:#f4f4f4;stroke-width:0.88185102" /><rect
     x="-23.076218"
     y="103.45614"
     transform="matrix(0.8,-0.6,0.8,0.6,0,0)"
     width="10.605616"
     height="5.4110832"
     id="rect30"
     style="fill:#f4f4f4;stroke-width:0.88388348" /><rect
     x="-54.162254"
     y="101.94205"
     transform="matrix(0.68246449,-0.73091875,0.88532116,0.46498005,0,0)"
     width="10.084959"
     height="5.6640806"
     id="rect32"
     style="fill:#f4f4f4;stroke-width:0.88185102" /><rect
     x="-80.831032"
     y="92.884178"
     transform="matrix(0.52799562,-0.8492471,0.94394114,0.33011381,0,0)"
     width="9.6038246"
     height="5.8778758"
     id="rect34"
     style="fill:#f4f4f4;stroke-width:0.87663645" /><rect
     x="-103.59632"
     y="76.0392"
     transform="matrix(0.33642492,-0.94171029,0.98040069,0.19701395,0,0)"
     width="9.2304134"
     height="6.0314522"
     id="rect36"
     style="fill:#f4f4f4;stroke-width:0.87059331" /><polygon
     points="200.713,191.593 189.503,191.181 195.155,184.876 195.661,179.104 201.759,179.639 "
     id="polygon38"
     style="fill:#f4f4f4"
     transform="matrix(1,0,0,0.75,-157.073,-17.0445)" /><polygon
     points="201.759,208.906 195.661,209.44 195.081,202.818 189.503,197.303 200.713,196.952 "
     id="polygon40"
     style="fill:#f4f4f4"
     transform="matrix(1,0,0,0.75,-157.073,-17.0445)" /><rect
     x="-160.5851"
     y="-11.446872"
     transform="matrix(-0.33642492,-0.94171029,0.98040069,-0.19701395,0,0)"
     width="9.2311831"
     height="6.0314522"
     id="rect42"
     style="fill:#f4f4f4;stroke-width:0.87059331" /><rect
     x="-177.66045"
     y="-46.315098"
     transform="matrix(-0.52799562,-0.8492471,0.94394114,-0.33011381,0,0)"
     width="9.6038246"
     height="5.8778758"
     id="rect44"
     style="fill:#f4f4f4;stroke-width:0.87663645" /><rect
     x="-192.14441"
     y="-80.158371"
     transform="matrix(-0.68246449,-0.73091875,0.88532116,-0.46498005,0,0)"
     width="10.084959"
     height="5.6631551"
     id="rect46"
     style="fill:#f4f4f4;stroke-width:0.88185102" /><rect
     x="-201.97379"
     y="-110.97295"
     transform="matrix(-0.8,-0.6,0.8,-0.6,0,0)"
     width="10.605616"
     height="5.4110832"
     id="rect48"
     style="fill:#f4f4f4;stroke-width:0.88388348" /><rect
     x="-205.04202"
     y="-137.7645"
     transform="matrix(-0.88537789,-0.46487202,0.6823564,-0.73101966,0,0)"
     width="11.10213"
     height="5.1453571"
     id="rect50"
     style="fill:#f4f4f4;stroke-width:0.88184792" /><rect
     x="-199.89725"
     y="-160.44284"
     transform="matrix(-0.94394114,-0.33011381,0.52799562,-0.8492471,0,0)"
     width="11.52052"
     height="4.8983583"
     id="rect52"
     style="fill:#f4f4f4;stroke-width:0.87663645" /><rect
     x="-185.86015"
     y="-180.10471"
     transform="matrix(-0.98040069,-0.19701395,0.33642492,-0.94171029,0,0)"
     width="11.822514"
     height="4.7094417"
     id="rect54"
     style="fill:#f4f4f4;stroke-width:0.87059331" /><polygon
     points="297.506,293.745 297.37,303.272 291.31,299.348 285.019,298.798 285.553,292.699 "
     id="polygon56"
     style="fill:#f4f4f4"
     transform="matrix(1,0,0,0.75,-157.073,-17.0445)" /><polygon
     points="314.82,292.699 315.354,298.798 309.128,299.342 303.003,303.272 302.866,293.745 "
     id="polygon58"
     style="fill:#f4f4f4"
     transform="matrix(1,0,0,0.75,-157.073,-17.0445)" /><rect
     x="-98.372963"
     y="-237.09604"
     transform="matrix(-0.98040069,0.19701395,-0.33642492,-0.94171029,0,0)"
     width="11.822514"
     height="4.708672"
     id="rect60"
     style="fill:#f4f4f4;stroke-width:0.87059331" /><rect
     x="-60.694065"
     y="-257.25656"
     transform="matrix(-0.94394114,0.33011381,-0.52799562,-0.8492471,0,0)"
     width="11.521481"
     height="4.8999596"
     id="rect62"
     style="fill:#f4f4f4;stroke-width:0.87663645" /><rect
     x="-22.961561"
     y="-275.72189"
     transform="matrix(-0.88534452,0.46493557,-0.68241998,-0.73096031,0,0)"
     width="11.103474"
     height="5.1449337"
     id="rect64"
     style="fill:#f4f4f4;stroke-width:0.88184977" /><rect
     x="12.464119"
     y="-289.86914"
     transform="matrix(-0.8,0.6,-0.8,-0.6,0,0)"
     width="10.6065"
     height="5.4110832"
     id="rect66"
     style="fill:#f4f4f4;stroke-width:0.88388348" /><rect
     x="44.088741"
     y="-297.05603"
     transform="matrix(-0.68241998,0.73096031,-0.88534452,-0.46493557,0,0)"
     width="10.086457"
     height="5.6646228"
     id="rect68"
     style="fill:#f4f4f4;stroke-width:0.88184977" /><rect
     x="71.236748"
     y="-295.4014"
     transform="matrix(-0.5279055,0.84930311,-0.94396548,-0.3300442,0,0)"
     width="9.6039915"
     height="5.8777242"
     id="rect70"
     style="fill:#f4f4f4;stroke-width:0.87663329" /><rect
     x="94.356575"
     y="-283.84244"
     transform="matrix(-0.33642492,0.94171029,-0.98040069,-0.19701395,0,0)"
     width="9.2304134"
     height="6.0314522"
     id="rect72"
     style="fill:#f4f4f4;stroke-width:0.87059331" /><polygon
     points="399.659,196.952 410.136,197.303 405.271,203.037 404.711,209.439 398.613,208.905 "
     id="polygon74"
     style="fill:#f4f4f4"
     transform="matrix(1,0,0,0.75,-157.073,-17.0445)" /><polygon
     points="398.612,179.639 404.712,179.104 405.197,184.657 410.38,191.304 399.659,191.592 "
     id="polygon76"
     style="fill:#f4f4f4"
     transform="matrix(1,0,0,0.75,-157.073,-17.0445)" /><rect
     x="151.36794"
     y="-196.33449"
     transform="matrix(0.33654019,0.9416691,-0.98038598,0.19708712,0,0)"
     width="9.2308168"
     height="6.0325279"
     id="rect78"
     style="fill:#f4f4f4;stroke-width:0.87059629" /><rect
     x="168.03848"
     y="-156.16609"
     transform="matrix(0.52799562,0.8492471,-0.94394114,0.33011381,0,0)"
     width="9.6038246"
     height="5.8778758"
     id="rect80"
     style="fill:#f4f4f4;stroke-width:0.87663645" /><rect
     x="182.07547"
     y="-114.99429"
     transform="matrix(0.68241998,0.73096031,-0.88534452,0.46493557,0,0)"
     width="10.086457"
     height="5.6655478"
     id="rect82"
     style="fill:#f4f4f4;stroke-width:0.88184977" /><rect
     x="191.35654"
     y="-75.435997"
     transform="matrix(0.8,0.6,-0.8,0.6,0,0)"
     width="10.605616"
     height="5.4119668"
     id="rect84"
     style="fill:#f4f4f4;stroke-width:0.88388348" /><rect
     x="193.95982"
     y="-39.495327"
     transform="matrix(0.88537789,0.46487202,-0.6823564,0.73101966,0,0)"
     width="11.103982"
     height="5.1461973"
     id="rect86"
     style="fill:#f4f4f4;stroke-width:0.88184792" /><rect
     x="188.37953"
     y="-8.3777246"
     transform="matrix(0.94394114,0.33011381,-0.52799562,0.8492471,0,0)"
     width="11.52052"
     height="4.8999596"
     id="rect88"
     style="fill:#f4f4f4;stroke-width:0.87663645" /><rect
     x="174.02065"
     y="17.85257"
     transform="matrix(0.98040069,0.19701395,-0.33642492,0.94171029,0,0)"
     width="11.821527"
     height="4.7102113"
     id="rect90"
     style="fill:#f4f4f4;stroke-width:0.87059331" /></svg>