<?xml version="1.0" encoding="UTF-8" standalone="no"?>
<!-- Generator: Adobe Illustrator 13.0.0, SVG Export Plug-In . SVG Version: 6.00 Build 14948)  -->

<svg
   xmlns:ns="&amp;#38;ns_sfw;"
   xmlns:dc="http://purl.org/dc/elements/1.1/"
   xmlns:cc="http://creativecommons.org/ns#"
   xmlns:rdf="http://www.w3.org/1999/02/22-rdf-syntax-ns#"
   xmlns:svg="http://www.w3.org/2000/svg"
   xmlns="http://www.w3.org/2000/svg"
   xmlns:sodipodi="http://sodipodi.sourceforge.net/DTD/sodipodi-0.dtd"
   xmlns:inkscape="http://www.inkscape.org/namespaces/inkscape"
   version="1.2"
   id="Layer_3"
   x="0px"
   y="0px"
   width="498.65601"
   height="177.18839"
   viewBox="0 0 498.65598 177.18838"
   xml:space="preserve"
   inkscape:version="0.92.2 (5c3e80d, 2017-08-06)"
   sodipodi:docname="controller.svg"><defs
     id="defs54" /><sodipodi:namedview
     pagecolor="#ffffff"
     bordercolor="#666666"
     borderopacity="1"
     objecttolerance="10"
     gridtolerance="10"
     guidetolerance="10"
     inkscape:pageopacity="0"
     inkscape:pageshadow="2"
     inkscape:window-width="1920"
     inkscape:window-height="1017"
     id="namedview52"
     showgrid="false"
     fit-margin-top="0"
     fit-margin-left="0"
     fit-margin-right="0"
     fit-margin-bottom="0"
     inkscape:zoom="0.48145317"
     inkscape:cx="252.83051"
     inkscape:cy="123.79"
     inkscape:window-x="-8"
     inkscape:window-y="-8"
     inkscape:window-maximized="1"
     inkscape:current-layer="Layer_3" /><metadata
     id="metadata55"><rdf:RDF><cc:Work
         rdf:about=""><dc:format>image/svg+xml</dc:format><dc:type
           rdf:resource="http://purl.org/dc/dcmitype/StillImage" /><dc:title></dc:title></cc:Work></rdf:RDF><ns:sfw><ns:slices /><ns:sliceSourceBounds
         x="707.67"
         y="415.711"
         width="498.654"
         height="236.253"
         bottomLeftOrigin="true" /></ns:sfw></metadata><path
     id="path3"
     d="m 98.977,2.5178875 c -1.594,-0.02925 -3.974,0.0015 -8.311,0.05925 -8.635,0.11325 -51.506,0.2355 -52.49,0.2355 -0.692,0 -1.526,0.201 -2.229,0.7275 -0.703,0.5265 -1.338,1.33875 -2.045,2.63475 -0.23,0.4215 -0.615,1.36875 -1.206,2.94975 -0.591,1.5809995 -1.373,3.7244995 -2.255,6.3307495 -1.762,5.214 -3.978,12.26025 -6.158,20.196 -4.362,15.871505 -8.548,35.328755 -8.548,50.991005 v 3.91275 c 0,15.663748 4.186,35.119498 8.548,50.989498 2.181,7.9365 4.396,14.96175 6.161,20.175 0.883,2.60775 1.664,4.77075 2.255,6.35175 0.591,1.581 0.977,2.52825 1.206,2.9505 0.707,1.29525 1.343,2.10825 2.045,2.6355 0.702,0.52725 1.535,0.72675 2.229,0.72675 0.986,0 43.854,0.123 52.49,0.237 4.337,0.0555 6.717,0.0675 8.312,0.0382 1.595,-0.0292 2.417,-0.1185 3.435,-0.29475 0.59,-0.10275 2.312,-0.46725 4.693,-0.98325 2.382,-0.51675 5.385,-1.16625 8.311,-1.809 5.854,-1.28925 11.458,-2.53725 11.458,-2.53725 l -0.472,-1.21875 c 0,0 -5.606,1.248 -11.458,2.53725 -2.925,0.64275 -5.908,1.3125 -8.285,1.8285 -2.378,0.516 -4.216,0.89325 -4.615,0.96375 -0.961,0.16575 -1.568,0.246 -3.094,0.27525 -1.525,0.0277 -3.922,-0.003 -8.259,-0.06 h -0.026 c -8.74,-0.1185 -51.344,-0.2445 -52.488,-0.2445 -0.373,0 -0.61,-0.0248 -1.049,-0.35475 -0.439,-0.33 -1.015,-1.008 -1.678,-2.22225 -0.113,-0.20625 -0.541,-1.263 -1.127,-2.83125 -0.586,-1.5675 -1.375,-3.6945 -2.255,-6.29325 -1.759,-5.196 -3.96,-12.22125 -6.135,-20.136 -4.35,-15.8265 -8.521,-35.238 -8.521,-50.730748 v -3.91275 c 0,-15.495 4.171,-34.9065 8.521,-50.734505 2.175,-7.914 4.376,-14.94 6.135,-20.136 0.879,-2.598 1.668,-4.7445 2.255,-6.3119995 0.587,-1.5675 1.015,-2.6055 1.127,-2.8125 0.663,-1.215 1.239,-1.893 1.678,-2.2215 0.439,-0.32925 0.676,-0.354 1.049,-0.354 1.145,0 43.749,-0.1215 52.49,-0.2355 h 0.026 c 4.338,-0.0585 6.737,-0.0885 8.264,-0.06075 1.525,0.02775 2.132,0.1095 3.094,0.27525 l 0.176,0.039 c 0.49,0.09 2.148,0.4305 4.431,0.924 2.378,0.51525 5.36,1.16475 8.285,1.809 5.851,1.2885 11.458,2.5365 11.458,2.5365 l 0.472,-1.2 c 0,0 -5.604,-1.248 -11.458,-2.5365 -2.926,-0.64425 -5.929,-1.29375 -8.311,-1.80975 -2.374,-0.516 -4.094,-0.8805 -4.69,-0.98325 -1.015,-0.1755 -1.837,-0.285 -3.432,-0.31425 z"
     inkscape:connector-curvature="0"
     style="fill:#f4f4f4;stroke-width:0.86602539" /><path
     id="path5"
     d="m 99.287,0.0203875 c -1.594,-0.02925 -4,-0.01725 -8.338,0.03975 -8.618,0.1125 -66.502,0.2355 -67.488,0.2355 -1.053,0 -2.155,0.14325 -3.12,0.669 -0.965,0.525 -1.745,1.374 -2.438,2.694 -0.215,0.4095 -0.599,1.362 -1.18,2.9295 -0.581,1.56825 -1.333,3.6997495 -2.203,6.2924995 -1.738,5.187 -3.93,12.219 -6.083,20.19525 C 4.138,49.028392 0,68.790892 0,85.384642 v 6.42975 c 0,16.588498 4.138,36.355498 8.442,52.307248 2.152,7.97625 4.344,14.9895 6.083,20.175 0.869,2.59275 1.622,4.7445 2.202,6.312 0.58,1.5675 0.965,2.51925 1.18,2.9295 0.693,1.32 1.473,2.16975 2.438,2.694 0.964,0.52575 2.067,0.66975 3.12,0.66975 0.985,0 58.87,0.10275 67.488,0.21525 4.337,0.057 6.743,0.0877 8.338,0.06 1.594,-0.0292 2.418,-0.12 3.435,-0.29625 0.608,-0.10575 2.416,-0.501 4.956,-1.062 2.539,-0.5595 5.726,-1.28175 8.861,-1.9845 6.272,-1.40925 12.296,-2.77275 12.296,-2.77275 l -0.478,-1.1895 c 0,0 -6.027,1.365 -12.297,2.77125 -3.134,0.70425 -6.327,1.428 -8.861,1.986 -2.535,0.5595 -4.469,0.95625 -4.851,1.02225 v 0.0203 c -0.961,0.16575 -1.595,0.22725 -3.12,0.255 -1.525,0.0292 -3.923,-0.001 -8.259,-0.0585 -8.728,-0.114 -66.368,-0.21675 -67.514,-0.21675 -0.876,0 -1.516,-0.10125 -2.124,-0.432 -0.607,-0.33075 -1.236,-0.9525 -1.861,-2.14275 -0.115,-0.21825 -0.551,-1.2585 -1.128,-2.8125 -0.576,-1.554 -1.336,-3.66975 -2.202,-6.2535 -1.732,-5.16825 -3.91,-12.1815 -6.057,-20.136 C 5.793,127.95469 1.67,108.24694 1.67,91.815942 v -6.4305 c 0,-16.4295 4.123,-36.16425 8.416,-52.071755 2.146,-7.9545 4.325,-14.949 6.057,-20.1165 0.867,-2.5845 1.626,-4.7182495 2.203,-6.2729995 0.576,-1.55475 1.013,-2.57475 1.127,-2.79225 0.625,-1.19025 1.253,-1.81275 1.862,-2.1435 0.607,-0.33075 1.248,-0.43275 2.124,-0.43275 1.145,0 58.785,-0.1215 67.514,-0.2355 4.336,-0.057 6.734,-0.0675 8.259,-0.03975 1.525,0.0285 2.159,0.08925 3.12,0.25575 0.383,0.066 2.316,0.483 4.851,1.0425 2.535,0.5595 5.728,1.2825 8.862,1.986 6.276,1.407 12.3,2.77275 12.3,2.77275 l 0.472,-1.2195 c 0,0 -6.025,-1.36425 -12.296,-2.77275 -3.136,-0.7035 -6.323,-1.40625 -8.862,-1.9665 -2.533,-0.561 -4.346,-0.95625 -4.95,-1.062 -1.015,-0.1755 -1.846,-0.2655 -3.44,-0.29475 z"
     inkscape:connector-curvature="0"
     style="fill:#f4f4f4;stroke-width:0.86602539" /><path
     id="path7"
     d="m 127.243,168.15089 -1.443,0.64725 c 1.595,1.9935 3.411,2.9895 5.401,2.9895 h 52.543 131.146 52.569 c 1.989,0 3.779,-0.996 5.375,-2.9895 l -1.442,-0.64875 c -1.452,1.806 -2.685,2.379 -3.936,2.379 H 314.884 183.738 131.196 c -1.257,0 -2.512,-0.5715 -3.959,-2.3805 z"
     inkscape:connector-curvature="0"
     style="fill:#f4f4f4;stroke-width:0.86602539" /><path
     id="path9"
     d="m 399.652,2.5178875 c -1.595,0.02925 -2.418,0.13875 -3.435,0.31425 -0.591,0.102 -2.311,0.46725 -4.693,0.98325 -2.382,0.516 -5.358,1.16475 -8.285,1.809 -5.854,1.2885 -11.458,2.5365 -11.458,2.5365 l 0.473,1.19925 c 0,0 5.607,-1.24875 11.457,-2.5365 2.926,-0.64425 5.908,-1.2945 8.285,-1.809 2.378,-0.51525 4.19,-0.89475 4.589,-0.96375 0.961,-0.1665 1.595,-0.2475 3.12,-0.27525 1.525,-0.02775 3.923,0.0022 8.259,0.05925 8.713,0.114 51.372,0.2355 52.517,0.2355 0.373,0 0.584,0.02475 1.022,0.354 0.439,0.32925 1.042,1.00725 1.704,2.22225 0.113,0.20625 0.542,1.24425 1.128,2.8125 0.587,1.5674995 1.35,3.7139995 2.229,6.3119995 1.759,5.19675 3.987,12.222 6.161,20.13675 4.351,15.828005 8.521,35.239505 8.521,50.733755 v 3.9135 c 0,15.492748 -4.172,34.906498 -8.521,50.734498 -2.174,7.91325 -4.402,14.94 -6.161,20.136 -0.879,2.59875 -1.642,4.72425 -2.229,6.29325 -0.586,1.5675 -1.015,2.625 -1.128,2.83125 -0.662,1.21425 -1.265,1.89225 -1.704,2.22225 -0.438,0.32925 -0.648,0.35325 -1.022,0.35325 -1.145,0 -43.804,0.123 -52.517,0.237 -4.336,0.0555 -6.733,0.0848 -8.259,0.0585 -1.525,-0.0277 -2.159,-0.1095 -3.12,-0.27525 -0.399,-0.069 -2.211,-0.4485 -4.589,-0.96375 -2.377,-0.5145 -5.359,-1.185 -8.285,-1.8285 -5.851,-1.28925 -11.457,-2.53725 -11.457,-2.53725 l -0.473,1.21875 c 0,0 5.604,1.248 11.458,2.53725 2.927,0.64425 5.903,1.29375 8.285,1.809 2.382,0.51525 4.104,0.8805 4.693,0.98325 1.017,0.1755 1.84,0.2655 3.435,0.29625 1.595,0.0277 4,0.0157 8.338,-0.0397 8.635,-0.114 51.504,-0.2355 52.49,-0.2355 0.692,0 1.525,-0.2025 2.229,-0.72825 0.702,-0.52725 1.338,-1.34025 2.045,-2.6355 0.229,-0.42225 0.615,-1.3695 1.206,-2.9505 0.591,-1.581 1.347,-3.744 2.229,-6.35175 1.764,-5.21325 3.979,-12.24 6.161,-20.175 4.361,-15.87 8.573,-35.3265 8.573,-50.988748 v -3.9135 c 0,-15.66225 -4.212,-35.118 -8.573,-50.988755 -2.183,-7.93125 -4.405,-14.97675 -6.167,-20.19075 -0.881,-2.60625 -1.637,-4.75125 -2.224,-6.3314995 -0.596,-1.58025 -0.981,-2.52825 -1.208,-2.94975 -0.713,-1.296 -1.342,-2.10825 -2.048,-2.63475 -0.702,-0.52725 -1.536,-0.7275 -2.229,-0.7275 -0.984,0 -43.854,-0.123 -52.489,-0.23625 -4.338,-0.057 -6.746,-0.08775 -8.341,-0.05925 z"
     inkscape:connector-curvature="0"
     style="fill:#f4f4f4;stroke-width:0.86602539" /><path
     id="path11"
     d="m 399.367,0.0203875 c -1.594,0.02925 -2.444,0.11925 -3.461,0.2955 -0.606,0.105 -2.416,0.501 -4.955,1.062 -2.539,0.56025 -5.726,1.26225 -8.862,1.9665 -6.275,1.40775 -12.299,2.77275 -12.299,2.77275 l 0.498,1.2195 c 0,0 6.001,-1.36575 12.271,-2.77275 3.135,-0.7035 6.327,-1.4265 8.861,-1.986 2.535,-0.5595 4.494,-0.97575 4.877,-1.0425 0.961,-0.1665 1.568,-0.228 3.094,-0.25575 1.526,-0.02775 3.922,-0.01725 8.259,0.039 8.729,0.1155 66.396,0.23625 67.54,0.23625 0.877,0 1.517,0.10125 2.124,0.43275 0.607,0.3315 1.235,0.9525 1.861,2.1435 0.114,0.21825 0.525,1.2375 1.101,2.79225 0.576,1.55475 1.337,3.6884995 2.203,6.2729995 1.732,5.169 3.936,12.162 6.083,20.1165 4.293,15.908255 8.416,35.640005 8.416,52.071005 v 6.4305 c 0,16.430998 -4.123,36.143248 -8.416,52.051498 -2.147,7.953 -4.351,14.96775 -6.083,20.136 -0.866,2.58375 -1.627,4.698 -2.203,6.2535 -0.575,1.554 -0.986,2.59425 -1.101,2.8125 -0.625,1.1895 -1.254,1.812 -1.861,2.14275 -0.607,0.33075 -1.247,0.432 -2.124,0.432 -1.146,0 -58.811,0.10125 -67.54,0.21675 -4.337,0.057 -6.734,0.0863 -8.259,0.0585 -1.525,-0.0277 -2.133,-0.0892 -3.094,-0.255 v -0.0203 c -0.382,-0.066 -2.342,-0.46275 -4.877,-1.02225 -2.534,-0.5595 -5.728,-1.28175 -8.861,-1.986 -6.27,-1.40625 -12.271,-2.77125 -12.271,-2.77125 l -0.498,1.1985 c 0,0 6.024,1.365 12.296,2.77275 3.137,0.70425 6.322,1.425 8.861,1.986 2.54,0.5595 4.348,0.95625 4.956,1.062 1.017,0.1755 1.866,0.2655 3.461,0.29475 1.595,0.0292 3.973,-0.001 8.312,-0.0585 8.617,-0.114 66.528,-0.21675 67.514,-0.21675 1.053,0 2.129,-0.14175 3.094,-0.66825 0.965,-0.5265 1.745,-1.374 2.438,-2.694 0.216,-0.41025 0.599,-1.362 1.18,-2.9295 0.581,-1.569 1.333,-3.72075 2.202,-6.3135 1.739,-5.1855 3.931,-12.1995 6.083,-20.1735 4.305,-15.95325 8.469,-35.71875 8.469,-52.307248 v -6.42975 c 0,-16.59 -4.164,-36.3555 -8.469,-52.307255 -2.152,-7.977 -4.344,-15.009 -6.083,-20.19525 -0.869,-2.5935 -1.621,-4.7249995 -2.202,-6.2924995 -0.581,-1.5675 -0.964,-2.52 -1.18,-2.93025 -0.694,-1.32 -1.474,-2.169 -2.438,-2.694 -0.964,-0.525 -2.041,-0.669 -3.094,-0.669 -0.986,0 -58.896,-0.12225 -67.514,-0.2355 -4.346,-0.0645 -6.729,-0.0765 -8.323,-0.04725 z"
     inkscape:connector-curvature="0"
     style="fill:#f4f4f4;stroke-width:0.86602539" /><path
     id="path13"
     d="m 129.886,7.1386375 c -0.829,0 -1.673,0.0165 -2.491,0.354 -0.817,0.33825 -1.511,0.9315 -2.307,1.92675 v 0.03975 l -0.026,0.0195 C 111.856,29.525387 105.614,63.996892 105.614,87.210892 v 2.77275 c 0,23.214748 6.245,57.688498 19.455,77.732248 l 0.026,0.0188 v 0.0203 c 0.796,0.9945 1.49,1.58925 2.308,1.926 0.817,0.33825 1.662,0.35475 2.491,0.35475 h 52.542 133.797 52.543 c 0.83,0 1.646,-0.0157 2.465,-0.35475 0.816,-0.33675 1.51,-0.9315 2.307,-1.926 l 0.026,-0.0203 v -0.0188 c 13.197,-20.04225 19.474,-54.51825 19.474,-77.732248 v -2.77275 c 0,-23.21625 -6.272,-57.687755 -19.48,-77.7322545 v -0.0195 l -0.026,-0.03975 c -0.797,-0.99525 -1.49,-1.58925 -2.308,-1.92675 -0.817,-0.3375 -1.635,-0.354 -2.465,-0.354 H 316.227 182.428 Z m 0,1.2585 h 52.543 133.796 52.543 c 0.795,0 1.226,0.021 1.652,0.1965 0.416,0.17175 0.95,0.57075 1.651,1.4354995 0.016,0.0195 0.01,0.0195 0.026,0.039 12.945,19.67625 19.271,54.113255 19.271,77.140505 v 2.772 c 0,23.023498 -6.333,57.444748 -19.271,77.121748 -0.726,0.90675 -1.253,1.299 -1.678,1.47525 -0.426,0.1755 -0.857,0.1965 -1.652,0.1965 H 316.224 182.429 129.886 c -0.793,0 -1.252,-0.0203 -1.678,-0.1965 -0.41,-0.17025 -0.941,-0.5775 -1.625,-1.41675 -0.005,-0.008 -0.021,-0.012 -0.026,-0.0188 -12.954,-19.67025 -19.272,-54.1215 -19.272,-77.159248 v -2.77275 c 0,-23.04375 6.334,-57.511505 19.297,-77.184755 0.693,-0.8527495 1.212,-1.2652495 1.625,-1.4354995 0.425,-0.1755 0.884,-0.1965 1.678,-0.1965 z"
     inkscape:connector-curvature="0"
     style="fill:#f4f4f4;stroke-width:0.86602539" /><path
     id="path15"
     d="m 131.203,5.3888875 c -1.991,0 -3.807,1.014 -5.401,3.00825 l 1.442,0.64875 c 1.448,-1.80975 2.703,-2.39925 3.959,-2.39925 h 52.542 131.146 52.568 c 1.255,0 2.485,0.5895 3.933,2.39925 l 1.443,-0.648 c -1.603,-1.995 -3.39,-3.009 -5.378,-3.009 H 314.888 183.744 131.201 Z"
     inkscape:connector-curvature="0"
     style="fill:#f4f4f4;stroke-width:0.86602539" /><g
     id="g17"
     transform="matrix(1,0,0,0.75,-46.264,-47.001613)"><path
       id="path19"
       d="m 453.166,177.22 c -0.043,-14.803 -1.193,-29.6 -3.442,-44.23 -0.111,-0.727 0.445,-1.419 1.247,-1.547 0.804,-0.127 1.548,0.366 1.66,1.099 2.28,14.808 3.438,29.789 3.476,44.771 10e-4,0.558 10e-4,0.836 0,1.393 -0.037,14.982 -1.194,29.961 -3.476,44.768 -0.113,0.736 -0.856,1.227 -1.66,1.1 -0.802,-0.127 -1.358,-0.816 -1.247,-1.543 2.248,-14.633 3.399,-29.428 3.442,-44.23 v -1.578 z"
       inkscape:connector-curvature="0"
       style="fill:#f4f4f4" /></g><g
     id="g21"
     transform="matrix(1,0,0,0.75,-46.264,-47.001613)"><path
       id="path23"
       d="m 459.777,177.294 c -0.044,-15.282 -1.23,-30.562 -3.555,-45.667 -0.115,-0.75 0.462,-1.465 1.29,-1.595 0.829,-0.131 1.597,0.375 1.714,1.133 2.354,15.288 3.552,30.759 3.588,46.227 0.002,0.576 0.002,0.862 0,1.437 -0.036,15.471 -1.234,30.939 -3.588,46.229 -0.117,0.758 -0.885,1.266 -1.714,1.133 -0.828,-0.131 -1.404,-0.844 -1.288,-1.596 2.32,-15.104 3.51,-30.385 3.553,-45.666 0.008,-0.654 0.008,-0.982 0.008,-1.637 z"
       inkscape:connector-curvature="0"
       style="fill:#f4f4f4" /></g><g
     id="g25"
     transform="matrix(1,0,0,0.75,-46.264,-47.001613)"><path
       id="path27"
       d="m 144.998,177.22 c 0.037,-14.802 1.191,-29.6 3.441,-44.23 0.111,-0.727 -0.446,-1.419 -1.249,-1.546 -0.802,-0.126 -1.547,0.365 -1.661,1.098 -2.278,14.806 -3.441,29.79 -3.475,44.771 -0.001,0.558 -0.001,0.836 0,1.393 0.035,14.982 1.194,29.961 3.475,44.768 0.114,0.736 0.857,1.229 1.661,1.102 0.803,-0.125 1.36,-0.818 1.249,-1.545 -2.25,-14.631 -3.404,-29.43 -3.441,-44.23 v -1.578 z"
       inkscape:connector-curvature="0"
       style="fill:#f4f4f4" /></g><g
     id="g29"
     transform="matrix(1,0,0,0.75,-46.264,-47.001613)"><path
       id="path31"
       d="m 138.386,177.294 c 0.043,-15.282 1.232,-30.56 3.552,-45.667 0.115,-0.75 -0.459,-1.464 -1.288,-1.595 -0.829,-0.131 -1.598,0.375 -1.714,1.133 -2.35,15.29 -3.554,30.758 -3.586,46.227 -0.001,0.576 -0.001,0.862 0,1.437 0.035,15.471 1.236,30.939 3.586,46.229 0.117,0.758 0.885,1.266 1.714,1.133 0.829,-0.133 1.403,-0.844 1.288,-1.596 -2.322,-15.105 -3.51,-30.385 -3.552,-45.666 -0.017,-0.654 -0.017,-0.982 -0.008,-1.637 z"
       inkscape:connector-curvature="0"
       style="fill:#f4f4f4" /></g><g
     id="g33"
     transform="matrix(1,0,0,0.75,-46.264,-47.001613)"><path
       id="path35"
       d="m 467.538,177.664 c -0.047,-15.872 -1.4,-31.745 -4.057,-47.394 -0.132,-0.776 0.452,-1.529 1.31,-1.679 0.856,-0.149 1.666,0.367 1.799,1.152 2.685,15.858 4.05,31.935 4.103,48.021 0.002,0.599 0.002,0.897 0,1.496 -0.053,16.087 -1.418,32.161 -4.103,48.021 -0.133,0.787 -0.942,1.303 -1.799,1.152 -0.857,-0.148 -1.443,-0.902 -1.312,-1.68 2.656,-15.643 4.011,-31.521 4.059,-47.393 0,-0.672 0,-1.015 -0.009,-1.693 z"
       inkscape:connector-curvature="0"
       style="fill:#f4f4f4" /></g><g
     id="g37"
     transform="matrix(1,0,0,0.75,-46.264,-47.001613)"><path
       id="path39"
       d="m 476.33,177.53 c -0.043,-16.548 -1.467,-33.093 -4.229,-49.409 -0.138,-0.81 0.473,-1.593 1.366,-1.749 0.896,-0.157 1.735,0.382 1.873,1.2 2.801,16.531 4.235,33.295 4.275,50.063 0.002,0.622 0.002,0.934 0,1.559 -0.04,16.766 -1.476,33.529 -4.274,50.061 -0.139,0.822 -0.979,1.357 -1.874,1.201 -0.894,-0.156 -1.505,-0.938 -1.367,-1.752 2.765,-16.313 4.187,-32.859 4.229,-49.406 -0.008,-0.705 -0.008,-1.057 -0.008,-1.763 z"
       inkscape:connector-curvature="0"
       style="fill:#f4f4f4" /></g><g
     id="g41"
     transform="matrix(1,0,0,0.75,-46.264,-47.001613)"><path
       id="path43"
       d="m 487.565,177.697 c -0.055,-17.239 -1.667,-34.47 -4.804,-51.422 -0.156,-0.843 0.464,-1.667 1.393,-1.845 0.928,-0.177 1.811,0.37 1.969,1.223 3.187,17.186 4.811,34.67 4.863,52.154 0.002,0.648 0.002,0.975 0,1.625 -0.053,17.482 -1.673,34.961 -4.863,52.152 -0.157,0.852 -1.041,1.4 -1.969,1.223 -0.93,-0.176 -1.548,-1.002 -1.393,-1.846 3.137,-16.949 4.748,-34.184 4.804,-51.422 0.008,-0.738 0.008,-1.107 0,-1.846 z"
       inkscape:connector-curvature="0"
       style="fill:#f4f4f4" /></g><g
     id="g45"
     transform="matrix(1,0,0,0.75,-46.264,-47.001613)"><path
       id="path47"
       d="m 500.259,177.538 c -0.053,-18.236 -1.766,-36.464 -5.081,-54.396 -0.165,-0.891 0.492,-1.765 1.474,-1.951 0.98,-0.187 1.917,0.391 2.084,1.293 3.364,18.185 5.091,36.674 5.143,55.169 0.002,0.688 0.002,1.032 0,1.719 -0.052,18.494 -1.777,36.98 -5.144,55.168 -0.167,0.902 -1.103,1.482 -2.083,1.295 -0.981,-0.189 -1.639,-1.061 -1.474,-1.953 3.32,-17.93 5.027,-36.162 5.081,-54.395 0.009,-0.771 0.009,-1.167 0,-1.947 z"
       inkscape:connector-curvature="0"
       style="fill:#f4f4f4" /></g><g
     id="g49"
     transform="matrix(1,0,0,0.75,-46.264,-47.001613)"><path
       id="path51"
       d="m 514.287,177.128 c -0.063,-19.234 -1.859,-38.458 -5.358,-57.371 -0.174,-0.941 0.435,-1.844 1.365,-2.021 0.932,-0.177 1.833,0.447 2.01,1.397 3.546,19.156 5.36,38.634 5.417,58.12 10e-4,0.724 10e-4,1.085 0,1.808 -0.057,19.482 -1.865,38.963 -5.419,58.117 -0.176,0.951 -1.075,1.578 -2.008,1.4 -0.931,-0.18 -1.539,-1.084 -1.365,-2.023 3.501,-18.912 5.295,-38.137 5.358,-57.371 -0.008,-0.839 -0.008,-1.25 -0.008,-2.063 z"
       inkscape:connector-curvature="0"
       style="fill:#f4f4f4" /></g><path
     id="path53"
     d="m 418.823,13.588637 c -0.495,-0.06975 -1.024,-0.06675 -1.547,0.0195 l -26.454,4.38525 c -2.084,0.3435 -3.396,1.89675 -2.937,3.46125 v 0.039 l 0.026,0.039 8.338,18.0915 0.026,0.07875 h 0.025 c 0.51,1.512755 2.543,2.482505 4.589,2.143505 l 26.454,-4.385255 c 2.085,-0.34425 3.397,-1.8975 2.937,-3.46125 v -0.039 l -0.026,-0.03975 -8.338,-18.0915 c -0.005,-0.021 -0.019,-0.03825 -0.026,-0.05925 -0.37,-1.13925 -1.606,-1.977 -3.067,-2.18175 z m -1.179,1.2585 c 1.198,-0.19875 2.357,0.35925 2.622,1.2585 l 0.025,0.03975 v 0.039 l 8.364,18.0915 c 0.265,0.8985 -0.479,1.76775 -1.678,1.9665 l -26.455,4.36575 c -1.199,0.19875 -2.358,-0.35925 -2.622,-1.2585 l -0.026,-0.0195 v -0.03975 l -8.363,-18.09075 c -0.002,-0.0067 10e-4,-0.0135 0,-0.0195 -0.248,-0.8925 0.49,-1.77 1.678,-1.9665 z"
     inkscape:connector-curvature="0"
     style="fill:#f4f4f4;stroke-width:0.86602539" /><path
     id="circle55"
     d="m 409.066,17.619887 c -7.43,0 -13.45,4.5345 -13.45,10.107 0,5.57175 6.021,10.107 13.45,10.107 7.429,0 13.477,-4.53525 13.477,-10.107 0,-5.5725 -6.041,-10.107 -13.475,-10.107 z m 0,1.2585 c 6.522,0 11.798,3.957 11.798,8.8485 0,4.8915 -5.275,8.8485 -11.798,8.8485 -6.523,0 -11.771,-3.957 -11.771,-8.8485 0,-4.89225 5.249,-8.8485 11.771,-8.8485 z"
     inkscape:connector-curvature="0"
     style="fill:#f4f4f4;stroke-width:0.86602539" /><path
     id="path57"
     d="m 455.186,7.7288875 c -0.495,-0.06975 -1.025,-0.06675 -1.547,0.0195 l -26.454,4.3657495 c -2.083,0.34425 -3.396,1.89675 -2.937,3.4605 v 0.03975 l 0.026,0.039 8.338,18.0915 0.026,0.07875 h 0.026 c 0.509,1.51275 2.543,2.481 4.588,2.1435 l 26.455,-4.36575 c 2.082,-0.34425 3.394,-1.917 2.937,-3.48075 v -0.03975 l -0.026,-0.0195 -8.338,-18.1102495 c -0.006,-0.021 -0.02,-0.03825 -0.026,-0.05925 -0.37,-1.14 -1.607,-1.9575 -3.068,-2.163 z m -1.182,1.23825 c 1.199,-0.198 2.357,0.35925 2.621,1.2584995 l 0.026,0.039 v 0.03975 l 8.364,18.09075 c 0.263,0.89925 -0.48,1.7685 -1.678,1.9665 l -26.455,4.36575 c -1.197,0.198 -2.357,-0.35925 -2.622,-1.2585 l -0.026,-0.0195 v -0.039 l -8.363,-18.0915 c -0.002,-0.0067 0.001,-0.01275 0,-0.0195 -0.248,-0.89175 0.489,-1.77 1.678,-1.9665 l 26.462,-4.3642495 z"
     inkscape:connector-curvature="0"
     style="fill:#f4f4f4;stroke-width:0.86602539" /><path
     id="circle59"
     d="m 445.462,11.760137 c -7.428,0 -13.476,4.51575 -13.476,10.0875 0,5.57175 6.048,10.107 13.476,10.107 7.43,0 13.45,-4.536 13.45,-10.107 0,-5.57175 -6.022,-10.0875 -13.45,-10.0875 z m 0,1.2585 c 6.522,0 11.772,3.9375 11.772,8.829 0,4.8915 -5.25,8.8485 -11.772,8.8485 -6.521,0 -11.798,-3.957 -11.798,-8.8485 0,-4.8915 5.276,-8.829 11.798,-8.829 z"
     inkscape:connector-curvature="0"
     style="fill:#f4f4f4;stroke-width:0.86602539" /><path
     id="path61"
     d="m 435.705,139.59539 c -1.449,0.20325 -2.661,1.03575 -3.041,2.16225 h -0.026 l -0.026,0.0788 -8.338,18.09075 -0.025,0.0203 v 0.0383 c -0.461,1.5645 0.853,3.138 2.936,3.48225 l 26.455,4.365 c 2.045,0.33825 4.078,-0.6315 4.589,-2.14425 h 0.025 l 0.026,-0.078 8.337,-18.09075 0.026,-0.0397 v -0.0203 c 0.458,-1.563 -0.853,-3.1365 -2.937,-3.48075 l -26.454,-4.365 c -0.521,-0.0863 -1.052,-0.0893 -1.547,-0.0188 z m 1.179,1.2375 26.454,4.386 c 1.188,0.1965 1.925,1.0545 1.679,1.947 -0.002,0.007 10e-4,0.0135 0,0.0187 l -8.364,18.09225 v 0.0383 l -0.026,0.0397 c -0.264,0.89925 -1.423,1.45725 -2.622,1.2585 l -26.454,-4.3845 c -1.188,-0.1965 -1.925,-1.0545 -1.679,-1.947 0.003,-0.007 -0.001,-0.0135 0,-0.0203 l 8.365,-18.09075 0.025,-0.0397 v -0.0383 c 0.265,-0.90075 1.425,-1.45725 2.622,-1.26 z"
     inkscape:connector-curvature="0"
     style="fill:#f4f4f4;stroke-width:0.86602539" /><path
     id="circle63"
     d="m 445.462,143.62814 c -7.428,0 -13.476,4.51575 -13.476,10.08825 0,5.571 6.048,10.10625 13.476,10.10625 7.43,0 13.45,-4.53525 13.45,-10.10625 0,-5.5725 -6.022,-10.08825 -13.45,-10.08825 z m 0,1.2585 c 6.522,0 11.772,3.939 11.772,8.82975 0,4.89075 -5.25,8.84775 -11.772,8.84775 -6.521,0 -11.798,-3.95625 -11.798,-8.84775 0,-4.8915 5.276,-8.82975 11.798,-8.82975 z"
     inkscape:connector-curvature="0"
     style="fill:#f4f4f4;stroke-width:0.86602539" /><path
     id="path65"
     d="m 399.341,133.71839 c -1.449,0.2025 -2.661,1.03575 -3.041,2.16225 h -0.026 l -0.026,0.0788 -8.338,18.09075 -0.025,0.0398 v 0.0187 c -0.46,1.5645 0.853,3.138 2.937,3.48075 l 26.454,4.3665 c 2.057,0.33825 4.119,-0.618 4.615,-2.14425 0.006,-0.0203 0.021,-0.0383 0.025,-0.0585 l 8.338,-18.111 0.026,-0.0188 v -0.0397 c 0.461,-1.563 -0.852,-3.1365 -2.937,-3.48075 l -26.455,-4.365 c -0.52,-0.087 -1.05,-0.09 -1.547,-0.0195 z m 1.18,1.2375 26.455,4.386 c 1.189,0.1965 1.926,1.056 1.678,1.947 -10e-4,0.006 0.002,0.0135 0,0.0188 l -8.363,18.09075 v 0.0397 l -0.026,0.0397 c -0.264,0.89775 -1.423,1.45575 -2.622,1.2585 l -26.454,-4.38 c -1.19,-0.1965 -1.925,-1.0545 -1.678,-1.947 10e-4,-0.006 -0.002,-0.012 0,-0.0187 l 8.364,-18.09075 v -0.0397 l 0.025,-0.0397 c 0.264,-0.89925 1.424,-1.45575 2.622,-1.2585 z"
     inkscape:connector-curvature="0"
     style="fill:#f4f4f4;stroke-width:0.86602539" /><path
     id="circle67"
     d="m 409.066,137.75114 c -7.43,0 -13.45,4.53525 -13.45,10.10775 0,5.5725 6.021,10.08675 13.45,10.08675 7.429,0 13.477,-4.51575 13.477,-10.08675 0,-5.5725 -6.048,-10.10775 -13.477,-10.10775 z m 0,1.2585 c 6.522,0 11.798,3.95625 11.798,8.84925 0,4.89075 -5.275,8.82825 -11.798,8.82825 -6.523,0 -11.771,-3.9375 -11.771,-8.82825 0,-4.893 5.249,-8.84925 11.771,-8.84925 z"
     inkscape:connector-curvature="0"
     style="fill:#f4f4f4;stroke-width:0.86602539" /><path
     id="path69"
     d="m 42.972,60.370642 c -2.273,0 -4.143,1.40175 -4.143,3.10725 v 7.2165 c 0,1.725 -1.816,3.2445 -4.3,3.2445 h -9.623 c -2.274,0 -4.143,1.3815 -4.143,3.08775 v 15.2985 c 0,1.70475 1.869,3.10725 4.143,3.10725 h 9.623 c 1.055,0 2.13,0.258 2.937,0.78675 0.807,0.52725 1.363,1.311 1.363,2.45775 v 7.196998 c 0,1.70625 1.869,3.10725 4.143,3.10725 H 63.37 c 2.274,0 4.143,-1.40025 4.143,-3.10725 v -7.196998 c 0,-1.17225 0.435,-1.9485 1.154,-2.45775 0.719,-0.51075 1.767,-0.78675 3.146,-0.78675 h 9.622 c 2.274,0 4.143,-1.40175 4.143,-3.10725 v -15.29925 c 0,-1.71825 -1.868,-3.096 -4.143,-3.096 h -9.623 c -1.688,0 -2.689,-0.32925 -3.33,-0.84525 -0.64,-0.516 -0.97,-1.3035 -0.97,-2.39925 v -7.21725 c 0,-1.7055 -1.869,-3.10725 -4.143,-3.10725 H 42.972 Z m 0,1.25775 H 63.37 c 1.367,0 2.465,0.8235 2.465,1.84875 v 7.2165 c 0,1.2915 0.395,2.4225 1.416,3.2445 1.021,0.82275 2.573,1.2585 4.563,1.2585 h 9.622 c 1.368,0 2.465,0.8025 2.465,1.8285 v 15.2985 c 0,1.0245 -1.097,1.848 -2.465,1.848 h -9.622 c -1.689,0 -3.206,0.34425 -4.3,1.12125 -1.095,0.77625 -1.678,1.95675 -1.678,3.3825 v 7.196998 c 0,1.02525 -1.098,1.84875 -2.465,1.84875 H 42.972 c -1.367,0 -2.464,-0.8235 -2.464,-1.84875 v -7.196998 c 0,-1.46925 -0.762,-2.64825 -1.914,-3.40275 -1.152,-0.753 -2.633,-1.101 -4.064,-1.101 h -9.623 c -1.367,0 -2.464,-0.8235 -2.464,-1.848 v -15.29775 c 0,-1.02675 1.098,-1.8285 2.464,-1.8285 h 9.623 c 3.4,0 5.978,-2.1015 5.978,-4.503 v -7.2165 c -0.001,-1.026 1.097,-1.8495 2.464,-1.8495 z"
     inkscape:connector-curvature="0"
     style="fill:#f4f4f4;stroke-width:0.86602539" /><g
     id="g71"
     transform="matrix(1,0,0,0.75,-46.264,-47.001613)"><path
       d="m 214.576,253.787 v -0.84 -0.84 h 171.275 c 6.782,0.034 13.987,-5.523 15.46,-12.22 v 0 c 4.438,-21.566 6.657,-42.906 6.657,-64.246 v 0 c 0,-21.331 -2.219,-42.662 -6.653,-64.204 v 0 c -1.477,-6.711 -8.682,-12.266 -15.464,-12.232 v 0 c -38.064,0 -76.124,0 -114.184,0 v 0 c -19.031,0 -38.06,0 -57.091,0 v 0 c -6.784,-0.034 -13.985,5.521 -15.458,12.218 v 0 c -4.442,21.552 -6.663,42.885 -6.663,64.218 v 0 c 0,21.342 2.219,42.684 6.661,64.231 v 0 c 1.477,6.711 8.678,12.269 15.46,12.234 v 0 0.84 0.841 c -7.649,-0.033 -15.352,-5.961 -17.1,-13.56 v 0 c -4.467,-21.669 -6.699,-43.129 -6.699,-64.586 v 0 c 0,-21.45 2.233,-42.899 6.701,-64.573 v 0 c 1.746,-7.584 9.449,-13.509 17.098,-13.543 v 0 c 19.031,0.002 38.06,0 57.091,0 v 0 c 38.06,0 76.12,0 114.184,0 v 0 c 7.648,0.034 15.355,5.959 17.104,13.558 v 0 c 4.459,21.663 6.692,43.111 6.692,64.558 v 0 c 0,21.457 -2.231,42.911 -6.694,64.599 v 0 c -1.746,7.586 -9.453,13.514 -17.102,13.547 v 0 z"
       id="path40"
       inkscape:connector-curvature="0"
       style="fill:#f4f4f4" /></g><path
     id="path75"
     d="m 173.095,44.854642 c -1.742,0 -3.172,1.07325 -3.172,2.379 v 75.768748 c 0,1.3065 1.431,2.379 3.172,2.379 h 159.671 c 1.743,0 3.173,-1.074 3.173,-2.379 V 47.233642 c 0,-1.30575 -1.43,-2.379 -3.173,-2.379 z m 0,1.2585 h 159.671 c 0.836,0 1.495,0.495 1.495,1.12125 v 75.768748 c 0,0.6255 -0.659,1.1205 -1.495,1.1205 H 173.095 c -0.833,0 -1.495,-0.495 -1.495,-1.1205 V 47.233642 c 0,-0.62475 0.661,-1.1205 1.495,-1.1205 z"
     inkscape:connector-curvature="0"
     style="fill:#f4f4f4;stroke-width:0.86602539" /><path
     id="circle77"
     d="m 143.57,14.866637 c -1.574,0 -2.858,0.963 -2.858,2.1435 0,1.1805 1.284,2.163 2.858,2.163 1.574,0 2.858,-0.98325 2.858,-2.163 0,-1.17975 -1.284,-2.1435 -2.858,-2.1435 z m 0,1.2585 c 0.667,0 1.18,0.38475 1.18,0.885 0,0.50025 -0.513,0.9045 -1.18,0.9045 -0.667,0 -1.18,-0.40425 -1.18,-0.9045 0,-0.50025 0.513,-0.885 1.18,-0.885 z"
     inkscape:connector-curvature="0"
     style="fill:#f4f4f4;stroke-width:0.86602539" /><path
     id="path79"
     d="m 53.171,61.746892 c -7.008,0 -12.716,4.2615 -12.716,9.5175 0,1.57875 -0.458,2.49525 -1.258,3.048 -0.8,0.55275 -2.107,0.84525 -4.09,0.84525 -7.008,0 -12.69,4.26075 -12.69,9.5175 0,5.256 5.682,9.537 12.69,9.537 3.348,0 5.349,1.7715 5.349,4.149 0,5.255998 5.708,9.516748 12.716,9.516748 7.009,0 12.716,-4.2615 12.716,-9.516748 0,-1.52325 0.51,-2.52525 1.389,-3.16575 0.88,-0.64125 2.22,-0.984 4.064,-0.984 7.008,0 12.69,-4.281 12.69,-9.537 0,-5.25675 -5.683,-9.5175 -12.69,-9.5175 -1.854,0 -3.221,-0.2055 -4.064,-0.708 -0.843,-0.5025 -1.389,-1.3845 -1.389,-3.186 -0.001,-5.25525 -5.709,-9.516 -12.717,-9.516 z m 0,1.25775 c 6.101,0 11.039,3.68325 11.039,8.259 0,2.00325 0.677,3.36825 2.018,4.16925 1.342,0.80025 3.124,0.98325 5.113,0.98325 6.101,0 11.012,3.68325 11.012,8.259 0,4.5765 -4.911,8.2785 -11.012,8.2785 -2.126,0 -3.945,0.40875 -5.218,1.33725 -1.273,0.92775 -1.914,2.3235 -1.914,4.071 0,4.576498 -4.937,8.258998 -11.039,8.258998 -6.102,0 -11.038,-3.6825 -11.038,-8.258998 0,-2.9505 -2.843,-5.40825 -7.027,-5.40825 -6.102,0 -11.012,-3.702 -11.012,-8.2785 0,-4.5765 4.91,-8.259 11.012,-8.259 2.19,0 3.993,-0.315 5.244,-1.17975 1.251,-0.86475 1.783,-2.2035 1.783,-3.972 0.001,-4.5765 4.937,-8.25975 11.039,-8.25975 z"
     inkscape:connector-curvature="0"
     style="fill:#f4f4f4;stroke-width:0.86602539" /><path
     id="path81"
     d="m 126.874,46.782142 c -1.166,-0.147 -2.296,0.462 -2.491,1.33725 l -3.516,15.75075 c -0.194,0.87375 0.618,1.7205 1.783,1.86825 l 7.499,0.94425 c 1.166,0.1455 2.296,-0.4635 2.491,-1.33725 l 3.513,-15.75075 c 0.195,-0.8745 -0.617,-1.722 -1.783,-1.86825 l -7.499,-0.9435 h 0.003 z m -0.263,1.239 7.499,0.9435 c 0.272,0.0337 0.439,0.21 0.394,0.41325 l -3.514,15.77025 c -0.045,0.20325 -0.278,0.32925 -0.55,0.2955 l -7.499,-0.94425 c -0.271,-0.0337 -0.465,-0.21075 -0.42,-0.4125 l 3.541,-15.74925 v -0.0195 c 0.045,-0.20325 0.28,-0.3285 0.551,-0.29475 z"
     inkscape:connector-curvature="0"
     style="fill:#f4f4f4;stroke-width:0.86602539" /><path
     id="path83"
     d="m 129.232,99.524392 -7.499,0.943498 c -1.164,0.14775 -1.953,0.97425 -1.757,1.84875 l 3.513,15.77025 c 0.195,0.8745 1.299,1.46325 2.464,1.317 l 7.525,-0.9435 c 1.166,-0.14625 1.952,-0.97425 1.757,-1.84875 l -3.516,-15.76875 c -0.195,-0.874498 -1.324,-1.466248 -2.491,-1.318498 z m 0.288,1.238248 c 0.269,-0.0337 0.505,0.0908 0.551,0.29625 l 3.513,15.75 c 0.044,0.2025 -0.124,0.3795 -0.393,0.41325 l -7.499,0.945 c -0.271,0.0323 -0.506,-0.0937 -0.55,-0.29625 l -3.514,-15.75 c -0.046,-0.20475 0.119,-0.3795 0.394,-0.41325 z"
     inkscape:connector-curvature="0"
     style="fill:#f4f4f4;stroke-width:0.86602539" /><path
     id="path85"
     d="m 120.951,73.409392 c -1.182,0 -2.15,0.7455 -2.15,1.632 v 15.96825 c 0,0.8865 0.969,1.632 2.15,1.632 h 7.604 c 1.181,0 2.176,-0.7455 2.176,-1.632 v -15.9675 c 0,-0.8865 -0.994,-1.632 -2.176,-1.632 h -7.604 z m 0,1.2585 h 7.604 c 0.274,0 0.498,0.168 0.498,0.3735 v 15.96825 c 0,0.20775 -0.223,0.3735 -0.498,0.3735 h -7.604 c -0.275,0 -0.472,-0.16575 -0.472,-0.3735 v -15.96825 c 0,-0.2055 0.197,-0.3735 0.472,-0.3735 z"
     inkscape:connector-curvature="0"
     style="fill:#f4f4f4;stroke-width:0.86602539" /><path
     id="path87"
     d="m 125.565,44.107642 c -0.831,-0.10425 -1.634,0.0622 -2.307,0.354 -0.673,0.29175 -1.274,0.72225 -1.416,1.3575 l -4.379,19.6065 c -0.142,0.6345 0.25,1.19175 0.76,1.632 0.51,0.44025 1.188,0.80025 2.019,0.9045 l 11.222,1.3965 c 0.832,0.10425 1.634,-0.0623 2.308,-0.354 0.673,-0.29175 1.274,-0.72225 1.416,-1.35675 l 4.379,-19.605 c 0.142,-0.6345 -0.25,-1.17225 -0.761,-1.6125 -0.51,-0.44025 -1.188,-0.7995 -2.019,-0.9045 l -11.222,-1.416 z m -0.262,1.239 11.196,1.416 c 0.312,0.039 0.757,0.24 1.049,0.492 0.292,0.252 0.379,0.53775 0.367,0.5895 l -4.378,19.60575 c -0.012,0.0533 -0.218,0.285 -0.603,0.45225 -0.385,0.1665 -0.867,0.255 -1.18,0.21675 l -11.222,-1.416 c -0.312,-0.039 -0.757,-0.21975 -1.048,-0.47175 -0.292,-0.25125 -0.379,-0.537 -0.367,-0.59025 l 4.38,-19.62375 c 0.012,-0.0533 0.217,-0.28575 0.603,-0.45225 0.385,-0.16725 0.894,-0.25575 1.206,-0.21675 z"
     inkscape:connector-curvature="0"
     style="fill:#f4f4f4;stroke-width:0.86602539" /><path
     id="path89"
     d="m 376.059,46.782142 -7.499,0.9435 c -1.166,0.14625 -1.977,0.99375 -1.782,1.86825 l 3.513,15.75075 c 0.197,0.873 1.326,1.48275 2.491,1.33725 l 7.499,-0.94425 c 1.165,-0.147 1.98,-0.993 1.782,-1.86825 l -3.513,-15.75075 c -0.194,-0.87375 -1.324,-1.4835 -2.491,-1.3365 z m 0.288,1.239 c 0.272,-0.0345 0.506,0.0915 0.551,0.29475 v 0.0195 l 3.514,15.75075 c 0.046,0.201 -0.121,0.378 -0.394,0.4125 -0.272,0.0337 -0.53,-0.09 -0.577,-0.29475 l -3.513,-15.77025 c -0.046,-0.20325 0.121,-0.37875 0.393,-0.41325 l 7.525,-0.9435 z"
     inkscape:connector-curvature="0"
     style="fill:#f4f4f4;stroke-width:0.86602539" /><path
     id="path91"
     d="m 373.702,99.524392 c -1.167,-0.14925 -2.294,0.444 -2.491,1.316998 l -3.513,15.77025 c -0.192,0.873 0.617,1.7025 1.782,1.84875 l 7.499,0.9435 c 1.166,0.14625 2.296,-0.4425 2.491,-1.317 l 3.513,-15.77025 c 0.198,-0.8745 -0.62,-1.701 -1.782,-1.84875 z m -0.288,1.238248 7.498,0.945 c 0.272,0.0337 0.466,0.20925 0.42,0.41325 l -3.54,15.75 c -0.045,0.2025 -0.281,0.3285 -0.55,0.29625 l -7.499,-0.945 c -0.269,-0.0338 -0.438,-0.20925 -0.394,-0.41325 l 3.514,-15.75 c 0.046,-0.2055 0.281,-0.33 0.551,-0.29625 z"
     inkscape:connector-curvature="0"
     style="fill:#f4f4f4;stroke-width:0.86602539" /><path
     id="path93"
     d="m 374.062,73.409392 c -1.182,0 -2.149,0.74625 -2.149,1.632 v 15.96825 c 0,0.8865 0.968,1.632 2.149,1.632 h 7.604 c 1.182,0 2.177,-0.7455 2.177,-1.632 v -15.9675 c 0,-0.88575 -0.994,-1.632 -2.177,-1.632 h -7.604 z m 0,1.2585 h 7.604 c 0.276,0 0.498,0.168 0.498,0.3735 v 15.96825 c 0,0.20775 -0.221,0.3735 -0.498,0.3735 h -7.604 c -0.276,0 -0.472,-0.16575 -0.472,-0.3735 v -15.96825 c 0,-0.2055 0.197,-0.3735 0.472,-0.3735 z"
     inkscape:connector-curvature="0"
     style="fill:#f4f4f4;stroke-width:0.86602539" /></svg>