<?xml version="1.0" encoding="UTF-8" standalone="no"?>
<svg
   xmlns:dc="http://purl.org/dc/elements/1.1/"
   xmlns:cc="http://creativecommons.org/ns#"
   xmlns:rdf="http://www.w3.org/1999/02/22-rdf-syntax-ns#"
   xmlns:svg="http://www.w3.org/2000/svg"
   xmlns="http://www.w3.org/2000/svg"
   xmlns:sodipodi="http://sodipodi.sourceforge.net/DTD/sodipodi-0.dtd"
   xmlns:inkscape="http://www.inkscape.org/namespaces/inkscape"
   viewBox="0 0 662.32733 115.98468"
   height="115.98467"
   width="662.32733"
   xml:space="preserve"
   version="1.1"
   id="svg2"
   sodipodi:docname="controller.svg"
   inkscape:version="0.92.2 (5c3e80d, 2017-08-06)"><sodipodi:namedview
     pagecolor="#ffffff"
     bordercolor="#666666"
     borderopacity="1"
     objecttolerance="10"
     gridtolerance="10"
     guidetolerance="10"
     inkscape:pageopacity="0"
     inkscape:pageshadow="2"
     inkscape:window-width="1920"
     inkscape:window-height="1017"
     id="namedview77"
     showgrid="false"
     fit-margin-top="0"
     fit-margin-left="0"
     fit-margin-right="0"
     fit-margin-bottom="0"
     inkscape:zoom="0.52692964"
     inkscape:cx="331.16358"
     inkscape:cy="77.323122"
     inkscape:window-x="-8"
     inkscape:window-y="-8"
     inkscape:window-maximized="1"
     inkscape:current-layer="svg2" /><metadata
     id="metadata8"><rdf:RDF><cc:Work
         rdf:about=""><dc:format>image/svg+xml</dc:format><dc:type
           rdf:resource="http://purl.org/dc/dcmitype/StillImage" /><dc:title></dc:title></cc:Work></rdf:RDF></metadata><defs
     id="defs6"><clipPath
       id="clipPath16"
       clipPathUnits="userSpaceOnUse"><path
         id="path18"
         d="M 0,123.717 H 529.862 V 0 H 0 Z"
         inkscape:connector-curvature="0" /></clipPath></defs><g
     transform="matrix(1.25,0,0,-0.9375,-1.7413956e-4,115.98467)"
     id="g10"><g
       id="g12"><g
         clip-path="url(#clipPath16)"
         id="g14"><g
           transform="translate(149.9725,52.1835)"
           id="g20"><path
             id="path22"
             style="fill:#000000;fill-opacity:1;fill-rule:nonzero;stroke:none"
             d="m 0,0 c -1.353,-1.563 -2.101,-4.812 2.397,-4.48 9.266,-0.026 18.675,-0.97 27.716,0.445 4.17,0.653 8.179,5.658 11.099,9.559 1.441,1.926 1.173,7.981 0.072,8.458 -4.45,1.928 -10.51,4.542 -14.113,2.876 C 23.325,15.081 21.047,9.913 17.82,5.078 17.374,4.411 16.353,4.542 16.064,5.291 l -3.88,10.045 c -0.292,0.755 -1.314,0.869 -1.765,0.196 z m 31.319,60.766 c 17.424,-0.049 37.825,-0.03 55.702,-0.029 0.478,0 0.896,0.35 0.989,0.819 l 1.317,6.618 c 0.106,0.534 0.514,0.857 0.992,0.857 h 271.204 c 0.522,0 0.956,-0.391 0.997,-0.911 l 0.657,-8.196 c 0.037,-0.463 0.437,-0.87 0.934,-0.901 l 14.841,-0.937 c 0.527,-0.033 0.938,-0.47 0.938,-0.999 V 37.399 c 0,-0.517 -0.394,-0.949 -0.909,-0.997 L 370.8,35.649 c -0.474,-0.044 -0.856,-0.42 -0.909,-0.894 -1.057,-9.447 -1.132,-18.266 -3.596,-26.358 -1.107,-3.633 -7.357,-8.038 -11.332,-8.097 -39.938,-0.599 -79.89,-0.414 -119.837,-0.342 -12.808,0.024 -12.556,9.428 -12.968,18.713 -0.024,0.535 -0.467,0.955 -1.002,0.955 h -44.7 c -0.511,0 -0.94,-0.385 -0.995,-0.893 -0.289,-2.634 0.286,-7.457 -0.349,-9.292 -0.098,-0.282 -1.101,-0.517 -1.733,0.115 -9.92,9.919 -27.29,7.971 -42.673,7.971 -20.325,0 -40.113,0.456 -61.027,0.471 C 59.867,18.005 52.993,15.25 50.165,5.394 46.15,-8.603 37.161,-14.282 22.708,-11.648 c -3.648,0.664 -7.519,0.099 -11.288,0.099 -22.982,0 -22.719,-0.109 -30.938,-19.998 -2.765,-6.689 -7.02,-12.822 -11.112,-18.858 -0.927,-1.368 -4,-1.752 -6.095,-1.778 -10.869,-0.133 -22,16.686 -17.102,26.391 5.152,10.208 11.401,19.859 16.759,29.972 2.954,5.574 7.545,14.802 6.955,16.757 -1.92,6.368 -8.049,35.556 -2.264,36.52"
             inkscape:connector-curvature="0" /></g><g
           transform="translate(316.6404,71.0829)"
           id="g24"><path
             id="path26"
             style="fill:#212121;fill-opacity:1;fill-rule:nonzero;stroke:none"
             d="m 0,0 h -194.105 c -1.365,0 -2.544,0.953 -2.832,2.287 l -4.013,18.623 c -0.984,6.623 3.145,11.184 9.03,11.184 H 0 c 1.6,0 2.897,-1.297 2.897,-2.897 V 2.897 C 2.897,1.297 1.6,0 0,0"
             inkscape:connector-curvature="0" /></g><g
           transform="translate(115.6576,11.6237)"
           id="g28"><path
             id="path30"
             style="fill:#292828;fill-opacity:1;fill-rule:nonzero;stroke:none"
             d="m 0,0 c -2.117,-3.4 -4.205,-6.037 -8.294,-2.373 -3.662,3.281 -7.917,6.638 -5.892,12.192 1.599,4.384 3.595,9.402 7.004,12.205 11.569,9.512 14.422,22.54 16.509,36.128 8.819,7.05 14.793,6.452 22.594,-2.262"
             inkscape:connector-curvature="0" /></g><g
           transform="translate(115.657,101.5069)"
           id="g32"><path
             id="path34"
             style="fill:#3b3b3b;fill-opacity:1;fill-rule:nonzero;stroke:none"
             d="m 0,0 v 9.234 c 0,1.187 1.256,2.15 2.806,2.15 H 207.68 c 1.549,0 2.806,-0.963 2.806,-2.15 V 0"
             inkscape:connector-curvature="0" /></g><g
           transform="translate(74.4189,89.1089)"
           id="g36"><path
             id="path38"
             style="fill:#6e4428;fill-opacity:1;fill-rule:nonzero;stroke:none"
             d="m 0,0 c -18.218,-5.964 -36.773,-10.011 -55.389,-14.106 -7.504,-1.651 -14.139,1.829 -12.325,8.7 3.418,12.949 5.349,21.724 8.929,37.459 23.666,0.127 47.905,0.255 71.571,0.376 1.126,0.006 2.588,0.405 3.33,-0.142 C 30.469,21.7 44.433,29.35 58.959,32.455 70.02,34.818 80.308,34.89 91.085,34.295 91.031,26.271 84.316,26.2 79.213,24.894"
             inkscape:connector-curvature="0" /></g><g
           transform="translate(15.6339,121.1617)"
           id="g40"><path
             id="path42"
             style="fill:#4f2f1b;fill-opacity:1;fill-rule:nonzero;stroke:none"
             d="m 0,0 c -2.068,-11.04 -4.172,-22.074 -6.192,-33.122 -1.492,-8.155 0.174,-11.905 10.026,-9.764 26.072,5.667 51.829,12.102 76.186,23.275 1.359,0.623 3.366,1.916 4.136,1.427 11.394,-7.248 17.918,3.531 26.494,6.806 8.72,3.331 17.157,7.453 26.92,7.839 4.144,0.165 9.074,1.335 11.726,5.781 6.455,-0.147 11.635,0.425 15.813,-3.609 1.692,-1.633 2.197,-4.292 0.987,-6.309 -2.027,-3.38 -6.351,-3.54 -9.897,-3.852 -5.052,-0.444 -9.429,-0.444 -14.157,-0.558 -8.939,-0.498 -17.687,-2.543 -26.58,-3.49 -7.184,-0.517 -13.611,-1.958 -13.658,-11.187 -1.339,-4.079 -3.295,-7.048 -7.814,-3.352 -5.447,4.454 -11.282,3.4 -17.026,1.259 -9.669,-3.604 -19.979,-5.211 -29.386,-9.588 -16.571,-6.61 -34.277,-8.872 -51.462,-13.042 -12.061,-2.926 -13.4,-0.381 -10.372,12.123 2.748,11.354 5.538,22.761 7.115,34.308 C -6.378,0.533 -4.254,0.953 0,0"
             inkscape:connector-curvature="0" /></g><g
           transform="translate(63.2117,82.7175)"
           id="g44"><path
             id="path46"
             style="fill:#361e10;fill-opacity:1;fill-rule:nonzero;stroke:none"
             d="m 0,0 c 10.357,8.453 24.187,8.925 35.464,15.411 4.073,2.343 8.014,-0.335 10.734,-3.722 2.851,-3.55 5.35,-3.137 8.028,-0.009 C 54.148,8.564 54.07,5.447 53.991,2.331 39.104,11.585 24.295,5.373 9.688,1.618 6.414,0.777 3.151,0.916 0,0"
             inkscape:connector-curvature="0" /></g><g
           transform="translate(324.2462,61.3454)"
           id="g48"><path
             id="path50"
             style="fill:#212121;fill-opacity:1;fill-rule:nonzero;stroke:none"
             d="m 0,0 h 0.498 c 0.769,0 1.398,0.629 1.398,1.398 v 39.035 c 0,0.769 -0.629,1.398 -1.398,1.398 H 0 c -0.769,0 -1.398,-0.629 -1.398,-1.398 V 1.398 C -1.398,0.629 -0.769,0 0,0"
             inkscape:connector-curvature="0" /></g><g
           transform="translate(251.3483,99.0135)"
           id="g52"><path
             id="path54"
             style="fill:#000000;fill-opacity:1;fill-rule:nonzero;stroke:none"
             d="m 0,0 h -118.346 l 4.527,2.493 H 4.527 Z"
             inkscape:connector-curvature="0" /></g><g
           transform="translate(319.5373,79.2082)"
           id="g56"><path
             id="path58"
             style="fill:#000000;fill-opacity:1;fill-rule:nonzero;stroke:none"
             d="m 0,0 h -131.996 l 4.527,2.493 H 0 Z"
             inkscape:connector-curvature="0" /></g><g
           transform="translate(319.5373,73.6795)"
           id="g60"><path
             id="path62"
             style="fill:#383838;fill-opacity:1;fill-rule:nonzero;stroke:none"
             d="m 0,0 h -146.851 l 5.074,4.643 H 0 Z"
             inkscape:connector-curvature="0" /></g><g
           transform="translate(309.2845,85.2141)"
           id="g64"><path
             id="path66"
             style="fill:#000000;fill-opacity:1;fill-rule:nonzero;stroke:none"
             d="m 0,0 h -41.564 c -2.488,0 -4.525,2.036 -4.525,4.525 V 17.26 c 0,2.488 2.037,4.525 4.525,4.525 H 0 c 2.489,0 4.525,-2.037 4.525,-4.525 V 4.525 C 4.525,2.036 2.489,0 0,0"
             inkscape:connector-curvature="0" /></g><g
           transform="translate(311.8149,101.6223)"
           id="g68"><path
             id="path70"
             style="fill:#3d3d3d;fill-opacity:1;fill-rule:nonzero;stroke:none"
             d="m 0,0 v -10.969 c 0,-2.248 -1.84,-4.087 -4.088,-4.087 h -38.827 c -2.249,0 -4.088,1.839 -4.088,4.087 V 0"
             inkscape:connector-curvature="0" /></g><g
           transform="translate(264.8114,101.6223)"
           id="g72"><path
             id="path74"
             style="fill:#6c6c6c;fill-opacity:1;fill-rule:nonzero;stroke:none"
             d="m 0,0 c 0,2.248 1.84,4.088 4.088,4.088 h 38.827 c 2.249,0 4.088,-1.84 4.088,-4.088"
             inkscape:connector-curvature="0" /></g><path
           id="path76"
           style="fill:#000000;fill-opacity:1;fill-rule:nonzero;stroke:none"
           d="m 281.988,94.656 h 29.827 v 1.903 h -29.827 z"
           inkscape:connector-curvature="0" /><g
           transform="translate(329.0697,71.8684)"
           id="g78"><path
             id="path80"
             style="fill:#3e3e3e;fill-opacity:1;fill-rule:nonzero;stroke:none"
             d="m 0,0 v 6.997 c 0,2.488 2.036,4.525 4.525,4.525 h 39.53 c 2.489,0 4.525,-2.037 4.525,-4.525 V 0"
             inkscape:connector-curvature="0" /></g><g
           transform="translate(505.0408,112.8908)"
           id="g82"><path
             id="path84"
             style="fill:#252525;fill-opacity:1;fill-rule:nonzero;stroke:none"
             d="m 0,0 h -171.446 c -2.489,0 -4.525,-2.036 -4.525,-4.525 v -16.711 c 0,-2.489 2.036,-4.525 4.525,-4.525 H 0 c 2.489,0 4.525,2.036 4.525,4.525 V -4.525 C 4.525,-2.036 2.489,0 0,0"
             inkscape:connector-curvature="0" /></g><path
           id="path86"
           style="fill:#6c6c6c;fill-opacity:1;fill-rule:nonzero;stroke:none"
           d="M 509.566,101.622 H 329.07 v 6.743 h 180.496 z"
           inkscape:connector-curvature="0" /><path
           id="path88"
           style="fill:#3d3d3d;fill-opacity:1;fill-rule:nonzero;stroke:none"
           d="m 329.07,96.559 h 180.496 v 5.064 H 329.07 Z"
           inkscape:connector-curvature="0" /><g
           transform="translate(504.5714,96.5285)"
           id="g90"><path
             id="path92"
             style="fill:#5f3a22;fill-opacity:1;fill-rule:nonzero;stroke:none"
             d="m 0,0 h -129.606 c -4.977,0 -9.05,-4.073 -9.05,-9.05 v -26.011 c 0,-4.978 4.073,-9.05 9.05,-9.05 H 0 c 4.978,0 9.05,4.072 9.05,9.05 V -9.05 C 9.05,-4.073 4.978,0 0,0"
             inkscape:connector-curvature="0" /></g><g
           transform="translate(383.0313,57.0469)"
           id="g94"><path
             id="path96"
             style="fill:#361e10;fill-opacity:1;fill-rule:nonzero;stroke:none"
             d="m 0,0 v 25.341 c 0,1.876 1.535,3.411 3.411,3.411 1.876,0 3.411,-1.535 3.411,-3.411 V 0"
             inkscape:connector-curvature="0" /></g><g
           transform="translate(401.0886,57.0469)"
           id="g98"><path
             id="path100"
             style="fill:#361e10;fill-opacity:1;fill-rule:nonzero;stroke:none"
             d="m 0,0 v 25.341 c 0,1.876 1.535,3.411 3.411,3.411 1.876,0 3.412,-1.535 3.412,-3.411 V 0"
             inkscape:connector-curvature="0" /></g><g
           transform="translate(419.1975,57.0469)"
           id="g102"><path
             id="path104"
             style="fill:#361e10;fill-opacity:1;fill-rule:nonzero;stroke:none"
             d="m 0,0 v 25.341 c 0,1.876 1.535,3.411 3.411,3.411 1.876,0 3.411,-1.535 3.411,-3.411 V 0"
             inkscape:connector-curvature="0" /></g><g
           transform="translate(439.7428,57.0469)"
           id="g106"><path
             id="path108"
             style="fill:#361e10;fill-opacity:1;fill-rule:nonzero;stroke:none"
             d="m 0,0 v 25.341 c 0,1.876 1.535,3.411 3.411,3.411 v 0 c 1.876,0 3.411,-1.535 3.411,-3.411 V 0"
             inkscape:connector-curvature="0" /></g><g
           transform="translate(457.8,57.0469)"
           id="g110"><path
             id="path112"
             style="fill:#361e10;fill-opacity:1;fill-rule:nonzero;stroke:none"
             d="m 0,0 v 25.341 c 0,1.876 1.535,3.411 3.411,3.411 1.876,0 3.411,-1.535 3.411,-3.411 V 0"
             inkscape:connector-curvature="0" /></g><g
           transform="translate(475.909,57.0469)"
           id="g114"><path
             id="path116"
             style="fill:#361e10;fill-opacity:1;fill-rule:nonzero;stroke:none"
             d="m 0,0 v 25.341 c 0,1.876 1.535,3.411 3.411,3.411 1.876,0 3.411,-1.535 3.411,-3.411 V 0"
             inkscape:connector-curvature="0" /></g><g
           transform="translate(375.0526,54.732)"
           id="g118"><path
             id="path120"
             style="fill:#361e10;fill-opacity:1;fill-rule:nonzero;stroke:none"
             d="m 0,0 v 0 c 0,1.273 1.042,2.315 2.315,2.315 h 127.244 c 1.273,0 2.315,-1.042 2.315,-2.315 v 0 c 0,-1.273 -1.042,-2.315 -2.315,-2.315 H 2.315 C 1.042,-2.315 0,-1.273 0,0"
             inkscape:connector-curvature="0" /></g><g
           transform="translate(493.5886,57.0469)"
           id="g122"><path
             id="path124"
             style="fill:#361e10;fill-opacity:1;fill-rule:nonzero;stroke:none"
             d="m 0,0 v 25.341 c 0,1.876 1.535,3.411 3.411,3.411 v 0 c 1.876,0 3.411,-1.535 3.411,-3.411 V 0"
             inkscape:connector-curvature="0" /></g><g
           transform="translate(386.4426,58.3487)"
           id="g126"><path
             id="path128"
             style="fill:#000000;fill-opacity:1;fill-rule:nonzero;stroke:none"
             d="m 0,0 v 0 c -0.423,0 -0.769,0.346 -0.769,0.769 v 22.016 c 0,0.423 0.346,0.769 0.769,0.769 0.423,0 0.769,-0.346 0.769,-0.769 V 0.769 C 0.769,0.346 0.423,0 0,0"
             inkscape:connector-curvature="0" /></g><g
           transform="translate(404.4998,58.3487)"
           id="g130"><path
             id="path132"
             style="fill:#000000;fill-opacity:1;fill-rule:nonzero;stroke:none"
             d="m 0,0 v 0 c -0.423,0 -0.769,0.346 -0.769,0.769 v 22.016 c 0,0.423 0.346,0.769 0.769,0.769 0.423,0 0.769,-0.346 0.769,-0.769 V 0.769 C 0.769,0.346 0.423,0 0,0"
             inkscape:connector-curvature="0" /></g><g
           transform="translate(422.6088,58.3487)"
           id="g134"><path
             id="path136"
             style="fill:#000000;fill-opacity:1;fill-rule:nonzero;stroke:none"
             d="m 0,0 v 0 c -0.423,0 -0.769,0.346 -0.769,0.769 v 22.016 c 0,0.423 0.346,0.769 0.769,0.769 0.423,0 0.769,-0.346 0.769,-0.769 V 0.769 C 0.769,0.346 0.423,0 0,0"
             inkscape:connector-curvature="0" /></g><g
           transform="translate(443.1282,58.3487)"
           id="g138"><path
             id="path140"
             style="fill:#000000;fill-opacity:1;fill-rule:nonzero;stroke:none"
             d="m 0,0 v 0 c -0.423,0 -0.769,0.346 -0.769,0.769 v 22.016 c 0,0.423 0.346,0.769 0.769,0.769 v 0 c 0.423,0 0.769,-0.346 0.769,-0.769 V 0.769 C 0.769,0.346 0.423,0 0,0"
             inkscape:connector-curvature="0" /></g><g
           transform="translate(461.1854,58.3487)"
           id="g142"><path
             id="path144"
             style="fill:#000000;fill-opacity:1;fill-rule:nonzero;stroke:none"
             d="m 0,0 v 0 c -0.423,0 -0.769,0.346 -0.769,0.769 v 22.016 c 0,0.423 0.346,0.769 0.769,0.769 0.423,0 0.769,-0.346 0.769,-0.769 V 0.769 C 0.769,0.346 0.423,0 0,0"
             inkscape:connector-curvature="0" /></g><g
           transform="translate(479.2944,58.3487)"
           id="g146"><path
             id="path148"
             style="fill:#000000;fill-opacity:1;fill-rule:nonzero;stroke:none"
             d="m 0,0 v 0 c -0.423,0 -0.769,0.346 -0.769,0.769 v 22.016 c 0,0.423 0.346,0.769 0.769,0.769 0.423,0 0.769,-0.346 0.769,-0.769 V 0.769 C 0.769,0.346 0.423,0 0,0"
             inkscape:connector-curvature="0" /></g><g
           transform="translate(496.9998,58.3487)"
           id="g150"><path
             id="path152"
             style="fill:#000000;fill-opacity:1;fill-rule:nonzero;stroke:none"
             d="m 0,0 v 0 c -0.423,0 -0.769,0.346 -0.769,0.769 v 22.016 c 0,0.423 0.346,0.769 0.769,0.769 0.423,0 0.769,-0.346 0.769,-0.769 V 0.769 C 0.769,0.346 0.423,0 0,0"
             inkscape:connector-curvature="0" /></g></g></g></g></svg>