<?xml version="1.0" encoding="UTF-8" standalone="no"?>
<!-- Generator: Adobe Illustrator 13.0.0, SVG Export Plug-In . SVG Version: 6.00 Build 14948)  -->

<svg
   xmlns:ns="&amp;#38;ns_sfw;"
   xmlns:dc="http://purl.org/dc/elements/1.1/"
   xmlns:cc="http://creativecommons.org/ns#"
   xmlns:rdf="http://www.w3.org/1999/02/22-rdf-syntax-ns#"
   xmlns:svg="http://www.w3.org/2000/svg"
   xmlns="http://www.w3.org/2000/svg"
   xmlns:sodipodi="http://sodipodi.sourceforge.net/DTD/sodipodi-0.dtd"
   xmlns:inkscape="http://www.inkscape.org/namespaces/inkscape"
   version="1.2"
   id="Layer_3"
   x="0px"
   y="0px"
   width="596.24298"
   height="163.85249"
   viewBox="0 0 596.24296 163.85249"
   xml:space="preserve"
   inkscape:version="0.92.2 (5c3e80d, 2017-08-06)"
   sodipodi:docname="controller.svg"><defs
     id="defs46" /><sodipodi:namedview
     pagecolor="#ffffff"
     bordercolor="#666666"
     borderopacity="1"
     objecttolerance="10"
     gridtolerance="10"
     guidetolerance="10"
     inkscape:pageopacity="0"
     inkscape:pageshadow="2"
     inkscape:window-width="1920"
     inkscape:window-height="1017"
     id="namedview44"
     showgrid="false"
     fit-margin-top="0"
     fit-margin-left="0"
     fit-margin-right="0"
     fit-margin-bottom="0"
     inkscape:zoom="0.48145317"
     inkscape:cx="292.12151"
     inkscape:cy="95.233994"
     inkscape:window-x="-8"
     inkscape:window-y="-8"
     inkscape:window-maximized="1"
     inkscape:current-layer="Layer_3" /><metadata
     id="metadata55"><rdf:RDF><cc:Work
         rdf:about=""><dc:format>image/svg+xml</dc:format><dc:type
           rdf:resource="http://purl.org/dc/dcmitype/StillImage" /><dc:title></dc:title></cc:Work></rdf:RDF><ns:sfw><ns:slices /><ns:sliceSourceBounds
         x="668.378"
         y="444.268"
         width="596.243"
         height="218.469"
         bottomLeftOrigin="true" /></ns:sfw></metadata><path
     id="polyline3"
     d="m 400.376,0 -0.313,0.39825 -6,6.96075 1.688,0.8205 5.656,-6.58575 91.5,7.4295 3.375,6.141 1.844,-0.5625 -3.594,-6.5625 L 494.313,7.617 493.719,7.56975 401,0.0465 Z"
     inkscape:connector-curvature="0"
     style="fill:#f4f4f4;stroke-width:0.86602539" /><path
     id="polygon5"
     d="M 391.532,4.9215 10.75,20.57775 10.344,20.601 10.063,20.83575 0.25,29.484 0,29.69475 v 0.28125 37.1955 29.508 37.1955 0.28125 l 0.25,0.21075 9.813,8.64825 0.281,0.23475 0.406,0.0232 380.782,15.65625 0.375,0.0232 0.313,-0.1875 17.656,-10.35975 78.625,-4.35975 12.656,8.60175 0.406,0.28125 0.5,-0.0937 5.906,-1.10175 0.313,-0.0705 0.188,-0.1875 7.625,-6.60975 0.125,-0.117 0.063,-0.141 4.906,-11.03925 0.063,-0.117 v -0.141 -3.117 -0.75 h -0.531 v -0.4455 h 0.531 v -0.75 -44.31825 -4.008 -44.3205 -0.75 h -0.531 V 34.4055 h 0.531 v -0.75 -3.117 -0.117 l -0.063,-0.117 -4.906,-11.0625 -0.063,-0.141 -0.125,-0.09375 -7.625,-6.633 -0.188,-0.1875 -0.313,-0.0705 -5.906,-1.10175 -0.5,-0.09375 -0.406,0.28125 -12.688,8.625 L 409.875,15.444 392.219,5.08425 391.906,4.92 h -0.374 z m -0.25,1.52325 17.625,10.3125 0.25,0.141 0.281,0.02325 79.313,4.40625 0.406,0.02325 0.344,-0.21075 12.625,-8.5785 5.094,0.98475 7.219,6.3045 4.813,10.85175 v 2.2035 h -0.531 v 0.75 1.9455 0.75 h 0.531 v 43.5705 4.008 43.5705 h -0.531 v 0.75 1.9455 0.75 h 0.531 v 2.2035 l -4.813,10.8285 -7.25,6.35175 -5.063,0.96075 -12.625,-8.5785 -0.344,-0.21075 -0.406,0.0232 -79.313,4.40625 -0.281,0.0233 -0.25,0.141 -17.625,10.3125 L 11.313,141.7965 2,133.593 V 96.6795 67.1715 30.25725 l 9.313,-8.20275 z"
     inkscape:connector-curvature="0"
     style="fill:#f4f4f4;stroke-width:0.86602539" /><path
     id="polyline7"
     d="m 496.282,148.6875 -3.375,6.141 -91.5,7.4295 -5.656,-6.58575 -1.688,0.8205 6,6.98475 0.313,0.375 0.625,-0.0472 92.719,-7.52325 0.594,-0.0472 0.219,-0.42225 3.594,-6.5625 z"
     inkscape:connector-curvature="0"
     style="fill:#f4f4f4;stroke-width:0.86602539" /><path
     id="polyline9"
     d="M 394.719,29.95275 8.125,33.89025 H 8.031 7.906 l -5.969,1.125 -0.781,0.141 v 0.58575 31.125 30.117 31.125 0.60975 l 0.781,0.141 5.969,1.10175 0.125,0.0232 h 0.094 l 386.594,3.9375 h 0.031 l 125,-2.97675 -0.063,-1.5 -124.938,2.97675 h -0.063 L 8.248,128.48475 3.154,127.524 V 96.98475 66.867 36.32775 l 5.094,-0.9375 386.438,-3.9375 h 0.063 l 124.938,2.9535 0.063,-1.5 -125,-2.9535 z"
     inkscape:connector-curvature="0"
     style="fill:#f4f4f4;stroke-width:0.86602539" /><path
     id="polyline11"
     d="M 266.906,32.4375 265.875,32.46075 8.094,34.851 H 7.969 L 7.844,34.87425 1.938,36.1635 2.501,37.593 8.126,36.351 H 8.189 L 264.908,33.96 V 62.3895 101.46 129.8895 L 8.189,127.4985 H 8.126 l -5.625,-1.242 -0.563,1.4295 5.906,1.28925 0.125,0.0233 h 0.125 l 257.781,2.391 1.031,0.0232 V 130.6395 101.46 62.3895 33.21075 Z"
     inkscape:connector-curvature="0"
     style="fill:#f4f4f4;stroke-width:0.86602539" /><g
     id="g13"
     transform="matrix(1,0,0,0.75,-6.973,-38.9205)"><path
       d="m 281.418,226.729 -7.46,-7.463 0.002,-32.573 v -4.283 l 9.912,-0.002 v -1.219 h -9.912 v -4.119 l 9.912,-0.002 v -1.22 h -9.912 v -4.763 h 9.91 v -1.222 h -9.91 v -4.853 h 9.912 v -1.224 h -9.912 v -4.393 h 9.912 v -1.224 h -9.912 v -4.208 l 9.91,-0.002 v -1.219 h -9.91 v -4.579 h 9.91 v -1.222 h -9.91 v -4.578 h 9.91 v -1.222 h -9.91 v -4.396 h 9.91 v -1.222 h -9.912 v -32.532 l 7.46,-7.458 h 110.2 l 8.32,8.316 v 31.674 h -10.957 v 1.222 h 10.955 v 4.396 h -10.955 v 1.222 h 10.955 v 4.578 h -10.955 v 1.222 h 10.955 v 4.579 h -10.955 v 1.221 h 10.955 v 4.208 h -10.955 v 1.224 h 10.955 v 4.393 h -10.955 v 1.224 h 10.955 v 4.853 h -10.955 v 1.222 h 10.955 v 4.763 l -10.955,-0.002 v 1.224 h 10.955 v 4.119 h -10.955 v 1.221 h 10.957 v 5.021 30.979 l -8.32,8.32 h -110.2 z m -5.459,-40.037 v 31.745 l 6.287,6.289 H 390.79 l 7.146,-7.148 v -30.148 -3.021 h -10.955 v -4.222 -1.002 h 10.955 v -0.116 h -10.955 v -5.223 h 10.957 v -0.762 h -10.957 v -5.222 h 10.957 v -0.853 h -10.957 v -5.224 h 10.957 v -0.394 h -10.957 v -5.223 h 10.955 v -0.208 h -10.955 v -5.221 h 10.955 v -0.579 h -10.955 v -5.222 l 10.955,-0.002 v -0.577 h -10.955 v -5.221 l 10.957,-0.002 v -0.394 h -10.957 v -5.222 h 10.955 V 104.676 L 390.79,97.53 H 282.247 l -6.289,6.287 v 29.704 h 9.912 v 5.222 h -9.912 v 0.396 h 9.912 v 5.221 h -9.912 v 0.579 h 9.912 v 5.222 h -9.912 v 0.579 h 9.912 v 5.221 h -9.912 v 0.208 h 9.912 v 5.223 h -9.912 v 0.394 h 9.912 v 5.224 h -9.912 v 0.853 h 9.912 v 5.222 h -9.912 v 0.762 h 9.912 v 5.223 h -9.912 v 0.116 h 9.912 v 5.224 h -9.912 z"
       id="path10"
       inkscape:connector-curvature="0"
       style="fill:#f4f4f4" /></g><g
     id="g17"
     transform="matrix(1,0,0,0.75,-6.973,-38.9205)"><path
       d="m 401.804,95.75 8.444,0.234 v 128.288 l -7.418,0.184 -0.025,-0.999 0.025,0.999 -1.026,0.023 z m 2.002,126.681 4.44,-0.109 V 97.929 l -4.44,-0.125 z m 7.021,-126.428 7.982,0.222 v 127.833 l -6.956,0.174 -0.025,-0.999 0.025,0.999 -1.026,0.025 z m 2.002,126.204 3.982,-0.1 V 98.17 l -3.982,-0.112 z m 6.559,-125.965 7.985,0.222 v 127.38 l -6.959,0.175 -0.025,-0.998 0.025,0.998 -1.026,0.025 z m 2.002,125.751 3.983,-0.101 V 98.411 l -3.983,-0.112 z m 6.561,-125.511 7.982,0.222 V 223.63 l -6.958,0.174 -0.023,-0.999 0.023,0.999 -1.024,0.025 z m 2,125.298 3.982,-0.099 V 98.651 l -3.982,-0.112 z m 6.562,-125.059 7.986,0.224 v 126.472 l -6.961,0.176 -0.025,-1.001 0.025,1.001 -1.025,0.025 z m 2.001,124.845 3.983,-0.101 V 98.89 l -3.983,-0.112 z m 6.561,-124.604 7.984,0.224 v 126.018 l -6.958,0.173 -0.025,-0.999 0.025,0.999 -1.026,0.023 z m 2.002,124.39 3.98,-0.099 V 99.131 l -3.98,-0.112 z m 6.56,-124.149 7.984,0.222 V 222.99 l -6.958,0.174 -0.025,-0.999 0.025,0.999 -1.026,0.025 z m 2.002,123.936 3.982,-0.1 V 99.369 l -3.982,-0.112 z m 6.56,-123.696 7.984,0.222 v 125.112 l -6.96,0.173 -0.023,-0.999 0.023,0.999 -1.024,0.025 z m 2,123.484 3.985,-0.101 V 99.61 l -3.985,-0.109 z m 6.56,-123.245 7.984,0.222 v 124.66 l -6.959,0.174 -0.024,-0.999 0.024,0.999 -1.025,0.025 z m 2.002,123.032 3.982,-0.099 V 99.849 l -3.982,-0.112 z m 6.562,-122.793 7.984,0.224 v 124.206 l -6.96,0.173 -0.025,-0.998 0.025,0.998 -1.024,0.025 z m 1.998,122.577 3.984,-0.099 v -120.31 l -3.984,-0.112 z m 6.564,-122.336 7.984,0.222 v 123.754 l -6.96,0.173 -0.023,-0.999 0.023,0.999 -1.024,0.023 z m 2,122.123 3.984,-0.099 V 100.33 l -3.984,-0.112 z m 6.562,-121.883 7.982,0.222 v 123.3 l -6.958,0.174 -0.023,-0.999 0.023,0.999 -1.024,0.025 z m 2,121.67 3.983,-0.1 V 100.571 l -3.983,-0.112 z m 6.562,-121.431 7.982,0.222 V 221.71 l -6.958,0.175 -0.025,-0.999 0.025,0.999 -1.024,0.023 z m 1.998,121.217 3.984,-0.099 V 100.81 l -3.984,-0.112 z M 513.569,99.91 v -1.029 l 8.447,0.234 v 122.369 l -8.447,0.21 z m 2,119.734 4.445,-0.107 V 101.063 l -4.443,-0.125 z m -1.026,-118.735 0.027,-0.999 z"
       id="path13"
       inkscape:connector-curvature="0"
       style="fill:#f4f4f4" /></g><path
     id="line21"
     d="M 383.532,32.9295 363.094,47.625 364.5,48.7035 384.938,34.03125 Z"
     inkscape:connector-curvature="0"
     style="fill:#f4f4f4;stroke-width:0.86602539" /><path
     id="line23"
     d="m 275.531,32.9295 -1.344,1.10175 21.157,14.67225 1.375,-1.10175 z"
     inkscape:connector-curvature="0"
     style="fill:#f4f4f4;stroke-width:0.86602539" /><path
     id="line25"
     d="m 295.344,115.14825 -21.157,14.67225 1.344,1.10175 21.188,-14.67225 z"
     inkscape:connector-curvature="0"
     style="fill:#f4f4f4;stroke-width:0.86602539" /><path
     id="line27"
     d="m 364.501,115.14825 -1.406,1.0785 20.438,14.6955 1.406,-1.0785 z"
     inkscape:connector-curvature="0"
     style="fill:#f4f4f4;stroke-width:0.86602539" /><path
     id="line29"
     d="m 391.157,38.83575 -16.844,17.367 1.625,0.891 16.844,-17.367 z"
     inkscape:connector-curvature="0"
     style="fill:#f4f4f4;stroke-width:0.86602539" /><path
     id="line31"
     d="m 268.844,38.25 -1.719,0.77325 15.531,18.91425 1.719,-0.77325 z"
     inkscape:connector-curvature="0"
     style="fill:#f4f4f4;stroke-width:0.86602539" /><path
     id="line33"
     d="m 282.656,105.9135 -15.531,18.91425 1.719,0.77325 15.531,-18.91425 z"
     inkscape:connector-curvature="0"
     style="fill:#f4f4f4;stroke-width:0.86602539" /><path
     id="line35"
     d="m 375.938,106.75725 -1.625,0.891 16.844,17.367 1.625,-0.891 z"
     inkscape:connector-curvature="0"
     style="fill:#f4f4f4;stroke-width:0.86602539" /><path
     id="circle37"
     d="m 329.376,45.609 c -26.879,0 -48.688,16.35675 -48.688,36.516 0,20.1585 21.809,36.516 48.688,36.516 26.877,0 48.688,-16.3575 48.688,-36.516 -0.001,-20.15925 -21.811,-36.516 -48.688,-36.516 z m 0,1.5 c 25.797,0 46.688,15.6675 46.688,35.016 0,19.34775 -20.891,35.016 -46.688,35.016 -25.798,0 -46.688,-15.66825 -46.688,-35.016 0,-19.3485 20.89,-35.016 46.688,-35.016 z"
     inkscape:connector-curvature="0"
     style="fill:#f4f4f4;stroke-width:0.86602539" /><g
     id="g39"
     transform="matrix(1,0,0,0.75,-6.973,-38.9205)"><path
       d="m 352.864,207.148 -0.347,-1.938 c 13.755,-5.082 24.455,-16.47 28.612,-30.646 v 0 l 1.961,0.283 v 20.393 l -11.911,11.909 h -18.315 z m 4.868,-2.001 12.619,-0.002 10.737,-10.737 v -13.829 c -4.596,10.721 -12.923,19.455 -23.356,24.568 z m -55.143,2.001 -13.103,-13.109 V 174.52 l 1.962,-0.274 c 4.09,14.324 14.843,25.842 28.701,30.963 v 0 l -0.348,1.938 h -17.212 z m -11.101,-13.936 11.934,11.937 h 11.514 C 304.432,200 296.063,191.178 291.487,180.355 v 0 z m -1.962,-18.417 0.961,-0.274 z m -0.04,-26.505 v -19.658 -0.415 L 302.59,115.11 h 18.825 l 0.313,1.95 c -14.615,4.81 -26.038,16.642 -30.281,31.504 v 0 z m 2,-5.832 c 4.747,-11.226 13.578,-20.294 24.639,-25.348 v 0 H 303.42 l -11.934,11.936 z m 59.452,-25.398 0.313,-1.95 h 19.515 v 0.999 l -0.708,0.708 0.708,-0.708 v -0.999 h 0.413 l 11.909,11.909 v 20.948 l -1.959,0.28 c -4.313,-14.714 -15.681,-26.414 -30.191,-31.187 z m 30.152,25.176 -10e-4,-14.387 -10.737,-10.74 h -13.809 c 10.986,5.02 19.777,14.005 24.547,25.127 z"
       id="path25"
       inkscape:connector-curvature="0"
       style="fill:#f4f4f4" /></g><path
     d="M 520.12,91.73175"
     id="path27"
     inkscape:connector-curvature="0"
     style="fill:#f4f4f4;stroke-width:0.86602539" /><path
     id="line45"
     d="m 527.407,90.984 v 1.5 h 6.5 v -1.5 z"
     inkscape:connector-curvature="0"
     style="fill:#f4f4f4;stroke-width:0.86602539" /><path
     id="line47"
     d="m 540.876,90.984 v 1.5 h 6.5 v -1.5 z"
     inkscape:connector-curvature="0"
     style="fill:#f4f4f4;stroke-width:0.86602539" /><path
     id="line49"
     d="m 554.344,90.984 v 1.5 h 6.5 v -1.5 z"
     inkscape:connector-curvature="0"
     style="fill:#f4f4f4;stroke-width:0.86602539" /><path
     id="line51"
     d="m 567.844,90.984 v 1.5 h 6.531 v -1.5 z"
     inkscape:connector-curvature="0"
     style="fill:#f4f4f4;stroke-width:0.86602539" /><path
     id="line53"
     d="m 581.282,90.984 v 1.5 h 6.531 v -1.5 z"
     inkscape:connector-curvature="0"
     style="fill:#f4f4f4;stroke-width:0.86602539" /><path
     id="line55"
     d="m 581.438,77.31975 v 1.5 h 6.375 v -1.5 z"
     inkscape:connector-curvature="0"
     style="fill:#f4f4f4;stroke-width:0.86602539" /><path
     id="line57"
     d="m 567.938,77.31975 v 1.5 h 6.5 v -1.5 z"
     inkscape:connector-curvature="0"
     style="fill:#f4f4f4;stroke-width:0.86602539" /><path
     id="line59"
     d="m 554.376,77.31975 v 1.5 h 6.594 v -1.5 z"
     inkscape:connector-curvature="0"
     style="fill:#f4f4f4;stroke-width:0.86602539" /><path
     id="line61"
     d="m 540.907,77.31975 v 1.5 h 6.563 v -1.5 z"
     inkscape:connector-curvature="0"
     style="fill:#f4f4f4;stroke-width:0.86602539" /><path
     id="line63"
     d="m 527.469,77.31975 v 1.5 h 6.469 v -1.5 z"
     inkscape:connector-curvature="0"
     style="fill:#f4f4f4;stroke-width:0.86602539" /><path
     d="M 520.12,78.0615"
     id="path39"
     inkscape:connector-curvature="0"
     style="fill:#f4f4f4;stroke-width:0.86602539" /><g
     id="g67"
     transform="matrix(1,0,0,0.75,-6.973,-38.9205)"><path
       d="m 526.091,147.933 9.241,0.405 v 33.498 l -8.196,0.362 -0.043,-1 0.043,1 -1.045,0.045 z m 2.002,32.219 5.239,-0.231 v -29.668 l -5.239,-0.23 z m 11.748,-31.613 8.964,0.396 v 32.303 l -7.921,0.352 -0.043,-0.997 0.043,0.997 -1.043,0.047 z m 1.998,31.007 4.966,-0.22 v -28.479 l -4.966,-0.22 z m 11.473,-30.415 8.966,0.396 v 31.118 l -7.923,0.352 -0.043,-0.999 0.043,0.999 -1.043,0.045 z m 1.998,29.82 4.968,-0.22 v -27.289 l -4.968,-0.22 z m 11.472,-29.223 8.968,0.395 v 29.93 l -7.923,0.35 -0.043,-0.997 0.043,0.997 -1.045,0.047 z m 2.002,28.628 4.966,-0.218 v -26.102 l -4.966,-0.22 z m 11.469,-28.035 8.968,0.396 v 28.739 l -7.923,0.352 -0.043,-0.998 0.043,0.998 -1.045,0.047 z m 2.002,27.443 4.966,-0.22 V 152.63 l -4.966,-0.22 z m 11.472,-25.804 v -1.045 l 9.489,0.418 v 27.508 l -9.489,0.418 z m 1.999,25.208 5.488,-0.24 v -23.68 l -5.488,-0.242 z m -1.044,-24.208 0.045,-1 z"
       id="path42"
       inkscape:connector-curvature="0"
       style="fill:#f4f4f4" /></g></svg>