<?xml version="1.0" encoding="UTF-8" standalone="no"?>
<!-- Generator: Adobe Illustrator 13.0.0, SVG Export Plug-In . SVG Version: 6.00 Build 14948)  -->

<svg
   xmlns:ns="&amp;ns_sfw;"
   xmlns:dc="http://purl.org/dc/elements/1.1/"
   xmlns:cc="http://creativecommons.org/ns#"
   xmlns:rdf="http://www.w3.org/1999/02/22-rdf-syntax-ns#"
   xmlns:svg="http://www.w3.org/2000/svg"
   xmlns="http://www.w3.org/2000/svg"
   xmlns:sodipodi="http://sodipodi.sourceforge.net/DTD/sodipodi-0.dtd"
   xmlns:inkscape="http://www.inkscape.org/namespaces/inkscape"
   version="1.1"
   id="Ebene_1"
   x="0px"
   y="0px"
   width="362.66"
   height="54.421501"
   viewBox="217.274 0.152 362.66001 54.421499"
   enable-background="new 217.274 0.152 362.658 72.563"
   xml:space="preserve"
   sodipodi:docname="logo.svg"
   inkscape:version="0.92.2 (5c3e80d, 2017-08-06)"><defs
     id="defs27" /><sodipodi:namedview
     pagecolor="#ffffff"
     bordercolor="#666666"
     borderopacity="1"
     objecttolerance="10"
     gridtolerance="10"
     guidetolerance="10"
     inkscape:pageopacity="0"
     inkscape:pageshadow="2"
     inkscape:window-width="1920"
     inkscape:window-height="1017"
     id="namedview25"
     showgrid="false"
     fit-margin-top="0"
     fit-margin-left="0"
     fit-margin-right="0"
     fit-margin-bottom="0"
     inkscape:zoom="0.9623392"
     inkscape:cx="181.32899"
     inkscape:cy="36.280498"
     inkscape:window-x="-8"
     inkscape:window-y="-8"
     inkscape:window-maximized="1"
     inkscape:current-layer="Ebene_1" /><metadata
     id="metadata2"><ns:sfw><ns:slices /><ns:sliceSourceBounds
         x="894.31"
         y="503.143"
         width="362.658"
         height="72.563"
         bottomLeftOrigin="true" /></ns:sfw><rdf:RDF><cc:Work
         rdf:about=""><dc:format>image/svg+xml</dc:format><dc:type
           rdf:resource="http://purl.org/dc/dcmitype/StillImage" /><dc:title></dc:title></cc:Work></rdf:RDF></metadata><g
     id="g14"
     transform="matrix(1,0,0,0.75,0,0.038)"><path
       d="m 227.98,36.615 c 1.446,-1.85 4.439,-2.166 6.213,-0.614 0.726,0.612 1.234,1.455 1.494,2.361 3.284,11.302 6.583,22.598 9.863,33.899 -1.938,0.002 -3.878,-0.003 -5.815,0.002 -0.914,-3.115 -1.807,-6.237 -2.709,-9.356 -3.749,-0.01 -7.495,-0.003 -11.243,-0.005 -0.917,3.118 -1.823,6.239 -2.725,9.361 -1.928,-0.007 -3.856,-0.002 -5.784,-0.004 3.121,-10.779 6.245,-21.562 9.38,-32.338 0.372,-1.126 0.513,-2.384 1.326,-3.306 m 3.422,6.926 c -1.375,4.682 -2.721,9.372 -4.087,14.057 2.724,0.013 5.447,0.004 8.17,0.004 -1.363,-4.687 -2.719,-9.375 -4.083,-14.061 z"
       id="path4"
       inkscape:connector-curvature="0"
       style="fill:#878787" /><path
       d="m 268.813,36.858 c 1.01,-1.465 2.963,-2.176 4.683,-1.724 1.573,0.363 2.778,1.719 3.193,3.246 3.281,11.293 6.574,22.583 9.855,33.876 -1.941,0.013 -3.881,0 -5.822,0.008 -0.902,-3.119 -1.795,-6.241 -2.705,-9.359 -3.742,0.002 -7.483,-0.007 -11.225,0.003 -0.894,3.121 -1.816,6.235 -2.711,9.355 -1.926,0.003 -3.852,-0.002 -5.777,0.003 3.119,-10.84 6.274,-21.672 9.417,-32.504 0.33,-0.98 0.458,-2.058 1.092,-2.904 m -0.472,20.744 c 2.713,0.004 5.424,0.001 8.137,0.001 -1.349,-4.695 -2.721,-9.387 -4.066,-14.084 -1.355,4.695 -2.723,9.386 -4.071,14.083 z"
       id="path6"
       inkscape:connector-curvature="0"
       style="fill:#878787" /><path
       d="m 241.211,35.078 c 7.013,0 14.024,0 21.035,0 0,1.892 0,3.781 0,5.673 -2.582,0.002 -5.163,-0.003 -7.744,0.002 0,10.502 10e-4,21.007 -0.001,31.509 -1.848,0 -3.699,0 -5.547,0 0,-10.502 -0.002,-21.006 0.001,-31.509 -2.582,-0.005 -5.162,0 -7.745,-0.002 0.001,-1.892 -0.001,-3.782 0.001,-5.673 z"
       id="path8"
       inkscape:connector-curvature="0"
       style="fill:#878787" /><path
       d="m 292.708,35.309 c 0.533,-0.184 1.102,-0.247 1.664,-0.233 2.211,0.008 4.423,10e-4 6.632,0.003 3.724,0.068 7.278,2.378 8.889,5.73 1.115,2.176 1.231,4.706 0.949,7.093 -0.193,2.5 -1.241,4.998 -3.163,6.655 -1.016,0.904 -2.279,1.452 -3.364,2.257 -0.597,0.455 -0.626,1.337 -0.318,1.968 2.934,4.529 5.984,8.989 8.98,13.48 -2.19,0.004 -4.382,-0.005 -6.573,0.004 -2.868,-4.308 -5.706,-8.638 -8.562,-12.952 -0.84,-1.228 -1.068,-2.854 -0.566,-4.255 0.393,-1.074 1.332,-1.861 2.378,-2.268 1.997,-0.762 3.966,-1.959 5.072,-3.843 0.842,-1.417 0.798,-3.165 0.419,-4.715 -0.443,-2.013 -2.404,-3.596 -4.477,-3.526 -1.432,0.01 -2.865,-0.008 -4.295,0.007 -0.648,-0.015 -1.258,0.548 -1.25,1.204 -0.006,10.115 0.004,20.23 -0.002,30.347 -1.863,-0.004 -3.725,0 -5.588,-0.002 -0.004,-10.89 0.002,-21.78 -0.004,-32.671 0.012,-1.909 1.369,-3.704 3.179,-4.283 z"
       id="path10"
       inkscape:connector-curvature="0"
       style="fill:#878787" /><path
       d="m 315.906,35.078 c 1.961,0 3.92,0 5.88,0 -10e-4,12.396 0.004,24.789 -0.003,37.186 -1.958,-0.005 -3.917,0 -5.877,-0.002 0,-12.396 0,-24.79 0,-37.184 z"
       id="path12"
       inkscape:connector-curvature="0"
       style="fill:#878787" /></g><path
     d="m 441.874,25.904 c 5.281,-2.334 8.575,-6.28575 8.575,-10.6725 0,-10.35975 -14.59,-15.078 -28.146,-15.078 -13.558,0 -28.146,4.71825 -28.146,15.078 0,4.38825 3.293,8.3385 8.573,10.6725 -7.511,2.60925 -11.713,7.05225 -11.713,12.588 0,10.43475 15.736,15.894 31.282,15.894 15.546,0 31.283,-5.45925 31.283,-15.894 0.005,-5.53575 -4.198,-9.981 -11.708,-12.588 z m -19.57,-6.567 c -3.458,0 -6.271,-1.6725 -6.271,-3.7305 0,-2.058 2.813,-3.73125 6.271,-3.73125 3.455,0 6.271,1.67325 6.271,3.73125 -0.002,2.058 -2.814,3.7305 -6.271,3.7305 z m 0,13.29375 c 3.849,0 6.979,1.92525 6.979,4.29675 0,2.298 -3.131,4.17075 -6.979,4.17075 -3.85,0 -6.979,-1.869 -6.979,-4.17075 0,-2.3715 3.13,-4.29675 6.979,-4.29675 z"
     id="path16"
     inkscape:connector-curvature="0"
     style="fill:#ad0e0e;stroke-width:0.86602539" /><path
     d="M 508.233,8.97875 C 502.459,3.20525 493.976,0.152 483.704,0.152 c -10.272,0 -18.755,3.05175 -24.529,8.82675 -4.854,4.857 -7.528,11.38575 -7.528,18.38475 0,13.5435 9.912,27.21 32.061,27.21 22.149,0 32.063,-13.66725 32.063,-27.21 C 515.765,20.36375 513.09,13.835 508.233,8.97875 Z M 483.704,38.4605 c -7.721,0 -8.566,-7.52775 -8.566,-11.16075 0,-3.5985 0.849,-11.0355 8.566,-11.0355 7.721,0 8.565,7.437 8.565,11.0355 0.002,3.633 -0.844,11.16075 -8.565,11.16075 z"
     id="path18"
     inkscape:connector-curvature="0"
     style="fill:#ad0e0e;stroke-width:0.86602539" /><path
     d="M 572.396,8.97875 C 566.624,3.20525 558.139,0.152 547.869,0.152 c -10.272,0 -18.755,3.05175 -24.529,8.82675 -4.854,4.857 -7.529,11.38575 -7.529,18.38475 0,13.5435 9.913,27.21 32.062,27.21 22.146,0 32.061,-13.66725 32.061,-27.21 -0.005,-6.99975 -2.68,-13.5285 -7.538,-18.38475 z M 547.869,38.4605 c -7.723,0 -8.567,-7.52775 -8.567,-11.16075 0,-3.5985 0.849,-11.0355 8.567,-11.0355 7.718,0 8.564,7.437 8.564,11.0355 0.003,3.633 -0.844,11.16075 -8.564,11.16075 z"
     id="path20"
     inkscape:connector-curvature="0"
     style="fill:#ad0e0e;stroke-width:0.86602539" /><polygon
     points="344.172,72.386 369.636,72.386 399.876,1.165 336.516,1.165 336.516,23.181 366.663,23.181 "
     id="polygon22"
     transform="matrix(1,0,0,0.75,0,0.038)"
     style="fill:#ad0e0e" /></svg>