<?xml version="1.0" encoding="UTF-8" standalone="no"?>
<!-- Generator: Adobe Illustrator 18.0.0, SVG Export Plug-In . SVG Version: 6.00 Build 0)  -->

<svg
   xmlns:dc="http://purl.org/dc/elements/1.1/"
   xmlns:cc="http://creativecommons.org/ns#"
   xmlns:rdf="http://www.w3.org/1999/02/22-rdf-syntax-ns#"
   xmlns:svg="http://www.w3.org/2000/svg"
   xmlns="http://www.w3.org/2000/svg"
   xmlns:xlink="http://www.w3.org/1999/xlink"
   xmlns:sodipodi="http://sodipodi.sourceforge.net/DTD/sodipodi-0.dtd"
   xmlns:inkscape="http://www.inkscape.org/namespaces/inkscape"
   version="1.1"
   x="0px"
   y="0px"
   viewBox="0 0 352.54581 125.55"
   enable-background="new 0 0 800 600"
   xml:space="preserve"
   id="svg22"
   sodipodi:docname="controller.svg"
   width="352.54581"
   height="125.55"
   inkscape:version="0.92.2 (5c3e80d, 2017-08-06)"><metadata
     id="metadata28"><rdf:RDF><cc:Work
         rdf:about=""><dc:format>image/svg+xml</dc:format><dc:type
           rdf:resource="http://purl.org/dc/dcmitype/StillImage" /><dc:title></dc:title></cc:Work></rdf:RDF></metadata><defs
     id="defs26" /><sodipodi:namedview
     pagecolor="#ffffff"
     bordercolor="#666666"
     borderopacity="1"
     objecttolerance="10"
     gridtolerance="10"
     guidetolerance="10"
     inkscape:pageopacity="0"
     inkscape:pageshadow="2"
     inkscape:window-width="1920"
     inkscape:window-height="1017"
     id="namedview24"
     showgrid="false"
     fit-margin-top="0"
     fit-margin-left="0"
     fit-margin-right="0"
     fit-margin-bottom="0"
     inkscape:zoom="1.5733333"
     inkscape:cx="89.882188"
     inkscape:cy="129.08058"
     inkscape:window-x="-8"
     inkscape:window-y="-8"
     inkscape:window-maximized="1"
     inkscape:current-layer="svg22" /><g
     id="Layer_2"
     display="none"
     style="display:none"
     transform="translate(-233.02709,-214.62291)"><image
       sodipodi:absref="H:\emulationstation\.emulationstation\themes\rgbpi-recalbox\atarist\32591BC.jpg"
       xlink:href="32591BC.jpg"
       display="inline"
       overflow="visible"
       width="477"
       height="639"
       transform="translate(215.2828,-10.8303)"
       id="image2"
       style="display:inline;overflow:visible" /></g><g
     id="g850"
     transform="matrix(0,-0.75,1,0,-80.200001,369.75)"><g
       transform="translate(-1.491634e-6,1.4916341e-6)"
       id="Layer_1"><g
         id="XMLID_2_"><g
           id="XMLID_698_"><path
             sodipodi:nodetypes="ccsccsc"
             style="fill:#60605d"
             inkscape:connector-curvature="0"
             id="path5"
             d="m 415.2,178.1 h -11 v -38 c 0,-33.8 -17,-48.9 -55.2,-48.9 v -11 c 43.9,0 66.2,20.2 66.2,59.9 z" /></g><polygon
           style="fill:#868580"
           points="421.7,153.8 411.5,153.8 411.5,150.8 420.5,150.8 418.8,146.4 400.5,146.4 398.9,150.8 408.6,150.8 408.6,153.8 397.8,153.8 396.1,158.2 408.6,158.2 408.6,161.1 395.2,161.1 393.8,164.8 408.6,164.8 408.6,167.8 392.7,167.8 390.3,174.4 429.8,174.4 427.2,167.8 411.5,167.8 411.5,164.8 425.9,164.8 424.7,161.1 411.5,161.1 411.5,158.2 423.4,158.2 "
           id="XMLID_697_" /><path
           style="fill:#c9c9c9"
           inkscape:connector-curvature="0"
           d="m 346.2,172.2 h 126.3 c 7.3,0 16.5,-0.9 16.5,6.5 l 4,92.9 -4,155.2 c 0,7.4 -11.2,5.8 -18.5,5.8 H 348.2 c -7.3,0 -18.5,1.6 -18.5,-5.8 l -4,-154.7 4,-93.4 c -0.1,-7.4 9.1,-6.5 16.5,-6.5 z"
           id="XMLID_695_" /></g><path
         style="fill:#666666"
         inkscape:connector-curvature="0"
         d="m 330,270 c -1.3,0 -4.4,2 -4.4,2 l 4,-93.4 c 0,-7.4 9.2,-6.5 16.5,-6.5 h 126.3 c 7.3,0 16.5,-0.9 16.5,6.5 l 4,92.9 c 0,0 -3.1,-2 -4.4,-2 z"
         id="XMLID_3_" /><path
         style="fill:#999999"
         inkscape:connector-curvature="0"
         d="m 330,268 c -1.3,0 -4.4,2 -4.4,2 l 4,-91.4 c 0,-7.4 9.2,-6.5 16.5,-6.5 h 126.3 c 7.3,0 16.5,-0.9 16.5,6.5 l 4,90.9 c 0,0 -3.1,-2 -4.4,-2 z"
         id="XMLID_1_" /><line
         style="fill:#666666;stroke:#666666;stroke-width:2.01040006;stroke-miterlimit:10"
         id="line13"
         y2="268.79999"
         x2="409.29999"
         y1="172.10001"
         x1="409.29999"
         stroke-miterlimit="10" /></g><g
       id="Layer_3"><path
         style="fill:#999999"
         inkscape:connector-curvature="0"
         d="m 411.2,398.5 h -3.7 V 424 h 3.7 z"
         id="path80" /><g
         transform="translate(751.5745,294.3278)"
         id="g82"><path
           style="fill:#999999"
           inkscape:connector-curvature="0"
           d="m -346.9,104.1 h 2 c 0,11.8 -0.3,14.7 -2.1,18.2 -1.8,3.5 -6.9,6.9 -11.2,7.3 v -3.9 c 3.3,-0.5 6.2,-2.3 8.8,-6.2 2.5,-3.7 2.6,-12.9 2.5,-15.4"
           id="path84" /></g><g
         transform="translate(757.7009,294.3278)"
         id="g86"><path
           style="fill:#999999"
           inkscape:connector-curvature="0"
           d="m -343.8,104.1 h -2 c 0,11.8 0.3,14.7 2.1,18.2 1.8,3.5 6.9,6.9 11.2,7.3 v -3.9 c -3.3,-0.5 -6.2,-2.3 -8.8,-6.2 -2.5,-3.7 -2.6,-12.9 -2.5,-15.4"
           id="path88" /></g></g></g></svg>