<?xml version="1.0" encoding="UTF-8" standalone="no"?>
<!-- Generator: Adobe Illustrator 13.0.0, SVG Export Plug-In . SVG Version: 6.00 Build 14948)  -->

<svg
   xmlns:ns="&amp;#38;ns_sfw;"
   xmlns:dc="http://purl.org/dc/elements/1.1/"
   xmlns:cc="http://creativecommons.org/ns#"
   xmlns:rdf="http://www.w3.org/1999/02/22-rdf-syntax-ns#"
   xmlns:svg="http://www.w3.org/2000/svg"
   xmlns="http://www.w3.org/2000/svg"
   xmlns:sodipodi="http://sodipodi.sourceforge.net/DTD/sodipodi-0.dtd"
   xmlns:inkscape="http://www.inkscape.org/namespaces/inkscape"
   version="1.2"
   id="Layer_3"
   x="0px"
   y="0px"
   width="232.228"
   height="253.43324"
   viewBox="0 0 232.22799 253.43323"
   xml:space="preserve"
   inkscape:version="0.92.2 (5c3e80d, 2017-08-06)"
   sodipodi:docname="controller.svg"><defs
     id="defs36" /><sodipodi:namedview
     pagecolor="#ffffff"
     bordercolor="#666666"
     borderopacity="1"
     objecttolerance="10"
     gridtolerance="10"
     guidetolerance="10"
     inkscape:pageopacity="0"
     inkscape:pageshadow="2"
     inkscape:window-width="1920"
     inkscape:window-height="1017"
     id="namedview34"
     showgrid="false"
     fit-margin-top="0"
     fit-margin-left="0"
     fit-margin-right="0"
     fit-margin-bottom="0"
     inkscape:zoom="0.48145317"
     inkscape:cx="117.47951"
     inkscape:cy="167.94299"
     inkscape:window-x="-8"
     inkscape:window-y="-8"
     inkscape:window-maximized="1"
     inkscape:current-layer="Layer_3" /><metadata
     id="metadata55"><rdf:RDF><cc:Work
         rdf:about=""><dc:format>image/svg+xml</dc:format><dc:type
           rdf:resource="http://purl.org/dc/dcmitype/StillImage" /><dc:title></dc:title></cc:Work></rdf:RDF><ns:sfw><ns:slices /><ns:sliceSourceBounds
         x="843.021"
         y="371.557"
         width="232.228"
         height="337.912"
         bottomLeftOrigin="true" /></ns:sfw></metadata><path
     id="line3"
     d="m 61.411,22.40475 v 1.158 h 109.522 v -1.158 z"
     inkscape:connector-curvature="0"
     style="fill:#f4f4f4;stroke-width:0.86602539" /><path
     id="path5"
     d="m 3.379,65.02275 v 154.572 c 0,16.902 18.268,30.621 40.804,30.621 H 188.02 c 22.533,0 40.827,-13.719 40.827,-30.621 v -154.479 h -1.545 v 154.479 c 0,16.27725 -17.583,29.463 -39.282,29.463 H 44.183 c -21.703,0 -39.261,-13.18575 -39.261,-29.46 V 65.02575 H 3.378 Z"
     inkscape:connector-curvature="0"
     style="fill:#f4f4f4;stroke-width:0.86602539" /><path
     id="path7"
     d="m 39.694,92.53125 c -10.8,0 -19.569,6.57675 -19.569,14.67675 v 115.8585 c 0,8.10075 8.769,14.67675 19.569,14.67675 h 152.841 c 10.536,0 19.081,-6.27075 19.497,-14.09775 h 0.072 v -0.579 -115.8585 c 0,-8.1 -8.771,-14.67675 -19.57,-14.67675 z m 0,1.158 h 152.841 c 9.966,0 18.024,6.045 18.024,13.51875 v 115.2795 0.579 c 0,7.47525 -8.058,13.51875 -18.024,13.51875 H 39.694 c -9.965,0 -18.025,-6.04425 -18.025,-13.51875 V 107.208 c -0.001,-7.47375 8.06,-13.51875 18.025,-13.51875 z"
     inkscape:connector-curvature="0"
     style="fill:#f4f4f4;stroke-width:0.86602539" /><path
     id="circle9"
     d="M 43.675,19.65375 C 19.561,19.65375 0,34.3245 0,52.41 c 0,18.08625 19.561,32.75625 43.676,32.75625 24.115,0 43.675,-14.67 43.675,-32.75625 0,-18.08625 -19.56,-32.75625 -43.676,-32.75625 z m 0,1.15875 c 23.279,0 42.13,14.13825 42.13,31.5975 0,17.46 -18.851,31.59825 -42.13,31.59825 -23.28,0 -42.13,-14.13825 -42.13,-31.59825 0,-17.46 18.85,-31.5975 42.13,-31.5975 z"
     inkscape:connector-curvature="0"
     style="fill:#f4f4f4;stroke-width:0.86602539" /><path
     id="circle11"
     d="m 188.554,19.65375 c -24.114,0 -43.675,14.67075 -43.675,32.75625 0,18.08625 19.561,32.75625 43.675,32.75625 24.112,0 43.674,-14.67 43.674,-32.75625 0,-18.08625 -19.562,-32.75625 -43.674,-32.75625 z m 0,1.15875 c 23.279,0 42.13,14.13825 42.13,31.5975 0,17.46 -18.851,31.59825 -42.13,31.59825 -23.28,0 -42.131,-14.13825 -42.131,-31.59825 0,-17.46 18.851,-31.5975 42.131,-31.5975 z"
     inkscape:connector-curvature="0"
     style="fill:#f4f4f4;stroke-width:0.86602539" /><path
     id="path13"
     d="m 0,52.84425 v 167.8335 c 0,18.0855 19.561,32.7555 43.675,32.7555 h 144.874 c 24.111,0 43.673,-14.67 43.673,-32.7555 V 53.74725 h -1.543 v 166.9305 c 0,17.46 -18.854,31.59825 -42.13,31.59825 H 43.675 C 20.398,252.276 1.546,238.13925 1.546,220.68 V 52.845 H 0.002 Z"
     inkscape:connector-curvature="0"
     style="fill:#f4f4f4;stroke-width:0.86602539" /><path
     id="circle15"
     d="m 116.112,132.38025 c -32.917,0 -59.627,20.03175 -59.627,44.71875 0,24.687 26.709,44.71875 59.627,44.71875 32.915,0 59.6,-20.03175 59.6,-44.71875 0,-24.687 -26.685,-44.71875 -59.6,-44.71875 z m 0,1.158 c 32.08,0 58.055,19.49925 58.055,43.56075 0,24.0615 -25.975,43.56 -58.055,43.56 -32.084,0 -58.083,-19.4985 -58.083,-43.56 0,-24.0615 25.999,-43.56075 58.083,-43.56075 z"
     inkscape:connector-curvature="0"
     style="fill:#f4f4f4;stroke-width:0.86602539" /><path
     id="circle17"
     d="m 116.112,145.0335 c -23.608,0 -42.76,14.36325 -42.76,32.07 0,17.70375 19.152,32.06775 42.76,32.06775 23.605,0 42.757,-14.36325 42.757,-32.06775 -0.001,-17.70675 -19.152,-32.07 -42.757,-32.07 z m 0,1.158 c 22.771,0 41.213,13.83225 41.213,30.912 0,17.07825 -18.442,30.90975 -41.213,30.90975 -22.774,0 -41.215,-13.83075 -41.215,-30.90975 -0.001,-17.07975 18.44,-30.912 41.215,-30.912 z"
     inkscape:connector-curvature="0"
     style="fill:#f4f4f4;stroke-width:0.86602539" /><g
     id="g19"
     transform="matrix(1,0,0,0.75,-181.61501,-3.8715)"><path
       d="m 220.186,198.782 c -3.588,0 -6.495,-2.908 -6.495,-6.494 v 0 l -0.001,-42.093 c 0.001,-3.586 2.908,-6.492 6.496,-6.494 v 0 h 42.09 c 3.585,0.002 6.492,2.909 6.494,6.494 v 0 c -0.019,3.645 -2.441,5.818 -2.475,5.861 v 0 L 226.8,195.551 h 0.28 l -1.652,1.368 c -1.083,0.938 -2.217,1.866 -5.018,1.866 v 0 c -0.074,0 -0.15,-0.002 -0.224,-0.003 z m -4.952,-48.587 v 42.093 c 0.004,2.734 2.216,4.945 4.951,4.951 v 0 c 2.732,-0.052 3.012,-0.524 4.228,-1.487 v 0 l 40.817,-40.815 c -0.003,-0.002 0.1,-0.089 0.288,-0.305 v 0 c 0.188,-0.216 0.442,-0.541 0.696,-0.956 v 0 c 0.509,-0.834 1.013,-2.025 1.011,-3.481 v 0 c -0.005,-2.731 -2.217,-4.943 -4.949,-4.949 v 0 h -42.09 c -2.735,0.006 -4.947,2.216 -4.952,4.949 z m 10.246,46.675 -0.545,-0.547 z"
       id="path14"
       inkscape:connector-curvature="0"
       style="fill:#f4f4f4" /><path
       d="m 370.031,196.919 0.493,-0.596 0.545,-0.547 -0.545,0.547 -0.493,0.596 L 370,196.892 329.189,156.08 c -0.06,-0.065 -2.482,-2.239 -2.501,-5.882 v 0 c 0,-3.587 2.906,-6.494 6.495,-6.496 v 0 h 42.093 c 3.584,0.002 6.49,2.907 6.49,6.496 v 0 l 0.002,42.093 c -0.002,3.585 -2.908,6.492 -6.492,6.492 v 0 c -0.078,0.001 -0.15,0.003 -0.222,0.003 v 0 c -2.803,-0.001 -3.942,-0.928 -5.023,-1.867 z m 5.245,0.318 c 2.73,-0.004 4.941,-2.215 4.948,-4.947 v 0 l -0.003,-42.093 c -0.004,-2.735 -2.213,-4.946 -4.945,-4.951 v 0 h -42.093 c -2.736,0.005 -4.945,2.216 -4.949,4.951 v 0 c -0.008,2.174 1.138,3.783 1.706,4.434 v 0 c 0.187,0.216 0.286,0.306 0.315,0.331 v 0 l 40.789,40.791 c 1.217,0.962 1.496,1.435 4.232,1.484 z"
       id="path16"
       inkscape:connector-curvature="0"
       style="fill:#f4f4f4" /></g><path
     id="circle25"
     d="m 43.675,28.377 c -17.683,0 -32.021,10.77075 -32.021,24.033 0,13.263 14.337,24.033 32.021,24.033 17.684,0 32.044,-10.77 32.044,-24.033 0,-13.263 -14.36,-24.033 -32.044,-24.033 z m 0,1.158 c 16.848,0 30.5,10.239 30.5,22.875 0,12.636 -13.652,22.875 -30.5,22.875 C 26.826,75.285 13.2,65.046 13.2,52.41 13.2,39.774 26.825,29.535 43.675,29.535 Z"
     inkscape:connector-curvature="0"
     style="fill:#f4f4f4;stroke-width:0.86602539" /><path
     id="circle27"
     d="m 188.554,28.377 c -17.684,0 -32.046,10.77075 -32.046,24.033 0,13.263 14.362,24.033 32.046,24.033 17.684,0 32.021,-10.77 32.021,-24.033 0,-13.263 -14.336,-24.033 -32.021,-24.033 z m 0,1.158 c 16.849,0 30.475,10.239 30.475,22.875 0,12.636 -13.626,22.875 -30.475,22.875 -16.85,0 -30.5,-10.239 -30.5,-22.875 0,-12.636 13.65,-22.875 30.5,-22.875 z"
     inkscape:connector-curvature="0"
     style="fill:#f4f4f4;stroke-width:0.86602539" /><path
     id="line29"
     d="m 45.003,19.6725 v 1.158 h 139.351 v -1.158 z"
     inkscape:connector-curvature="0"
     style="fill:#f4f4f4;stroke-width:0.86602539" /><path
     id="rect31"
     d="m 107.717,0 v 0.579 4.0905 0.57825 h 0.772 15.395 0.772 V 4.6695 0.579 0 h -0.772 -15.395 z m 1.543,1.158 h 13.851 V 4.08975 H 109.26 Z"
     inkscape:connector-curvature="0"
     style="fill:#f4f4f4;stroke-width:0.86602539" /><path
     id="rect33"
     d="m 107.307,7.63725 v 0.579 4.0905 0.57825 h 0.772 16.215 0.772 v -0.57825 -4.0905 -0.579 h -0.772 -16.215 z m 1.545,1.158 h 14.671 v 2.9325 h -14.671 z"
     inkscape:connector-curvature="0"
     style="fill:#f4f4f4;stroke-width:0.86602539" /><path
     id="polyline35"
     d="m 106.898,15.27375 v 0.57975 4.08975 h 1.545 V 16.4325 h 15.467 v 3.51075 h 1.545 v -4.08975 -0.579 h -0.772 -17.012 -0.773 z"
     inkscape:connector-curvature="0"
     style="fill:#f4f4f4;stroke-width:0.86602539" /><g
     id="g37"
     transform="matrix(1,0,0,0.75,-181.61501,-3.8715)"><polygon
       points="291.881,11.4 293.425,11.4 293.425,16.031 291.881,16.031 "
       id="polygon25"
       style="fill:#f4f4f4" /><polygon
       points="302.164,11.4 303.71,11.4 303.71,15.895 302.164,15.895 "
       id="polygon27"
       style="fill:#f4f4f4" /></g><g
     id="g43"
     transform="matrix(1,0,0,0.75,-181.61501,-3.8715)"><polygon
       points="291.881,21.719 293.425,21.719 293.425,26.35 291.881,26.35 "
       id="polygon30"
       style="fill:#f4f4f4" /><polygon
       points="302.164,21.718 303.71,21.718 303.71,26.215 302.164,26.215 "
       id="polygon32"
       style="fill:#f4f4f4" /></g></svg>