<?xml version="1.0" encoding="UTF-8" standalone="no"?>
<!-- Generator: Adobe Illustrator 13.0.0, SVG Export Plug-In . SVG Version: 6.00 Build 14948)  -->

<svg
   xmlns:ns="&amp;#38;ns_sfw;"
   xmlns:dc="http://purl.org/dc/elements/1.1/"
   xmlns:cc="http://creativecommons.org/ns#"
   xmlns:rdf="http://www.w3.org/1999/02/22-rdf-syntax-ns#"
   xmlns:svg="http://www.w3.org/2000/svg"
   xmlns="http://www.w3.org/2000/svg"
   xmlns:sodipodi="http://sodipodi.sourceforge.net/DTD/sodipodi-0.dtd"
   xmlns:inkscape="http://www.inkscape.org/namespaces/inkscape"
   version="1.2"
   id="Layer_3"
   x="0px"
   y="0px"
   width="562.29102"
   height="184.50975"
   viewBox="0 0 562.29099 184.50974"
   xml:space="preserve"
   inkscape:version="0.92.2 (5c3e80d, 2017-08-06)"
   sodipodi:docname="controller.svg"><defs
     id="defs44" /><sodipodi:namedview
     pagecolor="#ffffff"
     bordercolor="#666666"
     borderopacity="1"
     objecttolerance="10"
     gridtolerance="10"
     guidetolerance="10"
     inkscape:pageopacity="0"
     inkscape:pageshadow="2"
     inkscape:window-width="1920"
     inkscape:window-height="1017"
     id="namedview42"
     showgrid="false"
     fit-margin-top="0"
     fit-margin-left="0"
     fit-margin-right="0"
     fit-margin-bottom="0"
     inkscape:zoom="0.48145317"
     inkscape:cx="280.53051"
     inkscape:cy="105.34"
     inkscape:window-x="-8"
     inkscape:window-y="-8"
     inkscape:window-maximized="1"
     inkscape:current-layer="Layer_3" /><metadata
     id="metadata55"><rdf:RDF><cc:Work
         rdf:about=""><dc:format>image/svg+xml</dc:format><dc:type
           rdf:resource="http://purl.org/dc/dcmitype/StillImage" /><dc:title></dc:title></cc:Work></rdf:RDF><ns:sfw><ns:slices /><ns:sliceSourceBounds
         x="679.97"
         y="-7652"
         width="562.29"
         height="16383"
         bottomLeftOrigin="true" /></ns:sfw></metadata><path
     id="circle3"
     d="M 88.963,49.23 C 39.837,49.23 0,79.10775 0,115.94925 c 0,36.8445 39.837,66.72225 88.963,66.72225 49.125,0 88.963,-29.877 88.963,-66.72225 C 177.926,79.1055 138.09,49.227 88.963,49.227 Z m 0,1.38375 c 48.128,0 87.118,29.24175 87.118,65.3385 0,36.09675 -38.989,65.33925 -87.118,65.33925 -48.133,0 -87.122,-29.238 -87.122,-65.34 0,-36.0945 38.989,-65.33625 87.118,-65.33625 z"
     inkscape:connector-curvature="0"
     style="fill:#f4f4f4;stroke-width:0.86602539" /><path
     id="circle5"
     d="m 88.963,87.80475 c -20.715,0 -37.534,12.61275 -37.534,28.1505 0,15.53625 16.818,28.14975 37.534,28.14975 20.716,0 37.534,-12.61275 37.534,-28.14975 0,-15.537 -16.817,-28.1505 -37.534,-28.1505 z m 0,1.38375 c 19.718,0 35.689,11.9775 35.689,26.76675 0,14.7885 -15.97,26.766 -35.689,26.766 -19.718,0 -35.689,-11.9775 -35.689,-26.766 0,-14.7885 15.971,-26.76675 35.689,-26.76675 z"
     inkscape:connector-curvature="0"
     style="fill:#f4f4f4;stroke-width:0.86602539" /><path
     id="polygon7"
     d="m 88.963,71.60775 v 0 l 4.526,12.8865 h -9.052 z"
     inkscape:connector-curvature="0"
     style="fill:#f4f4f4;stroke-width:0.86602539" /><path
     id="polygon9"
     d="m 47.134,84.5805 15.365,6.72375 -6.371,4.8 z"
     inkscape:connector-curvature="0"
     style="fill:#f4f4f4;stroke-width:0.86602539" /><path
     id="polygon11"
     d="m 47.019,112.56 v 6.78975 l -17.21,-3.3945 z"
     inkscape:connector-curvature="0"
     style="fill:#f4f4f4;stroke-width:0.86602539" /><path
     id="polygon13"
     d="m 56.128,135.80325 6.371,4.7985 -15.365,6.7245 z"
     inkscape:connector-curvature="0"
     style="fill:#f4f4f4;stroke-width:0.86602539" /><path
     id="polygon15"
     d="m 84.437,147.40875 h 9.052 l -4.526,12.8865 z"
     inkscape:connector-curvature="0"
     style="fill:#f4f4f4;stroke-width:0.86602539" /><path
     id="polygon17"
     d="m 121.826,135.80325 8.937,11.50125 -15.336,-6.70275 z"
     inkscape:connector-curvature="0"
     style="fill:#f4f4f4;stroke-width:0.86602539" /><path
     id="polygon19"
     d="m 130.911,112.56 17.239,3.3945 -17.239,3.3945 z"
     inkscape:connector-curvature="0"
     style="fill:#f4f4f4;stroke-width:0.86602539" /><path
     id="polygon21"
     d="m 130.762,84.60225 -8.937,11.50275 -6.4,-4.8 z"
     inkscape:connector-curvature="0"
     style="fill:#f4f4f4;stroke-width:0.86602539" /><g
     id="g23"
     transform="matrix(1,0,0,0.75,-18.564,-25.84275)"><path
       id="circle25"
       d="m 299.868,115.579 c -18.162,0 -32.892,14.73 -32.892,32.892 0,18.162 14.73,32.922 32.892,32.922 18.161,0 32.922,-14.759 32.922,-32.922 0,-18.162 -14.759,-32.892 -32.922,-32.892 z m 0,1.845 c 17.165,0 31.076,13.882 31.076,31.047 0,17.165 -13.911,31.077 -31.076,31.077 -17.164,0 -31.047,-13.912 -31.047,-31.077 0,-17.165 13.883,-31.047 31.047,-31.047 z"
       inkscape:connector-curvature="0"
       style="fill:#f4f4f4" /><path
       id="circle27"
       d="m 299.868,126.101 c -12.345,0 -22.37,10.025 -22.37,22.37 0,12.345 10.025,22.371 22.37,22.371 12.346,0 22.37,-10.026 22.37,-22.371 0,-12.345 -10.024,-22.37 -22.37,-22.37 z m 0,1.844 c 11.347,0 20.525,9.178 20.525,20.525 0,11.347 -9.179,20.525 -20.525,20.525 -11.348,0 -20.525,-9.178 -20.525,-20.525 0,-11.347 9.178,-20.525 20.525,-20.525 z"
       inkscape:connector-curvature="0"
       style="fill:#f4f4f4" /></g><g
     id="g29"
     transform="matrix(1,0,0,0.75,-18.564,-25.84275)"><path
       id="circle31"
       d="m 383.354,115.579 c -18.164,0 -32.894,14.731 -32.894,32.892 0,18.162 14.731,32.893 32.894,32.893 18.161,0 32.922,-14.731 32.922,-32.893 0,-18.162 -14.76,-32.892 -32.922,-32.892 z m 0,1.845 c 17.163,0 31.076,13.883 31.076,31.047 0,17.165 -13.913,31.047 -31.076,31.047 -17.166,0 -31.048,-13.883 -31.048,-31.047 0.001,-17.165 13.882,-31.047 31.048,-31.047 z"
       inkscape:connector-curvature="0"
       style="fill:#f4f4f4" /><path
       id="circle33"
       d="m 383.354,126.101 c -12.346,0 -22.371,10.025 -22.371,22.37 0,12.345 10.025,22.371 22.371,22.371 12.344,0 22.369,-10.026 22.369,-22.371 0,-12.345 -10.025,-22.37 -22.369,-22.37 z m 0,1.844 c 11.348,0 20.523,9.178 20.523,20.525 0,11.347 -9.178,20.525 -20.523,20.525 -11.348,0 -20.526,-9.178 -20.526,-20.525 0,-11.347 9.179,-20.525 20.526,-20.525 z"
       inkscape:connector-curvature="0"
       style="fill:#f4f4f4" /></g><g
     id="g35"
     transform="matrix(1,0,0,0.75,-18.564,-25.84275)"><path
       id="circle37"
       d="m 466.839,115.579 c -18.162,0 -32.893,14.731 -32.893,32.892 0,18.162 14.73,32.893 32.893,32.893 18.163,0 32.922,-14.731 32.922,-32.893 0,-18.162 -14.76,-32.892 -32.922,-32.892 z m 0,1.845 c 17.165,0 31.077,13.883 31.077,31.047 0,17.165 -13.912,31.047 -31.077,31.047 -17.165,0 -31.048,-13.883 -31.048,-31.047 0,-17.165 13.884,-31.047 31.048,-31.047 z"
       inkscape:connector-curvature="0"
       style="fill:#f4f4f4" /><path
       id="circle39"
       d="m 466.839,126.101 c -12.346,0 -22.371,10.025 -22.371,22.37 0,12.345 10.025,22.371 22.371,22.371 12.344,0 22.371,-10.026 22.371,-22.371 0,-12.345 -10.027,-22.37 -22.371,-22.37 z m 0,1.844 c 11.348,0 20.525,9.178 20.525,20.525 0,11.347 -9.178,20.525 -20.525,20.525 -11.347,0 -20.525,-9.178 -20.525,-20.525 0,-11.347 9.177,-20.525 20.525,-20.525 z"
       inkscape:connector-curvature="0"
       style="fill:#f4f4f4" /></g><g
     id="g41"
     transform="matrix(1,0,0,0.75,-18.564,-25.84275)"><path
       id="circle43"
       d="m 547.962,34.457 c -18.162,0 -32.892,14.731 -32.892,32.892 0,18.162 14.731,32.922 32.892,32.922 18.163,0 32.893,-14.76 32.893,-32.922 -0.009,-18.161 -14.742,-32.892 -32.896,-32.892 z m 0,1.845 c 17.165,0 31.048,13.884 31.048,31.047 0,17.165 -13.883,31.077 -31.048,31.077 -17.164,0 -31.047,-13.912 -31.047,-31.077 0,-17.164 13.883,-31.047 31.052,-31.047 z"
       inkscape:connector-curvature="0"
       style="fill:#f4f4f4" /><path
       id="circle45"
       d="m 547.962,44.979 c -12.345,0 -22.369,10.026 -22.369,22.371 0,12.345 10.024,22.398 22.369,22.398 12.346,0 22.37,-10.054 22.37,-22.398 0,-12.344 -10.024,-22.371 -22.37,-22.371 z m 0,1.844 c 11.349,0 20.525,9.178 20.525,20.526 0,11.348 -9.177,20.554 -20.525,20.554 -11.348,0 -20.524,-9.206 -20.524,-20.554 0,-11.348 9.176,-20.526 20.524,-20.526 z"
       inkscape:connector-curvature="0"
       style="fill:#f4f4f4" /></g><g
     id="g47"
     transform="matrix(1,0,0,0.75,-18.564,-25.84275)"><path
       id="circle49"
       d="m 299.868,197.507 c -18.162,0 -32.892,14.759 -32.892,32.922 0,18.161 14.73,32.892 32.892,32.892 18.161,0 32.922,-14.73 32.922,-32.892 0,-18.162 -14.759,-32.922 -32.922,-32.922 z m 0,1.845 c 17.165,0 31.076,13.911 31.076,31.077 0,17.164 -13.911,31.047 -31.076,31.047 -17.164,0 -31.047,-13.883 -31.047,-31.047 0,-17.165 13.883,-31.077 31.047,-31.077 z"
       inkscape:connector-curvature="0"
       style="fill:#f4f4f4" /><path
       id="circle51"
       d="m 299.868,208.06 c -12.345,0 -22.37,10.026 -22.37,22.371 0,12.345 10.025,22.37 22.37,22.37 12.346,0 22.37,-10.025 22.37,-22.37 0,-12.345 -10.024,-22.371 -22.37,-22.371 z m 0,1.844 c 11.347,0 20.525,9.179 20.525,20.526 0,11.347 -9.179,20.525 -20.525,20.525 -11.348,0 -20.525,-9.179 -20.525,-20.525 0,-11.347 9.178,-20.526 20.525,-20.526 z"
       inkscape:connector-curvature="0"
       style="fill:#f4f4f4" /></g><g
     id="g53"
     transform="matrix(1,0,0,0.75,-18.564,-25.84275)"><path
       id="circle55"
       d="m 383.354,197.507 c -18.164,0 -32.894,14.76 -32.894,32.922 0,18.161 14.731,32.892 32.894,32.892 18.161,0 32.922,-14.731 32.922,-32.892 0,-18.162 -14.76,-32.922 -32.922,-32.922 z m 0,1.845 c 17.163,0 31.076,13.912 31.076,31.077 0,17.164 -13.913,31.047 -31.076,31.047 -17.166,0 -31.048,-13.884 -31.048,-31.047 0.001,-17.165 13.882,-31.077 31.048,-31.077 z"
       inkscape:connector-curvature="0"
       style="fill:#f4f4f4" /><path
       id="circle57"
       d="m 383.354,208.06 c -12.346,0 -22.371,10.026 -22.371,22.371 0,12.345 10.025,22.37 22.371,22.37 12.344,0 22.369,-10.025 22.369,-22.37 0,-12.345 -10.025,-22.371 -22.369,-22.371 z m 0,1.844 c 11.348,0 20.523,9.179 20.523,20.526 0,11.347 -9.178,20.525 -20.523,20.525 -11.348,0 -20.526,-9.179 -20.526,-20.525 0,-11.347 9.179,-20.526 20.526,-20.526 z"
       inkscape:connector-curvature="0"
       style="fill:#f4f4f4" /></g><path
     id="circle59"
     d="m 448.275,122.2875 c -18.162,0 -32.893,11.07 -32.893,24.6915 0,13.62075 14.73,24.669 32.893,24.669 18.163,0 32.922,-11.04825 32.922,-24.669 0,-13.6215 -14.76,-24.6915 -32.922,-24.6915 z m 0,1.38375 c 17.165,0 31.077,10.434 31.077,23.30775 0,12.873 -13.912,23.28525 -31.077,23.28525 -17.165,0 -31.048,-10.413 -31.048,-23.28525 0,-12.87375 13.884,-23.30775 31.048,-23.30775 z"
     inkscape:connector-curvature="0"
     style="fill:#f4f4f4;stroke-width:0.86602539" /><path
     id="circle61"
     d="m 448.275,130.20225 c -12.346,0 -22.371,7.5195 -22.371,16.77825 0,9.25875 10.025,16.7775 22.371,16.7775 12.344,0 22.371,-7.51875 22.371,-16.7775 0,-9.25875 -10.027,-16.77825 -22.371,-16.77825 z m 0,1.383 c 11.348,0 20.525,6.88425 20.525,15.3945 0,8.51025 -9.178,15.39375 -20.525,15.39375 -11.347,0 -20.525,-6.88425 -20.525,-15.39375 -10e-4,-8.51025 9.177,-15.3945 20.525,-15.3945 z"
     inkscape:connector-curvature="0"
     style="fill:#f4f4f4;stroke-width:0.86602539" /><g
     id="g63"
     transform="matrix(1,0,0,0.75,-18.564,-25.84275)"><path
       id="line65"
       d="m 415.382,229.877 v 1.845 h 19.604 v -1.845 z"
       inkscape:connector-curvature="0"
       style="fill:#f4f4f4" /><path
       id="line67"
       d="m 331.952,229.877 v 1.845 h 19.517 v -1.845 z"
       inkscape:connector-curvature="0"
       style="fill:#f4f4f4" /><path
       id="polyline69"
       d="m 256.742,229.877 v 0.923 48.747 0.923 h 0.922 251.406 0.923 v -0.923 -48.747 -0.923 h -0.923 -10.177 v 1.845 h 9.254 v 46.903 H 258.586 v -46.903 h 9.399 v -1.845 h -10.321 z"
       inkscape:connector-curvature="0"
       style="fill:#f4f4f4" /></g><g
     id="g71"
     transform="matrix(1,0,0,0.75,-18.564,-25.84275)"><path
       id="line73"
       d="m 415.382,148.384 v 1.846 h 19.604 v -1.846 z"
       inkscape:connector-curvature="0"
       style="fill:#f4f4f4" /><path
       id="line75"
       d="m 331.952,148.384 v 1.846 h 19.517 v -1.846 z"
       inkscape:connector-curvature="0"
       style="fill:#f4f4f4" /><path
       id="polyline77"
       d="m 256.742,99.636 v 0.922 48.749 0.923 h 0.922 10.321 v -1.846 h -9.399 v -46.903 h 249.561 v 46.903 h -9.254 v 1.846 h 10.177 0.923 v -0.923 -48.749 -0.922 H 509.07 257.664 Z"
       inkscape:connector-curvature="0"
       style="fill:#f4f4f4" /></g></svg>