<?xml version="1.0" encoding="UTF-8" standalone="no"?>
<!-- Generator: Adobe Illustrator 16.0.3, SVG Export Plug-In . SVG Version: 6.00 Build 0)  -->

<svg
   xmlns:dc="http://purl.org/dc/elements/1.1/"
   xmlns:cc="http://creativecommons.org/ns#"
   xmlns:rdf="http://www.w3.org/1999/02/22-rdf-syntax-ns#"
   xmlns:svg="http://www.w3.org/2000/svg"
   xmlns="http://www.w3.org/2000/svg"
   xmlns:sodipodi="http://sodipodi.sourceforge.net/DTD/sodipodi-0.dtd"
   xmlns:inkscape="http://www.inkscape.org/namespaces/inkscape"
   version="1.1"
   id="TEXT"
   x="0px"
   y="0px"
   width="566.92908"
   height="118.33459"
   viewBox="0 -0.001 566.92906 118.33459"
   enable-background="new 0 -0.001 566.929 157.78"
   xml:space="preserve"
   sodipodi:docname="logo.svg"
   inkscape:version="0.92.2 (5c3e80d, 2017-08-06)"><metadata
     id="metadata339"><rdf:RDF><cc:Work
         rdf:about=""><dc:format>image/svg+xml</dc:format><dc:type
           rdf:resource="http://purl.org/dc/dcmitype/StillImage" /><dc:title></dc:title></cc:Work></rdf:RDF></metadata><defs
     id="defs337" /><sodipodi:namedview
     pagecolor="#ffffff"
     bordercolor="#666666"
     borderopacity="1"
     objecttolerance="10"
     gridtolerance="10"
     guidetolerance="10"
     inkscape:pageopacity="0"
     inkscape:pageshadow="2"
     inkscape:window-width="1920"
     inkscape:window-height="1017"
     id="namedview335"
     showgrid="false"
     fit-margin-top="0"
     fit-margin-left="0"
     fit-margin-right="0"
     fit-margin-bottom="0"
     inkscape:zoom="0.61559735"
     inkscape:cx="283.46451"
     inkscape:cy="78.889039"
     inkscape:window-x="-8"
     inkscape:window-y="-8"
     inkscape:window-maximized="1"
     inkscape:current-layer="TEXT" /><linearGradient
     id="SVGID_1_"
     gradientUnits="userSpaceOnUse"
     x1="558.12842"
     y1="955.59772"
     x2="11.77"
     y2="955.59772"
     gradientTransform="translate(-0.1797,-875.4102)"><stop
       offset="0"
       style="stop-color:#013A67"
       id="stop2" /><stop
       offset="1"
       style="stop-color:#6CD1FF"
       id="stop4" /></linearGradient><polygon
     points="479.951,5.642 406.662,79.217 396.4,79.784 396.686,9.001 355.481,51.055 345.625,52.224 345.625,9.374 261.264,92.842 250.775,93.958 251.667,8.077 177.937,82.94 168.255,82.987 167.12,11.089 127.342,51.15 116.278,51.717 116.697,8.939 11.591,114.895 46.209,114.328 91.598,70.276 100.303,70.276 99.883,114.54 136.035,77.543 144.679,77.543 144.679,115.23 104.892,154.73 143.019,154.165 218.036,78.299 228.14,78.299 228.14,115.57 274.897,115.854 320.115,70.353 328.843,69.786 328.708,112.799 364.839,76.667 373.375,76.667 373.941,113.102 373.203,114.998 482.378,114.998 503.279,93.815 435.398,92.661 434.781,82.809 445.357,71.67 470.968,71.667 493.216,49.133 479.769,48.565 479.769,39.082 491.191,27.662 536.777,27.946 557.949,5.927 "
     id="polygon7"
     style="fill:url(#SVGID_1_)"
     transform="matrix(1,0,0,0.75,0,5.5069644e-5)" /><linearGradient
     id="SVGID_2_"
     gradientUnits="userSpaceOnUse"
     x1="64.709503"
     y1="938.78912"
     x2="60.764999"
     y2="934.84479"
     gradientTransform="matrix(1,0,0,0.75,-0.1797,-656.55759)"><stop
       offset="0"
       style="stop-color:#08406F"
       id="stop9" /><stop
       offset="1"
       style="stop-color:#60C5F5"
       id="stop11" /></linearGradient><path
     d="M 114.692,9.9098051 13.577,85.746057 2.106,88.980807 c 0,0 -0.604,0.0292 -0.271,-0.33375 0,0 117.26,-87.96900193 117.472,-88.10325193 0.212,-0.13575 0.467,-0.021 0.467,-0.021 z"
     id="path14"
     style="fill:url(#SVGID_2_);stroke-width:0.86602539"
     inkscape:connector-curvature="0" /><linearGradient
     id="SVGID_3_"
     gradientUnits="userSpaceOnUse"
     x1="123.2954"
     y1="1013.9102"
     x2="119.6701"
     y2="1010.2849"
     gradientTransform="matrix(1,0,0,0.75,-0.1797,-656.55759)"><stop
       offset="0"
       style="stop-color:#08406F"
       id="stop16" /><stop
       offset="1"
       style="stop-color:#60C5F5"
       id="stop18" /></linearGradient><path
     d="m 145.814,86.847807 -37.518,28.140753 -11.065,3.34275 c 0,0 -0.576,0.0488 -0.236,-0.30525 l 43.929,-32.811753 z"
     id="path21"
     style="fill:url(#SVGID_3_);stroke-width:0.86602539"
     inkscape:connector-curvature="0" /><linearGradient
     id="SVGID_4_"
     gradientUnits="userSpaceOnUse"
     x1="25.7236"
     y1="994.05078"
     x2="25.7236"
     y2="989.73828"
     gradientTransform="translate(-0.1797,-875.4102)"><stop
       offset="0"
       style="stop-color:#08406F"
       id="stop23" /><stop
       offset="1"
       style="stop-color:#60C5F5"
       id="stop25" /></linearGradient><polygon
     points="46.209,114.328 48.982,118.641 2.106,118.641 13.603,114.328 "
     id="polygon28"
     style="fill:url(#SVGID_4_)"
     transform="matrix(1,0,0,0.75,0,5.5069644e-5)" /><linearGradient
     id="SVGID_5_"
     gradientUnits="userSpaceOnUse"
     x1="121.1855"
     y1="1033.1816"
     x2="121.1855"
     y2="1028.7246"
     gradientTransform="translate(-0.1797,-875.4102)"><stop
       offset="0"
       style="stop-color:#08406F"
       id="stop30" /><stop
       offset="1"
       style="stop-color:#60C5F5"
       id="stop32" /></linearGradient><polygon
     points="142.168,153.314 144.781,157.771 97.23,157.771 108.296,153.314 "
     id="polygon35"
     style="fill:url(#SVGID_5_)"
     transform="matrix(1,0,0,0.75,0,5.5069644e-5)" /><linearGradient
     id="SVGID_6_"
     gradientUnits="userSpaceOnUse"
     x1="427.69379"
     y1="994.02338"
     x2="427.69379"
     y2="989.55658"
     gradientTransform="translate(-0.1797,-875.4102)"><stop
       offset="0"
       style="stop-color:#08406F"
       id="stop37" /><stop
       offset="1"
       style="stop-color:#60C5F5"
       id="stop39" /></linearGradient><polygon
     points="481.529,114.146 484.787,118.613 370.242,118.584 374.052,114.148 "
     id="polygon42"
     style="fill:url(#SVGID_6_)"
     transform="matrix(1,0,0,0.75,0,5.5069644e-5)" /><linearGradient
     id="SVGID_7_"
     gradientUnits="userSpaceOnUse"
     x1="251.0645"
     y1="994.89447"
     x2="251.0645"
     y2="990.41602"
     gradientTransform="matrix(1,0,0,0.75,-0.1797,-656.55759)"><stop
       offset="0"
       style="stop-color:#08406F"
       id="stop44" /><stop
       offset="1"
       style="stop-color:#60C5F5"
       id="stop46" /></linearGradient><path
     d="m 277.053,89.613057 -51.527,-0.0217 c -0.333,0.004 -0.81,-0.25125 -0.81,-0.25125 l 4.561,-3.08625 h 45.054 z"
     id="path49"
     style="fill:url(#SVGID_7_);stroke-width:0.86602539"
     inkscape:connector-curvature="0" /><linearGradient
     id="SVGID_8_"
     gradientUnits="userSpaceOnUse"
     x1="522.28082"
     y1="882.1875"
     x2="522.28082"
     y2="877.32422"
     gradientTransform="matrix(1,0,0,0.75,-0.1797,-656.55759)"><stop
       offset="0"
       style="stop-color:#08406F"
       id="stop51" /><stop
       offset="1"
       style="stop-color:#60C5F5"
       id="stop53" /></linearGradient><path
     d="m 477.382,1.4348051 h 88.652 c 0.785,0 0.785,0.23475 0.785,0.23475 l -10.572,3.4125 h -75.164 z"
     id="path56"
     style="fill:url(#SVGID_8_);stroke-width:0.86602539"
     inkscape:connector-curvature="0" /><linearGradient
     id="SVGID_9_"
     gradientUnits="userSpaceOnUse"
     x1="515.01318"
     y1="906.71478"
     x2="515.01318"
     y2="902.50488"
     gradientTransform="translate(-0.1797,-875.4102)"><stop
       offset="0"
       style="stop-color:#08406F"
       id="stop58" /><stop
       offset="1"
       style="stop-color:#60C5F5"
       id="stop60" /></linearGradient><polygon
     points="535.927,27.094 539.042,31.304 492.697,31.304 490.625,27.094 "
     id="polygon63"
     style="fill:url(#SVGID_9_)"
     transform="matrix(1,0,0,0.75,0,5.5069644e-5)" /><linearGradient
     id="SVGID_10_"
     gradientUnits="userSpaceOnUse"
     x1="459.3696"
     y1="950.23053"
     x2="459.3696"
     y2="946.51172"
     gradientTransform="translate(-0.1797,-875.4102)"><stop
       offset="0"
       style="stop-color:#08406F"
       id="stop65" /><stop
       offset="1"
       style="stop-color:#60C5F5"
       id="stop67" /></linearGradient><polygon
     points="470.402,71.1 473.589,74.82 448.91,74.82 444.791,71.102 "
     id="polygon70"
     style="fill:url(#SVGID_10_)"
     transform="matrix(1,0,0,0.75,0,5.5069644e-5)" /><linearGradient
     id="SVGID_11_"
     gradientUnits="userSpaceOnUse"
     x1="490.16061"
     y1="925.11133"
     x2="490.16061"
     y2="919.55658"
     gradientTransform="matrix(1,0,0,0.75,-0.1797,-656.55759)"><stop
       offset="0"
       style="stop-color:#08406F"
       id="stop72" /><stop
       offset="1"
       style="stop-color:#60C5F5"
       id="stop74" /></linearGradient><path
     d="m 491.8,37.275055 h -13.58 l -1.193,-4.161 h 25.467 c 0.346,-0.03225 0.441,0.1095 0.441,0.1095 z"
     id="path77"
     style="fill:url(#SVGID_11_);stroke-width:0.86602539"
     inkscape:connector-curvature="0" /><linearGradient
     id="SVGID_12_"
     gradientUnits="userSpaceOnUse"
     x1="74.389198"
     y1="968.8252"
     x2="70.846001"
     y2="965.28198"
     gradientTransform="matrix(1,0,0,0.75,-0.1797,-656.55759)"><stop
       offset="0"
       style="stop-color:#08406F"
       id="stop79" /><stop
       offset="1"
       style="stop-color:#60C5F5"
       id="stop81" /></linearGradient><path
     d="M 96.872,52.975555 48.982,88.982307 46.209,85.747557 92.81,50.973805 c 2,-1.73475 4.675,-1.29825 4.675,-1.29825 z"
     id="path84"
     style="fill:url(#SVGID_12_);stroke-width:0.86602539"
     inkscape:connector-curvature="0" /><linearGradient
     id="SVGID_13_"
     gradientUnits="userSpaceOnUse"
     x1="120.2554"
     y1="904.36908"
     x2="114.8892"
     y2="904.36908"
     gradientTransform="matrix(1,0,0,0.75,-0.1797,-656.55759)"><stop
       offset="0"
       style="stop-color:#08406F"
       id="stop86" /><stop
       offset="1"
       style="stop-color:#60C5F5"
       id="stop88" /></linearGradient><path
     d="M 114.71,38.751805 V 9.8948051 l 5.063,-9.37425003 c 0,0 0.303,0.05625 0.303,0.42825 0,0.36975003 0,40.23524993 0,40.23524993 l -0.315,1.73325 c 0,7.5e-4 -4.496,0.01875 -5.051,-4.1655 z"
     id="path91"
     style="fill:url(#SVGID_13_);stroke-width:0.86602539"
     inkscape:connector-curvature="0" /><linearGradient
     id="SVGID_14_"
     gradientUnits="userSpaceOnUse"
     x1="173.0811"
     y1="919.96088"
     x2="166.4209"
     y2="919.96088"
     gradientTransform="matrix(1,0,0,0.75,-0.1797,-656.55759)"><stop
       offset="0"
       style="stop-color:#08406F"
       id="stop93" /><stop
       offset="1"
       style="stop-color:#60C5F5"
       id="stop95" /></linearGradient><path
     d="m 172.902,66.632307 c 0,0 -6.539,1.4625 -6.621,-4.21875 -0.08,-5.484752 -0.013,-51.968252 -0.013,-51.968252 l 5.214,-10.42199993 c 0,0 0.182,-0.02025 0.182,0.54375 L 171.647,61.911807 Z"
     id="path98"
     style="fill:url(#SVGID_14_);stroke-width:0.86602539"
     inkscape:connector-curvature="0" /><linearGradient
     id="SVGID_15_"
     gradientUnits="userSpaceOnUse"
     x1="255.9883"
     y1="925.21582"
     x2="249.9951"
     y2="925.21582"
     gradientTransform="matrix(1,0,0,0.75,-0.1797,-656.55759)"><stop
       offset="0"
       style="stop-color:#08406F"
       id="stop100" /><stop
       offset="1"
       style="stop-color:#60C5F5"
       id="stop102" /></linearGradient><path
     d="m 255.809,74.182557 c 0,0 -5.889,0.43275 -5.96,-4.566 l -0.033,-60.0472519 4.651,-9.05325003 c 0,0 0.583,0.11475 0.583,0.68025003 l -0.016,68.3550019 z"
     id="path105"
     style="fill:url(#SVGID_15_);stroke-width:0.86602539"
     inkscape:connector-curvature="0" /><linearGradient
     id="SVGID_16_"
     gradientUnits="userSpaceOnUse"
     x1="349.27689"
     y1="904.625"
     x2="343.57571"
     y2="904.625"
     gradientTransform="matrix(1,0,0,0.75,-0.1797,-656.55759)"><stop
       offset="0"
       style="stop-color:#08406F"
       id="stop107" /><stop
       offset="1"
       style="stop-color:#60C5F5"
       id="stop109" /></linearGradient><path
     d="m 349.097,43.068805 c 0,0 -4.868,0.339 -5.701,-3.42225 V 9.8543051 l 4.393,-9.11025003 c 0,0 0.563,0.1005 0.563,0.66450003 V 38.658805 Z"
     id="path112"
     style="fill:url(#SVGID_16_);stroke-width:0.86602539"
     inkscape:connector-curvature="0" /><linearGradient
     id="SVGID_17_"
     gradientUnits="userSpaceOnUse"
     x1="400.96039"
     y1="918.44629"
     x2="395.1636"
     y2="918.44629"
     gradientTransform="matrix(1,0,0,0.75,-0.1797,-656.55759)"><stop
       offset="0"
       style="stop-color:#08406F"
       id="stop114" /><stop
       offset="1"
       style="stop-color:#60C5F5"
       id="stop116" /></linearGradient><path
     d="m 400.781,63.999807 c 0,0 -4.938,0.48225 -5.797,-3.27975 V 9.9405551 l 4.85,-9.40800003 c 0,0 0.268,0.16575 0.268,1.28100003 V 59.733055 Z"
     id="path119"
     style="fill:url(#SVGID_17_);stroke-width:0.86602539"
     inkscape:connector-curvature="0" /><linearGradient
     id="SVGID_18_"
     gradientUnits="userSpaceOnUse"
     x1="101.7651"
     y1="968.93848"
     x2="96.654297"
     y2="968.93848"
     gradientTransform="matrix(1,0,0,0.75,-0.1797,-656.55759)"><stop
       offset="0"
       style="stop-color:#08406F"
       id="stop121" /><stop
       offset="1"
       style="stop-color:#60C5F5"
       id="stop123" /></linearGradient><path
     d="m 97.759,90.615057 c 0,0 -0.833,-0.0517 -0.809,-0.86175 -0.001,-0.68775 -0.078,-36.777002 -0.078,-36.777002 0,0 -1.218,-1.18275 0.613,-3.3 0.547,0.09825 3.495,0.54525 4.101,3.192 v 30.277502 z"
     id="path126"
     style="fill:url(#SVGID_18_);stroke-width:0.86602539"
     inkscape:connector-curvature="0" /><linearGradient
     id="SVGID_19_"
     gradientUnits="userSpaceOnUse"
     x1="121.2485"
     y1="973.83789"
     x2="117.6964"
     y2="970.28583"
     gradientTransform="matrix(1,0,0,0.75,-0.1797,-656.55759)"><stop
       offset="0"
       style="stop-color:#08406F"
       id="stop128" /><stop
       offset="1"
       style="stop-color:#60C5F5"
       id="stop130" /></linearGradient><path
     d="m 140.843,58.948555 c 0,0 -41.489,31.161002 -41.883,31.453502 -0.346,0.28425 -1.202,0.2115 -1.202,0.2115 l 3.827,-7.47225 36.059,-27.066002 c 0,0 1.34,-1.29525 3.831,-1.22775 z"
     id="path133"
     style="fill:url(#SVGID_19_);stroke-width:0.86602539"
     inkscape:connector-curvature="0" /><linearGradient
     id="SVGID_20_"
     gradientUnits="userSpaceOnUse"
     x1="553.43597"
     y1="892.5"
     x2="549.76727"
     y2="888.83112"
     gradientTransform="matrix(1,0,0,0.75,-0.1797,-656.55759)"><stop
       offset="0"
       style="stop-color:#08406F"
       id="stop135" /><stop
       offset="1"
       style="stop-color:#60C5F5"
       id="stop137" /></linearGradient><path
     d="m 566.609,2.7293051 -27.566,20.7487499 -3.115,-3.15825 20.312,-15.2429999 10.582,-3.4065 c 0,7.5e-4 0.349,0.63525 -0.213,1.059 z"
     id="path140"
     style="fill:url(#SVGID_20_);stroke-width:0.86602539"
     inkscape:connector-curvature="0" /><linearGradient
     id="SVGID_21_"
     gradientUnits="userSpaceOnUse"
     x1="145.99409"
     y1="969.87891"
     x2="140.5957"
     y2="969.87891"
     gradientTransform="matrix(1,0,0,0.75,-0.1797,-656.55759)"><stop
       offset="0"
       style="stop-color:#08406F"
       id="stop142" /><stop
       offset="1"
       style="stop-color:#60C5F5"
       id="stop144" /></linearGradient><path
     d="m 140.924,85.212057 -0.079,-26.268752 c 0,0 -1.301,-1.97475 0.631,-4.092 0.593,-0.0053 3.7,0.31575 4.339,3.1095 l -0.001,28.890002 z"
     id="path147"
     style="fill:url(#SVGID_21_);stroke-width:0.86602539"
     inkscape:connector-curvature="0" /><linearGradient
     id="SVGID_22_"
     gradientUnits="userSpaceOnUse"
     x1="148.7769"
     y1="907.00983"
     x2="144.28909"
     y2="902.52197"
     gradientTransform="matrix(1,0,0,0.75,-0.1797,-656.55759)"><stop
       offset="0"
       style="stop-color:#08406F"
       id="stop149" /><stop
       offset="1"
       style="stop-color:#60C5F5"
       id="stop151" /></linearGradient><path
     d="m 166.269,10.444555 -41.462,31.09725 c -1.987,1.4895 -5.045,1.377 -5.045,1.377 -1.795,-2.64825 0.315,-4.54875 0.315,-4.54875 0,0 50.503,-37.86749993 50.867,-38.15249993 0.331,-0.31275 0.541,-0.198 0.541,-0.198 z"
     id="path154"
     style="fill:url(#SVGID_22_);stroke-width:0.86602539"
     inkscape:connector-curvature="0" /><linearGradient
     id="SVGID_23_"
     gradientUnits="userSpaceOnUse"
     x1="215.8457"
     y1="922.32129"
     x2="211.688"
     y2="918.16357"
     gradientTransform="matrix(1,0,0,0.75,-0.1797,-656.55759)"><stop
       offset="0"
       style="stop-color:#08406F"
       id="stop156" /><stop
       offset="1"
       style="stop-color:#60C5F5"
       id="stop158" /></linearGradient><path
     d="M 249.815,9.5715551 175.439,65.352807 c -1.55,1.16325 -2.537,1.27725 -2.537,1.27725 -3.781,-1.4085 -1.213,-4.69125 -1.213,-4.69125 0,0 80.652,-60.4762519 81.016,-60.7612519 0.943,-0.81975003 1.761,-0.66225003 1.761,-0.66225003 z"
     id="path161"
     style="fill:url(#SVGID_23_);stroke-width:0.86602539"
     inkscape:connector-curvature="0" /><linearGradient
     id="SVGID_24_"
     gradientUnits="userSpaceOnUse"
     x1="304.31589"
     y1="927.81049"
     x2="299.9317"
     y2="923.42627"
     gradientTransform="matrix(1,0,0,0.75,-0.1797,-656.55759)"><stop
       offset="0"
       style="stop-color:#08406F"
       id="stop163" /><stop
       offset="1"
       style="stop-color:#60C5F5"
       id="stop165" /></linearGradient><path
     d="M 343.396,9.8543051 259.233,72.975057 c -1.429,1.074 -3.424,1.206 -3.424,1.206 -3.115,-1.167 -0.776,-4.63125 -0.776,-4.63125 0,0 90.61,-67.8750019 90.974,-68.1607519 0.941,-0.82350003 1.781,-0.64650003 1.781,-0.64650003 z"
     id="path168"
     style="fill:url(#SVGID_24_);stroke-width:0.86602539"
     inkscape:connector-curvature="0" /><linearGradient
     id="SVGID_25_"
     gradientUnits="userSpaceOnUse"
     x1="376.97119"
     y1="906.86133"
     x2="372.76331"
     y2="902.65302"
     gradientTransform="matrix(1,0,0,0.75,-0.1797,-656.55759)"><stop
       offset="0"
       style="stop-color:#08406F"
       id="stop170" /><stop
       offset="1"
       style="stop-color:#60C5F5"
       id="stop172" /></linearGradient><path
     d="M 394.984,9.9405551 352.471,41.826055 c -1.429,1.074 -3.374,1.24275 -3.374,1.24275 -2.932,-1.431 -0.588,-4.48725 -0.588,-4.48725 0,0 49.584,-37.2674999 49.947,-37.5524999 1.047,-0.77475003 1.377,-0.49500003 1.377,-0.49500003 z"
     id="path175"
     style="fill:url(#SVGID_25_);stroke-width:0.86602539"
     inkscape:connector-curvature="0" /><linearGradient
     id="SVGID_26_"
     gradientUnits="userSpaceOnUse"
     x1="488.73779"
     y1="935.26459"
     x2="485.28159"
     y2="931.80859"
     gradientTransform="matrix(1,0,0,0.75,-0.1797,-656.55759)"><stop
       offset="0"
       style="stop-color:#08406F"
       id="stop177" /><stop
       offset="1"
       style="stop-color:#60C5F5"
       id="stop179" /></linearGradient><path
     d="m 502.958,34.089805 -29.369,22.02525 -3.188,-2.7915 21.399,-16.0485 11.135,-4.05075 c 0,0 0.414,0.2205 0.023,0.8655 z"
     id="path182"
     style="fill:url(#SVGID_26_);stroke-width:0.86602539"
     inkscape:connector-curvature="0" /><linearGradient
     id="SVGID_27_"
     gradientUnits="userSpaceOnUse"
     x1="499.80811"
     y1="979.37701"
     x2="495.84851"
     y2="975.41748"
     gradientTransform="matrix(1,0,0,0.75,-0.1797,-656.55759)"><stop
       offset="0"
       style="stop-color:#08406F"
       id="stop184" /><stop
       offset="1"
       style="stop-color:#60C5F5"
       id="stop186" /></linearGradient><path
     d="m 513.634,67.470057 -28.848,21.48825 -3.258,-3.34875 20.049,-15.03675 12.289,-4.035 c 10e-4,0.002 0.397,0.32625 -0.232,0.93225 z"
     id="path189"
     style="fill:url(#SVGID_27_);stroke-width:0.86602539"
     inkscape:connector-curvature="0" /><linearGradient
     id="SVGID_28_"
     gradientUnits="userSpaceOnUse"
     x1="441.8374"
     y1="921.61328"
     x2="437.55469"
     y2="917.33063"
     gradientTransform="matrix(1,0,0,0.75,-0.1797,-656.55759)"><stop
       offset="0"
       style="stop-color:#08406F"
       id="stop191" /><stop
       offset="1"
       style="stop-color:#60C5F5"
       id="stop193" /></linearGradient><path
     d="M 481.083,5.0828051 404.171,62.767557 c -1.43,1.074 -3.395,1.233 -3.395,1.233 -2.449,-2.319 -0.686,-4.484252 -0.686,-4.484252 L 477.379,1.4363051 Z"
     id="path196"
     style="fill:url(#SVGID_28_);stroke-width:0.86602539"
     inkscape:connector-curvature="0" /><linearGradient
     id="SVGID_29_"
     gradientUnits="userSpaceOnUse"
     x1="486.85889"
     y1="916.64941"
     x2="481.74481"
     y2="911.53528"
     gradientTransform="matrix(1,0,0,0.75,-0.1797,-656.55759)"><stop
       offset="0"
       style="stop-color:#08406F"
       id="stop198" /><stop
       offset="1"
       style="stop-color:#60C5F5"
       id="stop200" /></linearGradient><path
     d="m 492.697,23.478055 -12.676,9.5895 c -2.771,1.7115 -1.801,4.206 -1.801,4.206 -2.25,-0.1575 -3.125,-1.54875 -3.412,-2.77125 -0.285,-1.2225 0.303,-2.5665 1.348,-3.35025 l 14.469,-10.83 z"
     id="path203"
     style="fill:url(#SVGID_29_);stroke-width:0.86602539"
     inkscape:connector-curvature="0" /><linearGradient
     id="SVGID_30_"
     gradientUnits="userSpaceOnUse"
     x1="185.9771"
     y1="992.33008"
     x2="182.33521"
     y2="988.68817"
     gradientTransform="matrix(1,0,0,0.75,-0.1797,-656.55759)"><stop
       offset="0"
       style="stop-color:#08406F"
       id="stop205" /><stop
       offset="1"
       style="stop-color:#60C5F5"
       id="stop207" /></linearGradient><path
     d="m 142.17,114.98706 77.913,-58.457255 c 0,0 1.437,-1.40475 4.267,-1.32825 l -0.456,3.91725 c 0,0 -78.666,58.879505 -79.113,59.211005 z"
     id="path210"
     style="fill:url(#SVGID_30_);stroke-width:0.86602539"
     inkscape:connector-curvature="0" /><linearGradient
     id="SVGID_31_"
     gradientUnits="userSpaceOnUse"
     x1="303.0278"
     y1="969.13959"
     x2="299.3873"
     y2="965.49908"
     gradientTransform="matrix(1,0,0,0.75,-0.1797,-656.55759)"><stop
       offset="0"
       style="stop-color:#08406F"
       id="stop212" /><stop
       offset="1"
       style="stop-color:#60C5F5"
       id="stop214" /></linearGradient><path
     d="m 274.33,86.253057 47.643,-35.744252 c 0,0 1.437,-1.40325 4.267,-1.32825 l -0.857,4.21575 -48.325,36.217502 z"
     id="path217"
     style="fill:url(#SVGID_31_);stroke-width:0.86602539"
     inkscape:connector-curvature="0" /><linearGradient
     id="SVGID_32_"
     gradientUnits="userSpaceOnUse"
     x1="349.88919"
     y1="973.08502"
     x2="346.37991"
     y2="969.57562"
     gradientTransform="matrix(1,0,0,0.75,-0.1797,-656.55759)"><stop
       offset="0"
       style="stop-color:#08406F"
       id="stop219" /><stop
       offset="1"
       style="stop-color:#60C5F5"
       id="stop221" /></linearGradient><path
     d="m 330.125,82.687557 36.779,-27.591752 c 0.842,-0.63225 1.779,-1.32825 3.396,-1.32825 l -0.107,4.12575 -43.081,32.282252 c -0.569,0.42225 -1.019,0.29925 -1.019,0.29925 z"
     id="path224"
     style="fill:url(#SVGID_32_);stroke-width:0.86602539"
     inkscape:connector-curvature="0" /><linearGradient
     id="SVGID_33_"
     gradientUnits="userSpaceOnUse"
     x1="370.8042"
     y1="993.63959"
     x2="366.38129"
     y2="989.21692"
     gradientTransform="matrix(1,0,0,0.75,-0.1797,-656.55759)"><stop
       offset="0"
       style="stop-color:#08406F"
       id="stop226" /><stop
       offset="1"
       style="stop-color:#60C5F5"
       id="stop228" /></linearGradient><path
     d="m 361.984,88.542807 7.25,-5.46075 5.557,1.7445 -0.734,0.78525 -3.813,3.32775 -0.272,0.225 h -7.72 c -0.34,0.0105 -0.521,-0.20325 -0.521,-0.20325 0,0 -0.155,-0.11025 0.253,-0.4185 z"
     id="path231"
     style="fill:url(#SVGID_33_);stroke-width:0.86602539"
     inkscape:connector-curvature="0" /><linearGradient
     id="SVGID_34_"
     gradientUnits="userSpaceOnUse"
     x1="229.457"
     y1="971.76862"
     x2="223.4189"
     y2="971.76862"
     gradientTransform="matrix(1,0,0,0.75,-0.1797,-656.55759)"><stop
       offset="0"
       style="stop-color:#08406F"
       id="stop233" /><stop
       offset="1"
       style="stop-color:#60C5F5"
       id="stop235" /></linearGradient><path
     d="m 223.983,88.003557 -0.09,-28.886252 c 0,0 -1.738,-1.512 0.457,-3.91725 0.673,-0.0075 4.202,0.3585 4.928,3.53025 l -0.001,27.520502 -4.561,3.08625 c 0,0.002 -0.73,-0.35625 -0.733,-1.3335 z"
     id="path238"
     style="fill:url(#SVGID_34_);stroke-width:0.86602539"
     inkscape:connector-curvature="0" /><linearGradient
     id="SVGID_35_"
     gradientUnits="userSpaceOnUse"
     x1="330.3042"
     y1="968.51862"
     x2="325.09229"
     y2="968.51862"
     gradientTransform="matrix(1,0,0,0.75,-0.1797,-656.55759)"><stop
       offset="0"
       style="stop-color:#08406F"
       id="stop240" /><stop
       offset="1"
       style="stop-color:#60C5F5"
       id="stop242" /></linearGradient><path
     d="m 325.449,89.958807 -0.08,-36.562502 c 0,0 -1.472,-2.01075 0.871,-4.21575 0.596,-0.0067 3.243,0.354 3.885,3.5265 v 29.981252 l -4.028,7.7925 c -0.004,-0.002 -0.605,-0.10725 -0.648,-0.522 z"
     id="path245"
     style="fill:url(#SVGID_35_);stroke-width:0.86602539"
     inkscape:connector-curvature="0" /><linearGradient
     id="SVGID_36_"
     gradientUnits="userSpaceOnUse"
     x1="374.97021"
     y1="967.80658"
     x2="368.7251"
     y2="967.80658"
     gradientTransform="matrix(1,0,0,0.75,-0.1797,-656.55759)"><stop
       offset="0"
       style="stop-color:#08406F"
       id="stop247" /><stop
       offset="1"
       style="stop-color:#60C5F5"
       id="stop249" /></linearGradient><path
     d="M 369.234,83.081307 V 58.609555 c 0,0 -2.113,-2.53425 1.064,-4.842 0.693,-0.006 4.132,0.18 4.492,3.24225 v 27.816002 z"
     id="path252"
     style="fill:url(#SVGID_36_);stroke-width:0.86602539"
     inkscape:connector-curvature="0" /><linearGradient
     id="SVGID_37_"
     gradientUnits="userSpaceOnUse"
     x1="440.63721"
     y1="959.6748"
     x2="436.21909"
     y2="955.25677"
     gradientTransform="matrix(1,0,0,0.75,-0.1797,-656.55759)"><stop
       offset="0"
       style="stop-color:#08406F"
       id="stop254" /><stop
       offset="1"
       style="stop-color:#60C5F5"
       id="stop256" /></linearGradient><path
     d="m 448.91,56.115055 -13.451,10.109252 -3.844,3.60675 c -3.896,-1.8435 -1.953,-5.1555 -0.912,-5.94375 l 14.088,-10.559252 z"
     id="path259"
     style="fill:url(#SVGID_37_);stroke-width:0.86602539"
     inkscape:connector-curvature="0" /><linearGradient
     id="SVGID_38_"
     gradientUnits="userSpaceOnUse"
     x1="472.92041"
     y1="969.50983"
     x2="472.92041"
     y2="963.70801"
     gradientTransform="matrix(1,0,0,0.75,-0.1797,-656.55759)"><stop
       offset="0"
       style="stop-color:#08406F"
       id="stop261" /><stop
       offset="1"
       style="stop-color:#60C5F5"
       id="stop263" /></linearGradient><path
     d="m 501.58,70.573557 h -66.391 c -2.502,-0.147 -3.574,-0.744 -3.574,-0.744 -0.012,-2.67825 3.844,-3.60675 3.844,-3.60675 l 77.746,7.5e-4 c 0.543,-7.5e-4 0.662,0.3165 0.662,0.3165 z"
     id="path266"
     style="fill:url(#SVGID_38_);stroke-width:0.86602539"
     inkscape:connector-curvature="0" /><g
     id="g284"
     transform="matrix(1,0,0,0.75,0,5.5069644e-5)"><path
       d="m 0,142.055 v -9.521 h 2.876 l 1.728,6.494 1.708,-6.494 h 2.883 v 9.521 H 7.41 v -7.496 l -1.89,7.496 H 3.669 l -1.883,-7.496 v 7.496 z"
       id="path268"
       inkscape:connector-curvature="0" /><path
       d="m 17.224,132.532 h 1.922 v 5.155 c 0,0.816 0.024,1.35 0.071,1.592 0.083,0.391 0.278,0.701 0.588,0.938 0.31,0.237 0.732,0.354 1.27,0.354 0.545,0 0.957,-0.11 1.234,-0.334 0.277,-0.223 0.443,-0.496 0.5,-0.821 0.056,-0.324 0.084,-0.863 0.084,-1.616 v -5.268 h 1.922 v 5.001 c 0,1.144 -0.052,1.95 -0.155,2.423 -0.104,0.472 -0.296,0.87 -0.575,1.193 -0.279,0.324 -0.652,0.582 -1.12,0.773 -0.468,0.192 -1.078,0.289 -1.832,0.289 -0.909,0 -1.599,-0.104 -2.068,-0.313 -0.47,-0.211 -0.841,-0.482 -1.114,-0.818 -0.273,-0.335 -0.452,-0.688 -0.539,-1.057 -0.125,-0.545 -0.188,-1.353 -0.188,-2.416 z"
       id="path270"
       inkscape:connector-curvature="0" /><path
       d="m 33.025,142.055 v -9.443 h 1.922 v 7.84 h 4.78 v 1.604 h -6.702 z"
       id="path272"
       inkscape:connector-curvature="0" /><path
       d="m 48.385,142.055 v -7.91 H 45.56 v -1.61 h 7.566 v 1.61 h -2.819 v 7.91 z"
       id="path274"
       inkscape:connector-curvature="0" /><path
       d="m 60.438,142.055 v -9.521 h 1.922 v 9.521 z"
       id="path276"
       inkscape:connector-curvature="0" /><path
       d="m 70.324,142.055 v -9.521 h 3.085 c 1.169,0 1.931,0.048 2.286,0.144 0.545,0.146 1.002,0.453 1.37,0.935 0.368,0.479 0.552,1.098 0.552,1.854 0,0.584 -0.106,1.075 -0.318,1.477 -0.212,0.396 -0.482,0.711 -0.809,0.938 -0.327,0.229 -0.659,0.378 -0.997,0.452 -0.459,0.09 -1.124,0.136 -1.994,0.136 h -1.253 v 3.594 z m 1.922,-7.91 v 2.701 h 1.052 c 0.757,0 1.264,-0.053 1.52,-0.15 0.256,-0.098 0.456,-0.254 0.601,-0.467 0.145,-0.213 0.217,-0.459 0.217,-0.74 0,-0.346 -0.102,-0.633 -0.305,-0.856 -0.204,-0.225 -0.461,-0.362 -0.773,-0.422 -0.229,-0.043 -0.691,-0.063 -1.383,-0.063 z"
       id="path278"
       inkscape:connector-curvature="0" /><path
       d="m 85.378,142.055 v -9.443 H 87.3 v 7.84 h 4.78 v 1.604 h -6.702 z"
       id="path280"
       inkscape:connector-curvature="0" /><path
       d="m 99.582,142.055 v -9.521 h 7.059 v 1.609 h -5.137 v 2.108 h 4.78 v 1.604 h -4.78 v 2.592 h 5.319 v 1.604 z"
       id="path282"
       inkscape:connector-curvature="0" /></g><g
     id="g298"
     transform="matrix(1,0,0,0.75,0,5.5069644e-5)"><path
       d="m 189.966,142.055 h -2.091 l -0.831,-2.164 h -3.806 l -0.786,2.164 h -2.039 l 3.708,-9.521 h 2.032 z m -3.539,-3.769 -1.313,-3.532 -1.286,3.532 z"
       id="path286"
       inkscape:connector-curvature="0" /><path
       d="m 197.124,142.055 v -9.521 h 4.046 c 1.018,0 1.757,0.086 2.218,0.258 0.461,0.171 0.83,0.477 1.107,0.912 0.277,0.438 0.416,0.938 0.416,1.5 0,0.714 -0.21,1.304 -0.63,1.771 -0.419,0.465 -1.047,0.758 -1.883,0.879 0.416,0.242 0.758,0.51 1.029,0.799 0.271,0.291 0.635,0.808 1.094,1.548 l 1.162,1.856 h -2.299 l -1.39,-2.072 c -0.493,-0.739 -0.832,-1.207 -1.013,-1.398 -0.181,-0.189 -0.375,-0.322 -0.578,-0.396 -0.203,-0.069 -0.526,-0.104 -0.968,-0.104 h -0.389 v 3.978 h -1.922 z m 1.922,-5.496 h 1.422 c 0.922,0 1.498,-0.037 1.727,-0.115 0.23,-0.077 0.409,-0.213 0.539,-0.402 0.13,-0.188 0.195,-0.43 0.195,-0.714 0,-0.32 -0.085,-0.579 -0.256,-0.776 -0.171,-0.193 -0.412,-0.318 -0.724,-0.371 -0.156,-0.021 -0.623,-0.031 -1.403,-0.031 h -1.5 z"
       id="path288"
       inkscape:connector-curvature="0" /><path
       d="m 218.945,138.552 1.864,0.593 c -0.286,1.041 -0.761,1.813 -1.425,2.313 -0.664,0.504 -1.508,0.757 -2.53,0.757 -1.264,0 -2.303,-0.433 -3.117,-1.296 -0.814,-0.86 -1.221,-2.044 -1.221,-3.542 0,-1.585 0.409,-2.813 1.228,-3.689 0.818,-0.877 1.894,-1.313 3.228,-1.313 1.165,0 2.11,0.344 2.838,1.03 0.433,0.406 0.757,0.992 0.974,1.755 l -1.903,0.452 c -0.113,-0.491 -0.347,-0.881 -0.705,-1.168 -0.358,-0.284 -0.791,-0.428 -1.302,-0.428 -0.706,0 -1.278,0.252 -1.718,0.76 -0.44,0.507 -0.66,1.326 -0.66,2.461 0,1.203 0.217,2.062 0.65,2.572 0.433,0.51 0.996,0.767 1.688,0.767 0.511,0 0.95,-0.162 1.318,-0.486 0.369,-0.33 0.633,-0.84 0.793,-1.538 z"
       id="path290"
       inkscape:connector-curvature="0" /><path
       d="m 237.175,142.055 h -2.091 l -0.832,-2.164 h -3.806 l -0.786,2.164 h -2.039 l 3.708,-9.521 h 2.033 z m -3.539,-3.769 -1.313,-3.532 -1.286,3.532 z"
       id="path292"
       inkscape:connector-curvature="0" /><path
       d="m 244.32,132.532 h 3.514 c 0.792,0 1.396,0.062 1.812,0.183 0.559,0.165 1.037,0.457 1.435,0.877 0.398,0.419 0.702,0.936 0.91,1.542 0.208,0.608 0.312,1.358 0.312,2.251 0,0.782 -0.098,1.458 -0.292,2.025 -0.238,0.691 -0.578,1.254 -1.02,1.682 -0.333,0.325 -0.784,0.578 -1.351,0.762 -0.424,0.136 -0.991,0.203 -1.701,0.203 h -3.617 v -9.521 z m 1.922,1.613 v 6.307 h 1.435 c 0.537,0 0.924,-0.03 1.163,-0.092 0.312,-0.077 0.57,-0.211 0.776,-0.396 0.206,-0.188 0.374,-0.49 0.503,-0.92 0.13,-0.426 0.195,-1.007 0.195,-1.743 0,-0.733 -0.065,-1.301 -0.195,-1.692 -0.13,-0.396 -0.312,-0.701 -0.545,-0.924 -0.234,-0.223 -0.53,-0.369 -0.89,-0.447 -0.269,-0.063 -0.795,-0.09 -1.578,-0.09 z"
       id="path294"
       inkscape:connector-curvature="0" /><path
       d="m 260.063,142.055 v -9.521 h 7.059 v 1.609 h -5.137 v 2.108 h 4.78 v 1.604 h -4.78 v 2.592 h 5.319 v 1.604 z"
       id="path296"
       inkscape:connector-curvature="0" /></g><g
     id="g314"
     transform="matrix(1,0,0,0.75,0,5.5069644e-5)"><path
       d="m 283.18,142.055 v -9.521 h 2.877 l 1.729,6.494 1.707,-6.494 h 2.883 v 9.521 h -1.785 v -7.496 l -1.891,7.496 h -1.854 l -1.887,-7.496 v 7.496 z"
       id="path300"
       inkscape:connector-curvature="0" /><path
       d="m 309.001,142.055 h -2.09 l -0.832,-2.164 h -3.809 l -0.782,2.164 h -2.04 l 3.709,-9.521 h 2.029 z m -3.539,-3.769 -1.313,-3.532 -1.286,3.532 z"
       id="path302"
       inkscape:connector-curvature="0" /><path
       d="m 322.246,138.552 1.863,0.593 c -0.285,1.041 -0.761,1.813 -1.425,2.313 -0.665,0.505 -1.509,0.757 -2.53,0.757 -1.264,0 -2.303,-0.433 -3.115,-1.296 -0.813,-0.86 -1.223,-2.044 -1.223,-3.542 0,-1.585 0.409,-2.813 1.229,-3.689 0.818,-0.877 1.896,-1.313 3.229,-1.313 1.165,0 2.108,0.344 2.839,1.03 0.434,0.406 0.76,0.992 0.977,1.755 l -1.902,0.452 c -0.111,-0.491 -0.35,-0.881 -0.704,-1.168 -0.356,-0.284 -0.791,-0.428 -1.303,-0.428 -0.705,0 -1.277,0.252 -1.718,0.76 -0.439,0.507 -0.66,1.326 -0.66,2.461 0,1.203 0.218,2.062 0.648,2.572 0.434,0.51 0.994,0.767 1.688,0.767 0.51,0 0.946,-0.162 1.313,-0.486 0.369,-0.33 0.633,-0.84 0.794,-1.538 z"
       id="path304"
       inkscape:connector-curvature="0" /><path
       d="m 331.897,142.055 v -9.521 h 1.923 v 3.748 h 3.766 v -3.748 h 1.924 v 9.521 h -1.924 v -4.164 h -3.766 v 4.164 z"
       id="path306"
       inkscape:connector-curvature="0" /><path
       d="m 347.569,142.055 v -9.521 h 1.923 v 9.521 z"
       id="path308"
       inkscape:connector-curvature="0" /><path
       d="m 357.472,142.055 v -9.521 h 1.871 l 3.896,6.357 v -6.357 h 1.786 v 9.521 h -1.929 l -3.839,-6.209 v 6.209 z"
       id="path310"
       inkscape:connector-curvature="0" /><path
       d="m 373.19,142.055 v -9.521 h 7.06 v 1.609 h -5.138 v 2.108 h 4.78 v 1.604 h -4.78 v 2.592 h 5.319 v 1.604 z"
       id="path312"
       inkscape:connector-curvature="0" /></g><g
     id="g332"
     transform="matrix(1,0,0,0.75,0,5.5069644e-5)"><path
       d="m 397.091,142.055 v -9.521 h 7.06 v 1.609 h -5.137 v 2.108 h 4.78 v 1.604 h -4.78 v 2.592 h 5.319 v 1.604 z"
       id="path316"
       inkscape:connector-curvature="0" /><path
       d="m 412.069,142.055 v -9.521 h 2.877 l 1.728,6.494 1.709,-6.494 h 2.883 v 9.521 h -1.783 v -7.496 l -1.893,7.496 h -1.852 l -1.884,-7.496 v 7.496 z"
       id="path318"
       inkscape:connector-curvature="0" /><path
       d="m 429.292,132.532 h 1.922 v 5.155 c 0,0.816 0.023,1.35 0.07,1.592 0.082,0.391 0.273,0.701 0.588,0.938 0.311,0.236 0.729,0.354 1.27,0.354 0.547,0 0.957,-0.11 1.234,-0.334 0.277,-0.223 0.443,-0.496 0.5,-0.821 0.057,-0.324 0.084,-0.863 0.084,-1.616 v -5.268 h 1.924 v 5.001 c 0,1.144 -0.053,1.95 -0.156,2.423 -0.104,0.472 -0.297,0.87 -0.574,1.193 -0.279,0.324 -0.652,0.582 -1.121,0.773 -0.467,0.192 -1.078,0.289 -1.83,0.289 -0.91,0 -1.6,-0.104 -2.068,-0.313 -0.471,-0.211 -0.842,-0.482 -1.109,-0.818 -0.271,-0.335 -0.451,-0.688 -0.537,-1.057 -0.127,-0.545 -0.189,-1.353 -0.189,-2.416 v -5.077 z"
       id="path320"
       inkscape:connector-curvature="0" /><path
       d="m 445.093,142.055 v -9.443 h 1.922 v 7.84 h 4.781 v 1.604 h -6.703 z"
       id="path322"
       inkscape:connector-curvature="0" /><path
       d="m 467.882,142.055 h -2.092 l -0.83,-2.164 h -3.807 l -0.785,2.164 h -2.039 l 3.707,-9.521 h 2.033 z m -3.539,-3.769 -1.313,-3.532 -1.285,3.532 z"
       id="path324"
       inkscape:connector-curvature="0" /><path
       d="m 476.191,142.055 v -7.91 h -2.826 v -1.61 h 7.564 v 1.61 h -2.816 v 7.91 z"
       id="path326"
       inkscape:connector-curvature="0" /><path
       d="m 487.671,137.352 c 0,-0.972 0.146,-1.783 0.438,-2.44 0.215,-0.484 0.51,-0.92 0.885,-1.308 0.375,-0.387 0.785,-0.67 1.23,-0.854 0.594,-0.251 1.277,-0.376 2.053,-0.376 1.402,0 2.525,0.438 3.367,1.305 0.842,0.87 1.264,2.081 1.264,3.633 0,1.535 -0.418,2.737 -1.254,3.605 -0.836,0.867 -1.953,1.302 -3.352,1.302 -1.416,0 -2.541,-0.433 -3.377,-1.296 -0.836,-0.863 -1.254,-2.057 -1.254,-3.571 z m 1.983,-0.066 c 0,1.078 0.248,1.896 0.746,2.45 0.498,0.558 1.131,0.834 1.896,0.834 0.768,0 1.396,-0.273 1.887,-0.825 0.492,-0.554 0.736,-1.381 0.736,-2.485 0,-1.09 -0.238,-1.902 -0.717,-2.439 -0.48,-0.535 -1.113,-0.805 -1.906,-0.805 -0.793,0 -1.43,0.271 -1.916,0.813 -0.486,0.542 -0.726,1.362 -0.726,2.457 z"
       id="path328"
       inkscape:connector-curvature="0" /><path
       d="m 504.544,142.055 v -9.521 h 4.047 c 1.018,0 1.756,0.086 2.217,0.258 0.461,0.171 0.83,0.477 1.107,0.912 0.277,0.438 0.416,0.938 0.416,1.5 0,0.714 -0.211,1.304 -0.631,1.771 -0.42,0.465 -1.047,0.758 -1.883,0.879 0.416,0.242 0.76,0.51 1.021,0.799 0.271,0.291 0.645,0.808 1.102,1.548 l 1.156,1.856 H 510.8 l -1.391,-2.072 c -0.492,-0.739 -0.83,-1.207 -1.012,-1.398 -0.186,-0.189 -0.375,-0.322 -0.578,-0.396 -0.203,-0.069 -0.525,-0.104 -0.971,-0.104 h -0.391 v 3.978 h -1.92 v -0.006 h 0.004 v -0.002 h 0.003 z m 1.922,-5.496 h 1.424 c 0.922,0 1.498,-0.037 1.727,-0.115 0.23,-0.077 0.41,-0.213 0.541,-0.402 0.129,-0.188 0.193,-0.43 0.193,-0.714 0,-0.32 -0.086,-0.579 -0.258,-0.776 -0.17,-0.193 -0.41,-0.318 -0.723,-0.371 -0.156,-0.021 -0.623,-0.031 -1.402,-0.031 h -1.502 z"
       id="path330"
       inkscape:connector-curvature="0" /></g></svg>