<?xml version="1.0" encoding="UTF-8" standalone="no"?>
<!-- Generator: Adobe Illustrator 13.0.0, SVG Export Plug-In . SVG Version: 6.00 Build 14948)  -->

<svg
   xmlns:ns="&amp;#38;ns_sfw;"
   xmlns:dc="http://purl.org/dc/elements/1.1/"
   xmlns:cc="http://creativecommons.org/ns#"
   xmlns:rdf="http://www.w3.org/1999/02/22-rdf-syntax-ns#"
   xmlns:svg="http://www.w3.org/2000/svg"
   xmlns="http://www.w3.org/2000/svg"
   xmlns:sodipodi="http://sodipodi.sourceforge.net/DTD/sodipodi-0.dtd"
   xmlns:inkscape="http://www.inkscape.org/namespaces/inkscape"
   version="1.2"
   id="Layer_3"
   x="0px"
   y="0px"
   width="537.08197"
   height="241.5022"
   viewBox="0 0 537.08195 241.50219"
   xml:space="preserve"
   inkscape:version="0.92.2 (5c3e80d, 2017-08-06)"
   sodipodi:docname="controller.svg"><defs
     id="defs124" /><sodipodi:namedview
     pagecolor="#ffffff"
     bordercolor="#666666"
     borderopacity="1"
     objecttolerance="10"
     gridtolerance="10"
     guidetolerance="10"
     inkscape:pageopacity="0"
     inkscape:pageshadow="2"
     inkscape:window-width="1920"
     inkscape:window-height="1017"
     id="namedview122"
     showgrid="false"
     fit-margin-top="0"
     fit-margin-left="0"
     fit-margin-right="0"
     fit-margin-bottom="0"
     inkscape:zoom="0.48145317"
     inkscape:cx="269.33251"
     inkscape:cy="161.00101"
     inkscape:window-x="-8"
     inkscape:window-y="-8"
     inkscape:window-maximized="1"
     inkscape:current-layer="Layer_3" /><metadata
     id="metadata55"><rdf:RDF><cc:Work
         rdf:about=""><dc:format>image/svg+xml</dc:format><dc:type
           rdf:resource="http://purl.org/dc/dcmitype/StillImage" /><dc:title></dc:title></cc:Work></rdf:RDF><ns:sfw><ns:slices /><ns:sliceSourceBounds
         x="-7231"
         y="-7652"
         width="16383"
         height="16383"
         bottomLeftOrigin="true" /></ns:sfw></metadata><path
     d="m 226.082,241.49995 c -53.157,0 -101.513,-1.935 -137.833,-4.16175 v 0 c -36.362,-2.23425 -60.511,-4.72275 -65.752,-5.928 v 0 l -0.044,-0.0105 -0.036,-0.012 C 9.268,227.36845 0,217.68295 0,206.3737 v 0 -195.873 C 0.002,7.50295 2.604,4.9612 6.209,4.0822 v 0 L 6.243,4.0725 6.273,4.068 C 8.325,3.6825 19.125,2.6925 31.858,1.76175 v 0 C 44.557,0.83775 59.008,0.0015 67.999,0 v 0 h 401.082 c 8.991,0.0015 23.442,0.83775 36.143,1.76175 v 0 c 12.731,0.93 23.532,1.92075 25.647,2.3205 v 0 c 3.607,0.879 6.209,3.4215 6.211,6.4185 v 0 195.87525 c -0.002,11.3085 -9.267,20.9925 -22.418,25.014 v 0 l -0.049,0.015 -0.032,0.007 c -5.241,1.20525 -29.391,3.6945 -65.752,5.928 v 0 c -36.319,2.2272 -84.674,4.1622 -137.831,4.1622 v 0 -0.75 -0.75 c 53.092,0 101.398,-1.9335 137.669,-4.15725 v 0 c 36.125,-2.2065 60.455,-4.7385 65.279,-5.856 v 0 c 12.398,-3.80625 21.134,-12.9435 21.132,-23.61225 v 0 -195.876 c 0.002,-2.33175 -2.025,-4.308 -4.766,-4.9785 v 0 C 528.679,5.20045 517.658,4.16995 505.029,3.2542 v 0 C 492.368,2.33245 477.924,1.5007 469.081,1.5007 v 0 H 67.999 c -8.842,0 -23.287,0.831 -35.948,1.7535 v 0 C 19.489,4.1647 8.518,5.18995 6.792,5.51695 v 0 C 4.008,6.20995 1.998,8.17945 2,10.5007 v 0 195.87525 c -0.002,10.6695 8.735,19.806 21.132,23.6115 v 0 c 4.826,1.116 29.159,3.648 65.279,5.85675 v 0 c 36.271,2.22375 84.578,4.15575 137.671,4.15575 v 0 h 84.917 v 0.7515 0.75 h -84.917 z"
     id="path4"
     inkscape:connector-curvature="0"
     style="fill:#f4f4f4;stroke-width:0.86602539" /><path
     d="m 147.507,195.23545 c -2.873,-0.12525 -4.542,-0.20625 -5.156,-0.3015 v 0 c -2.314,-0.3285 -4.059,-1.8525 -4.062,-3.684 v 0 -179.2485 c 0,-2.073 2.237,-3.75 5.001,-3.75 v 0 h 250.5 c 2.762,0 4.998,1.67775 4.998,3.75 v 0 l 0.002,179.2485 c -0.004,1.7505 -1.596,3.21975 -3.76,3.636 v 0 l -10e-4,-0.002 10e-4,0.002 -10e-4,-0.002 c -0.41,0.081 -0.767,0.087 -1.558,0.1425 v 0 c -0.805,0.048 -1.911,0.10275 -3.299,0.15975 v 0 c -2.77,0.1185 -6.645,0.2565 -11.341,0.40875 v 0 c -9.39,0.3045 -22.056,0.65775 -35.684,0.996 v 0 c -27.254,0.675 -58.332,1.28475 -74.692,1.28625 v 0 c -29.208,-10e-4 -101.102,-1.806 -120.948,-2.6415 z m -7.218,-183.234 0.002,179.2485 c -0.004,1.09875 1.051,2.0145 2.465,2.21625 v 0 c 0.207,0.0428 2.072,0.15975 4.861,0.2715 v 0 c 2.822,0.11925 6.714,0.25875 11.391,0.4095 v 0 c 9.356,0.3 21.862,0.648 35.302,0.97875 v 0 c 26.879,0.66225 57.508,1.251 74.147,1.251 v 0 c 16.052,0 46.419,-0.59025 73.348,-1.254 v 0 c 26.882,-0.65775 50.531,-1.40625 52.655,-1.6785 v 0 l 0.001,0.004 0.03,-0.008 0.044,-0.009 c 1.293,-0.249 2.256,-1.131 2.254,-2.181 v 0 -179.2485 c -0.004,-1.242 -1.345,-2.2485 -2.999,-2.25075 v 0 h -250.5 c -1.656,0.0023 -2.996,1.0095 -3.001,2.25075 z"
     id="path6"
     inkscape:connector-curvature="0"
     style="fill:#f4f4f4;stroke-width:0.86602539" /><path
     d="m 159.541,179.24995 c -1.104,0 -2.001,-0.67125 -2.001,-1.4985 v 0 -154.5015 c 0,-0.828 0.894,-1.49925 2.001,-1.49925 v 0 H 377.54 c 1.104,0 1.998,0.6705 1.998,1.49925 v 0 154.5015 c 0,0.828 -0.894,1.4985 -1.998,1.4985 v 0 z m 0,-1.4985 H 377.54 V 23.24995 H 159.541 Z"
     id="path8"
     inkscape:connector-curvature="0"
     style="fill:#f4f4f4;stroke-width:0.86602539" /><g
     id="g10"
     transform="matrix(1,0,0,0.75,-29.762,-10.59605)"><path
       d="m 67.262,66.962 c -7.181,0 -13.001,-5.82 -13.001,-12.999 v 0 c 0,-7.181 5.82,-13 13.001,-13 v 0 h 23.165 c 5.87,0.002 10.83,3.887 12.446,9.23 v 0 c 10e-4,0.003 0.003,0.006 0.005,0.01 v 0 c 0.024,0.041 0.063,0.101 0.107,0.148 v 0 c 0.1,0.109 0.138,0.114 0.15,0.112 v 0 h 19.376 c 0.396,-0.021 0.357,-0.14 0.438,-0.236 v 0 l 0.001,0.001 0.013,-0.054 0.024,-0.061 c 1.536,-3.896 5.333,-6.649 9.772,-6.652 v 0 c 5.799,0.002 10.499,4.702 10.499,10.501 v 0 c 0,5.797 -4.699,10.499 -10.499,10.499 v 0 c -4.459,-0.002 -8.269,-2.778 -9.792,-6.702 v 0 c -0.026,-0.038 -0.072,-0.092 -0.125,-0.142 v 0 c -0.118,-0.106 -0.215,-0.156 -0.333,-0.156 v 0 h -19.373 c -0.083,0 -0.143,0.003 -0.187,0.008 v 0 c -1.531,5.479 -6.558,9.49 -12.522,9.493 v 0 z m -11,-12.999 c 0.01,6.075 4.925,10.988 11,10.998 v 0 h 23.165 c 5.095,0.002 9.381,-3.464 10.631,-8.161 v 0 l 0.021,-0.071 0.028,-0.067 c 0.077,-0.181 0.251,-0.572 0.657,-0.848 v 0 c 0.402,-0.272 0.863,-0.351 1.372,-0.351 v 0 h 19.376 c 1.599,0.065 2.173,1.301 2.234,1.37 v 0 l -0.876,0.479 0.876,-0.479 0.034,0.063 0.024,0.063 c 1.211,3.214 4.316,5.505 7.957,5.503 v 0 c 4.695,-0.008 8.492,-3.805 8.5,-8.498 v 0 c -0.008,-4.695 -3.805,-8.492 -8.5,-8.5 v 0 c -3.581,-0.002 -6.646,2.216 -7.897,5.352 v 0 c -0.049,0.158 -0.166,0.464 -0.443,0.801 v 0 c -0.343,0.428 -1.037,0.86 -1.908,0.846 v 0 h -19.376 c -0.8,-0.002 -1.36,-0.448 -1.654,-0.79 v 0 c -0.307,-0.353 -0.435,-0.659 -0.463,-0.718 v 0 l -0.022,-0.053 -0.016,-0.057 c -1.345,-4.554 -5.56,-7.883 -10.554,-7.881 v 0 H 67.262 c -6.075,0.01 -10.99,4.925 -11,10.999 z"
       id="path12"
       inkscape:connector-curvature="0"
       style="fill:#f4f4f4" /></g><path
     d="m 37.53,35.6647 v -0.7485 -0.75075 h 23.563 c 3.158,-0.003 5.712,-1.91925 5.719,-4.28925 v 0 c -0.006,-2.36775 -2.561,-4.284 -5.719,-4.2885 v 0 H 37.53 c -3.158,0.005 -5.712,1.92075 -5.719,4.2885 v 0 c 0.006,2.37 2.561,4.2855 5.719,4.28925 v 0 0.75075 0.7485 c -4.263,0 -7.718,-2.5905 -7.718,-5.7885 v 0 c 0,-3.1965 3.456,-5.7885 7.718,-5.7885 v 0 h 23.563 c 4.263,0 7.718,2.592 7.718,5.7885 v 0 c 0,3.19875 -3.456,5.7885 -7.718,5.7885 v 0 z"
     id="path14"
     inkscape:connector-curvature="0"
     style="fill:#f4f4f4;stroke-width:0.86602539" /><ellipse
     cx="103.031"
     cy="29.8762"
     id="circle16"
     style="fill:#f4f4f4;stroke-width:0.86602539"
     rx="6.2810001"
     ry="4.7107501" /><path
     d="m 28.218,93.0007 c 0,-21.8505 23.617,-39.56175 52.75,-39.5625 v 0 c 29.132,10e-4 52.749,17.71275 52.75,39.5625 v 0 c -0.002,21.8505 -23.619,39.56175 -52.75,39.5625 v 0 c -29.133,-7.5e-4 -52.75,-17.712 -52.75,-39.5625 z M 45.083,66.0877 C 35.896,72.97795 30.218,82.48795 30.218,93.00145 v 0 c 0,10.5135 5.678,20.025 14.865,26.91375 v 0 c 9.187,6.8895 21.867,11.14725 35.885,11.14725 v 0 c 14.016,0 26.699,-4.26 35.885,-11.14725 v 0 c 9.185,-6.891 14.863,-16.40025 14.865,-26.91375 v 0 C 131.716,82.48795 126.038,72.9772 116.853,66.0877 v 0 C 107.665,59.19745 94.984,54.93895 80.968,54.93895 v 0 C 66.95,54.9382 54.27,59.19745 45.083,66.0877 Z"
     id="path18"
     inkscape:connector-curvature="0"
     style="fill:#f4f4f4;stroke-width:0.86602539" /><polyline
     points="106.824,94.504 106.824,88.254 114.699,88.254 114.699,94.504 "
     id="polyline20"
     style="fill:#f4f4f4"
     transform="matrix(1,0,0,0.75,-29.762,-10.59605)" /><polyline
     points="67.137,142.067 60.887,142.067 60.887,134.192 67.137,134.192 "
     id="polyline22"
     style="fill:#f4f4f4"
     transform="matrix(1,0,0,0.75,-29.762,-10.59605)" /><polyline
     points="114.699,181.755 114.699,188.005 106.824,188.005 106.824,181.755 "
     id="polyline24"
     style="fill:#f4f4f4"
     transform="matrix(1,0,0,0.75,-29.762,-10.59605)" /><polyline
     points="154.387,134.192 160.637,134.192 160.637,142.067 154.387,142.067 "
     id="polyline26"
     style="fill:#f4f4f4"
     transform="matrix(1,0,0,0.75,-29.762,-10.59605)" /><polyline
     points="78.434,108.939 74.014,104.521 77.108,101.426 81.527,105.846 "
     id="polyline28"
     style="fill:#f4f4f4"
     transform="matrix(1,0,0,0.75,-29.762,-10.59605)" /><polyline
     points="81.541,170.427 77.121,174.847 74.027,171.753 78.447,167.333 "
     id="polyline30"
     style="fill:#f4f4f4"
     transform="matrix(1,0,0,0.75,-29.762,-10.59605)" /><polyline
     points="143.027,167.319 147.447,171.739 144.353,174.833 139.934,170.413 "
     id="polyline32"
     style="fill:#f4f4f4"
     transform="matrix(1,0,0,0.75,-29.762,-10.59605)" /><polyline
     points="139.92,105.833 144.34,101.414 147.434,104.507 143.014,108.926 "
     id="polyline34"
     style="fill:#f4f4f4"
     transform="matrix(1,0,0,0.75,-29.762,-10.59605)" /><path
     d="M 36.592,93.0007 C 36.594,74.61895 56.46,59.7202 80.968,59.7187 v 0 c 24.506,0.001 44.374,14.90025 44.375,33.282 v 0 c -0.002,18.3795 -19.869,33.2805 -44.375,33.28125 v 0 C 56.46,126.2812 36.595,111.38095 36.592,93.0007 Z M 51.004,70.52845 C 43.336,76.2832 38.593,84.22345 38.593,93.0022 v 0 c 0,8.77875 4.742,16.719 12.411,22.4715 v 0 c 7.673,5.7525 18.26,9.3075 29.965,9.3075 v 0 c 11.705,0 22.292,-3.555 29.962,-9.3075 v 0 c 7.671,-5.75325 12.411,-13.6935 12.413,-22.4715 v 0 c -0.002,-8.77875 -4.742,-16.719 -12.413,-22.47375 v 0 C 103.26,64.77745 92.673,61.2202 80.969,61.2202 v 0 c -11.705,-7.5e-4 -22.293,3.5565 -29.965,9.30825 z"
     id="path36"
     inkscape:connector-curvature="0"
     style="fill:#f4f4f4;stroke-width:0.86602539" /><path
     d="m 48.594,92.99995 c 0,-13.41 14.493,-24.28125 32.375,-24.28125 v 0 c 17.88,0 32.375,10.87125 32.375,24.28125 v 0 c 0,13.41075 -14.495,24.28125 -32.375,24.28125 v 0 c -17.882,0 -32.375,-10.86975 -32.375,-24.28125 z m 1.999,0 c 0.031,12.582 13.599,22.7595 30.375,22.78125 v 0 c 16.776,-0.021 30.344,-10.19925 30.375,-22.78125 v 0 C 111.312,80.41945 97.744,70.24195 80.968,70.2187 v 0 C 64.193,70.2427 50.624,80.41945 50.593,92.99995 Z"
     id="path38"
     inkscape:connector-curvature="0"
     style="fill:#f4f4f4;stroke-width:0.86602539" /><path
     d="m 62.155,93.0007 c 0,-7.7925 8.422,-14.109 18.812,-14.109 v 0 c 10.39,0 18.813,6.3165 18.813,14.109 v 0 c 0,7.7925 -8.422,14.10825 -18.813,14.10975 v 0 C 70.578,107.10895 62.155,100.7947 62.155,93.0007 Z m 2.001,0 c 0.016,6.963 7.528,12.59625 16.812,12.609 v 0 c 9.286,-0.0128 16.796,-5.646 16.814,-12.609 v 0 C 97.764,86.0362 90.254,80.40445 80.968,80.3902 v 0 c -9.284,0.0143 -16.796,5.646 -16.812,12.6105 z"
     id="path40"
     inkscape:connector-curvature="0"
     style="fill:#f4f4f4;stroke-width:0.86602539" /><g
     id="g42"
     transform="matrix(1,0,0,0.75,-29.762,-10.59605)"><circle
       cx="91.595001"
       cy="233.963"
       r="2.8329999"
       id="circle44"
       style="fill:#f4f4f4" /><circle
       cx="101.303"
       cy="233.963"
       r="2.8329999"
       id="circle46"
       style="fill:#f4f4f4" /><circle
       cx="111.011"
       cy="233.963"
       r="2.8329999"
       id="circle48"
       style="fill:#f4f4f4" /><circle
       cx="120.72"
       cy="233.963"
       r="2.8329999"
       id="circle50"
       style="fill:#f4f4f4" /><circle
       cx="130.42799"
       cy="233.963"
       r="2.8329999"
       id="circle52"
       style="fill:#f4f4f4" /></g><g
     id="g54"
     transform="matrix(1,0,0,0.75,-29.762,-10.59605)"><circle
       cx="91.595001"
       cy="243.742"
       r="2.8329999"
       id="circle56"
       style="fill:#f4f4f4" /><circle
       cx="101.303"
       cy="243.742"
       r="2.8329999"
       id="circle58"
       style="fill:#f4f4f4" /><circle
       cx="111.011"
       cy="243.742"
       r="2.8329999"
       id="circle60"
       style="fill:#f4f4f4" /><circle
       cx="120.72"
       cy="243.742"
       r="2.8329999"
       id="circle62"
       style="fill:#f4f4f4" /><circle
       cx="130.42799"
       cy="243.742"
       r="2.8329999"
       id="circle64"
       style="fill:#f4f4f4" /></g><g
     id="g66"
     transform="matrix(1,0,0,0.75,-29.762,-10.59605)"><circle
       cx="91.595001"
       cy="253.52"
       r="2.8329999"
       id="circle68"
       style="fill:#f4f4f4" /><circle
       cx="101.303"
       cy="253.52"
       r="2.8329999"
       id="circle70"
       style="fill:#f4f4f4" /><circle
       cx="111.011"
       cy="253.52"
       r="2.8329999"
       id="circle72"
       style="fill:#f4f4f4" /><circle
       cx="120.72"
       cy="253.52"
       r="2.8329999"
       id="circle74"
       style="fill:#f4f4f4" /><circle
       cx="130.42799"
       cy="253.52"
       r="2.8329999"
       id="circle76"
       style="fill:#f4f4f4" /></g><g
     id="g78"
     transform="matrix(1,0,0,0.75,-29.762,-10.59605)"><circle
       cx="91.595001"
       cy="263.297"
       r="2.8329999"
       id="circle80"
       style="fill:#f4f4f4" /><circle
       cx="101.303"
       cy="263.297"
       r="2.8329999"
       id="circle82"
       style="fill:#f4f4f4" /><circle
       cx="111.011"
       cy="263.297"
       r="2.8329999"
       id="circle84"
       style="fill:#f4f4f4" /><circle
       cx="120.72"
       cy="263.297"
       r="2.8329999"
       id="circle86"
       style="fill:#f4f4f4" /><circle
       cx="130.42799"
       cy="263.297"
       r="2.8329999"
       id="circle88"
       style="fill:#f4f4f4" /></g><g
     id="g90"
     transform="matrix(1,0,0,0.75,-29.762,-10.59605)"><circle
       cx="462.26199"
       cy="215.297"
       r="4.1669998"
       id="circle92"
       style="fill:#f4f4f4" /><circle
       cx="462.26199"
       cy="255.047"
       r="4.1669998"
       id="circle94"
       style="fill:#f4f4f4" /><circle
       cx="462.26199"
       cy="294.797"
       r="4.1669998"
       id="circle96"
       style="fill:#f4f4f4" /></g><g
     id="g98"
     transform="matrix(1,0,0,0.75,-29.762,-10.59605)"><circle
       cx="497.595"
       cy="211.465"
       r="4.1669998"
       id="circle100"
       style="fill:#f4f4f4" /><circle
       cx="497.595"
       cy="251.215"
       r="4.1669998"
       id="circle102"
       style="fill:#f4f4f4" /><circle
       cx="497.595"
       cy="290.965"
       r="4.1669998"
       id="circle104"
       style="fill:#f4f4f4" /></g><g
     id="g106"
     transform="matrix(1,0,0,0.75,-29.762,-10.59605)"><circle
       cx="532.92798"
       cy="207.797"
       r="4.1669998"
       id="circle108"
       style="fill:#f4f4f4" /><circle
       cx="532.92798"
       cy="247.547"
       r="4.1669998"
       id="circle110"
       style="fill:#f4f4f4" /><circle
       cx="532.92798"
       cy="287.297"
       r="4.1669998"
       id="circle112"
       style="fill:#f4f4f4" /></g><path
     d="M 419.498,106.5937 C 419.5,97.2742 429.572,89.7187 442,89.7187 v 0 c 12.426,0 22.498,7.5555 22.5,16.875 v 0 c -0.002,9.31875 -10.074,16.875 -22.5,16.875 v 0 c -12.428,0 -22.5,-7.554 -22.502,-16.875 z m 2.002,0 c 0.021,8.493 9.179,15.36 20.5,15.375 v 0 c 11.321,-0.015 20.479,-6.882 20.498,-15.375 v 0 C 462.479,98.1037 453.321,91.23445 442,91.2187 v 0 c -11.323,0.0165 -20.481,6.88575 -20.5,15.375 z"
     id="path114"
     inkscape:connector-curvature="0"
     style="fill:#f4f4f4;stroke-width:0.86602539" /><path
     d="m 474.373,78.18745 c 0.002,-9.3195 10.074,-16.87425 22.501,-16.87425 v 0 c 12.427,0 22.499,7.554 22.501,16.87425 v 0 C 519.373,87.5077 509.301,95.0617 496.874,95.0632 v 0 c -12.427,-10e-4 -22.499,-7.55475 -22.501,-16.87575 z m 2,0 c 0.021,8.49225 9.18,15.35925 20.501,15.375 v 0 c 11.322,-0.0157 20.479,-6.8835 20.501,-15.375 v 0 c -0.021,-8.49 -9.179,-15.35925 -20.501,-15.3735 v 0 c -11.323,0.0143 -20.48,6.88425 -20.501,15.3735 z"
     id="path116"
     inkscape:connector-curvature="0"
     style="fill:#f4f4f4;stroke-width:0.86602539" /><path
     d="m 484.874,29.0632 c 0,-6.369 6.886,-11.5305 15.376,-11.532 v 0 c 8.49,0.0015 15.374,5.163 15.374,11.532 v 0 c 0,6.369 -6.884,11.5305 -15.374,11.532 v 0 c -8.492,-0.002 -15.376,-5.16225 -15.376,-11.532 z m 2,0 c 0.013,5.5395 5.988,10.0215 13.376,10.03125 v 0 c 7.387,-0.01 13.361,-4.491 13.374,-10.03125 v 0 C 513.611,23.5237 507.637,19.04245 500.25,19.0327 v 0 c -7.388,0.0105 -13.364,4.49175 -13.376,10.0305 z"
     id="path118"
     inkscape:connector-curvature="0"
     style="fill:#f4f4f4;stroke-width:0.86602539" /><path
     d="m 490.124,29.06395 c 0,-4.19475 4.535,-7.59375 10.125,-7.59375 v 0 c 5.591,0 10.125,3.399 10.125,7.59375 v 0 c 0,4.19325 -4.534,7.59225 -10.125,7.59225 v 0 c -5.59,0 -10.125,-3.399 -10.125,-7.59225 z m 1.999,0 c 0.01,3.3645 3.639,6.087 8.126,6.09375 v 0 c 4.486,-0.006 8.116,-2.72925 8.125,-6.09375 v 0 c -0.009,-3.366 -3.639,-6.0885 -8.125,-6.0945 v 0 c -4.488,0.006 -8.116,2.72925 -8.126,6.0945 z"
     id="path120"
     inkscape:connector-curvature="0"
     style="fill:#f4f4f4;stroke-width:0.86602539" /></svg>