<?xml version="1.0" encoding="UTF-8" standalone="no"?>
<!-- Generator: Adobe Illustrator 13.0.0, SVG Export Plug-In . SVG Version: 6.00 Build 14948)  -->

<svg
   xmlns:ns="&amp;#38;ns_sfw;"
   xmlns:dc="http://purl.org/dc/elements/1.1/"
   xmlns:cc="http://creativecommons.org/ns#"
   xmlns:rdf="http://www.w3.org/1999/02/22-rdf-syntax-ns#"
   xmlns:svg="http://www.w3.org/2000/svg"
   xmlns="http://www.w3.org/2000/svg"
   xmlns:sodipodi="http://sodipodi.sourceforge.net/DTD/sodipodi-0.dtd"
   xmlns:inkscape="http://www.inkscape.org/namespaces/inkscape"
   version="1.2"
   id="Layer_3"
   x="0px"
   y="0px"
   width="535.94"
   height="165.30525"
   viewBox="0 0 535.93998 165.30525"
   xml:space="preserve"
   inkscape:version="0.92.2 (5c3e80d, 2017-08-06)"
   sodipodi:docname="controller.svg"><defs
     id="defs35" /><sodipodi:namedview
     pagecolor="#ffffff"
     bordercolor="#666666"
     borderopacity="1"
     objecttolerance="10"
     gridtolerance="10"
     guidetolerance="10"
     inkscape:pageopacity="0"
     inkscape:pageshadow="2"
     inkscape:window-width="1920"
     inkscape:window-height="1017"
     id="namedview33"
     showgrid="false"
     fit-margin-top="0"
     fit-margin-left="0"
     fit-margin-right="0"
     fit-margin-bottom="0"
     inkscape:zoom="0.48145317"
     inkscape:cx="268.35051"
     inkscape:cy="113.709"
     inkscape:window-x="-8"
     inkscape:window-y="-8"
     inkscape:window-maximized="1"
     inkscape:current-layer="Layer_3" /><metadata
     id="metadata55"><rdf:RDF><cc:Work
         rdf:about=""><dc:format>image/svg+xml</dc:format><dc:type
           rdf:resource="http://purl.org/dc/dcmitype/StillImage" /><dc:title></dc:title></cc:Work></rdf:RDF><ns:sfw><ns:slices /><ns:sliceSourceBounds
         x="692.15"
         y="-7652"
         width="535.939"
         height="16383"
         bottomLeftOrigin="true" /></ns:sfw></metadata><path
     id="path3"
     d="m 117.306,34.51125 c -23.656,0 -42.861,14.403 -42.861,32.14575 v 28.0605 c 0,17.7435 19.205,32.145 42.861,32.145 H 156 c 23.656,0 42.861,-14.4015 42.861,-32.145 V 66.657 C 198.861,48.91425 179.656,34.51125 156,34.51125 Z m 0,1.42875 H 156 c 22.627,0 40.956,13.746 40.956,30.717 v 28.0605 c 0,16.97175 -18.329,30.717 -40.956,30.717 h -38.694 c -22.628,0 -40.956,-13.74525 -40.956,-30.717 V 66.657 c 0,-16.97175 18.328,-30.717 40.956,-30.717 z"
     inkscape:connector-curvature="0"
     style="fill:#f4f4f4;stroke-width:0.86602539" /><path
     id="path5"
     d="m 136.651,41.052 c -3.23,0 -5.863,1.97475 -5.863,4.398 v 9.77775 c 0,2.4225 2.632,4.39725 5.863,4.39725 3.23,0 5.863,-1.97475 5.863,-4.39725 V 45.45 c 0,-2.4225 -2.633,-4.398 -5.863,-4.398 z m 0,1.4295 c 2.201,0 3.958,1.3185 3.958,2.9685 v 9.77775 c 0,1.65 -1.758,2.9685 -3.958,2.9685 -2.202,0 -3.958,-1.3185 -3.958,-2.9685 V 45.45 c -0.001,-1.65 1.757,-2.9685 3.958,-2.9685 z"
     inkscape:connector-curvature="0"
     style="fill:#f4f4f4;stroke-width:0.86602539" /><path
     id="path7"
     d="m 89.681,76.27725 c -3.23,0 -5.864,1.97475 -5.864,4.398 0,2.42325 2.632,4.4205 5.864,4.4205 h 13.037 c 3.229,0 5.864,-1.9965 5.864,-4.4205 0,-2.42175 -2.633,-4.398 -5.864,-4.398 z m 0,1.42875 h 13.037 c 2.201,0 3.959,1.31925 3.959,2.96925 0,1.65075 -1.759,2.991 -3.959,2.991 H 89.681 c -2.198,-0.007 -3.955,-1.34325 -3.955,-2.9925 0,-1.65075 1.758,-2.96925 3.958,-2.96925 z"
     inkscape:connector-curvature="0"
     style="fill:#f4f4f4;stroke-width:0.86602539" /><path
     id="path9"
     d="m 136.651,101.72925 c -3.23,0 -5.863,1.99725 -5.863,4.4205 v 9.7785 c 0,2.42175 2.632,4.39725 5.863,4.39725 3.23,0 5.863,-1.97475 5.863,-4.39725 v -9.7785 c 0,-2.4225 -2.633,-4.4205 -5.863,-4.4205 z m 0,1.4295 c 2.201,0 3.958,1.34175 3.958,2.991 v 9.7785 c 0,1.65 -1.757,2.9685 -3.958,2.9685 -2.202,0 -3.958,-1.31925 -3.958,-2.9685 v -9.7785 c -0.001,-1.65 1.757,-2.991 3.958,-2.991 z"
     inkscape:connector-curvature="0"
     style="fill:#f4f4f4;stroke-width:0.86602539" /><path
     id="path11"
     d="m 170.577,76.27725 c -3.229,0 -5.863,1.97475 -5.863,4.398 0,2.42325 2.633,4.4205 5.863,4.4205 h 13.067 c 3.229,0 5.863,-1.9965 5.863,-4.4205 0,-2.42175 -2.633,-4.398 -5.863,-4.398 z m 0,1.42875 h 13.067 c 2.2,0 3.958,1.32 3.958,2.96925 0,1.65075 -1.758,2.991 -3.958,2.991 h -13.067 c -2.2,0 -3.958,-1.341 -3.958,-2.991 0,-1.65 1.759,-2.96925 3.958,-2.96925 z"
     inkscape:connector-curvature="0"
     style="fill:#f4f4f4;stroke-width:0.86602539" /><path
     id="polygon13"
     d="m 103.134,54.558 -1.31,0.9825 8.155,9.01875 0.655,0.714 0.804,-0.60225 3.869,-2.9025 0.804,-0.603 -0.953,-0.49125 z"
     inkscape:connector-curvature="0"
     style="fill:#f4f4f4;stroke-width:0.86602539" /><path
     id="polygon15"
     d="m 110.639,96.1005 -0.654,0.714 -8.156,9.018 1.31,0.9825 12.025,-6.11625 0.953,-0.4905 -0.804,-0.603 -3.87,-2.90175 z"
     inkscape:connector-curvature="0"
     style="fill:#f4f4f4;stroke-width:0.86602539" /><path
     id="polygon17"
     d="m 162.691,96.1005 -0.804,0.603 -3.869,2.90175 -0.833,0.603 0.953,0.4905 12.025,6.11625 1.339,-0.9825 -8.156,-9.018 z"
     inkscape:connector-curvature="0"
     style="fill:#f4f4f4;stroke-width:0.86602539" /><path
     id="polygon19"
     d="m 170.168,54.558 -12.025,6.11625 -0.953,0.49125 0.833,0.603 3.87,2.9025 0.804,0.60225 0.655,-0.714 8.155,-9.01875 z"
     inkscape:connector-curvature="0"
     style="fill:#f4f4f4;stroke-width:0.86602539" /><path
     id="path21"
     d="m 115.61,27.30075 c -27.67,0 -50.123,16.83975 -50.123,37.593 V 96.4815 c 0,20.75325 22.453,37.59225 50.123,37.59225 h 42.117 c 27.671,0 50.124,-16.839 50.124,-37.59225 V 64.89375 c 0,-20.7525 -22.452,-37.593 -50.124,-37.593 z m 0,1.4295 h 42.117 c 26.644,0 48.219,16.18275 48.219,36.1635 V 96.4815 c 0,19.983 -21.577,36.1635 -48.219,36.1635 H 115.61 c -26.642,0 -48.218,-16.1805 -48.218,-36.1635 V 64.89375 c 0,-19.9815 21.577,-36.1635 48.218,-36.1635 z"
     inkscape:connector-curvature="0"
     style="fill:#f4f4f4;stroke-width:0.86602539" /><path
     id="polygon23"
     d="m 38.755,5.4465 v 0.714 152.22075 0.714 h 0.953 196.122 0.952 v -0.714 -19.80075 h 289.521 0.952 v -0.714 -85.0935 -0.71475 h -0.952 -289.522 v -45.897 -0.714 H 235.829 39.707 Z m 1.904,1.42875 h 194.217 v 45.897 0.71475 h 0.953 0.714 288.807 v 83.664 h -289.226 -0.297 -0.953 v 0.71475 19.8 H 40.657 V 6.8745 Z"
     inkscape:connector-curvature="0"
     style="fill:#f4f4f4;stroke-width:0.86602539" /><path
     id="circle25"
     d="m 369.948,75.5205 c -19.762,0 -35.777,12.0345 -35.777,26.85525 0,14.82075 16.018,26.85525 35.777,26.85525 19.759,0 35.807,-12.0345 35.807,-26.85525 0,-14.82075 -16.047,-26.85525 -35.807,-26.85525 z m 0,1.42875 c 18.73,0 33.901,11.3775 33.901,25.4265 0,14.049 -15.171,25.4265 -33.901,25.4265 -18.731,0 -33.872,-11.37825 -33.872,-25.4265 0,-14.04825 15.141,-25.4265 33.872,-25.4265 z"
     inkscape:connector-curvature="0"
     style="fill:#f4f4f4;stroke-width:0.86602539" /><path
     id="circle27"
     d="m 369.948,81.92775 c -15.039,0 -27.234,9.17025 -27.234,20.44875 0,11.2785 12.195,20.4255 27.234,20.4255 15.036,0 27.264,-9.147 27.264,-20.4255 0,-11.2785 -12.227,-20.44875 -27.264,-20.44875 z m 0,1.42875 c 14.008,0 25.359,8.51325 25.359,19.01925 0,10.506 -11.352,18.9975 -25.359,18.9975 -14.01,0 -25.33,-8.49075 -25.33,-18.9975 0,-10.50675 11.321,-19.01925 25.33,-19.01925 z"
     inkscape:connector-curvature="0"
     style="fill:#f4f4f4;stroke-width:0.86602539" /><path
     id="circle29"
     d="m 459.175,75.5205 c -19.762,0 -35.807,12.0345 -35.807,26.85525 0,14.82075 16.045,26.85525 35.807,26.85525 19.76,0 35.807,-12.0345 35.807,-26.85525 0,-14.82075 -16.047,-26.85525 -35.807,-26.85525 z m 0,1.42875 c 18.73,0 33.901,11.3775 33.901,25.4265 0,14.049 -15.171,25.4265 -33.901,25.4265 -18.731,0 -33.902,-11.37825 -33.902,-25.4265 0,-14.04825 15.171,-25.4265 33.902,-25.4265 z"
     inkscape:connector-curvature="0"
     style="fill:#f4f4f4;stroke-width:0.86602539" /><path
     id="circle31"
     d="m 459.175,81.92775 c -15.039,0 -27.234,9.17025 -27.234,20.44875 0,11.2785 12.195,20.4255 27.234,20.4255 15.036,0 27.234,-9.147 27.234,-20.4255 0,-11.2785 -12.196,-20.44875 -27.234,-20.44875 z m 0,1.42875 c 14.008,0 25.329,8.51325 25.329,19.01925 0,10.506 -11.321,18.9975 -25.329,18.9975 -14.01,0 -25.33,-8.49075 -25.33,-18.9975 0,-10.50675 11.32,-19.01925 25.33,-19.01925 z"
     inkscape:connector-curvature="0"
     style="fill:#f4f4f4;stroke-width:0.86602539" /><path
     id="path33"
     d="M 8.662,0 C 3.896,0 0,2.922 0,6.4965 v 152.313 c 0,3.5745 3.897,6.49575 8.662,6.49575 h 518.646 c 4.429,0 7.956,-2.55825 8.453,-5.78175 h 0.179 V 158.8095 6.49575 c 0,-3.5715 -3.868,-6.4935 -8.64,-6.4935 H 8.655 Z m 0,1.428 h 518.646 c 3.737,0 6.727,2.26575 6.727,5.06775 v 151.59825 0.71475 c 0,2.802 -2.989,5.067 -6.727,5.067 H 8.662 C 4.93,163.88325 1.909,161.6115 1.909,158.811 V 6.49875 c 0,-2.802 3.02,-5.067 6.756,-5.067 z"
     inkscape:connector-curvature="0"
     style="fill:#f4f4f4;stroke-width:0.86602539" /><path
     id="rect35"
     d="m 328.277,71.34525 v 0.71475 61.09875 0.714 h 0.953 81.465 0.953 v -0.714 V 72.06 71.34525 h -0.953 -81.465 z m 1.906,1.42875 h 79.561 v 59.67 h -79.561 z"
     inkscape:connector-curvature="0"
     style="fill:#f4f4f4;stroke-width:0.86602539" /><path
     id="rect37"
     d="m 417.504,71.34525 v 0.71475 61.09875 0.714 h 0.953 81.436 0.952 v -0.714 V 72.06 71.34525 h -0.952 -81.436 z m 1.905,1.42875 h 79.531 v 59.67 h -79.531 z"
     inkscape:connector-curvature="0"
     style="fill:#f4f4f4;stroke-width:0.86602539" /><path
     id="polyline39"
     d="m 53.19,19.30875 v 1.719 119.29575 1.7415 l 1.607,-1.2285 25.33,-18.97425 -1.369,-1.02675 -23.663,17.769 V 22.767 L 78.758,40.5105 80.127,39.5055 54.797,20.53125 53.19,19.3035 Z"
     inkscape:connector-curvature="0"
     style="fill:#f4f4f4;stroke-width:0.86602539" /><path
     id="polyline41"
     d="m 191.561,123.08925 -1.37,1.00425 23.693,17.769 H 59.432 l 23.574,-17.67975 -1.369,-1.00425 -25.181,18.8865 -1.637,1.22775 h 2.292 159.062 2.292 L 216.858,142.065 191.559,123.09 Z"
     inkscape:connector-curvature="0"
     style="fill:#f4f4f4;stroke-width:0.86602539" /><path
     id="polyline43"
     d="m 220.134,19.30875 -1.637,1.22775 -25.211,18.8865 1.369,1.02675 23.574,-17.70225 v 115.88175 l -23.633,-17.74725 -1.339,1.005 25.24,18.9525 1.637,1.2285 v -1.7415 -119.29725 -1.719 z"
     inkscape:connector-curvature="0"
     style="fill:#f4f4f4;stroke-width:0.86602539" /><path
     id="polyline45"
     d="m 54.826,18.081 1.638,1.206 25.21,18.93 1.339,-1.005 -23.572,-17.7015 h 154.452 l -23.669,17.7465 1.333,1.00425 25.307,-18.975 1.607,-1.20525 H 216.179 57.117 Z"
     inkscape:connector-curvature="0"
     style="fill:#f4f4f4;stroke-width:0.86602539" /><path
     id="line47"
     d="M 28.217,0.82575 V 164.3685 h 1.905 V 0.82575 Z"
     inkscape:connector-curvature="0"
     style="fill:#f4f4f4;stroke-width:0.86602539" /><path
     id="rect49"
     d="m 328.277,58.04025 v 0.71475 9.933 0.71475 h 0.953 81.465 0.953 V 68.688 58.755 58.04025 h -0.953 -81.465 z m 1.906,1.42875 h 79.561 v 8.50425 h -79.561 z"
     inkscape:connector-curvature="0"
     style="fill:#f4f4f4;stroke-width:0.86602539" /><path
     id="rect51"
     d="m 417.504,58.04025 v 0.71475 9.933 0.71475 h 0.953 81.436 0.952 V 68.688 58.755 58.04025 h -0.952 -81.436 z m 1.905,1.42875 h 79.531 v 8.50425 h -79.531 z"
     inkscape:connector-curvature="0"
     style="fill:#f4f4f4;stroke-width:0.86602539" /><path
     id="path53"
     d="m 246.06,3.5265 c -0.987,0 -1.815,0.621 -1.815,1.362 V 44.646 c 0,0.741 0.829,1.36125 1.815,1.36125 h 282.855 c 0.985,0 1.785,-0.62325 1.785,-1.36125 V 7.12125 c 0,-1.98075 -2.152,-3.594 -4.792,-3.594 H 246.064 246.06 Z m 0.09,1.4295 h 279.756 c 1.613,0 2.888,0.95625 2.888,2.16525 V 44.58 H 246.151 V 4.956 Z"
     inkscape:connector-curvature="0"
     style="fill:#f4f4f4;stroke-width:0.86602539" /><path
     id="path55"
     d="m 246.06,143.9835 c -0.987,0 -1.815,0.62175 -1.815,1.36125 V 160.413 c 0,0.74025 0.829,1.362 1.815,1.362 h 279.844 c 2.64,0 4.792,-1.63725 4.792,-3.6165 v -12.81375 c 0,-0.73875 -0.8,-1.36125 -1.785,-1.36125 H 246.056 Z m 0.09,1.42875 h 282.645 v 12.74625 c 0,1.20825 -1.276,2.18775 -2.888,2.18775 H 246.149 Z"
     inkscape:connector-curvature="0"
     style="fill:#f4f4f4;stroke-width:0.86602539" /><path
     id="line57"
     d="m 243.717,45.62925 -6.28,4.71 1.369,1.00425 6.251,-4.6875 z"
     inkscape:connector-curvature="0"
     style="fill:#f4f4f4;stroke-width:0.86602539" /><path
     id="line59"
     d="m 238.802,139.0755 -1.369,1.005 6.281,4.71 1.339,-1.02675 z"
     inkscape:connector-curvature="0"
     style="fill:#f4f4f4;stroke-width:0.86602539" /></svg>