<?xml version="1.0" encoding="UTF-8" standalone="no"?>
<!-- Generator: Adobe Illustrator 16.0.3, SVG Export Plug-In . SVG Version: 6.00 Build 0)  -->

<svg
   xmlns:dc="http://purl.org/dc/elements/1.1/"
   xmlns:cc="http://creativecommons.org/ns#"
   xmlns:rdf="http://www.w3.org/1999/02/22-rdf-syntax-ns#"
   xmlns:svg="http://www.w3.org/2000/svg"
   xmlns="http://www.w3.org/2000/svg"
   xmlns:sodipodi="http://sodipodi.sourceforge.net/DTD/sodipodi-0.dtd"
   xmlns:inkscape="http://www.inkscape.org/namespaces/inkscape"
   version="1.1"
   id="Ebene_1"
   x="0px"
   y="0px"
   width="566.92889"
   height="151.7858"
   viewBox="0 -0.002 566.92888 151.78579"
   enable-background="new 0 -0.002 566.929 202.382"
   xml:space="preserve"
   sodipodi:docname="logo.svg"
   inkscape:version="0.92.2 (5c3e80d, 2017-08-06)"><metadata
     id="metadata47"><rdf:RDF><cc:Work
         rdf:about=""><dc:format>image/svg+xml</dc:format><dc:type
           rdf:resource="http://purl.org/dc/dcmitype/StillImage" /><dc:title></dc:title></cc:Work></rdf:RDF></metadata><defs
     id="defs45" /><sodipodi:namedview
     pagecolor="#ffffff"
     bordercolor="#666666"
     borderopacity="1"
     objecttolerance="10"
     gridtolerance="10"
     guidetolerance="10"
     inkscape:pageopacity="0"
     inkscape:pageshadow="2"
     inkscape:window-width="1920"
     inkscape:window-height="1017"
     id="namedview43"
     showgrid="false"
     fit-margin-top="0"
     fit-margin-left="0"
     fit-margin-right="0"
     fit-margin-bottom="0"
     inkscape:zoom="0.61559735"
     inkscape:cx="283.46432"
     inkscape:cy="101.19005"
     inkscape:window-x="-8"
     inkscape:window-y="-8"
     inkscape:window-maximized="1"
     inkscape:current-layer="Ebene_1" /><g
     id="g40"
     transform="matrix(1,0,0,0.75,-1.92e-4,-5e-4)"><path
       d="m 126.595,99.044 h 39.796 c 16.265,0 29.501,-13.238 29.501,-29.5 0,-16.261 -13.236,-29.42 -29.501,-29.42 h -10.376 c -0.817,0 -1.474,-0.652 -1.474,-1.471 0,-0.898 0.654,-1.551 1.474,-1.551 h 39.716 l 0.082,-12.423 h -39.798 c -7.683,0 -13.894,6.212 -13.894,13.894 0,7.764 6.209,14.056 13.894,14.056 h 10.376 c 9.316,0 16.918,7.602 16.918,16.917 0,9.317 -7.602,16.834 -16.918,16.834 h -39.796 z"
       id="path2"
       inkscape:connector-curvature="0"
       style="fill:#17569b" /><path
       d="m 126.595,83.518 h 39.796 c 7.765,0 13.977,-6.292 13.977,-13.974 0,-7.682 -6.211,-13.974 -13.977,-13.974 h -10.376 c -9.315,0 -16.835,-7.682 -16.835,-16.998 0,-9.317 7.521,-16.834 16.835,-16.834 h 39.796 L 195.729,9.153 h -39.718 c -16.261,0 -29.418,13.156 -29.418,29.5 0,16.262 13.156,29.42 29.418,29.42 h 10.297 c 0.816,0 1.472,0.654 1.472,1.471 0,0.817 -0.655,1.471 -1.472,1.471 h -39.716 z"
       id="path4"
       inkscape:connector-curvature="0"
       style="fill:#17569b" /><path
       d="m 226.701,86.459 c -6.862,0 -12.5,-5.475 -12.5,-12.503 V 33.994 c 0,-6.7 5.639,-12.339 12.5,-12.339 h 42.495 V 9.153 h -42.495 c -13.809,0 -25.005,11.196 -25.005,25.007 v 39.796 c 0,13.812 11.194,25.008 25.005,25.008 h 42.333 V 86.461 Z"
       id="path6"
       inkscape:connector-curvature="0"
       style="fill:#17569b" /><path
       d="m 217.222,34.158 c 0,-5.23 4.249,-9.562 9.479,-9.562 h 42.495 V 37.1 h -36.609 c -2.944,0 -2.944,2.94 -2.944,2.94 h 30.563 v 12.504 h -42.984 z"
       id="path8"
       inkscape:connector-curvature="0"
       style="fill:#17569b" /><path
       d="m 226.701,83.438 c -5.229,0 -9.479,-4.25 -9.479,-9.48 v -18.39 h 42.983 V 68.07 h -30.562 c 0,2.942 2.941,2.942 2.941,2.942 h 36.447 v 12.423 z"
       id="path10"
       inkscape:connector-curvature="0"
       style="fill:#17569b" /><path
       d="m 299.024,86.459 c -6.946,0 -12.586,-5.64 -12.586,-12.503 V 34.16 c 0,-6.866 5.642,-12.505 12.506,-12.505 h 41.188 V 9.153 h -41.271 c -13.811,0 -25.005,11.196 -25.005,25.007 v 39.796 c 0,13.812 11.274,25.008 25.088,25.008 h 41.188 v -58.92 h -35.387 v 12.502 h 22.883 V 86.46 Z"
       id="path12"
       inkscape:connector-curvature="0"
       style="fill:#17569b" /><path
       d="m 289.378,73.956 c 0,5.23 4.334,9.563 9.563,9.563 h 25.741 V 55.488 h -19.938 v 12.585 h 7.437 v 2.942 h -7.353 c -1.637,0 -2.943,-1.387 -2.943,-2.942 V 40.042 c 0,0 0,-2.943 2.943,-2.943 h 35.301 V 24.595 h -41.187 c -5.229,0 -9.563,4.332 -9.563,9.563 z"
       id="path14"
       inkscape:connector-curvature="0"
       style="fill:#17569b" /><path
       d="m 378.783,24.436 c 0.57,-1.634 2.043,-2.778 3.842,-2.778 1.797,0 3.271,1.146 3.844,2.778 l 19.938,59.166 H 377.236 V 69.708 h 9.808 L 382.63,56.549 368.245,98.963 h -14.709 z"
       id="path16"
       inkscape:connector-curvature="0"
       style="fill:#17569b" /><path
       d="m 410.492,86.459 h -33.261 v 12.503 h 50.585 L 401.503,20.92 c -2.291,-7.6 -9.891,-13.239 -18.881,-13.239 -8.986,0 -16.586,5.558 -18.877,13.239 l -26.563,78.042 h 13.241 l 25.738,-75.917 c 1.063,-2.534 3.514,-4.25 6.455,-4.25 2.862,0 5.316,1.716 6.377,4.25 z"
       id="path18"
       inkscape:connector-curvature="0"
       style="fill:#17569b" /><path
       d="m 420.46,19.531 c 2.613,0 5.066,-0.982 6.863,-2.862 1.879,-1.878 2.855,-4.33 2.855,-6.945 0,-2.616 -0.979,-5.065 -2.855,-6.866 -1.797,-1.878 -4.25,-2.86 -6.863,-2.86 -5.394,0 -9.81,4.332 -9.81,9.726 0,2.615 1.063,5.065 2.856,6.945 1.887,1.882 4.337,2.862 6.954,2.862 z m -8.419,-9.806 c 0,-2.207 0.903,-4.332 2.455,-5.967 1.549,-1.552 3.676,-2.452 5.965,-2.452 2.207,0 4.332,0.898 5.969,2.452 1.553,1.635 2.451,3.759 2.451,5.967 0,4.656 -3.76,8.417 -8.416,8.417 -2.289,0 -4.418,-0.818 -5.967,-2.452 -1.554,-1.554 -2.457,-3.677 -2.457,-5.965 z"
       id="path20"
       inkscape:connector-curvature="0"
       style="fill:#17569b" /><path
       d="m 417.925,10.541 v 4.656 h -1.391 V 4.329 h 4.01 c 1.467,0 2.363,0 3.268,0.653 0.734,0.572 1.145,1.472 1.145,2.535 0,2.533 -2.043,2.86 -2.613,2.943 l 3.021,4.738 h -1.717 l -2.941,-4.656 z m 0,-1.144 h 2.859 c 0.49,0 0.895,0 1.309,-0.164 1.063,-0.245 1.391,-0.98 1.391,-1.716 0,-0.247 -0.082,-1.063 -0.654,-1.554 -0.57,-0.489 -1.307,-0.409 -2.125,-0.409 h -2.779 v 3.843 z"
       id="path22"
       inkscape:connector-curvature="0"
       style="fill:#17569b" /><g
       id="g6708"
       transform="translate(-67.069808,39.506873)"><g
         id="flowRoot6696"
         transform="translate(0,952.36218)"><path
           id="path6717"
           d="m 153.646,-811.351 h -30.878 v -3.498 c 1.118,-0.029 2.554,-0.146 4.31,-0.347 1.758,-0.194 2.963,-0.472 3.621,-0.838 1.019,-0.62 1.767,-1.333 2.241,-2.142 0.477,-0.805 0.713,-1.813 0.713,-3.029 v -50.821 h -0.738 l -23.836,59.54 h -2.461 l -22.704,-60.77 h -0.64 v 41.712 c 0,4.036 0.255,7.108 0.763,9.208 0.51,2.102 1.289,3.611 2.341,4.527 0.723,0.688 2.214,1.352 4.479,1.976 2.265,0.624 3.744,0.953 4.433,0.981 v 3.496 H 67.07 v -3.496 c 1.479,-0.129 3.028,-0.375 4.653,-0.735 1.625,-0.361 2.88,-0.901 3.768,-1.625 1.15,-0.915 1.938,-2.33 2.364,-4.236 0.429,-1.899 0.64,-5.088 0.64,-9.554 v -35.756 c 0,-2.067 -0.245,-3.757 -0.738,-5.069 -0.491,-1.312 -1.198,-2.379 -2.117,-3.201 -1.018,-0.887 -2.265,-1.542 -3.743,-1.972 -1.478,-0.424 -2.938,-0.668 -4.382,-0.738 v -3.495 h 23.836 l 19.993,52.399 17.091,-43.831 c 0.623,-1.604 1.157,-3.288 1.601,-5.048 0.443,-1.757 0.683,-2.932 0.714,-3.521 h 22.801 v 3.496 c -0.919,0.034 -2.094,0.183 -3.521,0.444 -1.428,0.266 -2.471,0.512 -3.127,0.737 -1.115,0.393 -1.872,1.055 -2.267,1.972 -0.395,0.919 -0.591,1.919 -0.591,3.003 v 50.379 c 0,1.15 0.196,2.117 0.591,2.906 0.395,0.785 1.149,1.479 2.267,2.064 0.592,0.334 1.643,0.637 3.153,0.914 1.509,0.275 2.708,0.437 3.594,0.465 v 3.5 h -0.004 z"
           inkscape:connector-curvature="0"
           style="fill:#ff0000" /><path
           id="path6719"
           d="m 197.354,-812.24 c -1.542,0.563 -2.895,1.01 -4.062,1.356 -1.167,0.345 -2.487,0.516 -3.965,0.516 -2.563,0 -4.604,-0.596 -6.132,-1.796 -1.526,-1.197 -2.503,-2.943 -2.93,-5.244 h -0.296 c -2.134,2.361 -4.424,4.172 -6.871,5.416 -2.446,1.252 -5.393,1.871 -8.84,1.871 -3.645,0 -6.64,-1.109 -8.987,-3.35 -2.348,-2.229 -3.52,-5.151 -3.52,-8.765 0,-1.872 0.262,-3.549 0.788,-5.024 0.526,-1.479 1.314,-2.807 2.363,-3.988 0.822,-0.98 1.905,-1.857 3.25,-2.634 1.348,-0.769 2.61,-1.382 3.792,-1.847 1.48,-0.557 4.475,-1.593 8.988,-3.104 4.515,-1.505 7.559,-2.687 9.135,-3.544 v -4.874 c 0,-0.427 -0.089,-1.248 -0.271,-2.462 -0.182,-1.214 -0.566,-2.365 -1.158,-3.449 -0.657,-1.21 -1.583,-2.271 -2.783,-3.175 -1.197,-0.9 -2.896,-1.354 -5.096,-1.354 -1.512,0 -2.914,0.255 -4.211,0.762 -1.297,0.514 -2.208,1.044 -2.732,1.602 0,0.66 0.156,1.625 0.468,2.905 0.313,1.278 0.468,2.462 0.468,3.545 0,1.15 -0.518,2.2 -1.553,3.15 -1.033,0.959 -2.47,1.428 -4.308,1.428 -1.641,0 -2.848,-0.578 -3.621,-1.747 -0.77,-1.161 -1.156,-2.468 -1.156,-3.915 0,-1.509 0.533,-2.955 1.601,-4.335 1.067,-1.378 2.454,-2.608 4.163,-3.691 1.478,-0.915 3.267,-1.701 5.367,-2.34 2.103,-0.642 4.153,-0.961 6.156,-0.961 2.758,0 5.161,0.19 7.215,0.565 2.053,0.381 3.915,1.191 5.59,2.439 1.673,1.217 2.946,2.866 3.816,4.948 0.87,2.088 1.305,4.77 1.305,8.053 0,4.695 -0.051,8.857 -0.147,12.482 -0.1,3.63 -0.146,7.595 -0.146,11.896 0,1.279 0.221,2.3 0.664,3.056 0.443,0.758 1.125,1.396 2.045,1.918 0.492,0.298 1.271,0.461 2.34,0.492 1.066,0.034 2.157,0.053 3.273,0.053 v 3.146 z m -17.186,-26.003 c -2.792,0.823 -5.236,1.623 -7.338,2.413 -2.103,0.787 -4.055,1.771 -5.859,2.955 -1.643,1.117 -2.939,2.438 -3.893,3.962 -0.949,1.526 -1.428,3.347 -1.428,5.442 0,2.729 0.714,4.728 2.143,6.009 1.429,1.278 3.24,1.921 5.441,1.921 2.331,0 4.383,-0.568 6.156,-1.7 1.772,-1.134 3.268,-2.466 4.481,-4.015 z"
           inkscape:connector-curvature="0"
           style="fill:#ff0000" /><path
           id="path6721"
           d="m 223.777,-835.139 c 1.346,1.182 2.381,2.546 3.104,4.084 0.723,1.547 1.083,3.435 1.083,5.664 0,4.502 -1.685,8.177 -5.046,11.033 -3.366,2.854 -7.727,4.285 -13.076,4.285 -2.825,0 -5.427,-0.512 -7.807,-1.529 -2.382,-1.017 -4.081,-1.95 -5.098,-2.807 l -0.984,3.202 h -3.693 l -0.492,-16.896 h 3.397 c 0.263,1.279 0.82,2.778 1.674,4.479 0.854,1.708 1.888,3.249 3.104,4.629 1.28,1.448 2.814,2.66 4.604,3.646 1.789,0.982 3.801,1.48 6.033,1.48 3.151,0 5.582,-0.715 7.29,-2.146 1.706,-1.426 2.562,-3.471 2.562,-6.133 0,-1.379 -0.27,-2.563 -0.813,-3.566 -0.542,-1 -1.339,-1.876 -2.389,-2.637 -1.083,-0.756 -2.413,-1.433 -3.989,-2.043 -1.576,-0.606 -3.332,-1.207 -5.27,-1.799 -1.545,-0.459 -3.259,-1.088 -5.146,-1.896 -1.889,-0.806 -3.505,-1.752 -4.852,-2.833 -1.444,-1.146 -2.626,-2.563 -3.546,-4.235 -0.919,-1.673 -1.38,-3.644 -1.38,-5.909 0,-3.973 1.479,-7.336 4.433,-10.097 2.956,-2.758 6.912,-4.138 11.87,-4.138 1.901,0 3.849,0.246 5.836,0.735 1.984,0.497 3.602,1.085 4.851,1.773 l 1.133,-2.56 h 3.545 l 0.738,15.608 h -3.397 c -0.689,-3.479 -2.176,-6.309 -4.458,-8.496 -2.283,-2.181 -5.065,-3.273 -8.35,-3.273 -2.69,0 -4.811,0.676 -6.353,2.021 -1.543,1.351 -2.314,2.975 -2.314,4.876 0,1.479 0.253,2.709 0.763,3.693 0.51,0.986 1.271,1.82 2.291,2.513 0.983,0.659 2.223,1.275 3.718,1.847 1.494,0.574 3.34,1.228 5.542,1.945 2.167,0.688 4.211,1.497 6.131,2.412 1.92,0.934 3.502,1.955 4.751,3.068 z"
           inkscape:connector-curvature="0"
           style="fill:#ff0000" /><path
           id="path6723"
           d="m 254.78,-813.473 c -2.135,0.889 -4.153,1.637 -6.058,2.242 -1.904,0.61 -4.236,0.91 -6.993,0.91 -4.072,0 -6.937,-1.021 -8.594,-3.076 -1.659,-2.051 -2.488,-4.951 -2.488,-8.69 v -32.896 h -8.767 v -4.73 h 8.964 v -15.118 h 8.963 v 15.118 h 13.937 v 4.73 h -13.838 v 27.133 c 0,2.039 0.073,3.738 0.222,5.101 0.147,1.362 0.5,2.558 1.058,3.569 0.525,0.953 1.314,1.676 2.364,2.166 1.05,0.492 2.462,0.738 4.234,0.738 0.82,0 2.026,-0.074 3.621,-0.226 1.593,-0.146 2.716,-0.332 3.374,-0.565 z"
           inkscape:connector-curvature="0"
           style="fill:#ff0000" /><path
           id="path6725"
           d="m 292.331,-822.777 c -2.035,3.875 -4.76,6.961 -8.175,9.258 -3.414,2.299 -7.338,3.444 -11.77,3.444 -3.906,0 -7.329,-0.688 -10.27,-2.067 -2.937,-1.377 -5.358,-3.252 -7.264,-5.613 -1.903,-2.362 -3.324,-5.119 -4.26,-8.271 -0.937,-3.154 -1.403,-6.479 -1.403,-9.996 0,-3.151 0.501,-6.246 1.502,-9.285 1.002,-3.032 2.471,-5.768 4.408,-8.198 1.872,-2.327 4.194,-4.209 6.968,-5.64 2.775,-1.429 5.887,-2.142 9.334,-2.142 3.545,0 6.582,0.562 9.109,1.674 2.529,1.118 4.58,2.644 6.156,4.578 1.511,1.844 2.635,4.012 3.374,6.504 0.737,2.494 1.108,5.205 1.108,8.123 v 3.251 h -32.157 c 0,3.188 0.303,6.076 0.909,8.67 0.609,2.595 1.568,4.875 2.882,6.847 1.278,1.905 2.953,3.406 5.022,4.506 2.067,1.104 4.53,1.646 7.387,1.646 2.922,0 5.441,-0.68 7.559,-2.047 2.12,-1.354 4.163,-3.813 6.132,-7.357 z m -10.884,-18.517 c 0,-1.839 -0.155,-3.808 -0.467,-5.909 -0.313,-2.102 -0.813,-3.857 -1.502,-5.271 -0.754,-1.507 -1.789,-2.734 -3.104,-3.693 -1.312,-0.949 -3.005,-1.427 -5.071,-1.427 -3.449,0 -6.313,1.436 -8.595,4.311 -2.28,2.873 -3.52,6.868 -3.717,11.988 z"
           inkscape:connector-curvature="0"
           style="fill:#ff0000" /><path
           id="path6727"
           d="m 324.761,-853.657 c 0,1.673 -0.411,3.16 -1.23,4.457 -0.82,1.3 -2.083,1.944 -3.79,1.944 -1.841,0 -3.243,-0.477 -4.214,-1.43 -0.967,-0.949 -1.452,-2.001 -1.452,-3.149 0,-0.723 0.057,-1.379 0.172,-1.971 0.114,-0.594 0.221,-1.185 0.319,-1.773 -1.542,0 -3.35,0.623 -5.417,1.871 -2.068,1.25 -3.824,3.021 -5.271,5.317 v 28.268 c 0,1.154 0.224,2.088 0.666,2.811 0.442,0.725 1.141,1.265 2.092,1.625 0.822,0.33 1.881,0.574 3.176,0.734 1.299,0.17 2.422,0.281 3.376,0.348 v 3.25 h -25.61 v -3.25 c 0.756,-0.065 1.536,-0.127 2.339,-0.195 0.805,-0.063 1.502,-0.194 2.094,-0.397 0.918,-0.295 1.601,-0.812 2.043,-1.549 0.443,-0.738 0.664,-1.699 0.664,-2.879 v -29.992 c 0,-1.017 -0.238,-2.021 -0.713,-3.004 -0.476,-0.986 -1.143,-1.772 -1.996,-2.364 -0.622,-0.396 -1.359,-0.678 -2.215,-0.862 -0.854,-0.177 -1.773,-0.3 -2.758,-0.367 v -3.202 l 16.152,-1.084 0.689,0.689 v 6.846 h 0.246 c 2.038,-2.661 4.304,-4.679 6.797,-6.057 2.496,-1.381 4.777,-2.069 6.845,-2.069 2.069,0 3.752,0.675 5.049,2.021 1.3,1.344 1.947,3.148 1.947,5.413 z"
           inkscape:connector-curvature="0"
           style="fill:#ff0000" /><path
           id="path6729"
           d="m 377.213,-843.412 c 1.476,1.646 2.565,3.441 3.271,5.395 0.709,1.955 1.063,4.229 1.063,6.819 0,6.177 -2.286,11.267 -6.848,15.269 -4.563,4.008 -10.226,6.006 -16.989,6.006 -3.12,0 -6.236,-0.479 -9.356,-1.45 -3.119,-0.966 -5.812,-2.144 -8.077,-3.521 l -2.117,3.597 h -3.938 l -0.689,-23.935 h 3.988 c 0.821,2.953 1.782,5.625 2.882,8.002 1.102,2.385 2.554,4.604 4.359,6.674 1.707,1.939 3.701,3.48 5.981,4.629 2.283,1.151 4.934,1.723 7.951,1.723 2.267,0 4.242,-0.294 5.936,-0.886 1.691,-0.593 3.064,-1.433 4.112,-2.513 1.05,-1.084 1.827,-2.354 2.34,-3.815 0.511,-1.458 0.765,-3.144 0.765,-5.05 0,-2.784 -0.787,-5.392 -2.361,-7.807 -1.575,-2.414 -3.922,-4.242 -7.045,-5.49 -2.135,-0.854 -4.58,-1.799 -7.338,-2.832 -2.756,-1.033 -5.138,-2.01 -7.14,-2.933 -3.938,-1.771 -7.002,-4.094 -9.186,-6.968 -2.184,-2.871 -3.273,-6.626 -3.273,-11.256 0,-2.655 0.542,-5.135 1.624,-7.436 1.084,-2.296 2.625,-4.352 4.629,-6.156 1.904,-1.704 4.154,-3.045 6.747,-4.014 2.593,-0.968 5.304,-1.452 8.125,-1.452 3.218,0 6.099,0.49 8.644,1.479 2.543,0.982 4.869,2.136 6.967,3.443 l 2.021,-3.349 h 3.94 l 0.396,23.195 h -3.988 c -0.719,-2.659 -1.533,-5.199 -2.438,-7.636 -0.901,-2.427 -2.073,-4.629 -3.521,-6.598 -1.41,-1.901 -3.135,-3.426 -5.168,-4.559 -2.037,-1.13 -4.533,-1.699 -7.485,-1.699 -3.117,0 -5.778,1.005 -7.979,3.003 -2.2,2.008 -3.3,4.452 -3.3,7.338 0,3.023 0.705,5.525 2.118,7.512 1.411,1.987 3.465,3.619 6.155,4.898 2.397,1.15 4.751,2.142 7.063,2.976 2.315,0.84 4.557,1.737 6.723,2.687 1.973,0.854 3.865,1.823 5.688,2.908 1.815,1.094 3.399,2.357 4.748,3.802 z"
           inkscape:connector-curvature="0"
           style="fill:#ff0000" /><path
           id="path6731"
           d="m 374.825,-795.494 c 0,-1.641 0.447,-2.979 1.354,-4.016 0.9,-1.035 2.023,-1.551 3.373,-1.551 1.049,0 1.951,0.192 2.709,0.592 0.754,0.396 1.428,0.906 2.02,1.524 0.492,0.49 1.021,1.167 1.576,2.019 0.559,0.857 1.002,1.564 1.328,2.119 1.645,-0.887 3.604,-3.203 5.889,-6.942 2.277,-3.745 3.936,-7.022 4.947,-9.853 -3.123,-7.778 -5.941,-14.737 -8.471,-20.881 -2.529,-6.139 -5.172,-12.49 -7.928,-19.061 -0.623,-1.506 -1.676,-2.685 -3.152,-3.522 -1.477,-0.838 -2.955,-1.369 -4.434,-1.602 v -3.25 H 396.2 v 3.447 c -0.988,0.034 -2.168,0.241 -3.547,0.615 -1.379,0.38 -2.068,0.813 -2.068,1.305 0,0.196 0.073,0.527 0.223,0.985 0.147,0.461 0.317,0.938 0.519,1.427 1.247,3.251 3.147,7.941 5.712,14.062 2.564,6.128 4.548,11.023 5.958,14.702 1.479,-3.515 3.015,-7.147 4.604,-10.907 1.594,-3.76 3.379,-8.199 5.346,-13.322 0.23,-0.621 0.563,-1.481 0.982,-2.583 0.426,-1.101 0.643,-2.045 0.643,-2.832 0,-0.852 -0.744,-1.65 -2.24,-2.39 -1.496,-0.736 -2.913,-1.19 -4.262,-1.356 v -3.151 h 18.025 v 3.057 c -0.986,0.167 -2.287,0.731 -3.892,1.697 -1.61,0.972 -2.81,2.341 -3.597,4.112 -3.908,9.063 -7.385,17.319 -10.416,24.772 -3.039,7.454 -5.344,12.937 -6.918,16.446 -2.07,4.603 -3.916,8.185 -5.541,10.763 -1.625,2.58 -3.213,4.604 -4.754,6.08 -1.512,1.381 -2.881,2.311 -4.109,2.785 -1.228,0.474 -2.508,0.714 -3.813,0.714 -2.563,0 -4.574,-0.606 -6.035,-1.819 -1.466,-1.21 -2.195,-2.61 -2.195,-4.185 z"
           inkscape:connector-curvature="0"
           style="fill:#ff0000" /><path
           id="path6733"
           d="m 449.757,-835.139 c 1.342,1.182 2.379,2.546 3.102,4.084 0.723,1.547 1.082,3.435 1.082,5.664 0,4.502 -1.684,8.177 -5.045,11.033 -3.369,2.854 -7.726,4.285 -13.078,4.285 -2.82,0 -5.428,-0.512 -7.803,-1.529 -2.384,-1.017 -4.082,-1.95 -5.1,-2.807 l -0.986,3.202 h -3.693 l -0.491,-16.896 h 3.397 c 0.26,1.279 0.817,2.778 1.676,4.479 0.854,1.708 1.886,3.249 3.104,4.629 1.278,1.448 2.812,2.66 4.604,3.646 1.787,0.982 3.798,1.48 6.031,1.48 3.15,0 5.582,-0.715 7.289,-2.146 1.703,-1.426 2.561,-3.471 2.561,-6.133 0,-1.379 -0.271,-2.563 -0.813,-3.566 -0.543,-1 -1.34,-1.876 -2.392,-2.637 -1.08,-0.756 -2.411,-1.433 -3.985,-2.043 -1.576,-0.606 -3.334,-1.207 -5.272,-1.799 -1.546,-0.459 -3.261,-1.088 -5.146,-1.896 -1.892,-0.806 -3.504,-1.752 -4.851,-2.833 -1.442,-1.146 -2.629,-2.563 -3.548,-4.235 -0.922,-1.673 -1.379,-3.644 -1.379,-5.909 0,-3.973 1.48,-7.336 4.436,-10.097 2.956,-2.758 6.906,-4.138 11.867,-4.138 1.902,0 3.852,0.246 5.834,0.735 1.984,0.497 3.605,1.085 4.854,1.773 l 1.135,-2.56 h 3.543 l 0.738,15.608 h -3.397 c -0.688,-3.479 -2.177,-6.309 -4.452,-8.496 -2.287,-2.181 -5.064,-3.273 -8.352,-3.273 -2.692,0 -4.813,0.676 -6.354,2.021 -1.544,1.351 -2.313,2.975 -2.313,4.876 0,1.479 0.252,2.709 0.763,3.693 0.51,0.986 1.272,1.82 2.29,2.513 0.986,0.659 2.229,1.275 3.722,1.847 1.488,0.574 3.339,1.228 5.539,1.945 2.171,0.688 4.212,1.497 6.134,2.412 1.914,0.934 3.499,1.955 4.749,3.068 z"
           inkscape:connector-curvature="0"
           style="fill:#ff0000" /><path
           id="path6735"
           d="m 480.756,-813.473 c -2.132,0.889 -4.151,1.637 -6.06,2.242 -1.901,0.61 -4.23,0.91 -6.989,0.91 -4.071,0 -6.937,-1.021 -8.595,-3.076 -1.658,-2.051 -2.487,-4.951 -2.487,-8.69 v -32.896 h -8.765 v -4.73 h 8.959 v -15.118 h 8.966 v 15.118 h 13.937 v 4.73 h -13.84 v 27.133 c 0,2.039 0.075,3.738 0.223,5.101 0.148,1.363 0.502,2.558 1.064,3.569 0.521,0.953 1.313,1.676 2.357,2.166 1.051,0.492 2.463,0.738 4.234,0.738 0.821,0 2.027,-0.074 3.62,-0.226 1.593,-0.146 2.718,-0.332 3.374,-0.565 z"
           inkscape:connector-curvature="0"
           style="fill:#ff0000" /><path
           id="path6737"
           d="m 518.308,-822.777 c -2.033,3.875 -4.76,6.961 -8.176,9.258 -3.414,2.299 -7.338,3.444 -11.771,3.444 -3.898,0 -7.326,-0.688 -10.266,-2.067 -2.938,-1.377 -5.357,-3.252 -7.268,-5.613 -1.9,-2.362 -3.324,-5.119 -4.26,-8.271 -0.938,-3.154 -1.401,-6.479 -1.401,-9.996 0,-3.151 0.504,-6.246 1.501,-9.285 1.001,-3.032 2.473,-5.768 4.408,-8.198 1.869,-2.327 4.193,-4.209 6.968,-5.64 2.772,-1.429 5.886,-2.142 9.329,-2.142 3.549,0 6.584,0.562 9.111,1.674 2.529,1.118 4.58,2.644 6.156,4.578 1.512,1.844 2.635,4.012 3.375,6.504 0.734,2.494 1.104,5.205 1.104,8.123 v 3.251 h -32.154 c 0,3.188 0.305,6.076 0.91,8.67 0.604,2.595 1.564,4.875 2.883,6.847 1.275,1.905 2.957,3.406 5.02,4.506 2.066,1.104 4.527,1.646 7.389,1.646 2.924,0 5.439,-0.68 7.561,-2.047 2.117,-1.354 4.162,-3.813 6.135,-7.357 z m -10.885,-18.517 c 0,-1.839 -0.154,-3.808 -0.467,-5.909 -0.309,-2.102 -0.813,-3.857 -1.502,-5.271 -0.752,-1.507 -1.785,-2.734 -3.102,-3.693 -1.316,-0.949 -3.006,-1.427 -5.074,-1.427 -3.445,0 -6.313,1.436 -8.594,4.311 -2.279,2.873 -3.521,6.868 -3.718,11.988 z"
           inkscape:connector-curvature="0"
           style="fill:#ff0000" /><path
           id="path6739"
           d="m 596.737,-811.351 h -23.689 v -3.254 c 0.756,-0.063 1.52,-0.127 2.291,-0.193 0.77,-0.064 1.449,-0.196 2.041,-0.396 0.918,-0.297 1.602,-0.813 2.045,-1.551 0.445,-0.736 0.666,-1.7 0.666,-2.879 v -25.068 c 0,-3.412 -0.781,-6.048 -2.342,-7.903 -1.561,-1.854 -3.502,-2.782 -5.832,-2.782 -1.609,0 -3.121,0.243 -4.531,0.736 -1.412,0.491 -2.709,1.18 -3.889,2.068 -0.957,0.726 -1.752,1.501 -2.395,2.339 -0.639,0.838 -1.123,1.538 -1.453,2.092 v 28.021 c 0,1.154 0.199,2.096 0.594,2.834 0.396,0.736 1.064,1.307 2.02,1.699 0.756,0.296 1.438,0.518 2.045,0.665 0.605,0.146 1.402,0.256 2.387,0.319 v 3.25 h -23.189 v -3.25 c 0.756,-0.063 1.479,-0.129 2.188,-0.195 0.703,-0.063 1.355,-0.195 1.941,-0.398 0.922,-0.295 1.602,-0.813 2.045,-1.55 0.445,-0.737 0.67,-1.698 0.67,-2.882 v -25.066 c 0,-3.412 -0.783,-6.047 -2.346,-7.903 -1.557,-1.854 -3.504,-2.783 -5.83,-2.783 -1.609,0 -3.123,0.256 -4.533,0.766 -1.412,0.515 -2.709,1.208 -3.891,2.094 -0.951,0.724 -1.756,1.536 -2.412,2.437 -0.656,0.908 -1.148,1.586 -1.48,2.044 v 27.825 c 0,1.117 0.232,2.055 0.691,2.807 0.459,0.76 1.146,1.331 2.063,1.727 0.689,0.33 1.398,0.572 2.117,0.735 0.729,0.167 1.527,0.281 2.414,0.347 v 3.252 H 513.55 v -3.252 c 0.756,-0.063 1.535,-0.127 2.344,-0.195 0.801,-0.061 1.496,-0.194 2.092,-0.396 0.918,-0.295 1.602,-0.813 2.041,-1.552 0.443,-0.735 0.664,-1.696 0.664,-2.88 v -30.188 c 0,-1.048 -0.232,-1.994 -0.713,-2.83 -0.477,-0.84 -1.141,-1.555 -1.992,-2.146 -0.625,-0.396 -1.395,-0.715 -2.313,-0.959 -0.92,-0.248 -1.871,-0.399 -2.857,-0.471 v -3.199 l 16.254,-1.083 0.688,0.688 v 6.943 h 0.346 c 0.82,-0.816 1.822,-1.79 3.004,-2.906 1.186,-1.111 2.283,-2.021 3.301,-2.707 1.148,-0.786 2.588,-1.441 4.314,-1.971 1.721,-0.521 3.586,-0.788 5.588,-0.788 3.15,0 5.857,0.847 8.125,2.535 2.27,1.693 3.895,3.737 4.875,6.133 1.184,-1.146 2.227,-2.156 3.129,-3.028 0.902,-0.868 2.094,-1.796 3.57,-2.782 1.25,-0.854 2.715,-1.543 4.408,-2.069 1.688,-0.521 3.566,-0.788 5.639,-0.788 4.104,0 7.354,1.352 9.754,4.037 2.393,2.694 3.592,6.834 3.592,12.415 v 24.671 c 0,1.151 0.195,2.092 0.596,2.832 0.395,0.735 1.064,1.31 2.02,1.698 0.756,0.296 1.5,0.518 2.238,0.667 0.74,0.145 1.566,0.254 2.488,0.317 v 3.252 h -0.006 v -0.002 z"
           inkscape:connector-curvature="0"
           style="fill:#ff0000" /></g><g
         id="text6704"
         transform="scale(1.0267638,0.97393384)"><path
           id="path6742"
           d="m 617.473,107.038 h -6.346 v -0.956 c 0.192,0 0.472,-0.028 0.835,-0.05 0.36,-0.028 0.597,-0.072 0.721,-0.133 0.2,-0.131 0.333,-0.246 0.403,-0.329 0.072,-0.086 0.11,-0.223 0.11,-0.404 v -8.27 h -0.276 l -4.474,9.736 h -0.594 l -4.35,-9.924 h -0.272 v 6.679 c 0,0.644 0.04,1.136 0.12,1.476 0.082,0.334 0.215,0.589 0.415,0.761 0.156,0.097 0.428,0.2 0.805,0.301 0.38,0.105 0.711,0.157 0.991,0.157 v 0.956 h -5.781 v -0.915 c 0.198,-0.034 0.487,-0.084 0.871,-0.135 0.384,-0.056 0.675,-0.147 0.871,-0.288 0.209,-0.152 0.348,-0.378 0.422,-0.657 0.072,-0.286 0.108,-0.807 0.108,-1.576 v -6.368 c 0,-0.293 -0.046,-0.533 -0.135,-0.732 -0.091,-0.199 -0.224,-0.37 -0.396,-0.513 -0.188,-0.145 -0.419,-0.257 -0.69,-0.32 -0.272,-0.07 -0.594,-0.114 -0.947,-0.14 v -0.935 h 5.106 l 3.869,8.655 3.23,-7.096 c 0.133,-0.31 0.234,-0.597 0.301,-0.873 0.068,-0.275 0.126,-0.502 0.154,-0.686 h 4.919 v 0.935 c -0.205,0 -0.477,0.044 -0.795,0.09 -0.329,0.05 -0.554,0.098 -0.691,0.145 -0.186,0.035 -0.301,0.119 -0.346,0.259 -0.049,0.13 -0.074,0.268 -0.074,0.406 v 8.877 c 0,0.169 0.027,0.31 0.074,0.411 0.048,0.1 0.164,0.201 0.346,0.285 0.124,0.034 0.339,0.083 0.632,0.13 0.302,0.058 0.586,0.09 0.854,0.09 v 0.956 z m -19.812,-8.952 h -0.881 c -0.127,-0.405 -0.369,-0.909 -0.744,-1.519 -0.377,-0.602 -0.736,-0.944 -1.098,-1.017 -0.261,-0.024 -0.529,-0.04 -0.786,-0.056 -0.259,0 -0.472,-0.023 -0.643,-0.023 h -0.898 v 9.611 c 0,0.17 0.029,0.315 0.086,0.43 0.055,0.116 0.183,0.22 0.375,0.306 0.124,0.039 0.348,0.085 0.679,0.154 0.333,0.068 0.637,0.098 0.913,0.098 v 0.957 h -6.471 v -0.957 c 0.243,0 0.546,-0.026 0.902,-0.062 0.356,-0.041 0.59,-0.08 0.692,-0.115 0.186,-0.061 0.306,-0.159 0.369,-0.296 0.061,-0.13 0.089,-0.268 0.089,-0.403 v -9.72 h -0.9 c -0.183,0 -0.426,0 -0.73,0.028 -0.304,0.024 -0.538,0.031 -0.696,0.044 -0.379,0.059 -0.75,0.399 -1.111,1.017 -0.363,0.62 -0.603,1.125 -0.727,1.515 H 585.2 v -3.635 h 12.456 z"
           inkscape:connector-curvature="0"
           style="fill:#ff0000" /></g></g></g></svg>