<?xml version="1.0" encoding="UTF-8" standalone="no"?>
<svg
   xmlns:dc="http://purl.org/dc/elements/1.1/"
   xmlns:cc="http://creativecommons.org/ns#"
   xmlns:rdf="http://www.w3.org/1999/02/22-rdf-syntax-ns#"
   xmlns:svg="http://www.w3.org/2000/svg"
   xmlns="http://www.w3.org/2000/svg"
   xmlns:sodipodi="http://sodipodi.sourceforge.net/DTD/sodipodi-0.dtd"
   xmlns:inkscape="http://www.inkscape.org/namespaces/inkscape"
   viewBox="0 0 533.40466 89.226564"
   height="89.226562"
   width="533.40466"
   xml:space="preserve"
   version="1.1"
   id="svg2"
   sodipodi:docname="logo.svg"
   inkscape:version="0.92.2 (5c3e80d, 2017-08-06)"><sodipodi:namedview
     pagecolor="#ffffff"
     bordercolor="#666666"
     borderopacity="1"
     objecttolerance="10"
     gridtolerance="10"
     guidetolerance="10"
     inkscape:pageopacity="0"
     inkscape:pageshadow="2"
     inkscape:window-width="1920"
     inkscape:window-height="1017"
     id="namedview62"
     showgrid="false"
     fit-margin-top="0"
     fit-margin-left="0"
     fit-margin-right="0"
     fit-margin-bottom="0"
     inkscape:zoom="0.65428704"
     inkscape:cx="266.70221"
     inkscape:cy="59.484686"
     inkscape:window-x="-8"
     inkscape:window-y="-8"
     inkscape:window-maximized="1"
     inkscape:current-layer="svg2" /><metadata
     id="metadata8"><rdf:RDF><cc:Work
         rdf:about=""><dc:format>image/svg+xml</dc:format><dc:type
           rdf:resource="http://purl.org/dc/dcmitype/StillImage" /><dc:title></dc:title></cc:Work></rdf:RDF></metadata><defs
     id="defs6"><clipPath
       id="clipPath16"
       clipPathUnits="userSpaceOnUse"><path
         id="path18"
         d="M 0,95.175 H 426.724 V 0 H 0 Z"
         inkscape:connector-curvature="0" /></clipPath></defs><g
     transform="matrix(1.25,0,0,-0.9375,-3.0662901e-4,89.226562)"
     id="g10"><g
       id="g12"><g
         clip-path="url(#clipPath16)"
         id="g14"><g
           transform="translate(157.0191,36.744)"
           id="g20"><path
             id="path22"
             style="fill:#a92d38;fill-opacity:1;fill-rule:nonzero;stroke:none"
             d="M 0,0 8.247,26.613 16.494,0 Z m 20.294,47.621 c -2.139,6.665 -6.151,9.997 -12.047,9.997 -5.94,0 -9.952,-3.332 -12.036,-9.997 l -26.012,-84.365 h 18.355 l 6.464,20.607 h 26.391 l 6.386,-20.607 h 18.5 z"
             inkscape:connector-curvature="0" /></g><g
           transform="translate(185.7835,94.3619)"
           id="g24"><path
             id="path26"
             style="fill:#a92d38;fill-opacity:1;fill-rule:nonzero;stroke:none"
             d="m 0,0 v -16.137 h 20.283 v -78.225 h 17.765 v 78.225 H 58.331 V 0 Z"
             inkscape:connector-curvature="0" /></g><g
           transform="translate(256.5298,36.744)"
           id="g28"><path
             id="path30"
             style="fill:#a92d38;fill-opacity:1;fill-rule:nonzero;stroke:none"
             d="M 0,0 8.247,26.613 16.494,0 Z m 20.283,47.621 c -2.128,6.665 -6.14,9.997 -12.036,9.997 -5.951,0 -9.963,-3.332 -12.036,-9.997 l -26.012,-84.365 h 18.355 l 6.464,20.607 h 26.38 l 6.386,-20.607 h 18.511 z"
             inkscape:connector-curvature="0" /></g><g
           transform="translate(339.6022,40.1208)"
           id="g32"><path
             id="path34"
             style="fill:#a92d38;fill-opacity:1;fill-rule:nonzero;stroke:none"
             d="m 0,0 c 6.999,2.251 12.783,6.018 17.363,11.278 4.625,5.316 6.944,11.19 6.944,17.631 0,6.932 -2.954,12.884 -8.849,17.832 -5.896,5.004 -12.65,7.5 -20.284,7.5 h -20.283 c -3.076,0 -5.751,-1.036 -8.035,-3.109 -2.274,-2.073 -3.411,-4.48 -3.411,-7.222 v -84.031 h 17.754 V 38.104 H -4.87 c 2.964,0 5.606,-1.059 7.935,-3.177 2.318,-2.117 3.477,-4.502 3.477,-7.166 0,-3.867 -2.196,-7.132 -6.587,-9.796 -2.084,-1.036 -4.101,-2.062 -6.085,-3.098 -1.972,-1.036 -4,-2.073 -6.073,-3.109 -4.391,-2.931 -6.598,-6.709 -6.598,-11.346 0,-2.485 1.56,-5.906 4.67,-10.275 L 7.144,-40.121 h 20.729 z"
             inkscape:connector-curvature="0" /></g><path
           id="path36"
           style="fill:#a92d38;fill-opacity:1;fill-rule:nonzero;stroke:none"
           d="M 373.415,0 H 391.18 V 94.362 H 373.415 Z"
           inkscape:connector-curvature="0" /><g
           transform="translate(404.705,18.5436)"
           id="g38"><path
             id="path40"
             style="fill:#a92d38;fill-opacity:1;fill-rule:nonzero;stroke:none"
             d="m 0,0 c -0.501,0.257 -0.972,0.39 -1.412,0.39 -0.767,0 -1.443,-0.421 -2.016,-1.284 -0.583,-0.801 -0.869,-1.767 -0.869,-2.887 V -18.544 H 0.205 V -6.4 l 21.814,-11.404 v 6.287 z"
             inkscape:connector-curvature="0" /></g><g
           transform="translate(421.6284,27.9328)"
           id="g42"><path
             id="path44"
             style="fill:#a92d38;fill-opacity:1;fill-rule:nonzero;stroke:none"
             d="m 0,0 c -0.859,-0.863 -1.86,-1.288 -2.989,-1.288 -0.936,0 -1.77,0.515 -2.514,1.546 -0.731,1.03 -1.103,2.202 -1.103,3.516 0,1.301 0.372,2.46 1.103,3.49 0.744,1.03 1.578,1.546 2.514,1.546 C -1.86,8.81 -0.859,8.385 0,7.522 0.962,6.581 1.45,5.332 1.45,3.774 1.45,2.241 0.962,0.979 0,0 m -10.78,0.482 c -0.685,-0.965 -1.477,-1.447 -2.366,-1.447 -1.032,0 -1.957,0.398 -2.785,1.206 -0.901,0.916 -1.345,2.097 -1.345,3.532 0,1.459 0.444,2.628 1.345,3.508 0.828,0.808 1.753,1.205 2.785,1.205 0.889,0 1.681,-0.482 2.366,-1.446 0.696,-0.965 1.044,-2.05 1.044,-3.267 0,-1.23 -0.348,-2.327 -1.044,-3.291 M 2.906,10.963 c -1.463,2.054 -3.182,3.092 -5.157,3.092 -2.363,0 -4.297,-1.027 -5.801,-3.072 -1.443,2.045 -3.162,3.072 -5.147,3.072 h -0.634 c -1.975,0 -3.694,-1.038 -5.168,-3.092 -1.483,-2.045 -2.22,-4.449 -2.22,-7.192 0,-2.743 0.737,-5.147 2.22,-7.212 1.474,-2.055 3.193,-3.092 5.168,-3.092 2.373,0 4.297,1.037 5.781,3.092 1.442,-2.055 3.161,-3.092 5.146,-3.092 h 0.655 c 1.975,0 3.694,1.037 5.157,3.092 1.463,2.086 2.19,4.49 2.19,7.212 0,2.712 -0.727,5.106 -2.19,7.192"
             inkscape:connector-curvature="0" /></g><g
           transform="translate(413.5658,49.1722)"
           id="g46"><path
             id="path48"
             style="fill:#a92d38;fill-opacity:1;fill-rule:nonzero;stroke:none"
             d="m 0,0 c -4.104,0 -7.435,3.345 -7.435,7.466 0,4.121 3.331,7.465 7.435,7.465 4.104,0 7.435,-3.344 7.435,-7.465 C 7.435,3.345 4.104,0 0,0 m 0,19.424 c -6.579,0 -11.91,-5.353 -11.91,-11.958 0,-6.606 5.331,-11.959 11.91,-11.959 6.579,0 11.91,5.353 11.91,11.959 0,6.605 -5.331,11.958 -11.91,11.958"
             inkscape:connector-curvature="0" /></g><g
           transform="translate(413.5658,74.938)"
           id="g50"><path
             id="path52"
             style="fill:#a92d38;fill-opacity:1;fill-rule:nonzero;stroke:none"
             d="m 0,0 c -4.104,0 -7.435,3.345 -7.435,7.466 0,4.121 3.331,7.465 7.435,7.465 4.104,0 7.435,-3.344 7.435,-7.465 C 7.435,3.345 4.104,0 0,0 m 0,19.424 c -6.579,0 -11.91,-5.353 -11.91,-11.958 0,-6.606 5.331,-11.959 11.91,-11.959 6.579,0 11.91,5.353 11.91,11.959 0,6.605 -5.331,11.958 -11.91,11.958"
             inkscape:connector-curvature="0" /></g><path
           id="path54"
           style="fill:#6c4d9d;fill-opacity:1;fill-rule:evenodd;stroke:none"
           d="M 65.22,0.312 H 52.704 v 9.963 H 65.22 Z"
           inkscape:connector-curvature="0" /><g
           transform="translate(118.1353,10.2754)"
           id="g56"><path
             id="path58"
             style="fill:#6c4d9d;fill-opacity:1;fill-rule:evenodd;stroke:none"
             d="m 0,0 v -10.231 c -4.993,-0.212 -9.852,0.446 -14.544,2.017 -4.725,1.583 -9.083,3.778 -12.916,6.776 -0.602,0.468 -1.215,0.948 -1.806,1.438 z"
             inkscape:connector-curvature="0" /></g><g
           transform="translate(29.3903,10.2754)"
           id="g60"><path
             id="path62"
             style="fill:#6c4d9d;fill-opacity:1;fill-rule:evenodd;stroke:none"
             d="m 0,0 c -4.023,-3.399 -8.637,-5.996 -13.764,-7.835 -4.692,-1.671 -9.517,-2.541 -14.555,-2.396 h -1.069 c 0,3.477 -0.012,6.865 0.022,10.231 z"
             inkscape:connector-curvature="0" /></g><g
           transform="translate(41.8723,25.4544)"
           id="g64"><path
             id="path66"
             style="fill:#3e6eb2;fill-opacity:1;fill-rule:evenodd;stroke:none"
             d="m 0,0 c -1.683,-3.12 -3.689,-6.074 -6.13,-8.804 -1.861,-2.084 -3.766,-4.146 -5.895,-5.996 -0.156,-0.134 -0.301,-0.256 -0.457,-0.379 h -29.366 c -0.011,0.947 0,1.883 0.011,2.831 0,0.278 0.39,0.758 0.657,0.802 3.957,0.647 7.713,1.861 11.156,3.7 2.742,1.471 5.417,3.121 7.891,4.948 1.237,0.903 2.407,1.873 3.521,2.898 z"
             inkscape:connector-curvature="0" /></g><g
           transform="translate(118.1353,13.7413)"
           id="g68"><path
             id="path70"
             style="fill:#3e6eb2;fill-opacity:1;fill-rule:evenodd;stroke:none"
             d="m 0,0 v -3.466 h -29.266 c -1.103,0.88 -2.173,1.783 -3.176,2.742 -3.054,2.953 -5.639,6.241 -7.846,9.785 -0.546,0.869 -1.059,1.761 -1.549,2.652 h 18.678 c 0.792,-0.769 1.605,-1.516 2.463,-2.207 C -14.945,4.826 -8.381,1.482 -0.713,0.19 -0.468,0.156 -0.234,0.067 0,0"
             inkscape:connector-curvature="0" /></g><path
           id="path72"
           style="fill:#3e6eb2;fill-opacity:1;fill-rule:evenodd;stroke:none"
           d="M 65.22,10.275 H 52.704 V 25.454 H 65.22 Z"
           inkscape:connector-curvature="0" /><path
           id="path74"
           style="fill:#35afdf;fill-opacity:1;fill-rule:evenodd;stroke:none"
           d="M 65.22,25.454 H 52.704 V 40.31 H 65.22 Z"
           inkscape:connector-curvature="0" /><g
           transform="translate(94.9767,25.4544)"
           id="g76"><path
             id="path78"
             style="fill:#35afdf;fill-opacity:1;fill-rule:evenodd;stroke:none"
             d="m 0,0 h -18.678 c -1.572,2.82 -2.876,5.751 -3.912,8.793 -0.68,2.006 -1.293,4.012 -1.761,6.063 h 13.128 C -9.428,11.234 -7.244,7.801 -4.447,4.703 -3.009,3.109 -1.56,1.493 0,0"
             inkscape:connector-curvature="0" /></g><g
           transform="translate(47.5004,40.3103)"
           id="g80"><path
             id="path82"
             style="fill:#35afdf;fill-opacity:1;fill-rule:evenodd;stroke:none"
             d="m 0,0 c -0.613,-2.909 -1.538,-5.74 -2.664,-8.515 -0.88,-2.173 -1.85,-4.29 -2.964,-6.341 H -24.24 c 2.764,2.485 5.16,5.294 7.256,8.336 1.448,2.107 2.797,4.269 3.945,6.52 z"
             inkscape:connector-curvature="0" /></g><g
           transform="translate(48.9269,52.5694)"
           id="g84"><path
             id="path86"
             style="fill:#9ecf81;fill-opacity:1;fill-rule:evenodd;stroke:none"
             d="m 0,0 c 0,-0.557 -0.011,-1.114 -0.011,-1.672 -0.022,-2.819 -0.602,-5.65 -1.026,-8.459 -0.111,-0.713 -0.234,-1.426 -0.39,-2.128 h -13.039 c 0.747,1.471 1.404,2.975 1.95,4.525 0.892,2.552 1.672,5.137 2.397,7.734 z"
             inkscape:connector-curvature="0" /></g><path
           id="path88"
           style="fill:#9ecf81;fill-opacity:1;fill-rule:evenodd;stroke:none"
           d="M 65.22,40.31 H 52.704 V 52.569 H 65.22 Z"
           inkscape:connector-curvature="0" /><g
           transform="translate(83.754,40.3103)"
           id="g90"><path
             id="path92"
             style="fill:#9ecf81;fill-opacity:1;fill-rule:evenodd;stroke:none"
             d="m 0,0 h -13.128 c -0.368,1.549 -0.636,3.12 -0.781,4.703 -0.234,2.519 -0.49,5.037 -0.601,7.556 h 9.941 C -3.967,9.674 -3.065,7.155 -2.073,4.647 -1.449,3.076 -0.758,1.516 0,0"
             inkscape:connector-curvature="0" /></g><g
           transform="translate(48.9826,68.5397)"
           id="g94"><path
             id="path96"
             style="fill:#fdd255;fill-opacity:1;fill-rule:evenodd;stroke:none"
             d="m 0,0 c 0,-5.327 -0.022,-10.654 -0.056,-15.97 h -10.119 c 0.301,1.092 0.591,2.173 0.869,3.265 0.457,1.75 0.68,3.6 0.702,5.405 0.034,2.43 0.056,4.87 0.078,7.3 z"
             inkscape:connector-curvature="0" /></g><g
           transform="translate(79.1847,52.5694)"
           id="g98"><path
             id="path100"
             style="fill:#fdd255;fill-opacity:1;fill-rule:evenodd;stroke:none"
             d="m 0,0 h -9.941 c -0.022,0.635 -0.045,1.271 -0.045,1.906 -0.022,4.692 -0.033,9.372 -0.033,14.064 h 8.358 c 0,-1.226 0.023,-2.452 0.034,-3.666 C -1.583,9.239 -0.981,6.185 -0.579,3.132 -0.446,2.073 -0.245,1.036 0,0"
             inkscape:connector-curvature="0" /></g><path
           id="path102"
           style="fill:#fdd255;fill-opacity:1;fill-rule:evenodd;stroke:none"
           d="M 65.22,52.569 H 52.704 v 15.97 H 65.22 Z"
           inkscape:connector-curvature="0" /><path
           id="path104"
           style="fill:#f89f5c;fill-opacity:1;fill-rule:evenodd;stroke:none"
           d="M 65.22,68.54 H 52.704 V 81.178 H 65.22 Z"
           inkscape:connector-curvature="0" /><g
           transform="translate(77.5241,68.5397)"
           id="g106"><path
             id="path108"
             style="fill:#f89f5c;fill-opacity:1;fill-rule:evenodd;stroke:none"
             d="M 0,0 H -8.359 C -8.37,4.213 -8.37,8.425 -8.37,12.638 h 8.337 C -0.045,8.414 -0.045,4.202 0,0"
             inkscape:connector-curvature="0" /></g><g
           transform="translate(48.9826,81.1778)"
           id="g110"><path
             id="path112"
             style="fill:#f89f5c;fill-opacity:1;fill-rule:evenodd;stroke:none"
             d="M 0,0 V -12.638 H -8.526 C -8.492,-8.425 -8.459,-4.213 -8.437,0 Z"
             inkscape:connector-curvature="0" /></g><g
           transform="translate(48.9715,93.7267)"
           id="g114"><path
             id="path116"
             style="fill:#ee3d57;fill-opacity:1;fill-rule:evenodd;stroke:none"
             d="m 0,0 c 0,-4.19 0,-8.37 0.011,-12.549 h -8.436 c 0.033,4.358 0.055,8.715 0.078,13.073 V 1.181 H 0 Z"
             inkscape:connector-curvature="0" /></g><g
           transform="translate(77.513,94.9192)"
           id="g118"><path
             id="path120"
             style="fill:#ee3d57;fill-opacity:1;fill-rule:evenodd;stroke:none"
             d="M 0,0 V -1.126 C 0,-5.327 -0.022,-9.54 -0.022,-13.741 h -8.337 c 0.012,4.168 0.012,8.325 0.012,12.493 V 0 Z"
             inkscape:connector-curvature="0" /></g><path
           id="path122"
           style="fill:#ee3d57;fill-opacity:1;fill-rule:evenodd;stroke:none"
           d="M 52.705,95.175 H 65.221 V 81.177 H 52.705 Z"
           inkscape:connector-curvature="0" /></g></g></g></svg>