<?xml version="1.0" encoding="UTF-8" standalone="no"?>
<!-- Generator: Adobe Illustrator 16.0.0, SVG Export Plug-In . SVG Version: 6.00 Build 0)  -->

<svg
   xmlns:dc="http://purl.org/dc/elements/1.1/"
   xmlns:cc="http://creativecommons.org/ns#"
   xmlns:rdf="http://www.w3.org/1999/02/22-rdf-syntax-ns#"
   xmlns:svg="http://www.w3.org/2000/svg"
   xmlns="http://www.w3.org/2000/svg"
   xmlns:xlink="http://www.w3.org/1999/xlink"
   xmlns:sodipodi="http://sodipodi.sourceforge.net/DTD/sodipodi-0.dtd"
   xmlns:inkscape="http://www.inkscape.org/namespaces/inkscape"
   version="1.1"
   id="svg2"
   inkscape:export-filename="/home/kivutar/Bureau/lakka-menu/reload.png"
   inkscape:export-xdpi="90"
   inkscape:version="0.92.2 (5c3e80d, 2017-08-06)"
   inkscape:export-ydpi="90"
   sodipodi:docname="logo.svg"
   x="0px"
   y="0px"
   width="252.25636"
   height="40.5"
   viewBox="0 128 252.25636 40.5"
   enable-background="new 0 128 64 64"
   xml:space="preserve"><metadata
     id="metadata8"><rdf:RDF><cc:Work
         rdf:about=""><dc:format>image/svg+xml</dc:format><dc:type
           rdf:resource="http://purl.org/dc/dcmitype/StillImage" /><dc:title /></cc:Work></rdf:RDF></metadata><defs
     id="defs6"><linearGradient
       inkscape:collect="always"
       id="linearGradient821"><stop
         style="stop-color:#cc9900;stop-opacity:1;"
         offset="0"
         id="stop817" /><stop
         style="stop-color:#cc9900;stop-opacity:0;"
         offset="1"
         id="stop819" /></linearGradient><linearGradient
       inkscape:collect="always"
       xlink:href="#linearGradient821"
       id="linearGradient825"
       x1="64.166428"
       y1="155.80267"
       x2="260.65118"
       y2="155.80267"
       gradientUnits="userSpaceOnUse" /></defs><sodipodi:namedview
     pagecolor="#ffffff"
     bordercolor="#666666"
     borderopacity="1"
     objecttolerance="10"
     gridtolerance="10"
     guidetolerance="10"
     inkscape:pageopacity="0"
     inkscape:pageshadow="2"
     inkscape:window-width="1920"
     inkscape:window-height="1017"
     id="namedview4"
     showgrid="true"
     fit-margin-top="0"
     fit-margin-left="0"
     fit-margin-right="0"
     fit-margin-bottom="0"
     inkscape:zoom="5.2149125"
     inkscape:cx="172.88664"
     inkscape:cy="34.535404"
     inkscape:window-x="-8"
     inkscape:window-y="-8"
     inkscape:window-maximized="1"
     inkscape:current-layer="svg2"><inkscape:grid
       type="xygrid"
       id="grid823"
       originx="-5.8229453"
       originy="-5.0282" /></sodipodi:namedview><g
     aria-label="CAPTURAS"
     transform="scale(1.1547005,0.86602542)"
     style="font-style:normal;font-weight:normal;font-size:34.64101791px;line-height:1.25;font-family:sans-serif;letter-spacing:0px;word-spacing:0px;fill:#006699;fill-opacity:1;stroke:none;stroke-width:0.86602539"
     id="text817"><path
       d="m 65.519771,183.60796 q -2.521866,0 -4.526427,-0.77596 -2.00456,-0.77596 -3.394819,-2.26321 -1.39026,-1.51959 -2.133887,-3.68581 -0.743627,-2.16621 -0.743627,-4.97906 0,-2.81286 0.840622,-4.97907 0.872954,-2.16622 2.360208,-3.65348 1.487254,-1.51958 3.491814,-2.29554 2.004561,-0.77596 4.300105,-0.77596 1.39026,0 2.521866,0.22632 1.131607,0.19399 1.972229,0.45264 0.840622,0.25866 1.390259,0.54964 0.549638,0.29099 0.775959,0.42031 l -1.19627,3.33016 q -0.775958,-0.48497 -2.230881,-0.90529 -1.422591,-0.45264 -3.103835,-0.45264 -1.454923,0 -2.715856,0.51731 -1.260933,0.48497 -2.19855,1.48725 -0.905285,1.00228 -1.422591,2.52187 -0.517306,1.51958 -0.517306,3.52414 0,1.77824 0.38798,3.2655 0.420311,1.48725 1.260933,2.58653 0.840622,1.06694 2.133886,1.68124 1.293265,0.58197 3.103835,0.58197 2.166219,0 3.524146,-0.42031 1.357928,-0.45264 2.101555,-0.84062 l 1.099275,3.33015 q -0.387979,0.25866 -1.066943,0.51731 -0.646632,0.25865 -1.551917,0.5173 -0.905286,0.22633 -2.036892,0.35565 -1.131607,0.16166 -2.424871,0.16166 z"
       style="font-style:normal;font-variant:normal;font-weight:500;font-stretch:normal;font-size:32.33161545px;font-family:Ubuntu;-inkscape-font-specification:'Ubuntu Medium';fill:#006699;fill-opacity:1;stroke-width:0.86602539"
       id="path822" /><path
       d="m 91.714947,183.12299 q -0.452642,-1.3256 -0.937616,-2.61887 -0.484975,-1.29326 -0.937617,-2.65119 h -9.440832 q -0.452643,1.35793 -0.937617,2.68353 -0.452642,1.29326 -0.905285,2.58653 h -4.235442 q 1.260933,-3.58881 2.39254,-6.62799 1.131606,-3.03917 2.19855,-5.75502 1.099275,-2.71586 2.166218,-5.17306 1.066943,-2.4572 2.19855,-4.84974 h 3.847462 q 1.131607,2.39254 2.19855,4.84974 1.066943,2.4572 2.133886,5.17306 1.099275,2.71585 2.230882,5.75502 1.163938,3.03918 2.424871,6.62799 z m -6.595649,-18.07338 q -0.743627,1.71358 -1.713576,4.17078 -0.937617,2.4572 -1.972228,5.33472 h 7.371608 q -1.034612,-2.87752 -2.00456,-5.36705 -0.969949,-2.48953 -1.681244,-4.13845 z"
       style="font-style:normal;font-variant:normal;font-weight:500;font-stretch:normal;font-size:32.33161545px;font-family:Ubuntu;-inkscape-font-specification:'Ubuntu Medium';fill:#006699;fill-opacity:1;stroke-width:0.86602539"
       id="path824" /><path
       d="m 105.28109,160.49086 q 4.88208,0 7.4686,1.77823 2.61887,1.77824 2.61887,5.56104 0,1.97223 -0.7113,3.39482 -0.67896,1.39026 -2.00456,2.29555 -1.3256,0.87295 -3.23316,1.29326 -1.90757,0.42031 -4.36477,0.42031 h -2.03689 v 7.88892 h -4.073785 v -22.0825 q 1.422595,-0.32331 3.136165,-0.42031 1.74591,-0.12932 3.20083,-0.12932 z m 0.29099,3.52414 q -1.55192,0 -2.5542,0.097 v 7.63026 h 1.97223 q 2.94217,0 4.52642,-0.80829 1.58425,-0.84063 1.58425,-3.13617 0,-1.09927 -0.42031,-1.8429 -0.42031,-0.74363 -1.16394,-1.16394 -0.74362,-0.42031 -1.77824,-0.58197 -1.00228,-0.19399 -2.16621,-0.19399 z"
       style="font-style:normal;font-variant:normal;font-weight:500;font-stretch:normal;font-size:32.33161545px;font-family:Ubuntu;-inkscape-font-specification:'Ubuntu Medium';fill:#006699;fill-opacity:1;stroke-width:0.86602539"
       id="path826" /><path
       d="m 134.70438,160.71718 v 3.52414 h -6.88664 v 18.88167 h -4.10611 v -18.88167 h -6.88664 v -3.52414 z"
       style="font-style:normal;font-variant:normal;font-weight:500;font-stretch:normal;font-size:32.33161545px;font-family:Ubuntu;-inkscape-font-specification:'Ubuntu Medium';fill:#006699;fill-opacity:1;stroke-width:0.86602539"
       id="path828" /><path
       d="m 146.41247,183.60796 q -2.29555,0 -3.94446,-0.64663 -1.64891,-0.67897 -2.74819,-1.87524 -1.06694,-1.19627 -1.58425,-2.81285 -0.5173,-1.61658 -0.5173,-3.55647 v -13.99959 h 4.10611 v 13.61161 q 0,1.51958 0.32332,2.61886 0.35565,1.06694 0.96995,1.7459 0.64663,0.67897 1.48725,1.00228 0.87295,0.32332 1.9399,0.32332 1.06694,0 1.9399,-0.32332 0.87295,-0.32331 1.48725,-1.00228 0.64663,-0.67896 0.96995,-1.7459 0.35565,-1.09928 0.35565,-2.61886 v -13.61161 h 4.10611 v 13.99959 q 0,1.93989 -0.54964,3.55647 -0.5173,1.61658 -1.61658,2.81285 -1.06694,1.19627 -2.74818,1.87524 -1.68125,0.64663 -3.97679,0.64663 z"
       style="font-style:normal;font-variant:normal;font-weight:500;font-stretch:normal;font-size:32.33161545px;font-family:Ubuntu;-inkscape-font-specification:'Ubuntu Medium';fill:#006699;fill-opacity:1;stroke-width:0.86602539"
       id="path830" /><path
       d="m 166.68843,160.49086 q 4.84974,0 7.40394,1.77823 2.58652,1.77824 2.58652,5.43172 0,4.55875 -4.49409,6.17533 0.6143,0.74363 1.39026,1.81057 0.77596,1.06695 1.58425,2.32788 0.80829,1.2286 1.55192,2.5542 0.74362,1.29326 1.32559,2.5542 h -4.55875 q -0.61431,-1.16394 -1.3256,-2.32788 -0.7113,-1.19627 -1.45492,-2.29555 -0.7113,-1.1316 -1.42259,-2.10155 -0.7113,-1.00228 -1.3256,-1.77824 -0.45264,0.0323 -0.77596,0.0323 -0.32332,0 -0.6143,0 h -1.97223 v 8.47089 h -4.07378 v -22.0825 q 1.48725,-0.32331 3.1685,-0.42031 1.68124,-0.12932 3.00684,-0.12932 z m 0.29098,3.52414 q -1.29326,0 -2.39254,0.097 v 7.24228 h 1.77824 q 1.48725,0 2.61886,-0.16166 1.13161,-0.16166 1.87523,-0.58197 0.77596,-0.42031 1.16394,-1.13161 0.38798,-0.71129 0.38798,-1.81057 0,-1.03461 -0.38798,-1.7459 -0.38798,-0.7113 -1.1316,-1.13161 -0.7113,-0.42031 -1.71358,-0.58197 -1.00228,-0.19399 -2.19855,-0.19399 z"
       style="font-style:normal;font-variant:normal;font-weight:500;font-stretch:normal;font-size:32.33161545px;font-family:Ubuntu;-inkscape-font-specification:'Ubuntu Medium';fill:#006699;fill-opacity:1;stroke-width:0.86602539"
       id="path832" /><path
       d="m 196.91899,183.12299 q -0.45264,-1.3256 -0.93761,-2.61887 -0.48498,-1.29326 -0.93762,-2.65119 h -9.44083 q -0.45264,1.35793 -0.93762,2.68353 -0.45264,1.29326 -0.90528,2.58653 h -4.23545 q 1.26094,-3.58881 2.39254,-6.62799 1.13161,-3.03917 2.19855,-5.75502 1.09928,-2.71586 2.16622,-5.17306 1.06695,-2.4572 2.19855,-4.84974 h 3.84746 q 1.13161,2.39254 2.19855,4.84974 1.06695,2.4572 2.13389,5.17306 1.09928,2.71585 2.23088,5.75502 1.16394,3.03918 2.42487,6.62799 z m -6.59565,-18.07338 q -0.74362,1.71358 -1.71357,4.17078 -0.93762,2.4572 -1.97223,5.33472 h 7.37161 q -1.03461,-2.87752 -2.00456,-5.36705 -0.96995,-2.48953 -1.68125,-4.13845 z"
       style="font-style:normal;font-variant:normal;font-weight:500;font-stretch:normal;font-size:32.33161545px;font-family:Ubuntu;-inkscape-font-specification:'Ubuntu Medium';fill:#006699;fill-opacity:1;stroke-width:0.86602539"
       id="path834" /><path
       d="m 210.02188,180.08381 q 2.19855,0 3.20083,-0.74362 1.00228,-0.74363 1.00228,-2.10156 0,-0.80829 -0.35565,-1.39026 -0.32332,-0.58197 -0.96995,-1.03461 -0.6143,-0.48497 -1.51958,-0.87295 -0.90529,-0.42031 -2.06923,-0.80829 -1.16394,-0.42031 -2.26321,-0.90529 -1.06694,-0.5173 -1.90757,-1.26093 -0.80829,-0.74363 -1.32559,-1.77824 -0.48498,-1.03461 -0.48498,-2.48953 0,-3.03918 2.10156,-4.75275 2.10155,-1.74591 5.72269,-1.74591 2.10156,0 3.71814,0.48497 1.64891,0.45265 2.58653,1.00228 l -1.26093,3.29783 q -1.09928,-0.6143 -2.42487,-0.93762 -1.29327,-0.32331 -2.68353,-0.32331 -1.64891,0 -2.58653,0.67896 -0.90528,0.67896 -0.90528,1.90757 0,0.74362 0.29098,1.29326 0.32332,0.51731 0.87296,0.93762 0.58196,0.42031 1.32559,0.77596 0.77596,0.35564 1.68125,0.67896 1.58424,0.58197 2.81285,1.19627 1.26093,0.58197 2.10155,1.42259 0.87295,0.80829 1.3256,1.9399 0.45264,1.09927 0.45264,2.68352 0,3.03917 -2.16622,4.72042 -2.13388,1.64891 -6.27233,1.64891 -1.39026,0 -2.5542,-0.19399 -1.13161,-0.16166 -2.03689,-0.42031 -0.87295,-0.25865 -1.51959,-0.51731 -0.64663,-0.29098 -1.03461,-0.5173 l 1.19627,-3.33016 q 0.87295,0.48498 2.36021,0.96995 1.48725,0.48497 3.58881,0.48497 z"
       style="font-style:normal;font-variant:normal;font-weight:500;font-stretch:normal;font-size:32.33161545px;font-family:Ubuntu;-inkscape-font-specification:'Ubuntu Medium';fill:#006699;fill-opacity:1;stroke-width:0.86602539"
       id="path836" /></g><path
     inkscape:connector-curvature="0"
     style="fill:#006699;fill-opacity:1;stroke-width:0.86602539"
     d="M 27,128 C 4.585,128 0,131.41621 0,148.25146 0,165.08671 4.514,168.5 27,168.5 c 22.489,0 27,-3.40654 27,-20.24854 C 54,131.40796 49.415,128 27,128 Z m 0,6.75 h 12 c 2.21,0 4,1.3425 4,3 2.21,0 4,1.3425 4,3 v 15 c 0,1.6575 -1.79,3 -4,3 H 11 c -2.21,0 -4,-1.3425 -4,-3 v -15 c 0,-1.6575 1.79,-3 4,-3 h 12 c 0,-1.6575 1.79,-3 4,-3 z m -14,6 c -1.106,0 -2,0.6705 -2,1.5 0,0.8295 0.894,1.5 2,1.5 1.106,0 2,-0.6705 2,-1.5 0,-0.8295 -0.894,-1.5 -2,-1.5 z m 20,0 c -5.524,0 -10,3.36 -10,7.5 0,4.14 4.476,7.5 10,7.5 5.524,0 10,-3.36 10,-7.5 0,-4.14 -4.476,-7.5 -10,-7.5 z m 0,3 c 3.316,0 6,2.013 6,4.5 0,2.487 -2.684,4.5 -6,4.5 -3.316,0 -6,-2.013 -6,-4.5 0,-2.487 2.684,-4.5 6,-4.5 z"
     id="Utilities" /></svg>