<?xml version="1.0" encoding="UTF-8" standalone="no"?>
<!-- Generator: Adobe Illustrator 13.0.0, SVG Export Plug-In . SVG Version: 6.00 Build 14948)  -->

<svg
   xmlns:ns="&amp;#38;ns_sfw;"
   xmlns:dc="http://purl.org/dc/elements/1.1/"
   xmlns:cc="http://creativecommons.org/ns#"
   xmlns:rdf="http://www.w3.org/1999/02/22-rdf-syntax-ns#"
   xmlns:svg="http://www.w3.org/2000/svg"
   xmlns="http://www.w3.org/2000/svg"
   xmlns:sodipodi="http://sodipodi.sourceforge.net/DTD/sodipodi-0.dtd"
   xmlns:inkscape="http://www.inkscape.org/namespaces/inkscape"
   version="1.2"
   id="Layer_3"
   x="0px"
   y="0px"
   width="192.733"
   height="244.59947"
   viewBox="0 0 192.73299 244.59946"
   xml:space="preserve"
   inkscape:version="0.92.2 (5c3e80d, 2017-08-06)"
   sodipodi:docname="controller.svg"><defs
     id="defs58" /><sodipodi:namedview
     pagecolor="#ffffff"
     bordercolor="#666666"
     borderopacity="1"
     objecttolerance="10"
     gridtolerance="10"
     guidetolerance="10"
     inkscape:pageopacity="0"
     inkscape:pageshadow="2"
     inkscape:window-width="1920"
     inkscape:window-height="1017"
     id="namedview56"
     showgrid="false"
     fit-margin-top="0"
     fit-margin-left="0"
     fit-margin-right="0"
     fit-margin-bottom="0"
     inkscape:zoom="0.48145317"
     inkscape:cx="95.979513"
     inkscape:cy="164.81264"
     inkscape:window-x="-8"
     inkscape:window-y="-8"
     inkscape:window-maximized="1"
     inkscape:current-layer="Layer_3" /><metadata
     id="metadata55"><rdf:RDF><cc:Work
         rdf:about=""><dc:format>image/svg+xml</dc:format><dc:type
           rdf:resource="http://purl.org/dc/dcmitype/StillImage" /><dc:title></dc:title></cc:Work></rdf:RDF><ns:sfw><ns:slices /><ns:sliceSourceBounds
         x="864.52"
         y="-7652"
         width="192.733"
         height="16383"
         bottomLeftOrigin="true" /></ns:sfw></metadata><path
     id="path3"
     d="M 36.121,7.5e-4 C 30.563,7.5e-4 15.492,0.7665 10,1.11525 7.192,1.29375 4.909,1.773 3.326,3.07725 1.743,4.3815 0.984,6.396 0.843,9.48 0.7,12.58725 0.485,37.473751 0.311,63.016501 0.137,88.555501 0,114.6795 0,120.0375 c 0,5.3685 0.288,29.46975 0.643,52.9845 0.177,11.75775 0.374,23.364 0.554,32.3955 0.18,9.03225 0.336,15.45075 0.466,16.98 0.375,4.43025 1.511,7.6815 3.481,10.128 1.971,2.44575 4.785,4.05525 8.315,5.15475 7.059,2.20125 17.011,2.514 30.134,4.1085 26.371,3.20325 39.869,2.79375 43.505,2.79375 h 18.537 c 3.638,0 17.112,0.4095 43.481,-2.79375 13.123,-1.5945 23.1,-1.90725 30.156,-4.1085 3.531,-1.0995 6.322,-2.709 8.295,-5.15475 1.971,-2.4465 3.105,-5.69775 3.48,-10.128 0.129,-1.52925 0.287,-7.94775 0.467,-16.98 0.178,-9.0315 0.377,-20.6385 0.553,-32.3955 0.355,-23.5155 0.666,-47.616 0.666,-52.9845 0,-5.3595 -0.158,-31.484999 -0.332,-57.026999 C 192.215,37.474501 192.024,12.588 191.881,9.47925 191.74,6.396 190.959,4.3815 189.377,3.0765 187.787,1.77225 185.51,1.293 182.699,1.1145 177.207,0.76575 162.158,0 156.601,0 h -56.92 -6.677 -56.895 0.012 z m 0,1.0635 h 56.897 6.674 56.92 c 5.381,0 20.541,0.768 25.988,1.1145 2.66,0.1695 4.498,0.58875 5.742,1.61325 1.244,1.0245 1.992,2.75625 2.129,5.721 0.135,2.94075 0.336,27.978001 0.51,53.514751 0.174,25.53825 0.332,51.662249 0.332,57.005999 0,5.3385 -0.309,29.47125 -0.664,52.9845 -0.178,11.75625 -0.375,23.349 -0.555,32.379 -0.18,9.02925 -0.348,15.53775 -0.465,16.92975 -0.367,4.32675 -1.477,7.4025 -3.283,9.645 -1.807,2.24175 -4.297,3.68475 -7.627,4.7235 -6.66,2.0745 -16.623,2.43675 -29.822,4.041 -26.278,3.192 -39.483,2.77725 -43.263,2.77725 H 87.097 c -3.778,0 -16.983,0.41475 -43.261,-2.77725 L 43.725,240.72 c -13.138,-1.59075 -23.075,-1.95525 -29.713,-4.02375 -3.33,-1.03875 -5.843,-2.48175 -7.65,-4.7235 -1.806,-2.2425 -2.915,-5.319 -3.282,-9.645 C 2.969,220.93725 2.802,214.43025 2.622,205.3995 2.442,196.368 2.246,184.7775 2.068,173.01675 1.713,149.50425 1.424,125.3715 1.424,120.03375 1.424,114.69 1.561,88.566001 1.735,63.027751 1.909,37.488001 2.132,12.4515 2.267,9.513 2.403,6.54825 3.153,4.8165 4.396,3.792 5.64,2.7675 7.478,2.34825 10.139,2.17875 15.586,1.833 30.746,1.065 36.127,1.065 Z"
     inkscape:connector-curvature="0"
     style="fill:#f4f4f4;stroke-width:0.86602539" /><path
     id="path5"
     d="m 91.909,9.79575 c -15.769,0 -64.798,0.29025 -70.646,0.432 -2.892,0.06975 -5.222,0.16725 -6.962,1.03125 -1.741,0.86325 -2.617,2.469 -2.617,5.05575 0,2.497501 -0.043,24.717001 -0.066,46.980001 -0.022,22.2555 -0.028,44.480999 0.066,47.279999 v 0.0157 c 0.093,2.7195 0.187,4.61175 1.774,6.02025 1.587,1.4085 4.415,2.12625 9.557,2.8275 5.231,0.71325 18.529,1.407 32.418,1.929 13.889,0.52125 28.284,0.864 35.544,0.864 h 10.754 c 7.26,0 21.678,-0.34275 35.567,-0.864 13.889,-0.522 27.186,-1.21575 32.418,-1.929 5.141,-0.7005 7.947,-1.41825 9.535,-2.8275 1.586,-1.4085 1.703,-3.3015 1.795,-6.02025 0.096,-2.7855 0.09,-25.032749 0.066,-47.296499 -0.023,-22.263 -0.066,-44.4825 -0.066,-46.980001 0,-2.58675 -0.875,-4.19175 -2.615,-5.05575 -1.742,-0.86325 -4.07,-0.9615 -6.963,-1.03125 -5.846,-0.141 -54.9,-0.432 -70.668,-0.432 h -8.892 0.001 z m 0,1.06425 h 8.891 c 15.746,0 64.953,0.279 70.602,0.4155 2.855,0.069 4.98,0.24975 6.252,0.88125 1.273,0.63075 1.975,1.7385 1.975,4.15725 0,2.508001 0.043,24.717751 0.066,46.980751 0.023,22.263 0.023,44.626499 -0.066,47.263499 v 0.0165 c -0.094,2.691 -0.273,4.28175 -1.465,5.3385 -1.193,1.059 -3.658,1.78875 -8.713,2.478 -4.967,0.6765 -18.369,1.39125 -32.242,1.9125 -13.871,0.5205 -28.278,0.86475 -35.477,0.86475 H 90.977 c -7.199,0 -21.606,-0.3435 -35.478,-0.86475 C 41.627,119.7825 28.225,119.0685 23.258,118.39125 18.21,117.699 15.744,116.97 14.55,115.911 c -1.193,-1.05975 -1.349,-2.6505 -1.441,-5.35425 -0.09,-2.634 -0.09,-25.000499 -0.066,-47.261999 0.023,-22.263 0.066,-44.4735 0.066,-46.980751 0,-2.41875 0.702,-3.5265 1.974,-4.15725 C 16.355,11.526 18.459,11.3445 21.314,11.2755 26.96,11.13825 76.169,10.86 91.915,10.86 Z"
     inkscape:connector-curvature="0"
     style="fill:#f4f4f4;stroke-width:0.86602539" /><path
     id="path7"
     d="m 42.108,21.669751 c -0.997,0 -1.818,0.615 -1.818,1.3635 v 72.492 c 0,0.7485 0.821,1.3635 1.818,1.3635 h 108.521 c 0.996,0 1.818,-0.615 1.818,-1.3635 v -72.492 c 0,-0.74775 -0.82,-1.3635 -1.818,-1.3635 z m 0,1.06425 h 108.521 c 0.23,0 0.398,0.12675 0.398,0.29925 v 72.492 c 0,0.174 -0.168,0.29925 -0.398,0.29925 H 42.108 c -0.23,0 -0.399,-0.126 -0.399,-0.29925 v -72.492 c -0.001,-0.1725 0.169,-0.29925 0.399,-0.29925 z"
     inkscape:connector-curvature="0"
     style="fill:#f4f4f4;stroke-width:0.86602539" /><path
     id="path9"
     d="m 83.813,200.69175 c -2.411,0 -4.614,0.17025 -6.297,0.5985 -0.842,0.2145 -1.563,0.49575 -2.106,0.89775 -0.544,0.402 -0.887,0.94875 -0.887,1.54725 0,0.6 0.343,1.14375 0.887,1.54725 0.543,0.402 1.265,0.68325 2.106,0.89775 1.683,0.429 3.886,0.58125 6.297,0.58125 2.412,0 4.614,-0.15225 6.297,-0.58125 0.841,-0.2145 1.563,-0.49575 2.106,-0.89775 0.543,-0.40275 0.887,-0.94725 0.887,-1.54725 0,-0.5985 -0.344,-1.1445 -0.887,-1.54725 -0.544,-0.402 -1.265,-0.68325 -2.106,-0.89775 -1.683,-0.429 -3.886,-0.5985 -6.297,-0.5985 z m 0,1.06425 c 2.324,0 4.411,0.171 5.832,0.5325 0.71,0.18 1.25,0.408 1.575,0.648 0.324,0.24 0.465,0.47625 0.465,0.798 0,0.32175 -0.141,0.5415 -0.465,0.7815 -0.325,0.24 -0.865,0.468 -1.575,0.64875 -1.42,0.3615 -3.508,0.53175 -5.832,0.53175 -2.324,0 -4.412,-0.17025 -5.832,-0.53175 -0.71,-0.18075 -1.251,-0.40875 -1.574,-0.64875 -0.324,-0.24 -0.466,-0.459 -0.466,-0.7815 0,-0.3225 0.142,-0.558 0.466,-0.798 0.323,-0.24 0.864,-0.468 1.574,-0.648 1.42,-0.3615 3.508,-0.5325 5.832,-0.5325 z"
     inkscape:connector-curvature="0"
     style="fill:#f4f4f4;stroke-width:0.86602539" /><path
     id="path11"
     d="m 112.734,200.69175 c -2.412,0 -4.613,0.17025 -6.297,0.5985 -0.842,0.2145 -1.563,0.49575 -2.106,0.89775 -0.543,0.402 -0.864,0.94875 -0.864,1.54725 0,0.6 0.32,1.14375 0.864,1.54725 0.544,0.402 1.265,0.68325 2.106,0.89775 1.684,0.429 3.885,0.58125 6.297,0.58125 2.412,0 4.615,-0.15225 6.298,-0.58125 0.841,-0.2145 1.563,-0.49575 2.106,-0.89775 0.543,-0.40275 0.887,-0.94725 0.887,-1.54725 0,-0.5985 -0.344,-1.1445 -0.887,-1.54725 -0.544,-0.402 -1.266,-0.68325 -2.106,-0.89775 -1.683,-0.42825 -3.886,-0.5985 -6.298,-0.5985 z m 0,1.06425 c 2.324,0 4.412,0.171 5.832,0.5325 0.711,0.18 1.25,0.408 1.574,0.648 0.324,0.24 0.466,0.47625 0.466,0.798 0,0.32175 -0.142,0.5415 -0.466,0.7815 -0.324,0.24 -0.863,0.468 -1.574,0.64875 -1.42,0.3615 -3.508,0.53175 -5.832,0.53175 -2.324,0 -4.411,-0.17025 -5.831,-0.53175 -0.71,-0.18075 -1.25,-0.40875 -1.574,-0.64875 -0.324,-0.24 -0.444,-0.459 -0.444,-0.7815 0,-0.3225 0.12,-0.558 0.444,-0.798 0.323,-0.24 0.864,-0.468 1.574,-0.648 1.42,-0.3615 3.506,-0.5325 5.831,-0.5325 z"
     inkscape:connector-curvature="0"
     style="fill:#f4f4f4;stroke-width:0.86602539" /><path
     id="path13"
     d="m 36.343,144.98475 c -2.021,0 -3.681,1.24425 -3.681,2.76075 v 8.4315 c 0,0.0825 0.007,0.0517 0,0.0825 H 21.331 c -2.022,0 -3.681,1.22775 -3.681,2.74425 v 6.17025 c 0,1.51725 1.659,2.76075 3.681,2.76075 h 11.331 v 8.49825 c 0,1.51575 1.659,2.76075 3.681,2.76075 h 8.227 c 2.021,0 3.658,-1.24425 3.658,-2.76075 v -8.41425 c 0,-0.0765 0.018,-0.0637 0.022,-0.0832 h 11.332 c 2.021,0 3.681,-1.2435 3.681,-2.76075 v -6.171 c 0,-1.5165 -1.66,-2.74425 -3.681,-2.74425 H 48.229 c -0.004,-0.0143 0,0.0165 0,-0.033 v -8.48175 c 0,-1.51575 -1.638,-2.76075 -3.659,-2.76075 h -8.227 z m 0,1.06425 h 8.227 c 1.254,0 2.239,0.7545 2.239,1.6965 v 8.48175 c 0,0.2565 0.059,0.54675 0.333,0.7815 0.274,0.2355 0.689,0.3165 1.042,0.3165 h 11.397 c 1.254,0 2.262,0.73725 2.262,1.67925 v 6.17025 c 0,0.94275 -1.007,1.6965 -2.262,1.6965 H 48.205 c -0.422,0 -0.89,0.1395 -1.131,0.399 -0.24,0.2595 -0.266,0.522 -0.266,0.74775 v 8.41575 c 0,0.9405 -0.985,1.6965 -2.239,1.6965 h -8.227 c -1.254,0 -2.262,-0.756 -2.262,-1.6965 v -8.565 c 0,-0.0952 0.044,-0.30975 -0.178,-0.582 -0.222,-0.2715 -0.705,-0.4155 -1.153,-0.4155 H 21.33 c -1.254,0 -2.262,-0.75525 -2.262,-1.6965 v -6.17025 c 0,-0.942 1.006,-1.67925 2.262,-1.67925 h 11.463 c 0.387,0 0.87,-0.15 1.087,-0.41625 0.217,-0.2655 0.199,-0.5025 0.199,-0.732 v -8.4315 c 10e-4,-0.942 1.009,-1.6965 2.264,-1.6965 z"
     inkscape:connector-curvature="0"
     style="fill:#f4f4f4;stroke-width:0.86602539" /><g
     id="g15"
     transform="matrix(1,0,0,0.75,-203.115,-10.3575)"><path
       d="m 252.496,233.333 v -6.798 -0.009 0 c 0.006,-0.841 0.686,-1.52 1.528,-1.52 v 0 c 0.267,-0.002 0.524,0.07 0.729,0.185 v 0 l 6.619,3.522 0.058,0.047 c 0.333,0.275 0.551,0.702 0.551,1.175 v 0 c 0,0.486 -0.232,0.928 -0.592,1.205 v 0 l -0.044,0.035 -6.607,3.512 c -0.216,0.112 -0.46,0.174 -0.712,0.174 v 0 c -0.844,-0.002 -1.528,-0.682 -1.53,-1.528 z m 1.421,0 c 0,0.061 0.045,0.108 0.108,0.108 v 0 c 0.022,0 0.041,-0.005 0.049,-0.009 v 0 l 6.468,-3.437 c 0.013,-0.017 0.02,-0.037 0.02,-0.061 v 0 c -0.001,-0.021 -0.006,-0.038 -0.014,-0.053 v 0 l -6.474,-3.445 c -0.017,-0.008 -0.029,-0.013 -0.049,-0.013 v 0 c -0.058,0 -0.108,0.05 -0.108,0.11 v 0 z"
       id="path12"
       inkscape:connector-curvature="0"
       style="fill:#f4f4f4" /></g><path
     id="circle19"
     d="m 40.445,157.90575 c -3.071,0 -5.565,1.88775 -5.565,4.191 0,2.3025 2.495,4.17375 5.565,4.17375 3.07,0 5.588,-1.87125 5.588,-4.17375 -0.001,-2.304 -2.518,-4.191 -5.588,-4.191 z m 0,1.06425 c 2.304,0 4.168,1.39875 4.168,3.12675 0,1.72875 -1.864,3.1095 -4.168,3.1095 -2.304,0 -4.146,-1.3815 -4.146,-3.1095 -10e-4,-1.728 1.841,-3.12675 4.146,-3.12675 z"
     inkscape:connector-curvature="0"
     style="fill:#f4f4f4;stroke-width:0.86602539" /><g
     id="g21"
     transform="matrix(1,0,0,0.75,-203.115,-10.3575)"><path
       d="m 240.167,221.001 c -0.845,0 -1.528,-0.683 -1.53,-1.528 v 0 c 0,-0.269 0.072,-0.524 0.186,-0.728 v 0 l 3.523,-6.624 0.045,-0.054 c 0.279,-0.337 0.707,-0.55 1.174,-0.55 v 0 c 0.486,0 0.928,0.229 1.207,0.59 v 0 l 0.038,0.047 3.508,6.607 c 0.112,0.213 0.174,0.459 0.174,0.711 v 0 c 0,0.846 -0.684,1.526 -1.528,1.526 v 0 h -6.088 V 221 h -0.709 z m 0,-0.709 v -0.71 z m 6.798,-0.712 c 0.06,0 0.11,-0.05 0.11,-0.107 v 0 c 0,-0.024 -0.004,-0.037 -0.011,-0.047 v 0 l -3.438,-6.473 c -0.017,-0.011 -0.037,-0.017 -0.06,-0.017 v 0 c -0.022,0.001 -0.039,0.005 -0.052,0.014 v 0 l -3.441,6.471 c -0.013,0.021 -0.015,0.031 -0.015,0.052 v 0 c 0,0.052 0.039,0.098 0.089,0.107 v 0 z"
       id="path16"
       inkscape:connector-curvature="0"
       style="fill:#f4f4f4" /></g><g
     id="g25"
     transform="matrix(1,0,0,0.75,-203.115,-10.3575)"><path
       d="m 232.38,234.678 -6.625,-3.524 -0.056,-0.046 c -0.332,-0.277 -0.549,-0.702 -0.549,-1.172 v 0 c 0,-0.487 0.232,-0.933 0.592,-1.21 v 0 l 0.052,-0.039 6.604,-3.508 c 0.213,-0.112 0.456,-0.172 0.708,-0.172 v 0 c 0.845,0 1.528,0.686 1.528,1.528 v 0 6.798 0.005 0 c -0.002,0.841 -0.685,1.521 -1.528,1.523 v 0 c -0.266,0 -0.517,-0.07 -0.726,-0.183 z m 0.671,-1.251 c 0.019,0.01 0.037,0.015 0.056,0.015 v 0 c 0.06,0 0.109,-0.05 0.109,-0.108 v 0 -6.798 c 0,-0.061 -0.049,-0.11 -0.109,-0.11 v 0 c -0.021,0 -0.038,0.005 -0.048,0.011 v 0 l -6.472,3.438 c -0.01,0.017 -0.016,0.035 -0.016,0.062 v 0 c 0,0.019 0.004,0.035 0.013,0.051 v 0 z"
       id="path19"
       inkscape:connector-curvature="0"
       style="fill:#f4f4f4" /></g><g
     id="g29"
     transform="matrix(1,0,0,0.75,-203.115,-10.3575)"><path
       d="m 242.361,247.756 -0.04,-0.048 -3.505,-6.602 c -0.116,-0.218 -0.178,-0.463 -0.178,-0.716 v 0 c 0,-0.846 0.683,-1.528 1.529,-1.53 v 0 h 6.799 v 0.711 0.71 h -6.799 c -0.058,0 -0.11,0.049 -0.11,0.109 v 0 c 0,0.019 0.006,0.035 0.012,0.046 v 0 l 3.432,6.467 c 0.019,0.014 0.041,0.021 0.065,0.021 v 0 c 0.021,0 0.038,-0.005 0.054,-0.016 v 0 l 3.439,-6.467 c 0.01,-0.017 0.014,-0.033 0.014,-0.052 v 0 c 0,-0.061 -0.05,-0.109 -0.108,-0.109 v 0 -0.71 -0.711 c 0.844,0.002 1.527,0.685 1.527,1.53 v 0 c 0,0.266 -0.068,0.519 -0.185,0.726 v 0 l -3.526,6.625 -0.043,0.055 c -0.276,0.331 -0.701,0.549 -1.172,0.549 v 0 c -0.491,0.001 -0.929,-0.236 -1.205,-0.588 z"
       id="path22"
       inkscape:connector-curvature="0"
       style="fill:#f4f4f4" /></g><path
     id="circle33"
     d="m 131.579,156.522 c -7.004,0 -12.705,4.26 -12.705,9.513 0,5.253 5.701,9.52875 12.705,9.52875 7.006,0 12.705,-4.27575 12.705,-9.52875 0,-5.253 -5.701,-9.513 -12.705,-9.513 z m 0,1.06425 c 6.238,0 11.287,3.7695 11.287,8.44875 0,4.67775 -5.049,8.4645 -11.287,8.4645 -6.236,0 -11.285,-3.78675 -11.285,-8.4645 0,-4.67925 5.049,-8.44875 11.285,-8.44875 z"
     inkscape:connector-curvature="0"
     style="fill:#f4f4f4;stroke-width:0.86602539" /><path
     id="circle35"
     d="m 166.81,147.89625 c -7.004,0 -12.705,4.275 -12.705,9.528 0,5.25375 5.701,9.52875 12.705,9.52875 7.004,0 12.684,-4.27575 12.684,-9.52875 0,-5.253 -5.68,-9.528 -12.684,-9.528 z m 0,1.06425 c 6.236,0 11.264,3.78675 11.264,8.46375 0,4.67775 -5.027,8.4645 -11.264,8.4645 -6.237,0 -11.287,-3.78675 -11.287,-8.4645 0,-4.677 5.05,-8.46375 11.287,-8.46375 z"
     inkscape:connector-curvature="0"
     style="fill:#f4f4f4;stroke-width:0.86602539" /><path
     id="circle37"
     d="m 142.911,207.28125 c -1.186,0 -2.172,0.723 -2.172,1.6125 0,0.88875 0.986,1.62975 2.172,1.62975 1.186,0 2.152,-0.741 2.152,-1.62975 0.001,-0.89025 -0.966,-1.6125 -2.152,-1.6125 z"
     inkscape:connector-curvature="0"
     style="fill:#f4f4f4;stroke-width:0.86602539" /><path
     id="circle39"
     d="m 142.911,215.3115 c -1.186,0 -2.172,0.74025 -2.172,1.62975 0,0.88875 0.986,1.6125 2.172,1.6125 1.186,0 2.152,-0.7245 2.152,-1.6125 0.001,-0.8895 -0.966,-1.62975 -2.152,-1.62975 z"
     inkscape:connector-curvature="0"
     style="fill:#f4f4f4;stroke-width:0.86602539" /><path
     id="circle41"
     d="m 142.911,223.362 c -1.186,0 -2.172,0.7245 -2.172,1.61325 0,0.88875 0.986,1.62975 2.172,1.62975 1.186,0 2.152,-0.74025 2.152,-1.62975 0,-0.8895 -0.966,-1.61325 -2.152,-1.61325 z"
     inkscape:connector-curvature="0"
     style="fill:#f4f4f4;stroke-width:0.86602539" /><path
     id="circle43"
     d="m 148.474,202.69275 c -1.186,0 -2.172,0.7245 -2.172,1.6125 0,0.888 0.986,1.62975 2.172,1.62975 1.186,0 2.152,-0.741 2.152,-1.62975 0,-0.88875 -0.967,-1.6125 -2.152,-1.6125 z"
     inkscape:connector-curvature="0"
     style="fill:#f4f4f4;stroke-width:0.86602539" /><path
     id="circle45"
     d="m 148.474,210.65475 c -1.186,0 -2.172,0.741 -2.172,1.62975 0,0.88875 0.986,1.61325 2.172,1.61325 1.186,0 2.152,-0.72525 2.152,-1.61325 0,-0.888 -0.967,-1.62975 -2.152,-1.62975 z"
     inkscape:connector-curvature="0"
     style="fill:#f4f4f4;stroke-width:0.86602539" /><path
     id="circle47"
     d="m 148.474,218.637 c -1.186,0 -2.172,0.7245 -2.172,1.6125 0,0.8895 0.986,1.62975 2.172,1.62975 1.186,0 2.152,-0.74025 2.152,-1.62975 0,-0.888 -0.967,-1.6125 -2.152,-1.6125 z"
     inkscape:connector-curvature="0"
     style="fill:#f4f4f4;stroke-width:0.86602539" /><path
     id="circle49"
     d="m 148.474,226.60275 c -1.186,0 -2.172,0.7245 -2.172,1.6125 0,0.89025 0.986,1.6305 2.172,1.6305 1.186,0 2.152,-0.74025 2.152,-1.6305 0,-0.888 -0.967,-1.6125 -2.152,-1.6125 z"
     inkscape:connector-curvature="0"
     style="fill:#f4f4f4;stroke-width:0.86602539" /><path
     id="circle51"
     d="m 153.839,206.06625 c -1.186,0 -2.15,0.741 -2.15,1.62975 0,0.89025 0.965,1.61325 2.15,1.61325 1.185,0 2.172,-0.72375 2.172,-1.61325 0,-0.888 -0.986,-1.62975 -2.172,-1.62975 z"
     inkscape:connector-curvature="0"
     style="fill:#f4f4f4;stroke-width:0.86602539" /><path
     id="circle53"
     d="m 153.839,214.04925 c -1.186,0 -2.15,0.7245 -2.15,1.6125 0,0.89025 0.965,1.62975 2.15,1.62975 1.185,0 2.172,-0.7395 2.172,-1.62975 0,-0.888 -0.986,-1.6125 -2.172,-1.6125 z"
     inkscape:connector-curvature="0"
     style="fill:#f4f4f4;stroke-width:0.86602539" /><path
     id="circle55"
     d="m 153.839,222.01575 c -1.186,0 -2.15,0.741 -2.15,1.6305 0,0.88875 0.965,1.6125 2.15,1.6125 1.185,0 2.172,-0.7245 2.172,-1.6125 0,-0.8895 -0.986,-1.6305 -2.172,-1.6305 z"
     inkscape:connector-curvature="0"
     style="fill:#f4f4f4;stroke-width:0.86602539" /><path
     id="circle57"
     d="m 153.839,229.983 c -1.186,0 -2.15,0.7395 -2.15,1.62975 0,0.88875 0.965,1.61325 2.15,1.61325 1.185,0 2.172,-0.72525 2.172,-1.61325 0,-0.89025 -0.986,-1.62975 -2.172,-1.62975 z"
     inkscape:connector-curvature="0"
     style="fill:#f4f4f4;stroke-width:0.86602539" /><path
     id="circle59"
     d="m 159.515,201.2085 c -1.186,0 -2.15,0.72375 -2.15,1.61325 0,0.88875 0.965,1.62975 2.15,1.62975 1.185,0 2.174,-0.741 2.174,-1.62975 0,-0.8895 -0.989,-1.61325 -2.174,-1.61325 z"
     inkscape:connector-curvature="0"
     style="fill:#f4f4f4;stroke-width:0.86602539" /><path
     id="circle61"
     d="m 159.515,209.17425 c -1.186,0 -2.15,0.741 -2.15,1.62975 0,0.89025 0.965,1.61325 2.15,1.61325 1.185,0 2.174,-0.72375 2.174,-1.61325 0,-0.88875 -0.989,-1.62975 -2.174,-1.62975 z"
     inkscape:connector-curvature="0"
     style="fill:#f4f4f4;stroke-width:0.86602539" /><path
     id="circle63"
     d="m 159.515,217.1415 c -1.186,0 -2.15,0.741 -2.15,1.62975 0,0.88875 0.965,1.6125 2.15,1.6125 1.185,0 2.174,-0.7245 2.174,-1.6125 0,-0.888 -0.989,-1.62975 -2.174,-1.62975 z"
     inkscape:connector-curvature="0"
     style="fill:#f4f4f4;stroke-width:0.86602539" /><path
     id="circle65"
     d="m 159.515,225.1245 c -1.186,0 -2.15,0.7245 -2.15,1.6125 0,0.888 0.965,1.62975 2.15,1.62975 1.185,0 2.174,-0.741 2.174,-1.62975 0,-0.88875 -0.989,-1.6125 -2.174,-1.6125 z"
     inkscape:connector-curvature="0"
     style="fill:#f4f4f4;stroke-width:0.86602539" /><path
     id="circle67"
     d="m 164.773,204.4545 c -1.184,0 -2.15,0.7245 -2.15,1.6125 0,0.8895 0.967,1.6305 2.15,1.6305 1.186,0 2.174,-0.741 2.174,-1.6305 0,-0.888 -0.989,-1.6125 -2.174,-1.6125 z"
     inkscape:connector-curvature="0"
     style="fill:#f4f4f4;stroke-width:0.86602539" /><path
     id="circle69"
     d="m 164.773,212.421 c -1.184,0 -2.15,0.74025 -2.15,1.6305 0,0.88875 0.967,1.6125 2.15,1.6125 1.186,0 2.174,-0.7245 2.174,-1.6125 0,-0.89025 -0.989,-1.6305 -2.174,-1.6305 z"
     inkscape:connector-curvature="0"
     style="fill:#f4f4f4;stroke-width:0.86602539" /><path
     id="circle71"
     d="m 164.773,220.404 c -1.184,0 -2.15,0.72375 -2.15,1.61325 0,0.88875 0.967,1.6125 2.15,1.6125 1.186,0 2.174,-0.7245 2.174,-1.6125 0,-0.89025 -0.989,-1.61325 -2.174,-1.61325 z"
     inkscape:connector-curvature="0"
     style="fill:#f4f4f4;stroke-width:0.86602539" /><path
     id="circle73"
     d="m 164.773,228.3645 c -1.184,0 -2.15,0.7245 -2.15,1.61325 0,0.88875 0.967,1.62975 2.15,1.62975 1.186,0 2.174,-0.741 2.174,-1.62975 0,-0.88875 -0.989,-1.61325 -2.174,-1.61325 z"
     inkscape:connector-curvature="0"
     style="fill:#f4f4f4;stroke-width:0.86602539" /><path
     id="circle75"
     d="m 170.23,199.54725 c -1.186,0 -2.172,0.7245 -2.172,1.61325 0,0.88875 0.986,1.6125 2.172,1.6125 1.186,0 2.15,-0.7245 2.15,-1.6125 0,-0.88875 -0.965,-1.61325 -2.15,-1.61325 z"
     inkscape:connector-curvature="0"
     style="fill:#f4f4f4;stroke-width:0.86602539" /><path
     id="circle77"
     d="m 170.23,207.5145 c -1.186,0 -2.172,0.7245 -2.172,1.6125 0,0.8895 0.986,1.62975 2.172,1.62975 1.186,0 2.15,-0.74025 2.15,-1.62975 0,-0.888 -0.965,-1.6125 -2.15,-1.6125 z"
     inkscape:connector-curvature="0"
     style="fill:#f4f4f4;stroke-width:0.86602539" /><path
     id="circle79"
     d="m 170.23,215.481 c -1.186,0 -2.172,0.74025 -2.172,1.6305 0,0.88875 0.986,1.6125 2.172,1.6125 1.186,0 2.15,-0.7245 2.15,-1.6125 0,-0.89025 -0.965,-1.6305 -2.15,-1.6305 z"
     inkscape:connector-curvature="0"
     style="fill:#f4f4f4;stroke-width:0.86602539" /><path
     id="circle81"
     d="m 170.23,223.44675 c -1.186,0 -2.172,0.741 -2.172,1.6305 0,0.8895 0.986,1.6125 2.172,1.6125 1.186,0 2.15,-0.72375 2.15,-1.6125 0,-0.88875 -0.965,-1.6305 -2.15,-1.6305 z"
     inkscape:connector-curvature="0"
     style="fill:#f4f4f4;stroke-width:0.86602539" /><path
     id="circle83"
     d="m 175.531,202.55475 c -1.186,0 -2.15,0.7245 -2.15,1.6125 0,0.8895 0.965,1.62975 2.15,1.62975 1.184,0 2.172,-0.74025 2.172,-1.62975 -0.001,-0.888 -0.989,-1.6125 -2.172,-1.6125 z"
     inkscape:connector-curvature="0"
     style="fill:#f4f4f4;stroke-width:0.86602539" /><path
     id="circle85"
     d="m 175.531,210.52125 c -1.186,0 -2.15,0.72375 -2.15,1.61325 0,0.88875 0.965,1.62975 2.15,1.62975 1.184,0 2.172,-0.741 2.172,-1.62975 -0.001,-0.8895 -0.989,-1.61325 -2.172,-1.61325 z"
     inkscape:connector-curvature="0"
     style="fill:#f4f4f4;stroke-width:0.86602539" /><path
     id="circle87"
     d="m 175.531,218.487 c -1.186,0 -2.15,0.741 -2.15,1.6305 0,0.8895 0.965,1.6125 2.15,1.6125 1.184,0 2.172,-0.72375 2.172,-1.6125 0,-0.88875 -0.989,-1.6305 -2.172,-1.6305 z"
     inkscape:connector-curvature="0"
     style="fill:#f4f4f4;stroke-width:0.86602539" /><path
     id="circle89"
     d="m 180.853,205.4175 c -1.188,0 -2.174,0.74025 -2.174,1.6305 0,0.88875 0.986,1.6125 2.174,1.6125 1.184,0 2.15,-0.7245 2.15,-1.6125 0,-0.8895 -0.967,-1.6305 -2.15,-1.6305 z"
     inkscape:connector-curvature="0"
     style="fill:#f4f4f4;stroke-width:0.86602539" /><path
     id="circle91"
     d="m 180.853,213.4005 c -1.188,0 -2.174,0.7245 -2.174,1.61325 0,0.88875 0.986,1.62975 2.174,1.62975 1.184,0 2.15,-0.741 2.15,-1.62975 0,-0.8895 -0.967,-1.61325 -2.15,-1.61325 z"
     inkscape:connector-curvature="0"
     style="fill:#f4f4f4;stroke-width:0.86602539" /><path
     id="circle93"
     d="m 180.853,221.36625 c -1.188,0 -2.174,0.741 -2.174,1.6305 0,0.8895 0.986,1.6125 2.174,1.6125 1.184,0 2.15,-0.72375 2.15,-1.6125 0,-0.88875 -0.967,-1.6305 -2.15,-1.6305 z"
     inkscape:connector-curvature="0"
     style="fill:#f4f4f4;stroke-width:0.86602539" /><path
     id="circle95"
     d="m 175.531,226.47 c -1.186,0 -2.15,0.7245 -2.15,1.61325 0,0.88875 0.965,1.62975 2.15,1.62975 1.184,0 2.172,-0.74025 2.172,-1.62975 0,-0.8895 -0.989,-1.61325 -2.172,-1.61325 z"
     inkscape:connector-curvature="0"
     style="fill:#f4f4f4;stroke-width:0.86602539" /></svg>