<?xml version="1.0" encoding="UTF-8" standalone="no"?>
<!-- Generator: Adobe Illustrator 13.0.0, SVG Export Plug-In . SVG Version: 6.00 Build 14948)  -->

<svg
   xmlns:ns="&amp;#38;ns_sfw;"
   xmlns:dc="http://purl.org/dc/elements/1.1/"
   xmlns:cc="http://creativecommons.org/ns#"
   xmlns:rdf="http://www.w3.org/1999/02/22-rdf-syntax-ns#"
   xmlns:svg="http://www.w3.org/2000/svg"
   xmlns="http://www.w3.org/2000/svg"
   xmlns:sodipodi="http://sodipodi.sourceforge.net/DTD/sodipodi-0.dtd"
   xmlns:inkscape="http://www.inkscape.org/namespaces/inkscape"
   version="1.2"
   id="Layer_3"
   x="0px"
   y="0px"
   width="184.79601"
   height="229.14674"
   viewBox="0 0 184.796 229.14673"
   xml:space="preserve"
   inkscape:version="0.92.2 (5c3e80d, 2017-08-06)"
   sodipodi:docname="controller.svg"><defs
     id="defs43" /><sodipodi:namedview
     pagecolor="#ffffff"
     bordercolor="#666666"
     borderopacity="1"
     objecttolerance="10"
     gridtolerance="10"
     guidetolerance="10"
     inkscape:pageopacity="0"
     inkscape:pageshadow="2"
     inkscape:window-width="1920"
     inkscape:window-height="1017"
     id="namedview41"
     showgrid="false"
     fit-margin-top="0"
     fit-margin-left="0"
     fit-margin-right="0"
     fit-margin-bottom="0"
     inkscape:zoom="0.48145317"
     inkscape:cx="92.734513"
     inkscape:cy="155.42201"
     inkscape:window-x="-8"
     inkscape:window-y="-8"
     inkscape:window-maximized="1"
     inkscape:current-layer="Layer_3" /><metadata
     id="metadata55"><rdf:RDF><cc:Work
         rdf:about=""><dc:format>image/svg+xml</dc:format><dc:type
           rdf:resource="http://purl.org/dc/dcmitype/StillImage" /><dc:title></dc:title></cc:Work></rdf:RDF><ns:sfw><ns:slices /><ns:sliceSourceBounds
         x="867.765"
         y="-7652"
         width="184.796"
         height="16383"
         bottomLeftOrigin="true" /></ns:sfw></metadata><path
     id="path3"
     d="m 31.308,137.92125 c -1.735,0 -3.158,1.068 -3.158,2.3685 v 8.4075 c 0,0.0292 0.002,-0.001 0,0.0157 H 16.92 c -1.735,0 -3.158,1.06725 -3.158,2.3685 v 9.0495 c 0,1.30125 1.423,2.3685 3.158,2.3685 h 11.23 c 0.004,0.0232 0,-0.009 0,0.0315 v 8.39175 c 0,1.30125 1.423,2.3685 3.158,2.3685 h 12.066 c 1.734,0 3.159,-1.06725 3.159,-2.3685 v -8.39175 c 0,-0.057 -0.005,-0.012 0,-0.0315 h 11.229 c 1.736,0 3.159,-1.06725 3.159,-2.3685 v -9.0495 c 0,-1.30125 -1.423,-2.3685 -3.159,-2.3685 H 46.553 c -0.032,0 0,0.002 -0.021,0 v -8.4225 c 0,-1.3005 -1.424,-2.3685 -3.158,-2.3685 H 31.308 Z m 0,1.00425 h 12.066 c 1.011,0 1.82,0.60675 1.82,1.36425 v 8.454 c 0,0.29325 0.163,0.60975 0.48,0.7845 0.318,0.17325 0.634,0.18825 0.879,0.18825 h 11.209 c 1.013,0 1.82,0.606 1.82,1.36425 v 9.05025 c 0,0.759 -0.808,1.36425 -1.82,1.36425 H 46.533 c -0.354,-7.5e-4 -0.774,0.0555 -1.046,0.29775 -0.272,0.24225 -0.293,0.50925 -0.293,0.73725 v 8.391 c 0,0.75975 -0.809,1.36425 -1.82,1.36425 H 31.308 c -1.011,0 -1.82,-0.60525 -1.82,-1.36425 v -8.391 c 0,-0.189 0.029,-0.4185 -0.209,-0.675 -0.236,-0.25575 -0.678,-0.36075 -1.065,-0.36075 H 16.92 c -1.012,0 -1.819,-0.606 -1.819,-1.36425 V 151.08 c 0,-0.759 0.807,-1.36425 1.819,-1.36425 h 11.293 c 0.297,0 0.656,-0.045 0.941,-0.26625 0.285,-0.22125 0.335,-0.49725 0.335,-0.753 v -8.40675 c 10e-4,-0.759 0.809,-1.365 1.819,-1.36425 z"
     inkscape:connector-curvature="0"
     style="fill:#f4f4f4;stroke-width:0.86602539" /><path
     id="path5"
     d="m 32.73,138.99075 c -1.735,0 -3.158,1.06725 -3.158,2.3685 v 8.40675 c 0,0.0285 0.002,-7.5e-4 0,0.0157 h -11.23 c -1.734,0 -3.158,1.068 -3.158,2.3685 v 6.91725 c 0,1.3005 1.424,2.3685 3.158,2.3685 h 11.23 c 0.004,0.0232 0,-0.009 0,0.0315 v 8.391 c 0,1.3005 1.423,2.3685 3.158,2.3685 h 9.243 c 1.734,0 3.137,-1.068 3.137,-2.3685 v -8.391 c 0,-0.0577 -0.004,-0.0135 0,-0.0315 h 11.23 c 1.735,0 3.159,-1.068 3.159,-2.3685 v -6.91725 c 0,-1.30125 -1.424,-2.3685 -3.159,-2.3685 H 45.131 c -0.033,0 -10e-4,0.002 -0.021,0 v -8.4225 c 0,-1.30125 -1.402,-2.3685 -3.137,-2.3685 H 32.73 Z m 0,1.0035 h 9.243 c 1.011,0 1.799,0.606 1.799,1.365 v 8.454 c 0,0.2925 0.162,0.60975 0.48,0.78375 0.319,0.174 0.636,0.189 0.879,0.189 H 56.34 c 1.012,0 1.82,0.606 1.82,1.36425 v 6.91725 c 0,0.75825 -0.809,1.36425 -1.82,1.36425 H 45.111 c -0.354,0 -0.774,0.0555 -1.045,0.29775 -0.271,0.24225 -0.294,0.5085 -0.294,0.73725 v 8.391 c 0,0.75825 -0.788,1.36425 -1.799,1.36425 H 32.73 c -1.011,0 -1.82,-0.60675 -1.82,-1.36425 v -8.391 c 0,-0.189 0.029,-0.4185 -0.209,-0.67425 -0.238,-0.2565 -0.7,-0.36075 -1.087,-0.36075 H 18.342 c -1.012,0 -1.819,-0.606 -1.819,-1.36425 v -6.91725 c 0,-0.759 0.808,-1.36425 1.819,-1.36425 h 11.272 c 0.297,0 0.676,-0.045 0.962,-0.26625 0.285,-0.22275 0.334,-0.49725 0.334,-0.75375 v -8.40675 c 0,-0.75975 0.809,-1.365 1.82,-1.365 z"
     inkscape:connector-curvature="0"
     style="fill:#f4f4f4;stroke-width:0.86602539" /><path
     id="path7"
     d="m 73.971,183.62625 c -0.468,0.0157 -0.933,0.0915 -1.381,0.25125 l -15.309,5.4765 c -1.787,0.639 -2.547,2.26575 -1.694,3.60825 0.853,1.33875 3.002,1.90875 4.789,1.26975 l 15.309,-5.47425 c 1.786,-0.639 2.566,-2.25075 1.716,-3.59175 -0.64,-1.005 -2.029,-1.5825 -3.431,-1.5375 z m 0.063,1.00425 c 0.88,-0.0307 1.749,0.3195 2.154,0.95625 0.54,0.85125 0.067,1.854 -1.066,2.25975 L 59.813,193.32 c -1.135,0.40575 -2.471,0.0503 -3.013,-0.7995 -0.541,-0.85125 -0.067,-1.8525 1.067,-2.25825 l 15.309,-5.475 c 0.283,-0.10125 0.565,-0.14625 0.858,-0.15675 z"
     inkscape:connector-curvature="0"
     style="fill:#f4f4f4;stroke-width:0.86602539" /><path
     id="path9"
     d="m 73.87,181.79475 c -0.823,0.0127 -1.649,0.141 -2.447,0.408 l -15.037,5.03475 c -3.188,1.06875 -4.624,3.88275 -3.2,6.273 1.425,2.391 5.198,3.4695 8.387,2.4 l 15.016,-5.034 c 3.188,-1.0695 4.625,-3.8835 3.2,-6.2745 -1.069,-1.79325 -3.45,-2.84325 -5.919,-2.80725 z m 0.041,1.00425 c 1.948,-0.0307 3.818,0.7905 4.664,2.21175 1.13,1.89525 -0.002,4.10925 -2.53,4.956 l -15.019,5.02875 c -2.529,0.8475 -5.479,-0.003 -6.608,-1.8975 -1.129,-1.896 0.003,-4.10925 2.53,-4.956 l 15.016,-5.03475 c 0.633,-0.2115 1.297,-0.30375 1.945,-0.31425 z"
     inkscape:connector-curvature="0"
     style="fill:#f4f4f4;stroke-width:0.86602539" /><path
     id="path11"
     d="m 105.76,183.62625 c -0.468,0.0157 -0.934,0.0915 -1.38,0.25125 l -15.31,5.47425 c -1.786,0.63975 -2.546,2.2665 -1.693,3.60825 0.852,1.33875 3.002,1.90875 4.788,1.2705 l 15.31,-5.47425 c 1.787,-0.6405 2.545,-2.25225 1.694,-3.5925 -0.639,-1.005 -2.008,-1.58175 -3.409,-1.5375 z m 0.063,1.00425 c 0.88,-0.0307 1.749,0.3195 2.154,0.95625 0.54,0.8505 0.067,1.854 -1.066,2.25975 l -15.31,5.4735 c -1.134,0.40575 -2.471,0.0503 -3.011,-0.7995 -0.542,-0.85125 -0.068,-1.8525 1.066,-2.25825 l 15.309,-5.475 c 0.283,-0.10125 0.565,-0.14625 0.858,-0.15675 z"
     inkscape:connector-curvature="0"
     style="fill:#f4f4f4;stroke-width:0.86602539" /><path
     id="path13"
     d="m 105.66,181.79475 c -0.823,0.0127 -1.649,0.141 -2.447,0.408 l -15.038,5.03475 c -3.188,1.06875 -4.623,3.88275 -3.199,6.273 1.425,2.391 5.178,3.4695 8.366,2.4 l 15.036,-5.034 c 3.188,-1.0695 4.624,-3.8835 3.2,-6.2745 -1.069,-1.79325 -3.45,-2.84325 -5.918,-2.80725 z m 0.021,1.00425 c 1.947,-0.0307 3.816,0.7905 4.663,2.21175 1.13,1.89525 0.018,4.10925 -2.511,4.956 l -15.037,5.02875 c -2.526,0.8475 -5.458,-0.003 -6.587,-1.8975 -1.13,-1.896 -0.02,-4.10925 2.51,-4.956 l 15.036,-5.03475 c 0.633,-0.2115 1.275,-0.30375 1.925,-0.31425 z"
     inkscape:connector-curvature="0"
     style="fill:#f4f4f4;stroke-width:0.86602539" /><path
     id="path15"
     d="m 115.551,203.202 c -0.362,0.027 -0.729,0.11175 -1.067,0.25125 -1.349,0.5535 -1.849,1.84275 -1.107,2.8545 l 12.695,17.3325 c 0.739,1.01175 2.436,1.386 3.785,0.83025 1.349,-0.55425 1.849,-1.82775 1.107,-2.83875 L 118.282,204.285 c -0.554,-0.75975 -1.653,-1.16325 -2.74,-1.0815 z m 0.691,1.03575 c 0.356,0.078 0.683,0.2655 0.877,0.53325 l 12.676,17.33625 c 0.393,0.53625 0.148,1.197 -0.564,1.49025 -0.715,0.29475 -1.595,0.11175 -1.986,-0.42375 l -12.674,-17.3475 c -0.393,-0.53475 -0.15,-1.197 0.564,-1.4895 0.356,-0.147 0.751,-0.17175 1.107,-0.0945 z"
     inkscape:connector-curvature="0"
     style="fill:#f4f4f4;stroke-width:0.86602539" /><path
     id="path17"
     d="m 124.665,199.458 c -0.361,0.027 -0.729,0.11175 -1.066,0.25125 -1.35,0.5535 -1.85,1.84275 -1.108,2.8545 l 12.674,17.33175 c 0.74,1.0125 2.458,1.4025 3.807,0.8475 1.35,-0.55425 1.849,-1.84275 1.108,-2.8545 l -12.674,-17.34825 c -0.555,-0.759 -1.655,-1.164 -2.741,-1.08225 z m 0.692,1.035 c 0.356,0.078 0.682,0.2655 0.877,0.53325 l 12.674,17.34825 c 0.393,0.5355 0.129,1.18125 -0.585,1.47525 -0.715,0.294 -1.596,0.11175 -1.987,-0.42375 l -12.673,-17.34825 c -0.393,-0.53475 -0.129,-1.197 0.585,-1.4895 0.357,-0.1485 0.75,-0.174 1.109,-0.0953 z"
     inkscape:connector-curvature="0"
     style="fill:#f4f4f4;stroke-width:0.86602539" /><path
     id="path19"
     d="m 133.767,195.723 c -0.361,0.027 -0.729,0.0967 -1.066,0.2355 -1.349,0.5535 -1.849,1.842 -1.108,2.8545 l 12.694,17.34825 c 0.737,1.00725 2.439,1.37625 3.785,0.83025 0.01,-0.003 0.013,-0.012 0.021,-0.0157 1.33,-0.56025 1.845,-1.833 1.108,-2.83875 l -12.694,-17.3483 c -0.554,-0.7575 -1.653,-1.14675 -2.74,-1.06575 z m 0.69,1.02 c 0.358,0.078 0.683,0.2655 0.879,0.53325 l 12.674,17.34825 c 0.393,0.53625 0.15,1.197 -0.565,1.4895 -0.713,0.29475 -1.596,0.096 -1.986,-0.43875 L 132.785,198.327 c -0.393,-0.5355 -0.149,-1.197 0.564,-1.4895 0.358,-0.1485 0.752,-0.1725 1.108,-0.0945 z"
     inkscape:connector-curvature="0"
     style="fill:#f4f4f4;stroke-width:0.86602539" /><path
     id="path21"
     d="m 142.882,191.97375 c -0.361,0.027 -0.729,0.0967 -1.066,0.23475 -1.349,0.555 -1.849,1.84425 -1.108,2.85525 l 12.674,17.34825 c 0.739,1.011 2.458,1.38675 3.807,0.831 1.351,-0.55425 1.849,-1.84275 1.109,-2.85525 L 145.615,193.0515 c -0.556,-0.75975 -1.654,-1.164 -2.74,-1.08225 z m 0.691,1.03575 c 0.357,0.078 0.683,0.24975 0.879,0.51675 l 12.674,17.34825 c 0.393,0.53625 0.129,1.19625 -0.585,1.4895 -0.715,0.294 -1.596,0.0968 -1.987,-0.4395 l -12.669,-17.346 c -0.392,-0.5355 -0.128,-1.1805 0.585,-1.4745 0.358,-0.147 0.751,-0.1725 1.109,-0.0945 z"
     inkscape:connector-curvature="0"
     style="fill:#f4f4f4;stroke-width:0.86602539" /><path
     id="path23"
     d="m 151.978,188.2245 c -0.356,0.0263 -0.715,0.11625 -1.046,0.25125 -0.006,0.002 -0.016,-0.003 -0.021,0 v 0.0157 c -1.329,0.5595 -1.844,1.818 -1.108,2.82375 l 12.695,17.3475 c 0.739,1.0125 2.457,1.38675 3.807,0.831 1.348,-0.555 1.848,-1.84275 1.108,-2.85525 l -12.696,-17.331 c -0.556,-0.759 -1.655,-1.164 -2.739,-1.083 z m 0.711,1.035 c 0.357,0.078 0.661,0.24975 0.857,0.5175 l 12.674,17.34825 c 0.393,0.53625 0.15,1.1955 -0.564,1.49025 -0.715,0.29325 -1.596,0.096 -1.987,-0.4395 l -12.675,-17.32725 c -0.393,-0.53625 -0.15,-1.197 0.564,-1.49025 0.356,-0.14625 0.771,-0.17175 1.129,-0.0937 z"
     inkscape:connector-curvature="0"
     style="fill:#f4f4f4;stroke-width:0.86602539" /><path
     id="path25"
     d="m 161.099,184.47525 c -0.361,0.027 -0.729,0.11175 -1.066,0.2505 -1.349,0.555 -1.85,1.8435 -1.108,2.85525 l 12.675,17.33175 c 0.738,1.01175 2.456,1.38675 3.806,0.831 1.349,-0.5535 1.85,-1.84275 1.108,-2.85525 l -12.683,-17.33025 c -0.554,-0.7605 -1.653,-1.164 -2.739,-1.08225 z m 0.689,1.035 c 0.359,0.078 0.684,0.2655 0.879,0.534 l 12.676,17.33625 c 0.393,0.5355 0.129,1.19625 -0.585,1.49025 -0.716,0.294 -1.597,0.0967 -1.987,-0.4395 L 160.102,187.0995 c -0.393,-0.53475 -0.129,-1.19625 0.585,-1.4895 0.358,-0.14775 0.751,-0.1725 1.109,-0.0945 z"
     inkscape:connector-curvature="0"
     style="fill:#f4f4f4;stroke-width:0.86602539" /><path
     id="path27"
     d="m 84.867,224.268 c -0.232,0 -0.479,0.0577 -0.69,0.18825 -0.213,0.13125 -0.355,0.35325 -0.355,0.56475 v 3.0435 c 0,0.19725 -0.042,0.3585 0.063,0.59625 0.053,0.11925 0.186,0.2655 0.377,0.36 0.19,0.0952 0.398,0.126 0.564,0.126 h 1.213 c 0.183,0 0.439,-0.0548 0.606,-0.1725 0.167,-0.117 0.217,-0.258 0.251,-0.36075 0.069,-0.2055 0.063,-0.35775 0.063,-0.54825 v -3.0435 c 0,-0.13725 -0.033,-0.33075 -0.229,-0.50175 -0.198,-0.171 -0.513,-0.25125 -0.773,-0.25125 h -1.09 z m 0.293,1.00425 h 0.46 v 2.79225 c -0.001,0.0487 0.002,0.039 0,0.078 h -0.46 c -0.004,-0.042 0,-0.0232 0,-0.078 z"
     inkscape:connector-curvature="0"
     style="fill:#f4f4f4;stroke-width:0.86602539" /><path
     id="path29"
     d="m 88.989,224.268 c -0.572,0 -1.024,0.32925 -1.024,0.753 v 3.0435 c 0,0.22125 -0.009,0.387 0.083,0.59625 0.046,0.10425 0.127,0.228 0.293,0.3285 0.167,0.10275 0.398,0.1575 0.565,0.1575 h 1.337 c 0.214,0 0.473,-0.0975 0.607,-0.21975 0.136,-0.123 0.183,-0.23775 0.209,-0.32925 0.052,-0.183 0.042,-0.33675 0.042,-0.53325 v -3.0435 c 0,-0.18 -0.087,-0.37125 -0.272,-0.51675 -0.184,-0.14625 -0.452,-0.23475 -0.711,-0.23475 l -1.129,-0.001 z m 0.313,1.00425 h 0.46 v 2.79225 c 0,0.0428 0.002,0.0428 0,0.078 h -0.46 c -0.003,-0.0397 0,-0.0263 0,-0.078 z"
     inkscape:connector-curvature="0"
     style="fill:#f4f4f4;stroke-width:0.86602539" /><path
     id="path31"
     d="m 1.296,12.56475 c -0.438,0 -0.877,0.204 -1.066,0.45525 C 0.041,13.26975 0,13.53075 0,13.773 v 209.89725 c 0,3.0165 3.276,5.47425 7.299,5.47425 h 74.225 c 0.355,0 0.702,-0.17175 0.879,-0.37725 0.175,-0.20475 0.229,-0.44025 0.229,-0.705 v -3.0435 c 0,-0.17175 -0.073,-0.39675 -0.293,-0.54825 -0.22,-0.1515 -0.51,-0.20325 -0.752,-0.20325 H 70.962 c -1.91,0 -3.451,-1.14075 -3.451,-2.57325 0,-1.4325 1.541,-2.5875 3.451,-2.5875 h 21.269 c 1.911,0 3.451,1.15575 3.451,2.5875 0,1.21275 -1.101,2.21025 -2.593,2.4945 v 0.0158 c -0.31,0.0607 -0.506,0.24375 -0.586,0.3915 -0.08,0.14775 -0.104,0.28275 -0.104,0.423 v 3.0435 c 0.001,0.1665 -0.023,0.32025 0.063,0.549 0.044,0.11325 0.129,0.2655 0.314,0.3765 0.184,0.1095 0.419,0.15675 0.606,0.15675 h 49.439 c 23.18,0 41.975,-14.112 41.975,-31.497 V 13.61025 c 0,-0.24375 -0.092,-0.48225 -0.313,-0.69 -0.222,-0.2085 -0.602,-0.36075 -1.004,-0.36075 H 1.298 Z M 1.38,13.569 h 182.053 c 0.006,0.0097 0.021,0.0165 0.021,0.04725 V 197.6535 c 0,16.842 -18.18,30.49275 -40.636,30.49275 H 93.733 c -0.002,-0.0398 10e-4,-0.03 0,-0.078 V 225.072 c 1.901,-0.477 3.284,-1.79325 3.284,-3.37275 0,-1.974 -2.156,-3.59175 -4.79,-3.59175 H 70.958 c -2.634,0 -4.789,1.61775 -4.789,3.59175 0,1.9755 2.155,3.57675 4.789,3.57675 h 10.331 v 2.79225 c 0,0.0653 -0.011,0.0518 -0.021,0.078 H 7.297 c -3.301,0.005 -5.962,-1.99275 -5.962,-4.467 v -209.898 c 0,-0.11475 0.028,-0.17175 0.042,-0.204 z"
     inkscape:connector-curvature="0"
     style="fill:#f4f4f4;stroke-width:0.86602539" /><path
     id="circle33"
     d="m 129.27,149.481 c -6.817,0 -12.359,4.1565 -12.359,9.26925 0,5.1135 5.542,9.27 12.359,9.27 6.818,0 12.36,-4.1565 12.36,-9.27 0,-5.11275 -5.542,-9.26925 -12.36,-9.26925 z m 0,1.0035 c 6.095,0 11.021,3.69525 11.021,8.26575 0,4.5705 -4.927,8.2665 -11.021,8.2665 -6.094,0 -11.021,-3.69525 -11.021,-8.2665 -10e-4,-4.5705 4.926,-8.26575 11.021,-8.26575 z"
     inkscape:connector-curvature="0"
     style="fill:#f4f4f4;stroke-width:0.86602539" /><path
     id="circle35"
     d="m 129.27,150.12375 c -6.344,0 -11.503,3.8685 -11.503,8.62725 0,4.758 5.158,8.62725 11.503,8.62725 6.345,0 11.503,-3.86925 11.503,-8.62725 0,-4.758 -5.158,-8.62725 -11.503,-8.62725 z m 0,1.00275 c 5.621,0 10.164,3.408 10.164,7.62375 0,4.215 -4.542,7.623 -10.164,7.623 -5.62,0 -10.164,-3.40725 -10.164,-7.623 0,-4.21575 4.543,-7.62375 10.164,-7.62375 z"
     inkscape:connector-curvature="0"
     style="fill:#f4f4f4;stroke-width:0.86602539" /><path
     id="circle37"
     d="m 159.761,139.005 c -6.818,0 -12.36,4.1565 -12.36,9.27 0,5.11425 5.542,9.27 12.36,9.27 6.818,0 12.36,-4.15575 12.36,-9.27 0,-5.1135 -5.542,-9.27 -12.36,-9.27 z m 0,1.0035 c 6.095,0 11.021,3.696 11.021,8.2665 0,4.5705 -4.927,8.26575 -11.021,8.26575 -6.094,0 -11.022,-3.69525 -11.022,-8.26575 0,-4.56975 4.927,-8.2665 11.022,-8.2665 z"
     inkscape:connector-curvature="0"
     style="fill:#f4f4f4;stroke-width:0.86602539" /><path
     id="circle39"
     d="m 159.761,139.64775 c -6.345,0 -11.504,3.86925 -11.504,8.628 0,4.758 5.159,8.6265 11.504,8.6265 6.344,0 11.502,-3.86775 11.502,-8.6265 0,-4.75875 -5.158,-8.628 -11.502,-8.628 z m 0,1.00425 c 5.62,0 10.164,3.408 10.164,7.62375 0,4.215 -4.544,7.623 -10.164,7.623 -5.621,0 -10.165,-3.408 -10.165,-7.623 0,-4.21575 4.544,-7.62375 10.165,-7.62375 z"
     inkscape:connector-curvature="0"
     style="fill:#f4f4f4;stroke-width:0.86602539" /><path
     id="path41"
     d="m 20.579,18.94875 c -3.892,0 -7.048,2.38275 -7.048,5.30175 v 78.66225 c 0,2.91975 3.156,5.301 7.048,5.301 H 146.73 c 5.978,0 11.936,-2.271 16.418,-5.66175 4.484,-3.3885 7.509,-7.92075 7.509,-12.51375 V 24.2505 c 0,-2.91975 -3.179,-5.301 -7.066,-5.301 z m 0,1.0035 h 143.01 c 3.169,0 5.73,1.9215 5.73,4.2975 v 65.7825 c 0,4.2615 -2.857,8.577 -7.132,11.811 -4.274,3.234 -9.935,5.36475 -15.455,5.36475 H 20.581 c -3.169,0 -5.709,-1.92075 -5.709,-4.2975 V 24.249 c 0,-2.37675 2.541,-4.29825 5.709,-4.29825 z"
     inkscape:connector-curvature="0"
     style="fill:#f4f4f4;stroke-width:0.86602539" /><path
     id="path43"
     d="m 44.149,29.082 c -0.95,0 -1.735,0.5895 -1.735,1.302 v 66.0495 c 0,0.7125 0.785,1.30125 1.735,1.30125 h 96.832 c 0.95,0 1.736,-0.5895 1.736,-1.30125 V 30.384 c 0,-0.7125 -0.786,-1.302 -1.736,-1.302 z m 0,1.0035 h 96.832 c 0.227,0 0.397,0.12825 0.397,0.29775 v 66.0495 c 0,0.17025 -0.171,0.2985 -0.397,0.2985 H 44.149 c -0.227,0 -0.397,-0.12825 -0.397,-0.2985 V 30.384 c -0.001,-0.17025 0.17,-0.2985 0.397,-0.2985 z"
     inkscape:connector-curvature="0"
     style="fill:#f4f4f4;stroke-width:0.86602539" /><path
     id="circle45"
     d="m 26.394,50.03775 c -1.866,0 -3.388,1.1415 -3.388,2.541 0,1.3995 1.522,2.541 3.388,2.541 1.865,0 3.388,-1.1415 3.388,-2.541 0,-1.3995 -1.523,-2.541 -3.388,-2.541 z"
     inkscape:connector-curvature="0"
     style="fill:#f4f4f4;stroke-width:0.86602539" /><path
     id="path47"
     d="M 27.815,7.5e-4 C 27.594,7.5e-4 27.343,0.084 27.208,0.189 27.074,0.294 27.016,0.39975 26.978,0.48675 26.904,0.6615 26.895,0.81 26.895,0.94125 V 3.1845 c 0,0.18 0.087,0.37125 0.272,0.5175 0.185,0.14625 0.474,0.21975 0.732,0.21975 h 1.109 c 0.572,0 1.045,-0.31275 1.045,-0.73725 V 0.94125 c 0,-0.1635 -0.001,-0.342 -0.146,-0.549 C 29.761,0.18525 29.358,0 29.028,0 H 27.815 Z M 28.233,1.005 h 0.481 v 1.91325 h -0.481 z"
     inkscape:connector-curvature="0"
     style="fill:#f4f4f4;stroke-width:0.86602539" /><path
     id="path49"
     d="m 31.893,7.5e-4 c -0.206,0 -0.454,0.09375 -0.585,0.204 -0.131,0.11025 -0.182,0.1995 -0.209,0.282 C 31.042,0.6525 31.036,0.795 31.036,0.94125 V 3.1845 c 0,0.13575 0.054,0.315 0.251,0.486 0.197,0.171 0.512,0.25125 0.774,0.25125 h 1.088 c 0.231,0 0.477,-0.04275 0.689,-0.1725 0.212,-0.12975 0.355,-0.35175 0.355,-0.564 V 0.942 C 34.193,0.8055 34.18,0.6345 34.068,0.44025 33.956,0.24525 33.584,7.5e-4 33.19,7.5e-4 Z M 32.374,1.005 h 0.48 v 1.91325 h -0.48 z"
     inkscape:connector-curvature="0"
     style="fill:#f4f4f4;stroke-width:0.86602539" /><path
     id="path51"
     d="m 17.567,7.5e-4 c -0.446,0 -0.845,0.1845 -1.066,0.39225 -0.22,0.20775 -0.312,0.42675 -0.313,0.67425 v 9.7245 c 0,0.45525 0.501,0.831 1.108,0.831 h 150.096 c 0.44,0 0.699,-0.255 0.816,-0.4545 0.117,-0.1995 0.167,-0.4065 0.167,-0.67425 V 1.13025 c 0,-0.32775 -0.125,-0.6495 -0.418,-0.8625 -0.287,-0.213 -0.661,-0.26625 -0.956,-0.26625 H 36.459 c -0.288,0 -0.703,0.102 -0.9,0.32925 -0.196,0.228 -0.187,0.43125 -0.187,0.612 V 3.186 c 0,0.171 0.093,0.381 0.313,0.53325 0.22,0.15225 0.489,0.20325 0.731,0.20325 h 16.313 c 1.91,0 3.451,1.15575 3.451,2.58825 C 56.18,7.944 54.639,9.099 52.729,9.099 H 25.771 c -1.91,0 -3.45,-1.155 -3.45,-2.58825 0,-1.21275 1.123,-2.2275 2.614,-2.5095 C 25.242,3.939 25.44,3.75675 25.519,3.60975 25.599,3.462 25.603,3.327 25.603,3.186 V 0.94275 c 0,-0.2115 -0.067,-0.42825 -0.251,-0.612 C 25.167,0.14775 24.835,0.0015 24.473,0.0015 h -6.901 -0.005 z m 149.469,0.9885 c -0.034,-0.024 0,-0.0195 0,0.141 V 10.494 c 0,0.078 -0.011,0.07875 -0.021,0.12525 H 17.52 V 1.068 c 0,0.01425 0.002,-0.04575 0.021,-0.063 0.019,-0.01725 0,0 0.021,0 h 6.692 v 2.133 c -1.893,0.47925 -3.284,1.797 -3.284,3.37275 0,1.9755 2.156,3.5925 4.79,3.5925 h 26.958 c 2.634,0 4.79,-1.61625 4.79,-3.5925 0,-1.9755 -2.156,-3.5925 -4.79,-3.5925 H 36.698 V 1.005 h 130.294 c 0.089,0 0.075,0.009 0.041,-0.01575 z"
     inkscape:connector-curvature="0"
     style="fill:#f4f4f4;stroke-width:0.86602539" /><path
     id="path53"
     d="M 8.219,7.5e-4 C 3.689,7.5e-4 0,2.7675 0,6.165 v 4.59525 c 0,0.2115 0.12,0.48975 0.397,0.6585 0.278,0.1695 0.602,0.204 0.92,0.204 h 12.297 c 0.606,0 1.108,-0.37575 1.108,-0.831 V 1.068 c 0,-0.2595 -0.104,-0.4905 -0.313,-0.69 C 14.2,0.1785 13.841,0.0015 13.425,0.0015 H 8.219 Z m 0,1.00425 h 5.124 c 0.013,0.018 0.042,0.0435 0.042,0.063 V 10.62 H 1.339 V 6.16575 C 1.338,3.3105 4.413,1.005 8.219,1.005 Z"
     inkscape:connector-curvature="0"
     style="fill:#f4f4f4;stroke-width:0.86602539" /><path
     id="path55"
     d="m 171.366,7.5e-4 c -0.415,0 -0.753,0.17625 -0.962,0.3765 -0.209,0.20025 -0.335,0.4305 -0.335,0.69 v 9.7245 c 0,0.45525 0.522,0.831 1.13,0.831 h 12.297 c 0.318,0 0.642,-0.0345 0.92,-0.204 0.278,-0.16875 0.377,-0.447 0.377,-0.6585 V 6.165 C 184.793,2.7675 181.126,0 176.602,0 h -5.229 z m 0.083,1.00425 h 5.146 c 3.807,0 6.859,2.3055 6.859,5.16075 V 10.62 H 171.408 V 1.068 c 0,-0.0195 0.029,-0.045 0.041,-0.063 z"
     inkscape:connector-curvature="0"
     style="fill:#f4f4f4;stroke-width:0.86602539" /><path
     id="line57"
     d="m 0.376,11.091 v 1.9605 H 1.714 V 11.091 Z"
     inkscape:connector-curvature="0"
     style="fill:#f4f4f4;stroke-width:0.86602539" /><path
     id="line59"
     d="m 14.033,0.7695 v 1.00425 h 2.845 V 0.7695 Z"
     inkscape:connector-curvature="0"
     style="fill:#f4f4f4;stroke-width:0.86602539" /><path
     id="line61"
     d="m 24.866,0.7695 v 1.00425 h 2.845 V 0.7695 Z"
     inkscape:connector-curvature="0"
     style="fill:#f4f4f4;stroke-width:0.86602539" /><path
     id="line63"
     d="M 29.321,0.7695 V 1.77375 H 31.81 V 0.7695 Z"
     inkscape:connector-curvature="0"
     style="fill:#f4f4f4;stroke-width:0.86602539" /><path
     id="line65"
     d="m 33.546,0.7695 v 1.00425 h 2.488 V 0.7695 Z"
     inkscape:connector-curvature="0"
     style="fill:#f4f4f4;stroke-width:0.86602539" /><path
     id="line67"
     d="m 167.918,0.7695 v 1.00425 h 2.845 V 0.7695 Z"
     inkscape:connector-curvature="0"
     style="fill:#f4f4f4;stroke-width:0.86602539" /><path
     id="line69"
     d="m 182.83,11.1225 v 1.866 h 1.337 v -1.866 z"
     inkscape:connector-curvature="0"
     style="fill:#f4f4f4;stroke-width:0.86602539" /><path
     id="polygon71"
     d="m 28.129,4.707 -0.502,0.20325 -3.158,1.302 -0.523,0.21975 0.523,0.219 3.158,1.302 0.502,0.204 V 7.734 5.13 Z"
     inkscape:connector-curvature="0"
     style="fill:#f4f4f4;stroke-width:0.86602539" /><path
     id="polygon73"
     d="M 50.632,4.707 V 5.13 7.734 8.157 l 0.48,-0.204 3.158,-1.302 0.544,-0.21975 -0.544,-0.219 -3.158,-1.302 z"
     inkscape:connector-curvature="0"
     style="fill:#f4f4f4;stroke-width:0.86602539" /><path
     id="circle75"
     d="m 37.352,150.75075 c -3.565,0 -6.483,2.172 -6.483,4.8465 0,2.6745 2.918,4.86225 6.483,4.86225 3.565,0 6.463,-2.1885 6.463,-4.86225 0,-2.67375 -2.898,-4.8465 -6.463,-4.8465 z m 0,1.0035 c 2.842,0 5.124,1.7115 5.124,3.843 0,2.13225 -2.282,3.85875 -5.124,3.85875 -2.842,0 -5.145,-1.7265 -5.145,-3.85875 0,-2.13075 2.303,-3.843 5.145,-3.843 z"
     inkscape:connector-curvature="0"
     style="fill:#f4f4f4;stroke-width:0.86602539" /></svg>