<?xml version="1.0" encoding="UTF-8" standalone="no"?>
<!-- Generator: Adobe Illustrator 13.0.0, SVG Export Plug-In . SVG Version: 6.00 Build 14948)  -->

<svg
   xmlns:dc="http://purl.org/dc/elements/1.1/"
   xmlns:cc="http://creativecommons.org/ns#"
   xmlns:rdf="http://www.w3.org/1999/02/22-rdf-syntax-ns#"
   xmlns:svg="http://www.w3.org/2000/svg"
   xmlns="http://www.w3.org/2000/svg"
   xmlns:sodipodi="http://sodipodi.sourceforge.net/DTD/sodipodi-0.dtd"
   xmlns:inkscape="http://www.inkscape.org/namespaces/inkscape"
   version="1.2"
   id="svg2"
   sodipodi:version="0.32"
   inkscape:version="0.92.2 (5c3e80d, 2017-08-06)"
   sodipodi:docname="logo.svg"
   x="0px"
   y="0px"
   width="566.92603"
   height="73.929596"
   viewBox="0 0 566.92601 73.929598"
   xml:space="preserve"><metadata
     id="metadata50"><rdf:RDF><cc:Work
         rdf:about=""><dc:format>image/svg+xml</dc:format><dc:type
           rdf:resource="http://purl.org/dc/dcmitype/StillImage" /><dc:title></dc:title></cc:Work></rdf:RDF></metadata><defs
     id="defs48" /><sodipodi:namedview
     height="200px"
     width="1000px"
     id="base"
     bordercolor="#666666"
     guidetolerance="10.0"
     inkscape:cx="410.97804"
     objecttolerance="10.0"
     inkscape:zoom="0.70710678"
     inkscape:cy="-180.96774"
     gridtolerance="10.0"
     pagecolor="#ffffff"
     borderopacity="1.0"
     inkscape:window-x="-4"
     inkscape:pageshadow="2"
     inkscape:current-layer="svg2"
     inkscape:window-width="1440"
     inkscape:window-y="-4"
     inkscape:pageopacity="0.0"
     inkscape:window-height="844"
     showgrid="false"
     fit-margin-top="0"
     fit-margin-left="0"
     fit-margin-right="0"
     fit-margin-bottom="0"
     inkscape:window-maximized="0" /><g
     id="g45"
     transform="matrix(1,0,0,0.75,-9.5978415e-4,-4.8064855e-4)"><linearGradient
       id="_43443024_1_"
       gradientUnits="userSpaceOnUse"
       x1="527.771"
       y1="-0.71289998"
       x2="527.771"
       y2="98.787102"><stop
         offset="0.0051"
         style="stop-color:#2E5C92"
         id="stop3" /><stop
         offset="1"
         style="stop-color:#2E3192"
         id="stop5" /></linearGradient><polygon
       id="_43443024"
       points="542.312,0.917 566.927,0.917 532.22,54.913 526.585,97.041 504.337,97.041 510.863,48.973 488.615,0.917 512.644,0.917 524.513,28.215 "
       style="fill:url(#_43443024_1_)" /><linearGradient
       id="_43441624_1_"
       gradientUnits="userSpaceOnUse"
       x1="290.73779"
       y1="-0.71289998"
       x2="290.73779"
       y2="98.787102"><stop
         offset="0.0051"
         style="stop-color:#2E5C92"
         id="stop9" /><stop
         offset="1"
         style="stop-color:#2E3192"
         id="stop11" /></linearGradient><polygon
       id="_43441624"
       points="283.027,59.066 312.392,59.066 315.363,37.706 286.291,37.706 288.369,22.276 322.181,22.276 325.447,0.917 269.379,0.917 256.029,97.041 311.798,97.041 314.765,75.671 280.951,75.671 "
       style="fill:url(#_43441624_1_)" /><linearGradient
       id="_43775888_1_"
       gradientUnits="userSpaceOnUse"
       x1="127.5713"
       y1="-0.71289998"
       x2="127.5713"
       y2="98.787102"><stop
         offset="0.0051"
         style="stop-color:#2E5C92"
         id="stop15" /><stop
         offset="1"
         style="stop-color:#2E3192"
         id="stop17" /></linearGradient><path
       id="_43775888"
       d="m 112.146,49.565 7.416,-19.874 2.375,19.874 z m -8.009,18.987 h 20.172 l 3.563,28.48 h 36.488 l 16.91,-52.213 8.309,52.213 h 19.283 l 21.359,-55.179 3.561,55.179 h 21.359 L 249.207,0.913 H 223.693 L 203.818,51.641 196.103,0.913 H 173.261 L 147.156,79.825 137.365,0.913 h -28.48 l -31.744,79.8 4.154,-31.149 H 42.729 l -2.672,18.987 h 16.912 l -1.188,6.526 c -2.967,1.778 -9.789,2.075 -12.459,2.075 -2.67,0 -22.545,-1.778 -21.656,-23.139 C 22.555,32.654 51.035,12.778 84.854,23.754 L 88.12,3.284 C 65.572,-4.427 6.354,-0.111 0.305,52.828 -3.254,83.976 25.226,98.81 44.211,98.516 55.188,99.11 67.649,94.955 72.098,92.581 l -1.482,4.451 h 22.547 z"
       style="fill:url(#_43775888_1_)"
       inkscape:connector-curvature="0" /><linearGradient
       id="_44102912_1_"
       gradientUnits="userSpaceOnUse"
       x1="458.99371"
       y1="-0.71289998"
       x2="458.99371"
       y2="98.787102"><stop
         offset="0.0051"
         style="stop-color:#2E5C92"
         id="stop21" /><stop
         offset="1"
         style="stop-color:#2E3192"
         id="stop23" /></linearGradient><path
       id="_44102912"
       d="m 464.582,0.028 c -15.428,-0.594 -37.678,8.306 -45.094,44.204 -7.416,35.894 12.459,50.431 30.852,52.804 18.396,2.373 44.205,-9.196 48.951,-43.609 C 504.039,19.013 487.125,0.919 464.582,0.028 Z m -2.374,20.47 c 6.229,0 19.578,4.154 16.314,29.071 -3.264,24.92 -18.689,27.887 -24.326,27.292 -5.639,-0.594 -17.207,-4.447 -13.943,-27.292 3.262,-22.841 15.424,-29.368 21.955,-29.071 z"
       style="fill:url(#_44102912_1_)"
       inkscape:connector-curvature="0" /><linearGradient
       id="_44104296_1_"
       gradientUnits="userSpaceOnUse"
       x1="378.92139"
       y1="-0.71289998"
       x2="378.92139"
       y2="98.787102"><stop
         offset="0.0051"
         style="stop-color:#2E5C92"
         id="stop27" /><stop
         offset="1"
         style="stop-color:#2E3192"
         id="stop29" /></linearGradient><path
       id="_44104296"
       d="m 370.833,37.706 h 12.461 c 9.197,0 10.977,-5.934 11.271,-8.305 0.297,-2.375 -2.371,-7.122 -7.117,-7.122 h -14.537 z m -5.339,37.971 h 16.912 c 9.193,0 11.27,-7.118 11.564,-9.493 0.299,-2.373 -2.371,-7.117 -7.117,-7.117 H 367.869 Z M 340.576,97.038 353.926,0.92 h 40.938 c 9.793,0 24.031,11.274 22.252,26.403 -1.779,15.13 -6.527,16.02 -9.791,18.393 5.045,4.447 10.088,11.568 8.012,24.918 -2.078,13.353 -13.055,26.403 -32.338,26.403 z"
       style="fill:url(#_44104296_1_)"
       inkscape:connector-curvature="0" /><linearGradient
       id="_44106160_1_"
       gradientUnits="userSpaceOnUse"
       x1="538.59808"
       y1="-0.71289998"
       x2="538.59808"
       y2="98.787102"><stop
         offset="0.0051"
         style="stop-color:#2E5C92"
         id="stop33" /><stop
         offset="1"
         style="stop-color:#2E3192"
         id="stop35" /></linearGradient><path
       id="_44106160"
       d="m 538.619,82.498 c -3.66,0 -6.615,2.951 -6.615,6.593 0,3.681 2.953,6.634 6.615,6.634 3.641,0 6.592,-2.953 6.592,-6.634 -0.003,-3.643 -2.956,-6.593 -6.592,-6.593 v -0.907 c 4.148,0 7.498,3.366 7.498,7.5 0,4.173 -3.35,7.538 -7.498,7.538 -4.174,-0.001 -7.539,-3.365 -7.539,-7.538 0,-4.135 3.365,-7.499 7.539,-7.499 z"
       style="fill:url(#_44106160_1_)"
       inkscape:connector-curvature="0" /><linearGradient
       id="_42975192_1_"
       gradientUnits="userSpaceOnUse"
       x1="539.14398"
       y1="-0.71289998"
       x2="539.14398"
       y2="98.787102"><stop
         offset="0.0051"
         style="stop-color:#2E5C92"
         id="stop39" /><stop
         offset="1"
         style="stop-color:#2E3192"
         id="stop41" /></linearGradient><path
       id="_42975192"
       d="m 536.839,85.639 h 2.402 c 1.045,0 2.182,0.156 2.182,1.457 0,1.711 -1.828,1.516 -3.01,1.516 l -1.574,-0.002 v 0.809 h 1.893 l 2.4,3.878 h 1.219 l -2.539,-3.878 c 1.496,-0.038 2.656,-0.648 2.656,-2.302 0,-0.71 -0.313,-1.457 -0.943,-1.813 -0.629,-0.373 -1.34,-0.412 -2.049,-0.412 h -3.656 v 8.403 h 1.02 v -7.656 z"
       style="fill:url(#_42975192_1_)"
       inkscape:connector-curvature="0" /></g></svg>