<?xml version="1.0" encoding="UTF-8" standalone="no"?>
<!-- Generator: Adobe Illustrator 16.0.3, SVG Export Plug-In . SVG Version: 6.00 Build 0)  -->

<svg
   xmlns:dc="http://purl.org/dc/elements/1.1/"
   xmlns:cc="http://creativecommons.org/ns#"
   xmlns:rdf="http://www.w3.org/1999/02/22-rdf-syntax-ns#"
   xmlns:svg="http://www.w3.org/2000/svg"
   xmlns="http://www.w3.org/2000/svg"
   xmlns:sodipodi="http://sodipodi.sourceforge.net/DTD/sodipodi-0.dtd"
   xmlns:inkscape="http://www.inkscape.org/namespaces/inkscape"
   version="1.1"
   x="0px"
   y="0px"
   width="566.92902"
   height="78.3825"
   viewBox="0 0 566.929 78.382498"
   enable-background="new 0 0 566.929 104.51"
   xml:space="preserve"
   id="svg30"
   sodipodi:docname="logo.svg"
   inkscape:version="0.92.2 (5c3e80d, 2017-08-06)"><metadata
     id="metadata36"><rdf:RDF><cc:Work
         rdf:about=""><dc:format>image/svg+xml</dc:format><dc:type
           rdf:resource="http://purl.org/dc/dcmitype/StillImage" /><dc:title /></cc:Work></rdf:RDF></metadata><defs
     id="defs34" /><sodipodi:namedview
     pagecolor="#ffffff"
     bordercolor="#666666"
     borderopacity="1"
     objecttolerance="10"
     gridtolerance="10"
     guidetolerance="10"
     inkscape:pageopacity="0"
     inkscape:pageshadow="2"
     inkscape:window-width="1920"
     inkscape:window-height="1017"
     id="namedview32"
     showgrid="false"
     fit-margin-top="0"
     fit-margin-left="0"
     fit-margin-right="0"
     fit-margin-bottom="0"
     inkscape:zoom="0.61559735"
     inkscape:cx="12.995509"
     inkscape:cy="52.254999"
     inkscape:window-x="-8"
     inkscape:window-y="-8"
     inkscape:window-maximized="1"
     inkscape:current-layer="g27" /><g
     id="Layer_2"
     style="fill:#363233;fill-opacity:1"
     transform="scale(1,0.75)"><g
       id="g4"
       style="fill:#363233;fill-opacity:1"><path
         d="m 566.929,84.51 c 0,11 -9,20 -20,20 H 20 c -11,0 -20,-9 -20,-20 V 20 C 0,9 9,0 20,0 h 526.929 c 11,0 20,9 20,20 z"
         id="path2"
         style="fill:#363233;fill-opacity:1"
         inkscape:connector-curvature="0" /></g></g><g
     id="Layer_1"
     transform="translate(0,-26.1275)"><g
       id="g27"><polygon
         points="451.475,76.296 432.612,68.958 384.13,86.539 432.921,86.539 "
         id="polygon7"
         style="fill:#ff0000;fill-opacity:1"
         transform="matrix(1,0,0,0.75,0,26.1275)" /><polygon
         points="491.545,57.097 470.401,47.377 457.365,52.681 387.336,18.221 444.932,18.221 521.617,57.097 "
         id="polygon9"
         style="fill:#ff0000;fill-opacity:1"
         transform="matrix(1,0,0,0.75,0,26.1275)" /><polygon
         points="475.749,28.693 494.603,36.031 543.091,18.458 494.302,18.458 "
         id="polygon11"
         transform="matrix(1,0,0,0.75,0,26.1275)"
         style="fill:#ff7a07;fill-opacity:1" /><polygon
         points="435.676,47.892 456.822,57.613 469.857,52.308 539.886,86.768 482.291,86.768 405.605,47.892 "
         id="polygon13"
         transform="matrix(1,0,0,0.75,0,26.1275)"
         style="fill:#ff7a07;fill-opacity:1" /><rect
         x="23.837"
         y="39.439251"
         width="38.174999"
         height="34.987503"
         id="rect15"
         style="fill:#ff7a07;stroke-width:0.86602539;fill-opacity:1" /><rect
         x="23.837"
         y="78.709999"
         width="97.823997"
         height="10.710751"
         id="rect17"
         style="fill:#ff7a07;stroke-width:0.86602539;fill-opacity:1" /><polygon
         points="139.807,60.375 85.87,17.749 131.21,17.749 162.227,43.926 "
         id="polygon19"
         transform="matrix(1,0,0,0.75,0,26.1275)"
         style="fill:#ff7a07;fill-opacity:1" /><polygon
         points="178.927,62.967 248.125,17.749 214.718,17.749 145.526,62.967 143.136,62.967 143.136,84.392 178.927,84.392 "
         id="polygon21"
         transform="matrix(1,0,0,0.75,0,26.1275)"
         style="fill:#ff7a07;fill-opacity:1" /><polygon
         points="252.899,84.392 252.899,24.885 291.074,48.686 291.074,84.392 "
         id="polygon23"
         transform="matrix(1,0,0,0.75,0,26.1275)"
         style="fill:#ff7a07;fill-opacity:1" /><polygon
         points="376.972,17.742 358.361,17.742 358.361,64.613 288.69,17.749 257.667,17.749 355.498,84.392 376.972,84.392 "
         id="polygon25"
         transform="matrix(1,0,0,0.75,0,26.1275)"
         style="fill:#ff7a07;fill-opacity:1" /></g></g></svg>