<?xml version="1.0" encoding="UTF-8" standalone="no"?>
<!-- Generator: Adobe Illustrator 13.0.0, SVG Export Plug-In . SVG Version: 6.00 Build 14948)  -->

<svg
   xmlns:ns="&amp;ns_sfw;"
   xmlns:dc="http://purl.org/dc/elements/1.1/"
   xmlns:cc="http://creativecommons.org/ns#"
   xmlns:rdf="http://www.w3.org/1999/02/22-rdf-syntax-ns#"
   xmlns:svg="http://www.w3.org/2000/svg"
   xmlns="http://www.w3.org/2000/svg"
   xmlns:sodipodi="http://sodipodi.sourceforge.net/DTD/sodipodi-0.dtd"
   xmlns:inkscape="http://www.inkscape.org/namespaces/inkscape"
   version="1.2"
   id="Layer_3"
   x="0px"
   y="0px"
   width="584.99103"
   height="252.243"
   viewBox="0 0 584.991 252.24299"
   xml:space="preserve"
   inkscape:version="0.91 r13725"
   sodipodi:docname="controller.svg"><defs
     id="defs28" /><sodipodi:namedview
     pagecolor="#ffffff"
     bordercolor="#666666"
     borderopacity="1"
     objecttolerance="10"
     gridtolerance="10"
     guidetolerance="10"
     inkscape:pageopacity="0"
     inkscape:pageshadow="2"
     inkscape:window-width="1920"
     inkscape:window-height="1017"
     id="namedview26"
     showgrid="false"
     fit-margin-top="0"
     fit-margin-left="0"
     fit-margin-right="0"
     fit-margin-bottom="0"
     inkscape:zoom="1.9258127"
     inkscape:cx="286.60199"
     inkscape:cy="122.03062"
     inkscape:window-x="-8"
     inkscape:window-y="-8"
     inkscape:window-maximized="1"
     inkscape:current-layer="Layer_3" /><metadata
     id="metadata55"><rdf:RDF><cc:Work
         rdf:about=""><dc:format>image/svg+xml</dc:format><dc:type
           rdf:resource="http://purl.org/dc/dcmitype/StillImage" /><dc:title></dc:title></cc:Work></rdf:RDF><ns:sfw><ns:slices /><ns:sliceSourceBounds
         x="-7231"
         y="-7652"
         width="16383"
         height="16383"
         bottomLeftOrigin="true" /></ns:sfw></metadata><path
     id="path3"
     d="m 125.256,0.001 c -22.057,0 -42.807,4.733 -60.807,14.856 -0.007,0.004 -0.022,-0.004 -0.03,0 l 0,0.03 c -0.983,0.542 -1.52,1.496 -1.628,2.435 -0.109,0.954 0,1.939 0,3.218 l 1.925,0 c 0,-1.383 -0.098,-2.417 -0.03,-3.007 0.068,-0.59 0.095,-0.689 0.662,-0.992 l 0.03,0 C 83.055,6.595 103.46,1.925 125.256,1.925 l 62.638,0 c 1.36,0 2.875,0.173 3.909,0.632 1.034,0.459 1.563,0.988 1.563,2.255 l 1.925,0 c 0,-1.977 -1.232,-3.375 -2.707,-4.03 C 191.103,0.128 189.379,0 187.888,0 l -62.641,0 0.009,0 z"
     inkscape:connector-curvature="0"
     style="fill:#f4f4f4" /><path
     id="path5"
     d="M 124.226,3.82 C 55.634,3.82 0,59.425 0,128.017 c 0,68.594 55.634,124.226 124.226,124.226 27.078,0 52.123,-8.655 72.535,-23.366 l 0.03,-0.03 2.556,-1.955 0,-0.03 0.029,0 c 4.11,-3.281 9.304,-5.231 14.976,-5.231 l 45.83,0 64.626,0 45.83,0 c 5.674,0 10.867,1.95 14.976,5.231 l 0.03,0 0,0.03 2.556,1.955 0.03,0.03 c 20.411,14.711 45.457,23.366 72.534,23.366 68.595,0 124.227,-55.634 124.227,-124.226 C 584.991,59.423 529.356,3.82 460.764,3.82 l -135.022,0 -24.991,0 -0.961,0 0,0.962 0,1.263 -14.314,0 0,-1.263 0,-0.962 -0.962,0 -25.261,0 -135.024,0 -0.003,0 z m 0,1.925 135.023,0 24.298,0 0,1.264 0,0.962 0.962,0 16.238,0 0.963,0 0,-0.962 0,-1.264 24.028,0 135.022,0 c 67.556,0 122.301,54.721 122.301,122.272 0,67.555 -54.749,122.301 -122.301,122.301 -26.657,0 -51.299,-8.531 -71.393,-23.006 l -0.029,0 -2.526,-1.954 c -4.438,-3.543 -10.062,-5.653 -16.179,-5.653 l -45.83,0 -64.624,0 -45.831,0 c -6.117,0 -11.741,2.11 -16.178,5.653 l -2.526,1.954 -0.03,0 c -20.084,14.483 -44.719,23.01 -71.385,23.01 C 56.677,250.322 1.928,195.576 1.928,128.021 1.928,60.469 56.678,5.749 124.229,5.749 l -0.003,-0.004 z"
     inkscape:connector-curvature="0"
     style="fill:#f4f4f4" /><path
     id="path7"
     d="m 397.11,0.001 c -1.495,0 -3.217,0.127 -4.691,0.782 -1.474,0.655 -2.706,2.053 -2.706,4.03 l 1.925,0 c 0,-1.267 0.529,-1.796 1.563,-2.255 1.029,-0.459 2.541,-0.632 3.907,-0.632 l 62.637,0 c 21.793,0 42.197,4.669 59.874,14.616 l 0.031,0 c 0.566,0.303 0.594,0.402 0.661,0.992 0.068,0.591 -0.03,1.624 -0.03,3.007 l 1.925,0 c 0,-1.279 0.109,-2.264 0,-3.218 -0.108,-0.94 -0.645,-1.894 -1.624,-2.436 -0.007,-0.004 0.007,-0.027 0,-0.03 -0.008,-0.004 -0.022,0.004 -0.029,0 C 502.547,4.734 481.799,0.001 459.743,0.001 l -62.641,0 0.008,0 z"
     inkscape:connector-curvature="0"
     style="fill:#f4f4f4" /><path
     id="circle9"
     d="m 124.832,60.928 c -36.827,0 -66.7,29.874 -66.7,66.7 0,36.827 29.874,66.701 66.7,66.701 36.827,0 66.731,-29.876 66.731,-66.701 0,-36.827 -29.903,-66.7 -66.731,-66.7 z m 0,1.924 c 35.787,0 64.807,28.99 64.807,64.775 0,35.786 -29.02,64.776 -64.807,64.776 -35.787,0 -64.776,-28.99 -64.776,-64.776 0.001,-35.787 28.991,-64.775 64.776,-64.775 z"
     inkscape:connector-curvature="0"
     style="fill:#f4f4f4" /><path
     id="path11"
     d="m 113.67,78.4 c -3.101,0 -5.624,2.524 -5.624,5.624 l 0,26.223 c 0,0.511 -0.074,0.657 0,0.572 0.074,-0.086 10e-4,0.029 -0.631,0.029 l -26.164,0 c -3.1,0 -5.654,2.524 -5.654,5.624 l 0,22.314 c 0,3.1 2.554,5.624 5.654,5.624 l 26.073,0 c 0.457,0 0.606,0.098 0.631,0.12 0.025,0.022 0.091,0.113 0.091,0.511 l 0,26.193 c 0,3.102 2.523,5.624 5.624,5.624 l 22.344,0 c 3.1,0 5.624,-2.522 5.624,-5.624 l 0,-26.282 c 0,-0.294 0.048,-0.351 0.09,-0.391 0.042,-0.041 0.183,-0.15 0.571,-0.15 l 26.133,0 c 3.1,0 5.654,-2.523 5.654,-5.624 l 0,-22.314 c 0,-3.1 -2.554,-5.624 -5.654,-5.624 l -26.163,0 c -0.32,0 -0.453,-0.092 -0.512,-0.15 -0.059,-0.057 -0.12,-0.154 -0.12,-0.451 l 0,-26.222 c 0,-3.101 -2.524,-5.624 -5.624,-5.624 L 113.67,78.4 l 0,0 z m 0,1.925 22.344,0 c 2.06,0 3.699,1.639 3.699,3.699 l 0,26.223 c 0,0.678 0.21,1.361 0.692,1.835 0.481,0.473 1.179,0.691 1.864,0.691 l 26.164,0 c 2.06,0 3.729,1.639 3.729,3.699 l 0,22.314 c 0,2.06 -1.669,3.699 -3.729,3.699 l -26.134,0 c -0.714,0 -1.404,0.217 -1.895,0.691 -0.491,0.476 -0.692,1.13 -0.692,1.775 l 0,26.283 c 0,2.061 -1.638,3.699 -3.699,3.699 l -22.344,0 c -2.06,0 -3.699,-1.639 -3.699,-3.699 l 0,-26.193 c 0,-0.705 -0.193,-1.44 -0.722,-1.925 -0.529,-0.484 -1.213,-0.631 -1.925,-0.631 l -26.071,0 c -2.061,0 -3.729,-1.639 -3.729,-3.699 l 0,-22.315 c 0,-2.06 1.669,-3.699 3.729,-3.699 l 26.163,0 c 0.828,0 1.568,-0.108 2.075,-0.691 0.507,-0.584 0.481,-1.244 0.481,-1.834 l 0,-26.223 c 10e-4,-2.061 1.639,-3.699 3.699,-3.699 l 0,0 z"
     inkscape:connector-curvature="0"
     style="fill:#f4f4f4" /><path
     id="path13"
     d="m 111.6,75.814 c -3.101,0 -5.624,2.523 -5.624,5.624 l 0,26.223 c 0,0.511 -0.075,0.626 0,0.542 0.075,-0.086 0,0.03 -0.631,0.03 l -26.163,0 c -3.1,0 -5.654,2.552 -5.654,5.653 l 0,27.484 c 0,3.102 2.554,5.654 5.654,5.654 l 26.073,0 c 0.456,0 0.606,0.098 0.632,0.121 0.025,0.023 0.09,0.083 0.09,0.481 l 0,26.193 c 0,3.102 2.523,5.623 5.624,5.623 l 26.494,0 c 3.1,0 5.624,-2.521 5.624,-5.623 l 0,-26.253 c 0,-0.293 0.048,-0.38 0.09,-0.42 0.042,-0.041 0.182,-0.122 0.572,-0.121 l 26.132,0 c 3.1,0 5.653,-2.553 5.653,-5.654 l 0,-27.485 c 0,-3.1 -2.553,-5.653 -5.653,-5.653 l -26.164,0 c -0.319,0 -0.452,-0.063 -0.511,-0.121 -0.059,-0.059 -0.12,-0.156 -0.12,-0.451 l 0,-26.223 c 0,-3.1 -2.523,-5.624 -5.624,-5.624 l -26.494,0 0,0 z m 0,1.924 26.494,0 c 2.06,0 3.699,1.639 3.699,3.699 l 0,26.223 c 0,0.677 0.21,1.361 0.692,1.834 0.481,0.472 1.178,0.662 1.865,0.662 l 26.163,0 c 2.06,0 3.729,1.669 3.729,3.729 l 0,27.484 c 0,2.06 -1.669,3.729 -3.729,3.729 l -26.132,0 c -0.716,0 -1.404,0.188 -1.895,0.661 -0.491,0.476 -0.691,1.16 -0.691,1.804 l 0,26.254 c 0,2.06 -1.64,3.699 -3.699,3.699 l -26.494,0 c -2.06,0 -3.699,-1.64 -3.699,-3.699 l 0,-26.193 c 0,-0.704 -0.193,-1.44 -0.722,-1.925 -0.529,-0.485 -1.213,-0.601 -1.925,-0.601 l -26.073,0 c -2.06,0 -3.729,-1.669 -3.729,-3.729 l 0,-27.485 c 0,-2.06 1.669,-3.729 3.729,-3.729 l 26.163,0 c 0.828,0 1.568,-0.108 2.075,-0.692 0.507,-0.583 0.481,-1.213 0.481,-1.804 l 0,-26.223 c 0,-2.06 1.639,-3.699 3.698,-3.698 l 0,0 z"
     inkscape:connector-curvature="0"
     style="fill:#f4f4f4" /><path
     id="circle15"
     d="m 124.832,114.998 c -6.97,0 -12.63,5.661 -12.63,12.63 0,6.969 5.661,12.63 12.63,12.63 6.969,0 12.66,-5.661 12.66,-12.63 0,-6.969 -5.691,-12.63 -12.66,-12.63 z m 0,1.925 c 5.929,0 10.736,4.776 10.736,10.706 0,5.929 -4.807,10.706 -10.736,10.706 -5.929,0 -10.706,-4.777 -10.706,-10.706 0,-5.93 4.777,-10.706 10.706,-10.706 z"
     inkscape:connector-curvature="0"
     style="fill:#f4f4f4" /><path
     id="path17"
     d="m 124.832,82.55 c -1.408,0 -2.639,0.796 -3.278,1.955 l 0,0.03 -0.029,0.03 -7.277,15.216 c -0.225,0.482 -0.361,1.028 -0.361,1.594 0,2.061 1.699,3.729 3.759,3.729 l 14.404,0 c 2.061,0 3.759,-1.668 3.759,-3.729 0,-0.573 -0.131,-1.138 -0.36,-1.624 l -7.338,-15.277 -0.03,-0.06 -0.03,-0.03 c -0.657,-1.09 -1.861,-1.835 -3.219,-1.834 l 0,0 z m 0,1.925 c 0.656,0 1.24,0.363 1.563,0.872 l 0.03,0.03 7.278,15.216 c 0.112,0.237 0.18,0.499 0.18,0.782 0,1.021 -0.814,1.804 -1.834,1.804 l -14.405,0 c -1.021,0 -1.835,-0.783 -1.835,-1.804 0,-0.28 0.071,-0.546 0.181,-0.782 l 7.247,-15.157 0.03,-0.06 c 0.32,-0.533 0.891,-0.902 1.565,-0.901 l 0,0 z"
     inkscape:connector-curvature="0"
     style="fill:#f4f4f4" /><path
     id="path19"
     d="m 98.58,116.683 c -0.571,0 -1.106,0.13 -1.593,0.361 l -15.307,7.338 -0.03,0 -0.06,0.03 c -1.089,0.656 -1.804,1.861 -1.804,3.218 0,1.408 0.767,2.638 1.925,3.278 l 0.03,0.03 0.03,0 15.216,7.277 0,0.03 c 0.482,0.225 1.028,0.331 1.594,0.331 2.06,0 3.759,-1.668 3.759,-3.729 l 0,-14.405 c -0.001,-2.062 -1.7,-3.759 -3.76,-3.759 l 0,0 z m 0,1.924 c 1.021,0 1.834,0.813 1.834,1.835 l 0,14.404 c 0,1.022 -0.813,1.805 -1.834,1.805 -0.269,0 -0.523,-0.049 -0.752,-0.15 l -0.029,0 -15.157,-7.277 c -0.007,-0.004 -0.023,0.003 -0.03,0 -0.554,-0.314 -0.902,-0.905 -0.902,-1.594 0,-0.643 0.322,-1.176 0.812,-1.503 l 15.277,-7.338 c 0.236,-0.114 0.499,-0.182 0.781,-0.182 l 0,0 z"
     inkscape:connector-curvature="0"
     style="fill:#f4f4f4" /><path
     id="path21"
     d="m 117.644,150.151 c -2.061,0 -3.759,1.697 -3.759,3.76 0,0.57 0.129,1.105 0.361,1.594 l 7.338,15.307 0.03,0.031 0.03,0.029 c 0.657,1.087 1.831,1.834 3.188,1.834 1.407,0 2.669,-0.795 3.308,-1.954 l 0,-0.03 0.03,0 7.277,-15.217 0,-0.03 c 0.225,-0.482 0.36,-0.998 0.36,-1.563 0,-2.061 -1.698,-3.76 -3.758,-3.76 l -14.405,0 0,-10e-4 z m 0,1.926 14.405,0 c 1.021,0 1.834,0.813 1.834,1.834 0,0.279 -0.071,0.517 -0.18,0.752 l -7.248,15.157 c -0.01,0.018 -0.019,0.041 -0.03,0.06 -0.317,0.531 -0.919,0.902 -1.593,0.902 -0.633,0 -1.174,-0.331 -1.504,-0.813 l -0.03,-0.061 c -0.008,-0.012 -0.022,-0.018 -0.03,-0.029 l -7.285,-15.195 c -0.004,-0.009 0.004,-0.021 0,-0.03 -0.105,-0.229 -0.18,-0.478 -0.18,-0.752 0,-1.021 0.813,-1.834 1.833,-1.834 l 0.008,0.009 z"
     inkscape:connector-curvature="0"
     style="fill:#f4f4f4" /><path
     id="path23"
     d="m 151.114,116.683 c -2.061,0 -3.759,1.697 -3.759,3.759 l 0,14.404 c 0,2.061 1.698,3.729 3.759,3.729 0.57,0 1.105,-0.129 1.594,-0.361 l 15.306,-7.338 0.03,0 0.06,-0.03 c 1.089,-0.657 1.804,-1.861 1.804,-3.218 0,-1.408 -0.765,-2.639 -1.924,-3.278 l -0.03,-0.03 -0.03,0 -15.216,-7.278 c -0.485,-0.226 -1.029,-0.359 -1.594,-0.359 l 0,0 z m 0,1.924 c 0.268,0 0.523,0.077 0.751,0.181 0.008,0.004 0.021,-0.004 0.03,0 l 15.156,7.248 0.03,0.03 c 0.542,0.315 0.902,0.881 0.902,1.563 0,0.646 -0.313,1.208 -0.812,1.534 -0.019,0.011 -0.041,0.019 -0.061,0.03 l -15.216,7.308 c -0.24,0.124 -0.5,0.163 -0.789,0.163 -1.021,0 -1.834,-0.784 -1.834,-1.804 l 0,-14.405 c 0,-1.022 0.814,-1.834 1.834,-1.834 l 0.009,-0.014 z"
     inkscape:connector-curvature="0"
     style="fill:#f4f4f4" /><path
     id="path25"
     d="m 252.638,125.795 c -2.254,-0.198 -4.601,0.482 -6.466,2.045 l -25.17,21.111 c -3.73,3.127 -4.24,8.721 -1.113,12.451 3.126,3.729 8.72,4.208 12.451,1.082 l 25.201,-21.112 c 3.73,-3.126 4.208,-8.72 1.083,-12.451 -1.563,-1.865 -3.73,-2.929 -5.984,-3.127 l -0.002,0 z m -0.181,1.925 c 1.76,0.155 3.463,0.969 4.692,2.435 2.458,2.934 2.091,7.285 -0.842,9.744 l -25.201,21.111 c -2.933,2.457 -7.285,2.091 -9.744,-0.842 -2.458,-2.933 -2.061,-7.286 0.872,-9.743 l 25.203,-21.114 c 1.467,-1.229 3.263,-1.748 5.022,-1.594 l -0.002,0.003 z"
     inkscape:connector-curvature="0"
     style="fill:#f4f4f4" /><path
     id="path27"
     d="m 250.444,121.07 c -2.605,0.27 -5.154,1.292 -7.308,3.097 l -25.204,21.142 c -5.744,4.816 -6.497,13.383 -1.684,19.126 4.815,5.744 13.412,6.498 19.156,1.685 l 25.202,-21.111 c 5.743,-4.816 6.498,-13.382 1.684,-19.126 -3.009,-3.591 -7.507,-5.261 -11.848,-4.812 l 0.002,-0.001 z m 2.436,1.895 c 2.972,0.262 5.866,1.677 7.938,4.15 4.147,4.947 3.473,12.273 -1.473,16.418 l -25.171,21.111 c -4.947,4.147 -12.304,3.504 -16.45,-1.443 -4.146,-4.947 -3.504,-12.273 1.443,-16.418 l 25.201,-21.112 c 2.475,-2.072 5.54,-2.968 8.512,-2.706 l 0,0 z"
     inkscape:connector-curvature="0"
     style="fill:#f4f4f4" /><path
     id="path29"
     d="m 315.612,125.795 c -2.255,-0.198 -4.57,0.482 -6.436,2.045 l -25.201,21.111 c -3.724,3.12 -4.22,8.689 -1.113,12.418 l 0,0.031 c 3.126,3.73 8.721,4.209 12.451,1.082 l 25.201,-21.111 c 3.729,-3.126 4.208,-8.719 1.082,-12.45 -1.563,-1.863 -3.73,-2.927 -5.984,-3.126 l 0,0 z m -0.181,1.925 c 1.76,0.155 3.463,0.969 4.692,2.435 2.458,2.934 2.091,7.285 -0.843,9.744 l -25.201,21.111 c -2.931,2.457 -7.284,2.091 -9.743,-0.842 -2.459,-2.933 -2.061,-7.286 0.872,-9.743 l 25.201,-21.112 c 1.467,-1.229 3.264,-1.748 5.023,-1.593 l -0.001,0 z"
     inkscape:connector-curvature="0"
     style="fill:#f4f4f4" /><path
     id="path31"
     d="m 313.418,121.07 c -2.605,0.27 -5.154,1.292 -7.308,3.097 l -25.203,21.142 c -5.744,4.816 -6.499,13.383 -1.684,19.126 4.813,5.744 13.412,6.498 19.156,1.685 l 25.193,-21.113 c 5.745,-4.816 6.498,-13.382 1.685,-19.126 -3.009,-3.591 -7.508,-5.261 -11.849,-4.812 l 0.01,10e-4 z m 2.436,1.895 c 2.971,0.262 5.866,1.677 7.938,4.15 4.146,4.947 3.474,12.273 -1.474,16.418 l -25.171,21.111 c -4.947,4.147 -12.304,3.503 -16.449,-1.443 -4.146,-4.947 -3.504,-12.273 1.443,-16.418 l 25.202,-21.112 c 2.474,-2.072 5.54,-2.968 8.511,-2.706 l 0,0 z"
     inkscape:connector-curvature="0"
     style="fill:#f4f4f4" /><path
     id="path33"
     d="m 461.317,17.293 c -61.001,0 -110.483,49.486 -110.483,110.483 0,61 49.484,110.455 110.483,110.455 34.631,0 65.541,-15.923 85.796,-40.868 l 0.089,-0.12 0.061,-0.12 0.211,-0.512 0.481,-1.143 -1.233,-0.181 c -0.691,-0.095 -1.232,-0.657 -1.232,-1.383 0,-0.795 0.619,-1.414 1.413,-1.414 0.663,0 1.221,0.428 1.384,1.022 l 0.57,2.135 1.174,-1.863 0.541,-0.902 0.03,-0.061 c 13.317,-18.248 21.171,-40.731 21.171,-65.046 0,-61 -49.455,-110.484 -110.455,-110.484 l 0,0.002 z m 0,1.924 c 59.96,0 108.529,48.603 108.529,108.559 0,23.837 -7.697,45.849 -20.72,63.753 -0.6,-0.564 -1.343,-0.963 -2.226,-0.963 -1.834,0 -3.338,1.507 -3.338,3.339 0,1.184 0.744,2.053 1.684,2.646 -19.908,24.258 -50.098,39.757 -83.932,39.757 -59.96,0 -108.56,-48.571 -108.56,-108.531 0,-59.96 48.603,-108.559 108.56,-108.559 l 0.003,-0.001 z"
     inkscape:connector-curvature="0"
     style="fill:#f4f4f4" /><path
     id="circle35"
     d="m 405.078,105.885 c -12.558,0 -22.764,10.207 -22.764,22.765 0,12.558 10.206,22.765 22.764,22.765 12.559,0 22.766,-10.207 22.766,-22.765 0,-12.558 -10.207,-22.765 -22.766,-22.765 z m 0,1.924 c 11.519,0 20.841,9.323 20.841,20.841 0,11.518 -9.322,20.84 -20.841,20.84 -11.517,0 -20.839,-9.322 -20.839,-20.84 0,-11.518 9.322,-20.841 20.839,-20.841 l 0,0 z"
     inkscape:connector-curvature="0"
     style="fill:#f4f4f4" /><path
     id="circle37"
     d="m 460.354,62.823 c -12.559,0 -22.735,10.205 -22.735,22.765 0,12.557 10.177,22.764 22.735,22.764 12.558,0 22.765,-10.207 22.765,-22.764 0,-12.56 -10.207,-22.765 -22.765,-22.765 z m 0,1.924 c 11.518,0 20.84,9.322 20.84,20.84 0,11.518 -9.322,20.839 -20.84,20.839 -11.518,0 -20.811,-9.321 -20.811,-20.839 10e-4,-11.518 9.292,-20.84 20.811,-20.84 z"
     inkscape:connector-curvature="0"
     style="fill:#f4f4f4" /><path
     id="path39"
     d="m 458.43,56.567 c -5.524,0.373 -10.98,2.331 -15.676,5.985 l -55.274,43.064 c -12.508,9.742 -14.764,27.819 -5.022,40.326 9.742,12.509 27.819,14.734 40.328,4.993 l 55.275,-43.045 c 12.51,-9.739 14.762,-27.813 5.022,-40.322 C 476.992,59.75 467.629,55.94 458.429,56.561 l 0.001,0.006 z m 0.15,1.895 c 8.584,-0.583 17.287,2.98 22.975,10.285 9.104,11.689 6.998,28.519 -4.69,37.621 l -55.273,43.063 c -11.688,9.103 -28.519,6.997 -37.621,-4.691 -9.104,-11.689 -6.997,-28.517 4.691,-37.621 l 55.273,-43.034 c 4.382,-3.413 9.496,-5.274 14.645,-5.623 l 0,0 z"
     inkscape:connector-curvature="0"
     style="fill:#f4f4f4" /><path
     id="circle41"
     d="m 462.182,147.928 c -12.559,0 -22.765,10.206 -22.765,22.765 0,12.559 10.206,22.735 22.765,22.735 12.559,0 22.734,-10.177 22.734,-22.735 0,-12.558 -10.175,-22.765 -22.734,-22.765 z m 0,1.925 c 11.519,0 20.81,9.322 20.81,20.84 0,11.519 -9.291,20.81 -20.81,20.81 -11.519,0 -20.84,-9.291 -20.84,-20.81 0.001,-11.518 9.322,-20.84 20.84,-20.84 z"
     inkscape:connector-curvature="0"
     style="fill:#f4f4f4" /><path
     id="circle43"
     d="m 517.458,104.865 c -12.558,0 -22.766,10.207 -22.766,22.764 0,12.559 10.208,22.765 22.766,22.765 12.559,0 22.764,-10.206 22.764,-22.765 0,-12.557 -10.206,-22.764 -22.764,-22.764 z m 0,1.924 c 11.518,0 20.84,9.322 20.84,20.839 0,11.519 -9.322,20.84 -20.84,20.84 -11.518,0 -20.84,-9.322 -20.84,-20.84 0,-11.517 9.322,-20.839 20.84,-20.839 z"
     inkscape:connector-curvature="0"
     style="fill:#f4f4f4" /><path
     id="path45"
     d="m 515.534,98.61 c -5.522,0.373 -11.008,2.332 -15.698,5.984 l -55.273,43.063 c -12.508,9.743 -14.765,27.818 -5.022,40.327 9.742,12.507 27.818,14.733 40.328,4.992 l 55.272,-43.034 c 12.509,-9.742 14.766,-27.819 5.022,-40.328 -6.088,-7.816 -15.426,-11.626 -24.629,-11.004 l 0,0 z m 0.12,1.894 c 8.583,-0.582 17.287,2.98 22.974,10.286 9.104,11.688 7.028,28.517 -4.66,37.621 l -55.274,43.063 c -11.688,9.103 -28.518,6.996 -37.62,-4.691 -9.103,-11.689 -7.025,-28.518 4.662,-37.62 l 55.303,-43.034 c 4.382,-3.416 9.464,-5.275 14.615,-5.625 l 0,0 z"
     inkscape:connector-curvature="0"
     style="fill:#f4f4f4" /></svg>