<?xml version="1.0" encoding="UTF-8" standalone="no"?>
<!-- Created with Inkscape (http://www.inkscape.org/) -->

<svg
   xmlns:dc="http://purl.org/dc/elements/1.1/"
   xmlns:cc="http://creativecommons.org/ns#"
   xmlns:rdf="http://www.w3.org/1999/02/22-rdf-syntax-ns#"
   xmlns:svg="http://www.w3.org/2000/svg"
   xmlns="http://www.w3.org/2000/svg"
   xmlns:sodipodi="http://sodipodi.sourceforge.net/DTD/sodipodi-0.dtd"
   xmlns:inkscape="http://www.inkscape.org/namespaces/inkscape"
   width="210mm"
   height="50mm"
   viewBox="0 0 744.09449 177.16524"
   id="svg3880"
   version="1.1"
   inkscape:version="0.91 r13725"
   sodipodi:docname="logo.svg">
  <defs
     id="defs3882" />
  <sodipodi:namedview
     id="base"
     pagecolor="#ffffff"
     bordercolor="#666666"
     borderopacity="1.0"
     inkscape:pageopacity="0.0"
     inkscape:pageshadow="2"
     inkscape:zoom="0.81454783"
     inkscape:cx="375"
     inkscape:cy="78.037004"
     inkscape:document-units="px"
     inkscape:current-layer="layer1"
     showgrid="false"
     fit-margin-top="0"
     fit-margin-bottom="0"
     inkscape:window-width="1920"
     inkscape:window-height="1028"
     inkscape:window-x="-8"
     inkscape:window-y="-8"
     inkscape:window-maximized="1" />
  <metadata
     id="metadata3885">
    <rdf:RDF>
      <cc:Work
         rdf:about="">
        <dc:format>image/svg+xml</dc:format>
        <dc:type
           rdf:resource="http://purl.org/dc/dcmitype/StillImage" />
        <dc:title></dc:title>
      </cc:Work>
    </rdf:RDF>
  </metadata>
  <g
     inkscape:label="Calque 1"
     inkscape:groupmode="layer"
     id="layer1"
     transform="translate(0,-875.19749)">
    <flowRoot
       xml:space="preserve"
       id="flowRoot3888"
       style="font-style:normal;font-variant:normal;font-weight:normal;font-stretch:normal;font-size:40px;line-height:125%;font-family:ShermlockOpen;-inkscape-font-specification:ShermlockOpen;letter-spacing:0px;word-spacing:0px;fill:#ff0000;fill-opacity:1;stroke:none;stroke-width:1px;stroke-linecap:butt;stroke-linejoin:miter;stroke-opacity:1;"
       transform="matrix(8.4220899,0,0,4.4806251,-165.36556,728.18119)"><flowRegion
         id="flowRegion3890"><rect
           id="rect3892"
           width="135.04425"
           height="47.87933"
           x="20.870474"
           y="29.708939"
           style="font-style:normal;font-variant:normal;font-weight:normal;font-stretch:normal;font-family:ShermlockOpen;-inkscape-font-specification:ShermlockOpen;fill:#ff0000;" /></flowRegion><flowPara
         id="flowPara3894"
         style="font-style:normal;font-variant:normal;font-weight:normal;font-stretch:normal;font-family:ShermlockOpen;-inkscape-font-specification:ShermlockOpen;fill:#ff0000;">INFOS </flowPara></flowRoot>    <path
       style="fill:#ffff00"
       d="m 59.666506,147.07108 -17.62231,-0.37792 0.889531,-60.428501 c 0.489243,-33.235679 1.024132,-60.583557 1.188644,-60.773064 0.286309,-0.32981 57.557029,2.269712 57.873069,2.626863 0.0842,0.09518 -2.244046,25.862145 -5.17393,57.259932 -2.929886,31.39779 -5.346721,58.32991 -5.370748,59.84916 -0.04066,2.57126 -0.531786,2.74357 -7.102816,2.49186 -3.882522,-0.14874 -14.98917,-0.44048 -24.68144,-0.64833 z"
       id="path3898"
       inkscape:connector-curvature="0"
       transform="translate(0,875.19743)" />
    <path
       style="fill:#ffff00"
       d="m 234.43512,136.15005 c -17.5536,-11.7191 -32.3762,-21.30746 -32.93911,-21.30746 -0.5629,0 -0.62822,7.45813 -0.14516,16.57361 0.50057,9.44564 0.41106,16.60555 -0.20811,16.64785 -0.59754,0.0409 -12.84052,1.03098 -27.20663,2.20032 l -26.1202,2.12607 0.67016,-6.80409 c 0.36858,-3.74226 2.08791,-32.76942 3.82072,-64.504822 1.7328,-31.735398 3.33242,-57.88406 3.55469,-58.108136 0.22227,-0.224077 17.16271,13.34439 37.64542,30.152148 20.48271,16.807759 38.00447,31.018033 38.93725,31.578389 1.43385,0.861366 1.55674,-3.535301 0.79514,-28.447928 l -0.90081,-29.466756 20.68917,-0.802727 c 11.37904,-0.4415 25.16258,-1.128604 30.63009,-1.526898 l 9.94091,-0.724171 -13.26015,65.503289 c -7.29308,36.026812 -13.42386,66.114262 -13.62394,66.861022 -0.20009,0.74676 -14.72584,-8.23061 -32.27944,-19.94971 z"
       id="path3900"
       inkscape:connector-curvature="0"
       transform="translate(0,875.19743)" />
    <path
       style="fill:#ffff00"
       d="m 335.7144,151.19531 -22.71199,-2.62078 0.29105,-4.89614 c 0.59824,-10.0641 9.13454,-119.07204 9.32841,-119.123143 0.49959,-0.131689 109.49907,2.798482 109.77194,2.950937 0.65956,0.368516 0.26357,20.954091 -0.43827,22.783061 -0.6512,1.696995 -4.50464,1.941921 -30.55248,1.941921 l -29.80729,0 -0.70423,5.217618 c -0.38733,2.869691 -1.06616,8.394228 -1.50853,12.27675 l -0.8043,7.059132 15.79431,0.01879 c 8.68688,0.01031 16.53865,0.490512 17.44839,1.06705 1.37573,0.871855 1.30638,2.676339 -0.41213,10.723357 -1.13641,5.321309 -2.35671,10.718787 -2.71178,11.994392 -0.60229,2.16374 -1.70325,2.2764 -16.41495,1.67972 l -15.76935,-0.63957 -0.68691,5.0725 c -0.93417,6.89847 -4.33071,42.30445 -4.33071,45.14393 0,1.25583 -0.69057,2.21313 -1.5346,2.1273 -0.84403,-0.0858 -11.75499,-1.33539 -24.24658,-2.77683 z"
       id="path3902"
       inkscape:connector-curvature="0"
       transform="translate(0,875.19743)" />
    <path
       style="fill:#ffff00"
       d="m 485.62036,155.3386 c -26.47071,-3.71062 -40.76069,-17.02147 -46.33717,-43.16221 -2.24434,-10.52078 -1.65242,-34.985989 1.06413,-43.982601 1.40129,-4.640757 2.2464,-5.621289 5.29715,-6.145983 3.51276,-0.60415 3.6416,-0.869301 3.99352,-8.218313 0.35793,-7.47478 0.46928,-7.690566 7.09113,-13.742561 13.15593,-12.023782 28.63892,-17.319966 50.63358,-17.319966 26.0381,0 41.80926,6.830489 51.94584,22.497738 6.92068,10.696708 8.98223,21.594218 7.91294,41.828405 -0.46756,8.847613 -1.61795,19.823881 -2.55644,24.391701 -4.34217,21.13455 -18.97242,36.06483 -41.27715,42.12366 -8.38173,2.27679 -27.59041,3.15675 -37.76753,1.73013 z m 22.41407,-28.74664 c 5.24205,-5.24205 7.56792,-12.3931 9.44695,-29.045373 2.10799,-18.681286 1.19196,-34.579251 -2.42215,-42.037103 -3.71988,-7.676103 -7.12517,-9.33362 -12.60293,-6.134437 -9.05251,5.28695 -14.38482,19.32069 -15.41108,40.559328 -1.54354,31.943995 8.37686,49.269935 20.98921,36.657585 z"
       id="path3904"
       inkscape:connector-curvature="0"
       transform="translate(0,875.19743)" />
    <path
       style="fill:#ffff00"
       d="m 630.61917,149.80725 c -7.01852,-7.94788 -10.79335,-13.11729 -9.8214,-13.44984 0.86831,-0.29708 6.12455,-2.01397 11.68054,-3.81532 6.23604,-2.02183 11.86114,-4.79601 14.69918,-7.2493 4.20001,-3.63062 4.47428,-4.24428 3.17318,-7.09987 -2.05902,-4.51907 -9.87048,-9.43952 -27.81161,-17.51857 -25.1315,-11.316943 -35.92455,-20.865316 -37.29126,-32.990753 -1.23489,-10.955858 6.95688,-21.308551 25.4658,-32.183497 8.9369,-5.25089 32.52892,-15.229084 35.81697,-15.148711 1.50371,0.03676 29.43801,23.8202 30.20468,25.716458 0.18757,0.463936 -2.02224,1.538644 -4.9107,2.388239 -17.59322,5.174774 -31.64675,12.836222 -31.64675,17.252603 0,3.636375 7.74545,9.094244 20.84207,14.686464 24.22847,10.34549 40.69933,23.164917 44.02503,34.265097 3.5424,11.82347 -4.97248,24.42015 -22.79043,33.71555 -7.32351,3.82058 -36.21665,14.35241 -39.35048,14.34363 -0.48657,-0.001 -6.01474,-5.81183 -12.28482,-12.91218 z"
       id="path3906"
       inkscape:connector-curvature="0"
       transform="translate(0,875.19743)" />
    <path
       style="fill:#0000ff"
       d="M 73.60579,155.29915 C 59.426144,154.84433 43.19843,154.39479 37.544204,154.3002 l -10.280412,-0.17201 0.900496,-68.442881 c 0.495273,-37.643584 1.040475,-68.597375 1.211559,-68.786202 0.458087,-0.505595 87.112683,3.570783 87.688273,4.125003 0.49438,0.476028 -10.43207,124.16927 -11.6222,131.56949 -0.51446,3.19892 -1.17828,3.94459 -3.34832,3.76121 -1.48865,-0.12579 -14.308164,-0.60085 -28.48781,-1.05566 z m 18.398705,-7.61625 c 0.286197,-0.84403 2.922257,-28.24961 5.857913,-60.901284 3.582422,-39.845331 4.912492,-59.497979 4.044892,-59.765961 -1.64749,-0.508874 -58.695602,-3.136803 -59.024321,-2.718964 -0.134908,0.171483 -0.614914,28.05882 -1.06668,61.971858 l -0.821393,61.660071 19.988466,0.37013 c 10.993658,0.20357 22.353735,0.49357 25.244617,0.64444 3.320499,0.17329 5.447778,-0.29084 5.776506,-1.26029 z"
       id="path3916"
       inkscape:connector-curvature="0"
       transform="translate(0,875.19743)" />
    <path
       style="fill:#0000ff"
       d="m 247.01418,157.19204 -30.38425,-20.2662 0,9.21501 c 0,7.50419 -0.35323,9.21501 -1.90261,9.21501 -1.04644,0 -19.63702,1.38983 -41.31242,3.0885 -21.67539,1.69868 -39.68346,2.81484 -40.01794,2.48036 -0.59893,-0.59893 8.24953,-162.9877299 8.91892,-163.6818793 0.18923,-0.1962334 17.24002,13.4769973 37.89063,30.3849563 20.65062,16.907959 37.7082,30.741814 37.90575,30.741901 0.19755,8.6e-5 0.16502,-8.754585 -0.0723,-19.454822 L 217.60853,19.459897 256.09791,17.7613 c 47.55878,-2.098842 40.58294,-2.099356 123.44937,0.0091 l 69.00024,1.755627 0.3634,5.912417 0.36342,5.912416 5.52453,-3.669632 c 11.60247,-7.706844 33.36491,-13.516807 50.56984,-13.50073 10.54017,0.0098 29.50889,3.017187 38.3385,6.078258 13.38377,4.639916 25.00338,13.044967 30.36252,21.962747 1.48245,2.46683 2.8565,4.69619 3.05345,4.954134 0.19696,0.257943 3.46583,-2.371292 7.26416,-5.842747 12.36466,-11.300608 30.75839,-20.670031 55.93275,-28.491104 12.23811,-3.8020909 12.34297,-3.8122291 14.99165,-1.449356 1.46703,1.308733 11.8357,10.386653 23.04147,20.173155 l 20.37413,17.793639 -11.7804,3.514771 c -14.02444,4.184293 -25.15202,8.406982 -29.27787,11.110338 -2.85821,1.872774 -2.89269,2.040002 -0.731,3.545617 1.24778,0.869078 8.43509,4.328488 15.97181,7.687578 16.37034,7.296206 32.76545,17.919278 39.54828,25.624977 22.33341,25.3721 -1.45903,52.2184 -60.24436,67.97695 -7.63263,2.04607 -14.81396,3.72098 -15.95851,3.72201 -1.67375,0.001 -35.11672,-36.0795 -36.30399,-39.16771 -0.17988,-0.46789 4.82079,-2.09173 11.1126,-3.60855 12.0795,-2.91208 24.2032,-7.85701 24.2032,-9.87182 0,-2.10511 -6.80653,-6.15034 -20.95891,-12.45623 -14.336,-6.38771 -26.75069,-13.371189 -29.36048,-16.515798 -2.1097,-2.542022 -3.69831,-1.1782 -3.69831,3.174983 0,7.793915 -4.05817,23.030865 -8.71786,32.732375 -6.22629,12.96319 -14.84083,21.7946 -27.11181,27.79429 -15.12023,7.3928 -22.16167,8.7217 -45.81072,8.64563 -23.53572,-0.0757 -30.861,-1.4689 -45.54316,-8.66191 -15.55199,-7.61914 -25.4095,-19.75409 -28.81096,-35.46726 -2.10526,-9.7253 -2.18579,-41.271463 -0.1238,-48.493159 0.86757,-3.038496 1.85797,-6.491332 2.2009,-7.672969 0.57701,-1.988255 -0.98443,-2.148431 -20.94354,-2.148431 l -21.56705,0 0,4.296862 0,4.296863 15.03902,0.01676 c 8.27146,0.0092 16.21701,0.332875 17.65678,0.719233 l 2.61776,0.702469 -2.16593,10.022923 c -1.19126,5.512608 -3.15544,14.653365 -4.36484,20.312792 l -2.19892,10.28987 -15.5441,-0.84499 -15.54409,-0.84498 -2.10022,23.70233 c -2.51488,28.38213 -2.66943,29.22097 -5.38868,29.24802 -1.16877,0.011 -18.56054,-1.74373 -38.64837,-3.9008 l -36.52333,-3.92194 0.009,-3.15833 c 0.005,-1.73709 1.9336,-27.14873 4.28641,-56.470332 2.35279,-29.321598 4.00629,-53.583525 3.67444,-53.915388 -0.33187,-0.331861 -0.60339,-0.290721 -0.60339,0.09142 0,0.782434 -26.88636,133.629976 -27.33567,135.067696 -0.15864,0.50758 -13.96134,-8.19692 -30.67268,-19.34333 z m 413.5242,1.18291 c 16.28032,-5.27499 28.90703,-11.74399 36.15396,-18.52264 7.05913,-6.60298 9.98452,-12.312 9.98452,-19.48518 0,-14.24866 -13.01334,-26.388032 -42.51061,-39.65561 -16.65712,-7.492204 -22.76078,-11.532241 -22.76078,-15.065445 0,-3.585857 8.73594,-8.559469 24.5307,-13.966014 l 13.74124,-4.703619 -2.86928,-2.777803 c -8.44499,-8.175772 -28.8171,-25.114698 -30.20494,-25.114698 -2.29072,0 -21.93294,7.702248 -29.83498,11.699103 -21.20142,10.723682 -33.15129,23.862213 -33.0365,36.322656 0.0462,5.00448 4.27663,12.531047 9.99351,17.779549 6.90697,6.341098 13.77687,10.368253 29.46582,17.272941 21.63609,9.52202 29.49364,15.94923 25.4521,20.81897 -2.33142,2.8092 -11.70307,7.24638 -21.75052,10.2982 -4.90951,1.49122 -8.76275,3.16471 -8.56276,3.71888 0.19999,0.55416 5.51869,6.84509 11.81933,13.97982 13.06534,14.79496 9.92734,14.03074 30.38919,7.40089 z M 281.20622,90.700137 c 7.35959,-36.573483 13.10484,-66.762815 12.76723,-67.087405 -0.33761,-0.32459 -14.60046,1.93e-4 -31.69522,0.72174 l -31.08137,1.311904 0.88158,28.825219 c 0.75111,24.55923 0.62706,28.668449 -0.83817,27.765924 -0.94587,-0.582613 -18.48276,-14.79508 -38.97088,-31.58326 -20.48811,-16.788179 -37.39971,-30.345053 -37.58131,-30.126384 -0.51577,0.621018 -7.64691,131.694495 -7.19659,132.276295 0.39833,0.51461 35.07559,-1.7436 48.59795,-3.16474 l 7.0822,-0.7443 -0.83105,-16.55953 c -0.80548,-16.04999 -0.75897,-16.51981 1.51152,-15.26857 1.28842,0.71003 15.8777,10.4043 32.42062,21.54282 16.54292,11.13852 30.40978,19.87738 30.81523,19.41969 0.40546,-0.45769 6.75868,-30.75592 14.11826,-67.329403 z m 242.01803,63.921403 c 11.33446,-2.94186 19.48043,-7.26004 26.85955,-14.23826 12.41947,-11.7447 16.71367,-24.36764 18.29447,-53.777215 1.31346,-24.43586 -3.13595,-39.49671 -14.86158,-50.305015 -11.0211,-10.158894 -25.2467,-14.714593 -46.03833,-14.743613 -22.42895,-0.0313 -38.61719,5.640932 -51.69251,18.112668 -7.09489,6.767384 -7.12535,6.827132 -7.12535,13.975612 0,7.116074 -0.0315,7.179174 -3.58782,7.179174 -2.96485,0 -3.8117,0.692793 -4.87723,3.989943 -4.3959,13.602577 -4.72437,40.234846 -0.66243,53.710786 5.64108,18.71493 17.64068,30.95149 34.91555,35.60504 14.34578,3.8645 34.97777,4.07215 48.77568,0.49088 z M 364.45268,130.80237 c 1.11705,-12.4916 2.29574,-23.9367 2.61931,-25.43356 0.58088,-2.68717 0.78731,-2.71204 16.33688,-1.96826 l 15.74858,0.7533 2.77396,-13.15479 c 1.52567,-7.235135 2.44006,-13.488667 2.032,-13.896738 -0.40807,-0.408071 -8.24239,-0.996326 -17.40959,-1.307234 l -16.66763,-0.565285 0.77998,-7.509375 c 0.42899,-4.130156 1.07104,-9.028623 1.42677,-10.885481 l 0.6468,-3.376106 29.32346,0 c 34.37352,0 31.8652,1.237463 31.8652,-15.720437 l 0,-10.971156 -8.28681,-0.735402 c -4.55774,-0.404472 -29.97061,-1.106716 -56.47305,-1.560544 l -48.18624,-0.82514 -0.0641,4.164182 c -0.0353,2.290302 -2.16041,30.405737 -4.72254,62.478746 -2.56213,32.07301 -4.475,58.53664 -4.25081,58.80805 0.74262,0.89906 48.92175,5.88489 49.70684,5.14391 0.42348,-0.39968 1.68392,-10.94709 2.80097,-23.43868 z"
       id="path3918"
       inkscape:connector-curvature="0"
       transform="translate(0,875.19743)" />
    <path
       style="fill:#0000ff"
       d="m 494.0653,125.2468 c -4.21135,-6.8141 -6.08886,-16.08924 -6.10463,-30.157546 -0.0246,-21.954169 5.96689,-39.828154 14.97442,-44.672051 l 4.51465,-2.427801 3.16094,2.969555 c 4.6105,4.331335 6.80341,13.258383 6.77575,27.583126 -0.0256,13.240053 -2.49442,33.344957 -4.83455,39.369697 -2.2106,5.69129 -8.59533,11.66291 -12.46973,11.66291 -2.49979,0 -4.01618,-1.09073 -6.01685,-4.32789 z m 9.6272,-43.551435 c -0.0239,-5.147578 -0.26496,-6.022833 -1.0143,-3.683024 -0.54061,1.688053 -0.96885,7.21259 -0.95164,12.276749 0.0287,8.439076 0.11333,8.746471 1.0143,3.683025 0.54066,-3.038495 0.9689,-8.563033 0.95164,-12.27675 z"
       id="path3920"
       inkscape:connector-curvature="0"
       transform="translate(0,875.19743)" />
  </g>
</svg>
