<?xml version="1.0" encoding="UTF-8" standalone="no"?>
<!-- Generator: Adobe Illustrator 16.0.3, SVG Export Plug-In . SVG Version: 6.00 Build 0)  -->

<svg
   xmlns:dc="http://purl.org/dc/elements/1.1/"
   xmlns:cc="http://creativecommons.org/ns#"
   xmlns:rdf="http://www.w3.org/1999/02/22-rdf-syntax-ns#"
   xmlns:svg="http://www.w3.org/2000/svg"
   xmlns="http://www.w3.org/2000/svg"
   xmlns:sodipodi="http://sodipodi.sourceforge.net/DTD/sodipodi-0.dtd"
   xmlns:inkscape="http://www.inkscape.org/namespaces/inkscape"
   version="1.1"
   id="Ebene_1"
   x="0px"
   y="0px"
   width="566.92902"
   height="65.973747"
   viewBox="0 0 566.929 65.97375"
   enable-background="new 0 0 566.929 87.964"
   xml:space="preserve"
   sodipodi:docname="logo.svg"
   inkscape:version="0.92.2 (5c3e80d, 2017-08-06)"><metadata
     id="metadata61"><rdf:RDF><cc:Work
         rdf:about=""><dc:format>image/svg+xml</dc:format><dc:type
           rdf:resource="http://purl.org/dc/dcmitype/StillImage" /><dc:title></dc:title></cc:Work></rdf:RDF></metadata><defs
     id="defs59" /><sodipodi:namedview
     pagecolor="#ffffff"
     bordercolor="#666666"
     borderopacity="1"
     objecttolerance="10"
     gridtolerance="10"
     guidetolerance="10"
     inkscape:pageopacity="0"
     inkscape:pageshadow="2"
     inkscape:window-width="1920"
     inkscape:window-height="1017"
     id="namedview57"
     showgrid="false"
     fit-margin-top="0"
     fit-margin-left="0"
     fit-margin-right="0"
     fit-margin-bottom="0"
     inkscape:zoom="0.61559735"
     inkscape:cx="283.46451"
     inkscape:cy="43.983002"
     inkscape:window-x="-8"
     inkscape:window-y="-8"
     inkscape:window-maximized="1"
     inkscape:current-layer="g54" /><g
     id="g54"
     transform="translate(0,-21.99125)"><path
       d="M 0.566,61.2485 V 55.44725 H 61.131 V 48.827 H 0.566 L 0.185,30.962 h 68.81 v 5.7855 H 8.429 L 8.81,43.043 H 69.374 V 61.25 H 0.566 Z"
       id="path2"
       inkscape:connector-curvature="0"
       style="stroke-width:0.86602539" /><path
       d="M 74.357,61.2485 V 31.076 h 8.244 v 30.1725 z"
       id="path4"
       inkscape:connector-curvature="0"
       style="stroke-width:0.86602539" /><path
       d="M 87.026,61.2485 V 31.076 h 68.81 v 30.1725 h -8.244 V 36.86075 H 95.269 v 24.39 l -8.243,-0.0022 v 0 z"
       id="path6"
       inkscape:connector-curvature="0"
       style="stroke-width:0.86602539" /><path
       d="M 160.237,61.2485 V 31.076 h 68.86 v 5.7855 H 168.533 V 55.448 h 60.564 v 5.80425 h -68.86 v -0.0037 z"
       id="path8"
       inkscape:connector-curvature="0"
       style="stroke-width:0.86602539" /><path
       d="M 234.583,61.2485 V 21.99125 h 8.246 V 61.25 h -8.246 z"
       id="path10"
       inkscape:connector-curvature="0"
       style="stroke-width:0.86602539" /><path
       d="M 320.994,61.2485 V 31.076 h 8.295 v 30.1725 z"
       id="path12"
       inkscape:connector-curvature="0"
       style="stroke-width:0.86602539" /><path
       d="M 334.271,61.2485 V 31.076 h 68.807 v 5.7855 h -60.563 v 24.39075 h -8.244 v -0.0037 z"
       id="path14"
       inkscape:connector-curvature="0"
       style="stroke-width:0.86602539" /><path
       d="m 247.228,31.076 v 5.7855 h 60.564 v 6.618 H 247.228 V 61.25 h 68.861 V 31.076 Z m 60.564,24.372 h -52.271 v -6.62025 h 52.271 z"
       id="path16"
       inkscape:connector-curvature="0"
       style="stroke-width:0.86602539" /><path
       d="m 74.357,27.7955 v -5.80425 h 8.244 v 5.80425 z"
       id="path18"
       inkscape:connector-curvature="0"
       style="stroke-width:0.86602539" /><path
       d="m 320.994,27.7955 v -5.80425 h 8.295 v 5.80425 z"
       id="path20"
       inkscape:connector-curvature="0"
       style="stroke-width:0.86602539" /><g
       id="g42"
       transform="matrix(1,0,0,0.75,0,21.99125)"><path
         d="M 0,80.22 9.688,68.634 H 0.76 v -3.336 h 14.215 v 3.136 L 5.287,80.02 h 9.941 v 3.338 H 0 Z"
         id="path22"
         inkscape:connector-curvature="0" /><path
         d="m 21.985,73.897 -5.819,-8.601 h 4.604 l 3.542,5.768 3.668,-5.768 h 4.351 l -5.792,8.625 6.298,9.436 h -4.73 L 24.16,77.11 20.138,83.357 h -4.479 z"
         id="path24"
         inkscape:connector-curvature="0" /><path
         d="m 44.172,77.365 c 0,2.402 1.871,3.338 3.996,3.338 1.393,0 3.519,-0.404 3.519,-2.252 0,-1.947 -2.707,-2.275 -5.363,-2.984 -2.681,-0.709 -5.388,-1.745 -5.388,-5.137 0,-3.693 3.491,-5.463 6.754,-5.463 3.769,0 7.235,1.643 7.235,5.818 H 51.08 c -0.126,-2.176 -1.67,-2.73 -3.566,-2.73 -1.266,0 -2.732,0.531 -2.732,2.049 0,1.393 0.861,1.567 5.389,2.731 1.315,0.329 5.362,1.163 5.362,5.261 0,3.313 -2.605,5.793 -7.513,5.793 -3.997,0 -7.741,-1.974 -7.69,-6.424 z"
         id="path26"
         inkscape:connector-curvature="0" /><path
         d="m 57.503,70.281 h 3.416 v 1.67 h 0.052 c 0.858,-1.391 2.275,-2.023 3.895,-2.023 4.099,0 5.944,3.313 5.944,7.031 0,3.492 -1.922,6.754 -5.742,6.754 -1.569,0 -3.061,-0.684 -3.921,-1.973 h -0.051 v 6.225 h -3.593 z m 9.715,6.576 c 0,-2.074 -0.835,-4.225 -3.138,-4.225 -2.353,0 -3.11,2.101 -3.11,4.225 0,2.125 0.809,4.148 3.137,4.148 2.351,0 3.111,-2.022 3.111,-4.148 z"
         id="path28"
         inkscape:connector-curvature="0" /><path
         d="m 75.922,77.691 c 0.101,2.277 1.214,3.314 3.212,3.314 1.441,0 2.605,-0.885 2.833,-1.694 h 3.161 c -1.012,3.085 -3.161,4.399 -6.121,4.399 -4.124,0 -6.678,-2.832 -6.678,-6.881 0,-3.922 2.708,-6.906 6.678,-6.906 4.451,0 6.603,3.746 6.35,7.767 z m 5.842,-2.275 c -0.328,-1.822 -1.113,-2.781 -2.858,-2.781 -2.277,0 -2.935,1.769 -2.985,2.781 z"
         id="path30"
         inkscape:connector-curvature="0" /><path
         d="m 96.387,74.884 c -0.229,-1.467 -1.164,-2.25 -2.657,-2.25 -2.302,0 -3.062,2.326 -3.062,4.248 0,1.873 0.733,4.123 2.985,4.123 1.669,0 2.63,-1.062 2.858,-2.653 h 3.464 c -0.455,3.464 -2.858,5.36 -6.298,5.36 -3.946,0 -6.604,-2.781 -6.604,-6.703 0,-4.072 2.428,-7.084 6.678,-7.084 3.088,0 5.92,1.619 6.147,4.961 z"
         id="path32"
         inkscape:connector-curvature="0" /><path
         d="m 106.558,70.281 h 2.63 v 2.403 h -2.63 v 6.476 c 0,1.215 0.303,1.52 1.517,1.52 0.38,0 0.734,-0.025 1.113,-0.104 v 2.807 c -0.606,0.104 -1.391,0.129 -2.099,0.129 -2.201,0 -4.123,-0.508 -4.123,-3.112 v -7.714 h -2.177 v -2.404 h 2.177 V 66.36 h 3.592 z"
         id="path34"
         inkscape:connector-curvature="0" /><path
         d="m 110.909,70.281 h 3.415 v 2.43 h 0.051 c 0.657,-1.646 2.429,-2.783 4.175,-2.783 0.253,0 0.556,0.05 0.784,0.129 v 3.337 c -0.33,-0.075 -0.859,-0.126 -1.29,-0.126 -2.63,0 -3.542,1.896 -3.542,4.197 v 5.895 h -3.592 z"
         id="path36"
         inkscape:connector-curvature="0" /><path
         d="m 133.018,83.358 h -3.416 v -1.821 h -0.076 c -0.911,1.467 -2.479,2.176 -3.997,2.176 -3.82,0 -4.782,-2.148 -4.782,-5.387 v -8.045 h 3.594 v 7.387 c 0,2.149 0.632,3.213 2.301,3.213 1.949,0 2.783,-1.088 2.783,-3.744 v -6.855 h 3.592 z"
         id="path38"
         inkscape:connector-curvature="0" /><path
         d="m 135.852,70.281 h 3.391 v 1.771 h 0.05 c 0.937,-1.344 2.302,-2.127 3.997,-2.127 1.645,0 3.111,0.607 3.82,2.178 0.759,-1.141 2.125,-2.178 3.946,-2.178 2.783,0 4.782,1.289 4.782,4.681 v 8.752 h -3.593 v -7.412 c 0,-1.743 -0.15,-3.187 -2.2,-3.187 -2.024,0 -2.404,1.67 -2.404,3.313 v 7.286 h -3.592 v -7.335 c 0,-1.52 0.101,-3.264 -2.177,-3.264 -0.708,0 -2.428,0.455 -2.428,3.011 v 7.588 h -3.592 z"
         id="path40"
         inkscape:connector-curvature="0" /></g><g
       id="g52"
       transform="matrix(1,0,0,0.75,0,21.99125)"><polygon
         points="464.167,2.173 429.958,2.173 369.855,62.285 404.062,62.285 "
         id="polygon44"
         style="fill:#ca2825" /><polygon
         points="498.451,2.173 464.244,2.173 404.138,62.285 438.347,62.285 "
         id="polygon46"
         style="fill:#fdc601" /><polygon
         points="532.71,2.173 498.501,2.173 438.398,62.285 472.605,62.285 "
         id="polygon48"
         style="fill:#009c37" /><polygon
         points="566.929,2.173 532.722,2.173 472.617,62.285 506.826,62.285 "
         id="polygon50"
         style="fill:#02559c" /></g></g></svg>