<?xml version="1.0" encoding="UTF-8" standalone="no"?>
<!-- Generator: Adobe Illustrator 13.0.0, SVG Export Plug-In . SVG Version: 6.00 Build 14948)  -->

<svg
   xmlns:ns="&amp;ns_sfw;"
   xmlns:dc="http://purl.org/dc/elements/1.1/"
   xmlns:cc="http://creativecommons.org/ns#"
   xmlns:rdf="http://www.w3.org/1999/02/22-rdf-syntax-ns#"
   xmlns:svg="http://www.w3.org/2000/svg"
   xmlns="http://www.w3.org/2000/svg"
   xmlns:sodipodi="http://sodipodi.sourceforge.net/DTD/sodipodi-0.dtd"
   xmlns:inkscape="http://www.inkscape.org/namespaces/inkscape"
   version="1.1"
   id="Ebene_1"
   x="0px"
   y="0px"
   width="566.92999"
   height="59.414249"
   viewBox="0 0 566.92998 59.414248"
   enable-background="new 0 0 566.929 79.219"
   xml:space="preserve"
   sodipodi:docname="logo.svg"
   inkscape:version="0.92.2 (5c3e80d, 2017-08-06)"><defs
     id="defs40" /><sodipodi:namedview
     pagecolor="#ffffff"
     bordercolor="#666666"
     borderopacity="1"
     objecttolerance="10"
     gridtolerance="10"
     guidetolerance="10"
     inkscape:pageopacity="0"
     inkscape:pageshadow="2"
     inkscape:window-width="1920"
     inkscape:window-height="1017"
     id="namedview38"
     showgrid="false"
     fit-margin-top="0"
     fit-margin-left="0"
     fit-margin-right="0"
     fit-margin-bottom="0"
     inkscape:zoom="0.61559735"
     inkscape:cx="283.46451"
     inkscape:cy="39.609499"
     inkscape:window-x="-8"
     inkscape:window-y="-8"
     inkscape:window-maximized="1"
     inkscape:current-layer="Ebene_1" /><metadata
     id="metadata2"><ns:sfw><ns:slices /><ns:sliceSourceBounds
         x="677.036"
         y="499.891"
         width="566.929"
         height="79.219"
         bottomLeftOrigin="true" /></ns:sfw><rdf:RDF><cc:Work
         rdf:about=""><dc:format>image/svg+xml</dc:format><dc:type
           rdf:resource="http://purl.org/dc/dcmitype/StillImage" /><dc:title></dc:title></cc:Work></rdf:RDF></metadata><g
     id="g17"
     transform="scale(1,0.75)"><g
       id="g15"><g
         id="_x23_ffffffff"><path
           d="m 123.437,3.436 c 3.074,-3.934 9.436,-4.604 13.207,-1.307 1.542,1.299 2.622,3.091 3.175,5.02 6.981,24.021 13.994,48.033 20.966,72.058 -4.12,0.004 -8.242,-0.006 -12.362,0.004 -1.943,-6.623 -3.841,-13.258 -5.759,-19.889 -7.967,-0.018 -15.932,-0.004 -23.898,-0.008 -1.951,6.627 -3.876,13.258 -5.792,19.896 -4.098,-0.014 -8.195,-0.004 -12.294,-0.008 6.633,-22.914 13.273,-45.832 19.938,-68.739 0.792,-2.392 1.09,-5.071 2.819,-7.027 m 7.273,14.718 c -2.921,9.952 -5.783,19.924 -8.688,29.881 5.791,0.027 11.579,0.01 17.367,0.01 -2.898,-9.963 -5.781,-19.926 -8.679,-29.891 z"
           id="path4"
           inkscape:connector-curvature="0"
           style="fill:#6b553f" /><path
           d="m 210.231,3.953 c 2.147,-3.114 6.298,-4.627 9.953,-3.666 3.345,0.771 5.905,3.654 6.788,6.899 6.975,24.005 13.973,48.001 20.947,72.005 -4.125,0.033 -8.25,0 -12.375,0.018 -1.918,-6.629 -3.816,-13.266 -5.748,-19.895 -7.954,0.004 -15.907,-0.016 -23.86,0.006 -1.901,6.635 -3.86,13.252 -5.763,19.885 -4.094,0.004 -8.186,-0.002 -12.28,0.004 6.629,-23.041 13.336,-46.063 20.019,-69.087 0.701,-2.081 0.971,-4.373 2.319,-6.169 m -1.003,44.092 c 5.766,0.008 11.53,0.004 17.296,0.004 -2.868,-9.984 -5.782,-19.956 -8.644,-29.939 -2.879,9.98 -5.786,19.951 -8.652,29.935 z"
           id="path6"
           inkscape:connector-curvature="0"
           style="fill:#6b553f" /><path
           d="m 151.56,0.167 c 14.906,0 29.811,0 44.712,0 0,4.021 0,8.038 0,12.059 -5.487,0.004 -10.974,-0.006 -16.459,0.004 0,22.325 0.004,44.653 -0.003,66.977 -3.929,0 -7.862,0 -11.792,0 0,-22.324 -0.003,-44.651 0.004,-66.977 -5.489,-0.01 -10.974,0 -16.462,-0.004 0,-4.02 -0.003,-8.037 0,-12.059 z"
           id="path8"
           inkscape:connector-curvature="0"
           style="fill:#6b553f" /><path
           d="m 261.023,0.657 c 1.133,-0.391 2.342,-0.524 3.537,-0.495 4.699,0.017 9.398,0.003 14.098,0.006 7.914,0.145 15.468,5.056 18.894,12.179 2.371,4.626 2.615,10.005 2.018,15.079 -0.41,5.313 -2.64,10.625 -6.723,14.145 -2.158,1.926 -4.846,3.09 -7.153,4.801 -1.269,0.967 -1.329,2.842 -0.676,4.186 6.237,9.629 12.724,19.104 19.09,28.652 -4.657,0.008 -9.313,-0.014 -13.972,0.008 -6.098,-9.156 -12.13,-18.359 -18.202,-27.529 -1.785,-2.609 -2.27,-6.066 -1.201,-9.045 0.834,-2.285 2.831,-3.958 5.055,-4.82 4.246,-1.619 8.431,-4.166 10.782,-8.172 1.788,-3.01 1.697,-6.725 0.893,-10.021 -0.942,-4.277 -5.11,-7.644 -9.513,-7.495 -3.047,0.021 -6.091,-0.016 -9.132,0.014 -1.377,-0.032 -2.672,1.165 -2.655,2.561 -0.014,21.501 0.008,43.004 -0.006,64.504 -3.96,-0.006 -7.917,0 -11.878,-0.004 -0.007,-23.146 0.007,-46.297 -0.007,-69.443 0.019,-4.061 2.904,-7.878 6.751,-9.111 z"
           id="path10"
           inkscape:connector-curvature="0"
           style="fill:#6b553f" /><path
           d="m 310.335,0.167 c 4.164,0 8.328,0 12.498,0 -0.004,26.349 0.006,52.692 -0.008,79.042 -4.162,-0.01 -8.326,0 -12.49,-0.004 0,-26.348 0,-52.693 0,-79.038 z"
           id="path12"
           inkscape:connector-curvature="0"
           style="fill:#6b553f" /></g></g></g><g
     id="g21"
     transform="scale(1,0.75)"><path
       d="m 527.328,79.205 c -21.836,0 -39.604,-17.766 -39.604,-39.603 C 487.724,17.764 505.492,0 527.328,0 c 21.838,0 39.602,17.765 39.602,39.603 -10e-4,21.836 -17.764,39.602 -39.602,39.602 z m 0,-76.297 c -20.234,0 -36.695,16.461 -36.695,36.694 0,20.234 16.461,36.695 36.695,36.695 20.232,0 36.693,-16.461 36.693,-36.695 0,-20.232 -16.461,-36.694 -36.693,-36.694 z m 0,63.674 c -14.873,0 -26.977,-12.102 -26.977,-26.976 0,-14.875 12.104,-26.976 26.977,-26.976 14.873,0 26.975,12.101 26.975,26.976 -10e-4,14.874 -12.102,26.976 -26.975,26.976 z m 0,-51.042 c -13.271,0 -24.068,10.797 -24.068,24.066 0,13.271 10.797,24.068 24.068,24.068 13.27,0 24.066,-10.797 24.066,-24.068 0,-13.27 -10.797,-24.066 -24.066,-24.066 z"
       id="path19"
       inkscape:connector-curvature="0"
       style="fill:#6b553f" /></g><g
     id="g25"
     transform="scale(1,0.75)"><path
       d="m 446.257,79.205 c -21.836,0 -39.604,-17.766 -39.604,-39.603 C 406.654,17.764 424.421,0 446.257,0 c 21.838,0 39.602,17.765 39.602,39.603 0,21.836 -17.764,39.602 -39.602,39.602 z m 0,-76.297 c -20.232,0 -36.695,16.461 -36.695,36.694 0,20.234 16.463,36.695 36.695,36.695 20.232,0 36.693,-16.461 36.693,-36.695 C 482.951,19.37 466.49,2.908 446.257,2.908 Z m 0,63.674 c -14.875,0 -26.977,-12.102 -26.977,-26.976 0,-14.875 12.102,-26.976 26.977,-26.976 14.873,0 26.975,12.101 26.975,26.976 0,14.874 -12.102,26.976 -26.975,26.976 z m 0,-51.042 c -13.271,0 -24.068,10.797 -24.068,24.066 0,13.271 10.797,24.068 24.068,24.068 13.271,0 24.066,-10.797 24.066,-24.068 0.001,-13.27 -10.796,-24.066 -24.066,-24.066 z"
       id="path23"
       inkscape:connector-curvature="0"
       style="fill:#6b553f" /></g><g
     id="g29"
     transform="scale(1,0.75)"><path
       d="m 378.4,79.205 c -15.295,0 -27.736,-12.441 -27.736,-27.738 0,-9.178 4.637,-17.842 12.197,-22.976 -1.932,-2.98 -2.943,-6.41 -2.943,-10.009 C 359.917,8.292 368.208,0 378.4,0 c 10.192,0 18.484,8.292 18.484,18.481 0,3.599 -1.016,7.027 -2.947,10.009 7.563,5.134 12.199,13.796 12.199,22.976 0.002,15.298 -12.441,27.739 -27.736,27.739 z m 0,-76.297 c -8.588,0 -15.576,6.986 -15.576,15.574 0,3.479 1.127,6.773 3.256,9.524 l 1.006,1.297 -1.41,0.841 c -7.467,4.467 -12.104,12.637 -12.104,21.323 0,13.689 11.139,24.83 24.828,24.83 13.691,0 24.83,-11.141 24.83,-24.83 0,-8.688 -4.639,-16.857 -12.105,-21.323 l -1.406,-0.841 1.002,-1.297 c 2.131,-2.751 3.256,-6.045 3.256,-9.524 C 393.976,9.895 386.988,2.908 378.4,2.908 Z m 0,64.785 c -8.945,0 -16.225,-7.275 -16.225,-16.227 0,-8.943 7.277,-16.225 16.225,-16.225 8.945,0 16.225,7.277 16.225,16.225 0,8.952 -7.278,16.227 -16.225,16.227 z m 0,-29.542 c -7.344,0 -13.316,5.976 -13.316,13.318 0,7.344 5.975,13.318 13.316,13.318 7.344,0 13.316,-5.975 13.316,-13.318 0,-7.342 -5.972,-13.318 -13.316,-13.318 z m 0,-11.512 c -4.496,0 -8.152,-3.658 -8.152,-8.154 0,-4.495 3.656,-8.151 8.152,-8.151 4.496,0 8.152,3.656 8.152,8.151 0.002,4.496 -3.656,8.154 -8.152,8.154 z m 0,-13.399 c -2.893,0 -5.244,2.354 -5.244,5.244 0,2.894 2.352,5.246 5.244,5.246 2.895,0 5.246,-2.354 5.246,-5.246 0,-2.891 -2.352,-5.244 -5.246,-5.244 z"
       id="path27"
       inkscape:connector-curvature="0"
       style="fill:#6b553f" /></g><g
     id="g35"
     transform="scale(1,0.75)"><g
       id="g33"><path
         d="M 70.453,0.003 H 8.761 C 3.942,0.003 0,3.946 0,8.765 v 61.692 c 0,4.818 3.942,8.762 8.761,8.762 h 61.692 c 4.819,0 8.762,-3.943 8.762,-8.762 V 8.765 c 0,-4.818 -3.942,-8.762 -8.762,-8.762 z M 34.269,31.85 c -0.175,3.69 -0.406,7.389 -1.017,11.037 -0.42,2.516 -1.291,4.943 -2.369,7.246 -1.761,3.711 -4.528,6.852 -7.639,9.492 -2.782,2.449 -6.104,4.232 -9.597,5.438 -1.976,0.684 -4.01,1.205 -6.08,1.498 0.002,-2.57 0.002,-5.143 0,-7.713 2.492,-0.375 4.889,-1.26 7.114,-2.43 2.641,-1.396 5.018,-3.273 7.019,-5.488 2.067,-2.285 3.713,-4.932 4.963,-7.742 1.472,-3.229 2.26,-6.721 2.795,-10.213 0.672,-4.442 0.951,-8.938 1.055,-13.425 0.017,-1.52 0.004,-3.042 0.008,-4.564 1.303,-0.004 2.606,0 3.911,-0.002 0.005,3.064 0,6.131 0.002,9.195 0.013,2.557 -0.059,5.114 -0.165,7.671 z m 8.936,-16.867 c 0.001,17.192 0.001,34.386 0,51.576 -2.395,0.006 -4.789,-0.01 -7.183,0.012 -0.031,-5.481 -0.005,-10.967 -0.013,-16.446 -0.003,-11.71 0.005,-23.422 -0.004,-35.134 2.4,-0.017 4.8,-0.004 7.2,-0.008 0,-0.001 0,-0.001 0,0 z m 28.443,51.572 c -2.056,-0.279 -4.072,-0.811 -6.034,-1.477 -2.336,-0.813 -4.596,-1.865 -6.672,-3.217 -1.515,-0.973 -2.892,-2.139 -4.216,-3.355 -2.182,-2.014 -4.134,-4.299 -5.601,-6.889 -1.147,-2.018 -1.985,-4.195 -2.64,-6.416 -0.601,-2.232 -0.857,-4.543 -1.09,-6.837 -0.451,-4.962 -0.62,-9.947 -0.588,-14.928 0,-2.817 -0.001,-5.634 0,-8.453 1.297,-0.001 2.593,-0.004 3.888,10e-4 -0.042,5.241 0.137,10.495 0.761,15.701 0.512,4.045 1.233,8.121 2.844,11.889 1.527,3.646 3.729,7.035 6.598,9.768 2.74,2.613 6.06,4.621 9.667,5.777 1.007,0.32 2.036,0.572 3.083,0.727 -10e-4,2.57 -0.002,5.138 0,7.709 z"
         id="path31"
         inkscape:connector-curvature="0"
         style="fill:#6b553f" /></g></g></svg>