<?xml version="1.0" encoding="UTF-8" standalone="no"?>
<!-- Generator: Adobe Illustrator 13.0.0, SVG Export Plug-In . SVG Version: 6.00 Build 14948)  -->

<svg
   xmlns:ns="&amp;#38;ns_sfw;"
   xmlns:dc="http://purl.org/dc/elements/1.1/"
   xmlns:cc="http://creativecommons.org/ns#"
   xmlns:rdf="http://www.w3.org/1999/02/22-rdf-syntax-ns#"
   xmlns:svg="http://www.w3.org/2000/svg"
   xmlns="http://www.w3.org/2000/svg"
   xmlns:sodipodi="http://sodipodi.sourceforge.net/DTD/sodipodi-0.dtd"
   xmlns:inkscape="http://www.inkscape.org/namespaces/inkscape"
   version="1.2"
   id="Layer_3"
   x="0px"
   y="0px"
   width="148.058"
   height="252.70274"
   viewBox="0 0 148.05799 252.70273"
   xml:space="preserve"
   inkscape:version="0.92.2 (5c3e80d, 2017-08-06)"
   sodipodi:docname="controller.svg"><defs
     id="defs24" /><sodipodi:namedview
     pagecolor="#ffffff"
     bordercolor="#666666"
     borderopacity="1"
     objecttolerance="10"
     gridtolerance="10"
     guidetolerance="10"
     inkscape:pageopacity="0"
     inkscape:pageshadow="2"
     inkscape:window-width="1920"
     inkscape:window-height="1017"
     id="namedview22"
     showgrid="false"
     fit-margin-top="0"
     fit-margin-left="0"
     fit-margin-right="0"
     fit-margin-bottom="0"
     inkscape:zoom="0.48145317"
     inkscape:cx="73.538513"
     inkscape:cy="167.42599"
     inkscape:window-x="-8"
     inkscape:window-y="-8"
     inkscape:window-maximized="1"
     inkscape:current-layer="Layer_3" /><metadata
     id="metadata55"><rdf:RDF><cc:Work
         rdf:about=""><dc:format>image/svg+xml</dc:format><dc:type
           rdf:resource="http://purl.org/dc/dcmitype/StillImage" /><dc:title></dc:title></cc:Work></rdf:RDF><ns:sfw><ns:slices /><ns:sliceSourceBounds
         x="-7231"
         y="-7652"
         width="16383"
         height="16383"
         bottomLeftOrigin="true" /></ns:sfw></metadata><path
     id="path3"
     d="m 9.419,1.3515 c -2.833,0 -5.153,1.74 -5.153,3.864 V 248.856 c 0,2.12475 2.32,3.84675 5.153,3.84675 h 129.155 c 2.832,0 5.152,-1.722 5.152,-3.84675 V 5.2155 c 0,-2.12475 -2.32,-3.864 -5.152,-3.864 z m 0,1.1505 h 129.155 c 2.004,0 3.618,1.21125 3.618,2.71425 v 243.6405 c 0,1.50375 -1.614,2.697 -3.618,2.697 H 9.419 c -2.004,0 -3.62,-1.19325 -3.62,-2.697 V 5.2155 c 0,-1.50225 1.616,-2.7135 3.62,-2.7135 z"
     inkscape:connector-curvature="0"
     style="fill:#f4f4f4;stroke-width:0.86602539" /><g
     id="g5"
     transform="matrix(1,0,0,0.75,-225.556,-4.21425)"><path
       id="circle7"
       d="m 299.563,84.906 c -29.611,0 -53.636,24.024 -53.636,53.636 0,29.611 24.024,53.636 53.636,53.636 29.61,0 53.612,-24.024 53.612,-53.636 0,-29.611 -24.002,-53.636 -53.612,-53.636 z m 0,1.534 c 28.782,0 52.077,23.319 52.077,52.102 0,28.782 -23.295,52.102 -52.077,52.102 -28.782,0 -52.103,-23.319 -52.103,-52.102 0,-28.782 23.32,-52.102 52.103,-52.102 z"
       inkscape:connector-curvature="0"
       style="fill:#f4f4f4" /><path
       id="circle9"
       d="m 299.563,109.876 c -15.829,0 -28.687,12.834 -28.687,28.663 0,15.829 12.858,28.688 28.687,28.688 15.829,0 28.663,-12.858 28.663,-28.688 0,-15.83 -12.834,-28.663 -28.663,-28.663 z m 0,1.534 c 15,0 27.129,12.129 27.129,27.129 0,15 -12.13,27.154 -27.129,27.154 -15,0 -27.153,-12.154 -27.153,-27.154 0,-15 12.153,-27.129 27.153,-27.129 z"
       inkscape:connector-curvature="0"
       style="fill:#f4f4f4" /><path
       id="path11"
       d="m 299.563,94.516 c -1.584,0 -2.9,1.292 -2.9,2.876 v 7.597 c 0,1.583 1.316,2.876 2.9,2.876 1.584,0 2.875,-1.293 2.875,-2.876 v -7.597 c 0,-1.584 -1.292,-2.876 -2.875,-2.876 z m 0,1.533 c 0.752,0 1.341,0.587 1.341,1.342 v 7.597 c 0,0.755 -0.587,1.342 -1.341,1.342 -0.754,0 -1.366,-0.588 -1.366,-1.342 v -7.597 c 0,-0.754 0.611,-1.342 1.366,-1.342 z"
       inkscape:connector-curvature="0"
       style="fill:#f4f4f4" /><path
       id="circle13"
       d="m 299.563,91.517 c -25.966,0 -47.045,21.055 -47.045,47.021 0,25.966 21.079,47.045 47.045,47.045 25.965,0 47.02,-21.08 47.02,-47.045 0,-25.968 -21.051,-47.02 -47.02,-47.021 z m 0,1.534 c 25.136,0 45.487,20.351 45.487,45.487 0,25.136 -20.351,45.511 -45.487,45.511 -25.137,0 -45.511,-20.375 -45.511,-45.511 0.001,-25.132 20.376,-45.485 45.512,-45.485 z"
       inkscape:connector-curvature="0"
       style="fill:#f4f4f4" /><path
       id="path15"
       d="m 270.444,106.563 c -0.74,0 -1.477,0.279 -2.037,0.839 -1.12,1.119 -1.12,2.955 0,4.074 l 5.368,5.368 c 1.12,1.12 2.955,1.12 4.074,0 1.12,-1.119 1.12,-2.954 0,-4.074 l -5.369,-5.369 c -0.56,-0.552 -1.297,-0.836 -2.037,-0.836 z m 0,1.51 c 0.343,0 0.692,0.141 0.958,0.407 l 5.369,5.369 c 0.533,0.534 0.533,1.384 0,1.917 -0.521,0.52 -1.334,0.517 -1.87,0.024 l -0.048,-0.024 -5.369,-5.368 c -0.534,-0.534 -0.533,-1.384 0,-1.917 0.268,-0.267 0.617,-0.408 0.96,-0.408 z"
       inkscape:connector-curvature="0"
       style="fill:#f4f4f4" /><path
       id="path17"
       d="m 258.389,135.66 c -1.584,0 -2.876,1.292 -2.876,2.875 0,1.583 1.292,2.9 2.876,2.9 h 7.597 c 1.583,0 2.876,-1.317 2.876,-2.9 10e-4,-1.583 -1.293,-2.875 -2.876,-2.875 z m 0,1.534 h 7.597 c 0.754,0 1.342,0.588 1.342,1.342 0,0.755 -0.588,1.366 -1.342,1.366 h -7.597 c -0.754,0 -1.342,-0.612 -1.342,-1.366 0,-0.754 0.587,-1.342 1.342,-1.342 z"
       inkscape:connector-curvature="0"
       style="fill:#f4f4f4" /><path
       id="path19"
       d="m 275.813,159.412 c -0.739,-0.001 -1.477,0.278 -2.037,0.838 l -5.368,5.369 c -1.12,1.118 -1.12,2.954 0,4.074 1.12,1.119 2.954,1.119 4.074,0 l 5.369,-5.368 c 1.12,-1.119 1.12,-2.954 0,-4.074 -0.561,-0.561 -1.299,-0.839 -2.038,-0.839 z m 0,1.509 c 0.344,0 0.692,0.141 0.959,0.408 0.533,0.533 0.533,1.36 0,1.894 l -5.369,5.368 c -0.534,0.533 -1.384,0.533 -1.917,0 -0.534,-0.534 -0.533,-1.36 0,-1.893 l 5.369,-5.369 c 0.266,-0.268 0.614,-0.408 0.958,-0.408 z"
       inkscape:connector-curvature="0"
       style="fill:#f4f4f4" /><path
       id="path21"
       d="m 299.563,169.235 c -1.583,0 -2.9,1.293 -2.9,2.876 v 7.597 c 0,1.584 1.317,2.876 2.9,2.876 1.583,0 2.875,-1.292 2.875,-2.876 v -7.597 c 0,-1.584 -1.292,-2.876 -2.875,-2.876 z m 0,1.534 c 0.752,0 1.341,0.588 1.341,1.342 v 7.597 c 0,0.754 -0.587,1.343 -1.341,1.343 -0.753,0 -1.366,-0.588 -1.366,-1.343 v -7.597 c 0,-0.754 0.612,-1.342 1.366,-1.342 z"
       inkscape:connector-curvature="0"
       style="fill:#f4f4f4" /><path
       id="path23"
       d="m 323.291,159.412 c -0.739,-0.001 -1.478,0.278 -2.037,0.838 -1.119,1.119 -1.12,2.954 0,4.074 l 5.368,5.368 c 1.119,1.119 2.954,1.119 4.074,0 1.119,-1.12 1.119,-2.955 0,-4.074 l -5.369,-5.369 c -0.558,-0.559 -1.297,-0.837 -2.036,-0.837 z m 0,1.509 c 0.343,0 0.692,0.14 0.958,0.408 l 5.369,5.369 c 0.533,0.533 0.533,1.359 0,1.893 -0.534,0.533 -1.384,0.533 -1.918,0 l -5.368,-5.368 c -0.534,-0.534 -0.532,-1.36 0,-1.894 0.268,-0.268 0.615,-0.408 0.959,-0.408 z"
       inkscape:connector-curvature="0"
       style="fill:#f4f4f4" /><path
       id="path25"
       d="m 333.114,135.66 c -1.584,0 -2.876,1.293 -2.876,2.875 0,1.307 0.909,2.384 2.109,2.732 v 0.167 h 0.767 7.598 c 1.583,0 2.875,-1.317 2.875,-2.9 0,-1.583 -1.292,-2.875 -2.875,-2.875 h -7.598 z m 0,1.534 h 7.598 c 0.754,0 1.342,0.588 1.342,1.342 0,0.753 -0.587,1.366 -1.342,1.366 h -6.83 -0.768 c -0.754,0 -1.342,-0.614 -1.342,-1.366 0,-0.755 0.586,-1.342 1.342,-1.342 z"
       inkscape:connector-curvature="0"
       style="fill:#f4f4f4" /><path
       id="path27"
       d="m 328.659,106.563 c -0.739,0 -1.478,0.28 -2.037,0.839 l -5.368,5.369 c -1.12,1.12 -1.12,2.954 0,4.074 1.118,1.12 2.954,1.12 4.073,0 l 5.369,-5.368 c 1.118,-1.119 1.119,-2.955 0,-4.074 -0.559,-0.56 -1.298,-0.84 -2.037,-0.84 z m 0,1.51 c 0.344,0 0.691,0.141 0.959,0.407 0.533,0.534 0.532,1.385 0,1.917 l -5.369,5.368 c -0.532,0.533 -1.385,0.533 -1.917,0 -0.534,-0.534 -0.534,-1.383 0,-1.917 l 5.32,-5.32 0.048,-0.048 c 0.267,-0.266 0.615,-0.407 0.959,-0.407 z"
       inkscape:connector-curvature="0"
       style="fill:#f4f4f4" /><path
       id="circle29"
       d="m 299.563,121.572 c -9.361,0 -16.968,7.607 -16.968,16.968 0,9.361 7.607,16.968 16.968,16.968 9.361,0 16.967,-7.606 16.967,-16.968 0,-9.361 -7.606,-16.968 -16.967,-16.968 z m 0,1.533 c 8.532,0 15.433,6.902 15.433,15.434 0,8.532 -6.901,15.434 -15.433,15.434 -8.532,0 -15.434,-6.902 -15.434,-15.434 0,-8.531 6.901,-15.434 15.434,-15.434 z"
       inkscape:connector-curvature="0"
       style="fill:#f4f4f4" /><path
       id="circle31"
       d="m 299.563,115.291 c -12.828,0 -23.247,10.42 -23.247,23.247 0,12.827 10.42,23.246 23.247,23.246 12.827,0 23.222,-10.419 23.222,-23.246 0,-12.823 -10.392,-23.245 -23.222,-23.245 z m 0,1.534 c 11.999,0 21.689,9.715 21.689,21.713 0,11.998 -9.69,21.712 -21.689,21.712 -11.999,0 -21.713,-9.715 -21.713,-21.712 0,-11.995 9.715,-21.711 21.713,-21.711 z"
       inkscape:connector-curvature="0"
       style="fill:#f4f4f4" /></g><path
     id="rect33"
     d="m 10.498,6.132 v 0.57525 27.80625 0.57525 h 0.767 124.938 0.767 V 34.5135 6.708 6.13275 H 136.203 11.264 10.498 Z m 1.533,1.1505 H 135.435 V 33.939 H 12.031 Z"
     inkscape:connector-curvature="0"
     style="fill:#f4f4f4;stroke-width:0.86602539" /><path
     id="path35"
     d="M 6.471,0.003 C 2.913,0.003 0,2.1705 0,4.83825 V 66.147 c 0,2.26875 2.092,4.17075 4.913,4.69125 l 0.359,-1.116 C 3.125,69.3255 1.533,67.887 1.533,66.144 V 4.836 c 0,-2.04675 2.208,-3.6855 4.937,-3.6855 h 5.824 c 1.397,0 2.651,0.43575 3.547,1.1325 L 16.944,1.47375 C 15.771,0.561 14.115,0 12.294,0 H 6.471 Z"
     inkscape:connector-curvature="0"
     style="fill:#f4f4f4;stroke-width:0.86602539" /><path
     id="path37"
     d="m 135.765,0.003 c -1.822,0 -3.475,0.561 -4.649,1.47375 l 1.103,0.8085 c 0.898,-0.6975 2.147,-1.1325 3.543,-1.1325 h 5.848 c 2.731,0 4.914,1.638 4.914,3.68475 v 61.30875 c 0,1.74 -1.592,3.18 -3.739,3.57675 l 0.384,1.1145 c 2.821,-0.52125 4.889,-2.42325 4.889,-4.69125 V 4.83825 C 148.043,2.1675 145.16,7.5e-4 141.601,7.5e-4 h -5.848 z"
     inkscape:connector-curvature="0"
     style="fill:#f4f4f4;stroke-width:0.86602539" /></svg>