<?xml version="1.0" encoding="UTF-8" standalone="no"?>
<!-- Generator: Adobe Illustrator 16.0.0, SVG Export Plug-In . SVG Version: 6.00 Build 0)  -->

<svg
   xmlns:dc="http://purl.org/dc/elements/1.1/"
   xmlns:cc="http://creativecommons.org/ns#"
   xmlns:rdf="http://www.w3.org/1999/02/22-rdf-syntax-ns#"
   xmlns:svg="http://www.w3.org/2000/svg"
   xmlns="http://www.w3.org/2000/svg"
   xmlns:sodipodi="http://sodipodi.sourceforge.net/DTD/sodipodi-0.dtd"
   xmlns:inkscape="http://www.inkscape.org/namespaces/inkscape"
   version="1.1"
   id="Ebene_1"
   x="0px"
   y="0px"
   width="556.81171"
   height="141.25392"
   viewBox="0 0 556.81171 141.25392"
   enable-background="new 0 0 566.93 202.382"
   xml:space="preserve"
   sodipodi:docname="logo.svg"
   inkscape:version="0.92.2 (5c3e80d, 2017-08-06)"><metadata
     id="metadata113"><rdf:RDF><cc:Work
         rdf:about=""><dc:format>image/svg+xml</dc:format><dc:type
           rdf:resource="http://purl.org/dc/dcmitype/StillImage" /><dc:title></dc:title></cc:Work></rdf:RDF></metadata><defs
     id="defs111" /><sodipodi:namedview
     pagecolor="#ffffff"
     bordercolor="#666666"
     borderopacity="1"
     objecttolerance="10"
     gridtolerance="10"
     guidetolerance="10"
     inkscape:pageopacity="0"
     inkscape:pageshadow="2"
     inkscape:window-width="1920"
     inkscape:window-height="1017"
     id="namedview109"
     showgrid="false"
     fit-margin-top="0"
     fit-margin-left="0"
     fit-margin-right="0"
     fit-margin-bottom="0"
     inkscape:zoom="0.61559629"
     inkscape:cx="277.83887"
     inkscape:cy="95.674567"
     inkscape:window-x="-8"
     inkscape:window-y="-8"
     inkscape:window-maximized="1"
     inkscape:current-layer="Ebene_1" /><g
     id="g84"
     transform="matrix(1,0,0,0.75,-5.6261237,-6.39525)"><path
       d="m 60.762,97.449 c 10.85,0 21.701,-0.028 32.551,0.013 5.195,0.02 9.183,2.276 11.797,6.811 1.258,2.184 1.605,4.59 1.604,7.072 -0.005,8.556 0.01,17.111 -0.021,25.668 -0.003,0.83 0.246,1.303 0.939,1.785 5.095,3.543 8.083,8.374 8.219,14.642 0.141,6.534 -2.773,11.58 -8.198,15.168 -0.698,0.461 -1.072,0.919 -0.951,1.765 0.06,0.419 0.049,0.858 0.004,1.281 -0.257,2.399 0.196,4.124 2.538,5.716 3.652,2.482 4.476,6.503 3.536,10.726 -0.929,4.172 -3.734,6.703 -7.751,7.889 -1.42,0.419 -2.94,0.135 -4.412,0.176 -9.99,0.278 -19.983,0.137 -29.975,0.187 -0.706,0.003 -0.91,-0.21 -0.981,-0.901 -0.217,-2.078 -0.874,-4.011 -2.19,-5.681 -3.663,-4.641 -11.19,-4.095 -14.166,1.02 -0.855,1.469 -1.359,3.047 -1.514,4.726 -0.06,0.646 -0.279,0.837 -0.921,0.834 -10.069,-0.053 -20.14,0.101 -30.207,-0.188 -0.583,-0.017 -1.172,-0.07 -1.749,-0.011 -4.504,0.473 -9.102,-3.511 -10.14,-7.541 -1.301,-5.055 0.518,-9.87 4.87,-12.345 0.861,-0.489 1.199,-0.998 1.127,-1.986 -0.099,-1.354 -0.063,-2.722 -0.009,-4.081 0.028,-0.709 -0.224,-1.096 -0.819,-1.485 -4.556,-2.977 -7.528,-7.047 -8.169,-12.544 -0.848,-7.272 1.976,-12.957 7.832,-17.183 0.862,-0.622 1.168,-1.229 1.164,-2.264 -0.04,-8.479 -10e-4,-16.957 -0.031,-25.435 -0.016,-4.559 1.551,-8.351 5.201,-11.173 2.428,-1.877 5.234,-2.655 8.27,-2.657 10.851,-0.008 21.701,-0.004 32.552,-0.004 z m 0,4.633 c -10.813,0 -21.626,0.004 -32.438,-0.004 -1.957,-0.002 -3.771,0.434 -5.38,1.587 -2.638,1.89 -3.606,4.556 -3.604,7.688 0.005,9.451 -0.016,18.902 0.029,28.354 0.005,1.006 -0.315,1.443 -1.196,1.914 -4.959,2.653 -8.033,6.663 -7.929,12.465 0.102,5.681 3.2,9.484 8.263,11.779 0.626,0.285 0.858,0.606 0.851,1.298 -0.035,3.578 -0.052,7.156 0.008,10.734 0.016,0.959 -0.236,1.318 -1.213,1.521 -3.465,0.726 -5.323,3.18 -5.144,6.579 0.165,3.13 2.659,5.484 5.783,5.512 1.942,0.016 3.883,0.139 5.824,0.146 7.467,0.03 14.935,0.022 22.402,0.062 0.674,0.003 0.936,-0.234 1.146,-0.83 0.68,-1.928 1.752,-3.622 3.158,-5.117 5.32,-5.658 17.922,-5.646 21.855,4.832 0.342,0.911 0.767,1.121 1.666,1.116 9.292,-0.045 18.584,-0.024 27.877,-0.152 2.246,-0.031 5.042,-2.186 5.549,-4.354 0.885,-3.789 -1.061,-6.972 -5.014,-7.805 -0.933,-0.196 -1.169,-0.548 -1.157,-1.447 0.049,-3.539 0.045,-7.079 0.001,-10.617 -0.011,-0.819 0.236,-1.211 1.008,-1.548 3.342,-1.452 5.857,-3.808 7.229,-7.221 2.61,-6.497 -0.513,-13.878 -7.199,-17.03 -0.793,-0.374 -1.043,-0.797 -1.04,-1.657 0.032,-9.567 0.037,-19.136 0.014,-28.704 -0.013,-5.553 -3.605,-9.1 -9.146,-9.102 -10.733,-0.001 -21.468,10e-4 -32.203,10e-4 z"
       id="path2"
       inkscape:connector-curvature="0"
       style="clip-rule:evenodd;fill:#262222;fill-rule:evenodd" /><path
       d="m 503.585,163.878 c 0,-10.422 0.016,-20.844 -0.025,-31.267 -0.004,-0.987 0.254,-1.196 1.209,-1.189 6.65,0.046 13.301,0.083 19.949,-0.009 2.221,-0.031 4.329,0.08 6.287,1.228 0.844,0.495 1.614,1.083 2.298,1.773 0.352,0.354 0.521,0.381 0.874,-0.038 1.51,-1.793 3.458,-2.67 5.815,-2.661 4.121,0.013 8.246,0.072 12.366,-0.013 6.074,-0.126 10.146,4.322 10.079,10.109 -0.207,17.887 -0.087,35.777 -0.047,53.666 0.002,1.126 -0.259,1.403 -1.385,1.388 -5.095,-0.068 -10.189,-0.057 -15.283,-0.005 -0.948,0.01 -1.121,-0.281 -1.119,-1.157 0.026,-14.855 0.019,-29.711 0.019,-44.567 0,-0.311 0.03,-0.627 -0.009,-0.933 -0.099,-0.776 -0.317,-1.455 -1.303,-1.478 -0.975,-0.023 -1.529,0.49 -1.75,1.375 -0.093,0.368 -0.044,0.773 -0.044,1.162 -10e-4,14.622 0.002,29.244 -0.006,43.867 0,1.772 0.244,1.502 -1.563,1.508 -4.977,0.013 -9.956,-0.02 -14.934,0.024 -0.895,0.009 -1.148,-0.199 -1.146,-1.129 0.032,-14.816 0.022,-29.634 0.022,-44.45 0,-0.312 0.036,-0.628 -0.011,-0.933 -0.141,-0.938 -0.623,-1.646 -1.632,-1.653 -1.029,-0.006 -1.46,0.75 -1.613,1.665 -0.051,0.303 -0.01,0.621 -0.01,0.933 0,14.699 -0.015,29.399 0.028,44.1 0.004,1.068 -0.302,1.248 -1.281,1.237 -4.861,-0.052 -9.723,-0.065 -14.583,0.009 -1.095,0.017 -1.227,-0.339 -1.224,-1.296 0.035,-10.421 0.022,-20.843 0.022,-31.266 z m 29.364,-23.338 c -0.2,-0.384 -0.312,-0.588 -0.415,-0.796 -1.72,-3.449 -4.372,-5.252 -8.359,-5.13 -5.284,0.162 -10.573,0.146 -15.859,0.161 -0.772,0.003 -0.973,0.223 -0.972,0.982 0.02,18.824 0.021,37.648 -0.002,56.472 -10e-4,0.752 0.24,0.896 0.927,0.886 2.722,-0.036 5.445,-0.058 8.166,0.01 0.944,0.022 1.222,-0.183 1.218,-1.182 -0.04,-11.745 -0.025,-23.491 -0.025,-35.236 0,-2.412 -0.027,-4.823 0.008,-7.234 0.03,-1.958 1.355,-3.633 3.179,-4.134 2.422,-0.665 4.342,-0.089 5.501,1.631 0.777,1.155 0.887,2.452 0.886,3.79 -0.005,13.729 0.004,27.458 -0.019,41.188 -0.002,0.853 0.126,1.206 1.109,1.182 2.994,-0.076 5.99,-0.052 8.983,-0.011 0.71,0.011 0.918,-0.16 0.909,-0.894 -0.042,-3.383 -0.019,-6.767 -0.019,-10.15 0,-10.695 -0.004,-21.39 0.003,-32.086 0.002,-1.951 1.079,-3.614 2.801,-4.16 1.815,-0.576 4.6,-0.686 5.859,0.965 0.906,1.189 0.904,2.525 0.904,3.883 0.005,13.769 0.013,27.535 -0.019,41.304 -0.002,0.92 0.234,1.161 1.148,1.144 3.071,-0.059 6.146,-0.051 9.216,-0.002 0.809,0.012 1.035,-0.193 1.033,-1.021 -0.025,-16.841 -0.012,-33.682 -0.023,-50.521 -0.004,-4.106 -2.278,-6.352 -6.366,-6.357 -4.045,-0.005 -8.089,0.037 -12.134,-0.015 -2.571,-0.034 -4.548,1.063 -6.212,2.907 -0.599,0.663 -0.922,1.499 -1.426,2.424 z"
       id="path4"
       inkscape:connector-curvature="0"
       style="clip-rule:evenodd;fill:#252223;fill-rule:evenodd" /><path
       d="m 387.166,160.19 c 0,8.866 -0.104,17.734 0.036,26.599 0.098,6.221 -5.111,9.922 -9.839,9.85 -8.281,-0.125 -16.565,-0.047 -24.848,-0.017 -0.862,0.003 -1.179,-0.146 -1.166,-1.11 0.059,-4.626 0.044,-9.255 0.007,-13.882 -0.005,-0.774 0.22,-0.96 0.971,-0.955 5.094,0.032 10.188,-0.011 15.282,0.04 0.993,0.01 1.474,-0.185 1.278,-1.26 -0.056,-0.301 -0.042,-0.625 -0.002,-0.931 0.088,-0.674 -0.196,-0.844 -0.847,-0.838 -3.267,0.029 -6.536,-0.087 -9.798,0.034 -7.064,0.263 -9.933,-4.29 -9.962,-9.79 -0.064,-11.86 -0.017,-23.72 -0.031,-35.581 0,-0.611 0.103,-0.885 0.813,-0.881 5.443,0.029 10.888,0.041 16.331,-0.008 0.939,-0.008 0.854,0.469 0.854,1.076 -0.006,9.099 -0.008,18.198 0.01,27.298 10e-4,0.456 -0.31,1.199 0.29,1.326 0.811,0.171 1.707,0.114 2.531,-0.04 0.365,-0.068 0.179,-0.695 0.18,-1.064 0.009,-9.061 0.037,-18.121 -0.027,-27.182 -0.01,-1.238 0.363,-1.43 1.479,-1.416 5.132,0.06 10.266,0.049 15.397,0.004 0.872,-0.008 1.085,0.205 1.081,1.08 -0.033,9.215 -0.02,18.432 -0.02,27.648 z m -3.077,1.397 c 0,-8.479 -0.016,-16.958 0.021,-25.438 0.004,-0.92 -0.233,-1.162 -1.148,-1.144 -2.994,0.061 -5.99,0.062 -8.984,-0.001 -0.928,-0.02 -1.15,0.247 -1.147,1.157 0.036,7.856 0.022,15.713 0.019,23.569 0,0.426 0.002,0.859 -0.079,1.273 -0.566,2.907 -3.275,4.436 -6.586,3.735 -1.726,-0.364 -2.829,-1.474 -3.109,-3.192 -0.112,-0.688 -0.177,-1.389 -0.178,-2.085 -0.013,-7.74 -0.024,-15.479 0.014,-23.22 0.005,-0.934 -0.172,-1.268 -1.184,-1.24 -2.799,0.075 -5.603,0.078 -8.4,-0.002 -1.036,-0.029 -1.276,0.248 -1.271,1.274 0.042,10.385 0.021,20.77 0.026,31.154 0.002,4.788 2.639,7.424 7.403,7.425 4.123,0.002 8.245,0.015 12.368,-0.014 0.687,-0.006 0.983,0.128 0.941,0.889 -0.064,1.164 -0.002,2.333 -0.021,3.5 -0.022,1.544 -0.697,2.741 -1.936,3.662 -1.229,0.916 -2.646,1.06 -4.095,1.066 -3.617,0.015 -7.234,0.041 -10.851,-0.021 -0.994,-0.017 -1.223,0.285 -1.192,1.234 0.073,2.293 0.075,4.591 -10e-4,6.884 -0.03,0.92 0.276,1.067 1.113,1.063 7.078,-0.034 14.157,-0.02 21.236,-0.02 4.692,0 7.038,-2.332 7.039,-7.008 0.004,-8.163 0.002,-16.332 0.002,-24.5 z"
       id="path6"
       inkscape:connector-curvature="0"
       style="clip-rule:evenodd;fill:#272324;fill-rule:evenodd" /><path
       d="m 198.657,165 c 5.631,3.437 11.06,6.756 16.501,10.054 0.431,0.262 0.568,0.553 0.558,1.031 -0.024,1.127 -0.054,2.259 0.021,3.383 0.084,1.263 1.169,1.961 2.292,1.566 0.723,-0.252 1.047,-0.75 0.963,-1.515 -0.042,-0.385 -0.162,-0.789 -0.089,-1.151 0.537,-2.71 -0.602,-4.245 -3.049,-5.484 -3.556,-1.801 -6.905,-4.017 -10.315,-6.1 -3.695,-2.259 -6.407,-5.282 -7.101,-9.725 -0.166,-1.064 -0.099,-2.173 -0.083,-3.26 0.069,-4.625 -0.178,-9.253 0.13,-13.875 0.3,-4.516 3.714,-7.722 8.269,-8.434 1.08,-0.17 2.162,-0.225 3.253,-0.204 5.596,0.106 11.2,-0.253 16.789,0.204 5.224,0.428 9.003,3.834 9.897,8.807 0.055,0.305 0.089,0.617 0.089,0.925 0.005,7.546 0.004,15.091 0.004,22.637 0,0.14 0,0.279 0,0.646 -1.967,-1.295 -3.77,-2.48 -5.571,-3.667 -3.859,-2.541 -7.709,-5.096 -11.585,-7.611 -0.559,-0.363 -0.794,-0.745 -0.757,-1.409 0.05,-0.892 0.033,-1.791 -0.028,-2.682 -0.06,-0.873 -0.446,-1.467 -1.468,-1.406 -0.997,0.058 -1.79,0.353 -1.817,1.508 -0.029,1.244 0.042,2.49 0.014,3.732 -0.011,0.485 0.26,0.691 0.591,0.904 4.762,3.072 9.473,6.229 14.301,9.193 4.229,2.596 6.575,6.06 6.355,11.188 -0.17,3.959 -0.032,7.932 -0.034,11.899 -0.003,5.855 -4.636,10.487 -10.49,10.488 -5.64,0 -11.287,-0.195 -16.916,0.051 -6.424,0.279 -9.907,-4.508 -10.589,-9.439 -0.137,-0.995 -0.127,-2.016 -0.129,-3.023 -0.01,-6.029 -0.005,-12.058 -0.005,-18.086 -10e-4,-0.302 -10e-4,-0.604 -10e-4,-1.145 z m 34.896,-7.074 c 0,-5.202 0.001,-10.29 0,-15.378 -0.002,-4.482 -3.514,-7.975 -8.052,-7.984 -5.677,-0.012 -11.354,-0.01 -17.032,-0.001 -3.662,0.005 -6.648,3.005 -6.652,6.671 -0.005,4.627 0.074,9.256 -0.035,13.881 -0.05,2.133 0.637,3.859 1.979,5.421 0.92,1.068 1.978,1.964 3.167,2.726 4.899,3.146 9.785,6.31 14.677,9.464 0.424,0.273 0.822,0.491 0.805,1.141 -0.052,1.982 0.021,3.967 -0.049,5.948 -0.09,2.495 -2.334,4.48 -4.926,4.456 -2.724,-0.027 -4.745,-2.009 -4.773,-4.683 -0.005,-0.505 -0.042,-1.016 0.01,-1.516 0.065,-0.63 -0.187,-0.994 -0.729,-1.299 -1.386,-0.78 -2.743,-1.612 -4.11,-2.428 -1.951,-1.163 -3.899,-2.329 -5.981,-3.573 -0.032,0.562 -0.067,0.937 -0.072,1.312 -0.055,4.468 -0.046,8.938 -0.174,13.403 -0.148,5.158 3.705,7.817 7.792,7.81 5.6,-0.011 11.2,0.005 16.799,-0.005 4.545,-0.008 7.2,-2.512 7.306,-7.087 0.105,-4.508 0.018,-9.021 0.064,-13.53 0.014,-1.269 -0.344,-2.363 -1.075,-3.367 -1.185,-1.63 -2.731,-2.852 -4.407,-3.931 -4.829,-3.111 -9.643,-6.246 -14.494,-9.322 -0.724,-0.459 -0.981,-0.943 -0.949,-1.777 0.064,-1.67 0.019,-3.344 0.019,-5.016 0.001,-2.887 1.667,-4.6 4.569,-4.698 2.273,-0.077 4.54,1.676 4.358,3.761 -0.179,2.062 0.637,3.16 2.382,3.871 0.249,0.102 0.469,0.272 0.702,0.412 2.957,1.769 5.913,3.541 8.881,5.318 z"
       id="path8"
       inkscape:connector-curvature="0"
       style="clip-rule:evenodd;fill:#272324;fill-rule:evenodd" /><path
       d="m 307.072,165.005 c 5.64,3.438 11.099,6.771 16.568,10.085 0.403,0.243 0.484,0.531 0.478,0.951 -0.018,1.128 -0.048,2.259 0.012,3.383 0.066,1.265 1.118,1.976 2.26,1.63 0.689,-0.209 1.047,-0.632 1.014,-1.36 -0.02,-0.427 -0.136,-0.873 -0.051,-1.278 0.581,-2.791 -0.696,-4.31 -3.14,-5.558 -3.482,-1.781 -6.759,-3.964 -10.125,-5.975 -3.462,-2.069 -6.003,-4.877 -7.093,-8.849 -0.209,-0.762 -0.193,-1.54 -0.193,-2.316 -0.004,-4.589 0.093,-9.181 -0.026,-13.768 -0.166,-6.439 3.687,-10.376 9.848,-10.588 6.208,-0.212 12.443,-0.352 18.653,0.141 4.989,0.395 8.661,3.589 9.728,8.287 0.094,0.413 0.145,0.846 0.146,1.269 0.009,7.583 0.007,15.168 0.005,22.751 0,0.152 -0.02,0.304 -0.043,0.629 -2.178,-1.429 -4.272,-2.798 -6.363,-4.175 -3.535,-2.327 -7.059,-4.672 -10.609,-6.975 -0.588,-0.381 -0.859,-0.779 -0.818,-1.493 0.051,-0.889 0.022,-1.789 -0.062,-2.675 -0.081,-0.853 -0.447,-1.475 -1.487,-1.39 -1.236,0.102 -1.82,0.549 -1.838,1.628 -0.021,1.203 0.059,2.408 0.059,3.612 0,0.464 0.253,0.686 0.597,0.907 4.799,3.089 9.569,6.22 14.395,9.265 2.929,1.85 5.269,4.104 5.991,7.642 0.139,0.678 0.173,1.387 0.175,2.083 0.016,4.512 0.013,9.023 0.006,13.534 -0.009,5.646 -4.652,10.239 -10.346,10.239 -5.678,0.002 -11.363,-0.181 -17.032,0.049 -6.099,0.247 -9.499,-4.019 -10.446,-8.643 -0.187,-0.916 -0.269,-1.839 -0.266,-2.778 0.009,-6.686 0.003,-13.374 0.003,-20.264 z m 34.933,-7.075 c 0.057,-0.227 0.106,-0.329 0.106,-0.432 -0.05,-5.247 -0.091,-10.495 -0.164,-15.741 -0.017,-1.214 -0.25,-2.391 -1.002,-3.408 -1.801,-2.438 -4.194,-3.769 -7.242,-3.782 -5.561,-0.024 -11.122,-0.009 -16.683,-0.006 -3.826,0.001 -6.786,2.947 -6.791,6.769 -0.007,4.666 0.048,9.334 -0.025,14 -0.03,1.904 0.56,3.491 1.743,4.921 0.975,1.176 2.091,2.175 3.383,3.003 4.936,3.16 9.851,6.355 14.779,9.526 0.443,0.286 0.766,0.543 0.749,1.17 -0.051,1.826 -0.005,3.655 -0.022,5.482 -0.015,1.427 -0.462,2.685 -1.639,3.574 -1.632,1.234 -3.411,1.65 -5.354,0.805 -1.626,-0.71 -2.879,-1.987 -2.692,-3.724 0.261,-2.401 -0.731,-3.672 -2.766,-4.483 -0.214,-0.086 -0.402,-0.234 -0.602,-0.354 -2.458,-1.463 -4.914,-2.927 -7.461,-4.444 -0.045,0.333 -0.09,0.519 -0.092,0.705 -0.057,4.74 -0.034,9.485 -0.184,14.224 -0.143,4.559 3.353,7.521 7.547,7.55 5.755,0.041 11.511,0.036 17.266,0.002 4.212,-0.024 6.835,-2.416 6.996,-6.635 0.172,-4.503 0.014,-9.018 0.134,-13.524 0.055,-2.038 -0.695,-3.62 -2.057,-4.995 -0.874,-0.883 -1.81,-1.696 -2.864,-2.374 -5.027,-3.233 -10.031,-6.505 -15.077,-9.712 -0.722,-0.458 -0.97,-0.931 -0.938,-1.761 0.067,-1.709 0.091,-3.426 0.002,-5.133 -0.099,-1.893 0.609,-3.256 2.332,-4.029 1.783,-0.8 3.533,-0.8 5.167,0.424 1.205,0.903 1.655,2.162 1.49,3.59 -0.148,1.268 0.339,1.949 1.44,2.546 2.182,1.181 4.271,2.53 6.402,3.806 1.354,0.805 2.71,1.605 4.119,2.44 z"
       id="path10"
       inkscape:connector-curvature="0"
       style="clip-rule:evenodd;fill:#262223;fill-rule:evenodd" /><path
       d="m 390.624,165.026 c 4.566,2.781 8.967,5.46 13.366,8.144 1.158,0.707 2.6,1.201 3.382,2.204 0.774,0.995 0.153,2.545 0.259,3.846 0.116,1.419 0.992,2.175 2.194,1.859 0.799,-0.209 1.175,-0.699 1.099,-1.53 -0.046,-0.501 -0.193,-1.028 -0.097,-1.503 0.521,-2.533 -0.66,-3.89 -2.84,-5.043 -3.597,-1.902 -7.021,-4.131 -10.52,-6.218 -3.401,-2.03 -5.838,-4.825 -6.935,-8.694 -0.185,-0.649 -0.181,-1.307 -0.181,-1.966 -0.003,-4.746 0.126,-9.495 -0.032,-14.234 -0.212,-6.328 3.72,-10.354 9.899,-10.535 6.172,-0.18 12.366,-0.342 18.538,0.146 5.032,0.397 8.663,3.533 9.76,8.254 0.079,0.338 0.145,0.688 0.146,1.033 0.008,7.818 0.006,15.636 0.006,23.52 -0.515,-0.04 -0.847,-0.388 -1.207,-0.623 -5.259,-3.453 -10.5,-6.934 -15.769,-10.371 -0.664,-0.434 -0.973,-0.889 -0.9,-1.688 0.07,-0.771 0.049,-1.557 0.002,-2.331 -0.052,-0.89 -0.341,-1.611 -1.448,-1.569 -1.263,0.048 -1.976,0.598 -1.887,1.696 0.094,1.167 0.082,2.329 0.082,3.492 0,0.501 0.237,0.75 0.63,1.002 4.902,3.144 9.784,6.319 14.69,9.457 2.856,1.826 5.035,4.136 5.67,7.601 0.097,0.53 0.13,1.079 0.131,1.62 0.011,4.356 -0.132,8.718 0.039,13.067 0.232,5.903 -3.235,9.139 -7.921,10.652 -0.743,0.24 -1.501,0.341 -2.291,0.338 -5.718,-0.018 -11.443,-0.2 -17.15,0.042 -6.198,0.264 -9.605,-4.138 -10.502,-8.73 -0.148,-0.767 -0.22,-1.531 -0.219,-2.313 0.01,-6.808 0.006,-13.614 0.006,-20.625 z m 34.857,-7.103 c 0,-4.586 0.012,-9.045 -0.006,-13.502 -0.006,-1.358 0.068,-2.746 -0.178,-4.067 -0.572,-3.08 -4.268,-5.781 -7.745,-5.79 -5.639,-0.014 -11.28,0.078 -16.919,-0.03 -4.409,-0.085 -6.975,3.812 -6.943,6.934 0.042,4.512 0.068,9.025 -0.016,13.536 -0.042,2.246 0.706,4.093 2.188,5.701 0.896,0.975 1.88,1.839 3.008,2.561 4.907,3.136 9.787,6.312 14.683,9.466 0.435,0.279 0.8,0.51 0.784,1.151 -0.048,1.942 0.026,3.89 -0.029,5.833 -0.074,2.555 -2.33,4.588 -4.958,4.549 -2.726,-0.042 -4.733,-2.023 -4.76,-4.7 -0.005,-0.505 -0.042,-1.016 0.011,-1.516 0.066,-0.634 -0.202,-0.973 -0.737,-1.287 -3.08,-1.806 -6.15,-3.631 -9.197,-5.495 -0.812,-0.497 -0.98,-0.381 -0.982,0.562 -0.012,4.354 0.028,8.713 -0.163,13.061 -0.271,6.21 4.149,8.521 8.379,8.434 5.405,-0.112 10.812,-0.019 16.22,-0.03 4.653,-0.01 7.311,-2.667 7.318,-7.305 0.007,-4.396 -0.061,-8.792 0.033,-13.186 0.035,-1.693 -0.544,-3.028 -1.611,-4.222 -0.96,-1.075 -2.032,-2.029 -3.251,-2.815 -5.091,-3.28 -10.175,-6.572 -15.266,-9.854 -0.432,-0.277 -0.787,-0.508 -0.771,-1.148 0.05,-2.098 0.013,-4.2 0.025,-6.301 0.006,-0.793 0.199,-1.541 0.728,-2.166 1.265,-1.496 3.728,-2.096 5.649,-1.382 1.786,0.665 2.645,2.073 2.646,4.341 0,0.311 0.017,0.623 -0.003,0.933 -0.03,0.437 0.142,0.71 0.525,0.939 3.763,2.241 7.517,4.501 11.338,6.795 z"
       id="path12"
       inkscape:connector-curvature="0"
       style="clip-rule:evenodd;fill:#262223;fill-rule:evenodd" /><path
       d="m 257.091,176.206 c 0,0.532 0,0.904 0,1.276 0,5.99 -0.014,11.98 0.017,17.971 0.004,0.792 -0.18,1.063 -1.019,1.059 -5.173,-0.038 -10.347,-0.04 -15.52,0 -0.858,0.007 -1.004,-0.286 -1.003,-1.063 0.019,-21.043 0.019,-42.086 -0.001,-63.128 -0.001,-0.791 0.172,-1.057 1.014,-1.05 5.173,0.04 10.347,0.04 15.52,-10e-4 0.857,-0.006 1.012,0.285 1.008,1.064 -0.029,5.99 -0.016,11.98 -0.016,17.971 0,0.371 0,0.742 0,1.312 1.502,-1.508 2.536,-2.809 2.436,-5.012 -0.218,-4.775 -0.052,-9.566 -0.083,-14.351 -0.005,-0.74 0.157,-0.989 0.949,-0.983 5.134,0.037 10.269,0.035 15.403,0 0.784,-0.006 0.957,0.232 0.954,0.979 -0.027,7.624 -0.021,15.248 -0.006,22.871 0.002,0.542 -0.143,0.949 -0.5,1.355 -1.826,2.069 -3.589,4.194 -5.455,6.227 -0.647,0.705 -0.593,1.117 -10e-4,1.806 1.799,2.092 3.505,4.265 5.277,6.381 0.472,0.562 0.689,1.127 0.687,1.88 -0.027,7.43 -0.044,14.858 0.014,22.288 0.008,1.115 -0.341,1.308 -1.354,1.298 -4.979,-0.051 -9.958,-0.042 -14.936,-0.004 -0.811,0.007 -1.042,-0.191 -1.035,-1.02 0.04,-5.019 -0.115,-10.041 0.085,-15.051 0.08,-2.031 -0.928,-2.984 -2.435,-4.075 z m -3.012,-17.099 c -0.028,-0.582 -0.092,-1.42 -0.104,-2.26 -0.109,-7.069 -0.221,-14.139 -0.294,-21.209 -0.007,-0.717 -0.179,-0.91 -0.901,-0.9 -2.993,0.043 -5.988,0.044 -8.981,0 -0.757,-0.012 -0.962,0.189 -0.961,0.957 0.022,18.662 0.021,37.325 0.001,55.988 -0.001,0.748 0.172,0.981 0.95,0.968 2.916,-0.047 5.833,-0.059 8.747,0.006 0.904,0.02 1.074,-0.258 1.07,-1.105 -0.035,-7.192 -0.02,-14.385 -0.02,-21.579 0,-0.401 0,-0.803 0,-1.438 2.744,2.601 5.261,5.015 7.82,7.385 0.504,0.466 0.684,0.927 0.679,1.602 -0.028,4.704 0.003,9.409 -0.032,14.113 -0.006,0.786 0.154,1.072 1.006,1.058 3.148,-0.052 6.299,-0.052 9.448,0 0.833,0.015 1.018,-0.229 1.013,-1.033 -0.035,-6.182 -0.032,-12.364 -10e-4,-18.546 0.004,-0.729 -0.249,-1.238 -0.701,-1.758 -2.043,-2.342 -4.041,-4.723 -6.101,-7.048 -0.486,-0.549 -0.504,-0.878 -0.015,-1.431 2.139,-2.412 4.225,-4.873 6.345,-7.302 0.393,-0.45 0.668,-0.876 0.665,-1.531 -0.029,-5.988 -0.036,-11.977 0.005,-17.964 0.006,-0.868 -0.292,-0.997 -1.06,-0.985 -2.876,0.043 -5.755,0.055 -8.63,-0.006 -0.873,-0.018 -1.09,0.203 -1.087,1.082 0.014,4.547 -0.06,9.094 -0.078,13.641 -0.002,0.582 -0.129,1.041 -0.562,1.451 -2.763,2.619 -5.512,5.256 -8.221,7.844 z"
       id="path14"
       inkscape:connector-curvature="0"
       style="clip-rule:evenodd;fill:#272324;fill-rule:evenodd" /><path
       d="m 468.811,163.976 c 0,-10.498 0.013,-20.996 -0.023,-31.493 -0.004,-0.954 0.205,-1.221 1.195,-1.216 9.486,0.041 18.973,0.037 28.459,0.004 0.914,-0.004 1.17,0.222 1.162,1.15 -0.049,5.016 -0.048,10.031 0,15.047 0.008,0.891 -0.237,1.091 -1.098,1.078 -3.459,-0.053 -6.92,0.001 -10.381,-0.041 -0.728,-0.008 -0.913,0.188 -0.895,0.902 0.054,1.904 0.059,3.812 -0.002,5.715 -0.022,0.746 0.214,0.893 0.913,0.886 3.343,-0.037 6.688,0.015 10.03,-0.038 0.846,-0.014 1.005,0.244 0.999,1.035 -0.038,5.016 -0.042,10.03 0.003,15.046 0.008,0.846 -0.247,1.009 -1.037,0.999 -3.421,-0.046 -6.843,0.016 -10.264,-0.044 -0.9,-0.015 -1.106,0.251 -1.071,1.104 0.068,1.709 0.055,3.423 0.004,5.131 -0.022,0.729 0.217,0.925 0.926,0.918 3.422,-0.032 6.843,0.011 10.264,-0.031 0.853,-0.012 1.196,0.126 1.184,1.11 -0.059,4.821 -0.046,9.642 -0.009,14.463 0.007,0.818 -0.117,1.131 -1.052,1.121 -9.482,-0.104 -18.966,-0.171 -28.448,-0.193 -0.913,-0.002 -0.867,-0.418 -0.866,-1.043 0.01,-10.538 0.007,-21.073 0.007,-31.61 z m 3.502,0.655 c 0,9.448 0.013,18.897 -0.021,28.346 -0.003,0.869 0.199,1.084 1.075,1.079 7.193,-0.039 14.386,-0.031 21.58,-0.007 0.703,0.002 0.928,-0.161 0.915,-0.898 -0.046,-2.8 -0.048,-5.6 10e-4,-8.398 0.014,-0.803 -0.188,-1.056 -1.02,-1.044 -3.539,0.046 -7.077,0.002 -10.616,0.035 -0.706,0.007 -0.931,-0.175 -0.926,-0.908 0.035,-4.121 0.038,-8.243 -10e-4,-12.364 -0.007,-0.775 0.216,-0.969 0.973,-0.961 3.577,0.04 7.155,-0.01 10.731,0.038 0.831,0.011 1.026,-0.232 1.012,-1.033 -0.052,-2.683 -0.06,-5.367 0.002,-8.048 0.021,-0.868 -0.285,-0.999 -1.055,-0.99 -3.498,0.039 -6.999,-0.003 -10.497,0.034 -0.738,0.007 -0.98,-0.155 -0.973,-0.942 0.043,-4.198 0.038,-8.398 0.004,-12.598 -0.007,-0.742 0.161,-0.979 0.943,-0.969 3.461,0.046 6.922,-0.005 10.382,0.038 0.796,0.01 1.061,-0.172 1.042,-1.012 -0.057,-2.604 -0.057,-5.211 0.001,-7.814 0.018,-0.843 -0.251,-1.014 -1.043,-1.01 -7.154,0.029 -14.31,0.035 -21.463,-0.006 -0.891,-0.006 -1.07,0.232 -1.067,1.088 0.033,9.447 0.021,18.896 0.021,28.344 z"
       id="path16"
       inkscape:connector-curvature="0"
       style="clip-rule:evenodd;fill:#252122;fill-rule:evenodd" /><path
       d="m 439.043,172.556 c 0,-7.582 -0.014,-15.163 0.02,-22.744 0.002,-0.834 -0.144,-1.152 -1.066,-1.113 -1.901,0.082 -3.81,10e-4 -5.714,0.038 -0.64,0.013 -0.875,-0.145 -0.873,-0.832 0.027,-5.288 0.024,-10.575 0.003,-15.862 -0.003,-0.637 0.229,-0.771 0.817,-0.764 8.857,0.117 17.716,0.211 26.573,0.316 2.137,0.025 4.272,0.098 6.409,0.103 0.615,0.001 0.78,0.194 0.777,0.802 -0.022,5.132 -0.024,10.264 0.001,15.395 0.003,0.683 -0.229,0.854 -0.872,0.842 -1.982,-0.035 -3.967,0.04 -5.947,-0.035 -0.945,-0.036 -1.231,0.188 -1.228,1.188 0.042,9.953 0.025,19.905 0.025,29.858 0,5.172 -0.021,10.342 0.021,15.513 0.007,0.918 -0.163,1.27 -1.184,1.26 -5.559,-0.051 -11.119,-0.044 -16.678,-0.004 -0.872,0.006 -1.109,-0.221 -1.105,-1.1 0.037,-7.621 0.021,-15.241 0.021,-22.861 z m 3.633,-3.488 c 0,7.659 0.016,15.318 -0.023,22.978 -0.005,0.88 0.216,1.09 1.082,1.074 3.109,-0.058 6.221,-0.041 9.33,-0.009 0.675,0.008 1.048,-0.108 0.921,-0.874 -0.038,-0.226 -0.006,-0.465 -0.006,-0.698 0,-15.046 0.01,-30.092 -0.023,-45.138 -0.002,-0.963 0.213,-1.255 1.202,-1.216 2.096,0.084 4.198,-0.002 6.296,0.042 0.673,0.014 0.84,-0.196 0.832,-0.845 -0.034,-2.799 -0.044,-5.599 0.005,-8.397 0.012,-0.749 -0.234,-0.891 -0.922,-0.885 -3.732,0.032 -7.466,0.015 -11.198,0.015 -4.742,0 -9.486,0.023 -14.229,-0.021 -0.876,-0.009 -1.12,0.229 -1.1,1.102 0.059,2.565 0.041,5.132 0.009,7.698 -0.01,0.703 0.109,1.047 0.936,1.02 1.942,-0.059 3.891,0.033 5.831,-0.041 0.896,-0.034 1.082,0.242 1.078,1.102 -0.037,7.697 -0.021,15.396 -0.021,23.093 z"
       id="path18"
       inkscape:connector-curvature="0"
       style="clip-rule:evenodd;fill:#2b2728;fill-rule:evenodd" /><path
       d="m 134.595,163.798 c 0,-10.5 0.016,-21.001 -0.025,-31.502 -0.004,-0.998 0.277,-1.195 1.225,-1.191 8.167,0.041 16.335,0.004 24.501,0.033 3.165,0.012 6.144,0.612 8.683,2.758 2.646,2.235 3.984,5.078 3.996,8.454 0.053,14.272 -0.021,28.546 0.043,42.818 0.027,6.08 -4.333,9.895 -8.233,11.034 -0.602,0.177 -1.201,0.293 -1.83,0.293 -9.101,-0.004 -18.202,-0.017 -27.302,0.019 -0.886,0.004 -1.082,-0.233 -1.079,-1.098 0.033,-10.539 0.022,-21.078 0.021,-31.618 z m 3.08,0.229 c 0,9.407 0.015,18.814 -0.023,28.221 -0.003,0.972 0.263,1.223 1.222,1.218 7.463,-0.039 14.927,-0.021 22.391,-0.022 4.881,-10e-4 8.531,-3.646 8.532,-8.525 0.003,-14.072 0,-28.144 0.002,-42.216 0,-1.835 -0.486,-3.544 -1.481,-5.065 -1.2,-1.834 -2.794,-3.146 -5.13,-3.146 -8.085,0.001 -16.17,0.034 -24.255,0.018 -0.982,-0.003 -1.293,0.24 -1.288,1.298 0.051,9.404 0.03,18.811 0.03,28.219 z"
       id="path20"
       inkscape:connector-curvature="0"
       style="clip-rule:evenodd;fill:#292526;fill-rule:evenodd" /><path
       d="m 177.033,163.933 c 0,-10.459 0.013,-20.919 -0.023,-31.379 -0.003,-0.936 0.261,-1.139 1.154,-1.131 5.327,0.042 10.654,0.037 15.981,0.003 0.803,-0.005 1.044,0.194 1.043,1.024 -0.023,20.958 -0.023,41.918 0,62.876 0.001,0.831 -0.249,1.029 -1.05,1.024 -5.327,-0.034 -10.654,-0.043 -15.981,0.005 -0.931,0.009 -1.148,-0.254 -1.146,-1.158 0.033,-10.42 0.022,-20.842 0.022,-31.264 z m 3.04,-0.075 c 0,9.213 0.018,18.429 -0.025,27.644 -0.005,0.988 0.259,1.211 1.215,1.192 3.226,-0.063 6.454,-0.049 9.68,-0.007 0.794,0.012 1.047,-0.178 1.045,-1.016 -0.024,-18.507 -0.024,-37.016 0,-55.522 0.001,-0.804 -0.262,-0.949 -0.99,-0.941 -3.266,0.036 -6.533,0.048 -9.798,-0.006 -0.893,-0.015 -1.154,0.194 -1.15,1.128 0.039,9.175 0.024,18.351 0.023,27.528 z"
       id="path22"
       inkscape:connector-curvature="0"
       style="clip-rule:evenodd;fill:#292526;fill-rule:evenodd" /><path
       d="m 171.632,112.774 c 1.704,-3.823 3.483,-7.403 4.89,-11.126 0.884,-2.34 2.007,-3.528 4.661,-3.082 1.581,0.266 1.617,0.049 1.617,1.626 0,6.377 -0.016,12.754 0.018,19.132 0.005,0.876 -0.159,1.288 -1.133,1.171 -1.032,-0.124 -2.385,0.417 -3.036,-0.202 -0.659,-0.626 -0.188,-1.985 -0.204,-3.021 -0.032,-2.166 -0.01,-4.331 -0.21,-6.566 -0.93,2.014 -1.862,4.025 -2.79,6.04 -0.471,1.021 -0.954,2.036 -1.39,3.071 -0.208,0.491 -0.479,0.705 -1.04,0.676 -1.163,-0.059 -2.516,0.319 -3.442,-0.158 -0.88,-0.454 -1.021,-1.91 -1.482,-2.926 -0.993,-2.189 -1.95,-4.395 -2.962,-6.686 -0.326,0.387 -0.177,0.775 -0.179,1.115 -0.014,2.566 -0.039,5.133 0.011,7.699 0.015,0.777 -0.219,1.016 -0.976,0.956 -0.812,-0.063 -1.635,-0.056 -2.448,-10e-4 -0.722,0.047 -1.018,-0.121 -1.014,-0.938 0.033,-6.688 0.031,-13.376 0.001,-20.064 -0.003,-0.758 0.262,-0.919 0.945,-0.888 1.279,0.058 2.796,-0.377 3.777,0.173 0.988,0.553 1.16,2.188 1.679,3.353 1.546,3.469 3.073,6.947 4.707,10.646 z"
       id="path24"
       inkscape:connector-curvature="0"
       style="clip-rule:evenodd;fill:#272324;fill-rule:evenodd" /><path
       d="m 274.904,110.704 c -1.349,2.948 -2.718,5.886 -4.03,8.85 -0.31,0.698 -0.719,0.841 -1.458,0.973 -2.605,0.464 -3.892,-0.618 -4.677,-3.06 -0.744,-2.309 -1.925,-4.476 -3.047,-7.006 -0.046,0.562 -0.086,0.826 -0.087,1.089 -0.004,2.645 -0.021,5.289 0.01,7.933 0.008,0.691 -0.073,1.104 -0.926,1.012 -1.072,-0.115 -2.475,0.433 -3.149,-0.204 -0.685,-0.646 -0.204,-2.059 -0.208,-3.133 -0.022,-5.755 0.011,-11.51 -0.031,-17.264 -0.007,-0.964 0.189,-1.191 1.229,-1.337 2.748,-0.385 4.129,0.641 5.025,3.271 1.109,3.252 2.714,6.334 4.108,9.488 0.182,0.411 0.387,0.812 0.676,1.412 1.054,-2.359 2.031,-4.533 2.998,-6.711 0.96,-2.163 1.932,-4.322 2.856,-6.5 0.275,-0.648 0.604,-0.98 1.369,-0.917 0.965,0.078 1.946,0.072 2.913,0.002 0.819,-0.059 1.049,0.208 1.04,1.032 -0.041,4.238 -0.019,8.476 -0.019,12.714 0,2.411 -0.026,4.823 0.016,7.232 0.014,0.722 -0.196,0.963 -0.919,0.914 -1.117,-0.076 -2.58,0.351 -3.265,-0.208 -0.727,-0.594 -0.198,-2.111 -0.218,-3.224 -0.038,-2.099 -0.012,-4.198 -0.012,-6.296 -0.066,-0.022 -0.13,-0.042 -0.194,-0.062 z"
       id="path26"
       inkscape:connector-curvature="0"
       style="clip-rule:evenodd;fill:#252223;fill-rule:evenodd" /><path
       d="m 256.428,109.847 c -0.005,6.174 -5.016,11.12 -11.244,11.1 -6.101,-0.021 -11.069,-5.05 -11.05,-11.186 0.019,-6.192 4.994,-11.086 11.252,-11.07 6.147,0.016 11.047,4.967 11.042,11.156 z m -11.086,6.702 c 3.693,-0.001 6.723,-3.018 6.759,-6.729 0.036,-3.645 -3.05,-6.75 -6.725,-6.768 -3.76,-0.018 -6.813,3.031 -6.8,6.791 0.015,3.69 3.058,6.706 6.766,6.706 z"
       id="path28"
       inkscape:connector-curvature="0"
       style="clip-rule:evenodd;fill:#252223;fill-rule:evenodd" /><path
       d="m 338.776,109.917 c 0,3.25 -0.028,6.499 0.021,9.749 0.012,0.835 -0.146,1.201 -1.064,1.105 -0.846,-0.088 -1.71,-0.059 -2.562,-0.006 -0.644,0.039 -0.768,-0.221 -0.766,-0.807 0.018,-6.799 0.021,-13.599 -0.002,-20.398 -0.002,-0.646 0.234,-0.766 0.812,-0.76 2.641,0.024 5.283,-0.031 7.925,0.022 3.025,0.06 5.818,2.363 6.598,5.341 0.817,3.116 -0.472,6.445 -3.246,8.041 -0.84,0.483 -0.935,0.799 -0.431,1.608 1.387,2.224 2.677,4.509 4.105,6.938 -1.573,0 -2.954,-0.024 -4.333,0.012 -0.581,0.016 -0.694,-0.416 -0.898,-0.762 -1.983,-3.371 -3.957,-6.748 -5.933,-10.123 -0.076,0.014 -0.151,0.027 -0.226,0.04 z m 2.305,-1.111 c 0.621,0 1.244,0.035 1.861,-0.007 1.371,-0.093 2.457,-1.181 2.591,-2.548 0.122,-1.248 -0.797,-2.566 -2.064,-2.873 -0.442,-0.107 -0.921,-0.088 -1.384,-0.086 -1.042,0.003 -2.397,-0.362 -3.045,0.153 -0.761,0.605 -0.227,2.026 -0.249,3.089 -0.05,2.274 -0.015,2.274 2.29,2.272 z"
       id="path30"
       inkscape:connector-curvature="0"
       style="clip-rule:evenodd;fill:#262223;fill-rule:evenodd" /><path
       d="m 309.681,107.187 c -10e-4,2.295 0.01,4.59 -0.003,6.885 -0.019,3.799 -3.132,6.873 -7.021,6.953 -3.902,0.078 -7.295,-2.951 -7.357,-6.752 -0.081,-4.898 -0.009,-9.801 -0.032,-14.701 -0.004,-0.626 0.203,-0.803 0.802,-0.772 1.198,0.061 2.729,-0.374 3.502,0.214 0.735,0.559 0.21,2.179 0.219,3.331 0.028,3.772 0.008,7.546 0.013,11.317 0.002,1.72 1.062,2.891 2.625,2.922 1.625,0.033 2.805,-1.156 2.81,-2.889 0.012,-4.629 0.025,-9.258 -0.017,-13.885 -0.007,-0.831 0.229,-1.084 1.037,-1.015 0.812,0.069 1.639,0.078 2.447,-0.001 0.862,-0.085 1.01,0.265 0.994,1.043 -0.05,2.45 -0.019,4.901 -0.019,7.35 z"
       id="path32"
       inkscape:connector-curvature="0"
       style="clip-rule:evenodd;fill:#272324;fill-rule:evenodd" /><path
       d="m 234.706,104.88 c -1.682,0 -3.271,-0.011 -4.861,0.008 -0.394,0.006 -0.639,-0.213 -0.924,-0.413 -2.891,-2.024 -6.639,-1.67 -8.878,0.831 -2.311,2.58 -2.333,6.435 -0.054,8.914 2.394,2.602 6.077,2.982 8.957,0.885 0.434,-0.316 0.834,-0.482 1.368,-0.473 1.436,0.029 2.872,0.01 4.323,0.01 -1.158,3.839 -6.3,6.667 -11.098,6.148 -5.235,-0.565 -9.353,-4.816 -9.784,-10.1 -0.432,-5.285 3.044,-10.237 8.144,-11.599 5.097,-1.361 10.533,1.055 12.807,5.789 z"
       id="path34"
       inkscape:connector-curvature="0"
       style="clip-rule:evenodd;fill:#252223;fill-rule:evenodd" /><path
       d="m 146.491,111.892 c 1.139,-1.059 1.86,-2.434 2.752,-3.674 2.106,-2.929 4.147,-5.905 6.218,-8.859 0.419,-0.598 3.146,-1.097 3.729,-0.69 0.277,0.192 0.182,0.49 0.183,0.747 0.005,6.76 -0.002,13.521 0.015,20.281 0.001,0.6 -0.165,0.83 -0.787,0.795 -0.852,-0.048 -1.713,-0.063 -2.562,0.004 -0.775,0.061 -0.877,-0.287 -0.881,-0.951 -0.014,-2.406 -0.037,-2.406 -2.508,-2.406 -0.349,0 -0.707,0.046 -1.048,-0.007 -2.526,-0.393 -4.557,0.163 -5.556,2.802 -0.147,0.389 -0.447,0.568 -0.91,0.559 -1.392,-0.031 -2.784,-0.012 -4.166,-0.012 -0.189,-0.478 0.17,-0.693 0.351,-0.955 1.593,-2.294 3.206,-4.575 4.801,-6.868 0.167,-0.241 0.474,-0.429 0.399,-0.796 z m 8.683,-4.339 c -0.076,-0.021 -0.151,-0.042 -0.227,-0.063 -1.231,1.684 -2.462,3.367 -3.809,5.209 1.304,0 2.342,-0.019 3.378,0.007 0.501,0.013 0.674,-0.169 0.666,-0.671 -0.024,-1.493 -0.008,-2.987 -0.008,-4.482 z"
       id="path36"
       inkscape:connector-curvature="0"
       style="clip-rule:evenodd;fill:#262223;fill-rule:evenodd" /><path
       d="m 322.202,109.792 c 0,-3.343 0.021,-6.686 -0.017,-10.026 -0.008,-0.737 0.155,-0.987 0.943,-0.975 3.226,0.047 6.451,0.036 9.676,0.006 0.664,-0.006 1.003,0.083 0.932,0.867 -0.077,0.848 -0.063,1.711 -0.004,2.562 0.05,0.713 -0.172,0.945 -0.903,0.925 -1.786,-0.052 -3.576,0.016 -5.362,-0.032 -0.724,-0.02 -0.975,0.209 -0.91,0.926 0.114,1.26 -0.529,2.912 0.256,3.674 0.631,0.611 2.282,0.176 3.481,0.193 0.854,0.012 1.716,0.059 2.563,-0.016 0.765,-0.065 0.918,0.241 0.874,0.923 -0.073,1.118 0.347,2.585 -0.214,3.266 -0.595,0.722 -2.114,0.173 -3.229,0.218 -0.969,0.04 -1.942,0.031 -2.913,0 -0.557,-0.018 -0.805,0.092 -0.83,0.747 -0.133,3.38 -0.156,3.379 3.23,3.379 1.05,0 2.1,0.028 3.147,-0.011 0.594,-0.021 0.838,0.148 0.808,0.78 -0.047,0.97 -0.039,1.943 -0.003,2.913 0.02,0.523 -0.172,0.652 -0.669,0.65 -3.381,-0.019 -6.762,-0.029 -10.143,0.006 -0.687,0.008 -0.727,-0.295 -0.724,-0.832 0.02,-3.381 0.011,-6.762 0.011,-10.143 z"
       id="path38"
       inkscape:connector-curvature="0"
       style="clip-rule:evenodd;fill:#252223;fill-rule:evenodd" /><path
       d="m 280.466,109.519 c 0,-3.303 0.029,-6.605 -0.02,-9.906 -0.013,-0.833 0.228,-1.054 1.037,-1.013 2.324,0.116 4.671,-0.217 6.977,0.159 3.952,0.642 6.468,4.105 6,8.09 -0.432,3.662 -3.66,6.338 -7.488,6.208 -2.069,-0.071 -2.069,-0.071 -2.069,2.011 0,1.516 -0.024,3.031 0.011,4.546 0.016,0.617 -0.094,0.925 -0.81,0.88 -1.157,-0.074 -2.664,0.379 -3.385,-0.195 -0.759,-0.602 -0.223,-2.175 -0.24,-3.32 -0.04,-2.487 -0.013,-4.974 -0.013,-7.46 z m 4.436,-3.623 c 0,0.154 0,0.31 0,0.465 0,2.285 0,2.285 2.289,2.253 1.713,-0.023 2.907,-1.195 2.873,-2.816 -0.04,-1.853 -1.303,-2.666 -4.062,-2.675 -2.21,-0.006 -0.606,1.675 -1.094,2.43 -0.053,0.081 -0.006,0.226 -0.006,0.343 z"
       id="path40"
       inkscape:connector-curvature="0"
       style="clip-rule:evenodd;fill:#252122;fill-rule:evenodd" /><path
       d="m 146.522,111.861 c -2.177,0.008 -4.355,0.045 -6.532,0.006 -0.731,-0.013 -0.998,0.143 -0.977,0.939 0.059,2.253 -0.004,4.51 0.035,6.765 0.012,0.687 -0.129,0.983 -0.888,0.925 -1.118,-0.085 -2.569,0.35 -3.276,-0.205 -0.756,-0.594 -0.233,-2.108 -0.237,-3.217 -0.028,-5.795 0.006,-11.588 -0.034,-17.382 -0.006,-0.875 0.219,-1.112 1.096,-1.098 3.266,0.055 6.533,0.045 9.799,0.004 0.773,-0.01 1.025,0.217 0.968,0.982 -0.08,1.078 0.33,2.48 -0.208,3.158 -0.576,0.725 -2.036,0.185 -3.109,0.229 -1.087,0.046 -2.179,0.042 -3.266,-0.002 -0.616,-0.025 -0.923,0.083 -0.876,0.803 0.063,0.968 0.052,1.945 0.002,2.914 -0.031,0.614 0.166,0.79 0.777,0.778 1.943,-0.038 3.889,0.012 5.833,-0.028 0.659,-0.014 0.872,0.182 0.848,0.846 -0.042,1.204 0.003,2.41 0.013,3.615 z"
       id="path42"
       inkscape:connector-curvature="0"
       style="clip-rule:evenodd;fill:#272324;fill-rule:evenodd" /><path
       d="m 212.196,98.616 c -0.875,1.767 -1.667,3.39 -2.479,5.001 -1.38,2.736 -2.766,5.469 -4.168,8.193 -0.258,0.504 -0.354,1.01 -0.35,1.567 0.015,2.062 -0.018,4.122 0.018,6.184 0.012,0.685 -0.144,0.993 -0.901,0.935 -0.85,-0.067 -1.713,-0.062 -2.564,-0.002 -0.71,0.051 -0.945,-0.163 -0.927,-0.898 0.049,-2.021 -0.004,-4.045 0.029,-6.066 0.011,-0.687 -0.156,-1.281 -0.464,-1.885 -2.077,-4.077 -4.132,-8.165 -6.193,-12.251 -0.102,-0.203 -0.183,-0.415 -0.342,-0.776 1.566,0 3.019,0.022 4.47,-0.011 0.646,-0.014 0.734,0.477 0.933,0.872 1.248,2.494 2.485,4.994 3.83,7.699 1.042,-2.155 2.186,-4.082 2.918,-6.154 0.718,-2.032 1.891,-2.77 3.945,-2.425 0.666,0.111 1.369,0.017 2.245,0.017 z"
       id="path44"
       inkscape:connector-curvature="0"
       style="clip-rule:evenodd;fill:#262223;fill-rule:evenodd" /><path
       d="m 317.933,111.996 c 0,2.604 -0.028,5.209 0.017,7.812 0.014,0.767 -0.203,1.017 -0.974,0.961 -1.119,-0.083 -2.596,0.361 -3.272,-0.201 -0.711,-0.591 -0.205,-2.119 -0.21,-3.236 -0.025,-4.354 -0.031,-8.707 0.008,-13.061 0.007,-0.787 -0.157,-1.056 -1.002,-1.045 -2.536,0.033 -2.536,-0.006 -2.536,-2.502 0,-1.915 0,-1.915 1.865,-1.915 2.915,0 5.831,0.019 8.745,-0.015 0.703,-0.008 1.066,0.091 0.989,0.921 -0.08,0.887 -0.076,1.792 0,2.68 0.067,0.775 -0.255,0.883 -0.926,0.873 -0.882,-0.014 -2.092,-0.41 -2.561,0.177 -0.442,0.553 -0.137,1.71 -0.141,2.603 -0.007,1.983 -0.002,3.965 -0.002,5.948 z"
       id="path46"
       inkscape:connector-curvature="0"
       style="clip-rule:evenodd;fill:#292526;fill-rule:evenodd" /><path
       d="m 188.976,109.498 c 0,-3.303 0.02,-6.605 -0.015,-9.908 -0.008,-0.723 0.124,-1.062 0.939,-0.99 0.848,0.075 1.713,0.076 2.562,0 0.856,-0.077 1.012,0.273 1.007,1.053 -0.033,5.128 0.003,10.258 -0.036,15.385 -0.007,0.891 0.185,1.25 1.141,1.178 1.159,-0.086 2.33,-10e-4 3.496,-0.027 0.555,-0.014 0.876,0.087 0.843,0.753 -0.047,0.931 -0.044,1.866 -0.001,2.796 0.03,0.654 -0.272,0.759 -0.839,0.754 -2.758,-0.022 -5.518,-0.031 -8.275,0.006 -0.676,0.008 -0.841,-0.211 -0.835,-0.857 0.029,-3.384 0.013,-6.764 0.013,-10.143 z"
       id="path48"
       inkscape:connector-curvature="0"
       style="clip-rule:evenodd;fill:#262223;fill-rule:evenodd" /><path
       d="m 188.242,109.548 c 0,3.304 -0.027,6.608 0.019,9.913 0.011,0.814 -0.207,1.104 -1.035,1.036 -0.85,-0.07 -1.714,-0.07 -2.564,0 -0.826,0.068 -1.044,-0.219 -1.037,-1.035 0.04,-4.393 0.019,-8.786 0.019,-13.18 0,-2.254 0.028,-4.51 -0.016,-6.764 -0.014,-0.716 0.187,-0.966 0.915,-0.919 0.929,0.06 1.868,0.06 2.797,0 0.726,-0.047 0.924,0.2 0.917,0.917 -0.035,3.345 -0.015,6.689 -0.015,10.032 z"
       id="path50"
       inkscape:connector-curvature="0"
       style="clip-rule:evenodd;fill:#292526;fill-rule:evenodd" /><path
       d="m 60.762,102.082 c 10.734,0 21.47,-0.002 32.205,0 5.541,0.002 9.134,3.549 9.146,9.102 0.022,9.568 0.018,19.137 -0.014,28.704 -0.003,0.86 0.247,1.283 1.04,1.657 6.686,3.152 9.809,10.533 7.199,17.03 -1.372,3.413 -3.887,5.769 -7.229,7.221 -0.772,0.337 -1.019,0.729 -1.008,1.548 0.044,3.538 0.048,7.078 -0.001,10.617 -0.013,0.899 0.224,1.251 1.157,1.447 3.953,0.833 5.899,4.016 5.014,7.805 -0.507,2.168 -3.304,4.322 -5.549,4.354 -9.293,0.128 -18.585,0.107 -27.877,0.152 -0.899,0.005 -1.324,-0.205 -1.666,-1.116 -3.933,-10.479 -16.535,-10.49 -21.855,-4.832 -1.406,1.495 -2.478,3.189 -3.158,5.117 -0.21,0.596 -0.472,0.833 -1.146,0.83 -7.467,-0.04 -14.935,-0.032 -22.402,-0.062 -1.941,-0.007 -3.882,-0.13 -5.824,-0.146 -3.124,-0.027 -5.619,-2.382 -5.783,-5.512 -0.179,-3.399 1.679,-5.854 5.144,-6.579 0.977,-0.203 1.229,-0.562 1.213,-1.521 -0.06,-3.578 -0.042,-7.156 -0.008,-10.734 0.007,-0.691 -0.225,-1.013 -0.851,-1.298 -5.062,-2.295 -8.161,-6.099 -8.263,-11.779 -0.104,-5.802 2.97,-9.812 7.929,-12.465 0.881,-0.471 1.201,-0.908 1.196,-1.914 -0.045,-9.451 -0.023,-18.902 -0.029,-28.354 -0.002,-3.133 0.966,-5.799 3.604,-7.688 1.609,-1.153 3.423,-1.589 5.38,-1.587 10.81,0.006 21.623,0.003 32.436,0.003 z m 38.633,33.103 c 0.003,-10.139 -7.987,-18.199 -18.048,-18.207 -10.153,-0.009 -18.299,8.055 -18.306,18.121 -0.007,10.092 8.122,18.227 18.221,18.232 10.06,0.007 18.13,-8.069 18.133,-18.146 z M 58.319,135.164 C 58.338,125.154 50.271,117 40.328,116.978 c -10.24,-0.023 -18.403,8.016 -18.421,18.139 -0.018,9.945 8.148,18.195 18.029,18.215 10.236,0.021 18.363,-8.011 18.383,-18.168 z"
       id="path52"
       inkscape:connector-curvature="0"
       style="clip-rule:evenodd;fill:#f1bc17;fill-rule:evenodd" /><path
       d="m 532.949,140.54 c 0.504,-0.925 0.826,-1.761 1.427,-2.425 1.664,-1.844 3.641,-2.941 6.212,-2.907 4.045,0.052 8.089,0.01 12.134,0.015 4.088,0.006 6.362,2.251 6.366,6.357 0.012,16.839 -0.002,33.68 0.023,50.521 0.002,0.827 -0.225,1.032 -1.033,1.021 -3.07,-0.049 -6.145,-0.057 -9.216,0.002 -0.914,0.018 -1.15,-0.224 -1.148,-1.144 0.031,-13.769 0.023,-27.535 0.019,-41.304 0,-1.357 0.002,-2.693 -0.904,-3.883 -1.26,-1.65 -4.044,-1.541 -5.859,-0.965 -1.722,0.546 -2.799,2.209 -2.801,4.16 -0.007,10.696 -0.003,21.391 -0.003,32.086 0,3.384 -0.023,6.768 0.019,10.15 0.009,0.733 -0.199,0.904 -0.909,0.894 -2.993,-0.041 -5.989,-0.065 -8.983,0.011 -0.983,0.024 -1.111,-0.329 -1.109,-1.182 0.022,-13.729 0.014,-27.459 0.019,-41.188 10e-4,-1.338 -0.108,-2.635 -0.886,-3.79 -1.159,-1.72 -3.079,-2.296 -5.501,-1.631 -1.823,0.501 -3.148,2.176 -3.179,4.134 -0.035,2.411 -0.008,4.822 -0.008,7.234 0,11.745 -0.015,23.491 0.025,35.236 0.004,0.999 -0.273,1.204 -1.218,1.182 -2.721,-0.067 -5.444,-0.046 -8.166,-0.01 -0.687,0.01 -0.928,-0.134 -0.927,-0.886 0.022,-18.823 0.021,-37.647 0.002,-56.472 -0.001,-0.76 0.199,-0.979 0.972,-0.982 5.286,-0.016 10.575,0.001 15.859,-0.161 3.987,-0.122 6.64,1.681 8.359,5.13 0.103,0.209 0.214,0.413 0.414,0.797 z"
       id="path54"
       inkscape:connector-curvature="0"
       style="clip-rule:evenodd;fill:#fdfdfd;fill-rule:evenodd" /><path
       d="m 384.089,161.587 c 0,8.168 0.002,16.337 -10e-4,24.504 -0.001,4.676 -2.347,7.008 -7.039,7.008 -7.079,0 -14.158,-0.015 -21.236,0.02 -0.837,0.004 -1.144,-0.144 -1.113,-1.063 0.076,-2.293 0.074,-4.591 0.001,-6.884 -0.03,-0.949 0.198,-1.251 1.192,-1.234 3.616,0.062 7.233,0.036 10.851,0.021 1.448,-0.007 2.865,-0.15 4.095,-1.066 1.238,-0.921 1.913,-2.118 1.936,-3.662 0.019,-1.167 -0.044,-2.336 0.021,-3.5 0.042,-0.761 -0.255,-0.895 -0.941,-0.889 -4.123,0.028 -8.245,0.016 -12.368,0.014 -4.765,-0.001 -7.401,-2.637 -7.403,-7.425 -0.005,-10.385 0.016,-20.77 -0.026,-31.154 -0.005,-1.026 0.235,-1.304 1.271,-1.274 2.798,0.08 5.602,0.077 8.4,0.002 1.012,-0.027 1.188,0.307 1.184,1.24 -0.038,7.74 -0.026,15.479 -0.014,23.22 10e-4,0.696 0.065,1.397 0.178,2.085 0.28,1.719 1.384,2.828 3.109,3.192 3.311,0.7 6.02,-0.828 6.586,-3.735 0.081,-0.414 0.079,-0.848 0.079,-1.273 0.004,-7.856 0.018,-15.713 -0.019,-23.569 -0.003,-0.91 0.22,-1.177 1.147,-1.157 2.994,0.062 5.99,0.062 8.984,10e-4 0.915,-0.019 1.152,0.224 1.148,1.144 -0.038,8.476 -0.022,16.956 -0.022,25.434 z"
       id="path56"
       inkscape:connector-curvature="0"
       style="clip-rule:evenodd;fill:#fdfdfd;fill-rule:evenodd" /><path
       d="m 233.553,157.926 c -2.968,-1.777 -5.924,-3.549 -8.881,-5.319 -0.233,-0.14 -0.453,-0.311 -0.702,-0.412 -1.745,-0.711 -2.561,-1.809 -2.382,-3.871 0.182,-2.085 -2.085,-3.838 -4.358,-3.761 -2.901,0.099 -4.568,1.812 -4.569,4.698 0,1.672 0.045,3.346 -0.019,5.016 -0.032,0.834 0.226,1.318 0.949,1.777 4.851,3.076 9.665,6.211 14.494,9.322 1.676,1.079 3.222,2.301 4.407,3.931 0.731,1.004 1.089,2.099 1.075,3.367 -0.046,4.51 0.041,9.022 -0.064,13.53 -0.106,4.575 -2.761,7.079 -7.306,7.087 -5.599,0.01 -11.199,-0.006 -16.799,0.005 -4.088,0.008 -7.94,-2.651 -7.792,-7.81 0.127,-4.465 0.119,-8.936 0.174,-13.403 0.005,-0.375 0.04,-0.75 0.072,-1.312 2.082,1.244 4.031,2.41 5.981,3.573 1.367,0.815 2.724,1.647 4.11,2.428 0.542,0.305 0.793,0.669 0.729,1.299 -0.052,0.5 -0.015,1.011 -0.01,1.516 0.028,2.674 2.049,4.655 4.773,4.683 2.592,0.024 4.836,-1.961 4.926,-4.456 0.071,-1.981 -0.003,-3.966 0.049,-5.948 0.018,-0.649 -0.38,-0.867 -0.805,-1.141 -4.892,-3.154 -9.778,-6.318 -14.677,-9.464 -1.188,-0.762 -2.247,-1.657 -3.167,-2.726 -1.342,-1.562 -2.029,-3.288 -1.979,-5.421 0.108,-4.625 0.03,-9.254 0.035,-13.881 0.004,-3.666 2.99,-6.666 6.652,-6.671 5.677,-0.009 11.355,-0.011 17.032,10e-4 4.538,0.01 8.05,3.502 8.052,7.984 0.002,5.089 0,10.177 0,15.379 z"
       id="path58"
       inkscape:connector-curvature="0"
       style="clip-rule:evenodd;fill:#fdfdfd;fill-rule:evenodd" /><path
       d="m 342.005,157.93 c -1.409,-0.835 -2.766,-1.635 -4.117,-2.442 -2.131,-1.275 -4.221,-2.625 -6.402,-3.806 -1.102,-0.597 -1.589,-1.278 -1.44,-2.546 0.165,-1.428 -0.285,-2.687 -1.49,-3.59 -1.634,-1.224 -3.384,-1.224 -5.167,-0.424 -1.723,0.773 -2.431,2.137 -2.332,4.029 0.089,1.707 0.065,3.424 -0.002,5.133 -0.032,0.83 0.216,1.303 0.938,1.761 5.046,3.207 10.05,6.479 15.077,9.712 1.055,0.678 1.99,1.491 2.864,2.374 1.361,1.375 2.111,2.957 2.057,4.995 -0.12,4.507 0.038,9.021 -0.134,13.524 -0.161,4.219 -2.784,6.61 -6.996,6.635 -5.755,0.034 -11.511,0.039 -17.266,-0.002 -4.194,-0.029 -7.689,-2.991 -7.547,-7.55 0.149,-4.738 0.127,-9.483 0.184,-14.224 0.002,-0.187 0.047,-0.372 0.092,-0.705 2.547,1.518 5.003,2.981 7.461,4.444 0.199,0.12 0.388,0.269 0.602,0.354 2.034,0.812 3.026,2.082 2.766,4.483 -0.187,1.736 1.066,3.014 2.692,3.724 1.943,0.846 3.723,0.43 5.354,-0.805 1.177,-0.89 1.624,-2.147 1.639,-3.574 0.018,-1.827 -0.028,-3.656 0.022,-5.482 0.017,-0.627 -0.306,-0.884 -0.749,-1.17 -4.929,-3.171 -9.844,-6.366 -14.779,-9.526 -1.292,-0.828 -2.408,-1.827 -3.383,-3.003 -1.184,-1.43 -1.773,-3.017 -1.743,-4.921 0.073,-4.666 0.019,-9.334 0.025,-14 0.005,-3.821 2.965,-6.768 6.791,-6.769 5.561,-0.003 11.122,-0.019 16.683,0.006 3.048,0.014 5.441,1.344 7.242,3.782 0.752,1.018 0.985,2.194 1.002,3.408 0.073,5.246 0.114,10.494 0.164,15.741 -10e-4,0.105 -0.051,0.208 -0.108,0.434 z"
       id="path60"
       inkscape:connector-curvature="0"
       style="clip-rule:evenodd;fill:#fdfdfd;fill-rule:evenodd" /><path
       d="m 425.481,157.923 c -3.82,-2.294 -7.574,-4.555 -11.34,-6.798 -0.384,-0.229 -0.556,-0.503 -0.525,-0.939 0.02,-0.31 0.003,-0.622 0.003,-0.933 -0.001,-2.268 -0.859,-3.676 -2.646,-4.341 -1.922,-0.714 -4.385,-0.114 -5.649,1.382 -0.528,0.625 -0.722,1.373 -0.728,2.166 -0.013,2.101 0.024,4.203 -0.025,6.301 -0.016,0.641 0.34,0.871 0.771,1.148 5.091,3.282 10.175,6.574 15.266,9.854 1.219,0.786 2.291,1.74 3.251,2.815 1.067,1.193 1.646,2.528 1.611,4.222 -0.094,4.394 -0.026,8.789 -0.033,13.186 -0.008,4.638 -2.665,7.295 -7.318,7.305 -5.407,0.012 -10.814,-0.082 -16.22,0.03 -4.229,0.087 -8.65,-2.224 -8.379,-8.434 0.191,-4.348 0.151,-8.706 0.163,-13.061 0.002,-0.942 0.171,-1.059 0.982,-0.562 3.047,1.864 6.117,3.689 9.197,5.495 0.535,0.314 0.804,0.653 0.737,1.287 -0.053,0.5 -0.016,1.011 -0.011,1.516 0.026,2.677 2.034,4.658 4.76,4.7 2.628,0.039 4.884,-1.994 4.958,-4.549 0.056,-1.943 -0.019,-3.891 0.029,-5.833 0.016,-0.642 -0.35,-0.872 -0.784,-1.151 -4.896,-3.154 -9.775,-6.33 -14.683,-9.466 -1.128,-0.722 -2.111,-1.586 -3.008,-2.561 -1.481,-1.608 -2.229,-3.455 -2.188,-5.701 0.084,-4.511 0.058,-9.024 0.016,-13.536 -0.031,-3.122 2.534,-7.019 6.943,-6.934 5.639,0.108 11.28,0.017 16.919,0.03 3.478,0.009 7.173,2.71 7.745,5.79 0.246,1.321 0.172,2.709 0.178,4.067 0.019,4.46 0.008,8.919 0.008,13.505 z"
       id="path62"
       inkscape:connector-curvature="0"
       style="clip-rule:evenodd;fill:#fdfdfd;fill-rule:evenodd" /><path
       d="m 254.079,159.107 c 2.709,-2.588 5.458,-5.225 8.221,-7.846 0.433,-0.41 0.56,-0.869 0.562,-1.451 0.018,-4.547 0.092,-9.094 0.078,-13.641 -0.003,-0.879 0.214,-1.1 1.087,-1.082 2.875,0.061 5.754,0.049 8.63,0.006 0.767,-0.012 1.065,0.117 1.06,0.985 -0.042,5.987 -0.034,11.976 -0.005,17.964 0.003,0.655 -0.272,1.081 -0.665,1.531 -2.12,2.429 -4.207,4.89 -6.345,7.302 -0.489,0.553 -0.471,0.882 0.015,1.431 2.06,2.325 4.058,4.706 6.101,7.048 0.452,0.52 0.705,1.029 0.701,1.758 -0.031,6.182 -0.034,12.364 10e-4,18.546 0.005,0.805 -0.18,1.048 -1.013,1.033 -3.149,-0.052 -6.299,-0.052 -9.448,0 -0.853,0.015 -1.013,-0.271 -1.006,-1.058 0.035,-4.704 0.004,-9.409 0.032,-14.113 0.004,-0.675 -0.175,-1.136 -0.679,-1.602 -2.559,-2.37 -5.077,-4.784 -7.82,-7.385 0,0.636 0,1.037 0,1.438 0,7.194 -0.015,14.387 0.02,21.579 0.004,0.848 -0.166,1.125 -1.07,1.105 -2.915,-0.064 -5.832,-0.053 -8.747,-0.006 -0.777,0.014 -0.951,-0.22 -0.95,-0.968 0.021,-18.663 0.021,-37.326 -0.001,-55.988 -0.001,-0.768 0.204,-0.969 0.961,-0.957 2.993,0.044 5.988,0.043 8.981,0 0.722,-0.01 0.894,0.184 0.901,0.9 0.073,7.07 0.185,14.14 0.294,21.209 0.013,0.842 0.077,1.68 0.104,2.262 z"
       id="path64"
       inkscape:connector-curvature="0"
       style="clip-rule:evenodd;fill:#fdfdfd;fill-rule:evenodd" /><path
       d="m 472.313,164.631 c 0,-9.448 0.013,-18.897 -0.021,-28.345 -0.003,-0.855 0.177,-1.094 1.067,-1.088 7.153,0.041 14.309,0.035 21.463,0.006 0.792,-0.004 1.061,0.167 1.043,1.01 -0.058,2.604 -0.058,5.21 -0.001,7.814 0.019,0.84 -0.246,1.021 -1.042,1.012 -3.46,-0.043 -6.921,0.008 -10.382,-0.038 -0.782,-0.011 -0.95,0.227 -0.943,0.969 0.034,4.199 0.039,8.399 -0.004,12.598 -0.008,0.787 0.234,0.949 0.973,0.942 3.498,-0.037 6.999,0.005 10.497,-0.034 0.77,-0.009 1.075,0.122 1.055,0.99 -0.062,2.681 -0.054,5.365 -0.002,8.048 0.015,0.801 -0.181,1.044 -1.012,1.033 -3.576,-0.048 -7.154,0.002 -10.731,-0.038 -0.757,-0.008 -0.979,0.186 -0.973,0.961 0.039,4.121 0.036,8.243 10e-4,12.364 -0.005,0.733 0.22,0.915 0.926,0.908 3.539,-0.033 7.077,0.011 10.616,-0.035 0.832,-0.012 1.033,0.241 1.02,1.044 -0.049,2.799 -0.047,5.599 -10e-4,8.398 0.013,0.737 -0.212,0.9 -0.915,0.898 -7.194,-0.024 -14.387,-0.032 -21.58,0.007 -0.876,0.005 -1.078,-0.21 -1.075,-1.079 0.033,-9.447 0.021,-18.896 0.021,-28.345 z"
       id="path66"
       inkscape:connector-curvature="0"
       style="clip-rule:evenodd;fill:#fefefe;fill-rule:evenodd" /><path
       d="m 442.676,169.068 c 0,-7.697 -0.016,-15.396 0.021,-23.094 0.004,-0.859 -0.183,-1.136 -1.078,-1.102 -1.94,0.074 -3.889,-0.018 -5.831,0.041 -0.826,0.027 -0.945,-0.316 -0.936,-1.02 0.032,-2.566 0.05,-5.133 -0.009,-7.698 -0.021,-0.872 0.224,-1.11 1.1,-1.102 4.742,0.044 9.486,0.021 14.229,0.021 3.732,0 7.466,0.018 11.198,-0.015 0.688,-0.006 0.934,0.136 0.922,0.885 -0.049,2.799 -0.039,5.599 -0.005,8.397 0.008,0.648 -0.159,0.858 -0.832,0.845 -2.098,-0.044 -4.2,0.042 -6.296,-0.042 -0.989,-0.039 -1.204,0.253 -1.202,1.216 0.033,15.046 0.023,30.092 0.023,45.138 0,0.233 -0.032,0.473 0.006,0.698 0.127,0.766 -0.246,0.882 -0.921,0.874 -3.109,-0.032 -6.221,-0.049 -9.33,0.009 -0.866,0.016 -1.087,-0.194 -1.082,-1.074 0.039,-7.659 0.023,-15.318 0.023,-22.977 z"
       id="path68"
       inkscape:connector-curvature="0"
       style="clip-rule:evenodd;fill:#fefefe;fill-rule:evenodd" /><path
       d="m 137.675,164.027 c 0,-9.408 0.021,-18.814 -0.029,-28.222 -0.005,-1.058 0.305,-1.301 1.288,-1.298 8.085,0.017 16.17,-0.017 24.255,-0.018 2.336,0 3.93,1.312 5.13,3.146 0.995,1.521 1.481,3.23 1.481,5.065 -0.001,14.072 10e-4,28.144 -0.002,42.216 -0.001,4.879 -3.651,8.524 -8.532,8.525 -7.464,0.002 -14.927,-0.017 -22.391,0.022 -0.959,0.005 -1.226,-0.246 -1.222,-1.218 0.036,-9.404 0.022,-18.811 0.022,-28.218 z m 10.924,-0.524 c 0.065,0 0.129,-10e-4 0.194,-10e-4 0,6.064 0.025,12.129 -0.025,18.191 -0.008,0.973 0.312,1.168 1.184,1.12 1.24,-0.068 2.487,-0.017 3.731,-0.019 2.043,-0.002 3.428,-1.046 4.018,-3.023 0.248,-0.829 0.281,-1.679 0.281,-2.537 -0.003,-8.982 -0.002,-17.963 -0.004,-26.944 0,-0.389 -0.002,-0.779 -0.036,-1.165 -0.247,-2.864 -2.193,-4.669 -5.059,-4.692 -1.05,-0.008 -2.104,0.059 -3.148,-0.02 -0.9,-0.065 -1.167,0.197 -1.16,1.135 0.047,5.985 0.024,11.971 0.024,17.955 z"
       id="path70"
       inkscape:connector-curvature="0"
       style="clip-rule:evenodd;fill:#fdfdfd;fill-rule:evenodd" /><path
       d="m 180.073,163.858 c 0,-9.177 0.016,-18.353 -0.023,-27.528 -0.004,-0.934 0.257,-1.143 1.15,-1.128 3.265,0.054 6.532,0.042 9.798,0.006 0.729,-0.008 0.991,0.138 0.99,0.941 -0.024,18.507 -0.024,37.016 0,55.522 0.001,0.838 -0.251,1.027 -1.045,1.016 -3.227,-0.042 -6.455,-0.057 -9.68,0.007 -0.956,0.019 -1.22,-0.204 -1.215,-1.192 0.043,-9.215 0.025,-18.431 0.025,-27.644 z"
       id="path72"
       inkscape:connector-curvature="0"
       style="clip-rule:evenodd;fill:#fdfdfd;fill-rule:evenodd" /><path
       d="m 99.395,135.185 c -0.003,10.077 -8.073,18.153 -18.133,18.146 -10.099,-0.006 -18.228,-8.141 -18.221,-18.232 0.007,-10.066 8.153,-18.13 18.306,-18.121 10.06,0.008 18.051,8.068 18.048,18.207 z m -33.584,-3.051 c 2.752,-1.46 4.652,-1.35 6.073,0.354 1.283,1.537 1.301,3.713 0.044,5.254 -1.451,1.779 -3.351,1.896 -6.157,0.375 0.062,6.58 8.075,13.066 15.978,12.936 8.657,-0.144 15.579,-7.574 15.365,-16.49 -0.208,-8.656 -7.611,-15.561 -16.407,-15.304 -7.34,0.214 -15.121,6.94 -14.896,12.875 z"
       id="path74"
       inkscape:connector-curvature="0"
       style="clip-rule:evenodd;fill:#282320;fill-rule:evenodd" /><path
       d="m 58.319,135.164 c -0.02,10.157 -8.146,18.189 -18.383,18.168 -9.881,-0.02 -18.047,-8.27 -18.029,-18.215 0.019,-10.123 8.182,-18.162 18.421,-18.139 9.942,0.022 18.009,8.176 17.991,18.186 z m -2.683,-2.883 c -0.379,-5.107 -6.009,-13.15 -15.757,-13.029 -8.682,0.107 -15.815,7.414 -15.671,16.104 0.148,8.906 7.593,15.961 16.566,15.697 7.234,-0.213 15.02,-7.03 14.821,-12.978 -2.623,1.618 -4.668,1.476 -6.218,-0.433 -1.222,-1.506 -1.135,-3.789 0.199,-5.248 1.577,-1.725 3.672,-1.764 6.06,-0.113 z"
       id="path76"
       inkscape:connector-curvature="0"
       style="clip-rule:evenodd;fill:#282320;fill-rule:evenodd" /><path
       d="m 148.599,163.503 c 0,-5.984 0.023,-11.971 -0.023,-17.955 -0.007,-0.938 0.259,-1.2 1.16,-1.135 1.044,0.078 2.098,0.012 3.148,0.02 2.865,0.023 4.812,1.828 5.059,4.692 0.033,0.386 0.036,0.776 0.036,1.165 0.002,8.981 0,17.962 0.004,26.944 0,0.858 -0.033,1.708 -0.281,2.537 -0.589,1.978 -1.975,3.021 -4.018,3.023 -1.244,0.002 -2.491,-0.05 -3.731,0.019 -0.872,0.048 -1.192,-0.147 -1.184,-1.12 0.05,-6.062 0.025,-12.127 0.025,-18.191 -0.066,0 -0.13,10e-4 -0.195,10e-4 z m 3.002,0.206 c 0,5.016 -0.001,10.033 0,15.05 0,1.075 0.406,1.393 1.493,1.186 1.249,-0.237 1.835,-1.105 1.84,-2.833 0.012,-4.394 0.004,-8.789 0.004,-13.183 0,-4.589 0.005,-9.179 -0.003,-13.768 -0.003,-1.459 -0.688,-2.342 -1.899,-2.519 -1.152,-0.168 -1.434,0.074 -1.434,1.249 -0.002,4.941 -0.001,9.879 -0.001,14.818 z"
       id="path78"
       inkscape:connector-curvature="0"
       style="clip-rule:evenodd;fill:#292526;fill-rule:evenodd" /><path
       d="m 65.811,132.134 c -0.226,-5.936 7.556,-12.661 14.897,-12.876 8.796,-0.257 16.198,6.647 16.407,15.304 0.214,8.916 -6.708,16.347 -15.365,16.49 -7.903,0.131 -15.916,-6.355 -15.978,-12.936 2.806,1.521 4.706,1.404 6.157,-0.375 1.257,-1.541 1.238,-3.717 -0.044,-5.254 -1.421,-1.702 -3.322,-1.813 -6.074,-0.353 z"
       id="path80"
       inkscape:connector-curvature="0"
       style="clip-rule:evenodd;fill:#f1bc17;fill-rule:evenodd" /><path
       d="m 55.636,132.281 c -2.388,-1.65 -4.483,-1.611 -6.061,0.113 -1.334,1.459 -1.421,3.742 -0.199,5.248 1.55,1.908 3.596,2.051 6.218,0.433 0.199,5.947 -7.587,12.765 -14.821,12.978 -8.973,0.264 -16.417,-6.791 -16.566,-15.697 -0.145,-8.689 6.989,-15.996 15.671,-16.104 9.75,-0.122 15.38,7.921 15.758,13.029 z"
       id="path82"
       inkscape:connector-curvature="0"
       style="clip-rule:evenodd;fill:#f1bc17;fill-rule:evenodd" /></g><path
     d="m 385.41288,52.839748 h -215.148 c -19.423,0 -35.228,-11.852998 -35.228,-26.420998 0,-14.568 15.806,-26.41875 35.228,-26.41875 h 215.146 c 19.426,0 35.229,11.8515 35.229,26.4195 0,14.568 -15.801,26.420248 -35.227,26.420248 z M 170.26488,6.2505 c -14.829,0 -26.895,9.048 -26.895,20.17125 0,11.121 12.064,20.171248 26.895,20.171248 h 215.146 c 14.826,0 26.896,-9.048748 26.896,-20.171248 0,-11.1225 -12.068,-20.17125 -26.896,-20.17125 z"
     id="path86"
     inkscape:connector-curvature="0"
     style="fill:#ff0000;stroke-width:0.86602539" /><path
     d="M 197.89688,38.67225 V 14.286 h -9.778 V 31.33725 L 173.69488,14.286 h -10.512 v 24.38625 h 9.779 V 21.0705 l 15.155,17.60175 z"
     id="path88"
     inkscape:connector-curvature="0"
     style="fill:#ff0000;stroke-width:0.86602539" /><path
     d="m 213.78888,38.67225 v -16.5015 h -9.778 v 16.5015 z"
     id="path90"
     inkscape:connector-curvature="0"
     style="fill:#ff0000;stroke-width:0.86602539" /><path
     d="M 213.78888,18.68625 V 14.286 h -9.778 v 4.40025 z"
     id="path92"
     inkscape:connector-curvature="0"
     style="fill:#ff0000;stroke-width:0.86602539" /><path
     id="_x33_162"
     d="M 248.01288,38.67225 V 27.303 c 0,-2.3835 -6.112,-5.6835 -9.289,-5.6835 h -2.935 c -2.199,0 -4.646,1.467 -6.846,2.2005 v -1.64925 h -9.778 v 16.5015 h 9.778 V 27.303 c 0,-1.10025 3.423,-2.3835 4.891,-2.3835 1.467,0 4.154,1.28325 4.154,2.3835 v 11.3685 z"
     inkscape:connector-curvature="0"
     style="fill:#ff0000;stroke-width:0.86602539" /><path
     id="_x33_162_1_"
     d="M 329.83288,39.24 V 27.87225 c 0,-2.38425 -6.109,-5.6835 -9.293,-5.6835 h -2.932 c -2.201,0 -4.646,1.467 -6.848,2.19975 v -1.64925 h -9.777 v 16.5015 h 9.777 v -11.3685 c 0,-1.0995 3.424,-2.38425 4.891,-2.38425 1.467,0 4.154,1.28475 4.154,2.38425 V 39.24 Z"
     inkscape:connector-curvature="0"
     style="fill:#ff0000;stroke-width:0.86602539" /><path
     d="m 263.90388,38.67225 v -16.5015 h 5.135 v -2.2005 h -5.135 V 16.4865 h -10.02 v 3.48375 h -5.135 v 2.2005 h 5.135 v 16.5015 z"
     id="path96"
     inkscape:connector-curvature="0"
     style="fill:#ff0000;stroke-width:0.86602539" /><path
     d="m 282.72788,21.62025 c -7.823,0 -14.422,4.0335 -14.422,8.98425 0,5.1345 6.6,9.16725 14.422,9.16725 6.846,0 12.469,-2.93325 13.936,-6.78375 h -10.021 v 2.20125 c 0,1.833 -1.709,2.385 -3.91,2.385 -2.201,0 -3.668,-0.5505 -3.668,-2.385 V 30.606 h 18.092 c -0.003,-4.9515 -6.359,-8.98575 -14.429,-8.98575 z m 0,1.65 c 2.201,0 3.912,1.10025 3.912,2.934 v 1.64925 h -7.578 v -1.64925 c 0,-1.83375 1.467,-2.934 3.666,-2.934 z"
     id="path98"
     inkscape:connector-curvature="0"
     style="fill:#ff0000;stroke-width:0.86602539" /><path
     d="m 379.05388,21.62025 c -8.07,0 -14.426,4.0335 -14.426,8.98425 0,5.1345 6.354,9.16725 14.426,9.16725 7.818,0 14.422,-4.03275 14.422,-9.16725 -0.004,-4.95 -6.604,-8.98425 -14.422,-8.98425 z m 0,1.65 c 2.195,0 3.666,1.10025 3.666,2.934 v 8.9835 c 0,1.833 -1.471,2.385 -3.666,2.385 -2.445,0 -3.914,-0.5505 -3.914,-2.385 v -8.9835 c -0.002,-1.83375 1.467,-2.934 3.914,-2.934 z"
     id="path100"
     inkscape:connector-curvature="0"
     style="fill:#ff0000;stroke-width:0.86602539" /><path
     d="m 350.93688,14.286 v 8.98425 c 0,0 -2.936,-1.65 -6.848,-1.65 -6.111,0 -11.244,4.0335 -11.244,8.4345 0,4.584 5.135,9.168 11.244,9.168 3.912,0 6.848,-1.10025 6.848,-1.10025 v 0.54825 h 9.779 V 14.286 Z m -3.668,10.0845 c 2.199,0 3.668,1.284 3.668,2.934 v 6.78375 c 0,1.65 -1.469,2.2005 -3.668,2.2005 -2.443,0 -3.912,-0.549 -3.912,-2.2005 V 27.3045 c 0,-1.65 1.468,-2.934 3.912,-2.934 z"
     id="path102"
     inkscape:connector-curvature="0"
     style="fill:#ff0000;stroke-width:0.86602539" /><g
     id="g106"
     transform="matrix(1,0,0,0.75,-5.6261237,-6.39525)"><path
       d="m 400.321,37.744 c -2.773,0 -5.035,-2.258 -5.035,-5.035 0,-2.959 2.213,-5.28 5.035,-5.28 2.73,0 5.037,2.417 5.037,5.28 0,2.681 -2.35,5.035 -5.037,5.035 z m 0,-9.533 c -2.426,0 -4.252,1.934 -4.252,4.5 0,2.344 1.908,4.254 4.252,4.254 2.23,0 4.256,-2.028 4.256,-4.254 -10e-4,-2.399 -1.985,-4.5 -4.256,-4.5 z m 0.884,6.647 -0.863,-1.515 h -1.096 v 1.321 h -0.779 v -4.546 h 2.104 c 0.979,0 1.488,0.813 1.488,1.613 0,0.615 -0.303,1.238 -0.885,1.492 l 0.711,1.248 z m -1.959,-2.294 h 1.32 c 0.221,0 0.396,-0.079 0.521,-0.235 0.119,-0.149 0.188,-0.368 0.188,-0.597 0,-0.311 -0.15,-0.832 -0.709,-0.832 h -1.32 z"
       id="path104"
       inkscape:connector-curvature="0"
       style="fill:#ff0000" /></g></svg>