<?xml version="1.0" encoding="UTF-8" standalone="no"?>
<svg
   xmlns:dc="http://purl.org/dc/elements/1.1/"
   xmlns:cc="http://creativecommons.org/ns#"
   xmlns:rdf="http://www.w3.org/1999/02/22-rdf-syntax-ns#"
   xmlns:svg="http://www.w3.org/2000/svg"
   xmlns="http://www.w3.org/2000/svg"
   xmlns:sodipodi="http://sodipodi.sourceforge.net/DTD/sodipodi-0.dtd"
   xmlns:inkscape="http://www.inkscape.org/namespaces/inkscape"
   viewBox="0 0 497.90235 203.17688"
   height="203.17688"
   width="497.90234"
   xml:space="preserve"
   version="1.1"
   id="svg2"
   sodipodi:docname="console.svg"
   inkscape:version="0.92.2 (5c3e80d, 2017-08-06)"><sodipodi:namedview
     pagecolor="#ffffff"
     bordercolor="#666666"
     borderopacity="1"
     objecttolerance="10"
     gridtolerance="10"
     guidetolerance="10"
     inkscape:pageopacity="0"
     inkscape:pageshadow="2"
     inkscape:window-width="1920"
     inkscape:window-height="1017"
     id="namedview164"
     showgrid="false"
     fit-margin-top="0"
     fit-margin-left="0"
     fit-margin-right="0"
     fit-margin-bottom="0"
     inkscape:zoom="0.70094045"
     inkscape:cx="248.95125"
     inkscape:cy="135.45125"
     inkscape:window-x="-8"
     inkscape:window-y="-8"
     inkscape:window-maximized="1"
     inkscape:current-layer="svg2" /><metadata
     id="metadata8"><rdf:RDF><cc:Work
         rdf:about=""><dc:format>image/svg+xml</dc:format><dc:type
           rdf:resource="http://purl.org/dc/dcmitype/StillImage" /><dc:title></dc:title></cc:Work></rdf:RDF></metadata><defs
     id="defs6"><clipPath
       id="clipPath16"
       clipPathUnits="userSpaceOnUse"><path
         id="path18"
         d="M 0,216.722 H 398.322 V 0 H 0 Z"
         inkscape:connector-curvature="0" /></clipPath></defs><g
     transform="matrix(1.25,0,0,-0.9375,0,203.17687)"
     id="g10"><g
       id="g12"><g
         clip-path="url(#clipPath16)"
         id="g14"><g
           transform="translate(199.2282)"
           id="g20"><path
             id="path22"
             style="fill:#333333;fill-opacity:1;fill-rule:nonzero;stroke:none"
             d="m 0,0 c 35.223,0 141.719,5.802 150.835,6.631 9.117,0.828 41.439,-2.902 46.411,35.221 4.973,38.124 -1.363,102.042 -4.144,118.515 -5.387,31.907 -4.42,43.648 -22.791,45.996 -26.463,3.382 -89.092,10.359 -170.446,10.359 H 0 c -81.354,0 -143.983,-6.977 -170.446,-10.359 -18.371,-2.348 -17.404,-14.089 -22.791,-45.996 -2.781,-16.473 -9.116,-80.391 -4.144,-118.515 C -192.408,3.729 -160.087,7.459 -150.97,6.631 -141.854,5.802 -35.357,0 -0.135,0 Z"
             inkscape:connector-curvature="0" /></g><g
           transform="translate(199.2282,6.0781)"
           id="g24"><path
             id="path26"
             style="fill:#404140;fill-opacity:1;fill-rule:nonzero;stroke:none"
             d="m 0,0 c 34.27,0 137.687,4.856 146.556,5.664 8.87,0.805 39.501,-0.42 44.339,36.672 4.838,37.092 -0.447,94.658 -3.152,110.683 -5.243,31.045 -3.978,44.152 -21.852,46.437 -25.748,3.291 -86.873,10.359 -166.026,10.359 H 0 c -79.153,0 -140.278,-7.068 -166.026,-10.359 -17.873,-2.285 -16.61,-15.392 -21.852,-46.437 -2.705,-16.025 -7.99,-73.591 -3.152,-110.683 4.838,-37.092 35.469,-35.867 44.339,-36.672 C -137.821,4.856 -34.404,0 -0.135,0 Z"
             inkscape:connector-curvature="0" /></g><g
           transform="translate(202.3932,67.959)"
           id="g28"><path
             id="path30"
             style="fill:#333333;fill-opacity:1;fill-rule:nonzero;stroke:none"
             d="m 0,0 c 0,0 42.265,-0.277 62.708,0 20.442,0.275 31.493,20.994 34.531,28.178 3.039,7.181 26.521,70.997 29.559,80.666 3.039,9.669 -1.933,18.785 -8.564,21.272 -6.629,2.486 -23.481,6.353 -46.134,8.011 -22.653,1.658 -41.438,1.934 -72.1,1.934 h -3.165 c -30.662,0 -49.447,-0.276 -72.101,-1.934 -22.652,-1.658 -39.504,-5.525 -46.134,-8.011 -6.63,-2.487 -11.602,-11.603 -8.563,-21.272 3.038,-9.669 26.52,-73.485 29.559,-80.666 C -97.366,20.994 -86.315,0.275 -65.872,0 -45.43,-0.277 -3.165,0 -3.165,0 Z"
             inkscape:connector-curvature="0" /></g><g
           transform="translate(53.8424,208.5522)"
           id="g32"><path
             id="path34"
             style="fill:none;stroke:#333333;stroke-width:1.65799999;stroke-linecap:butt;stroke-linejoin:miter;stroke-miterlimit:10;stroke-dasharray:none;stroke-opacity:1"
             d="m 0,0 c 3.253,-10.351 37.926,-107.673 41.179,-115.363 3.253,-7.687 15.082,-34.426 36.966,-34.722 21.884,-0.295 67.129,0 67.129,0 h 3.389 c 0,0 45.244,-0.295 67.128,0 21.885,0.296 33.714,27.035 36.967,34.722 3.253,7.69 36.967,104.481 40.22,114.831"
             inkscape:connector-curvature="0" /></g><g
           transform="translate(202.3429,68.5078)"
           id="g36"><path
             id="path38"
             style="fill:#272727;fill-opacity:1;fill-rule:nonzero;stroke:none"
             d="m 0,0 c 0,0 40.933,-0.268 60.731,0 19.798,0.268 30.499,21.99 33.443,28.947 2.943,6.955 25.684,68.758 28.627,78.123 2.944,9.364 -1.872,16.121 -8.294,18.529 -6.421,2.407 -22.741,6.153 -44.68,7.758 C 47.889,134.962 29.695,135.23 0,135.23 h -3.064 c -29.696,0 -47.889,-0.268 -69.828,-1.873 -21.938,-1.605 -38.259,-5.351 -44.68,-7.758 -6.421,-2.408 -11.237,-9.165 -8.294,-18.529 2.943,-9.365 25.685,-71.168 28.628,-78.123 C -94.296,21.99 -83.594,0.268 -63.795,0 -43.997,-0.268 -3.064,0 -3.064,0 Z"
             inkscape:connector-curvature="0" /></g><g
           transform="translate(281.6271,88.2636)"
           id="g40"><path
             id="path42"
             style="fill:#3a3b3b;fill-opacity:1;fill-rule:nonzero;stroke:none"
             d="m 0,0 c 0,-3.243 -2.629,-5.873 -5.873,-5.873 h -147.241 c -3.244,0 -5.873,2.63 -5.873,5.873 v 107.46 c 0,3.244 2.629,5.873 5.873,5.873 H -5.873 c 3.244,0 5.873,-2.629 5.873,-5.873 z"
             inkscape:connector-curvature="0" /></g><g
           transform="translate(266.4562,96.3965)"
           id="g44"><path
             id="path46"
             style="fill:#1a1b1b;fill-opacity:1;fill-rule:nonzero;stroke:none"
             d="m 0,0 c 0,-2.654 -2.152,-4.805 -4.805,-4.805 h -120.484 c -2.655,0 -4.807,2.151 -4.807,4.805 v 87.932 c 0,2.654 2.152,4.807 4.807,4.807 H -4.805 C -2.152,92.739 0,90.586 0,87.932 Z"
             inkscape:connector-curvature="0" /></g><g
           transform="translate(40.6955,58.9375)"
           id="g48"><path
             id="path50"
             style="fill:#242425;fill-opacity:1;fill-rule:nonzero;stroke:none"
             d="m 0,0 c 0,-1.105 -0.896,-2.002 -2.003,-2.002 -1.106,0 -2.002,0.897 -2.002,2.002 0,1.107 0.896,2.004 2.002,2.004 C -0.896,2.004 0,1.107 0,0"
             inkscape:connector-curvature="0" /></g><g
           transform="translate(40.6955,52.4726)"
           id="g52"><path
             id="path54"
             style="fill:#242425;fill-opacity:1;fill-rule:nonzero;stroke:none"
             d="m 0,0 c 0,-1.105 -0.896,-2.003 -2.003,-2.003 -1.106,0 -2.002,0.898 -2.002,2.003 0,1.105 0.896,2.002 2.002,2.002 C -0.896,2.002 0,1.105 0,0"
             inkscape:connector-curvature="0" /></g><g
           transform="translate(40.6955,46.0078)"
           id="g56"><path
             id="path58"
             style="fill:#242425;fill-opacity:1;fill-rule:nonzero;stroke:none"
             d="m 0,0 c 0,-1.105 -0.896,-2.003 -2.003,-2.003 -1.106,0 -2.002,0.898 -2.002,2.003 0,1.105 0.896,2.003 2.002,2.003 C -0.896,2.003 0,1.105 0,0"
             inkscape:connector-curvature="0" /></g><g
           transform="translate(46.9806,65.4043)"
           id="g60"><path
             id="path62"
             style="fill:#242425;fill-opacity:1;fill-rule:nonzero;stroke:none"
             d="m 0,0 c 0,-1.107 -0.897,-2.004 -2.003,-2.004 -1.105,0 -2.002,0.897 -2.002,2.004 0,1.105 0.897,2.002 2.002,2.002 C -0.897,2.002 0,1.105 0,0"
             inkscape:connector-curvature="0" /></g><g
           transform="translate(46.9806,58.9375)"
           id="g64"><path
             id="path66"
             style="fill:#242425;fill-opacity:1;fill-rule:nonzero;stroke:none"
             d="m 0,0 c 0,-1.105 -0.897,-2.002 -2.003,-2.002 -1.105,0 -2.002,0.897 -2.002,2.002 0,1.107 0.897,2.004 2.002,2.004 C -0.897,2.004 0,1.107 0,0"
             inkscape:connector-curvature="0" /></g><g
           transform="translate(46.9806,52.4726)"
           id="g68"><path
             id="path70"
             style="fill:#242425;fill-opacity:1;fill-rule:nonzero;stroke:none"
             d="m 0,0 c 0,-1.105 -0.897,-2.003 -2.003,-2.003 -1.105,0 -2.002,0.898 -2.002,2.003 0,1.105 0.897,2.002 2.002,2.002 C -0.897,2.002 0,1.105 0,0"
             inkscape:connector-curvature="0" /></g><g
           transform="translate(46.9806,46.0078)"
           id="g72"><path
             id="path74"
             style="fill:#242425;fill-opacity:1;fill-rule:nonzero;stroke:none"
             d="m 0,0 c 0,-1.105 -0.897,-2.003 -2.003,-2.003 -1.105,0 -2.002,0.898 -2.002,2.003 0,1.105 0.897,2.003 2.002,2.003 C -0.897,2.003 0,1.105 0,0"
             inkscape:connector-curvature="0" /></g><g
           transform="translate(46.9806,39.542)"
           id="g76"><path
             id="path78"
             style="fill:#242425;fill-opacity:1;fill-rule:nonzero;stroke:none"
             d="m 0,0 c 0,-1.107 -0.897,-2.003 -2.003,-2.003 -1.105,0 -2.002,0.896 -2.002,2.003 0,1.106 0.897,2.003 2.002,2.003 C -0.897,2.003 0,1.106 0,0"
             inkscape:connector-curvature="0" /></g><g
           transform="translate(53.2653,65.4043)"
           id="g80"><path
             id="path82"
             style="fill:#242425;fill-opacity:1;fill-rule:nonzero;stroke:none"
             d="m 0,0 c 0,-1.107 -0.896,-2.004 -2.003,-2.004 -1.105,0 -2.002,0.897 -2.002,2.004 0,1.105 0.897,2.002 2.002,2.002 C -0.896,2.002 0,1.105 0,0"
             inkscape:connector-curvature="0" /></g><g
           transform="translate(53.2653,58.9375)"
           id="g84"><path
             id="path86"
             style="fill:#242425;fill-opacity:1;fill-rule:nonzero;stroke:none"
             d="m 0,0 c 0,-1.105 -0.896,-2.002 -2.003,-2.002 -1.105,0 -2.002,0.897 -2.002,2.002 0,1.107 0.897,2.004 2.002,2.004 C -0.896,2.004 0,1.107 0,0"
             inkscape:connector-curvature="0" /></g><g
           transform="translate(53.2653,52.4726)"
           id="g88"><path
             id="path90"
             style="fill:#242425;fill-opacity:1;fill-rule:nonzero;stroke:none"
             d="m 0,0 c 0,-1.105 -0.896,-2.003 -2.003,-2.003 -1.105,0 -2.002,0.898 -2.002,2.003 0,1.105 0.897,2.002 2.002,2.002 C -0.896,2.002 0,1.105 0,0"
             inkscape:connector-curvature="0" /></g><g
           transform="translate(53.2653,46.0078)"
           id="g92"><path
             id="path94"
             style="fill:#242425;fill-opacity:1;fill-rule:nonzero;stroke:none"
             d="m 0,0 c 0,-1.105 -0.896,-2.003 -2.003,-2.003 -1.105,0 -2.002,0.898 -2.002,2.003 0,1.105 0.897,2.003 2.002,2.003 C -0.896,2.003 0,1.105 0,0"
             inkscape:connector-curvature="0" /></g><g
           transform="translate(53.2653,39.542)"
           id="g96"><path
             id="path98"
             style="fill:#242425;fill-opacity:1;fill-rule:nonzero;stroke:none"
             d="m 0,0 c 0,-1.107 -0.896,-2.003 -2.003,-2.003 -1.105,0 -2.002,0.896 -2.002,2.003 0,1.106 0.897,2.003 2.002,2.003 C -0.896,2.003 0,1.106 0,0"
             inkscape:connector-curvature="0" /></g><g
           transform="translate(59.5504,65.4043)"
           id="g100"><path
             id="path102"
             style="fill:#242425;fill-opacity:1;fill-rule:nonzero;stroke:none"
             d="m 0,0 c 0,-1.107 -0.896,-2.004 -2.002,-2.004 -1.106,0 -2.003,0.897 -2.003,2.004 0,1.105 0.897,2.002 2.003,2.002 C -0.896,2.002 0,1.105 0,0"
             inkscape:connector-curvature="0" /></g><g
           transform="translate(59.5504,58.9375)"
           id="g104"><path
             id="path106"
             style="fill:#242425;fill-opacity:1;fill-rule:nonzero;stroke:none"
             d="m 0,0 c 0,-1.105 -0.896,-2.002 -2.002,-2.002 -1.106,0 -2.003,0.897 -2.003,2.002 0,1.107 0.897,2.004 2.003,2.004 C -0.896,2.004 0,1.107 0,0"
             inkscape:connector-curvature="0" /></g><g
           transform="translate(59.5504,52.4726)"
           id="g108"><path
             id="path110"
             style="fill:#242425;fill-opacity:1;fill-rule:nonzero;stroke:none"
             d="m 0,0 c 0,-1.105 -0.896,-2.003 -2.002,-2.003 -1.106,0 -2.003,0.898 -2.003,2.003 0,1.105 0.897,2.002 2.003,2.002 C -0.896,2.002 0,1.105 0,0"
             inkscape:connector-curvature="0" /></g><g
           transform="translate(59.5504,46.0078)"
           id="g112"><path
             id="path114"
             style="fill:#242425;fill-opacity:1;fill-rule:nonzero;stroke:none"
             d="m 0,0 c 0,-1.105 -0.896,-2.003 -2.002,-2.003 -1.106,0 -2.003,0.898 -2.003,2.003 0,1.105 0.897,2.003 2.003,2.003 C -0.896,2.003 0,1.105 0,0"
             inkscape:connector-curvature="0" /></g><g
           transform="translate(59.5504,39.542)"
           id="g116"><path
             id="path118"
             style="fill:#242425;fill-opacity:1;fill-rule:nonzero;stroke:none"
             d="m 0,0 c 0,-1.107 -0.896,-2.003 -2.002,-2.003 -1.106,0 -2.003,0.896 -2.003,2.003 0,1.106 0.897,2.003 2.003,2.003 C -0.896,2.003 0,1.106 0,0"
             inkscape:connector-curvature="0" /></g><g
           transform="translate(65.8351,65.4043)"
           id="g120"><path
             id="path122"
             style="fill:#242425;fill-opacity:1;fill-rule:nonzero;stroke:none"
             d="m 0,0 c 0,-1.107 -0.897,-2.004 -2.002,-2.004 -1.106,0 -2.003,0.897 -2.003,2.004 0,1.105 0.897,2.002 2.003,2.002 C -0.897,2.002 0,1.105 0,0"
             inkscape:connector-curvature="0" /></g><g
           transform="translate(65.8351,58.9375)"
           id="g124"><path
             id="path126"
             style="fill:#242425;fill-opacity:1;fill-rule:nonzero;stroke:none"
             d="m 0,0 c 0,-1.105 -0.897,-2.002 -2.002,-2.002 -1.106,0 -2.003,0.897 -2.003,2.002 0,1.107 0.897,2.004 2.003,2.004 C -0.897,2.004 0,1.107 0,0"
             inkscape:connector-curvature="0" /></g><g
           transform="translate(65.8351,52.4726)"
           id="g128"><path
             id="path130"
             style="fill:#242425;fill-opacity:1;fill-rule:nonzero;stroke:none"
             d="m 0,0 c 0,-1.105 -0.897,-2.003 -2.002,-2.003 -1.106,0 -2.003,0.898 -2.003,2.003 0,1.105 0.897,2.002 2.003,2.002 C -0.897,2.002 0,1.105 0,0"
             inkscape:connector-curvature="0" /></g><g
           transform="translate(65.8351,46.0078)"
           id="g132"><path
             id="path134"
             style="fill:#242425;fill-opacity:1;fill-rule:nonzero;stroke:none"
             d="m 0,0 c 0,-1.105 -0.897,-2.003 -2.002,-2.003 -1.106,0 -2.003,0.898 -2.003,2.003 0,1.105 0.897,2.003 2.003,2.003 C -0.897,2.003 0,1.105 0,0"
             inkscape:connector-curvature="0" /></g><g
           transform="translate(65.8351,39.542)"
           id="g136"><path
             id="path138"
             style="fill:#242425;fill-opacity:1;fill-rule:nonzero;stroke:none"
             d="m 0,0 c 0,-1.107 -0.897,-2.003 -2.002,-2.003 -1.106,0 -2.003,0.896 -2.003,2.003 0,1.106 0.897,2.003 2.003,2.003 C -0.897,2.003 0,1.106 0,0"
             inkscape:connector-curvature="0" /></g><g
           transform="translate(72.1208,65.4043)"
           id="g140"><path
             id="path142"
             style="fill:#242425;fill-opacity:1;fill-rule:nonzero;stroke:none"
             d="m 0,0 c 0,-1.107 -0.897,-2.004 -2.003,-2.004 -1.106,0 -2.003,0.897 -2.003,2.004 0,1.105 0.897,2.002 2.003,2.002 C -0.897,2.002 0,1.105 0,0"
             inkscape:connector-curvature="0" /></g><g
           transform="translate(72.1208,58.9375)"
           id="g144"><path
             id="path146"
             style="fill:#242425;fill-opacity:1;fill-rule:nonzero;stroke:none"
             d="m 0,0 c 0,-1.105 -0.897,-2.002 -2.003,-2.002 -1.106,0 -2.003,0.897 -2.003,2.002 0,1.107 0.897,2.004 2.003,2.004 C -0.897,2.004 0,1.107 0,0"
             inkscape:connector-curvature="0" /></g><g
           transform="translate(72.1208,52.4726)"
           id="g148"><path
             id="path150"
             style="fill:#242425;fill-opacity:1;fill-rule:nonzero;stroke:none"
             d="m 0,0 c 0,-1.105 -0.897,-2.003 -2.003,-2.003 -1.106,0 -2.003,0.898 -2.003,2.003 0,1.105 0.897,2.002 2.003,2.002 C -0.897,2.002 0,1.105 0,0"
             inkscape:connector-curvature="0" /></g><g
           transform="translate(72.1208,46.0078)"
           id="g152"><path
             id="path154"
             style="fill:#242425;fill-opacity:1;fill-rule:nonzero;stroke:none"
             d="m 0,0 c 0,-1.105 -0.897,-2.003 -2.003,-2.003 -1.106,0 -2.003,0.898 -2.003,2.003 0,1.105 0.897,2.003 2.003,2.003 C -0.897,2.003 0,1.105 0,0"
             inkscape:connector-curvature="0" /></g><g
           transform="translate(72.1208,39.542)"
           id="g156"><path
             id="path158"
             style="fill:#242425;fill-opacity:1;fill-rule:nonzero;stroke:none"
             d="m 0,0 c 0,-1.107 -0.897,-2.003 -2.003,-2.003 -1.106,0 -2.003,0.896 -2.003,2.003 0,1.106 0.897,2.003 2.003,2.003 C -0.897,2.003 0,1.106 0,0"
             inkscape:connector-curvature="0" /></g><g
           transform="translate(78.4054,65.4043)"
           id="g160"><path
             id="path162"
             style="fill:#242425;fill-opacity:1;fill-rule:nonzero;stroke:none"
             d="m 0,0 c 0,-1.107 -0.897,-2.004 -2.003,-2.004 -1.106,0 -2.003,0.897 -2.003,2.004 0,1.105 0.897,2.002 2.003,2.002 C -0.897,2.002 0,1.105 0,0"
             inkscape:connector-curvature="0" /></g><g
           transform="translate(78.4054,58.9375)"
           id="g164"><path
             id="path166"
             style="fill:#242425;fill-opacity:1;fill-rule:nonzero;stroke:none"
             d="m 0,0 c 0,-1.105 -0.897,-2.002 -2.003,-2.002 -1.106,0 -2.003,0.897 -2.003,2.002 0,1.107 0.897,2.004 2.003,2.004 C -0.897,2.004 0,1.107 0,0"
             inkscape:connector-curvature="0" /></g><g
           transform="translate(78.4054,52.4726)"
           id="g168"><path
             id="path170"
             style="fill:#242425;fill-opacity:1;fill-rule:nonzero;stroke:none"
             d="m 0,0 c 0,-1.105 -0.897,-2.003 -2.003,-2.003 -1.106,0 -2.003,0.898 -2.003,2.003 0,1.105 0.897,2.002 2.003,2.002 C -0.897,2.002 0,1.105 0,0"
             inkscape:connector-curvature="0" /></g><g
           transform="translate(78.4054,46.0078)"
           id="g172"><path
             id="path174"
             style="fill:#242425;fill-opacity:1;fill-rule:nonzero;stroke:none"
             d="m 0,0 c 0,-1.105 -0.897,-2.003 -2.003,-2.003 -1.106,0 -2.003,0.898 -2.003,2.003 0,1.105 0.897,2.003 2.003,2.003 C -0.897,2.003 0,1.105 0,0"
             inkscape:connector-curvature="0" /></g><g
           transform="translate(78.4054,39.542)"
           id="g176"><path
             id="path178"
             style="fill:#242425;fill-opacity:1;fill-rule:nonzero;stroke:none"
             d="m 0,0 c 0,-1.107 -0.897,-2.003 -2.003,-2.003 -1.106,0 -2.003,0.896 -2.003,2.003 0,1.106 0.897,2.003 2.003,2.003 C -0.897,2.003 0,1.106 0,0"
             inkscape:connector-curvature="0" /></g><g
           transform="translate(84.6901,58.9375)"
           id="g180"><path
             id="path182"
             style="fill:#242425;fill-opacity:1;fill-rule:nonzero;stroke:none"
             d="m 0,0 c 0,-1.105 -0.897,-2.002 -2.003,-2.002 -1.106,0 -2.002,0.897 -2.002,2.002 0,1.107 0.896,2.004 2.002,2.004 C -0.897,2.004 0,1.107 0,0"
             inkscape:connector-curvature="0" /></g><g
           transform="translate(84.6901,52.4726)"
           id="g184"><path
             id="path186"
             style="fill:#242425;fill-opacity:1;fill-rule:nonzero;stroke:none"
             d="m 0,0 c 0,-1.105 -0.897,-2.003 -2.003,-2.003 -1.106,0 -2.002,0.898 -2.002,2.003 0,1.105 0.896,2.002 2.002,2.002 C -0.897,2.002 0,1.105 0,0"
             inkscape:connector-curvature="0" /></g><g
           transform="translate(84.6901,46.0078)"
           id="g188"><path
             id="path190"
             style="fill:#242425;fill-opacity:1;fill-rule:nonzero;stroke:none"
             d="m 0,0 c 0,-1.105 -0.897,-2.003 -2.003,-2.003 -1.106,0 -2.002,0.898 -2.002,2.003 0,1.105 0.896,2.003 2.002,2.003 C -0.897,2.003 0,1.105 0,0"
             inkscape:connector-curvature="0" /></g><g
           transform="translate(349.9801,175.4394)"
           id="g192"><path
             id="path194"
             style="fill:#2c3691;fill-opacity:1;fill-rule:nonzero;stroke:none"
             d="m 0,0 c 0.077,2.899 -1.417,9.541 -7.251,11.188 -2.141,0.604 -2.435,0.104 -2.746,-0.777 -0.311,-0.88 -6.733,-19.113 -6.733,-19.113 0,0 -0.984,-2.694 1.605,-2.745 C -12.535,-11.499 -0.311,-11.758 0,0"
             inkscape:connector-curvature="0" /></g><g
           transform="translate(95.9323,195.812)"
           id="g196"><path
             id="path198"
             style="fill:#c3262e;fill-opacity:1;fill-rule:evenodd;stroke:none"
             d="M 0,0 C 0.12,-0.026 0.243,-0.042 0.36,-0.08 0.796,-0.226 1.03,-0.548 1.122,-0.984 1.209,-1.392 1.165,-1.796 1.074,-2.197 0.906,-2.941 0.594,-3.628 0.221,-4.289 -0.282,-5.18 -0.892,-5.996 -1.578,-6.755 -2.316,-7.574 -3.126,-8.313 -4.044,-8.928 -4.615,-9.311 -5.214,-9.64 -5.878,-9.834 -6.229,-9.937 -6.584,-9.996 -6.952,-9.94 c -0.522,0.081 -0.877,0.414 -0.99,0.935 -0.083,0.381 -0.055,0.76 0.021,1.137 0.148,0.732 0.438,1.411 0.8,2.058 0.993,1.772 2.307,3.265 3.928,4.486 0.579,0.436 1.197,0.809 1.878,1.071 0.312,0.121 0.633,0.212 0.969,0.24 0.016,0.002 0.032,0.009 0.048,0.013 z"
             inkscape:connector-curvature="0" /></g><g
           transform="translate(104.5231,195.812)"
           id="g200"><path
             id="path202"
             style="fill:#0d9347;fill-opacity:1;fill-rule:evenodd;stroke:none"
             d="M 0,0 C 0.12,-0.026 0.243,-0.042 0.359,-0.08 0.796,-0.226 1.03,-0.548 1.122,-0.984 1.209,-1.392 1.164,-1.796 1.074,-2.197 0.906,-2.941 0.593,-3.628 0.221,-4.289 -0.283,-5.18 -0.893,-5.996 -1.578,-6.755 -2.316,-7.574 -3.126,-8.313 -4.044,-8.928 -4.615,-9.311 -5.215,-9.64 -5.879,-9.834 c -0.35,-0.103 -0.706,-0.162 -1.074,-0.106 -0.521,0.081 -0.877,0.414 -0.99,0.935 -0.083,0.381 -0.055,0.76 0.022,1.137 0.148,0.732 0.437,1.411 0.8,2.058 0.992,1.772 2.307,3.265 3.928,4.486 0.579,0.436 1.197,0.809 1.877,1.071 0.313,0.121 0.633,0.212 0.969,0.24 0.017,0.002 0.032,0.009 0.048,0.013 z"
             inkscape:connector-curvature="0" /></g><g
           transform="translate(113.1134,195.812)"
           id="g204"><path
             id="path206"
             style="fill:#2c3691;fill-opacity:1;fill-rule:evenodd;stroke:none"
             d="M 0,0 C 0.12,-0.026 0.243,-0.042 0.359,-0.08 0.795,-0.226 1.029,-0.548 1.122,-0.984 1.209,-1.392 1.164,-1.796 1.074,-2.197 0.906,-2.941 0.593,-3.628 0.221,-4.289 -0.283,-5.18 -0.893,-5.996 -1.578,-6.755 -2.317,-7.574 -3.126,-8.313 -4.044,-8.928 -4.615,-9.311 -5.215,-9.64 -5.878,-9.834 -6.229,-9.937 -6.585,-9.996 -6.953,-9.94 c -0.522,0.081 -0.877,0.414 -0.99,0.935 -0.083,0.381 -0.054,0.76 0.022,1.137 0.148,0.732 0.438,1.411 0.8,2.058 0.992,1.772 2.307,3.265 3.928,4.486 0.579,0.436 1.197,0.809 1.878,1.071 0.312,0.121 0.632,0.212 0.968,0.24 0.017,0.002 0.032,0.009 0.048,0.013 z"
             inkscape:connector-curvature="0" /></g><g
           transform="translate(95.4342,168.0761)"
           id="g208"><path
             id="path210"
             style="fill:#cdcccc;fill-opacity:1;fill-rule:evenodd;stroke:none"
             d="M 0,0 C -0.11,0.026 -0.221,0.05 -0.33,0.079 -1.037,0.27 -1.548,0.704 -1.887,1.346 -2.106,1.76 -2.215,2.209 -2.261,2.671 -2.333,3.395 -2.288,4.112 -2.108,4.818 -1.914,5.575 -1.572,6.256 -1.036,6.83 -0.454,7.452 0.272,7.752 1.122,7.76 1.633,7.765 2.126,7.68 2.588,7.446 3.283,7.093 3.673,6.518 3.799,5.759 3.84,5.512 3.854,5.26 3.882,5.004 H 2.342 C 2.329,5.136 2.324,5.269 2.3,5.399 2.214,5.869 1.986,6.108 1.514,6.197 1.033,6.289 0.583,6.21 0.196,5.889 -0.066,5.673 -0.24,5.39 -0.381,5.087 -0.719,4.353 -0.826,3.582 -0.723,2.783 -0.688,2.507 -0.596,2.249 -0.444,2.013 -0.265,1.737 -0.014,1.568 0.312,1.522 0.643,1.476 0.965,1.507 1.271,1.649 1.501,1.755 1.667,1.931 1.811,2.132 1.973,2.357 2.085,2.607 2.167,2.878 H 0.741 C 0.766,3.02 0.788,3.157 0.811,3.294 0.861,3.59 0.912,3.887 0.958,4.185 0.968,4.249 0.99,4.267 1.057,4.267 1.887,4.265 2.718,4.265 3.548,4.265 H 3.751 C 3.734,4.165 3.719,4.072 3.702,3.98 3.631,3.586 3.577,3.188 3.484,2.798 3.327,2.144 3.049,1.542 2.605,1.025 2.333,0.709 2.003,0.471 1.623,0.301 1.42,0.211 1.216,0.122 1.012,0.034 0.976,0.019 0.936,0.011 0.897,0 Z"
             inkscape:connector-curvature="0" /></g><g
           transform="translate(86.6212,179.6377)"
           id="g212"><path
             id="path214"
             style="fill:#cdcccc;fill-opacity:1;fill-rule:evenodd;stroke:none"
             d="m 0,0 c 0.009,0.106 0.018,0.211 0.028,0.318 0.1,1.06 0.443,2.025 1.15,2.837 C 1.721,3.777 2.409,4.112 3.235,4.16 3.756,4.19 4.262,4.13 4.744,3.917 5.508,3.582 5.953,2.994 6.09,2.175 6.132,1.926 6.146,1.673 6.174,1.414 H 4.637 C 4.623,1.55 4.618,1.688 4.592,1.822 4.503,2.289 4.27,2.523 3.796,2.608 3.321,2.691 2.878,2.616 2.495,2.303 2.264,2.115 2.101,1.875 1.968,1.612 1.617,0.92 1.493,0.182 1.542,-0.587 1.56,-0.887 1.634,-1.176 1.773,-1.447 1.99,-1.871 2.34,-2.084 2.814,-2.09 c 0.456,-0.005 0.862,0.114 1.171,0.476 0.164,0.193 0.292,0.408 0.385,0.643 0.032,0.082 0.059,0.165 0.092,0.258 H 3.036 c 0.077,0.464 0.153,0.92 0.229,1.38 H 6.042 C 6.021,0.546 6.002,0.428 5.98,0.31 5.915,-0.056 5.864,-0.425 5.777,-0.787 5.622,-1.437 5.35,-2.037 4.911,-2.55 4.637,-2.872 4.303,-3.112 3.921,-3.288 3.772,-3.355 3.628,-3.435 3.478,-3.498 3.224,-3.603 2.956,-3.628 2.683,-3.617 2.216,-3.598 1.771,-3.501 1.364,-3.265 0.852,-2.966 0.506,-2.526 0.285,-1.983 0.118,-1.575 0.042,-1.147 0.013,-0.709 0.01,-0.672 0.004,-0.636 0,-0.598 Z"
             inkscape:connector-curvature="0" /></g><g
           transform="translate(99.966,176.2002)"
           id="g216"><path
             id="path218"
             style="fill:#cdcccc;fill-opacity:1;fill-rule:evenodd;stroke:none"
             d="m 0,0 c -0.167,1.902 -0.334,3.796 -0.501,5.69 -0.004,0 -0.008,0 -0.012,10e-4 C -0.538,5.513 -0.564,5.335 -0.587,5.158 -0.667,4.592 -0.745,4.026 -0.824,3.46 -0.902,2.901 -0.98,2.343 -1.057,1.783 -1.137,1.206 -1.218,0.628 -1.3,0.051 -1.303,0.032 -1.332,0.002 -1.349,0.002 -1.775,0 -2.203,0.001 -2.63,0.001 c -0.007,0 -0.013,0.005 -0.027,0.01 0.411,2.463 0.822,4.926 1.234,7.395 h 1.9 C 0.618,5.683 0.759,3.957 0.899,2.231 0.904,2.229 0.908,2.228 0.913,2.226 0.923,2.249 0.933,2.27 0.942,2.292 1.628,3.974 2.315,5.656 2.999,7.339 3.024,7.402 3.051,7.428 3.124,7.427 3.713,7.419 4.302,7.417 4.89,7.413 4.906,7.413 4.922,7.411 4.947,7.409 4.917,7.231 4.888,7.056 4.859,6.882 4.733,6.132 4.607,5.382 4.481,4.631 4.355,3.879 4.229,3.126 4.102,2.373 3.977,1.626 3.853,0.877 3.726,0.13 3.7,-0.024 3.737,0.001 3.578,0 3.206,-0.001 2.833,0 2.46,0 H 2.367 C 2.717,1.905 3.063,3.799 3.411,5.692 3.408,5.693 3.405,5.695 3.402,5.696 3.369,5.616 3.336,5.537 3.303,5.457 2.579,3.665 1.854,1.873 1.132,0.08 1.106,0.017 1.075,-0.002 1.008,-0.002 0.702,0.002 0.395,0 0.09,0 Z"
             inkscape:connector-curvature="0" /></g><g
           transform="translate(110.6129,172.394)"
           id="g220"><path
             id="path222"
             style="fill:#cdcccc;fill-opacity:1;fill-rule:evenodd;stroke:none"
             d="m 0,0 c 0.021,-0.002 0.038,-0.004 0.054,-0.004 0.249,0 0.498,-0.008 0.746,0.004 0.151,0.007 0.304,0.029 0.447,0.073 0.338,0.102 0.593,0.302 0.681,0.666 0.05,0.209 0.045,0.418 0,0.627 C 1.882,1.577 1.753,1.711 1.547,1.763 1.433,1.791 1.314,1.813 1.198,1.818 0.927,1.826 0.657,1.82 0.387,1.824 0.335,1.824 0.319,1.806 0.311,1.757 0.253,1.418 0.191,1.081 0.131,0.742 0.087,0.497 0.044,0.249 0,0 M 1.958,-1.035 C 2.364,-2.08 2.767,-3.117 3.173,-4.162 3.142,-4.164 3.12,-4.166 3.097,-4.166 c -0.494,0 -0.987,0.001 -1.481,-10e-4 -0.052,0 -0.077,0.014 -0.097,0.065 -0.347,0.9 -0.698,1.798 -1.045,2.697 -0.022,0.055 -0.047,0.07 -0.103,0.07 C 0.179,-1.339 -0.013,-1.337 -0.212,-1.337 -0.371,-2.279 -0.529,-3.218 -0.688,-4.16 H -2.11 c 0.409,2.472 0.818,4.94 1.228,7.413 0.019,10e-4 0.037,0.005 0.056,0.005 0.832,0 1.665,10e-4 2.498,-0.002 C 1.957,3.254 2.233,3.206 2.495,3.087 2.858,2.922 3.12,2.656 3.247,2.276 3.449,1.67 3.475,1.053 3.263,0.446 3.04,-0.193 2.597,-0.658 2.019,-1 2,-1.011 1.982,-1.021 1.958,-1.035"
             inkscape:connector-curvature="0" /></g><g
           transform="translate(108.5158,180.747)"
           id="g224"><path
             id="path226"
             style="fill:#cdcccc;fill-opacity:1;fill-rule:evenodd;stroke:none"
             d="m 0,0 c -0.077,-0.486 -0.151,-0.959 -0.227,-1.438 h -2.185 c -0.094,-0.527 -0.187,-1.048 -0.282,-1.58 h 2.466 c -0.024,-0.149 -0.046,-0.289 -0.067,-0.429 -0.057,-0.348 -0.114,-0.697 -0.167,-1.046 -0.007,-0.041 -0.021,-0.055 -0.062,-0.055 -1.265,0.001 -2.53,0.001 -3.795,0.001 -0.009,0 -0.018,0.003 -0.04,0.006 0.409,2.472 0.818,4.941 1.228,7.414 H 0.711 C 0.633,2.361 0.556,1.852 0.477,1.339 H -1.941 C -2.023,0.893 -2.103,0.451 -2.185,0 Z"
             inkscape:connector-curvature="0" /></g><g
           transform="translate(98.9054,168.2339)"
           id="g228"><path
             id="path230"
             style="fill:#cdcccc;fill-opacity:1;fill-rule:evenodd;stroke:none"
             d="M 0,0 C 0.41,2.474 0.819,4.942 1.229,7.414 H 5.07 C 4.993,6.904 4.915,6.396 4.837,5.883 H 2.418 C 2.337,5.434 2.257,4.992 2.175,4.54 H 4.357 C 4.281,4.056 4.207,3.581 4.132,3.102 H 4.043 c -0.672,0 -1.343,0 -2.015,0.002 C 1.961,3.104 1.941,3.083 1.93,3.021 1.846,2.54 1.758,2.061 1.671,1.58 1.669,1.564 1.67,1.547 1.668,1.525 H 4.132 C 4.05,1.013 3.97,0.508 3.889,0 Z"
             inkscape:connector-curvature="0" /></g><g
           transform="translate(105.3795,170.9531)"
           id="g232"><path
             id="path234"
             style="fill:#cdcccc;fill-opacity:1;fill-rule:evenodd;stroke:none"
             d="M 0,0 H 1.332 C 1.249,0.973 1.165,1.941 1.082,2.909 1.076,2.909 1.07,2.91 1.064,2.911 0.711,1.943 0.357,0.975 0,0 M 2.129,4.702 C 2.411,2.225 2.691,-0.243 2.973,-2.718 H 1.565 c -0.041,0.477 -0.082,0.953 -0.124,1.436 -0.028,0.001 -0.053,0.003 -0.079,0.003 -0.586,0 -1.172,-0.001 -1.758,0.002 -0.058,0 -0.08,-0.018 -0.1,-0.072 -0.158,-0.439 -0.32,-0.877 -0.479,-1.315 -0.015,-0.038 -0.028,-0.062 -0.078,-0.062 -0.451,0.002 -0.901,10e-4 -1.352,10e-4 -0.014,0 -0.028,0.003 -0.05,0.005 0.029,0.074 0.057,0.144 0.084,0.213 0.958,2.38 1.917,4.759 2.872,7.139 C 0.523,4.684 0.546,4.703 0.604,4.703 1.087,4.7 1.571,4.702 2.055,4.702 Z"
             inkscape:connector-curvature="0" /></g><g
           transform="translate(95.2326,181.8374)"
           id="g236"><path
             id="path238"
             style="fill:#cdcccc;fill-opacity:1;fill-rule:evenodd;stroke:none"
             d="m 0,0 c -0.004,0.001 -0.01,0.001 -0.014,0.001 -0.357,-0.972 -0.713,-1.944 -1.07,-2.918 H 0.249 C 0.165,-1.941 0.083,-0.971 0,0 M 1.89,-5.637 H 1.806 c -0.413,0 -0.826,0.002 -1.239,-0.003 -0.075,0 -0.089,0.026 -0.095,0.093 -0.035,0.448 -0.075,0.897 -0.114,1.356 H 0.273 c -0.579,0 -1.158,0 -1.737,0.002 -0.063,0 -0.094,-0.016 -0.117,-0.079 -0.156,-0.437 -0.319,-0.872 -0.479,-1.308 -0.013,-0.039 -0.027,-0.063 -0.077,-0.063 -0.448,0.003 -0.897,0.002 -1.344,0.002 -0.015,0 -0.029,0.003 -0.052,0.005 0.008,0.025 0.015,0.047 0.023,0.068 0.978,2.43 1.957,4.86 2.934,7.291 0.019,0.046 0.041,0.063 0.092,0.063 0.486,-0.003 0.973,-0.003 1.459,0 C 1.03,1.79 1.051,1.778 1.058,1.718 1.115,1.192 1.176,0.667 1.236,0.142 1.295,-0.379 1.354,-0.899 1.413,-1.42 1.472,-1.941 1.532,-2.462 1.591,-2.982 1.646,-3.456 1.699,-3.929 1.753,-4.403 1.798,-4.801 1.843,-5.199 1.888,-5.598 1.889,-5.607 1.889,-5.616 1.89,-5.637"
             inkscape:connector-curvature="0" /></g><g
           transform="translate(307.7418,187.5278)"
           id="g240"><path
             id="path242"
             style="fill:#cdcccc;fill-opacity:1;fill-rule:evenodd;stroke:none"
             d="m 0,0 v -1.194 c -0.025,-0.001 -0.047,-0.003 -0.069,-0.003 -1.299,0 -2.597,-0.004 -3.895,0.002 -0.557,0.001 -1.058,-0.387 -1.187,-0.924 -0.022,-0.092 -0.035,-0.189 -0.036,-0.283 -0.002,-1.289 -0.002,-2.579 -10e-4,-3.869 0,-0.587 0.446,-1.102 1.028,-1.189 0.069,-0.011 0.138,-0.017 0.207,-0.017 0.897,-10e-4 1.794,0 2.692,0 0.07,0 0.07,0 0.07,0.071 v 3.147 c 0,0.074 0,0.074 -0.072,0.074 h -2.076 c -0.064,0 -0.065,0 -0.065,0.063 v 1.082 0.05 h 3.407 v -4.834 c 0.005,-0.001 0.011,-0.002 0.016,-0.003 0.007,0.016 0.016,0.032 0.022,0.049 0.23,0.678 0.46,1.356 0.691,2.033 0.293,0.861 0.586,1.721 0.879,2.582 0.236,0.695 0.468,1.391 0.708,2.085 0.184,0.534 0.557,0.898 1.082,1.088 0.734,0.265 1.416,0.154 2.021,-0.348 0.263,-0.219 0.426,-0.504 0.534,-0.828 0.477,-1.43 0.961,-2.858 1.442,-4.287 0.355,-1.054 0.711,-2.108 1.067,-3.162 0.005,-0.016 0.009,-0.033 0.016,-0.056 -0.023,-0.001 -0.04,-0.003 -0.057,-0.003 -1.588,-0.001 -3.174,0 -4.761,-0.002 -0.048,0 -0.06,0.014 -0.059,0.061 10e-4,0.36 10e-4,0.72 10e-4,1.081 v 0.056 h 3.218 c -0.02,0.06 -0.035,0.111 -0.052,0.16 C 6.195,-5.62 5.62,-3.921 5.045,-2.223 4.947,-1.936 4.85,-1.649 4.753,-1.362 4.665,-1.101 4.4,-0.917 4.119,-0.919 3.83,-0.92 3.57,-1.101 3.481,-1.363 3.136,-2.384 2.789,-3.406 2.442,-4.428 2.012,-5.699 1.58,-6.971 1.148,-8.243 1.106,-8.368 1.06,-8.492 1.021,-8.618 1.008,-8.663 0.985,-8.673 0.942,-8.673 c -0.34,0.002 -0.682,10e-4 -1.023,10e-4 -1.293,0 -2.586,0.003 -3.878,-10e-4 -1.037,-0.004 -1.972,0.654 -2.309,1.646 -0.082,0.241 -0.125,0.491 -0.125,0.746 -0.003,1.296 -0.003,2.592 -0.001,3.888 0.001,1.124 0.818,2.123 1.919,2.341 0.164,0.032 0.334,0.05 0.5,0.05 C -2.674,0.002 -1.373,0 -0.071,0 Z"
             inkscape:connector-curvature="0" /></g><g
           transform="translate(287.11,180.3462)"
           id="g244"><path
             id="path246"
             style="fill:#cdcccc;fill-opacity:1;fill-rule:evenodd;stroke:none"
             d="m 0,0 v 1.197 h 0.069 c 1.241,0 2.482,0 3.723,10e-4 0.027,0 0.056,0.001 0.082,0.009 C 3.94,1.225 3.98,1.284 3.977,1.357 3.974,1.425 3.928,1.479 3.86,1.492 3.833,1.496 3.805,1.498 3.778,1.498 3.432,1.499 3.086,1.493 2.74,1.502 2.11,1.517 1.549,1.727 1.058,2.121 0.508,2.563 0.162,3.135 0.042,3.831 -0.105,4.685 0.091,5.461 0.638,6.138 1.062,6.665 1.616,6.994 2.28,7.126 2.457,7.161 2.642,7.179 2.823,7.18 4.084,7.184 5.345,7.182 6.605,7.182 H 6.669 V 5.98 H 6.6 c -1.252,0 -2.505,10e-4 -3.757,0 C 2.071,5.98 1.411,5.461 1.243,4.709 1.118,4.15 1.254,3.652 1.638,3.227 1.905,2.932 2.242,2.761 2.637,2.714 2.787,2.696 2.94,2.701 3.092,2.699 3.352,2.695 3.612,2.693 3.872,2.691 4.461,2.686 4.988,2.269 5.139,1.689 5.34,0.921 4.838,0.147 4.055,0.02 3.972,0.006 3.888,0.001 3.804,0.001 2.557,-0.001 1.309,0 0.061,0 Z"
             inkscape:connector-curvature="0" /></g><g
           transform="translate(287.1071,180.0586)"
           id="g248"><path
             id="path250"
             style="fill:#cdcccc;fill-opacity:1;fill-rule:evenodd;stroke:none"
             d="M 0,0 H 0.07 3.843 C 4.635,0 5.314,0.565 5.458,1.344 5.621,2.213 5.035,3.073 4.168,3.246 3.967,3.286 3.764,3.279 3.56,3.281 3.316,3.283 3.073,3.281 2.828,3.285 2.16,3.295 1.619,3.77 1.516,4.421 1.407,5.114 1.844,5.766 2.524,5.93 2.621,5.954 2.722,5.965 2.821,5.965 4.089,5.967 5.355,5.966 6.623,5.966 h 0.05 C 6.676,5.955 6.679,5.946 6.679,5.937 6.676,5.571 6.672,5.206 6.672,4.842 6.672,4.785 6.649,4.78 6.604,4.78 5.371,4.781 4.137,4.781 2.904,4.781 2.875,4.781 2.846,4.781 2.817,4.777 2.746,4.768 2.695,4.711 2.691,4.639 2.686,4.54 2.746,4.475 2.845,4.475 c 0.173,0 0.346,0.005 0.519,0.004 0.25,-0.001 0.502,0.01 0.751,-0.012 0.564,-0.05 1.07,-0.259 1.51,-0.616 0.524,-0.425 0.867,-0.969 1,-1.63 C 6.802,1.353 6.615,0.561 6.067,-0.134 5.639,-0.678 5.077,-1.014 4.401,-1.157 4.21,-1.197 4.018,-1.212 3.824,-1.212 c -1.252,0 -2.503,0 -3.754,0 -0.07,0 -0.07,0 -0.07,0.071 v 1.077 z"
             inkscape:connector-curvature="0" /></g><g
           transform="translate(300.883,187.5278)"
           id="g252"><path
             id="path254"
             style="fill:#cdcccc;fill-opacity:1;fill-rule:evenodd;stroke:none"
             d="M 0,0 V -1.193 C -0.023,-1.195 -0.047,-1.197 -0.07,-1.197 H -4.1 c -0.589,0 -1.093,-0.419 -1.2,-0.998 -0.012,-0.07 -0.018,-0.141 -0.018,-0.213 -0.001,-1.281 -0.001,-2.563 0,-3.844 0,-0.622 0.442,-1.13 1.055,-1.214 0.062,-0.009 0.125,-0.011 0.188,-0.011 1.33,-10e-4 2.66,0 3.991,0 0.071,0 0.071,-10e-4 0.071,-0.071 0,-0.354 -0.001,-0.708 10e-4,-1.061 0.001,-0.05 -0.012,-0.064 -0.063,-0.064 -1.353,10e-4 -2.705,-0.002 -4.058,0.002 -1.124,0.003 -2.108,0.82 -2.33,1.924 -0.036,0.171 -0.051,0.342 -0.051,0.515 0.001,1.262 0.001,2.525 0,3.788 0,0.623 0.2,1.173 0.614,1.638 0.363,0.408 0.816,0.665 1.353,0.764 0.156,0.028 0.315,0.04 0.472,0.04 C -2.739,0.001 -1.405,0 -0.069,0 Z"
             inkscape:connector-curvature="0" /></g><g
           transform="translate(311.425,181.6718)"
           id="g256"><path
             id="path258"
             style="fill:#cdcccc;fill-opacity:1;fill-rule:evenodd;stroke:none"
             d="M 0,0 C 0.248,-0.001 0.557,0 0.805,0 H 0.872 C 0.728,0.433 0.587,0.853 0.446,1.274 H 0.433 C 0.426,1.257 0.418,1.24 0.412,1.223 0.281,0.835 0.149,0.447 0.02,0.059 Z m -0.074,-0.217 c -0.263,-0.774 -0.56,-1.648 -0.824,-2.422 -0.015,-0.045 -0.033,-0.09 -0.046,-0.137 -0.009,-0.031 -0.024,-0.041 -0.055,-0.04 -0.058,10e-4 -0.116,0 -0.174,0 -0.373,0 -0.747,0 -1.121,0 -0.021,0 -0.041,0.002 -0.068,0.003 0.007,0.025 0.012,0.044 0.019,0.064 0.419,1.239 0.839,2.479 1.26,3.719 0.383,1.133 0.766,2.266 1.15,3.399 0.091,0.266 0.387,0.364 0.602,0.202 0.068,-0.051 0.113,-0.12 0.14,-0.2 0.326,-0.97 0.653,-1.94 0.979,-2.91 0.308,-0.913 0.615,-1.825 0.922,-2.737 0.006,-0.015 0.011,-0.031 0.018,-0.052 h -2.805 c 0,0.351 0.003,0.763 0.003,1.111"
             inkscape:connector-curvature="0" /></g><g
           transform="translate(307.7443,184.8393)"
           id="g260"><path
             id="path262"
             style="fill:#cdcccc;fill-opacity:1;fill-rule:evenodd;stroke:none"
             d="M 0,0 H -0.06 -3.342 C -3.37,0 -3.397,0 -3.425,-0.002 -3.593,-0.015 -3.696,-0.126 -3.696,-0.294 v -2.711 c 0,-0.15 0.122,-0.276 0.277,-0.281 0.139,-0.003 0.278,-0.002 0.417,-0.003 0.087,-10e-4 0.174,-0.002 0.262,-0.007 0.043,-0.003 0.055,0.014 0.054,0.056 -0.003,0.064 -0.003,0.129 0,0.194 10e-4,0.04 -0.014,0.052 -0.054,0.052 -0.2,-10e-4 -0.401,-10e-4 -0.601,0 -0.065,0 -0.066,0 -0.066,0.062 v 1.091 c 0,0.014 0.002,0.028 0.003,0.046 h 1.91 c 0,-0.021 10e-4,-0.04 0.002,-0.06 v -2.574 c 0,-0.064 -0.001,-0.064 -0.062,-0.064 -0.798,0 -1.594,-10e-4 -2.391,0 -0.453,0 -0.825,0.29 -0.926,0.721 -0.014,0.062 -0.022,0.128 -0.022,0.192 -0.001,1.288 -0.002,2.576 -0.001,3.864 0.001,0.449 0.347,0.842 0.793,0.901 0.056,0.007 0.113,0.01 0.169,0.01 1.287,10e-4 2.574,10e-4 3.86,10e-4 C 0.009,1.196 0,1.203 0,1.123 V 0.065 Z"
             inkscape:connector-curvature="0" /></g><g
           transform="translate(297.0666,184.5395)"
           id="g264"><path
             id="path266"
             style="fill:#cdcccc;fill-opacity:1;fill-rule:evenodd;stroke:none"
             d="m 0,0 h 2.935 c 0.003,-0.025 0.006,-0.047 0.006,-0.069 0.002,-0.334 0.004,-0.669 0.006,-1.004 v -0.004 c 0,-0.12 0,-0.12 -0.118,-0.12 h -3.951 -0.072 v 0.06 c 0,0.568 -0.001,1.135 0,1.702 10e-4,0.454 0.295,0.819 0.738,0.913 0.066,0.014 0.138,0.017 0.206,0.017 1.336,10e-4 2.67,10e-4 4.006,10e-4 H 3.819 V 1.433 0.366 C 3.819,0.3 3.819,0.3 3.753,0.3 H 0.339 C 0.304,0.3 0.268,0.298 0.232,0.295 0.093,0.282 -0.015,0.149 0,0"
             inkscape:connector-curvature="0" /></g><g
           transform="translate(297.0651,181.8452)"
           id="g268"><path
             id="path270"
             style="fill:#cdcccc;fill-opacity:1;fill-rule:evenodd;stroke:none"
             d="m 0,0 c -0.009,-0.177 0.106,-0.295 0.288,-0.301 0.015,-0.001 0.029,-0.001 0.044,-0.001 h 3.404 c 0.068,0 0.069,0 0.069,-0.067 v -1.057 c 0,-0.063 -0.001,-0.063 -0.064,-0.063 h -4.014 c -0.468,0 -0.851,0.334 -0.914,0.798 -0.006,0.043 -0.005,0.087 -0.005,0.13 -0.001,0.562 -0.001,1.125 -0.001,1.687 0,0.066 0,0.066 0.066,0.066 h 4.01 c 0.07,0 0.068,0 0.067,-0.069 C 2.948,0.891 2.948,0.658 2.946,0.426 2.946,0.306 2.944,0.187 2.943,0.067 2.942,0 2.942,0 2.876,0 H 0.074 Z"
             inkscape:connector-curvature="0" /></g><g
           transform="translate(108.8273,156.8784)"
           id="g272"><path
             id="path274"
             style="fill:#c3262e;fill-opacity:1;fill-rule:evenodd;stroke:none"
             d="m 0,0 c 0,-1.105 -0.896,-2.003 -2.003,-2.003 -1.106,0 -2.003,0.898 -2.003,2.003 0,1.106 0.897,2.003 2.003,2.003 C -0.896,2.003 0,1.106 0,0"
             inkscape:connector-curvature="0" /></g><g
           transform="translate(17.2487,88.8847)"
           id="g276"><path
             id="path278"
             style="fill:#3d3d3d;fill-opacity:1;fill-rule:nonzero;stroke:none"
             d="m 0,0 c 1.945,-9.895 9.668,-24.24 23.447,-14.502 13.778,9.737 28.698,27.276 29.422,51.45 0.724,24.174 -9.843,38.47 -29.007,38.47 C 4.696,75.418 -4.005,58.116 -4.005,47.912 -4.005,37.709 -1.588,8.081 0,0"
             inkscape:connector-curvature="0" /></g><g
           transform="translate(64.9718,136.7968)"
           id="g280"><path
             id="path282"
             style="fill:#262727;fill-opacity:1;fill-rule:nonzero;stroke:none"
             d="m 0,0 c 0,-13.178 -10.683,-23.861 -23.861,-23.861 -13.179,0 -23.862,10.683 -23.862,23.861 0,13.179 10.683,23.862 23.862,23.862 C -10.683,23.862 0,13.179 0,0"
             inkscape:connector-curvature="0" /></g><g
           transform="translate(49.6398,127.7343)"
           id="g284"><path
             id="path286"
             style="fill:#181819;fill-opacity:1;fill-rule:nonzero;stroke:none"
             d="m 0,0 v 29.178 l -0.637,0.266 c -0.17,0.071 -4.205,1.738 -7.892,1.738 -3.688,0 -7.723,-1.667 -7.893,-1.738 l -0.637,-0.266 V 0"
             inkscape:connector-curvature="0" /></g><g
           transform="translate(32.5807,128.2675)"
           id="g288"><path
             id="path290"
             style="fill:#181819;fill-opacity:1;fill-rule:nonzero;stroke:none"
             d="m 0,0 v -11.585 l 0.637,-0.266 c 0.17,-0.071 4.205,-1.738 7.893,-1.738 3.687,0 7.722,1.667 7.892,1.738 l 0.637,0.266 V 0"
             inkscape:connector-curvature="0" /></g><g
           transform="translate(32.5807,145.3271)"
           id="g292"><path
             id="path294"
             style="fill:#181819;fill-opacity:1;fill-rule:nonzero;stroke:none"
             d="m 0,0 h -11.586 l -0.266,-0.638 c -0.071,-0.17 -1.737,-4.205 -1.737,-7.892 0,-3.688 1.666,-7.722 1.737,-7.893 l 0.266,-0.637 H 0"
             inkscape:connector-curvature="0" /></g><g
           transform="translate(31.8903,128.2675)"
           id="g296"><path
             id="path298"
             style="fill:#181819;fill-opacity:1;fill-rule:nonzero;stroke:none"
             d="m 0,0 h 29.335 l 0.266,0.637 c 0.071,0.171 1.737,4.205 1.737,7.892 0,3.688 -1.666,7.723 -1.737,7.893 L 29.335,17.06 H 0"
             inkscape:connector-curvature="0" /></g><g
           transform="translate(41.1105,157.8803)"
           id="g300"><path
             id="path302"
             style="fill:#262727;fill-opacity:1;fill-rule:nonzero;stroke:none"
             d="M 0,0 C -3.523,0 -7.494,-1.658 -7.494,-1.658 V -12.224 L 0,-20.236 7.493,-12.224 V -1.658 C 7.493,-1.658 3.522,0 0,0"
             inkscape:connector-curvature="0" /></g><g
           transform="translate(41.1105,115.7148)"
           id="g304"><path
             id="path306"
             style="fill:#262727;fill-opacity:1;fill-rule:nonzero;stroke:none"
             d="M 0,0 C 3.522,0 7.493,1.658 7.493,1.658 V 12.225 L 0,20.236 -7.494,12.225 V 1.658 C -7.494,1.658 -3.523,0 0,0"
             inkscape:connector-curvature="0" /></g><g
           transform="translate(62.1925,136.7968)"
           id="g308"><path
             id="path310"
             style="fill:#262727;fill-opacity:1;fill-rule:nonzero;stroke:none"
             d="M 0,0 C 0,3.523 -1.657,7.494 -1.657,7.494 H -13.053 L -20.235,0 -13.053,-7.492 H -1.657 C -1.657,-7.492 0,-3.521 0,0"
             inkscape:connector-curvature="0" /></g><g
           transform="translate(20.0275,136.7968)"
           id="g312"><path
             id="path314"
             style="fill:#262727;fill-opacity:1;fill-rule:nonzero;stroke:none"
             d="M 0,0 C 0,-3.521 1.658,-7.492 1.658,-7.492 H 13.054 L 20.236,0 13.054,7.494 H 1.658 C 1.658,7.494 0,3.523 0,0"
             inkscape:connector-curvature="0" /></g><g
           transform="translate(345.2814,122.2578)"
           id="g316"><path
             id="path318"
             style="fill:#3d3d3d;fill-opacity:1;fill-rule:nonzero;stroke:none"
             d="m 0,0 c -18.851,-18.713 -29.216,-38.834 -23.152,-44.943 6.065,-6.11 26.262,4.106 45.115,22.818 C 32.988,-11.181 41.107,0.244 44.738,9.066 44.289,14.579 43.802,19.628 43.32,24.006 35.705,27.173 17.287,17.16 0,0"
             inkscape:connector-curvature="0" /></g><g
           transform="translate(353.7843,120.3789)"
           id="g320"><path
             id="path322"
             style="fill:#2f2f2f;fill-opacity:1;fill-rule:nonzero;stroke:none"
             d="m 0,0 c 0,-6.479 -5.251,-11.729 -11.729,-11.729 -6.478,0 -11.728,5.25 -11.728,11.729 0,6.477 5.25,11.729 11.728,11.729 C -5.251,11.729 0,6.477 0,0"
             inkscape:connector-curvature="0" /></g><g
           transform="translate(381.2375,143.3769)"
           id="g324"><path
             id="path326"
             style="fill:#2f2f2f;fill-opacity:1;fill-rule:nonzero;stroke:none"
             d="m 0,0 c 0,-6.479 -5.251,-11.73 -11.73,-11.73 -6.477,0 -11.728,5.251 -11.728,11.73 0,6.478 5.251,11.729 11.728,11.729 C -5.251,11.729 0,6.478 0,0"
             inkscape:connector-curvature="0" /></g></g></g></g></svg>