<?xml version="1.0" encoding="UTF-8" standalone="no"?>
<svg
   xmlns:dc="http://purl.org/dc/elements/1.1/"
   xmlns:cc="http://creativecommons.org/ns#"
   xmlns:rdf="http://www.w3.org/1999/02/22-rdf-syntax-ns#"
   xmlns:svg="http://www.w3.org/2000/svg"
   xmlns="http://www.w3.org/2000/svg"
   xmlns:sodipodi="http://sodipodi.sourceforge.net/DTD/sodipodi-0.dtd"
   xmlns:inkscape="http://www.inkscape.org/namespaces/inkscape"
   viewBox="0 0 455.97375 88.187813"
   height="88.187813"
   width="455.97375"
   xml:space="preserve"
   version="1.1"
   id="svg2"
   sodipodi:docname="logo.svg"
   inkscape:version="0.92.2 (5c3e80d, 2017-08-06)"><sodipodi:namedview
     pagecolor="#ffffff"
     bordercolor="#666666"
     borderopacity="1"
     objecttolerance="10"
     gridtolerance="10"
     guidetolerance="10"
     inkscape:pageopacity="0"
     inkscape:pageshadow="2"
     inkscape:window-width="1920"
     inkscape:window-height="1017"
     id="namedview58"
     showgrid="false"
     fit-margin-top="0"
     fit-margin-left="0"
     fit-margin-right="0"
     fit-margin-bottom="0"
     inkscape:zoom="0.76539493"
     inkscape:cx="227.98688"
     inkscape:cy="58.792065"
     inkscape:window-x="-8"
     inkscape:window-y="-8"
     inkscape:window-maximized="1"
     inkscape:current-layer="svg2" /><metadata
     id="metadata8"><rdf:RDF><cc:Work
         rdf:about=""><dc:format>image/svg+xml</dc:format><dc:type
           rdf:resource="http://purl.org/dc/dcmitype/StillImage" /><dc:title></dc:title></cc:Work></rdf:RDF></metadata><defs
     id="defs6"><clipPath
       id="clipPath16"
       clipPathUnits="userSpaceOnUse"><path
         id="path18"
         d="M 0,94.067 H 364.779 V 0 H 0 Z"
         inkscape:connector-curvature="0" /></clipPath></defs><g
     transform="matrix(1.25,0,0,-0.9375,0,88.187812)"
     id="g10"><g
       id="g12"><g
         clip-path="url(#clipPath16)"
         id="g14"><g
           transform="translate(225.4179,93.253)"
           id="g20"><path
             id="path22"
             style="fill:#000099;fill-opacity:1;fill-rule:evenodd;stroke:none"
             d="m 0,0 v -6.528 c -0.139,-0.006 -0.26,-0.016 -0.381,-0.016 -7.096,0 -14.189,-0.018 -21.286,0.008 -3.046,0.011 -5.782,-2.112 -6.489,-5.049 -0.123,-0.502 -0.194,-1.029 -0.198,-1.544 -0.01,-7.05 -0.01,-14.1 -0.005,-21.15 0.004,-3.211 2.439,-6.021 5.619,-6.499 0.377,-0.057 0.758,-0.091 1.136,-0.092 4.903,-0.006 9.805,-0.004 14.711,-0.004 0.382,0 0.382,0 0.382,0.392 v 17.204 c 0,0.402 0,0.402 -0.395,0.402 h -11.346 c -0.352,0 -0.353,0.001 -0.353,0.344 v 5.91 0.273 H 0.017 v -26.42 c 0.028,-0.004 0.057,-0.01 0.084,-0.015 0.042,0.09 0.088,0.176 0.12,0.269 1.259,3.703 2.519,7.408 3.779,11.112 1.602,4.703 3.205,9.407 4.805,14.114 1.289,3.797 2.558,7.602 3.868,11.391 1.011,2.924 3.048,4.913 5.919,5.952 4.011,1.447 7.738,0.837 11.045,-1.906 1.435,-1.193 2.324,-2.755 2.916,-4.523 2.611,-7.815 5.255,-15.621 7.885,-23.429 1.941,-5.762 3.886,-11.525 5.83,-17.287 0.027,-0.089 0.05,-0.18 0.086,-0.307 -0.121,-0.007 -0.214,-0.019 -0.307,-0.019 -8.678,-10e-4 -17.353,0.001 -26.027,-0.006 -0.262,0 -0.326,0.077 -0.324,0.329 0.011,1.969 0.007,3.942 0.007,5.911 v 0.307 h 17.592 c -0.106,0.33 -0.193,0.604 -0.286,0.875 -3.146,9.282 -6.288,18.565 -9.434,27.847 -0.533,1.568 -1.063,3.139 -1.595,4.707 -0.486,1.426 -1.926,2.431 -3.463,2.424 -1.581,-0.007 -3,-0.995 -3.487,-2.426 -1.893,-5.584 -3.786,-11.169 -5.679,-16.753 -2.355,-6.95 -4.719,-13.902 -7.074,-20.852 -0.232,-0.685 -0.482,-1.363 -0.693,-2.054 -0.074,-0.247 -0.199,-0.3 -0.436,-0.3 -1.862,0.008 -3.727,0.005 -5.589,0.005 -7.069,0 -14.137,0.02 -21.204,-0.007 -5.662,-0.02 -10.771,3.577 -12.617,8.996 -0.449,1.321 -0.683,2.684 -0.683,4.077 -0.011,7.085 -0.011,14.171 -0.004,21.258 0.006,6.143 4.472,11.598 10.49,12.793 0.897,0.177 1.823,0.27 2.732,0.275 C -14.615,0.009 -7.502,0 -0.389,0 Z"
             inkscape:connector-curvature="0" /></g><g
           transform="translate(112.6445,53.9966)"
           id="g24"><path
             id="path26"
             style="fill:#000099;fill-opacity:1;fill-rule:evenodd;stroke:none"
             d="m 0,0 v 6.545 h 0.375 c 6.784,0 13.568,0 20.355,0.002 0.148,0 0.303,0.009 0.444,0.048 0.365,0.098 0.58,0.42 0.564,0.825 -0.015,0.368 -0.267,0.667 -0.641,0.735 -0.146,0.026 -0.298,0.036 -0.447,0.036 -1.889,0.004 -3.781,-0.03 -5.673,0.017 -3.44,0.081 -6.51,1.235 -9.192,3.386 -3.008,2.419 -4.898,5.545 -5.555,9.346 -0.806,4.668 0.27,8.912 3.253,12.61 2.326,2.882 5.347,4.682 8.978,5.401 0.971,0.194 1.979,0.289 2.969,0.293 6.892,0.025 13.783,0.013 20.675,0.013 h 0.349 V 32.69 h -0.378 c -6.845,0 -13.694,0.002 -20.54,-0.003 C 11.32,32.685 7.71,29.85 6.793,25.738 c -0.684,-3.049 0.062,-5.777 2.16,-8.1 1.458,-1.615 3.301,-2.549 5.461,-2.804 0.821,-0.098 1.654,-0.069 2.484,-0.081 1.422,-0.021 2.845,-0.031 4.265,-0.043 3.219,-0.031 6.101,-2.308 6.928,-5.473 C 29.188,5.038 26.445,0.806 22.165,0.109 21.712,0.034 21.252,0.004 20.794,0.003 13.975,-0.003 7.152,0 0.331,0 Z"
             inkscape:connector-curvature="0" /></g><g
           transform="translate(112.6289,52.4248)"
           id="g28"><path
             id="path30"
             style="fill:#000099;fill-opacity:1;fill-rule:evenodd;stroke:none"
             d="m 0,0 h 0.383 20.621 c 4.328,0 8.041,3.089 8.832,7.348 0.885,4.746 -2.314,9.447 -7.051,10.39 -1.101,0.22 -2.213,0.183 -3.325,0.195 -1.333,0.011 -2.665,0.001 -4.001,0.022 -3.654,0.057 -6.611,2.653 -7.174,6.212 -0.595,3.789 1.791,7.351 5.51,8.248 0.529,0.127 1.084,0.189 1.623,0.189 6.932,0.014 13.853,0.009 20.781,0.009 h 0.276 c 0.012,-0.063 0.033,-0.112 0.033,-0.162 -0.016,-1.996 -0.038,-3.992 -0.038,-5.987 0,-0.309 -0.126,-0.337 -0.374,-0.337 -6.743,0.006 -13.482,0.006 -20.223,0.005 -0.16,0 -0.32,-0.003 -0.477,-0.021 -0.39,-0.048 -0.666,-0.36 -0.687,-0.754 -0.025,-0.539 0.297,-0.898 0.84,-0.898 0.947,0 1.891,0.028 2.836,0.024 1.369,-0.007 2.743,0.054 4.105,-0.065 3.086,-0.271 5.849,-1.414 8.258,-3.368 2.863,-2.325 4.735,-5.296 5.467,-8.912 C 37.178,7.397 36.156,3.069 33.16,-0.735 30.822,-3.706 27.752,-5.542 24.055,-6.325 23.015,-6.543 21.959,-6.626 20.9,-6.626 14.059,-6.627 7.221,-6.627 0.383,-6.627 0,-6.627 0,-6.627 0,-6.235 v 5.885 z"
             inkscape:connector-curvature="0" /></g><g
           transform="translate(187.9267,93.253)"
           id="g32"><path
             id="path34"
             style="fill:#000099;fill-opacity:1;fill-rule:evenodd;stroke:none"
             d="m 0,0 v -6.523 c -0.128,-0.008 -0.254,-0.021 -0.382,-0.021 -7.344,0 -14.683,0 -22.027,0 -3.223,0 -5.979,-2.29 -6.561,-5.457 -0.066,-0.379 -0.097,-0.772 -0.097,-1.159 -0.004,-7.006 -0.004,-14.011 -0.002,-21.018 0.002,-3.395 2.418,-6.172 5.765,-6.635 0.34,-0.045 0.687,-0.057 1.031,-0.057 7.27,-0.005 14.543,-0.004 21.813,-0.004 0.392,0 0.392,-10e-4 0.392,-0.385 0,-1.935 -0.007,-3.868 0.005,-5.804 0.002,-0.265 -0.072,-0.345 -0.344,-0.345 -7.395,0.006 -14.787,-0.01 -22.184,0.009 -6.144,0.017 -11.525,4.483 -12.74,10.521 -0.187,0.93 -0.271,1.866 -0.271,2.812 10e-4,6.899 0.005,13.801 0,20.702 -0.002,3.409 1.087,6.412 3.352,8.959 1.982,2.231 4.462,3.634 7.399,4.171 0.847,0.155 1.719,0.223 2.579,0.223 C -14.972,0.006 -7.677,0 -0.378,0 Z"
             inkscape:connector-curvature="0" /></g><g
           transform="translate(245.5508,61.2452)"
           id="g36"><path
             id="path38"
             style="fill:#000099;fill-opacity:1;fill-rule:evenodd;stroke:none"
             d="M 0,0 C 1.357,-0.011 3.041,-0.006 4.401,-0.006 H 4.77 C 3.977,2.363 3.207,4.661 2.434,6.961 H 2.363 C 2.328,6.868 2.284,6.776 2.254,6.681 1.537,4.561 0.818,2.443 0.105,0.322 Z m -0.408,-1.188 c -1.436,-4.231 -3.061,-9.007 -4.499,-13.237 -0.086,-0.25 -0.181,-0.497 -0.255,-0.751 -0.046,-0.167 -0.129,-0.226 -0.3,-0.221 -0.316,0.007 -0.636,0.002 -0.953,0.002 -2.04,0 -4.081,0 -6.122,0 -0.113,0 -0.227,0.01 -0.377,0.018 0.039,0.134 0.068,0.241 0.103,0.346 2.295,6.776 4.59,13.552 6.887,20.328 2.094,6.195 4.19,12.389 6.287,18.582 0.496,1.457 2.12,1.991 3.295,1.102 C 4.029,24.702 4.27,24.328 4.419,23.891 6.201,18.586 7.988,13.284 9.775,7.98 11.455,2.994 13.134,-1.991 14.814,-6.978 14.844,-7.06 14.87,-7.143 14.91,-7.26 H -0.423 c 0,1.915 0.015,4.169 0.015,6.072"
             inkscape:connector-curvature="0" /></g><g
           transform="translate(225.4326,78.5567)"
           id="g40"><path
             id="path42"
             style="fill:#000099;fill-opacity:1;fill-rule:evenodd;stroke:none"
             d="m 0,0 h -0.327 -17.944 c -0.152,0 -0.3,0.001 -0.453,-0.013 -0.916,-0.072 -1.482,-0.678 -1.482,-1.597 v -14.815 c 0,-0.823 0.668,-1.509 1.516,-1.536 0.757,-0.021 1.519,-0.011 2.277,-0.02 0.48,-0.005 0.956,-0.012 1.431,-0.038 0.239,-0.013 0.305,0.082 0.299,0.307 -0.015,0.353 -0.015,0.707 0,1.061 0.006,0.221 -0.078,0.287 -0.295,0.287 -1.093,-0.009 -2.189,-0.004 -3.287,-0.004 -0.353,0 -0.355,0.002 -0.355,0.341 v 5.963 c 0,0.078 0.007,0.155 0.011,0.249 h 10.438 c 0.004,-0.116 0.011,-0.219 0.016,-0.323 v -14.073 c 0,-0.349 -0.005,-0.349 -0.344,-0.349 -4.358,0 -8.713,-0.004 -13.065,0 -2.478,0.002 -4.513,1.588 -5.059,3.943 -0.077,0.339 -0.126,0.697 -0.126,1.047 -0.004,7.041 -0.006,14.082 -0.002,21.123 0.002,2.456 1.897,4.601 4.333,4.924 0.308,0.041 0.62,0.056 0.925,0.057 7.033,0.002 14.065,0.001 21.099,0.001 0.44,0 0.391,0.04 0.394,-0.401 L 0,0.356 Z"
             inkscape:connector-curvature="0" /></g><g
           transform="translate(167.0683,76.918)"
           id="g44"><path
             id="path46"
             style="fill:#000099;fill-opacity:1;fill-rule:evenodd;stroke:none"
             d="m 0,0 h 16.043 c 0.014,-0.138 0.033,-0.256 0.033,-0.377 0.012,-1.829 0.02,-3.657 0.029,-5.486 v -0.025 c 0.002,-0.653 0.002,-0.653 -0.641,-0.653 h -21.6 -0.393 v 0.328 c 0,3.101 -0.002,6.204 0.002,9.304 0.002,2.477 1.612,4.473 4.033,4.985 0.364,0.079 0.751,0.094 1.129,0.094 7.3,0.005 14.594,0.004 21.894,0.004 h 0.345 V 7.83 2.001 c 0,-0.361 0,-0.361 -0.36,-0.361 C 14.293,1.639 8.072,1.64 1.852,1.636 1.658,1.636 1.465,1.631 1.27,1.612 0.506,1.54 -0.082,0.814 0,0"
             inkscape:connector-curvature="0" /></g><g
           transform="translate(167.0576,62.189)"
           id="g48"><path
             id="path50"
             style="fill:#000099;fill-opacity:1;fill-rule:evenodd;stroke:none"
             d="m 0,0 c -0.052,-0.967 0.583,-1.61 1.577,-1.645 0.08,-0.004 0.159,-0.002 0.238,-0.002 h 18.606 c 0.375,0 0.38,0 0.38,-0.366 v -5.778 c 0,-0.346 -0.005,-0.347 -0.352,-0.347 H -1.493 c -2.555,10e-4 -4.651,1.827 -4.994,4.36 -0.032,0.236 -0.03,0.476 -0.03,0.715 -0.002,3.074 -0.002,6.149 -0.002,9.222 0,0.357 0,0.357 0.361,0.357 7.305,0.001 14.61,0.001 21.916,0 0.384,0 0.372,0 0.367,-0.373 C 16.114,4.871 16.114,3.599 16.106,2.327 16.102,1.675 16.094,1.02 16.087,0.368 16.083,0.002 16.083,0 15.724,0 H 0.407 Z"
             inkscape:connector-curvature="0" /></g><g
           transform="translate(5.8418,35.3536)"
           id="g52"><path
             id="path54"
             style="fill:#000099;fill-opacity:1;fill-rule:nonzero;stroke:none"
             d="M 0,0 -5.842,-35.354 H 30.314 L 34.75,-7.232 H 24.305 L 10.613,-17.676 h 8.838 l -1.139,-7.233 H 8.671 L 12.588,0 H 35.889 L 27.102,10.444 H 11.835 Z"
             inkscape:connector-curvature="0" /></g><g
           transform="translate(9.5918,34.5498)"
           id="g56"><path
             id="path58"
             style="fill:#ffffff;fill-opacity:1;fill-rule:nonzero;stroke:none"
             d="M 0,0 -5.072,-31.336 H 23.05 l 3.43,21.694 H 20.857 L 15.4,-13.66 h 4.821 l -2.16,-13.658 H 1.188 L 6.143,4.017 H 25.426 L 22.045,8.035 H 8.386 Z"
             inkscape:connector-curvature="0" /></g><g
           transform="translate(205.9082,35.3536)"
           id="g60"><path
             id="path62"
             style="fill:#000099;fill-opacity:1;fill-rule:nonzero;stroke:none"
             d="M 0,0 -5.843,-35.354 H 30.314 L 34.75,-7.232 H 24.305 L 10.612,-17.676 h 8.838 l -1.138,-7.233 H 8.67 L 12.587,0 H 35.889 L 27.101,10.444 H 11.834 Z"
             inkscape:connector-curvature="0" /></g><g
           transform="translate(209.6572,34.5498)"
           id="g64"><path
             id="path66"
             style="fill:#ffffff;fill-opacity:1;fill-rule:nonzero;stroke:none"
             d="M 0,0 -5.073,-31.336 H 23.05 l 3.431,21.694 H 20.856 L 15.4,-13.66 h 4.822 L 18.061,-27.318 H 1.189 L 6.144,4.017 H 25.427 L 22.045,8.035 H 8.386 Z"
             inkscape:connector-curvature="0" /></g><g
           transform="translate(67.0732,17.6773)"
           id="g68"><path
             id="path70"
             style="fill:#000099;fill-opacity:1;fill-rule:nonzero;stroke:none"
             d="M 0,0 -1.138,-7.233 H -9.976 L -8.838,0 Z m 10.864,-17.677 8.035,45.798 H -6.009 L -18.915,17.676 H 2.778 L 1.641,10.444 H -9.607 L -22.497,0 -25.292,-17.677 Z"
             inkscape:connector-curvature="0" /></g><g
           transform="translate(80.6494,42.5845)"
           id="g72"><path
             id="path74"
             style="fill:#ffffff;fill-opacity:1;fill-rule:nonzero;stroke:none"
             d="m 0,0 h -18.479 l -4.655,-4.018 h 16.873 l -2.16,-13.659 h -13.658 l -9.977,-8.838 -2.293,-12.856 h 17.676 l 0.637,4.018 h -12.053 l 2.16,13.659 h 16.873 l -2.795,-17.677 h 5.623 z"
             inkscape:connector-curvature="0" /></g><g
           transform="translate(304.9023,17.6773)"
           id="g76"><path
             id="path78"
             style="fill:#000099;fill-opacity:1;fill-rule:nonzero;stroke:none"
             d="M 0,0 -1.139,-7.233 H -9.976 L -8.838,0 Z m 10.864,-17.677 8.034,45.798 H -6.009 L -18.914,17.676 H 2.779 L 1.641,10.444 H -9.607 L -22.497,0 -25.293,-17.677 Z"
             inkscape:connector-curvature="0" /></g><g
           transform="translate(318.4785,42.5845)"
           id="g80"><path
             id="path82"
             style="fill:#ffffff;fill-opacity:1;fill-rule:nonzero;stroke:none"
             d="m 0,0 h -18.48 l -4.655,-4.018 H -6.261 L -8.42,-17.677 h -13.66 l -9.977,-8.838 -2.293,-12.856 h 17.677 l 0.637,4.018 h -12.052 l 2.158,13.659 h 16.873 l -2.795,-17.677 h 5.625 z"
             inkscape:connector-curvature="0" /></g><g
           transform="translate(151.2715,35.3536)"
           id="g84"><path
             id="path86"
             style="fill:#000099;fill-opacity:1;fill-rule:nonzero;stroke:none"
             d="m 0,0 -5.842,-35.354 h 32.943 l 1.657,10.445 H 8.67 l 1.139,7.233 h 20.087 l 1.641,10.444 H 11.449 L 12.588,0 h 20.087 l 1.657,10.444 H 11.834 Z"
             inkscape:connector-curvature="0" /></g><g
           transform="translate(155.0205,33.7461)"
           id="g88"><path
             id="path90"
             style="fill:#ffffff;fill-opacity:1;fill-rule:nonzero;stroke:none"
             d="m 0,0 -5.071,-30.532 h 24.907 l 0.636,4.017 H 1.189 l 2.16,13.659 h 19.283 l 0.636,4.018 H 3.984 l 2.16,13.659 h 19.283 l 0.637,4.017 H 9.993 Z"
             inkscape:connector-curvature="0" /></g><g
           transform="translate(247.6875,35.3536)"
           id="g92"><path
             id="path94"
             style="fill:#000099;fill-opacity:1;fill-rule:nonzero;stroke:none"
             d="m 0,0 -5.842,-35.354 h 32.944 l 1.657,10.445 H 8.672 l 1.139,7.233 h 20.086 l 1.64,10.444 H 11.451 L 12.588,0 h 20.088 l 1.656,10.444 H 11.836 Z"
             inkscape:connector-curvature="0" /></g><g
           transform="translate(251.4375,33.7461)"
           id="g96"><path
             id="path98"
             style="fill:#ffffff;fill-opacity:1;fill-rule:nonzero;stroke:none"
             d="m 0,0 -5.071,-30.532 h 24.907 l 0.637,4.017 H 1.189 l 2.159,13.659 h 19.284 l 0.636,4.018 H 3.984 l 2.16,13.659 h 19.283 l 0.636,4.017 H 9.994 Z"
             inkscape:connector-curvature="0" /></g><g
           transform="translate(350.2656,35.3536)"
           id="g100"><path
             id="path102"
             style="fill:#000099;fill-opacity:1;fill-rule:nonzero;stroke:none"
             d="M 0,0 -1.139,-7.232 H -11.584 L -10.445,0 Z M -2.779,-17.676 -5.574,-35.354 H 7.281 l 2.662,16.07 -5.49,6.026 7.399,6.829 2.662,16.873 H -10.395 L -23.033,0 -28.875,-35.354 h 12.856 l 2.795,17.678 z"
             inkscape:connector-curvature="0" /></g><g
           transform="translate(351.8388,24.9078)"
           id="g104"><path
             id="path106"
             style="fill:#ffffff;fill-opacity:1;fill-rule:nonzero;stroke:none"
             d="m 0,0 h -16.872 l 2.158,13.659 H 2.159 Z m -20.856,8.838 -5.072,-30.532 h 5.624 l 2.795,17.676 H -0.636 L -3.431,-21.694 H 2.193 L 4.353,-9.642 -0.636,-4.018 0,0 6.261,4.821 8.419,17.677 h -19.281 z"
             inkscape:connector-curvature="0" /></g><g
           transform="translate(89.4043,34.5498)"
           id="g108"><path
             id="path110"
             style="fill:#000099;fill-opacity:1;fill-rule:nonzero;stroke:none"
             d="M 0,0 -5.842,-34.55 H 7.816 l 5.575,35.354 h 8.035 L 15.852,-34.55 H 29.51 l 5.574,35.354 h 7.232 L 36.741,-34.55 H 50.4 l 7.232,45.798 H 12.638 Z"
             inkscape:connector-curvature="0" /></g><g
           transform="translate(93.1523,33.7461)"
           id="g112"><path
             id="path114"
             style="fill:#ffffff;fill-opacity:1;fill-rule:nonzero;stroke:none"
             d="M 0,0 -5.07,-30.532 H 0.553 L 6.145,4.821 h 16.069 l -5.591,-35.353 h 5.624 l 5.591,35.353 h 15.266 l -5.59,-35.353 h 5.623 l 6.228,39.37 H 9.994 Z"
             inkscape:connector-curvature="0" /></g></g></g></g></svg>