<?xml version="1.0" encoding="UTF-8" standalone="no"?>
<!-- Generator: Adobe Illustrator 19.0.0, SVG Export Plug-In . SVG Version: 6.00 Build 0)  -->

<svg
   xmlns:dc="http://purl.org/dc/elements/1.1/"
   xmlns:cc="http://creativecommons.org/ns#"
   xmlns:rdf="http://www.w3.org/1999/02/22-rdf-syntax-ns#"
   xmlns:svg="http://www.w3.org/2000/svg"
   xmlns="http://www.w3.org/2000/svg"
   xmlns:sodipodi="http://sodipodi.sourceforge.net/DTD/sodipodi-0.dtd"
   xmlns:inkscape="http://www.inkscape.org/namespaces/inkscape"
   version="1.1"
   id="Ebene_1"
   x="0px"
   y="0px"
   viewBox="-134 295.6 567.01642 151.70179"
   xml:space="preserve"
   sodipodi:docname="logo.svg"
   width="567.01642"
   height="151.70178"
   inkscape:version="0.92.2 (5c3e80d, 2017-08-06)"><metadata
     id="metadata47"><rdf:RDF><cc:Work
         rdf:about=""><dc:format>image/svg+xml</dc:format><dc:type
           rdf:resource="http://purl.org/dc/dcmitype/StillImage" /><dc:title></dc:title></cc:Work></rdf:RDF></metadata><defs
     id="defs45" /><sodipodi:namedview
     pagecolor="#ffffff"
     bordercolor="#666666"
     borderopacity="1"
     objecttolerance="10"
     gridtolerance="10"
     guidetolerance="10"
     inkscape:pageopacity="0"
     inkscape:pageshadow="2"
     inkscape:window-width="1920"
     inkscape:window-height="1017"
     id="namedview43"
     showgrid="false"
     fit-margin-top="0"
     fit-margin-left="0"
     fit-margin-right="0"
     fit-margin-bottom="0"
     inkscape:zoom="0.4428934"
     inkscape:cx="283.46981"
     inkscape:cy="100.96905"
     inkscape:window-x="-8"
     inkscape:window-y="-8"
     inkscape:window-maximized="1"
     inkscape:current-layer="Ebene_1" /><g
     id="g40"
     transform="matrix(1,0,0,0.75,-110.53019,73.975)"><path
       d="m 103.1,394.7 h 39.8 c 16.3,0 29.5,-13.2 29.5,-29.5 0,-16.3 -13.2,-29.4 -29.5,-29.4 h -10.4 c -0.8,0 -1.5,-0.7 -1.5,-1.5 0,-0.9 0.7,-1.6 1.5,-1.6 h 39.7 l 0.1,-12.4 h -39.8 c -7.7,0 -13.9,6.2 -13.9,13.9 0,7.8 6.2,14.1 13.9,14.1 h 10.4 c 9.3,0 16.9,7.6 16.9,16.9 0,9.3 -7.6,16.8 -16.9,16.8 h -39.8 z"
       id="path2"
       inkscape:connector-curvature="0"
       style="fill:#17569b" /><path
       d="m 103.1,379.1 h 39.8 c 7.8,0 14,-6.3 14,-14 0,-7.7 -6.2,-14 -14,-14 h -10.4 c -9.3,0 -16.8,-7.7 -16.8,-17 0,-9.3 7.5,-16.8 16.8,-16.8 h 39.8 l -0.1,-12.6 h -39.7 c -16.3,0 -29.4,13.2 -29.4,29.5 0,16.3 13.2,29.4 29.4,29.4 h 10.3 c 0.8,0 1.5,0.7 1.5,1.5 0,0.8 -0.7,1.5 -1.5,1.5 h -39.7 z"
       id="path4"
       inkscape:connector-curvature="0"
       style="fill:#17569b" /><path
       d="m 203.2,382.1 c -6.9,0 -12.5,-5.5 -12.5,-12.5 v -40 c 0,-6.7 5.6,-12.3 12.5,-12.3 h 42.5 v -12.5 h -42.5 c -13.8,0 -25,11.2 -25,25 v 39.8 c 0,13.8 11.2,25 25,25 h 42.3 v -12.5 z"
       id="path6"
       inkscape:connector-curvature="0"
       style="fill:#17569b" /><path
       d="m 193.8,329.8 c 0,-5.2 4.2,-9.6 9.5,-9.6 h 42.5 v 12.5 h -36.6 c -2.9,0 -2.9,2.9 -2.9,2.9 h 30.6 v 12.5 h -43 z"
       id="path8"
       inkscape:connector-curvature="0"
       style="fill:#17569b" /><path
       d="m 203.2,379.1 c -5.2,0 -9.5,-4.3 -9.5,-9.5 v -18.4 h 43 v 12.5 h -30.6 c 0,2.9 2.9,2.9 2.9,2.9 h 36.4 V 379 Z"
       id="path10"
       inkscape:connector-curvature="0"
       style="fill:#17569b" /><path
       d="m 275.6,382.1 c -6.9,0 -12.6,-5.6 -12.6,-12.5 v -39.8 c 0,-6.9 5.6,-12.5 12.5,-12.5 h 41.2 v -12.5 h -41.3 c -13.8,0 -25,11.2 -25,25 v 39.8 c 0,13.8 11.3,25 25.1,25 h 41.2 v -58.9 h -35.4 v 12.5 h 22.9 v 33.9 z"
       id="path12"
       inkscape:connector-curvature="0"
       style="fill:#17569b" /><path
       d="m 265.9,369.6 c 0,5.2 4.3,9.6 9.6,9.6 h 25.7 v -28 h -19.9 v 12.6 h 7.4 v 2.9 h -7.4 c -1.6,0 -2.9,-1.4 -2.9,-2.9 v -28 c 0,0 0,-2.9 2.9,-2.9 h 35.3 v -12.5 h -41.2 c -5.2,0 -9.6,4.3 -9.6,9.6 z"
       id="path14"
       inkscape:connector-curvature="0"
       style="fill:#17569b" /><path
       d="m 355.3,320.1 c 0.6,-1.6 2,-2.8 3.8,-2.8 1.8,0 3.3,1.1 3.8,2.8 l 19.9,59.2 h -29.2 v -13.9 h 9.8 l -4.4,-13.2 -14.4,42.4 h -14.7 z"
       id="path16"
       inkscape:connector-curvature="0"
       style="fill:#17569b" /><path
       d="m 387,382.1 h -33.3 v 12.5 h 50.6 l -26.3,-78 c -2.3,-7.6 -9.9,-13.2 -18.9,-13.2 -9,0 -16.6,5.6 -18.9,13.2 l -26.6,78 H 327 l 25.7,-75.9 c 1.1,-2.5 3.5,-4.3 6.5,-4.3 2.9,0 5.3,1.7 6.4,4.3 z"
       id="path18"
       inkscape:connector-curvature="0"
       style="fill:#17569b" /><path
       d="m 397,315.1 c 2.6,0 5.1,-1 6.9,-2.9 1.9,-1.9 2.9,-4.3 2.9,-6.9 0,-2.6 -1,-5.1 -2.9,-6.9 -1.8,-1.9 -4.3,-2.9 -6.9,-2.9 -5.4,0 -9.8,4.3 -9.8,9.7 0,2.6 1.1,5.1 2.9,6.9 1.8,2.1 4.3,3 6.9,3 z m -8.4,-9.8 c 0,-2.2 0.9,-4.3 2.5,-6 1.5,-1.6 3.7,-2.5 6,-2.5 2.2,0 4.3,0.9 6,2.5 1.6,1.6 2.5,3.8 2.5,6 0,4.7 -3.8,8.4 -8.4,8.4 -2.3,0 -4.4,-0.8 -6,-2.5 -1.7,-1.4 -2.6,-3.6 -2.6,-5.9 z"
       id="path20"
       inkscape:connector-curvature="0"
       style="fill:#17569b" /><path
       d="m 394.5,306.2 v 4.7 h -1.4 V 300 h 4 c 1.5,0 2.4,0 3.3,0.7 0.7,0.6 1.1,1.5 1.1,2.5 0,2.5 -2,2.9 -2.6,2.9 l 3,4.7 h -1.7 l -2.9,-4.7 z m 0,-1.2 h 2.9 c 0.5,0 0.9,0 1.3,-0.2 1.1,-0.2 1.4,-1 1.4,-1.7 0,-0.2 -0.1,-1.1 -0.7,-1.6 -0.6,-0.5 -1.3,-0.4 -2.1,-0.4 h -2.8 z"
       id="path22"
       inkscape:connector-curvature="0"
       style="fill:#17569b" /><g
       id="g6708"
       transform="translate(-67.069808,39.506873)"><g
         id="flowRoot6696"
         transform="translate(0,952.36218)"><path
           id="path6717"
           d="M 130.2,-515.7 H 99.3 v -3.5 c 1.1,0 2.6,-0.1 4.3,-0.3 1.8,-0.2 3,-0.5 3.6,-0.8 1,-0.6 1.8,-1.3 2.2,-2.1 0.5,-0.8 0.7,-1.8 0.7,-3 v -50.8 h -0.7 l -23.8,59.5 h -2.5 l -22.7,-60.8 h -0.6 v 41.7 c 0,4 0.3,7.1 0.8,9.2 0.5,2.1 1.3,3.6 2.3,4.5 0.7,0.7 2.2,1.4 4.5,2 2.3,0.6 3.7,1 4.4,1 v 3.5 H 43.6 v -3.5 c 1.5,-0.1 3,-0.4 4.7,-0.7 1.6,-0.4 2.9,-0.9 3.8,-1.6 1.2,-0.9 1.9,-2.3 2.4,-4.2 0.4,-1.9 0.6,-5.1 0.6,-9.6 V -571 c 0,-2.1 -0.2,-3.8 -0.7,-5.1 -0.5,-1.3 -1.2,-2.4 -2.1,-3.2 -1,-0.9 -2.3,-1.5 -3.7,-2 -1.5,-0.4 -2.9,-0.7 -4.4,-0.7 v -3.5 H 68 l 20,52.4 17,-43.9 c 0.6,-1.6 1.2,-3.3 1.6,-5 0.4,-1.8 0.7,-2.9 0.7,-3.5 h 22.8 v 3.5 c -0.9,0 -2.1,0.2 -3.5,0.4 -1.4,0.3 -2.5,0.5 -3.1,0.7 -1.1,0.4 -1.9,1.1 -2.3,2 -0.4,0.9 -0.6,1.9 -0.6,3 v 50.4 c 0,1.2 0.2,2.1 0.6,2.9 0.4,0.8 1.1,1.5 2.3,2.1 0.6,0.3 1.6,0.6 3.2,0.9 1.5,0.3 2.7,0.4 3.6,0.5 z"
           inkscape:connector-curvature="0"
           style="fill:#ff0000" /><path
           id="path6719"
           d="m 173.9,-516.6 c -1.5,0.6 -2.9,1 -4.1,1.4 -1.2,0.3 -2.5,0.5 -4,0.5 -2.6,0 -4.6,-0.6 -6.1,-1.8 -1.5,-1.2 -2.5,-2.9 -2.9,-5.2 h -0.3 c -2.1,2.4 -4.4,4.2 -6.9,5.4 -2.4,1.3 -5.4,1.9 -8.8,1.9 -3.6,0 -6.6,-1.1 -9,-3.3 -2.3,-2.2 -3.5,-5.2 -3.5,-8.8 0,-1.9 0.3,-3.5 0.8,-5 0.5,-1.5 1.3,-2.8 2.4,-4 0.8,-1 1.9,-1.9 3.3,-2.6 1.3,-0.8 2.6,-1.4 3.8,-1.8 1.5,-0.6 4.5,-1.6 9,-3.1 4.5,-1.5 7.6,-2.7 9.1,-3.5 v -4.9 c 0,-0.4 -0.1,-1.2 -0.3,-2.5 -0.2,-1.2 -0.6,-2.4 -1.2,-3.4 -0.7,-1.2 -1.6,-2.3 -2.8,-3.2 -1.2,-0.9 -2.9,-1.4 -5.1,-1.4 -1.5,0 -2.9,0.3 -4.2,0.8 -1.3,0.5 -2.2,1 -2.7,1.6 0,0.7 0.2,1.6 0.5,2.9 0.3,1.3 0.5,2.5 0.5,3.5 0,1.2 -0.5,2.2 -1.6,3.2 -1,1 -2.5,1.4 -4.3,1.4 -1.6,0 -2.8,-0.6 -3.6,-1.7 -0.8,-1.2 -1.2,-2.5 -1.2,-3.9 0,-1.5 0.5,-3 1.6,-4.3 1.1,-1.4 2.5,-2.6 4.2,-3.7 1.5,-0.9 3.3,-1.7 5.4,-2.3 2.1,-0.6 4.2,-1 6.2,-1 2.8,0 5.2,0.2 7.2,0.6 2.1,0.4 3.9,1.2 5.6,2.4 1.7,1.2 2.9,2.9 3.8,4.9 0.9,2.1 1.3,4.8 1.3,8.1 0,4.7 -0.1,8.9 -0.1,12.5 -0.1,3.6 -0.1,7.6 -0.1,11.9 0,1.3 0.2,2.3 0.7,3.1 0.4,0.8 1.1,1.4 2,1.9 0.5,0.3 1.3,0.5 2.3,0.5 1.1,0 2.2,0.1 3.3,0.1 z m -17.2,-26 c -2.8,0.8 -5.2,1.6 -7.3,2.4 -2.1,0.8 -4.1,1.8 -5.9,3 -1.6,1.1 -2.9,2.4 -3.9,4 -0.9,1.5 -1.4,3.3 -1.4,5.4 0,2.7 0.7,4.7 2.1,6 1.4,1.3 3.2,1.9 5.4,1.9 2.3,0 4.4,-0.6 6.2,-1.7 1.8,-1.1 3.3,-2.5 4.5,-4 z"
           inkscape:connector-curvature="0"
           style="fill:#ff0000" /><path
           id="path6721"
           d="m 200.3,-539.5 c 1.3,1.2 2.4,2.5 3.1,4.1 0.7,1.5 1.1,3.4 1.1,5.7 0,4.5 -1.7,8.2 -5,11 -3.4,2.9 -7.7,4.3 -13.1,4.3 -2.8,0 -5.4,-0.5 -7.8,-1.5 -2.4,-1 -4.1,-2 -5.1,-2.8 l -1,3.2 h -3.7 l -0.5,-16.9 h 3.4 c 0.3,1.3 0.8,2.8 1.7,4.5 0.9,1.7 1.9,3.2 3.1,4.6 1.3,1.4 2.8,2.7 4.6,3.6 1.8,1 3.8,1.5 6,1.5 3.2,0 5.6,-0.7 7.3,-2.1 1.7,-1.4 2.6,-3.5 2.6,-6.1 0,-1.4 -0.3,-2.6 -0.8,-3.6 -0.5,-1 -1.3,-1.9 -2.4,-2.6 -1.1,-0.8 -2.4,-1.4 -4,-2 -1.6,-0.6 -3.3,-1.2 -5.3,-1.8 -1.5,-0.5 -3.3,-1.1 -5.1,-1.9 -1.9,-0.8 -3.5,-1.8 -4.9,-2.8 -1.4,-1.1 -2.6,-2.6 -3.5,-4.2 -0.9,-1.7 -1.4,-3.6 -1.4,-5.9 0,-4 1.5,-7.3 4.4,-10.1 3,-2.8 6.9,-4.1 11.9,-4.1 1.9,0 3.8,0.2 5.8,0.7 2,0.5 3.6,1.1 4.9,1.8 l 1.1,-2.6 h 3.5 l 0.7,15.6 h -3.4 c -0.7,-3.5 -2.2,-6.3 -4.5,-8.5 -2.3,-2.2 -5.1,-3.3 -8.4,-3.3 -2.7,0 -4.8,0.7 -6.4,2 -1.5,1.4 -2.3,3 -2.3,4.9 0,1.5 0.3,2.7 0.8,3.7 0.5,1 1.3,1.8 2.3,2.5 1,0.7 2.2,1.3 3.7,1.8 1.5,0.6 3.3,1.2 5.5,1.9 2.2,0.7 4.2,1.5 6.1,2.4 2.2,0.8 3.8,1.9 5,3 z"
           inkscape:connector-curvature="0"
           style="fill:#ff0000" /><path
           id="path6723"
           d="m 231.3,-517.9 c -2.1,0.9 -4.2,1.6 -6.1,2.2 -1.9,0.6 -4.2,0.9 -7,0.9 -4.1,0 -6.9,-1 -8.6,-3.1 -1.7,-2.1 -2.5,-5 -2.5,-8.7 v -32.9 h -8.8 v -4.7 h 9 v -15.1 h 9 v 15.1 h 13.9 v 4.7 h -13.8 v 27.1 c 0,2 0.1,3.7 0.2,5.1 0.1,1.4 0.5,2.6 1.1,3.6 0.5,1 1.3,1.7 2.4,2.2 1.1,0.5 2.5,0.7 4.2,0.7 0.8,0 2,-0.1 3.6,-0.2 1.6,-0.1 2.7,-0.3 3.4,-0.6 z"
           inkscape:connector-curvature="0"
           style="fill:#ff0000" /><path
           id="path6725"
           d="m 268.9,-527.2 c -2,3.9 -4.8,7 -8.2,9.3 -3.4,2.3 -7.3,3.4 -11.8,3.4 -3.9,0 -7.3,-0.7 -10.3,-2.1 -2.9,-1.4 -5.4,-3.3 -7.3,-5.6 -1.9,-2.4 -3.3,-5.1 -4.3,-8.3 -0.9,-3.2 -1.4,-6.5 -1.4,-10 0,-3.2 0.5,-6.2 1.5,-9.3 1,-3 2.5,-5.8 4.4,-8.2 1.9,-2.3 4.2,-4.2 7,-5.6 2.8,-1.4 5.9,-2.1 9.3,-2.1 3.5,0 6.6,0.6 9.1,1.7 2.5,1.1 4.6,2.6 6.2,4.6 1.5,1.8 2.6,4 3.4,6.5 0.7,2.5 1.1,5.2 1.1,8.1 v 3.3 h -32.2 c 0,3.2 0.3,6.1 0.9,8.7 0.6,2.6 1.6,4.9 2.9,6.8 1.3,1.9 3,3.4 5,4.5 2.1,1.1 4.5,1.6 7.4,1.6 2.9,0 5.4,-0.7 7.6,-2 2.1,-1.4 4.2,-3.8 6.1,-7.4 z M 258,-545.7 c 0,-1.8 -0.2,-3.8 -0.5,-5.9 -0.3,-2.1 -0.8,-3.9 -1.5,-5.3 -0.8,-1.5 -1.8,-2.7 -3.1,-3.7 -1.3,-0.9 -3,-1.4 -5.1,-1.4 -3.4,0 -6.3,1.4 -8.6,4.3 -2.3,2.9 -3.5,6.9 -3.7,12 z"
           inkscape:connector-curvature="0"
           style="fill:#ff0000" /><path
           id="path6727"
           d="m 301.3,-558 c 0,1.7 -0.4,3.2 -1.2,4.5 -0.8,1.3 -2.1,1.9 -3.8,1.9 -1.8,0 -3.2,-0.5 -4.2,-1.4 -1,-0.9 -1.5,-2 -1.5,-3.1 0,-0.7 0.1,-1.4 0.2,-2 0.1,-0.6 0.2,-1.2 0.3,-1.8 -1.5,0 -3.4,0.6 -5.4,1.9 -2.1,1.3 -3.8,3 -5.3,5.3 v 28.3 c 0,1.2 0.2,2.1 0.7,2.8 0.4,0.7 1.1,1.3 2.1,1.6 0.8,0.3 1.9,0.6 3.2,0.7 1.3,0.2 2.4,0.3 3.4,0.3 v 3.3 h -25.6 v -3.3 c 0.8,-0.1 1.5,-0.1 2.3,-0.2 0.8,-0.1 1.5,-0.2 2.1,-0.4 0.9,-0.3 1.6,-0.8 2,-1.5 0.4,-0.7 0.7,-1.7 0.7,-2.9 v -30 c 0,-1 -0.2,-2 -0.7,-3 -0.5,-1 -1.1,-1.8 -2,-2.4 -0.6,-0.4 -1.4,-0.7 -2.2,-0.9 -0.9,-0.2 -1.8,-0.3 -2.8,-0.4 v -3.2 l 16.2,-1.1 0.7,0.7 v 6.8 h 0.2 c 2,-2.7 4.3,-4.7 6.8,-6.1 2.5,-1.4 4.8,-2.1 6.8,-2.1 2.1,0 3.8,0.7 5,2 1.3,1.6 2,3.4 2,5.7 z"
           inkscape:connector-curvature="0"
           style="fill:#ff0000" /><path
           id="path6729"
           d="m 353.7,-547.8 c 1.5,1.6 2.6,3.4 3.3,5.4 0.7,2 1.1,4.2 1.1,6.8 0,6.2 -2.3,11.3 -6.8,15.3 -4.6,4 -10.2,6 -17,6 -3.1,0 -6.2,-0.5 -9.4,-1.5 -3.1,-1 -5.8,-2.1 -8.1,-3.5 l -2.1,3.6 h -3.9 l -0.7,-23.9 h 4 c 0.8,3 1.8,5.6 2.9,8 1.1,2.4 2.6,4.6 4.4,6.7 1.7,1.9 3.7,3.5 6,4.6 2.3,1.2 4.9,1.7 8,1.7 2.3,0 4.2,-0.3 5.9,-0.9 1.7,-0.6 3.1,-1.4 4.1,-2.5 1,-1.1 1.8,-2.4 2.3,-3.8 0.5,-1.5 0.8,-3.1 0.8,-5 0,-2.8 -0.8,-5.4 -2.4,-7.8 -1.6,-2.4 -3.9,-4.2 -7,-5.5 -2.1,-0.9 -4.6,-1.8 -7.3,-2.8 -2.8,-1 -5.1,-2 -7.1,-2.9 -3.9,-1.8 -7,-4.1 -9.2,-7 -2.2,-2.9 -3.3,-6.6 -3.3,-11.3 0,-2.7 0.5,-5.1 1.6,-7.4 1.1,-2.3 2.6,-4.4 4.6,-6.2 1.9,-1.7 4.2,-3 6.7,-4 2.6,-1 5.3,-1.5 8.1,-1.5 3.2,0 6.1,0.5 8.6,1.5 2.5,1 4.9,2.1 7,3.4 l 2,-3.3 h 3.9 l 0.4,23.2 h -4 c -0.7,-2.7 -1.5,-5.2 -2.4,-7.6 -0.9,-2.4 -2.1,-4.6 -3.5,-6.6 -1.4,-1.9 -3.1,-3.4 -5.2,-4.6 -2,-1.1 -4.5,-1.7 -7.5,-1.7 -3.1,0 -5.8,1 -8,3 -2.2,2 -3.3,4.5 -3.3,7.3 0,3 0.7,5.5 2.1,7.5 1.4,2 3.5,3.6 6.2,4.9 2.4,1.2 4.8,2.1 7.1,3 2.3,0.8 4.6,1.7 6.7,2.7 2,0.9 3.9,1.8 5.7,2.9 1.8,1.1 3.4,2.4 4.7,3.8 z"
           inkscape:connector-curvature="0"
           style="fill:#ff0000" /><path
           id="path6731"
           d="m 351.4,-499.9 c 0,-1.6 0.4,-3 1.4,-4 0.9,-1 2,-1.6 3.4,-1.6 1,0 2,0.2 2.7,0.6 0.8,0.4 1.4,0.9 2,1.5 0.5,0.5 1,1.2 1.6,2 0.6,0.9 1,1.6 1.3,2.1 1.6,-0.9 3.6,-3.2 5.9,-6.9 2.3,-3.7 3.9,-7 4.9,-9.9 -3.1,-7.8 -5.9,-14.7 -8.5,-20.9 -2.5,-6.1 -5.2,-12.5 -7.9,-19.1 -0.6,-1.5 -1.7,-2.7 -3.2,-3.5 -1.5,-0.8 -3,-1.4 -4.4,-1.6 v -3.3 h 22.2 v 3.4 c -1,0 -2.2,0.2 -3.5,0.6 -1.4,0.4 -2.1,0.8 -2.1,1.3 0,0.2 0.1,0.5 0.2,1 0.1,0.5 0.3,0.9 0.5,1.4 1.2,3.3 3.1,7.9 5.7,14.1 2.6,6.1 4.5,11 6,14.7 1.5,-3.5 3,-7.1 4.6,-10.9 1.6,-3.8 3.4,-8.2 5.3,-13.3 0.2,-0.6 0.6,-1.5 1,-2.6 0.4,-1.1 0.6,-2 0.6,-2.8 0,-0.9 -0.7,-1.7 -2.2,-2.4 -1.5,-0.7 -2.9,-1.2 -4.3,-1.4 v -3.2 h 18 v 3.1 c -1,0.2 -2.3,0.7 -3.9,1.7 -1.6,1 -2.8,2.3 -3.6,4.1 -3.9,9.1 -7.4,17.3 -10.4,24.8 -3,7.5 -5.3,12.9 -6.9,16.4 -2.1,4.6 -3.9,8.2 -5.5,10.8 -1.6,2.6 -3.2,4.6 -4.8,6.1 -1.5,1.4 -2.9,2.3 -4.1,2.8 -1.2,0.5 -2.5,0.7 -3.8,0.7 -2.6,0 -4.6,-0.6 -6,-1.8 -1.5,-1 -2.2,-2.4 -2.2,-4 z"
           inkscape:connector-curvature="0"
           style="fill:#ff0000" /><path
           id="path6733"
           d="m 426.3,-539.5 c 1.3,1.2 2.4,2.5 3.1,4.1 0.7,1.5 1.1,3.4 1.1,5.7 0,4.5 -1.7,8.2 -5,11 -3.4,2.9 -7.7,4.3 -13.1,4.3 -2.8,0 -5.4,-0.5 -7.8,-1.5 -2.4,-1 -4.1,-2 -5.1,-2.8 l -1,3.2 h -3.7 l -0.5,-16.9 h 3.4 c 0.3,1.3 0.8,2.8 1.7,4.5 0.9,1.7 1.9,3.2 3.1,4.6 1.3,1.4 2.8,2.7 4.6,3.6 1.8,1 3.8,1.5 6,1.5 3.1,0 5.6,-0.7 7.3,-2.1 1.7,-1.4 2.6,-3.5 2.6,-6.1 0,-1.4 -0.3,-2.6 -0.8,-3.6 -0.5,-1 -1.3,-1.9 -2.4,-2.6 -1.1,-0.8 -2.4,-1.4 -4,-2 -1.6,-0.6 -3.3,-1.2 -5.3,-1.8 -1.5,-0.5 -3.3,-1.1 -5.1,-1.9 -1.9,-0.8 -3.5,-1.8 -4.9,-2.8 -1.4,-1.1 -2.6,-2.6 -3.5,-4.2 -0.9,-1.7 -1.4,-3.6 -1.4,-5.9 0,-4 1.5,-7.3 4.4,-10.1 3,-2.8 6.9,-4.1 11.9,-4.1 1.9,0 3.9,0.2 5.8,0.7 2,0.5 3.6,1.1 4.9,1.8 l 1.1,-2.6 h 3.5 l 0.7,15.6 h -3.4 c -0.7,-3.5 -2.2,-6.3 -4.5,-8.5 -2.3,-2.2 -5.1,-3.3 -8.4,-3.3 -2.7,0 -4.8,0.7 -6.4,2 -1.5,1.4 -2.3,3 -2.3,4.9 0,1.5 0.3,2.7 0.8,3.7 0.5,1 1.3,1.8 2.3,2.5 1,0.7 2.2,1.3 3.7,1.8 1.5,0.6 3.3,1.2 5.5,1.9 2.2,0.7 4.2,1.5 6.1,2.4 2.2,0.8 3.7,1.9 5,3 z"
           inkscape:connector-curvature="0"
           style="fill:#ff0000" /><path
           id="path6735"
           d="m 457.3,-517.9 c -2.1,0.9 -4.2,1.6 -6.1,2.2 -1.9,0.6 -4.2,0.9 -7,0.9 -4.1,0 -6.9,-1 -8.6,-3.1 -1.7,-2.1 -2.5,-5 -2.5,-8.7 v -32.9 h -8.8 v -4.7 h 9 v -15.1 h 9 v 15.1 h 13.9 v 4.7 h -13.8 v 27.1 c 0,2 0.1,3.7 0.2,5.1 0.1,1.4 0.5,2.6 1.1,3.6 0.5,1 1.3,1.7 2.4,2.2 1.1,0.5 2.5,0.7 4.2,0.7 0.8,0 2,-0.1 3.6,-0.2 1.6,-0.1 2.7,-0.3 3.4,-0.6 z"
           inkscape:connector-curvature="0"
           style="fill:#ff0000" /><path
           id="path6737"
           d="m 494.8,-527.2 c -2,3.9 -4.8,7 -8.2,9.3 -3.4,2.3 -7.3,3.4 -11.8,3.4 -3.9,0 -7.3,-0.7 -10.3,-2.1 -2.9,-1.4 -5.4,-3.3 -7.3,-5.6 -1.9,-2.4 -3.3,-5.1 -4.3,-8.3 -0.9,-3.2 -1.4,-6.5 -1.4,-10 0,-3.2 0.5,-6.2 1.5,-9.3 1,-3 2.5,-5.8 4.4,-8.2 1.9,-2.3 4.2,-4.2 7,-5.6 2.8,-1.4 5.9,-2.1 9.3,-2.1 3.5,0 6.6,0.6 9.1,1.7 2.5,1.1 4.6,2.6 6.2,4.6 1.5,1.8 2.6,4 3.4,6.5 0.7,2.5 1.1,5.2 1.1,8.1 v 3.3 h -32.2 c 0,3.2 0.3,6.1 0.9,8.7 0.6,2.6 1.6,4.9 2.9,6.8 1.3,1.9 3,3.4 5,4.5 2.1,1.1 4.5,1.6 7.4,1.6 2.9,0 5.4,-0.7 7.6,-2 2.1,-1.4 4.2,-3.8 6.1,-7.4 z M 484,-545.7 c 0,-1.8 -0.2,-3.8 -0.5,-5.9 -0.3,-2.1 -0.8,-3.9 -1.5,-5.3 -0.8,-1.5 -1.8,-2.7 -3.1,-3.7 -1.3,-0.9 -3,-1.4 -5.1,-1.4 -3.4,0 -6.3,1.4 -8.6,4.3 -2.3,2.9 -3.5,6.9 -3.7,12 z"
           inkscape:connector-curvature="0"
           style="fill:#ff0000" /><path
           id="path6739"
           d="m 573.3,-515.7 h -23.7 v -3.3 c 0.8,-0.1 1.5,-0.1 2.3,-0.2 0.8,-0.1 1.4,-0.2 2,-0.4 0.9,-0.3 1.6,-0.8 2,-1.6 0.4,-0.7 0.7,-1.7 0.7,-2.9 v -25.1 c 0,-3.4 -0.8,-6 -2.3,-7.9 -1.6,-1.9 -3.5,-2.8 -5.8,-2.8 -1.6,0 -3.1,0.2 -4.5,0.7 -1.4,0.5 -2.7,1.2 -3.9,2.1 -1,0.7 -1.8,1.5 -2.4,2.3 -0.6,0.8 -1.1,1.5 -1.5,2.1 v 28 c 0,1.2 0.2,2.1 0.6,2.8 0.4,0.7 1.1,1.3 2,1.7 0.8,0.3 1.4,0.5 2,0.7 0.6,0.1 1.4,0.3 2.4,0.3 v 3.3 H 520 v -3.3 c 0.8,-0.1 1.5,-0.1 2.2,-0.2 0.7,-0.1 1.4,-0.2 1.9,-0.4 0.9,-0.3 1.6,-0.8 2,-1.5 0.4,-0.7 0.7,-1.7 0.7,-2.9 v -25.1 c 0,-3.4 -0.8,-6 -2.3,-7.9 -1.6,-1.9 -3.5,-2.8 -5.8,-2.8 -1.6,0 -3.1,0.3 -4.5,0.8 -1.4,0.5 -2.7,1.2 -3.9,2.1 -1,0.7 -1.8,1.5 -2.4,2.4 -0.7,0.9 -1.1,1.6 -1.5,2 v 27.8 c 0,1.1 0.2,2.1 0.7,2.8 0.5,0.8 1.1,1.3 2.1,1.7 0.7,0.3 1.4,0.6 2.1,0.7 0.7,0.2 1.5,0.3 2.4,0.3 v 3.3 h -23.6 v -3.3 c 0.8,-0.1 1.5,-0.1 2.3,-0.2 0.8,-0.1 1.5,-0.2 2.1,-0.4 0.9,-0.3 1.6,-0.8 2,-1.6 0.4,-0.7 0.7,-1.7 0.7,-2.9 v -30.2 c 0,-1 -0.2,-2 -0.7,-2.8 -0.5,-0.8 -1.1,-1.6 -2,-2.1 -0.6,-0.4 -1.4,-0.7 -2.3,-1 -0.9,-0.2 -1.9,-0.4 -2.9,-0.5 v -3.2 l 16.3,-1.1 0.7,0.7 v 6.9 h 0.3 c 0.8,-0.8 1.8,-1.8 3,-2.9 1.2,-1.1 2.3,-2 3.3,-2.7 1.1,-0.8 2.6,-1.4 4.3,-2 1.7,-0.5 3.6,-0.8 5.6,-0.8 3.2,0 5.9,0.8 8.1,2.5 2.3,1.7 3.9,3.7 4.9,6.1 1.2,-1.1 2.2,-2.2 3.1,-3 0.9,-0.9 2.1,-1.8 3.6,-2.8 1.3,-0.9 2.7,-1.5 4.4,-2.1 1.7,-0.5 3.6,-0.8 5.6,-0.8 4.1,0 7.4,1.4 9.8,4 2.4,2.7 3.6,6.8 3.6,12.4 v 24.7 c 0,1.2 0.2,2.1 0.6,2.8 0.4,0.7 1.1,1.3 2,1.7 0.8,0.3 1.5,0.5 2.2,0.7 0.7,0.1 1.6,0.3 2.5,0.3 l 0.1,4 z"
           inkscape:connector-curvature="0"
           style="fill:#ff0000" /></g><g
         id="text6704"
         transform="scale(1.0267638,0.97393384)"><path
           id="path6742"
           d="m 594.6,410.6 h -6.3 v -1 c 0.2,0 0.5,0 0.8,-0.1 0.4,0 0.6,-0.1 0.7,-0.1 0.2,-0.1 0.3,-0.2 0.4,-0.3 0.1,-0.1 0.1,-0.2 0.1,-0.4 v -8.3 H 590 l -4.5,9.7 H 585 l -4.3,-9.9 h -0.3 v 6.7 c 0,0.6 0,1.1 0.1,1.5 0.1,0.3 0.2,0.6 0.4,0.8 0.2,0.1 0.4,0.2 0.8,0.3 0.4,0.1 0.7,0.2 1,0.2 v 1 h -5.8 v -0.9 c 0.2,0 0.5,-0.1 0.9,-0.1 0.4,-0.1 0.7,-0.1 0.9,-0.3 0.2,-0.2 0.3,-0.4 0.4,-0.7 0.1,-0.3 0.1,-0.8 0.1,-1.6 v -6.4 c 0,-0.3 0,-0.5 -0.1,-0.7 -0.1,-0.2 -0.2,-0.4 -0.4,-0.5 -0.2,-0.1 -0.4,-0.3 -0.7,-0.3 -0.3,-0.1 -0.6,-0.1 -0.9,-0.1 V 398 h 5.1 l 3.9,8.7 3.2,-7.1 c 0.1,-0.3 0.2,-0.6 0.3,-0.9 0.1,-0.3 0.1,-0.5 0.2,-0.7 h 4.9 v 0.9 c -0.2,0 -0.5,0 -0.8,0.1 -0.3,0 -0.6,0.1 -0.7,0.1 -0.2,0 -0.3,0.1 -0.3,0.3 0,0.1 -0.1,0.3 -0.1,0.4 v 8.9 c 0,0.2 0,0.3 0.1,0.4 0,0.1 0.2,0.2 0.3,0.3 0.1,0 0.3,0.1 0.6,0.1 0.3,0.1 0.6,0.1 0.9,0.1 z m -19.8,-9 h -0.9 c -0.1,-0.4 -0.4,-0.9 -0.7,-1.5 -0.4,-0.6 -0.7,-0.9 -1.1,-1 -0.3,0 -0.5,0 -0.8,-0.1 -0.3,0 -0.5,0 -0.6,0 h -0.9 v 9.6 c 0,0.2 0,0.3 0.1,0.4 0.1,0.1 0.2,0.2 0.4,0.3 0.1,0 0.3,0.1 0.7,0.2 0.3,0.1 0.6,0.1 0.9,0.1 v 1 h -6.5 v -1 c 0.2,0 0.5,0 0.9,-0.1 0.4,0 0.6,-0.1 0.7,-0.1 0.2,-0.1 0.3,-0.2 0.4,-0.3 0.1,-0.1 0.1,-0.3 0.1,-0.4 V 399 h -0.9 c -0.2,0 -0.4,0 -0.7,0 -0.3,0 -0.5,0 -0.7,0 -0.4,0.1 -0.8,0.4 -1.1,1 -0.4,0.6 -0.6,1.1 -0.7,1.5 h -0.9 V 398 H 575 Z"
           inkscape:connector-curvature="0"
           style="fill:#ff0000" /></g></g></g></svg>