<?xml version="1.0" encoding="UTF-8" standalone="no"?>
<!-- Generator: Adobe Illustrator 16.0.3, SVG Export Plug-In . SVG Version: 6.00 Build 0)  -->

<svg
   xmlns:dc="http://purl.org/dc/elements/1.1/"
   xmlns:cc="http://creativecommons.org/ns#"
   xmlns:rdf="http://www.w3.org/1999/02/22-rdf-syntax-ns#"
   xmlns:svg="http://www.w3.org/2000/svg"
   xmlns="http://www.w3.org/2000/svg"
   xmlns:sodipodi="http://sodipodi.sourceforge.net/DTD/sodipodi-0.dtd"
   xmlns:inkscape="http://www.inkscape.org/namespaces/inkscape"
   version="1.1"
   id="Ebene_2"
   x="0px"
   y="0px"
   width="566.93005"
   height="49.075218"
   viewBox="0 0 566.93006 49.075216"
   enable-background="new 0 0 566.93 65.438"
   xml:space="preserve"
   sodipodi:docname="logo.svg"
   inkscape:version="0.92.2 (5c3e80d, 2017-08-06)"><metadata
     id="metadata18"><rdf:RDF><cc:Work
         rdf:about=""><dc:format>image/svg+xml</dc:format><dc:type
           rdf:resource="http://purl.org/dc/dcmitype/StillImage" /><dc:title></dc:title></cc:Work></rdf:RDF></metadata><defs
     id="defs16" /><sodipodi:namedview
     pagecolor="#ffffff"
     bordercolor="#666666"
     borderopacity="1"
     objecttolerance="10"
     gridtolerance="10"
     guidetolerance="10"
     inkscape:pageopacity="0"
     inkscape:pageshadow="2"
     inkscape:window-width="1920"
     inkscape:window-height="1017"
     id="namedview14"
     showgrid="false"
     fit-margin-top="0"
     fit-margin-left="0"
     fit-margin-right="0"
     fit-margin-bottom="0"
     inkscape:zoom="0.61559629"
     inkscape:cx="283.46528"
     inkscape:cy="32.713302"
     inkscape:window-x="-8"
     inkscape:window-y="-8"
     inkscape:window-maximized="1"
     inkscape:current-layer="Ebene_2" /><path
     id="path5256"
     d="m 437.04728,19.770241 c -1.192,-2.709 -4.341,-5.28675 -4.341,-5.28675 0,0 -4.731,-4.6094997 -14.024,-6.1814997 -7.956,-1.248 -14.208,1.38375 -14.208,1.38375 0,0 -5.677,1.7062497 -9.943,5.2334997 -6.796,4.9065 -8.749,12.066 -8.749,12.066 0,0 -2.604,6.2355 1.521,11.172 l 4.482,4.0665 c 6.326,3.95925 13.087,4.36425 13.087,4.36425 0,0 5.46,0.92175 11.824,-0.3255 5.563,-0.8415 9.614,-2.90175 9.614,-2.90175 0,0 9.222,-3.82275 11.749,-11.63175 z m -14.357,12.98775 c 0,0 -3.686,4.82775 -11.782,4.25625 -9.51,-0.73125 -10.628,-6.99375 -10.628,-6.99375 0,0 -1.305,-4.6095 4.553,-8.6235 5.931,-3.74025 12.113,-3.17175 12.113,-3.17175 0,0 4.154,0.29775 6.292,5.451 2.744,6.56025 -0.548,9.08175 -0.548,9.08175"
     inkscape:connector-curvature="0"
     style="fill:#2d288b;stroke-width:0.86602539" /><path
     id="path5262"
     d="m 467.77328,32.841241 c -3.044,-0.504 -7.917,0.43125 -7.917,0.43125 0,0 -6.796,1.86975 -7.845,1.8435 -0.396,-0.43275 -1.263,-8.75775 -1.012,-12.09225 0.146,-5.8845 -0.509,-10.68225 -0.509,-10.68225 0,0 -0.323,-5.6684997 -4.373,-9.0292497 -4.771,-3.60824996 -8.101,-2.06025 -10.016,-1.19475 -4.591,3.0915 -2.457,6.8595 -2.457,6.8595 l 2.389,5.0714997 c 0,0 1.155,2.1705 1.012,5.721 l 1.012,11.958 c 0,1.59975 1.737,12.363 1.737,12.363 0,0 0.176,3.49875 4.661,4.122 4.593,0.56925 9.109,-1.14 11.025,-1.81725 1.917,-0.67575 4.447,-1.27275 4.447,-1.27275 0,0 2.098,-0.35325 4.194,-0.4875 4.916,-0.354 6.688,-1.0035 6.688,-1.0035 0,0 1.901,-0.2145 3.184,-1.57425 1.278,-1.3575 2.826,-7.7265 -6.22,-9.216"
     inkscape:connector-curvature="0"
     style="fill:#639d01;stroke-width:0.86602539" /><path
     id="path5264"
     d="m 387.30028,38.154991 c -3.229,-0.72675 -6.938,-0.24525 -6.938,-0.24525 0,0 -10.485,0.75825 -15.945,-0.1095 -8.457,-1.11 -8.174,-7.944 -8.174,-7.944 0,0 -0.283,-4.52925 4.813,-10.656 6.289,-7.566 13.23,-8.92125 13.23,-8.92125 0,0 1.733,-0.4867497 3.36,0.16275 1.013,4.3905 6.688,4.3635 6.688,4.3635 0,0 8.171,0.40875 7.771,-7.0192497 -0.938,-6.1035 -8.782,-6.94274996 -12.074,-7.51349996 -9.864,-1.32825004 -16.269,2.63099996 -16.269,2.63099996 0,0 -6.614,2.6835 -14.531,12.0382497 -5.391,5.80125 -6.04,10.35825 -6.04,10.35825 0,0 -0.649,1.0845 -0.396,5.91225 -0.145,3.76725 1.737,6.507 1.737,6.507 0,0 2.854,6.48375 11.891,9.14025 5.497,1.707 13.525,1.68075 13.525,1.68075 0,0 7.771,-0.081 13.733,-0.32625 3.255,0.189 4.812,-1.08525 4.812,-1.08525 0,0 3.648,-1.78875 3.289,-4.90725 0,0 -0.708,-3.22125 -4.482,-4.0665"
     inkscape:connector-curvature="0"
     style="fill:#94012c;stroke-width:0.86602539" /><path
     id="path5266"
     d="m 152.78828,46.866991 h -11.956 l -1.598,-27.009 -15.545,27.009 h -7.975 l -6.642,-24.41775 -10.366999,24.41775 h -20.331 l -3.057,-13.05225 h -13.822 l -7.84,13.05225 h -12.495 l 25.652,-43.6499997 h 14.749 l 7.839,35.2799997 15.284999,-35.2807497 h 11.823 l 5.848,23.9197497 13.56,-23.9197497 h 14.351 z m -79.272999,-21.53025 -2.189,-8.4675 -5.049,8.4675 h 7.238"
     inkscape:connector-curvature="0"
     style="fill:#2e3192;stroke-width:0.86602539" /><path
     id="path5268"
     d="m 187.07228,46.866991 1.998,-9.366 h -20.866 l 1.654,-7.77375 h 18.148 l 1.994,-9.37125 h -18.341 l 1.594,-7.7745 h 20.861 l 1.995,-9.3644997 h -33.087 l -9.305,43.6499997 h 33.355"
     inkscape:connector-curvature="0"
     style="fill:#2e3192;stroke-width:0.86602539" /><path
     id="path5270"
     d="m 342.41928,3.2162413 h -13.954 l -11.827,14.2499997 -7.438,-14.2499997 h -13.688 l 14.084,23.0189997 -4.339,20.631 h 11.963 l 3.671,-18.23625 21.528,-25.4137497"
     inkscape:connector-curvature="0"
     style="fill:#2e3192;stroke-width:0.86602539" /><path
     id="path5272"
     d="m 253.30628,21.287491 c 3.714,-12.0697497 17.469,-19.9904997 30.717,-17.6932497 13.256,2.29725 20.989,13.9394997 17.278,26.0092497 -3.714,12.06675 -17.467,19.989 -30.721,17.69175 -13.253,-2.29725 -20.985,-13.9425 -17.274,-26.00775 z m 18.099,17.26725 c 6.327,2.1225 14.078,-2.04075 17.302,-9.2985 3.223,-7.26375 0.714,-14.871 -5.614,-16.99425 -6.328,-2.124 -14.069,2.0415 -17.298,9.303 -3.227,7.26225 -0.713,14.86575 5.61,16.98975"
     inkscape:connector-curvature="0"
     style="fill:#2e3192;stroke-width:0.86602539" /><path
     id="path5276"
     d="m 224.59528,12.658741 c 0,0 0.265,0 7.786,0 8.439,0 6.727,8.109 -1.316,8.109 -6.596,0 -8.313,0 -8.313,0 z m -3.689,17.00925 c 0,0 2.505,0 10.021,0 9.499,0 9.233,8.70375 -1.317,8.70375 -6.59,0 -10.55,0 -10.55,0 z m -6.595,-26.2117497 -9.229,43.3252497 c 0,0 19.122,0 26.903,0 11.076,0 27.276,-12.2445 12.531,-22.254 15.162,-11.769 0.126,-20.9662497 -7.916,-21.0712497 -6.461,-0.078 -22.416,0 -22.416,0 h 0.127"
     inkscape:connector-curvature="0"
     style="fill:#2e3192;stroke-width:0.86602539" /><path
     id="path5274"
     d="M 15.648281,7.1019913 C 4.2522806,12.391741 -1.2277194,20.454241 0.23128063,31.418491 c 1.69699997,12.71775 23.65600037,20.73 42.25900037,12.65925 1.629,-0.705 0.992,-0.594 1.595,-0.99825 l 3.723,-17.742 h -22.194 l -1.702,8.17275 h 9.276 l -1.065,4.3875 c -5.314,1.59375 -14.352,0.99525 -18.204,-4.1865 -2.44,-3.282 -4.7030004,-10.6065 5.583,-17.343 8.369,-5.48175 22.856,-6.4747497 31.23,-3.585 0,0 1.062,-4.5832497 1.857,-8.8717497 -16.078,-4.18499996 -28.571,-0.69525 -36.941,3.1905"
     inkscape:connector-curvature="0"
     style="fill:#2e3192;stroke-width:0.86602539" /><path
     id="path5258"
     d="m 518.64228,18.333241 c -6.325,-7.75425 -17.46,-8.9204997 -17.46,-8.9204997 0,0 -3.543,-0.8955 -11.133,-0.13725 -14.246,2.0347497 -19.2,10.2502497 -19.2,10.2502497 0,0 -5.099,6.018 -3.074,13.3125 l 6.224,9.219 c 4.59,3.2265 6.469,3.2265 6.757,3.4185 6.076,2.06025 13.125,0.867 13.125,0.867 0,0 8.895,-0.65025 17.029,-5.3955 6.506,-3.57825 9.326,-8.8395 9.326,-8.8395 l 0.863,-7.0575 z m -17.316,15.83475 c -10.231,4.6095 -16.668,-0.43425 -16.668,-0.43425 0,0 -2.855,-1.41 -3.47,-5.69475 -0.438,-4.96125 6.146,-7.5375 6.146,-7.5375 0,0 3.471,-1.6005 7.81,-1.356 4.339,0.243 5.708,0.02625 9.219,1.98 3.324,2.2515 3.107,3.9045 3.107,3.9045 0,0 1.195,5.58675 -6.144,9.138"
     inkscape:connector-curvature="0"
     style="fill:#c8a601;stroke-width:0.86602539" /><path
     id="path5260"
     d="m 520.23428,32.107741 c 0,0 0.218,4.33725 -0.688,5.3955 -1.229,1.97925 -1.047,3.9045 -1.047,3.9045 0,0 -0.835,5.85675 8.209,6.83025 6.214,-0.02625 6.971,-3.9045 7.081,-5.55825 0.36,-1.299 0.217,-7.3485 0.217,-7.3485 l 8.063,4.93575 c 0,0 5.856,3.68775 9.295,5.829 3.581,2.1135 4.479,2.49375 4.479,2.49375 0,0 0.763,0.67575 3.506,0.43275 2.211,0.0285 4.234,-1.464 4.234,-1.464 0,0 2.563,-1.40625 3.214,-3.87525 0.795,-2.92875 -2.24,-4.36575 -2.24,-4.36575 0,0 -11.205,-6.77925 -18.798,-11.4435 5.097,-2.08725 7.556,-3.52425 7.556,-3.52425 0,0 7.088,-3.5235 8.604,-8.922 2.099,-5.9384997 -3.867,-8.2679997 -3.867,-8.2679997 0,0 -3.726,-2.007 -6.87,-3.06525 -7.92,-2.901 -15.293,-2.30475 -15.293,-2.30475 0,0 -10.483,-0.5415 -17.316,5.77725 -3.144,3.0622497 -1.19,7.0769997 -1.19,7.0769997 0,0 0.388,0.64275 1.263,3.687 1.753,6.12525 1.588,13.77675 1.588,13.77675 z m 13.738,-12.03975 -0.688,-7.07625 c 0,0 6.614,-0.1095 9.363,0.243 5.426,0.62325 5.134,1.764 5.134,1.764 0,0 -0.181,1.43625 -4.303,2.847 -4.48,1.6275 -9.506,2.22225 -9.506,2.22225"
     inkscape:connector-curvature="0"
     style="fill:#00766a;stroke-width:0.86602539" /></svg>