<?xml version="1.0" encoding="UTF-8" standalone="no"?>
<!-- Generator: Adobe Illustrator 13.0.0, SVG Export Plug-In . SVG Version: 6.00 Build 14948)  -->

<svg
   xmlns:dc="http://purl.org/dc/elements/1.1/"
   xmlns:cc="http://creativecommons.org/ns#"
   xmlns:rdf="http://www.w3.org/1999/02/22-rdf-syntax-ns#"
   xmlns:svg="http://www.w3.org/2000/svg"
   xmlns="http://www.w3.org/2000/svg"
   xmlns:sodipodi="http://sodipodi.sourceforge.net/DTD/sodipodi-0.dtd"
   xmlns:inkscape="http://www.inkscape.org/namespaces/inkscape"
   version="1.2"
   id="Ebene_1"
   x="0px"
   y="0px"
   width="403.078"
   height="62.518501"
   viewBox="0 0 403.07799 62.518503"
   xml:space="preserve"
   inkscape:version="0.92.2 (5c3e80d, 2017-08-06)"
   sodipodi:docname="logo.svg"><metadata
     id="metadata55"><rdf:RDF><cc:Work
         rdf:about=""><dc:format>image/svg+xml</dc:format><dc:type
           rdf:resource="http://purl.org/dc/dcmitype/StillImage" /><dc:title></dc:title></cc:Work></rdf:RDF></metadata><defs
     id="defs53" /><sodipodi:namedview
     pagecolor="#ffffff"
     bordercolor="#666666"
     borderopacity="1"
     objecttolerance="10"
     gridtolerance="10"
     guidetolerance="10"
     inkscape:pageopacity="0"
     inkscape:pageshadow="2"
     inkscape:window-width="1920"
     inkscape:window-height="1017"
     id="namedview51"
     showgrid="false"
     inkscape:zoom="1.696271"
     inkscape:cx="191.83471"
     inkscape:cy="86.063589"
     inkscape:window-x="-8"
     inkscape:window-y="-8"
     inkscape:window-maximized="1"
     inkscape:current-layer="g3778"
     fit-margin-top="0"
     fit-margin-left="0"
     fit-margin-right="0"
     fit-margin-bottom="0" /><g
     id="g3778"
     transform="translate(1.8087635e-5,-20.8395)"><path
       id="path3"
       d="M 0.56598191,60.09675 V 54.2955 H 61.130982 V 47.67525 H 0.56598191 l -0.381,-17.865 H 68.994982 v 5.7855 H 8.4289819 l 0.381,6.2955 H 69.373982 v 18.207 H 0.56598191 Z"
       inkscape:connector-curvature="0"
       style="fill:#000000;fill-opacity:1;stroke-width:0.86602539" /><path
       id="path5"
       d="m 74.356982,60.09675 v -30.1725 h 8.244 v 30.1725 z"
       inkscape:connector-curvature="0"
       style="fill:#000000;fill-opacity:1;stroke-width:0.86602539" /><path
       id="path7"
       d="m 87.025982,60.09675 v -30.1725 h 68.809998 v 30.1725 h -8.244 V 35.709 H 95.268982 v 24.39 l -8.243,-0.0022 v 0 z"
       inkscape:connector-curvature="0"
       style="fill:#000000;fill-opacity:1;stroke-width:0.86602539" /><path
       id="path9"
       d="m 160.23698,60.09675 v -30.1725 h 68.86 v 5.7855 h -60.564 v 18.5865 h 60.564 v 5.80425 h -68.86 z"
       inkscape:connector-curvature="0"
       style="fill:#000000;fill-opacity:1;stroke-width:0.86602539" /><path
       id="path11"
       d="M 234.58298,60.09675 V 20.8395 h 8.246 v 39.25875 h -8.246 z"
       inkscape:connector-curvature="0"
       style="fill:#000000;fill-opacity:1;stroke-width:0.86602539" /><path
       id="path13"
       d="m 320.99398,60.09675 v -30.1725 h 8.295 v 30.1725 z"
       inkscape:connector-curvature="0"
       style="fill:#000000;fill-opacity:1;stroke-width:0.86602539" /><path
       id="path15"
       d="m 334.27098,60.09675 v -30.1725 h 68.807 v 5.7855 h -60.563 V 60.1005 h -8.244 v -0.0037 z"
       inkscape:connector-curvature="0"
       style="fill:#000000;fill-opacity:1;stroke-width:0.86602539" /><path
       id="path17"
       d="m 247.22798,29.92425 v 5.7855 h 60.564 v 6.618 h -60.564 v 17.7705 h 68.861 v -30.174 z m 60.564,24.372 h -52.271 V 47.676 h 52.271 z"
       inkscape:connector-curvature="0"
       style="fill:#000000;fill-opacity:1;stroke-width:0.86602539" /><path
       id="path19"
       d="M 74.356982,26.64375 V 20.8395 h 8.244 v 5.80425 z"
       inkscape:connector-curvature="0"
       style="fill:#000000;fill-opacity:1;stroke-width:0.86602539" /><path
       id="path21"
       d="M 320.99398,26.64375 V 20.8395 h 8.295 v 5.80425 z"
       inkscape:connector-curvature="0"
       style="fill:#000000;fill-opacity:1;stroke-width:0.86602539" /><path
       style="fill:#bb1339;fill-opacity:1;stroke-width:0.86602539"
       id="path23"
       d="M -1.8087635e-5,81.0045 9.6879819,72.315 H 0.75998191 V 69.813 H 14.974982 v 2.352 L 5.2869819,80.8545 H 15.227982 V 83.358 H -1.8087635e-5 Z"
       inkscape:connector-curvature="0" /><path
       style="fill:#bb1339;fill-opacity:1;stroke-width:0.86602539"
       id="path25"
       d="m 21.984982,76.26225 -5.819,-6.45075 h 4.604 l 3.542,4.326 3.668,-4.326 h 4.351 l -5.792,6.46875 6.298,7.077 h -4.73 l -3.947,-4.68525 -4.022,4.68525 h -4.479 z"
       inkscape:connector-curvature="0" /><path
       d="m 48.142309,77.008238 c -0.87458,5e-6 -1.546705,0.179171 -2.016376,0.537497 -0.469684,0.358338 -0.704522,0.871541 -0.704517,1.539612 -5e-6,0.66808 0.234833,1.181284 0.704517,1.539613 0.469671,0.35226 1.141796,0.528389 2.016376,0.528388 0.866465,1e-6 1.530492,-0.176128 1.992082,-0.528388 0.461569,-0.358329 0.692359,-0.871533 0.69237,-1.539613 -1.1e-5,-0.674145 -0.230801,-1.187348 -0.69237,-1.539612 -0.46159,-0.358326 -1.125617,-0.537492 -1.992082,-0.537498 m -3.413263,-1.156986 c -1.101317,-0.249003 -1.931351,-0.631628 -2.490102,-1.147877 -0.558757,-0.516232 -0.838134,-1.160014 -0.838132,-1.931348 -2e-6,-1.147865 0.570899,-2.022437 1.712704,-2.623718 1.141799,-0.601255 2.818061,-0.901889 5.028793,-0.901903 2.194519,1.4e-5 3.862684,0.300648 5.004499,0.901903 1.141789,0.595208 1.71269,1.46978 1.712705,2.623718 -1.5e-5,0.771334 -0.283441,1.415116 -0.850279,1.931348 -0.558768,0.516249 -1.388802,0.898874 -2.490103,1.147877 1.230867,0.25509 2.158075,0.671119 2.781627,1.248088 0.631621,0.570907 0.947438,1.293644 0.947454,2.168211 -1.6e-5,1.348302 -0.599259,2.368636 -1.797733,3.061004 -1.190403,0.686298 -2.959791,1.029445 -5.30817,1.029446 -2.356494,-10e-7 -4.138029,-0.343148 -5.344611,-1.029446 -1.19849,-0.692368 -1.797734,-1.712702 -1.797732,-3.061004 -2e-6,-0.874567 0.311767,-1.597304 0.935307,-2.168211 0.631632,-0.576969 1.562889,-0.992998 2.793773,-1.248088 m 1.093216,-2.72393 c -6e-6,0.540544 0.198392,0.956573 0.595196,1.248089 0.404887,0.291532 0.979837,0.437294 1.724851,0.437286 0.728801,8e-6 1.291605,-0.145754 1.688411,-0.437286 0.396786,-0.291516 0.595185,-0.707545 0.595196,-1.248089 -1.1e-5,-0.540523 -0.19841,-0.953516 -0.595196,-1.238977 -0.396806,-0.291513 -0.95961,-0.437275 -1.688411,-0.437287 -0.745014,1.2e-5 -1.319964,0.145774 -1.724851,0.437287 -0.396804,0.291534 -0.595202,0.704526 -0.595196,1.238977"
       style="font-style:normal;font-variant:normal;font-weight:bold;font-stretch:normal;font-size:24.87673378px;line-height:125%;font-family:Sans;-inkscape-font-specification:'Sans Bold';text-align:start;letter-spacing:-3.73150992px;word-spacing:0px;writing-mode:lr-tb;text-anchor:start;fill:#bb1339;fill-opacity:1;stroke-width:0.86602539"
       id="path3824"
       inkscape:connector-curvature="0" /><path
       d="m 57.109287,80.934705 h 4.129927 v -8.791277 l -4.239248,0.655929 v -2.386854 l 4.214954,-0.65593 h 4.445745 v 11.178132 h 4.129926 V 83.358 H 57.109287 v -2.423295"
       style="font-style:normal;font-variant:normal;font-weight:bold;font-stretch:normal;font-size:24.87673378px;line-height:125%;font-family:Sans;-inkscape-font-specification:'Sans Bold';text-align:start;letter-spacing:-3.73150992px;word-spacing:0px;writing-mode:lr-tb;text-anchor:start;fill:#bb1339;fill-opacity:1;stroke-width:0.86602539"
       id="path3826"
       inkscape:connector-curvature="0" /></g></svg>