<?xml version="1.0" encoding="UTF-8" standalone="no"?>
<svg
   xmlns:dc="http://purl.org/dc/elements/1.1/"
   xmlns:cc="http://creativecommons.org/ns#"
   xmlns:rdf="http://www.w3.org/1999/02/22-rdf-syntax-ns#"
   xmlns:svg="http://www.w3.org/2000/svg"
   xmlns="http://www.w3.org/2000/svg"
   xmlns:sodipodi="http://sodipodi.sourceforge.net/DTD/sodipodi-0.dtd"
   xmlns:inkscape="http://www.inkscape.org/namespaces/inkscape"
   viewBox="0 0 413.1525 145.00612"
   height="145.00612"
   width="413.1525"
   xml:space="preserve"
   version="1.1"
   id="svg2"
   sodipodi:docname="controller.svg"
   inkscape:version="0.92.2 (5c3e80d, 2017-08-06)"><sodipodi:namedview
     pagecolor="#ffffff"
     bordercolor="#666666"
     borderopacity="1"
     objecttolerance="10"
     gridtolerance="10"
     guidetolerance="10"
     inkscape:pageopacity="0"
     inkscape:pageshadow="2"
     inkscape:window-width="1920"
     inkscape:window-height="1017"
     id="namedview54"
     showgrid="false"
     fit-margin-top="0"
     fit-margin-left="0"
     fit-margin-right="0"
     fit-margin-bottom="0"
     inkscape:zoom="1.6894488"
     inkscape:cx="176.10562"
     inkscape:cy="65.007333"
     inkscape:window-x="-8"
     inkscape:window-y="-8"
     inkscape:window-maximized="1"
     inkscape:current-layer="g14" /><metadata
     id="metadata8"><rdf:RDF><cc:Work
         rdf:about=""><dc:format>image/svg+xml</dc:format><dc:type
           rdf:resource="http://purl.org/dc/dcmitype/StillImage" /><dc:title></dc:title></cc:Work></rdf:RDF></metadata><defs
     id="defs6"><clipPath
       id="clipPath16"
       clipPathUnits="userSpaceOnUse"><path
         id="path18"
         d="M 0,154.673 H 330.522 V 0 H 0 Z"
         inkscape:connector-curvature="0" /></clipPath></defs><g
     transform="matrix(1.25,0,0,-1.25,0,145.00612)"
     id="g10"><g
       id="g12"><g
         clip-path="url(#clipPath16)"
         id="g14"><g
           transform="matrix(1,0,0,0.75,330.522,5.5392)"
           id="g20"><path
             id="path22"
             style="fill:#deddde;fill-opacity:1;fill-rule:nonzero;stroke:none"
             d="m 0,0 c 0,-4.062 -3.323,-7.386 -7.387,-7.386 h -315.749 c -4.063,0 -7.386,3.324 -7.386,7.386 v 119.56 c 0,4.063 3.303,7.758 7.34,8.211 l 153.812,17.277 c 4.038,0.453 10.642,0.439 14.677,-0.032 L -7.338,127.803 C -3.302,127.333 0,123.623 0,119.56 Z"
             inkscape:connector-curvature="0" /></g><g
           transform="matrix(1,0,0,0.75,324.5191,6.73155)"
           id="g24"><path
             id="path26"
             style="fill:#e9e9e9;fill-opacity:1;fill-rule:nonzero;stroke:none"
             d="M 0,0 C 0,-3.915 -3.201,-7.118 -7.117,-7.118 H -311.4 c -3.915,0 -7.118,3.203 -7.118,7.118 v 115.219 c 0,3.915 3.182,7.475 7.073,7.911 l 148.227,0.419 c 3.891,0.436 10.255,0.422 14.144,-0.032 L -7.069,123.162 C -3.181,122.708 0,119.134 0,115.219 Z"
             inkscape:connector-curvature="0" /></g><g
           transform="matrix(1,0,0,0.75,80.1548,34.39005)"
           id="g28"><path
             id="path30"
             style="fill:#464648;fill-opacity:1;fill-rule:nonzero;stroke:none"
             d="m 0,0 c 0,-16.933 -13.726,-30.659 -30.66,-30.659 -16.933,0 -30.659,13.726 -30.659,30.659 0,16.933 13.726,30.659 30.659,30.659 C -13.726,30.659 0,16.933 0,0"
             inkscape:connector-curvature="0" /></g><g
           transform="matrix(1,0,0,0.75,90.9395,7.270275)"
           id="g32"><path
             id="path34"
             style="fill:#464648;fill-opacity:1;fill-rule:nonzero;stroke:none"
             d="m 0,0 h -14.772 c -5.061,0 -6.769,0.422 -6.769,2.721 0,2.218 2.145,3.042 5.386,6.501 6.734,7.185 11.663,16.314 11.663,26.938 0,20.408 -16.545,36.951 -36.953,36.951 -9.715,0 -17.517,-4.432 -17.517,-4.432 -3.533,-1.822 -6.127,-0.802 -6.127,3.261 v 33.31 c 0,4.063 3.324,7.386 7.387,7.386 H 6.925 c 4.063,0 7.386,-2.804 7.386,-6.232 v -6.386 c 0,-34.672 28.107,-63.026 62.779,-63.026 34.674,0 62.781,27.8 62.781,62.472 v 6.478 c 0,3.682 3.324,6.694 7.386,6.694 h 61.859 c 4.06,0 7.385,-3.323 7.385,-7.386 V 38.248 c 2.822,-3.946 4.482,-8.78 4.482,-14.034 C 220.983,10.72 210.095,0 196.602,0 H 0"
             inkscape:connector-curvature="0" /></g><g
           transform="matrix(1,0,0,0.75,287.8608,33.4419)"
           id="g36"><path
             id="path38"
             style="fill:#cacac8;fill-opacity:1;fill-rule:nonzero;stroke:none"
             d="m 0,0 c -6.115,0 -11.09,-4.922 -11.09,-10.972 0,-6.082 4.975,-11.03 11.09,-11.03 6.114,0 11.089,4.948 11.089,11.03 C 11.089,-4.922 6.114,0 0,0 m 0,-26.619 c -8.66,0 -15.707,7.019 -15.707,15.647 0,8.596 7.047,15.588 15.707,15.588 8.66,0 15.706,-6.992 15.706,-15.588 C 15.706,-19.6 8.66,-26.619 0,-26.619"
             inkscape:connector-curvature="0" /></g><g
           transform="matrix(1,0,0,0.75,287.8608,15.209025)"
           id="g40"><path
             id="path42"
             style="fill:#464648;fill-opacity:1;fill-rule:nonzero;stroke:none"
             d="m 0,0 c 7.4,0 13.398,5.939 13.398,13.339 0,7.4 -5.998,13.28 -13.398,13.28 -7.4,0 -13.398,-5.88 -13.398,-13.28 C -13.398,5.939 -7.4,0 0,0"
             inkscape:connector-curvature="0" /></g><g
           transform="matrix(1,0,0,0.75,196.1895,20.4264)"
           id="g44"><path
             id="path46"
             style="fill:#cacac8;fill-opacity:1;fill-rule:nonzero;stroke:none"
             d="m 0,0 h -15.695 c -3.825,0 -6.925,3.1 -6.925,6.924 0,3.824 3.1,6.925 6.925,6.925 H 0 c 3.824,0 6.924,-3.101 6.924,-6.925 C 6.924,3.1 3.824,0 0,0"
             inkscape:connector-curvature="0" /></g><g
           transform="matrix(1,0,0,0.75,196.1895,22.157475)"
           id="g48"><path
             id="path50"
             style="fill:#464648;fill-opacity:1;fill-rule:nonzero;stroke:none"
             d="m 0,0 h -15.695 c -2.55,0 -4.617,2.067 -4.617,4.616 0,2.55 2.067,4.616 4.617,4.616 H 0 C 2.549,9.232 4.616,7.166 4.616,4.616 4.616,2.067 2.549,0 0,0"
             inkscape:connector-curvature="0" /></g><g
           transform="matrix(1,0,0,0.75,155.6553,20.4264)"
           id="g52"><path
             id="path54"
             style="fill:#cacac8;fill-opacity:1;fill-rule:nonzero;stroke:none"
             d="m 0,0 h -15.695 c -3.824,0 -6.924,3.1 -6.924,6.924 0,3.824 3.1,6.925 6.924,6.925 H 0 c 3.824,0 6.924,-3.101 6.924,-6.925 C 6.924,3.1 3.824,0 0,0"
             inkscape:connector-curvature="0" /></g><g
           transform="matrix(1,0,0,0.75,155.6553,22.157475)"
           id="g56"><path
             id="path58"
             style="fill:#464648;fill-opacity:1;fill-rule:nonzero;stroke:none"
             d="m 0,0 h -15.695 c -2.549,0 -4.616,2.067 -4.616,4.616 0,2.55 2.067,4.616 4.616,4.616 H 0 C 2.549,9.232 4.616,7.166 4.616,4.616 4.616,2.067 2.549,0 0,0"
             inkscape:connector-curvature="0" /></g><g
           transform="matrix(1,0,0,0.75,257.895,45.602325)"
           id="g60"
           style="fill:#ff0000;fill-opacity:1"><path
             id="path62"
             style="fill:#ff0000;fill-opacity:1;fill-rule:nonzero;stroke:none"
             d="m 0,0 c 0,-0.508 -0.416,-0.923 -0.923,-0.923 h -13.079 c -0.508,0 -0.924,0.415 -0.924,0.923 v 14.584 c 0,0.507 0.336,1.168 0.746,1.469 l 5.973,4.384 c 0.409,0.3 1.079,0.3 1.489,0 l 5.974,-4.384 C -0.335,15.752 0,15.091 0,14.584 Z"
             inkscape:connector-curvature="0" /></g><g
           transform="matrix(1,0,0,0.75,295.3247,45.602325)"
           id="g64"
           style="fill:#ff0000;fill-opacity:1"><path
             id="path66"
             style="fill:#ff0000;fill-opacity:1;fill-rule:nonzero;stroke:none"
             d="M 0,0 C 0,-0.508 -0.415,-0.923 -0.923,-0.923 H -14 c -0.51,0 -0.926,0.415 -0.926,0.923 v 14.584 c 0,0.507 0.337,1.168 0.747,1.469 l 5.972,4.384 c 0.41,0.3 1.08,0.3 1.489,0 l 5.975,-4.384 C -0.335,15.752 0,15.091 0,14.584 Z"
             inkscape:connector-curvature="0" /></g><g
           transform="matrix(1,0,0,0.75,52.312,86.05215)"
           id="g68"
           style="fill:#ff0000;fill-opacity:1"><path
             id="path70"
             style="fill:#ff0000;fill-opacity:1;fill-rule:evenodd;stroke:none"
             d="m 0,0 c -0.564,-0.482 -1.074,-1.121 -1.413,-1.818 -0.339,-0.698 -0.512,-1.455 -0.52,-2.147 -0.008,-0.695 0.145,-1.326 0.427,-1.904 0.284,-0.58 0.695,-1.107 1.204,-1.461 0.51,-0.357 1.116,-0.544 1.672,-0.629 0.556,-0.085 1.062,-0.071 1.463,-0.014 0.401,0.057 0.695,0.152 0.966,0.302 L 5.392,-4.36 C 4.979,-4.554 4.559,-4.731 4.124,-4.911 3.689,-5.089 3.237,-5.272 2.759,-5.331 c -0.478,-0.055 -0.983,0.01 -1.434,0.278 -0.449,0.265 -0.841,0.732 -1.044,1.257 -0.205,0.521 -0.217,1.1 -0.076,1.624 0.142,0.521 0.443,0.987 0.81,1.396 0.363,0.408 0.793,0.759 1.193,0.989 0.399,0.232 0.767,0.344 1.143,0.372 L 4.555,-1.149 5.94,-0.632 4.969,1.743 C 4.696,1.752 4.421,1.743 4.094,1.707 3.769,1.672 3.394,1.611 3.003,1.511 2.612,1.412 2.208,1.271 1.695,1.038 1.184,0.806 0.564,0.481 0,0 M -9.047,0.884 C -8.906,0.725 -8.73,0.521 -8.77,0.302 l -0.551,-2.905 c -0.044,-0.227 -0.245,-0.392 -0.404,-0.505 -0.158,-0.114 -0.352,-0.144 -0.546,-0.175 0.168,-0.065 0.335,-0.131 0.448,-0.253 0.113,-0.122 0.268,-0.295 0.227,-0.478 l -0.631,-2.83 c -0.06,-0.26 -0.326,-0.425 -0.514,-0.568 -0.19,-0.141 -0.405,-0.213 -0.621,-0.285 h 7.551 l 0.532,2.832 C -3.569,-5.454 -3.86,-6.04 -4.354,-6.418 -4.852,-6.795 -5.529,-7.126 -6.247,-7.126 h -1.385 l 0.691,3.504 c 0.25,0.086 0.535,0.077 0.79,-0.048 0.256,-0.122 0.484,-0.363 0.69,-0.624 0.204,-0.261 0.384,-0.541 0.528,-0.841 l 0.723,3.686 c -0.246,-0.27 -0.522,-0.516 -0.818,-0.737 -0.298,-0.22 -0.614,-0.417 -0.912,-0.515 -0.297,-0.097 -0.574,-0.097 -0.83,-0.021 l 0.715,3.449 1.114,0.012 c 0.504,0.004 1.007,0.065 1.413,-0.269 0.408,-0.333 0.721,-1.031 1.03,-1.731 l 0.55,2.526 h -7.675 c 0.216,-0.11 0.432,-0.22 0.576,-0.381 m -3.954,-4.475 -4.488,5.377 -2.039,-2.331 0.978,-0.894 -1.169,-6.472 2.346,1.03 -1.21,1.121 0.671,3.423 4.728,-5.45 1.632,7.431 1.654,1 -1.998,1.216 z"
             inkscape:connector-curvature="0" /></g><g
           transform="matrix(1,0,0,0.75,78.5064,9.1548)"
           id="g72"
           style="fill:#ff0000;fill-opacity:1"><path
             id="path74"
             style="fill:#ff0000;fill-opacity:1;fill-rule:nonzero;stroke:none"
             d="m 0,0 -2.412,2.796 c 8.982,7.75 14.134,18.996 14.134,30.851 0,22.461 -18.273,40.734 -40.734,40.734 -6.405,0 -12.535,-1.443 -18.22,-4.291 l -1.654,3.302 c 6.203,3.107 12.89,4.682 19.874,4.682 24.497,0 44.428,-19.93 44.428,-44.427 C 15.416,20.717 9.797,8.453 0,0"
             inkscape:connector-curvature="0" /></g><g
           transform="matrix(1,0,0,0.75,287.5806,9.94395)"
           id="g76"
           style="fill:#ff0000;fill-opacity:1"><path
             id="path78"
             style="fill:#ff0000;fill-opacity:1;fill-rule:nonzero;stroke:none"
             d="M 0,0 C 11.356,0 20.559,9.02 20.559,20.375 20.559,31.73 11.356,40.751 0,40.751 h -37.605 c -11.355,0 -20.559,-9.021 -20.559,-20.376 0,-11.355 9.204,-20.466 20.559,-20.466 z"
             inkscape:connector-curvature="0" /></g><g
           transform="matrix(1,0,0,0.75,250.4331,33.4419)"
           id="g80"><path
             id="path82"
             style="fill:#cacac8;fill-opacity:1;fill-rule:nonzero;stroke:none"
             d="m 0,0 c -6.116,0 -11.092,-4.922 -11.092,-10.972 0,-6.082 4.976,-11.03 11.092,-11.03 6.114,0 11.089,4.948 11.089,11.03 C 11.089,-4.922 6.114,0 0,0 m 0,-26.619 c -8.661,0 -15.708,7.019 -15.708,15.647 0,8.596 7.047,15.588 15.708,15.588 8.66,0 15.706,-6.992 15.706,-15.588 C 15.706,-19.6 8.66,-26.619 0,-26.619"
             inkscape:connector-curvature="0" /></g><g
           transform="matrix(1,0,0,0.75,250.4331,15.209025)"
           id="g84"><path
             id="path86"
             style="fill:#464648;fill-opacity:1;fill-rule:nonzero;stroke:none"
             d="m 0,0 c 7.399,0 13.398,5.939 13.398,13.339 0,7.4 -5.999,13.28 -13.398,13.28 -7.399,0 -13.399,-5.88 -13.399,-13.28 C -13.399,5.939 -7.399,0 0,0"
             inkscape:connector-curvature="0" /></g><g
           transform="matrix(1,0,0,0.75,287.8648,13.325175)"
           id="g88"><path
             id="path90"
             style="fill:#cacac8;fill-opacity:1;fill-rule:nonzero;stroke:none"
             d="m 0,0 c 8.796,0 15.926,7.06 15.926,15.857 0,8.796 -7.13,15.786 -15.926,15.786 -8.798,0 -15.93,-6.99 -15.93,-15.786 C -15.93,7.06 -8.798,0 0,0"
             inkscape:connector-curvature="0" /></g><g
           transform="matrix(1,0,0,0.75,287.8648,15.209025)"
           id="g92"><path
             id="path94"
             style="fill:#464648;fill-opacity:1;fill-rule:nonzero;stroke:none"
             d="m 0,0 c 7.398,0 13.398,5.939 13.398,13.339 0,7.4 -6,13.28 -13.398,13.28 -7.4,0 -13.399,-5.88 -13.399,-13.28 C -13.399,5.939 -7.4,0 0,0"
             inkscape:connector-curvature="0" /></g><g
           transform="matrix(1,0,0,0.75,124.1763,116.0049)"
           id="g96"><path
             id="path98"
             style="fill:#deddde;fill-opacity:1;fill-rule:nonzero;stroke:none"
             d="m 0,0 c -1.524,0 -2.77,-1.247 -2.77,-2.77 v -45.479 c 0,-26.195 20.89,-47.5 47.085,-47.5 26.197,0 47.086,21.166 47.086,47.361 V -2.77 c 0,1.523 -1.246,2.77 -2.77,2.77 z"
             inkscape:connector-curvature="0" /></g><g
           transform="matrix(1,0,0,0.75,57.8438,56.85855)"
           id="g100"><path
             id="path102"
             style="fill:#5f6062;fill-opacity:1;fill-rule:nonzero;stroke:none"
             d="m 0,0 c 0,0.531 -0.426,1.052 -0.945,1.156 0,0 -2.868,0.915 -7.404,0.915 -4.34,0 -7.402,-0.914 -7.402,-0.914 C -16.271,1.052 -16.696,0.531 -16.696,0 v -20.645 c 0,-0.531 -0.434,-0.965 -0.965,-0.965 h -20.646 c -0.531,0 -1.051,-0.425 -1.155,-0.945 0,0 -0.916,-2.9 -0.916,-7.403 0,-3.838 0.916,-7.403 0.916,-7.403 0.104,-0.519 0.624,-0.944 1.155,-0.944 h 20.646 c 0.531,0 0.965,-0.435 0.965,-0.966 v -20.644 c 0,-0.531 0.425,-1.052 0.945,-1.157 0,0 2.526,-0.914 7.402,-0.914 4.964,0 7.404,0.916 7.404,0.916 0.519,0.103 0.945,0.624 0.945,1.155 v 20.644 c 0,0.531 0.434,0.966 0.964,0.966 H 21.61 c 0.531,0 1.051,0.425 1.155,0.944 0,0 0.915,2.495 0.915,7.403 0,5.166 -0.915,7.403 -0.915,7.403 -0.104,0.52 -0.624,0.945 -1.155,0.945 H 0.964 C 0.434,-21.61 0,-21.176 0,-20.645 Z"
             inkscape:connector-curvature="0" /></g><g
           transform="matrix(1,0,0,0.75,56.5425,34.39005)"
           id="g104"><path
             id="path106"
             style="fill:#464648;fill-opacity:1;fill-rule:nonzero;stroke:none"
             d="m 0,0 c 0,-3.893 -3.155,-7.047 -7.048,-7.047 -3.892,0 -7.048,3.154 -7.048,7.047 0,3.894 3.156,7.048 7.048,7.048 C -3.155,7.048 0,3.894 0,0"
             inkscape:connector-curvature="0" /></g></g></g></g></svg>