<?xml version="1.0" encoding="UTF-8" standalone="no"?>
<!-- Generator: Adobe Illustrator 19.0.0, SVG Export Plug-In . SVG Version: 6.00 Build 0)  -->

<svg
   xmlns:dc="http://purl.org/dc/elements/1.1/"
   xmlns:cc="http://creativecommons.org/ns#"
   xmlns:rdf="http://www.w3.org/1999/02/22-rdf-syntax-ns#"
   xmlns:svg="http://www.w3.org/2000/svg"
   xmlns="http://www.w3.org/2000/svg"
   xmlns:sodipodi="http://sodipodi.sourceforge.net/DTD/sodipodi-0.dtd"
   xmlns:inkscape="http://www.inkscape.org/namespaces/inkscape"
   version="1.1"
   id="svg2"
   x="0px"
   y="0px"
   viewBox="-258.2 372 82.379351 37.760887"
   xml:space="preserve"
   sodipodi:docname="logo.svg"
   width="82.379349"
   height="37.760887"
   inkscape:version="0.92.2 (5c3e80d, 2017-08-06)"><metadata
     id="metadata26"><rdf:RDF><cc:Work
         rdf:about=""><dc:format>image/svg+xml</dc:format><dc:type
           rdf:resource="http://purl.org/dc/dcmitype/StillImage" /><dc:title></dc:title></cc:Work></rdf:RDF></metadata><defs
     id="defs24" /><sodipodi:namedview
     pagecolor="#ffffff"
     bordercolor="#666666"
     borderopacity="1"
     objecttolerance="10"
     gridtolerance="10"
     guidetolerance="10"
     inkscape:pageopacity="0"
     inkscape:pageshadow="2"
     inkscape:window-width="1920"
     inkscape:window-height="1017"
     id="namedview22"
     showgrid="false"
     fit-margin-top="0"
     fit-margin-left="0"
     fit-margin-right="0"
     fit-margin-bottom="0"
     inkscape:zoom="10.955839"
     inkscape:cx="32.928317"
     inkscape:cy="14.973392"
     inkscape:window-x="-8"
     inkscape:window-y="-8"
     inkscape:window-maximized="1"
     inkscape:current-layer="svg2" /><g
     id="g14"
     transform="translate(-48.897925,-12.421912)"><g
       id="g20"
       transform="matrix(1,0,0,0.75,7.5553,118.2273)"
       style="fill:#ff0000"><path
         id="path22"
         d="m -207.4,384 c -0.1,0 -0.1,0 -0.2,0 -5.4,-2.6 -8.2,-5.7 -8.1,-8.9 0.1,-2.6 2.2,-5.1 6.2,-7.2 3.7,-2 9,-3.5 15.3,-4.5 0.2,0 0.4,0.1 0.4,0.3 0,0.2 -0.1,0.4 -0.3,0.4 -12.6,2 -20.6,6.2 -20.8,10.9 -0.1,2.8 2.6,5.7 7.7,8.2 0.2,0.1 0.3,0.3 0.2,0.5 -0.1,0.2 -0.3,0.3 -0.4,0.3"
         style="fill:#ff0000"
         inkscape:connector-curvature="0" /></g><g
       id="g24"
       transform="matrix(1,0,0,0.75,45.4753,129.95265)"
       style="fill:#ff0000"><path
         id="path26"
         d="m -197.9,348.8 c 0,0 -0.1,0 0,0 -4.1,-0.7 -8.3,-1.1 -12.7,-1.3 -0.2,0 -0.4,-0.2 -0.4,-0.4 0,-0.2 0.2,-0.4 0.4,-0.4 4.4,0.2 8.6,0.7 12.7,1.3 0.2,0 0.3,0.2 0.3,0.4 0,0.2 -0.1,0.4 -0.3,0.4"
         style="fill:#ff0000"
         inkscape:connector-curvature="0" /></g><g
       id="g28"
       transform="matrix(1,0,0,0.75,35.8737,114.51907)"
       style="fill:#ff0000"><path
         id="path30"
         d="m -200.3,395.1 h -0.3 -0.4 0.4 c 0.1,0 0.2,-0.2 0.3,-0.2 20.4,0 36.5,-5.4 36.7,-12.2 0.1,-2.4 -1.8,-4.9 -5.5,-7.1 -3.7,-2.2 -9,-4.1 -15.3,-5.4 -0.2,0 -0.3,-0.3 -0.3,-0.5 0,-0.2 0.2,-0.3 0.5,-0.3 6.4,1.4 11.7,3.2 15.5,5.5 4,2.3 6,5 5.9,7.7 -0.1,3.6 -4.1,6.8 -11.3,9.1 -6.9,2.3 -16.2,3.4 -26.2,3.4"
         style="fill:#ff0000"
         inkscape:connector-curvature="0" /></g><g
       id="g32"
       transform="matrix(1,0,0,0.75,41.3971,126.23925)"
       style="fill:#ff0000"><path
         id="path34"
         d="m -198.9,359.9 10.1,-7.7 -11.8,4.7 -3.3,-3.5 1.1,4.8 -10.1,7.7 11.8,-4.7 3.3,3.5 z"
         style="fill:#ff0000"
         inkscape:connector-curvature="0" /></g><g
       id="g36"
       transform="matrix(1,0,0,0.75,22.4792,128.62912)"
       style="fill:#ff0000"><path
         id="path38"
         d="m -203.7,352.7 0.8,-4.3 3,-0.5 c 0.4,-0.1 0.6,0.2 0.5,0.6 l -0.5,2.9 c -0.1,0.4 -0.4,0.7 -0.8,0.8 z m 33.7,12.2 0.8,-4.3 c 0.3,-1.4 1.7,-2.7 3,-2.9 l 5.4,-0.9 c 0.9,-0.1 1.6,0.9 1.4,1.9 l -0.3,1.4 c -0.2,1 -1.2,2.1 -2.1,2.2 l -5.7,0.9 -0.1,0.5 c -0.1,0.6 0.3,1 0.8,0.9 l 6.3,-1 -0.4,2.3 -7.1,1.1 c -1.2,0.3 -2.2,-0.7 -2,-2.1 m -14.1,-4.4 2.3,-0.4 -1.7,9.4 -2.3,0.4 1.7,-9.4 c -0.1,0 0,0 0,0 z m -15.1,11.5 -2.3,0.4 1.1,-6.1 c 0.1,-0.8 -0.1,-1 -0.8,-0.9 l -4.1,0.6 -1.3,7.2 -2.3,0.4 1.7,-9.4 h 0.1 l 7.7,-1.2 c 1.2,-0.2 1.8,0.5 1.6,1.8 -0.1,-0.1 -1.4,7.2 -1.4,7.2 z m -11.2,-0.6 -0.5,2.5 -9.7,1.5 3,-16.3 8,-1.3 -0.4,2.2 -5.7,0.9 -0.9,4.7 4.7,-0.7 -0.4,2.2 -4.7,0.7 -0.9,4.7 z m 0.3,-1.8 -5.5,0.9 0.2,-1.1 4.4,-0.7 1.1,-5.8 -4.4,0.7 0.2,-1.1 5.5,-0.9 c 0,0 -1.5,8 -1.5,8 z m 12.2,4 v -0.2 c 0.2,0 0.4,0.1 0.5,0 l 4.6,-0.7 c -0.2,0.9 -1.4,1.1 -3.2,1.4 l -2.1,0.3 -1.1,6 2.8,-0.4 c 6.8,-0.7 9.4,-4.2 10.2,-8.3 l 8.3,-1.3 1.3,-7.2 0.7,-0.1 c 0.7,-0.1 0.6,-0.2 0.5,0.5 l -1.2,6.6 5.9,-0.9 0.1,-0.4 c 0.4,0.2 1,0.3 1.5,0.2 l 10.3,-1.6 1,-5.1 -0.7,-0.5 c 0.6,-0.7 1,-1.5 1.2,-2.2 l 0.2,-0.8 c 0.5,-3 -2.3,-3.8 -3.6,-3.6 l -5.9,0.9 c -1,0.2 -2.2,0.9 -3,1.9 -0.8,-0.8 -2,-1.1 -2.7,-1 l -6.6,1 0.7,1.6 5.9,-0.9 c 0.9,-0.1 1.4,0.2 1.6,0.9 -0.1,0.2 -1.6,8.2 -1.6,8.2 l -2.1,0.3 1.1,-6.1 c 0.1,-0.8 -0.1,-1 -0.8,-0.9 l -4.1,0.6 -1.3,7.2 -2.3,0.4 1.5,-8.2 -1.9,-2.3 -6.9,2.5 3.3,-0.5 h 0.1 l -2.1,11.2 c -0.5,2.8 -3.6,5.6 -6.3,6 l -2.8,0.4 0.4,-2.2 2.1,-0.3 c 1.8,-0.3 3.9,-2.1 4.3,-4.1 l 0.2,-1.2 -5.5,0.9 c -1.2,0.2 -1.8,-0.5 -1.6,-1.8 l 1,-5.3 c 0.2,-0.9 0.8,-1.7 1.5,-2.1 v -0.1 l 2.7,-2.1 -1.6,0.3 c -0.9,0.1 -2.4,0.8 -3.4,2 -0.8,-0.9 -2.1,-1.3 -2.8,-1.1 l -5.9,0.9 1,-5.1 4.3,-0.7 c 2.3,-0.4 4.8,-2.9 5.3,-5.3 l 0.6,-3.5 c 0.4,-2.4 -1.2,-4.3 -3.5,-3.9 l -9.4,1.5 -2,10.7 -8.6,1.4 c -0.7,0.1 -1.4,0.8 -1.6,1.6 l -3.2,17.3 c -0.1,0.8 0.3,1.3 1.1,1.2 l 16.5,-2.6 1.3,-7.2 0.7,-0.1 c 0.7,-0.1 0.6,-0.2 0.5,0.5 l -1.2,6.6 c -0.1,-0.2 5.8,-1.1 5.8,-1.1 z m 30.9,-12.7 v 0.3 l 4.4,-0.7 c 0.3,-0.1 0.7,-0.4 0.8,-0.8 0.1,-0.4 -0.2,-0.6 -0.5,-0.6 l -1.1,0.2 -1.8,0.3 -0.5,0.1 c -0.6,0 -1.2,0.6 -1.3,1.2 m -27.1,4.4 -0.5,2.8 c -0.1,0.8 0.1,1 0.8,0.9 l 4.3,-0.7 0.9,-4.9 -4.3,0.7 c -0.7,0.1 -1,0.4 -1.2,1.2 m 1.5,1 c 0.1,-0.7 0.4,-0.6 1.1,-0.7 l 0.7,-0.1 -0.2,1.1 -0.7,0.1 c -0.7,0.1 -1,0.3 -0.9,-0.4"
         style="fill:#ff0000"
         inkscape:connector-curvature="0" /></g><g
       id="g40"
       transform="matrix(1,0,0,0.75,37.6393,127.43528)"
       style="fill:#ff0000"><path
         id="path42"
         d="m -199.9,356.3 -0.6,-2.5 h -0.4 l -0.1,0.6 c -0.1,0.4 -0.4,0.8 -0.8,0.8 l -2.4,0.4 c -0.4,0.1 -0.6,-0.2 -0.6,-0.6 l 1.2,-6.6 c 0.1,-0.4 0.4,-0.8 0.8,-0.8 l 2.4,-0.4 c 0.4,-0.1 0.6,0.2 0.6,0.6 l -0.2,0.8 4.9,-0.8 0.2,-1 c 0.5,-2.5 -1.3,-4.5 -3.7,-4.1 l -4.7,0.7 c -2.4,0.4 -5,3 -5.4,5.5 l -1.3,7 c -0.5,2.5 1.3,4.5 3.7,4.1 l 1.6,-0.3 z"
         style="fill:#ff0000"
         inkscape:connector-curvature="0" /></g><g
       id="g44"
       transform="matrix(1,0,0,0.75,40.4323,128.33835)"
       style="fill:#ff0000"><path
         id="path46"
         d="m -199.2,353.6 c 0.1,-0.3 0.2,-0.5 0.3,-0.8 l 0.2,-0.9 -2,0.3 z"
         style="fill:#ff0000"
         inkscape:connector-curvature="0" /></g><g
       id="g48"
       transform="translate(45.8945,2.3828)"><path
         id="path50"
         d="m -197.8,417.4 c -0.5,0.3 -1.1,0.45 -1.7,0.45 -0.8,0 -1.6,0 -2.3,0 -0.7,0 -1.5,0 -2.2,0 -0.5,0 -1.1,-0.075 -1.5,-0.3 -0.6,-0.3 -0.9,-0.675 -1,-1.125 -0.1,-0.525 0.1,-0.975 0.5,-1.35 0.4,-0.375 0.9,-0.6 1.5,-0.6 1.8,0 3.6,0 5.3,0 0.5,0 0.9,0.15 1.3,0.375 0.4,0.225 0.7,0.525 0.8,0.9 0.2,0.675 -0.1,1.2 -0.7,1.65 m -1.6,-3.375 c -0.8,0 -1.6,0 -2.4,0 -0.7,0 -1.4,0 -2.2,0 -0.6,0 -1.1,0.075 -1.6,0.225 -0.6,0.225 -1,0.525 -1.3,0.975 -0.2,0.375 -0.3,0.825 -0.2,1.2 0.1,0.45 0.3,0.825 0.7,1.2 0.6,0.525 1.4,0.75 2.3,0.75 1.4,0 2.8,0 4.2,0 0.3,0 0.7,0 1,0 0.6,-0.075 1.1,-0.225 1.6,-0.525 0.5,-0.375 0.8,-0.825 0.9,-1.35 0.1,-0.525 0,-0.975 -0.4,-1.35 -0.6,-0.825 -1.5,-1.125 -2.6,-1.125 m -32.8,3.825 c -0.1,0 -0.1,0 -0.2,0 h -2.7 c -0.9,0 -1.8,0 -2.7,0 -0.2,0 -0.2,0 -0.2,-0.15 0,-1.05 0,-2.025 0,-3.075 0,-0.15 0,-0.15 0.2,-0.15 1.7,0 3.5,0 5.2,0 1.1,0 1.9,0.45 2.1,1.35 0.3,0.975 -0.4,1.8 -1.7,2.025 m 1.3,-3.375 c -0.5,-0.3 -1,-0.45 -1.6,-0.45 -2,0 -4,0 -6.1,0 -0.2,0 -0.2,0 -0.2,0.15 0,1.35 0,2.7 0,4.05 0,0.15 0.1,0.15 0.2,0.15 1,0 2,0 3.1,0 1,0 2,0 3,0 0.2,0 0.5,0 0.7,-0.075 1.1,-0.375 1.8,-0.975 1.9,-1.875 0.2,-0.75 -0.1,-1.425 -1,-1.95 m 17.9,0.75 c -0.2,0.075 -0.3,0.075 -0.5,0.075 -2.3,0 -4.5,0 -6.8,0 -0.2,0 -0.3,-0.075 -0.3,-0.225 0,-0.15 0,-0.3 0,-0.45 0,-0.15 0,-0.15 0.2,-0.15 1.2,0 2.4,0 3.5,0 h 3.5 c 0.3,0 0.4,0.075 0.5,0.3 0.2,0.225 0.1,0.375 -0.1,0.45 m -0.5,-1.2 c -2.5,0 -5,0 -7.6,0 -0.2,0 -0.2,0.075 -0.2,0.15 0,0.525 0,1.05 0,1.575 0,0.15 0,0.15 0.2,0.15 1.3,0 2.5,0 3.8,0 1.1,0 2.3,0 3.4,0 0.3,0 0.6,0 0.9,-0.075 0.5,-0.15 0.9,-0.6 0.7,-1.05 -0.1,-0.6 -0.5,-0.75 -1.2,-0.75 m -11.3,2.4 c -0.1,0.15 -0.3,0.3 -0.5,0.3 -0.3,0 -0.5,0 -0.8,0 -0.2,-0.075 -0.4,-0.3 -0.4,-0.45 0,-0.225 0.3,-0.45 0.5,-0.45 h 0.3 c 0.2,0 0.5,-0.075 0.7,0.15 0.3,0.15 0.3,0.3 0.2,0.45 m 0,-1.05 c -0.3,-0.15 -0.7,-0.15 -1.1,-0.15 -0.8,0 -1.5,0.675 -1.3,1.275 0.2,0.45 0.7,0.675 1.5,0.75 0.1,0 0.2,0 0.4,-0.075 0.8,-0.075 1,-0.45 1.1,-0.825 0.2,-0.375 0,-0.675 -0.6,-0.975 m 51.2,-1.05 c 0,0.075 0,0.15 -0.2,0.15 v 0 h -2.3 c -0.7,0 -1.5,0 -2.2,0 -0.2,0 -0.3,-0.075 -0.3,-0.225 0,-0.375 0,-0.675 0.1,-1.05 0.1,-0.3 0.5,-0.675 0.9,-0.75 0.2,0 0.5,-0.075 0.7,-0.075 0.4,0 0.9,0 1.3,0 0.3,0 0.5,-0.15 0.5,-0.375 0,-0.225 -0.2,-0.375 -0.5,-0.45 -0.2,0 -0.4,0 -0.6,0 -0.6,0 -1.2,0 -1.8,0 -0.2,0 -0.2,-0.075 -0.2,-0.15 0,-0.15 0,-0.225 0,-0.375 0,-0.15 0.1,-0.225 0.3,-0.225 0.8,0 1.6,0 2.5,0 0.2,0 0.4,0 0.6,0.075 0.6,0.075 0.9,0.375 1.1,0.825 0.2,0.6 -0.2,1.2 -1.1,1.425 -0.1,0 -0.1,0 -0.2,0 -0.5,0 -1,0 -1.5,0 -0.3,0 -0.7,0.225 -0.7,0.45 0,0.075 0,0.15 0.2,0.15 0.3,0 0.6,0 0.9,0 0.7,0 1.5,0 2.2,0 0.2,0 0.2,0.075 0.2,0.15 0,0.075 0,0.3 0.1,0.45 m 0.1,-0.9 c -0.9,0 -1.9,0 -2.8,0 h -0.3 c 0.1,-0.15 0.2,-0.075 0.3,-0.075 0.4,0 0.9,0 1.3,0 0.2,0 0.3,0 0.5,-0.075 1,-0.225 1.4,-0.9 1.2,-1.575 -0.2,-0.675 -0.8,-1.05 -1.8,-1.05 -1,0 -2,0 -3,0 -0.2,0 -0.3,0.075 -0.3,0.225 0,0.3 0,0.525 0,0.825 0,0.15 0,0.15 0.2,0.15 0.8,0 1.6,0 2.4,0 0.3,0 0.4,0.075 0.4,0.225 0,0.15 -0.1,0.225 -0.4,0.225 -0.4,0 -0.9,0 -1.3,0 -0.2,0 -0.4,0 -0.6,0.075 -0.8,0.15 -1.2,0.675 -1.2,1.275 0,0.375 0,0.675 0,1.05 0,0.075 0,0.15 0.2,0.15 1.7,0 3.4,0 5.2,0 0.2,0 0.2,-0.075 0.2,-0.15 0,-0.3 0,-0.6 0,-0.975 0,-0.3 -0.1,-0.3 -0.2,-0.3 m -21.3,3.3 c -0.2,0.675 -0.6,1.275 -1.3,1.725 -0.4,0.3 -0.9,0.45 -1.5,0.6 -0.4,0.075 -0.9,0.075 -1.3,0.075 h -2.8 c -1,0 -2.1,0 -3.1,0 -1.7,0 -3.2,-0.825 -3.7,-1.95 -0.5,-1.05 -0.3,-2.025 0.6,-2.925 0.6,-0.6 1.3,-0.9 2.2,-1.05 0.3,-0.075 0.6,-0.075 0.9,-0.075 2.2,0 4.3,0 6.5,0 0.9,0 1.6,0.3 2.3,0.675 0.5,0.3 0.8,0.675 1.1,1.05 0.2,0.6 0.2,1.275 0.1,1.875 m -0.6,-3 c -0.4,-0.3 -0.8,-0.525 -1.3,-0.75 -0.6,-0.225 -1.1,-0.3 -1.8,-0.3 -1.1,0 -2.2,0 -3.3,0 -1,0 -1.9,0 -2.9,0 -0.3,0 -0.6,0 -1,0 -0.9,0.15 -1.8,0.45 -2.5,0.975 -0.5,0.3 -0.8,0.75 -1.1,1.2 -0.4,0.75 -0.5,1.425 -0.2,2.175 0.3,0.75 0.8,1.425 1.6,1.875 0.9,0.525 1.8,0.75 2.9,0.75 2.1,0 4.2,0 6.3,0 0.3,0 0.6,-0.075 0.9,-0.075 0.6,-0.15 1.2,-0.3 1.7,-0.6 0.7,-0.375 1.2,-0.825 1.5,-1.425 0.4,-0.6 0.5,-1.275 0.3,-1.95 0,-0.75 -0.4,-1.35 -1.1,-1.875 m -33,3.75 c -0.2,0.225 -0.4,0.525 -0.6,0.75 -0.3,0.3 -0.7,0.45 -1.1,0.675 -0.5,0.225 -1,0.3 -1.5,0.375 -1.4,0 -2.8,0 -4.2,0 -1.4,0 -2.9,0 -4.3,0 -0.2,0 -0.2,0 -0.2,-0.15 0,-1.875 0,-3.825 0,-5.7 0,-0.15 0.1,-0.15 0.2,-0.15 2.8,0 5.6,0 8.4,0 0.9,0 1.7,0.3 2.4,0.75 0.5,0.375 1,0.825 1.2,1.35 0.1,0.225 0.2,0.45 0.2,0.675 -0.1,0.375 -0.2,0.9 -0.5,1.425 m -0.9,-4.2 c -0.7,-0.375 -1.5,-0.675 -2.4,-0.675 -3,0 -6.1,0 -9.1,0 -0.2,0 -0.2,0 -0.2,0.15 0,2.25 0,4.425 0,6.675 0,0.15 0.1,0.15 0.2,0.15 1.5,0 3.1,0 4.6,0 h 4.5 c 0.2,0 0.3,0 0.5,0 1.2,-0.15 2.2,-0.675 2.9,-1.425 0.5,-0.525 0.7,-1.05 0.8,-1.65 0.1,-0.525 0,-1.125 -0.3,-1.575 -0.2,-0.675 -0.7,-1.2 -1.5,-1.65 m 18.6,5.925 c -0.4,0 -0.8,0 -1.3,0 -0.1,0 -0.2,0 -0.2,-0.15 0,-0.375 0,-0.75 0,-1.05 0,-0.375 -0.5,-0.975 -1,-1.125 -0.3,-0.075 -0.5,-0.075 -0.8,-0.075 -2.3,0 -4.7,0 -7,0 -0.2,0 -0.3,0.075 -0.3,0.225 0,0.675 0,1.35 0,2.025 0,0.15 0,0.15 -0.2,0.15 -0.4,0 -0.8,0 -1.2,0 -0.2,0 -0.2,0 -0.2,-0.15 0,-1.725 0,-3.45 0,-5.175 0,-0.15 0,-0.3 0,-0.525 0,-0.15 0,-0.225 0.3,-0.225 1.6,0 3.3,0 4.9,0 1.6,0 3.2,0 4.9,0 1,0 2,0.6 2.3,1.35 0.2,0.75 0,1.35 -0.7,1.8 -0.1,0.075 -0.2,0.15 0,0.3 0.2,0.15 0.4,0.375 0.5,0.525 0.2,0.225 0.3,0.525 0.3,0.825 0,0.375 0,0.675 0,1.05 -0.1,0.15 -0.2,0.225 -0.3,0.225 m 0.8,-1.35 c -0.1,-0.45 -0.3,-0.825 -0.7,-1.2 -0.1,-0.075 -0.1,-0.15 0,-0.225 0.2,-0.15 0.3,-0.375 0.4,-0.525 0.3,-0.45 0.4,-0.975 0.2,-1.425 -0.2,-0.525 -0.5,-0.975 -1.1,-1.275 -0.6,-0.3 -1.2,-0.525 -1.9,-0.525 -1.7,0 -3.4,0 -5.1,0 -1.8,0 -3.6,0 -5.4,0 -0.2,0 -0.2,0 -0.2,0.15 0,2.25 0,4.5 0,6.75 0,0.15 0,0.15 0.2,0.15 0.9,0 1.7,0 2.6,0 0.2,0 0.2,0 0.2,-0.15 0,-0.675 0,-1.35 0,-2.025 0,-0.15 0.1,-0.15 0.2,-0.15 2,0 4,0 6,0 0.2,0 0.4,0 0.7,0 0.5,0.075 0.9,0.45 0.9,0.75 0,0.45 0,0.975 0,1.425 0,0.075 0,0.15 0.2,0.15 0.9,0 1.8,0 2.7,0 0.2,0 0.2,-0.075 0.2,-0.15 0,-0.375 0,-0.825 0,-1.2 0,-0.225 0,-0.375 -0.1,-0.525 m -32.5,-4.05 c 0,0.15 0,0.225 -0.3,0.225 -2.1,0 -4.1,0 -6.2,0 -0.4,0 -0.8,0 -1.2,0 -1.1,-0.075 -2.3,0.675 -2.6,1.35 -0.4,0.75 -0.2,1.5 0.4,2.175 0.4,0.375 1,0.675 1.7,0.75 0.1,0 0.3,0 0.4,0 2.5,0 5.1,0 7.6,0 0.2,0 0.3,0 0.2,0.15 0,0.15 0,0.3 0,0.45 0,0.15 0,0.15 -0.2,0.15 -1.4,0 -2.8,0 -4.1,0 -1.3,0 -2.6,0 -3.9,0 -0.9,0 -1.8,-0.225 -2.5,-0.675 -0.6,-0.375 -1,-0.9 -1.2,-1.425 -0.3,-0.975 -0.2,-1.8 0.6,-2.625 0.6,-0.675 1.5,-0.975 2.5,-1.2 0.2,-0.075 0.5,-0.075 0.7,-0.075 2.6,0 5.3,0 7.9,0 0.2,0 0.3,0 0.2,0.225 0,0.225 0,0.375 0,0.525 m 0.4,-1.125 c -2.5,0 -5,0 -7.6,0 -0.6,0 -1.2,0 -1.8,0.075 -0.7,0.075 -1.3,0.3 -1.8,0.525 -0.6,0.375 -1.1,0.75 -1.5,1.275 -0.5,0.75 -0.6,1.5 -0.4,2.325 0.2,0.75 0.7,1.425 1.4,1.875 0.9,0.525 1.8,0.825 3,0.9 1.4,0 2.8,0 4.2,0 1.5,0 3,0 4.5,0 0.2,0 0.2,0 0.2,-0.15 0,-0.45 0,-0.975 0,-1.425 0,-0.15 0,-0.225 -0.3,-0.225 -2.7,0 -5.3,0 -8,0 -0.8,0 -1.4,-0.225 -1.8,-0.675 -0.3,-0.3 -0.5,-0.75 -0.5,-1.125 0,-0.45 0.3,-0.825 0.7,-1.125 0.4,-0.225 0.8,-0.45 1.4,-0.45 2.7,0 5.5,0 8.2,0 0.2,0 0.2,0 0.2,-0.15 0,-0.525 0,-0.975 0,-1.5 0.2,-0.15 0.1,-0.15 -0.1,-0.15 m 61.9,6.45 c -0.4,0 -0.8,0 -1.2,0 -0.2,0 -0.2,0 -0.2,-0.15 0,-1.2 0,-2.475 0,-3.675 0,-0.45 -0.3,-0.9 -0.8,-1.125 -0.3,-0.15 -0.6,-0.225 -0.9,-0.225 -0.7,0 -1.4,0 -2.1,0 -0.2,0 -0.2,0 -0.2,0.15 0,1.65 0,3.225 0,4.875 0,0.15 0,0.225 -0.3,0.225 -0.3,0 -0.7,0 -1,0 -0.2,0 -0.2,-0.075 -0.2,-0.15 0,-1.65 0,-3.225 0,-4.875 0,-0.15 -0.1,-0.225 -0.3,-0.225 -0.7,0 -1.4,0 -2,0 -0.6,0 -1.2,0.225 -1.5,0.6 -0.2,0.225 -0.3,0.45 -0.3,0.75 0,1.2 0,2.4 0,3.675 0,0.15 0,0.225 -0.3,0.225 -0.4,0 -0.8,0 -1.2,0 -0.1,0 -0.2,0 -0.2,-0.15 0,-1.425 0,-2.85 0,-4.275 0,-0.675 0.8,-1.35 1.6,-1.5 0.3,-0.075 0.7,-0.075 1,-0.075 1.3,0 2.6,0 3.9,0 1.4,0 2.8,0 4.2,0 0.9,0 1.5,0.3 2,0.825 0.2,0.225 0.3,0.525 0.3,0.825 0,1.35 0,2.775 0,4.125 -0.1,0.15 -0.1,0.15 -0.3,0.15 m -0.2,-5.925 c -0.6,-0.375 -1.2,-0.525 -2,-0.525 h -8.2 c -0.3,0 -0.6,0 -0.9,0.075 -0.6,0.15 -1.1,0.375 -1.5,0.75 -0.4,0.375 -0.7,0.75 -0.7,1.275 0,1.575 0,3.225 0,4.8 0,0.15 0,0.15 0.2,0.15 0.9,0 1.7,0 2.6,0 0.2,0 0.3,0 0.3,-0.15 0,-1.425 0,-2.775 0,-4.2 0,-0.3 0.2,-0.6 0.6,-0.75 0.2,-0.075 0.5,-0.075 0.7,-0.075 0.4,0 0.8,0 1.2,0 0.2,0 0.3,0.075 0.3,0.225 0,1.65 0,3.225 0,4.875 0,0.15 0,0.15 0.2,0.15 0.8,0 1.6,0 2.4,0 0.2,0 0.2,-0.075 0.2,-0.15 0,-1.125 0,-2.325 0,-3.45 0,-0.45 0,-0.975 0,-1.425 0,-0.075 0,-0.15 0.1,-0.15 0.5,0 1.1,0 1.6,0 0.6,0 1,0.375 1,0.825 0,1.35 0,2.775 0,4.125 0,0.15 0,0.15 0.2,0.15 0.9,0 1.7,0 2.6,0 0.2,0 0.2,-0.075 0.2,-0.15 0,-1.5 0,-3 0,-4.5 0,-0.825 -0.4,-1.425 -1.1,-1.875"
         style="fill:#000000;fill-opacity:1;stroke-width:0.86602539"
         inkscape:connector-curvature="0" /></g></g></svg>