<?xml version="1.0" encoding="UTF-8" standalone="no"?>
<!-- Generator: Adobe Illustrator 13.0.0, SVG Export Plug-In . SVG Version: 6.00 Build 14948)  -->

<svg
   xmlns:ns="&amp;#38;ns_sfw;"
   xmlns:dc="http://purl.org/dc/elements/1.1/"
   xmlns:cc="http://creativecommons.org/ns#"
   xmlns:rdf="http://www.w3.org/1999/02/22-rdf-syntax-ns#"
   xmlns:svg="http://www.w3.org/2000/svg"
   xmlns="http://www.w3.org/2000/svg"
   xmlns:sodipodi="http://sodipodi.sourceforge.net/DTD/sodipodi-0.dtd"
   xmlns:inkscape="http://www.inkscape.org/namespaces/inkscape"
   version="1.2"
   id="Layer_3"
   x="0px"
   y="0px"
   width="503.927"
   height="231.94125"
   viewBox="0 0 503.92698 231.94125"
   xml:space="preserve"
   inkscape:version="0.92.2 (5c3e80d, 2017-08-06)"
   sodipodi:docname="controller.svg"><defs
     id="defs121" /><sodipodi:namedview
     pagecolor="#ffffff"
     bordercolor="#666666"
     borderopacity="1"
     objecttolerance="10"
     gridtolerance="10"
     guidetolerance="10"
     inkscape:pageopacity="0"
     inkscape:pageshadow="2"
     inkscape:window-width="1920"
     inkscape:window-height="1017"
     id="namedview119"
     showgrid="false"
     fit-margin-top="0"
     fit-margin-left="0"
     fit-margin-right="0"
     fit-margin-bottom="0"
     inkscape:zoom="0.48145317"
     inkscape:cx="252.01351"
     inkscape:cy="150.976"
     inkscape:window-x="-8"
     inkscape:window-y="-8"
     inkscape:window-maximized="1"
     inkscape:current-layer="Layer_3" /><metadata
     id="metadata55"><rdf:RDF><cc:Work
         rdf:about=""><dc:format>image/svg+xml</dc:format><dc:type
           rdf:resource="http://purl.org/dc/dcmitype/StillImage" /><dc:title></dc:title></cc:Work></rdf:RDF><ns:sfw><ns:slices /><ns:sliceSourceBounds
         x="708.486"
         y="-7652"
         width="503.928"
         height="16383"
         bottomLeftOrigin="true" /></ns:sfw></metadata><g
     id="g3"
     transform="matrix(1,0,0,0.75,-47.081,-12.63825)"><path
       id="polyline5"
       d="m 82.189,26.116 v 83.276 h -3.15 v 1.708 h 4.005 0.854 v -0.854 -84.13 z"
       inkscape:connector-curvature="0"
       style="fill:#f4f4f4" /><path
       id="rect7"
       d="m 47.081,25.262 v 0.854 84.129 0.854 h 0.854 27.768 0.854 V 110.245 26.116 25.262 H 75.703 47.935 Z m 1.708,1.709 h 26.058 v 82.42 H 48.789 Z"
       inkscape:connector-curvature="0"
       style="fill:#f4f4f4" /><path
       id="rect9"
       d="m 269.116,25.262 v 0.854 84.129 0.854 h 0.854 280.184 0.854 V 110.245 26.116 25.262 H 550.154 269.97 Z m 1.708,1.709 H 549.3 v 82.42 H 270.824 Z"
       inkscape:connector-curvature="0"
       style="fill:#f4f4f4" /><path
       id="polyline11"
       d="m 89.532,26.116 v 83.276 h -3.15 v 1.708 h 4.004 0.854 v -0.854 -84.13 z"
       inkscape:connector-curvature="0"
       style="fill:#f4f4f4" /><path
       id="polyline13"
       d="m 96.874,26.116 v 83.276 h -3.15 v 1.708 h 4.005 0.854 v -0.854 -84.13 z"
       inkscape:connector-curvature="0"
       style="fill:#f4f4f4" /><path
       id="polyline15"
       d="m 104.243,26.116 v 83.276 h -3.177 v 1.708 h 4.032 0.854 v -0.854 -84.13 z"
       inkscape:connector-curvature="0"
       style="fill:#f4f4f4" /><path
       id="polyline17"
       d="m 111.585,26.116 v 83.276 h -3.177 v 1.708 h 4.032 0.854 v -0.854 -84.13 z"
       inkscape:connector-curvature="0"
       style="fill:#f4f4f4" /><path
       id="polyline19"
       d="m 118.928,26.116 v 83.276 h -3.177 v 1.708 h 4.032 0.854 v -0.854 -84.13 z"
       inkscape:connector-curvature="0"
       style="fill:#f4f4f4" /><path
       id="polyline21"
       d="m 126.271,26.116 v 83.276 h -3.177 v 1.708 h 4.031 0.855 v -0.854 -84.13 z"
       inkscape:connector-curvature="0"
       style="fill:#f4f4f4" /><path
       id="polyline23"
       d="m 133.611,26.116 v 83.276 h -3.177 v 1.708 h 4.032 0.854 v -0.854 -84.13 z"
       inkscape:connector-curvature="0"
       style="fill:#f4f4f4" /><path
       id="polyline25"
       d="m 140.959,26.116 v 83.276 h -3.177 v 1.708 h 4.032 0.854 v -0.854 -84.13 z"
       inkscape:connector-curvature="0"
       style="fill:#f4f4f4" /><path
       id="polyline27"
       d="m 148.298,26.116 v 83.276 h -3.177 v 1.708 h 4.031 0.854 v -0.854 -84.13 z"
       inkscape:connector-curvature="0"
       style="fill:#f4f4f4" /><path
       id="polyline29"
       d="m 155.638,26.116 v 83.276 h -3.177 v 1.708 h 4.032 0.854 v -0.854 -84.13 z"
       inkscape:connector-curvature="0"
       style="fill:#f4f4f4" /><path
       id="polyline31"
       d="m 162.985,26.116 v 83.276 h -3.177 v 1.708 h 4.032 0.854 v -0.854 -84.13 z"
       inkscape:connector-curvature="0"
       style="fill:#f4f4f4" /><path
       id="polyline33"
       d="m 170.324,26.116 v 83.276 h -3.178 v 1.708 h 4.032 0.854 v -0.854 -84.13 z"
       inkscape:connector-curvature="0"
       style="fill:#f4f4f4" /><path
       id="polyline35"
       d="m 177.663,26.116 v 83.276 h -3.177 v 1.708 h 4.032 0.854 v -0.854 -84.13 z"
       inkscape:connector-curvature="0"
       style="fill:#f4f4f4" /><path
       id="polyline37"
       d="m 185.011,26.116 v 83.276 h -3.177 v 1.708 h 4.032 0.854 v -0.854 -84.13 z"
       inkscape:connector-curvature="0"
       style="fill:#f4f4f4" /><path
       id="polyline39"
       d="m 192.35,26.116 v 83.276 h -3.178 v 1.708 h 4.032 0.854 v -0.854 -84.13 z"
       inkscape:connector-curvature="0"
       style="fill:#f4f4f4" /><path
       id="polyline41"
       d="m 199.689,26.116 v 83.276 h -3.177 v 1.708 h 4.032 0.854 v -0.854 -84.13 z"
       inkscape:connector-curvature="0"
       style="fill:#f4f4f4" /><path
       id="polyline43"
       d="m 207.037,26.116 v 83.276 h -3.177 v 1.708 h 4.032 0.854 v -0.854 -84.13 z"
       inkscape:connector-curvature="0"
       style="fill:#f4f4f4" /><path
       id="polyline45"
       d="m 214.376,26.116 v 83.276 h -3.178 v 1.708 h 4.032 0.855 v -0.854 -84.13 z"
       inkscape:connector-curvature="0"
       style="fill:#f4f4f4" /><path
       id="polyline47"
       d="m 221.724,26.116 v 83.276 h -3.178 v 1.708 h 4.032 0.854 v -0.854 -84.13 z"
       inkscape:connector-curvature="0"
       style="fill:#f4f4f4" /><path
       id="polyline49"
       d="m 229.063,26.116 v 83.276 h -3.177 v 1.708 h 4.032 0.854 v -0.854 -84.13 z"
       inkscape:connector-curvature="0"
       style="fill:#f4f4f4" /><path
       id="polyline51"
       d="m 236.402,26.116 v 83.276 h -3.178 v 1.708 h 4.032 0.855 v -0.854 -84.13 z"
       inkscape:connector-curvature="0"
       style="fill:#f4f4f4" /><path
       id="polyline53"
       d="m 243.749,26.116 v 83.276 h -3.177 v 1.708 h 4.032 0.854 v -0.854 -84.13 z"
       inkscape:connector-curvature="0"
       style="fill:#f4f4f4" /><path
       id="polyline55"
       d="m 251.088,26.116 v 83.276 h -3.177 v 1.708 h 4.032 0.854 v -0.854 -84.13 z"
       inkscape:connector-curvature="0"
       style="fill:#f4f4f4" /><path
       id="polyline57"
       d="m 258.436,26.116 v 83.276 h -3.177 v 1.708 h 4.032 0.854 v -0.854 -84.13 z"
       inkscape:connector-curvature="0"
       style="fill:#f4f4f4" /><path
       id="polyline59"
       d="m 265.775,26.116 v 83.276 h -3.178 v 1.708 h 4.032 0.854 v -0.854 -84.13 z"
       inkscape:connector-curvature="0"
       style="fill:#f4f4f4" /><path
       id="path61"
       d="m 341.737,35.461 c -0.906,0 -1.656,0.749 -1.656,1.655 v 32.893 c 0,0.905 0.75,1.656 1.656,1.656 H 538.62 c 0.906,0 1.655,-0.75 1.655,-1.656 V 37.116 c 0,-0.905 -0.749,-1.655 -1.655,-1.655 z m 0.054,1.708 H 538.563 V 69.956 H 341.791 Z"
       inkscape:connector-curvature="0"
       style="fill:#f4f4f4" /><path
       id="path63"
       d="m 347.53,40.24 c -1.128,0 -2.082,0.928 -2.082,2.056 V 64.83 c 0,1.128 0.954,2.056 2.082,2.056 h 148.261 c 0.799,0 1.368,-0.527 1.708,-1.201 h 0.348 V 64.83 42.296 c 0,-1.128 -0.926,-2.056 -2.056,-2.056 z m 0,1.709 h 148.261 c 0.205,0 0.347,0.142 0.347,0.347 v 21.68 0.854 c 0,0.205 -0.142,0.347 -0.347,0.347 H 347.53 c -0.204,0 -0.373,-0.143 -0.373,-0.347 V 42.296 c 0,-0.205 0.169,-0.347 0.373,-0.347 z"
       inkscape:connector-curvature="0"
       style="fill:#f4f4f4" /><path
       id="path65"
       d="m 349.794,43.043 c -0.684,0 -1.255,0.568 -1.255,1.255 v 18.529 c 0,0.687 0.571,1.255 1.255,1.255 h 143.988 c 0.686,0 1.256,-0.571 1.256,-1.255 V 44.298 c 0,-0.685 -0.57,-1.255 -1.256,-1.255 z m 0.454,1.709 H 493.33 V 62.374 H 350.248 Z"
       inkscape:connector-curvature="0"
       style="fill:#f4f4f4" /><path
       id="circle67"
       d="m 520.482,41.842 c -6.465,0 -11.721,5.257 -11.721,11.722 0,6.464 5.255,11.721 11.721,11.721 6.465,0 11.722,-5.257 11.722,-11.721 0,-6.465 -5.257,-11.722 -11.722,-11.722 z m 0,1.709 c 5.54,0 10.013,4.471 10.013,10.013 0,5.541 -4.473,10.012 -10.013,10.012 -5.541,0 -10.012,-4.471 -10.012,-10.012 10e-4,-5.542 4.471,-10.013 10.012,-10.013 z"
       inkscape:connector-curvature="0"
       style="fill:#f4f4f4" /></g><path
     id="path69"
     d="m 5.206,73.06875 c -0.906,0 -1.682,0.561 -1.682,1.24125 v 156.38925 c 0,0.6795 0.774,1.242 1.682,1.242 h 493.505 c 0.906,0 1.656,-0.56325 1.656,-1.242 V 74.31075 c 0,-0.67875 -0.752,-1.24125 -1.656,-1.24125 H 5.206 Z M 5.232,74.3505 H 498.661 V 230.66175 H 5.232 Z"
     inkscape:connector-curvature="0"
     style="fill:#f4f4f4;stroke-width:0.86602539" /><path
     id="path71"
     d="M 5.206,7.5e-4 C 4.299,7.5e-4 3.524,0.5625 3.524,1.242 V 7.029 H 5.232 V 1.28175 h 493.429 v 5.5875 h 1.708 V 1.242 C 500.369,0.5625 499.617,0 498.711,0 H 5.198 Z"
     inkscape:connector-curvature="0"
     style="fill:#f4f4f4;stroke-width:0.86602539" /><path
     id="path73"
     d="m 28.273,112.65675 c -1.795,0 -3.284,1.11525 -3.284,2.463 v 11.99475 c 0,1.347 1.487,2.463 3.284,2.463 h 15.993 c 1.796,0 3.258,-1.11525 3.258,-2.463 v -0.6405 -11.35425 c 0,-1.34625 -1.462,-2.463 -3.258,-2.463 z m 0,1.281 h 15.993 c 0.874,0 1.549,0.528 1.549,1.182 v 11.99475 c 0,0.654 -0.677,1.18125 -1.549,1.18125 H 28.273 c -0.872,0 -1.575,-0.528 -1.575,-1.18125 v -11.99475 c 0,-0.6555 0.702,-1.182 1.575,-1.182 z"
     inkscape:connector-curvature="0"
     style="fill:#f4f4f4;stroke-width:0.86602539" /><path
     id="path75"
     d="m 52.143,112.65675 c -1.795,0 -3.284,1.11525 -3.284,2.463 v 11.99475 c 0,1.347 1.487,2.463 3.284,2.463 h 15.993 c 1.796,0 3.284,-1.11525 3.284,-2.463 v -11.99475 c 0,-1.347 -1.489,-2.463 -3.284,-2.463 z m 0,1.281 h 15.993 c 0.874,0 1.575,0.528 1.575,1.182 v 11.99475 c 0,0.654 -0.702,1.18125 -1.575,1.18125 H 52.143 c -0.873,0 -1.575,-0.528 -1.575,-1.18125 v -11.99475 c -10e-4,-0.6555 0.701,-1.182 1.575,-1.182 z"
     inkscape:connector-curvature="0"
     style="fill:#f4f4f4;stroke-width:0.86602539" /><path
     id="path77"
     d="m 76.012,112.65675 c -1.794,0 -3.284,1.11525 -3.284,2.463 v 11.99475 c 0,1.34625 1.487,2.463 3.284,2.463 h 15.993 c 1.795,0 3.284,-1.11525 3.284,-2.463 v -11.99475 c 0,-1.34625 -1.488,-2.463 -3.284,-2.463 z m 0,1.281 h 15.993 c 0.873,0 1.575,0.528 1.575,1.182 v 11.99475 c 0,0.654 -0.703,1.18125 -1.575,1.18125 H 76.012 c -0.873,0 -1.575,-0.528 -1.575,-1.18125 v -11.99475 c 0,-0.6555 0.703,-1.182 1.575,-1.182 z"
     inkscape:connector-curvature="0"
     style="fill:#f4f4f4;stroke-width:0.86602539" /><path
     id="path79"
     d="m 99.884,112.65675 c -1.794,0 -3.256,1.11525 -3.256,2.463 v 11.99475 c 0,1.347 1.46,2.463 3.256,2.463 h 15.994 c 1.796,0 3.284,-1.11525 3.284,-2.463 v -11.99475 c 0,-1.347 -1.489,-2.463 -3.284,-2.463 z m 0,1.281 h 15.994 c 0.874,0 1.575,0.528 1.575,1.182 v 11.99475 c 0,0.654 -0.702,1.18125 -1.575,1.18125 H 99.884 c -0.872,0 -1.548,-0.528 -1.548,-1.18125 v -11.99475 c 0,-0.6555 0.674,-1.182 1.548,-1.182 z"
     inkscape:connector-curvature="0"
     style="fill:#f4f4f4;stroke-width:0.86602539" /><path
     id="path81"
     d="m 123.747,112.65675 c -1.794,0 -3.257,1.11525 -3.257,2.463 v 11.99475 c 0,1.34625 1.46,2.463 3.257,2.463 h 16.02 c 1.795,0 3.257,-1.11525 3.257,-2.463 v -11.99475 c 0,-1.34625 -1.462,-2.463 -3.257,-2.463 z m 0,1.281 h 16.02 c 0.874,0 1.548,0.528 1.548,1.182 v 11.99475 c 0,0.654 -0.676,1.18125 -1.548,1.18125 h -16.02 c -0.873,0 -1.548,-0.528 -1.548,-1.18125 v -11.99475 c 0,-0.6555 0.675,-1.182 1.548,-1.182 z"
     inkscape:connector-curvature="0"
     style="fill:#f4f4f4;stroke-width:0.86602539" /><path
     id="path83"
     d="m 147.618,112.65675 c -1.795,0 -3.257,1.11525 -3.257,2.463 v 11.99475 c 0,1.347 1.461,2.463 3.257,2.463 h 16.02 c 1.796,0 3.257,-1.11525 3.257,-2.463 v -11.99475 c 0,-1.347 -1.462,-2.463 -3.257,-2.463 z m 0,1.281 h 16.02 c 0.874,0 1.549,0.528 1.549,1.182 v 11.99475 c 0,0.654 -0.676,1.18125 -1.549,1.18125 h -16.02 c -0.872,0 -1.548,-0.528 -1.548,-1.18125 v -11.99475 c 0,-0.6555 0.675,-1.182 1.548,-1.182 z"
     inkscape:connector-curvature="0"
     style="fill:#f4f4f4;stroke-width:0.86602539" /><path
     id="path85"
     d="m 171.516,112.65675 c -1.794,0 -3.284,1.11525 -3.284,2.463 v 11.99475 c 0,1.347 1.488,2.463 3.284,2.463 h 15.993 c 1.795,0 3.257,-1.11525 3.257,-2.463 v -11.99475 c 0,-1.347 -1.463,-2.463 -3.257,-2.463 z m 0,1.281 h 15.993 c 0.872,0 1.548,0.528 1.548,1.182 v 11.99475 c 0,0.654 -0.678,1.18125 -1.548,1.18125 h -15.993 c -0.871,0 -1.575,-0.528 -1.575,-1.18125 v -11.99475 c -0.001,-0.6555 0.703,-1.182 1.575,-1.182 z"
     inkscape:connector-curvature="0"
     style="fill:#f4f4f4;stroke-width:0.86602539" /><path
     id="path87"
     d="m 195.387,112.65675 c -1.794,0 -3.284,1.11525 -3.284,2.463 v 11.99475 c 0,1.347 1.489,2.463 3.284,2.463 h 15.993 c 1.795,0 3.284,-1.11525 3.284,-2.463 v -11.99475 c 0,-1.347 -1.49,-2.463 -3.284,-2.463 z m 0,1.281 h 15.993 c 0.871,0 1.576,0.528 1.576,1.182 v 11.99475 c 0,0.654 -0.705,1.18125 -1.576,1.18125 h -15.993 c -0.871,0 -1.576,-0.528 -1.576,-1.18125 v -11.99475 c 0,-0.6555 0.704,-1.182 1.576,-1.182 z"
     inkscape:connector-curvature="0"
     style="fill:#f4f4f4;stroke-width:0.86602539" /><path
     id="path89"
     d="m 219.25,112.65675 c -1.794,0 -3.257,1.11525 -3.257,2.463 v 11.99475 c 0,1.34625 1.46,2.463 3.257,2.463 h 15.993 c 1.797,0 3.284,-1.11525 3.284,-2.463 v -11.99475 c 0,-1.347 -1.488,-2.463 -3.284,-2.463 z m 0,1.281 h 15.993 c 0.874,0 1.575,0.528 1.575,1.182 v 11.99475 c 0,0.654 -0.702,1.18125 -1.575,1.18125 H 219.25 c -0.873,0 -1.548,-0.528 -1.548,-1.18125 v -11.99475 c -0.001,-0.6555 0.675,-1.182 1.548,-1.182 z"
     inkscape:connector-curvature="0"
     style="fill:#f4f4f4;stroke-width:0.86602539" /><path
     id="path91"
     d="m 243.121,112.65675 c -1.795,0 -3.258,1.11525 -3.258,2.463 v 11.99475 c 0,1.34625 1.461,2.463 3.258,2.463 h 15.993 c 1.796,0 3.284,-1.11525 3.284,-2.463 v -11.99475 c 0,-1.34625 -1.488,-2.463 -3.284,-2.463 z m 0,1.281 h 15.993 c 0.872,0 1.575,0.528 1.575,1.182 v 11.99475 c 0,0.654 -0.704,1.18125 -1.575,1.18125 h -15.993 c -0.873,0 -1.549,-0.528 -1.549,-1.18125 v -11.99475 c 0,-0.6555 0.676,-1.182 1.549,-1.182 z"
     inkscape:connector-curvature="0"
     style="fill:#f4f4f4;stroke-width:0.86602539" /><path
     id="path93"
     d="m 407.674,86.904 c -1.795,0 -3.283,1.0965 -3.283,2.44275 v 12.0135 c 0,1.347 1.488,2.44275 3.283,2.44275 h 15.993 c 1.794,0 3.284,-1.095 3.284,-2.44275 v -12.0135 c 0,-1.347 -1.489,-2.44275 -3.284,-2.44275 z m 0,1.281 h 15.993 c 0.871,0 1.575,0.50775 1.575,1.16175 v 12.0135 c 0,0.6555 -0.704,1.16175 -1.575,1.16175 h -15.993 c -0.875,0 -1.575,-0.50625 -1.575,-1.16175 v -12.0135 c 0,-0.6555 0.702,-1.16175 1.575,-1.16175 z"
     inkscape:connector-curvature="0"
     style="fill:#f4f4f4;stroke-width:0.86602539" /><path
     id="path95"
     d="m 431.537,86.904 c -1.796,0 -3.258,1.09575 -3.258,2.44275 v 12.0135 c 0,1.347 1.462,2.44275 3.258,2.44275 h 15.992 c 1.796,0 3.284,-1.09575 3.284,-2.44275 v -12.0135 c 0,-1.34625 -1.486,-2.44275 -3.284,-2.44275 z m 0,1.281 h 15.992 c 0.874,0 1.576,0.507 1.576,1.16175 v 12.0135 c 0,0.6555 -0.702,1.16175 -1.576,1.16175 h -15.992 c -0.873,0 -1.549,-0.50625 -1.549,-1.16175 v -12.0135 c 0,-0.65475 0.678,-1.16175 1.549,-1.16175 z"
     inkscape:connector-curvature="0"
     style="fill:#f4f4f4;stroke-width:0.86602539" /><path
     id="path97"
     d="m 455.408,86.904 c -1.794,0 -3.258,1.09575 -3.258,2.44275 v 12.0135 c 0,1.347 1.464,2.44275 3.258,2.44275 h 16.02 c 1.794,0 3.258,-1.095 3.258,-2.44275 v -12.0135 c 0,-1.347 -1.463,-2.44275 -3.258,-2.44275 z m 0,1.281 h 16.02 c 0.871,0 1.549,0.50775 1.549,1.16175 v 12.0135 c 0,0.6555 -0.678,1.16175 -1.549,1.16175 h -16.02 c -0.872,0 -1.549,-0.50625 -1.549,-1.16175 v -12.0135 c 0,-0.65475 0.679,-1.16175 1.549,-1.16175 z"
     inkscape:connector-curvature="0"
     style="fill:#f4f4f4;stroke-width:0.86602539" /><path
     id="path99"
     d="m 266.992,112.65675 c -1.796,0 -3.257,1.11525 -3.257,2.463 v 11.99475 c 0,1.347 1.46,2.463 3.257,2.463 h 16.021 c 1.793,0 3.256,-1.11525 3.256,-2.463 v -11.99475 c 0,-1.347 -1.463,-2.463 -3.256,-2.463 z m 0,1.281 h 16.021 c 0.872,0 1.548,0.528 1.548,1.182 v 11.99475 c 0,0.65325 -0.68,1.18125 -1.548,1.18125 h -16.021 c -0.872,0 -1.549,-0.528 -1.549,-1.18125 v -11.99475 c 0,-0.654 0.677,-1.182 1.549,-1.182 z"
     inkscape:connector-curvature="0"
     style="fill:#f4f4f4;stroke-width:0.86602539" /><path
     id="path101"
     d="m 290.863,112.65675 c -1.794,0 -3.258,1.11525 -3.258,2.463 v 11.99475 c 0,1.34625 1.46,2.463 3.258,2.463 h 16.02 c 1.796,0 3.258,-1.11525 3.258,-2.463 v -11.99475 c 0,-1.34625 -1.462,-2.463 -3.258,-2.463 z m 0,1.281 h 16.02 c 0.873,0 1.549,0.528 1.549,1.182 v 11.99475 c 0,0.654 -0.678,1.18125 -1.549,1.18125 h -16.02 c -0.873,0 -1.548,-0.528 -1.548,-1.18125 v -11.99475 c 0,-0.6555 0.675,-1.182 1.548,-1.182 z"
     inkscape:connector-curvature="0"
     style="fill:#f4f4f4;stroke-width:0.86602539" /><path
     id="path103"
     d="m 314.76,112.65675 c -1.794,0 -3.284,1.11525 -3.284,2.463 v 11.99475 c 0,1.347 1.488,2.463 3.284,2.463 h 15.992 c 1.798,0 3.258,-1.11525 3.258,-2.463 v -11.99475 c 0,-1.34625 -1.462,-2.463 -3.258,-2.463 z m 0,1.281 h 15.992 c 0.875,0 1.549,0.528 1.549,1.182 v 11.99475 c 0,0.654 -0.675,1.18125 -1.549,1.18125 H 314.76 c -0.871,0 -1.576,-0.528 -1.576,-1.18125 v -11.99475 c 0,-0.654 0.703,-1.182 1.576,-1.182 z"
     inkscape:connector-curvature="0"
     style="fill:#f4f4f4;stroke-width:0.86602539" /><path
     id="path105"
     d="m 338.622,112.65675 c -1.794,0 -3.284,1.11525 -3.284,2.463 v 11.99475 c 0,1.34625 1.489,2.463 3.284,2.463 h 15.993 c 1.797,0 3.284,-1.11525 3.284,-2.463 v -11.99475 c 0,-1.34625 -1.488,-2.463 -3.284,-2.463 z m 0,1.281 h 15.993 c 0.874,0 1.575,0.528 1.575,1.182 v 11.99475 c 0,0.654 -0.703,1.18125 -1.575,1.18125 h -15.993 c -0.871,0 -1.575,-0.528 -1.575,-1.18125 v -11.99475 c 0,-0.6555 0.702,-1.182 1.575,-1.182 z"
     inkscape:connector-curvature="0"
     style="fill:#f4f4f4;stroke-width:0.86602539" /><path
     id="path107"
     d="m 362.495,112.65675 c -1.796,0 -3.258,1.11525 -3.258,2.463 v 11.99475 c 0,1.347 1.461,2.463 3.258,2.463 h 15.993 c 1.793,0 3.283,-1.11525 3.283,-2.463 v -11.99475 c 0,-1.347 -1.49,-2.463 -3.283,-2.463 z m 0,1.281 h 15.993 c 0.871,0 1.575,0.528 1.575,1.182 v 11.99475 c 0,0.65325 -0.706,1.18125 -1.575,1.18125 h -15.993 c -0.873,0 -1.549,-0.528 -1.549,-1.18125 v -11.99475 c 0,-0.654 0.676,-1.182 1.549,-1.182 z"
     inkscape:connector-curvature="0"
     style="fill:#f4f4f4;stroke-width:0.86602539" /><path
     id="path109"
     d="m 40.475,148.50225 c -1.795,0 -3.284,1.09725 -3.284,2.4435 v 11.994 c 0,1.34775 1.489,2.463 3.284,2.463 h 21.227 c 1.795,0 3.284,-1.11525 3.284,-2.463 v -0.6405 -11.3535 c 0,-1.34625 -1.487,-2.4435 -3.284,-2.4435 z m 0,1.28175 h 21.227 c 0.873,0 1.575,0.5085 1.575,1.16175 v 11.994 c 0,0.6555 -0.702,1.182 -1.575,1.182 H 40.475 c -0.873,0 -1.575,-0.52575 -1.575,-1.182 v -11.994 C 38.899,150.291 39.604,149.784 40.475,149.784 Z"
     inkscape:connector-curvature="0"
     style="fill:#f4f4f4;stroke-width:0.86602539" /><path
     id="path111"
     d="m 69.578,148.50225 c -1.796,0 -3.257,1.09575 -3.257,2.4435 v 11.994 c 0,1.347 1.46,2.463 3.257,2.463 h 15.993 c 1.795,0 3.285,-1.11525 3.285,-2.463 v -11.994 c 0,-1.34775 -1.489,-2.4435 -3.285,-2.4435 z m 0,1.28175 h 15.993 c 0.874,0 1.576,0.507 1.576,1.16175 v 11.994 c 0,0.65475 -0.702,1.182 -1.576,1.182 H 69.578 c -0.873,0 -1.549,-0.528 -1.549,-1.182 v -11.994 c 0,-0.65625 0.676,-1.16175 1.549,-1.16175 z"
     inkscape:connector-curvature="0"
     style="fill:#f4f4f4;stroke-width:0.86602539" /><path
     id="path113"
     d="m 93.451,148.50225 c -1.795,0 -3.258,1.09575 -3.258,2.4435 v 11.994 c 0,1.34625 1.461,2.463 3.258,2.463 h 16.02 c 1.795,0 3.257,-1.11525 3.257,-2.463 v -11.994 c 0,-1.34625 -1.461,-2.4435 -3.257,-2.4435 z m 0,1.28175 h 16.02 c 0.873,0 1.548,0.507 1.548,1.16175 v 11.994 c 0,0.65475 -0.676,1.182 -1.548,1.182 h -16.02 c -0.873,0 -1.549,-0.528 -1.549,-1.182 v -11.994 c 0,-0.65625 0.677,-1.16175 1.549,-1.16175 z"
     inkscape:connector-curvature="0"
     style="fill:#f4f4f4;stroke-width:0.86602539" /><path
     id="path115"
     d="m 117.314,148.50225 c -1.795,0 -3.257,1.09575 -3.257,2.4435 v 11.994 c 0,1.347 1.461,2.463 3.257,2.463 h 16.02 c 1.796,0 3.258,-1.11525 3.258,-2.463 v -11.994 c 0,-1.34775 -1.462,-2.4435 -3.258,-2.4435 z m 0,1.28175 h 16.02 c 0.874,0 1.549,0.507 1.549,1.16175 v 11.994 c 0,0.65475 -0.675,1.182 -1.549,1.182 h -16.02 c -0.873,0 -1.549,-0.528 -1.549,-1.182 v -11.994 c 0,-0.65625 0.675,-1.16175 1.549,-1.16175 z"
     inkscape:connector-curvature="0"
     style="fill:#f4f4f4;stroke-width:0.86602539" /><path
     id="path117"
     d="m 141.211,148.50225 c -1.794,0 -3.284,1.09575 -3.284,2.4435 v 11.994 c 0,1.34625 1.488,2.463 3.284,2.463 h 15.993 c 1.795,0 3.257,-1.11525 3.257,-2.463 v -11.994 c 0,-1.34625 -1.461,-2.4435 -3.257,-2.4435 z m 0,1.28175 h 15.993 c 0.873,0 1.548,0.507 1.548,1.16175 v 11.994 c 0,0.65475 -0.676,1.182 -1.548,1.182 h -15.993 c -0.873,0 -1.575,-0.528 -1.575,-1.182 v -11.994 c -0.001,-0.65625 0.702,-1.16175 1.575,-1.16175 z"
     inkscape:connector-curvature="0"
     style="fill:#f4f4f4;stroke-width:0.86602539" /><path
     id="path119"
     d="m 165.082,148.50225 c -1.796,0 -3.284,1.09575 -3.284,2.4435 v 11.994 c 0,1.347 1.487,2.463 3.284,2.463 h 15.993 c 1.796,0 3.285,-1.11525 3.285,-2.463 v -11.994 c 0,-1.34775 -1.488,-2.4435 -3.285,-2.4435 z m 0,1.28175 h 15.993 c 0.874,0 1.576,0.507 1.576,1.16175 v 11.994 c 0,0.65475 -0.702,1.182 -1.576,1.182 h -15.993 c -0.873,0 -1.575,-0.528 -1.575,-1.182 v -11.994 c 0,-0.65625 0.702,-1.16175 1.575,-1.16175 z"
     inkscape:connector-curvature="0"
     style="fill:#f4f4f4;stroke-width:0.86602539" /><path
     id="path121"
     d="m 188.953,148.50225 c -1.794,0 -3.284,1.09575 -3.284,2.4435 v 11.994 c 0,1.34775 1.489,2.463 3.284,2.463 h 15.993 c 1.796,0 3.284,-1.11525 3.284,-2.463 v -11.994 c 0,-1.34775 -1.488,-2.4435 -3.284,-2.4435 z m 0,1.28175 h 15.993 c 0.874,0 1.575,0.507 1.575,1.16175 v 11.994 c 0,0.65475 -0.702,1.182 -1.575,1.182 h -15.993 c -0.871,0 -1.575,-0.528 -1.575,-1.182 v -11.994 c 0,-0.65625 0.704,-1.16175 1.575,-1.16175 z"
     inkscape:connector-curvature="0"
     style="fill:#f4f4f4;stroke-width:0.86602539" /><path
     id="path123"
     d="m 212.816,148.50225 c -1.794,0 -3.257,1.09575 -3.257,2.4435 v 11.994 c 0,1.347 1.462,2.463 3.257,2.463 h 15.993 c 1.794,0 3.284,-1.11525 3.284,-2.463 v -11.994 c 0,-1.34775 -1.489,-2.4435 -3.284,-2.4435 z m 0,1.28175 h 15.993 c 0.871,0 1.576,0.507 1.576,1.16175 v 11.994 c 0,0.65475 -0.705,1.182 -1.576,1.182 h -15.993 c -0.871,0 -1.549,-0.528 -1.549,-1.182 v -11.994 c 0,-0.65625 0.677,-1.16175 1.549,-1.16175 z"
     inkscape:connector-curvature="0"
     style="fill:#f4f4f4;stroke-width:0.86602539" /><path
     id="path125"
     d="m 236.688,148.50225 c -1.795,0 -3.258,1.09575 -3.258,2.4435 v 11.994 c 0,1.34625 1.461,2.463 3.258,2.463 h 16.019 c 1.796,0 3.258,-1.11525 3.258,-2.463 v -11.994 c 0,-1.34625 -1.461,-2.4435 -3.258,-2.4435 z m 0,1.28175 h 16.019 c 0.875,0 1.549,0.507 1.549,1.16175 v 11.994 c 0,0.65475 -0.676,1.182 -1.549,1.182 h -16.019 c -0.873,0 -1.549,-0.528 -1.549,-1.182 v -11.994 c 0,-0.65625 0.676,-1.16175 1.549,-1.16175 z"
     inkscape:connector-curvature="0"
     style="fill:#f4f4f4;stroke-width:0.86602539" /><path
     id="path127"
     d="m 260.559,148.50225 c -1.796,0 -3.257,1.09575 -3.257,2.4435 v 11.994 c 0,1.34625 1.461,2.463 3.257,2.463 h 16.02 c 1.795,0 3.256,-1.11525 3.256,-2.463 v -11.994 c 0,-1.34625 -1.46,-2.4435 -3.256,-2.4435 z m 0,1.28175 h 16.02 c 0.874,0 1.548,0.507 1.548,1.16175 v 11.994 c 0,0.65475 -0.676,1.182 -1.548,1.182 h -16.02 c -0.871,0 -1.549,-0.528 -1.549,-1.182 v -11.994 c 0,-0.65625 0.678,-1.16175 1.549,-1.16175 z"
     inkscape:connector-curvature="0"
     style="fill:#f4f4f4;stroke-width:0.86602539" /><path
     id="path129"
     d="m 284.455,148.50225 c -1.795,0 -3.283,1.09575 -3.283,2.4435 v 11.994 c 0,1.347 1.488,2.463 3.283,2.463 h 15.994 c 1.795,0 3.257,-1.11525 3.257,-2.463 v -11.994 c 0,-1.34775 -1.462,-2.4435 -3.257,-2.4435 z m 0,1.28175 h 15.994 c 0.872,0 1.548,0.507 1.548,1.16175 v 11.994 c 0,0.654 -0.678,1.182 -1.548,1.182 h -15.994 c -0.873,0 -1.574,-0.528 -1.574,-1.182 v -11.994 c 0,-0.65625 0.701,-1.16175 1.574,-1.16175 z"
     inkscape:connector-curvature="0"
     style="fill:#f4f4f4;stroke-width:0.86602539" /><path
     id="path131"
     d="m 308.326,148.50225 c -1.794,0 -3.284,1.09575 -3.284,2.4435 v 11.994 c 0,1.34625 1.489,2.463 3.284,2.463 h 15.993 c 1.796,0 3.284,-1.11525 3.284,-2.463 v -11.994 c 0,-1.34625 -1.488,-2.4435 -3.284,-2.4435 z m 0,1.28175 h 15.993 c 0.873,0 1.575,0.507 1.575,1.16175 v 11.994 c 0,0.65475 -0.702,1.182 -1.575,1.182 h -15.993 c -0.872,0 -1.574,-0.528 -1.574,-1.182 v -11.994 c 0,-0.65625 0.702,-1.16175 1.574,-1.16175 z"
     inkscape:connector-curvature="0"
     style="fill:#f4f4f4;stroke-width:0.86602539" /><path
     id="path133"
     d="m 332.19,148.50225 c -1.794,0 -3.258,1.09575 -3.258,2.4435 v 11.994 c 0,1.347 1.462,2.463 3.258,2.463 h 15.993 c 1.796,0 3.284,-1.11525 3.284,-2.463 v -11.994 c 0,-1.34625 -1.488,-2.4435 -3.284,-2.4435 z m 0,1.28175 h 15.993 c 0.872,0 1.575,0.507 1.575,1.16175 v 11.994 c 0,0.65475 -0.703,1.182 -1.575,1.182 H 332.19 c -0.873,0 -1.549,-0.528 -1.549,-1.182 v -11.994 c 0,-0.65625 0.675,-1.16175 1.549,-1.16175 z"
     inkscape:connector-curvature="0"
     style="fill:#f4f4f4;stroke-width:0.86602539" /><path
     id="path135"
     d="m 356.06,148.50225 c -1.793,0 -3.257,1.09575 -3.257,2.4435 v 11.994 c 0,1.34625 1.462,2.463 3.257,2.463 h 16.021 c 1.796,0 3.258,-1.11525 3.258,-2.463 v -11.994 c 0,-1.34625 -1.462,-2.4435 -3.258,-2.4435 z m 0,1.28175 h 16.021 c 0.872,0 1.548,0.507 1.548,1.16175 v 11.994 c 0,0.65475 -0.676,1.182 -1.548,1.182 H 356.06 c -0.872,0 -1.548,-0.528 -1.548,-1.182 v -11.994 c 0,-0.65625 0.676,-1.16175 1.548,-1.16175 z"
     inkscape:connector-curvature="0"
     style="fill:#f4f4f4;stroke-width:0.86602539" /><path
     id="path137"
     d="m 45.709,166.4055 c -1.796,0 -3.284,1.11525 -3.284,2.463 v 11.994 c 0,1.347 1.488,2.46375 3.284,2.46375 h 27.26 c 1.795,0 3.284,-1.116 3.284,-2.46375 v -11.994 c 0,-1.347 -1.487,-2.463 -3.284,-2.463 z m 0,1.281 h 27.26 c 0.872,0 1.575,0.528 1.575,1.182 v 11.994 c 0,0.6555 -0.703,1.18275 -1.575,1.18275 h -27.26 c -0.873,0 -1.576,-0.528 -1.576,-1.18275 v -11.994 c 0,-0.654 0.704,-1.182 1.576,-1.182 z"
     inkscape:connector-curvature="0"
     style="fill:#f4f4f4;stroke-width:0.86602539" /><path
     id="path139"
     d="m 80.844,166.4055 c -1.795,0 -3.257,1.11525 -3.257,2.463 v 11.994 c 0,1.347 1.461,2.46375 3.257,2.46375 h 16.02 c 1.796,0 3.257,-1.116 3.257,-2.46375 v -11.994 c 0,-1.347 -1.46,-2.463 -3.257,-2.463 z m 0,1.281 h 16.02 c 0.872,0 1.548,0.528 1.548,1.182 v 11.994 c 0,0.6555 -0.675,1.18275 -1.548,1.18275 h -16.02 c -0.873,0 -1.548,-0.528 -1.548,-1.18275 v -11.994 c 0,-0.654 0.677,-1.182 1.548,-1.182 z"
     inkscape:connector-curvature="0"
     style="fill:#f4f4f4;stroke-width:0.86602539" /><path
     id="path141"
     d="m 104.712,166.4055 c -1.796,0 -3.257,1.11525 -3.257,2.463 v 11.994 c 0,1.347 1.46,2.46375 3.257,2.46375 h 16.019 c 1.796,0 3.258,-1.116 3.258,-2.46375 v -11.994 c 0,-1.347 -1.461,-2.463 -3.258,-2.463 z m 0,1.281 h 16.019 c 0.873,0 1.548,0.528 1.548,1.182 v 11.994 c 0,0.6555 -0.675,1.18275 -1.548,1.18275 h -16.019 c -0.873,0 -1.549,-0.528 -1.549,-1.18275 v -11.994 c 0,-0.654 0.677,-1.182 1.549,-1.182 z"
     inkscape:connector-curvature="0"
     style="fill:#f4f4f4;stroke-width:0.86602539" /><path
     id="path143"
     d="m 128.609,166.4055 c -1.796,0 -3.284,1.11675 -3.284,2.463 v 11.994 c 0,1.347 1.488,2.46375 3.284,2.46375 h 15.993 c 1.796,0 3.257,-1.116 3.257,-2.46375 v -11.994 c 0,-1.347 -1.46,-2.463 -3.257,-2.463 z m 0,1.281 h 15.993 c 0.873,0 1.549,0.528 1.549,1.182 v 11.994 c 0,0.6555 -0.675,1.18275 -1.549,1.18275 h -15.993 c -0.874,0 -1.575,-0.528 -1.575,-1.18275 v -11.994 c 0,-0.65475 0.701,-1.182 1.575,-1.182 z"
     inkscape:connector-curvature="0"
     style="fill:#f4f4f4;stroke-width:0.86602539" /><path
     id="path145"
     d="m 152.48,166.4055 c -1.796,0 -3.284,1.11675 -3.284,2.463 v 11.994 c 0,1.347 1.487,2.46375 3.284,2.46375 h 15.993 c 1.796,0 3.284,-1.116 3.284,-2.46375 v -11.994 c 0,-1.347 -1.487,-2.463 -3.284,-2.463 z m 0,1.281 h 15.993 c 0.873,0 1.575,0.528 1.575,1.182 v 11.994 c 0,0.6555 -0.702,1.18275 -1.575,1.18275 H 152.48 c -0.872,0 -1.575,-0.528 -1.575,-1.18275 v -11.994 c -0.001,-0.65475 0.702,-1.182 1.575,-1.182 z"
     inkscape:connector-curvature="0"
     style="fill:#f4f4f4;stroke-width:0.86602539" /><path
     id="path147"
     d="m 176.351,166.4055 c -1.796,0 -3.284,1.11675 -3.284,2.463 v 11.994 c 0,1.347 1.488,2.46375 3.284,2.46375 h 15.993 c 1.796,0 3.284,-1.116 3.284,-2.46375 v -11.994 c 0,-1.347 -1.488,-2.463 -3.284,-2.463 z m 0,1.281 h 15.993 c 0.873,0 1.575,0.528 1.575,1.182 v 11.994 c 0,0.6555 -0.702,1.18275 -1.575,1.18275 h -15.993 c -0.873,0 -1.575,-0.528 -1.575,-1.18275 v -11.994 c 0,-0.65475 0.702,-1.182 1.575,-1.182 z"
     inkscape:connector-curvature="0"
     style="fill:#f4f4f4;stroke-width:0.86602539" /><path
     id="path149"
     d="m 200.213,166.4055 c -1.795,0 -3.257,1.11525 -3.257,2.463 v 11.994 c 0,1.347 1.461,2.46375 3.257,2.46375 h 15.994 c 1.795,0 3.284,-1.116 3.284,-2.46375 v -11.994 c 0,-1.34625 -1.488,-2.463 -3.284,-2.463 z m 0,1.281 h 15.994 c 0.872,0 1.576,0.528 1.576,1.182 v 11.994 c 0,0.6555 -0.704,1.18275 -1.576,1.18275 h -15.994 c -0.873,0 -1.548,-0.528 -1.548,-1.18275 v -11.994 c 0,-0.654 0.677,-1.182 1.548,-1.182 z"
     inkscape:connector-curvature="0"
     style="fill:#f4f4f4;stroke-width:0.86602539" /><path
     id="path151"
     d="m 224.085,166.4055 c -1.795,0 -3.257,1.11525 -3.257,2.463 v 11.994 c 0,1.34775 1.461,2.46375 3.257,2.46375 h 16.02 c 1.796,0 3.257,-1.116 3.257,-2.46375 v -11.994 c 0,-1.34625 -1.46,-2.463 -3.257,-2.463 z m 0,1.281 h 16.02 c 0.873,0 1.549,0.528 1.549,1.182 v 11.994 c 0,0.6555 -0.677,1.18275 -1.549,1.18275 h -16.02 c -0.871,0 -1.548,-0.528 -1.548,-1.18275 v -11.994 c 0,-0.654 0.676,-1.182 1.548,-1.182 z"
     inkscape:connector-curvature="0"
     style="fill:#f4f4f4;stroke-width:0.86602539" /><path
     id="path153"
     d="m 247.982,166.4055 c -1.796,0 -3.284,1.11525 -3.284,2.463 v 11.994 c 0,1.347 1.487,2.46375 3.284,2.46375 h 15.993 c 1.795,0 3.257,-1.116 3.257,-2.46375 v -11.994 c 0,-1.34625 -1.46,-2.463 -3.257,-2.463 z m 0,1.281 h 15.993 c 0.872,0 1.548,0.528 1.548,1.182 v 11.994 c 0,0.6555 -0.676,1.18275 -1.548,1.18275 h -15.993 c -0.873,0 -1.575,-0.528 -1.575,-1.18275 v -11.994 c 0,-0.654 0.703,-1.182 1.575,-1.182 z"
     inkscape:connector-curvature="0"
     style="fill:#f4f4f4;stroke-width:0.86602539" /><path
     id="path155"
     d="m 271.853,166.4055 c -1.795,0 -3.283,1.11525 -3.283,2.463 v 11.994 c 0,1.34775 1.488,2.46375 3.283,2.46375 h 15.993 c 1.796,0 3.258,-1.116 3.258,-2.46375 v -11.994 c 0,-1.34625 -1.46,-2.463 -3.258,-2.463 z m 0,1.281 h 15.993 c 0.873,0 1.55,0.528 1.55,1.182 v 11.994 c 0,0.6555 -0.677,1.18275 -1.55,1.18275 h -15.993 c -0.872,0 -1.574,-0.528 -1.574,-1.18275 v -11.994 c -10e-4,-0.654 0.703,-1.182 1.574,-1.182 z"
     inkscape:connector-curvature="0"
     style="fill:#f4f4f4;stroke-width:0.86602539" /><path
     id="path157"
     d="m 295.716,166.4055 c -1.795,0 -3.283,1.11525 -3.283,2.463 v 11.994 c 0,1.347 1.488,2.46375 3.283,2.46375 h 15.993 c 1.796,0 3.284,-1.116 3.284,-2.46375 v -0.6405 -11.35425 c 0,-1.34625 -1.487,-2.463 -3.284,-2.463 h -15.993 z m 0,1.281 h 15.993 c 0.872,0 1.576,0.528 1.576,1.182 v 11.994 c 0,0.6555 -0.704,1.18275 -1.576,1.18275 h -15.993 c -0.873,0 -1.575,-0.528 -1.575,-1.18275 v -11.994 c 0,-0.654 0.704,-1.182 1.575,-1.182 z"
     inkscape:connector-curvature="0"
     style="fill:#f4f4f4;stroke-width:0.86602539" /><path
     id="path159"
     d="m 319.588,166.4055 c -1.796,0 -3.258,1.11525 -3.258,2.463 v 11.994 c 0,1.34775 1.462,2.46375 3.258,2.46375 h 15.992 c 1.795,0 3.284,-1.116 3.284,-2.46375 v -11.994 c 0,-1.34625 -1.487,-2.463 -3.284,-2.463 z m 0,1.281 h 15.992 c 0.873,0 1.575,0.528 1.575,1.182 v 11.994 c 0,0.6555 -0.702,1.18275 -1.575,1.18275 h -15.992 c -0.874,0 -1.55,-0.528 -1.55,-1.18275 v -11.994 c 0,-0.654 0.678,-1.182 1.55,-1.182 z"
     inkscape:connector-curvature="0"
     style="fill:#f4f4f4;stroke-width:0.86602539" /><path
     id="path161"
     d="m 343.458,166.4055 c -1.795,0 -3.257,1.11525 -3.257,2.463 v 11.994 c 0,1.347 1.462,2.46375 3.257,2.46375 h 28.89 c 1.795,0 3.283,-1.116 3.283,-2.46375 v -11.994 c 0,-1.34625 -1.486,-2.463 -3.283,-2.463 z m 0,1.281 h 28.89 c 0.872,0 1.574,0.528 1.574,1.182 v 11.994 c 0,0.6555 -0.702,1.18275 -1.574,1.18275 h -28.89 c -0.873,0 -1.549,-0.528 -1.549,-1.18275 v -11.994 c 0,-0.654 0.678,-1.182 1.549,-1.182 z"
     inkscape:connector-curvature="0"
     style="fill:#f4f4f4;stroke-width:0.86602539" /><path
     id="path163"
     d="m 80.871,184.3275 c -1.795,0 -3.284,1.0965 -3.284,2.4435 v 12.015 c 0,1.347 1.488,2.4435 3.284,2.4435 h 15.993 c 1.796,0 3.284,-1.0965 3.284,-2.4435 v -0.6405 -11.37375 c 0,-1.347 -1.487,-2.4435 -3.284,-2.4435 H 80.871 Z m 0,1.2825 h 15.993 c 0.872,0 1.575,0.50775 1.575,1.161 v 12.015 c 0,0.65475 -0.703,1.16175 -1.575,1.16175 H 80.871 c -0.872,0 -1.575,-0.5085 -1.575,-1.16175 v -12.015 c 0,-0.65325 0.703,-1.161 1.575,-1.161 z"
     inkscape:connector-curvature="0"
     style="fill:#f4f4f4;stroke-width:0.86602539" /><path
     id="path165"
     d="m 104.737,184.3275 c -1.795,0 -3.284,1.0965 -3.284,2.4435 v 12.015 c 0,1.347 1.488,2.4435 3.284,2.4435 h 15.994 c 1.795,0 3.284,-1.0965 3.284,-2.4435 v -12.015 c 0,-1.347 -1.489,-2.4435 -3.284,-2.4435 z m 0,1.2825 h 15.994 c 0.872,0 1.575,0.50775 1.575,1.161 v 12.015 c 0,0.65475 -0.704,1.16175 -1.575,1.16175 h -15.994 c -0.872,0 -1.575,-0.5085 -1.575,-1.16175 v -12.015 c 0,-0.65325 0.703,-1.161 1.575,-1.161 z"
     inkscape:connector-curvature="0"
     style="fill:#f4f4f4;stroke-width:0.86602539" /><path
     id="path167"
     d="m 128.609,184.3275 c -1.796,0 -3.257,1.0965 -3.257,2.4435 v 12.015 c 0,1.347 1.461,2.4435 3.257,2.4435 h 186.279 c 1.796,0 3.284,-1.0965 3.284,-2.4435 v -12.015 c 0,-1.34625 -1.486,-2.4435 -3.284,-2.4435 z m 0,1.2825 h 186.279 c 0.873,0 1.575,0.50775 1.575,1.161 v 12.015 c 0,0.65475 -0.702,1.16175 -1.575,1.16175 H 128.609 c -0.872,0 -1.549,-0.5085 -1.549,-1.16175 v -12.015 c 0,-0.65325 0.677,-1.161 1.549,-1.161 z"
     inkscape:connector-curvature="0"
     style="fill:#f4f4f4;stroke-width:0.86602539" /><path
     id="path169"
     d="m 33.507,130.57875 c -1.795,0 -3.284,1.09575 -3.284,2.4435 v 12.015 c 0,1.347 1.489,2.4435 3.284,2.4435 h 22.027 c 1.49,0 2.708,-0.774 3.097,-1.80225 h 0.187 v -0.6405 -12.015 c 0,-1.347 -1.487,-2.4435 -3.284,-2.4435 H 33.507 Z m 0,1.28175 h 22.027 c 0.873,0 1.575,0.50775 1.575,1.16175 v 11.37375 0.6405 c 0,0.65475 -0.702,1.16175 -1.575,1.16175 H 33.507 c -0.871,0 -1.575,-0.5085 -1.575,-1.16175 v -12.015 c 0,-0.654 0.704,-1.161 1.575,-1.161 z"
     inkscape:connector-curvature="0"
     style="fill:#f4f4f4;stroke-width:0.86602539" /><path
     id="path171"
     d="m 63.41,130.57875 c -1.795,0 -3.284,1.09575 -3.284,2.4435 v 12.015 c 0,1.347 1.488,2.4435 3.284,2.4435 h 15.993 c 1.796,0 3.284,-1.0965 3.284,-2.4435 v -12.015 c 0,-1.347 -1.487,-2.4435 -3.284,-2.4435 z m 0,1.28175 h 15.993 c 0.873,0 1.575,0.50775 1.575,1.16175 v 12.015 c 0,0.65475 -0.702,1.16175 -1.575,1.16175 H 63.41 c -0.873,0 -1.575,-0.50775 -1.575,-1.16175 v -12.015 c 0,-0.65475 0.703,-1.16175 1.575,-1.16175 z"
     inkscape:connector-curvature="0"
     style="fill:#f4f4f4;stroke-width:0.86602539" /><path
     id="path173"
     d="m 87.282,130.57875 c -1.795,0 -3.257,1.09575 -3.257,2.4435 v 12.015 c 0,1.347 1.461,2.4435 3.257,2.4435 h 15.993 c 1.796,0 3.284,-1.0965 3.284,-2.4435 v -12.015 c 0,-1.347 -1.487,-2.4435 -3.284,-2.4435 z m 0,1.28175 h 15.993 c 0.873,0 1.575,0.50775 1.575,1.16175 v 12.015 c 0,0.65475 -0.702,1.16175 -1.575,1.16175 H 87.282 c -0.873,0 -1.548,-0.50775 -1.548,-1.16175 v -12.015 c 0,-0.65475 0.676,-1.16175 1.548,-1.16175 z"
     inkscape:connector-curvature="0"
     style="fill:#f4f4f4;stroke-width:0.86602539" /><path
     id="path175"
     d="m 111.145,130.57875 c -1.796,0 -3.257,1.0965 -3.257,2.4435 v 12.015 c 0,1.34625 1.461,2.4435 3.257,2.4435 h 16.02 c 1.796,0 3.257,-1.0965 3.257,-2.4435 v -12.015 c 0,-1.347 -1.461,-2.4435 -3.257,-2.4435 z m 0,1.28175 h 16.02 c 0.873,0 1.548,0.50775 1.548,1.16175 v 12.015 c 0,0.65475 -0.675,1.16175 -1.548,1.16175 h -16.02 c -0.873,0 -1.548,-0.507 -1.548,-1.16175 v -12.015 c 0,-0.6555 0.675,-1.16175 1.548,-1.16175 z"
     inkscape:connector-curvature="0"
     style="fill:#f4f4f4;stroke-width:0.86602539" /><path
     id="path177"
     d="m 135.016,130.57875 c -1.795,0 -3.257,1.09575 -3.257,2.4435 v 12.015 c 0,1.347 1.461,2.4435 3.257,2.4435 h 16.02 c 1.796,0 3.258,-1.0965 3.258,-2.4435 v -12.015 c 0,-1.347 -1.461,-2.4435 -3.258,-2.4435 z m 0,1.28175 h 16.02 c 0.875,0 1.549,0.507 1.549,1.16175 v 12.015 c 0,0.65475 -0.675,1.16175 -1.549,1.16175 h -16.02 c -0.873,0 -1.548,-0.50775 -1.548,-1.16175 v -12.015 c 0,-0.65475 0.676,-1.16175 1.548,-1.16175 z"
     inkscape:connector-curvature="0"
     style="fill:#f4f4f4;stroke-width:0.86602539" /><path
     id="path179"
     d="m 158.913,130.57875 c -1.796,0 -3.284,1.0965 -3.284,2.4435 v 12.015 c 0,1.34625 1.487,2.4435 3.284,2.4435 h 15.993 c 1.796,0 3.257,-1.0965 3.257,-2.4435 v -12.015 c 0,-1.347 -1.461,-2.4435 -3.257,-2.4435 z m 0,1.28175 h 15.993 c 0.873,0 1.548,0.50775 1.548,1.16175 v 12.015 c 0,0.65475 -0.675,1.16175 -1.548,1.16175 h -15.993 c -0.874,0 -1.575,-0.507 -1.575,-1.16175 v -12.015 c 0,-0.6555 0.701,-1.16175 1.575,-1.16175 z"
     inkscape:connector-curvature="0"
     style="fill:#f4f4f4;stroke-width:0.86602539" /><path
     id="path181"
     d="m 182.785,130.57875 c -1.795,0 -3.284,1.09575 -3.284,2.4435 v 12.015 c 0,1.347 1.488,2.4435 3.284,2.4435 h 15.993 c 1.796,0 3.285,-1.0965 3.285,-2.4435 v -12.015 c 0,-1.347 -1.488,-2.4435 -3.285,-2.4435 z m 0,1.28175 h 15.993 c 0.873,0 1.576,0.507 1.576,1.16175 v 12.015 c 0,0.65475 -0.704,1.16175 -1.576,1.16175 h -15.993 c -0.873,0 -1.575,-0.50775 -1.575,-1.16175 v -12.015 c 0,-0.65475 0.703,-1.16175 1.575,-1.16175 z"
     inkscape:connector-curvature="0"
     style="fill:#f4f4f4;stroke-width:0.86602539" /><path
     id="path183"
     d="m 206.656,130.57875 c -1.795,0 -3.257,1.09575 -3.257,2.4435 v 12.015 c 0,1.347 1.462,2.4435 3.257,2.4435 h 15.993 c 1.796,0 3.284,-1.0965 3.284,-2.4435 v -12.015 c 0,-1.347 -1.487,-2.4435 -3.284,-2.4435 z m 0,1.28175 h 15.993 c 0.873,0 1.575,0.50775 1.575,1.16175 v 12.015 c 0,0.65475 -0.702,1.16175 -1.575,1.16175 h -15.993 c -0.872,0 -1.548,-0.5085 -1.548,-1.16175 v -12.015 c -0.001,-0.65475 0.676,-1.16175 1.548,-1.16175 z"
     inkscape:connector-curvature="0"
     style="fill:#f4f4f4;stroke-width:0.86602539" /><path
     id="path185"
     d="m 230.519,130.57875 c -1.795,0 -3.258,1.09575 -3.258,2.4435 v 12.015 c 0,1.347 1.462,2.4435 3.258,2.4435 h 15.993 c 1.796,0 3.284,-1.0965 3.284,-2.4435 v -12.015 c 0,-1.347 -1.487,-2.4435 -3.284,-2.4435 z m 0,1.28175 h 15.993 c 0.873,0 1.575,0.507 1.575,1.16175 v 12.015 c 0,0.65475 -0.703,1.16175 -1.575,1.16175 h -15.993 c -0.873,0 -1.549,-0.50775 -1.549,-1.16175 v -12.015 c 0,-0.65475 0.677,-1.16175 1.549,-1.16175 z"
     inkscape:connector-curvature="0"
     style="fill:#f4f4f4;stroke-width:0.86602539" /><path
     id="path187"
     d="m 254.391,130.57875 c -1.796,0 -3.258,1.09575 -3.258,2.4435 v 12.015 c 0,1.347 1.461,2.4435 3.258,2.4435 h 16.02 c 1.795,0 3.257,-1.0965 3.257,-2.4435 v -12.015 c 0,-1.347 -1.462,-2.4435 -3.257,-2.4435 z m 0,1.28175 h 16.02 c 0.873,0 1.548,0.507 1.548,1.16175 v 12.015 c 0,0.65475 -0.677,1.16175 -1.548,1.16175 h -16.02 c -0.873,0 -1.549,-0.5085 -1.549,-1.16175 v -12.015 c 0,-0.65475 0.676,-1.16175 1.549,-1.16175 z"
     inkscape:connector-curvature="0"
     style="fill:#f4f4f4;stroke-width:0.86602539" /><path
     id="path189"
     d="m 278.262,130.57875 c -1.796,0 -3.258,1.09575 -3.258,2.4435 v 12.015 c 0,1.347 1.462,2.4435 3.258,2.4435 h 16.019 c 1.797,0 3.259,-1.0965 3.259,-2.4435 v -12.015 c 0,-1.347 -1.462,-2.4435 -3.259,-2.4435 z m 0,1.28175 h 16.019 c 0.873,0 1.55,0.507 1.55,1.16175 v 12.015 c 0,0.65475 -0.677,1.16175 -1.55,1.16175 h -16.019 c -0.874,0 -1.55,-0.50775 -1.55,-1.16175 v -12.015 c 0,-0.65475 0.676,-1.16175 1.55,-1.16175 z"
     inkscape:connector-curvature="0"
     style="fill:#f4f4f4;stroke-width:0.86602539" /><path
     id="path191"
     d="m 302.159,130.57875 c -1.796,0 -3.284,1.09575 -3.284,2.4435 v 12.015 c 0,1.347 1.486,2.4435 3.284,2.4435 h 15.993 c 1.794,0 3.258,-1.0965 3.258,-2.4435 v -12.015 c 0,-1.347 -1.462,-2.4435 -3.258,-2.4435 z m 0,1.28175 h 15.993 c 0.872,0 1.548,0.507 1.548,1.16175 v 12.015 c 0,0.65475 -0.677,1.16175 -1.548,1.16175 h -15.993 c -0.874,0 -1.576,-0.5085 -1.576,-1.16175 v -12.015 c 0,-0.65475 0.703,-1.16175 1.576,-1.16175 z"
     inkscape:connector-curvature="0"
     style="fill:#f4f4f4;stroke-width:0.86602539" /><path
     id="path193"
     d="m 326.022,130.57875 c -1.795,0 -3.283,1.09575 -3.283,2.4435 v 12.015 c 0,1.347 1.486,2.4435 3.283,2.4435 h 15.993 c 1.794,0 3.284,-1.09575 3.284,-2.4435 v -12.015 c 0,-1.347 -1.489,-2.4435 -3.284,-2.4435 z m 0,1.28175 h 15.993 c 0.873,0 1.575,0.50775 1.575,1.16175 v 12.015 c 0,0.65475 -0.704,1.16175 -1.575,1.16175 h -15.993 c -0.874,0 -1.577,-0.50775 -1.577,-1.16175 v -12.015 c -10e-4,-0.65475 0.704,-1.16175 1.577,-1.16175 z"
     inkscape:connector-curvature="0"
     style="fill:#f4f4f4;stroke-width:0.86602539" /><path
     id="path195"
     d="m 349.893,130.57875 c -1.796,0 -3.257,1.09575 -3.257,2.4435 v 12.015 c 0,1.347 1.46,2.4435 3.257,2.4435 h 28.488 c 1.794,0 3.258,-1.0965 3.258,-2.4435 v -12.015 c 0,-1.347 -1.462,-2.4435 -3.258,-2.4435 z m 0,1.28175 h 28.488 c 0.873,0 1.549,0.507 1.549,1.16175 v 12.015 c 0,0.65475 -0.677,1.16175 -1.549,1.16175 h -28.488 c -0.872,0 -1.548,-0.50775 -1.548,-1.16175 v -12.015 c 0,-0.65475 0.676,-1.16175 1.548,-1.16175 z"
     inkscape:connector-curvature="0"
     style="fill:#f4f4f4;stroke-width:0.86602539" /><path
     id="path197"
     d="m 49.686,86.3265 c -1.796,0 -3.257,1.09575 -3.257,2.44275 v 12.015 c 0,1.34625 1.461,2.44275 3.257,2.44275 h 25.685 c 1.794,0 3.257,-1.09575 3.257,-2.44275 v -12.015 c 0,-1.347 -1.462,-2.44275 -3.257,-2.44275 z m 0,1.2825 h 25.685 c 0.871,0 1.548,0.50625 1.548,1.161 v 12.015 c 0,0.65475 -0.677,1.16175 -1.548,1.16175 H 49.686 c -0.873,0 -1.548,-0.507 -1.548,-1.16175 V 88.77 c 0,-0.6555 0.676,-1.161 1.548,-1.161 z"
     inkscape:connector-curvature="0"
     style="fill:#f4f4f4;stroke-width:0.86602539" /><path
     id="path199"
     d="m 84.849,86.3265 c -1.796,0 -3.284,1.09575 -3.284,2.44275 v 12.015 c 0,1.3455 1.488,2.44275 3.284,2.44275 h 25.658 c 1.795,0 3.284,-1.09575 3.284,-2.44275 v -12.015 c 0,-1.347 -1.489,-2.44275 -3.284,-2.44275 z m 0,1.2825 h 25.658 c 0.871,0 1.575,0.50625 1.575,1.161 v 12.015 c 0,0.65475 -0.704,1.16175 -1.575,1.16175 H 84.849 c -0.873,0 -1.576,-0.507 -1.576,-1.16175 V 88.77 c 0,-0.6555 0.704,-1.161 1.576,-1.161 z"
     inkscape:connector-curvature="0"
     style="fill:#f4f4f4;stroke-width:0.86602539" /><path
     id="path201"
     d="m 119.988,86.3265 c -1.796,0 -3.257,1.0965 -3.257,2.44275 v 12.015 c 0,1.3455 1.46,2.44275 3.257,2.44275 h 25.684 c 1.795,0 3.257,-1.09575 3.257,-2.44275 v -12.015 c 0,-1.347 -1.462,-2.44275 -3.257,-2.44275 z m 0,1.2825 h 25.684 c 0.872,0 1.548,0.50625 1.548,1.161 v 12.015 c 0,0.65475 -0.677,1.16175 -1.548,1.16175 h -25.684 c -0.874,0 -1.549,-0.507 -1.549,-1.16175 V 88.77 c 0.001,-0.65625 0.677,-1.161 1.549,-1.161 z"
     inkscape:connector-curvature="0"
     style="fill:#f4f4f4;stroke-width:0.86602539" /><path
     id="path203"
     d="m 155.146,86.3265 c -1.796,0 -3.285,1.0965 -3.285,2.44275 v 12.015 c 0,1.3455 1.488,2.44275 3.285,2.44275 h 25.657 c 1.796,0 3.285,-1.09575 3.285,-2.44275 v -0.6405 -11.3745 c 0,-1.347 -1.489,-2.44275 -3.285,-2.44275 z m 0,1.2825 h 25.657 c 0.872,0 1.576,0.50625 1.576,1.161 v 12.015 c 0,0.65475 -0.703,1.16175 -1.576,1.16175 h -25.657 c -0.874,0 -1.576,-0.507 -1.576,-1.16175 V 88.77 c 0,-0.65625 0.703,-1.161 1.576,-1.161 z"
     inkscape:connector-curvature="0"
     style="fill:#f4f4f4;stroke-width:0.86602539" /><path
     id="path205"
     d="m 190.286,86.3265 c -1.795,0 -3.257,1.09575 -3.257,2.44275 v 12.015 c 0,1.3455 1.461,2.44275 3.257,2.44275 h 25.685 c 1.795,0 3.257,-1.09575 3.257,-2.44275 v -12.015 c 0,-1.34625 -1.461,-2.44275 -3.257,-2.44275 z m 0,1.2825 h 25.685 c 0.873,0 1.548,0.5055 1.548,1.161 v 12.015 c 0,0.65475 -0.676,1.16175 -1.548,1.16175 h -25.685 c -0.872,0 -1.548,-0.507 -1.548,-1.16175 V 88.77 c -0.001,-0.6555 0.676,-1.161 1.548,-1.161 z"
     inkscape:connector-curvature="0"
     style="fill:#f4f4f4;stroke-width:0.86602539" /><path
     id="path207"
     d="m 314.838,86.3265 c -1.795,0 -3.283,1.09575 -3.283,2.44275 v 12.015 c 0,1.347 1.488,2.44275 3.283,2.44275 h 25.657 c 1.797,0 3.257,-1.09575 3.257,-2.44275 v -12.015 c 0,-1.34625 -1.46,-2.44275 -3.257,-2.44275 z m 0,1.2825 h 25.657 c 0.874,0 1.548,0.5055 1.548,1.161 v 12.015 c 0,0.65475 -0.674,1.16175 -1.548,1.16175 h -25.657 c -0.871,0 -1.575,-0.507 -1.575,-1.16175 V 88.77 c 0,-0.65475 0.704,-1.161 1.575,-1.161 z"
     inkscape:connector-curvature="0"
     style="fill:#f4f4f4;stroke-width:0.86602539" /><path
     id="path209"
     d="m 349.969,86.3265 c -1.795,0 -3.257,1.09575 -3.257,2.44275 v 12.015 c 0,1.347 1.462,2.44275 3.257,2.44275 h 25.684 c 1.796,0 3.258,-1.09575 3.258,-2.44275 v -12.015 c 0,-1.3455 -1.46,-2.44275 -3.258,-2.44275 z m 0,1.2825 h 25.684 c 0.873,0 1.549,0.5055 1.549,1.161 v 12.015 c 0,0.65475 -0.676,1.16175 -1.549,1.16175 h -25.684 c -0.872,0 -1.548,-0.507 -1.548,-1.16175 V 88.77 c 0,-0.65475 0.678,-1.161 1.548,-1.161 z"
     inkscape:connector-curvature="0"
     style="fill:#f4f4f4;stroke-width:0.86602539" /><path
     id="path211"
     d="m 439.764,125.7735 c -3.623,0 -7.254,1.038 -10.013,3.10125 L 405.076,147.381 c -5.514,4.13475 -5.514,10.86075 0,14.99775 l 24.296,18.20325 c 5.516,4.137 14.484,4.13475 19.998,0 l 24.671,-18.50325 c 5.507,-4.1295 5.515,-10.83975 0.026,-14.979 l -0.026,-0.0195 -24.297,-18.20175 c -2.757,-2.0685 -6.365,-3.10425 -9.986,-3.10425 z m 0,1.2615 c 3.181,0 6.354,0.921 8.784,2.74275 l 24.297,18.22275 c 4.862,3.6465 4.862,9.5295 0,13.176 l -24.671,18.50175 c -4.861,3.6465 -12.707,3.648 -17.567,0 l -24.296,-18.222 c -4.862,-3.6465 -4.86,-9.53175 0,-13.17525 l 24.669,-18.50325 c 2.431,-1.82325 5.604,-2.74275 8.784,-2.74275 z"
     inkscape:connector-curvature="0"
     style="fill:#f4f4f4;stroke-width:0.86602539" /><g
     id="g213"
     transform="matrix(1,0,0,0.75,-47.081,-12.63825)"><path
       id="path215"
       d="m 486.657,185.882 c -3.104,0 -6.207,1.187 -8.569,3.551 l -12.202,12.201 -0.16,0.16 -0.454,0.427 0.026,0.027 -0.16,0.133 -12.201,12.201 c -4.728,4.729 -4.728,12.413 0,17.142 l 12.201,12.201 0.16,0.134 -0.026,0.026 0.454,0.427 0.16,0.16 12.202,12.201 c 4.727,4.729 12.413,4.729 17.141,0 l 12.199,-12.201 0.16,-0.16 0.428,-0.427 0.16,-0.16 12.202,-12.201 c 4.728,-4.728 4.728,-12.412 0,-17.14 l -12.202,-12.202 -0.16,-0.16 -0.428,-0.427 -0.16,-0.161 -12.199,-12.199 c -2.364,-2.364 -5.467,-3.551 -8.571,-3.551 v -0.002 z m 0,1.709 c 2.664,0 5.332,1.007 7.369,3.044 l 11.586,11.585 -18.957,18.958 -18.955,-18.958 11.586,-11.585 c 2.038,-2.037 4.705,-3.044 7.369,-3.044 z m -20.931,16.607 18.957,18.956 -18.957,18.957 -11.588,-11.587 c -4.073,-4.075 -4.073,-10.662 0,-14.738 l 11.586,-11.594 z m 41.864,0 11.586,11.587 c 4.075,4.074 4.075,10.662 0,14.738 l -11.584,11.593 -18.96,-18.959 18.96,-18.957 z m -20.933,20.906 18.957,18.983 -11.588,11.586 c -4.073,4.077 -10.662,4.077 -14.738,0 l -11.594,-11.61 18.96,-18.959 z"
       inkscape:connector-curvature="0"
       style="fill:#f4f4f4" /></g><path
     id="path217"
     d="m 404.547,124.19025 c -3.129,0 -5.687,1.9185 -5.687,4.26525 v 52.54575 c 0,2.34675 2.558,4.26525 5.687,4.26525 h 70.059 c 3.132,0 5.687,-1.9185 5.687,-4.26525 V 128.4555 c 0,-2.34675 -2.555,-4.26525 -5.687,-4.26525 z m 0,1.281 h 70.059 c 2.207,0 3.979,1.329 3.979,2.9835 v 52.54575 c 0,1.6545 -1.771,2.98425 -3.979,2.98425 h -70.059 c -2.204,0 -3.979,-1.32975 -3.979,-2.98425 v -52.54575 c 0,-1.65375 1.775,-2.9835 3.979,-2.9835 z"
     inkscape:connector-curvature="0"
     style="fill:#f4f4f4;stroke-width:0.86602539" /><path
     id="path219"
     d="m 30.169,90.54975 c -0.908,0 -1.655,0.5625 -1.655,1.242 v 5.226 c 0,0.67875 0.749,1.2615 1.655,1.2615 H 39.3 c 0.907,0 1.655,-0.582 1.655,-1.2615 v -5.226 c 0,-0.6795 -0.748,-1.242 -1.655,-1.242 z m 0.053,1.28175 h 9.024 v 5.16675 h -9.024 z"
     inkscape:connector-curvature="0"
     style="fill:#f4f4f4;stroke-width:0.86602539" /><path
     id="path221"
     d="m 21.038,154.3515 c -0.906,0 -1.655,0.582 -1.655,1.26225 v 2.0025 c 0,0.67875 0.75,1.24125 1.655,1.24125 h 7.796 c 0.905,0 1.655,-0.56025 1.655,-1.24125 v -2.0025 c 0,-0.68025 -0.748,-1.26225 -1.655,-1.26225 z"
     inkscape:connector-curvature="0"
     style="fill:#f4f4f4;stroke-width:0.86602539" /><path
     id="path223"
     d="m 384.708,154.3515 c -0.906,0 -1.656,0.582 -1.656,1.26225 v 2.0025 c 0,0.67875 0.751,1.24125 1.656,1.24125 h 7.769 c 0.906,0 1.656,-0.56025 1.656,-1.24125 v -2.0025 c 0,-0.6795 -0.748,-1.26225 -1.656,-1.26225 z"
     inkscape:connector-curvature="0"
     style="fill:#f4f4f4;stroke-width:0.86602539" /><path
     id="line233"
     d="m 4.698,70.30725 v 3.3645 h 1.709 v -3.3645 z"
     inkscape:connector-curvature="0"
     style="fill:#f4f4f4;stroke-width:0.86602539" /><path
     id="line235"
     d="m 496.846,70.1085 v 3.52425 h 1.709 V 70.1085 Z"
     inkscape:connector-curvature="0"
     style="fill:#f4f4f4;stroke-width:0.86602539" /><path
     id="path237"
     d="m 322.339,20.946 c -0.906,0 -1.655,0.58125 -1.655,1.2615 V 32.841 c 0,0.6795 0.749,1.24125 1.655,1.24125 h 0.508 c 0.905,0 1.654,-0.5625 1.654,-1.24125 V 22.2075 c 0,-0.67875 -0.749,-1.2615 -1.654,-1.2615 z m 0.054,1.28175 h 0.4 v 10.5735 h -0.4 z"
     inkscape:connector-curvature="0"
     style="fill:#f4f4f4;stroke-width:0.86602539" /><path
     id="path239"
     d="m 427.213,20.946 c -0.906,0 -1.655,0.58275 -1.655,1.2615 V 32.841 c 0,0.67875 0.749,1.24125 1.655,1.24125 h 0.508 c 0.906,0 1.655,-0.56175 1.655,-1.24125 V 22.2075 c 0,-0.6795 -0.749,-1.2615 -1.655,-1.2615 z m 0.054,1.28175 h 0.4 v 10.5735 h -0.4 z"
     inkscape:connector-curvature="0"
     style="fill:#f4f4f4;stroke-width:0.86602539" /></svg>