<?xml version="1.0" encoding="UTF-8" standalone="no"?>
<!-- Generator: Adobe Illustrator 13.0.0, SVG Export Plug-In . SVG Version: 6.00 Build 14948)  -->

<svg
   xmlns:ns="&amp;ns_sfw;"
   xmlns:dc="http://purl.org/dc/elements/1.1/"
   xmlns:cc="http://creativecommons.org/ns#"
   xmlns:rdf="http://www.w3.org/1999/02/22-rdf-syntax-ns#"
   xmlns:svg="http://www.w3.org/2000/svg"
   xmlns="http://www.w3.org/2000/svg"
   xmlns:sodipodi="http://sodipodi.sourceforge.net/DTD/sodipodi-0.dtd"
   xmlns:inkscape="http://www.inkscape.org/namespaces/inkscape"
   version="1.2"
   id="Ebene_2"
   x="0px"
   y="0px"
   width="566.92798"
   height="176.058"
   viewBox="-0.463 -70.905 566.928 176.058"
   xml:space="preserve"
   sodipodi:docname="logo.svg"
   inkscape:version="0.92.2 (5c3e80d, 2017-08-06)"><defs
     id="defs9" /><sodipodi:namedview
     pagecolor="#ffffff"
     bordercolor="#666666"
     borderopacity="1"
     objecttolerance="10"
     gridtolerance="10"
     guidetolerance="10"
     inkscape:pageopacity="0"
     inkscape:pageshadow="2"
     inkscape:window-width="1920"
     inkscape:window-height="1017"
     id="namedview7"
     showgrid="false"
     fit-margin-top="0"
     fit-margin-left="0"
     fit-margin-right="0"
     fit-margin-bottom="0"
     inkscape:zoom="0.61559848"
     inkscape:cx="283.46399"
     inkscape:cy="117.372"
     inkscape:window-x="-8"
     inkscape:window-y="-8"
     inkscape:window-maximized="1"
     inkscape:current-layer="Ebene_2" /><metadata
     id="metadata2"><ns:sfw><ns:slices /><ns:sliceSourceBounds
         x="676.572"
         y="422.128"
         width="566.928"
         height="234.744"
         bottomLeftOrigin="true" /></ns:sfw><rdf:RDF><cc:Work
         rdf:about=""><dc:format>image/svg+xml</dc:format><dc:type
           rdf:resource="http://purl.org/dc/dcmitype/StillImage" /><dc:title></dc:title></cc:Work></rdf:RDF></metadata><rect
     id="rect3604"
     x="-0.463"
     y="-70.904999"
     width="566.92798"
     height="176.058"
     style="fill:#003e99;stroke-width:0.86602539" /><path
     id="path2830"
     sodipodi:nodetypes="cccccccccccccccccccccccccccccccccccc"
     d="M 36.727,80.195248 79.791,-46.938001 h 39.932 l 20.749,55.49325 21.531,-55.49325 h 37.583 l 35.233,93.662249 85.965,-0.1215 c 9.022,-0.066 9.577,-14.060999 -0.669,-14.057999 l -50.063,-0.501 c -21.497,0.15525 -44.167,-17.2875 -43.063,-40.51725 0.229,-21.309 25.004,-38.0895 56.698,-38.0835 l 127.689,-0.0855 32.494,33.1785 31.709,-33.47175 52.85,0.294 -57.938,61.071 62.637,66.218999 -52.572,-0.12 -36.456,-37.998 -34.681,37.9965 -53.633,-0.0368 61.072,-65.474249 -26.622,-29.06775 -110.999,0.1215 c -12.114,0.08325 -11.669,14.37674996 0.095,14.10899996 l 46.769,0.537 c 19.767,0.09525 47.604,15.50100004 46.91,39.55125004 0.301,27.959249 -33.274,40.734749 -49.44,40.050749 l -122.419,0.1223 -20.357,-57.203249 -20.357,57.080999 H 121.794 L 100.539,23.528999 81.862,80.403748 Z"
     inkscape:connector-curvature="0"
     style="fill:#ffffff;stroke-width:0.86602539" /></svg>