<?xml version="1.0" encoding="UTF-8" standalone="no"?>
<!-- Generator: Adobe Illustrator 13.0.0, SVG Export Plug-In . SVG Version: 6.00 Build 14948)  -->

<svg
   xmlns:ns="&amp;#38;ns_sfw;"
   xmlns:dc="http://purl.org/dc/elements/1.1/"
   xmlns:cc="http://creativecommons.org/ns#"
   xmlns:rdf="http://www.w3.org/1999/02/22-rdf-syntax-ns#"
   xmlns:svg="http://www.w3.org/2000/svg"
   xmlns="http://www.w3.org/2000/svg"
   xmlns:sodipodi="http://sodipodi.sourceforge.net/DTD/sodipodi-0.dtd"
   xmlns:inkscape="http://www.inkscape.org/namespaces/inkscape"
   version="1.2"
   id="Layer_3"
   x="0px"
   y="0px"
   width="493.79199"
   height="246.49275"
   viewBox="0 0 493.79197 246.49274"
   xml:space="preserve"
   inkscape:version="0.92.2 (5c3e80d, 2017-08-06)"
   sodipodi:docname="controller.svg"><defs
     id="defs17" /><sodipodi:namedview
     pagecolor="#ffffff"
     bordercolor="#666666"
     borderopacity="1"
     objecttolerance="10"
     gridtolerance="10"
     guidetolerance="10"
     inkscape:pageopacity="0"
     inkscape:pageshadow="2"
     inkscape:window-width="1920"
     inkscape:window-height="1017"
     id="namedview15"
     showgrid="false"
     fit-margin-top="0"
     fit-margin-left="0"
     fit-margin-right="0"
     fit-margin-bottom="0"
     inkscape:zoom="0.48145317"
     inkscape:cx="247.80951"
     inkscape:cy="166.33499"
     inkscape:window-x="-8"
     inkscape:window-y="-8"
     inkscape:window-maximized="1"
     inkscape:current-layer="Layer_3" /><metadata
     id="metadata55"><rdf:RDF><cc:Work
         rdf:about=""><dc:format>image/svg+xml</dc:format><dc:type
           rdf:resource="http://purl.org/dc/dcmitype/StillImage" /><dc:title></dc:title></cc:Work></rdf:RDF><ns:sfw><ns:slices /><ns:sliceSourceBounds
         x="712.69"
         y="-7652"
         width="493.792"
         height="16383"
         bottomLeftOrigin="true" /></ns:sfw></metadata><path
     id="path3"
     d="M 382.847,21.76425 C 378.789,21.9375 374.726,22.6995 370.851,24.129 342.103,34.72875 317.85,47.73525 298.076,62.96475 278.285,78.1785 263.078,95.556 251.985,114.336 c -7.005,11.8425 0.128,25.7175 15.919,30.972 4.123,1.3725 8.449,2.03775 12.689,2.0385 12,7.5e-4 23.431,-5.208 28.607,-13.9575 8.402,-14.17125 19.287,-26.54925 33.684,-37.644 14.408,-11.079 32.453,-20.94075 55.601,-29.49225 15.499,-5.72025 21.88,-19.78875 14.252,-31.4145 -5.72,-8.7195 -17.713,-13.5945 -29.89,-13.074 z m 0.103,1.2105 c 11.537,-0.49725 22.898,4.1295 28.325,12.4005 7.236,11.0295 1.17,24.354 -13.535,29.781 -23.292,8.60475 -41.463,18.537 -56.011,29.7225 -14.532,11.2005 -25.544,23.721 -34.017,38.00925 -4.911,8.301 -15.753,13.2285 -27.12,13.22775 -4.017,-7.5e-4 -8.112,-0.621 -12.023,-1.92225 -14.979,-4.986 -21.718,-18.123 -15.072,-29.358 11.021,-18.65625 26.109,-35.9025 45.757,-51.006 19.634,-15.12 43.715,-28.04025 72.314,-38.586 3.676,-1.35675 7.536,-2.103 11.382,-2.26875 z"
     inkscape:connector-curvature="0"
     style="fill:#f4f4f4;stroke-width:0.86602539" /><path
     id="circle5"
     d="m 281.156,107.703 c -11.892,0 -21.559,7.23075 -21.559,16.14975 0,8.919 9.667,16.16925 21.559,16.16925 11.892,0 21.532,-7.25025 21.532,-16.16925 0.001,-8.91975 -9.64,-16.14975 -21.532,-16.14975 z m 0,1.23 c 11.005,0 19.892,6.6645 19.892,14.919 0,8.2545 -8.887,14.9385 -19.892,14.9385 -11.005,0 -19.918,-6.684 -19.918,-14.9385 0,-8.2545 8.914,-14.919 19.918,-14.919 z"
     inkscape:connector-curvature="0"
     style="fill:#f4f4f4;stroke-width:0.86602539" /><path
     id="circle7"
     d="m 308.893,74.75025 c -11.892,0 -21.559,7.25025 -21.559,16.1685 0,8.919 9.667,16.14975 21.559,16.14975 11.892,0 21.532,-7.23075 21.532,-16.14975 0,-8.919 -9.641,-16.1685 -21.532,-16.1685 z m 0,1.23 c 11.005,0 19.892,6.684 19.892,14.93775 0,8.25375 -8.887,14.919 -19.892,14.919 -11.005,0 -19.918,-6.66525 -19.918,-14.919 0,-8.25375 8.913,-14.93775 19.918,-14.93775 z"
     inkscape:connector-curvature="0"
     style="fill:#f4f4f4;stroke-width:0.86602539" /><path
     id="circle9"
     d="m 344.037,47.3535 c -11.892,0 -21.559,7.25025 -21.559,16.1685 0,8.919 9.667,16.16925 21.559,16.16925 11.892,0 21.532,-7.25025 21.532,-16.16925 0,-8.919 -9.64,-16.1685 -21.532,-16.1685 z m 0,1.23 c 11.005,0 19.892,6.684 19.892,14.93775 0,8.2545 -8.887,14.9385 -19.892,14.9385 -11.005,0 -19.918,-6.684 -19.918,-14.9385 0,-8.253 8.913,-14.93775 19.918,-14.93775 z"
     inkscape:connector-curvature="0"
     style="fill:#f4f4f4;stroke-width:0.86602539" /><path
     id="circle11"
     d="m 386.026,28.416 c -11.892,0 -21.532,7.25025 -21.532,16.16925 0,8.919 9.641,16.14975 21.532,16.14975 11.893,0 21.559,-7.23075 21.559,-16.14975 C 407.584,35.6655 397.918,28.416 386.026,28.416 Z m 0,1.23 c 11.006,0 19.918,6.68475 19.918,14.9385 0,8.25375 -8.912,14.919 -19.918,14.919 -11.005,0 -19.892,-6.66525 -19.892,-14.919 0,-8.25375 8.887,-14.9385 19.892,-14.9385 z"
     inkscape:connector-curvature="0"
     style="fill:#f4f4f4;stroke-width:0.86602539" /><path
     id="circle13"
     d="m 137.425,38.817 c -36.002,0 -65.213,21.90825 -65.213,48.90975 0,27.0015 29.211,48.891 65.213,48.891 36.002,0 65.188,-21.89025 65.188,-48.891 C 202.613,60.726 173.427,38.817 137.425,38.817 Z m 0,1.23075 c 35.116,0 63.547,21.34275 63.547,47.67975 0,26.337 -28.432,47.661 -63.547,47.661 -35.115,0 -63.573,-21.324 -63.573,-47.661 0,-26.337 28.458,-47.67975 63.573,-47.67975 z"
     inkscape:connector-curvature="0"
     style="fill:#f4f4f4;stroke-width:0.86602539" /><path
     id="circle15"
     d="m 137.425,63.8295 c -17.579,0 -31.863,10.71375 -31.863,23.89725 0,13.1835 14.285,23.8785 31.863,23.8785 17.578,0 31.837,-10.69425 31.837,-23.8785 0,-13.18425 -14.258,-23.89725 -31.837,-23.89725 z m 0,1.23075 c 16.692,0 30.197,10.14825 30.197,22.66725 0,12.519 -13.505,22.64775 -30.197,22.64775 -16.692,0 -30.223,-10.12875 -30.223,-22.64775 0,-12.519 13.532,-22.66725 30.223,-22.66725 z"
     inkscape:connector-curvature="0"
     style="fill:#f4f4f4;stroke-width:0.86602539" /><path
     id="path17"
     d="m 208.227,19.284 c -4.084,-0.41175 -7.859,1.74375 -8.407,4.80675 -0.549,3.063 2.35,5.89425 6.434,6.306 l 18.738,1.9035 c 4.084,0.41175 7.859,-1.76325 8.408,-4.8255 0.549,-3.063 -2.35,-5.89425 -6.434,-6.306 z m -0.205,1.23 18.739,1.884 c 3.205,0.32325 5.429,2.51775 4.998,4.92225 -0.431,2.403 -3.357,4.07175 -6.563,3.74925 l -18.738,-1.884 c -3.205,-0.3225 -5.429,-2.51775 -4.999,-4.9215 0.431,-2.4045 3.358,-4.07325 6.563,-3.75 z"
     inkscape:connector-curvature="0"
     style="fill:#f4f4f4;stroke-width:0.86602539" /><path
     id="path19"
     d="m 289.36,19.284 -18.739,1.884 c -4.083,0.41175 -6.957,3.243 -6.408,6.306 0.548,3.06225 4.325,5.23725 8.408,4.8255 l 18.738,-1.9035 c 4.084,-0.41175 6.957,-3.243 6.409,-6.306 -0.549,-3.063 -4.325,-5.21775 -8.408,-4.806 z m 0.23,1.23 c 3.204,-0.32325 6.132,1.3455 6.563,3.74925 0.431,2.40375 -1.794,4.599 -4.999,4.9215 l -18.764,1.884 c -3.205,0.32325 -6.133,-1.3455 -6.563,-3.74925 -0.432,-2.40375 1.819,-4.599 5.024,-4.92225 z"
     inkscape:connector-curvature="0"
     style="fill:#f4f4f4;stroke-width:0.86602539" /><path
     id="path21"
     d="M 6.588,7.5e-4 C 2.961,7.5e-4 0,2.22075 0,4.94175 v 236.61 c 0,2.72175 2.96,4.941 6.588,4.941 h 480.616 c 3.628,0 6.588,-2.22 6.588,-4.941 V 4.941 C 493.792,2.22075 490.833,0 487.204,0 H 6.588 Z m 0,1.23 h 480.616 c 2.742,0 4.947,1.6545 4.947,3.71025 v 236.61 c 0,2.0565 -2.205,3.71025 -4.947,3.71025 H 6.588 c -2.741,0 -4.947,-1.65375 -4.947,-3.71025 V 4.941 c 0,-2.05575 2.206,-3.71025 4.947,-3.71025 z"
     inkscape:connector-curvature="0"
     style="fill:#f4f4f4;stroke-width:0.86602539" /><path
     id="path23"
     d="M 21.661,7.5e-4 21.558,1.2315 c 0,0 43.037,1.9335 89.925,3.864 46.888,1.9305 97.59,3.864 113.175,3.864 h 44.476 c 16.201,0 66.928,-1.9335 113.662,-3.864 46.734,-1.9305 89.438,-3.864 89.438,-3.864 L 472.131,7.5e-4 c 0,0 -42.709,1.93425 -89.438,3.864 -46.729,1.9305 -97.533,3.864 -113.56,3.864 h -44.476 c -15.404,0 -66.215,-1.9335 -113.098,-3.864 C 64.677,1.93425 21.661,7.5e-4 21.661,7.5e-4 Z"
     inkscape:connector-curvature="0"
     style="fill:#f4f4f4;stroke-width:0.86602539" /></svg>