<?xml version="1.0" encoding="UTF-8" standalone="no"?>
<svg
   xmlns:dc="http://purl.org/dc/elements/1.1/"
   xmlns:cc="http://creativecommons.org/ns#"
   xmlns:rdf="http://www.w3.org/1999/02/22-rdf-syntax-ns#"
   xmlns:svg="http://www.w3.org/2000/svg"
   xmlns="http://www.w3.org/2000/svg"
   xmlns:sodipodi="http://sodipodi.sourceforge.net/DTD/sodipodi-0.dtd"
   xmlns:inkscape="http://www.inkscape.org/namespaces/inkscape"
   xml:space="preserve"
   enable-background="new 0 0 566.929 96.834"
   viewBox="0 0 566.92937 72.628228"
   height="72.628227"
   width="566.92938"
   y="0px"
   x="0px"
   id="Ebene_1"
   version="1.1"
   inkscape:version="0.92.2 (5c3e80d, 2017-08-06)"
   sodipodi:docname="logo.svg"><sodipodi:namedview
     pagecolor="#ffffff"
     bordercolor="#666666"
     borderopacity="1"
     objecttolerance="10"
     gridtolerance="10"
     guidetolerance="10"
     inkscape:pageopacity="0"
     inkscape:pageshadow="2"
     inkscape:window-width="1920"
     inkscape:window-height="1017"
     id="namedview3388"
     showgrid="false"
     inkscape:zoom="2.56"
     inkscape:cx="216.86312"
     inkscape:cy="48.418819"
     inkscape:window-x="-8"
     inkscape:window-y="-8"
     inkscape:window-maximized="1"
     inkscape:current-layer="Ebene_1"
     fit-margin-top="0"
     fit-margin-left="0"
     fit-margin-right="0"
     fit-margin-bottom="0" /><metadata
     id="metadata27"><rdf:RDF><cc:Work
         rdf:about=""><dc:format>image/svg+xml</dc:format><dc:type
           rdf:resource="http://purl.org/dc/dcmitype/StillImage" /><dc:title></dc:title></cc:Work></rdf:RDF></metadata><defs
     id="defs25" /><g
     id="g3"
     transform="matrix(1,0,0,0.75,-683.17294,-267.13129)"><g
       id="g5"
       transform="matrix(0.93403196,0,0,0.93403196,69.311262,27.640521)"><g
         id="g7"
         transform="translate(1.5605469e-5)"><path
           style="fill:#c2920d;fill-opacity:1;stroke:none;stroke-width:2.14125443;stroke-miterlimit:4;stroke-dasharray:none;stroke-opacity:1"
           id="path9"
           d="m 1036.018,414.062 h 2.403 c 2.244,0 6.081,0.462 7.662,1.388 1.581,0.92 2.624,1.953 3.126,3.095 0.504,1.142 0.759,3.661 0.759,7.551 v 15.273 c 0,4.609 -4.87,6.957 -7.216,7.467 -2.357,0.508 -4.646,0.763 -6.877,0.763 -6.43,0 -11.98,-1.673 -16.66,-5.021 -4.674,-3.35 -8.061,-8.586 -10.163,-15.727 -2.097,-7.131 -3.143,-15.422 -3.143,-24.892 0,-7.811 0.958,-15.43 2.875,-22.852 1.922,-7.424 5.188,-13.208 9.801,-17.36 4.613,-4.148 10.395,-6.223 17.337,-6.223 7.266,0 11.518,1.839 16.865,7.398 5.47,5.681 10.717,12.137 13.78,21.614 h 4.473 V 351.74 h -2.545 c -0.918,2.787 -1.92,4.68 -3.015,5.679 -1.1,1.003 -2.29,1.502 -3.565,1.502 -0.824,0 -3.49,-0.906 -7.988,-2.718 -4.498,-1.814 -7.756,-2.915 -9.765,-3.303 -3.699,-0.772 -6.574,-1.162 -11.185,-1.162 -14.895,0 -27.259,5.119 -37.085,15.355 -9.826,10.245 -14.736,22.785 -14.736,37.63 0,8.295 1.595,15.792 4.795,22.487 2.513,5.192 5.997,9.857 10.451,14.01 4.456,4.147 9.602,7.496 15.422,10.048 5.828,2.543 13.151,3.818 21.969,3.818 6.903,0 13.556,-0.713 19.98,-2.139 6.422,-1.43 12.597,-3.546 18.55,-6.351 v -20.524 c 0,-3.597 0.203,-5.859 0.613,-6.779 0.73,-1.752 1.767,-3.003 3.114,-3.76 1.344,-0.757 5.016,-1.248 8.438,-1.495 v -3.36 h -48.486 v 3.36 z"
           inkscape:connector-curvature="0" /><path
           style="fill:#c2920d;fill-opacity:1;stroke:none;stroke-width:2.14125443;stroke-miterlimit:4;stroke-dasharray:none;stroke-opacity:1"
           id="path11"
           d="m 1147.468,440.646 c -5.525,4.23 -12.879,6.344 -22.05,6.344 h -5.228 c -2.802,0 -4.826,-0.381 -6.085,-1.152 -1.248,-0.77 -2.112,-1.757 -2.568,-2.959 -0.458,-1.202 -0.688,-4.498 -0.688,-9.88 v -27.567 c 4.711,0 10.227,0.613 12.703,1.844 2.474,1.225 4.646,3.624 6.512,7.191 1.874,3.565 3.099,7.503 3.682,13.092 h 3.975 v -50.731 h -3.975 c -0.78,7.622 -2.574,12.739 -5.391,16.644 -2.815,3.905 -7.356,5.858 -13.615,5.858 h -3.896 v -34.029 c -0.031,-5.915 5.242,-5.23 5.242,-5.23 h 6.16 c 7.448,0 12.521,0.436 15.229,1.305 4.642,1.443 8.235,3.706 10.773,6.787 2.541,3.084 4.508,8.161 5.911,15.241 h 3.335 v -28.978 h -82.888 v 3.969 h 2.614 c 3.185,0 5.696,0.673 7.528,2.019 1.305,0.914 2.2,2.218 2.679,3.9 0.245,1.006 0.366,3.726 0.366,8.153 v 61.307 c 0,4.906 -0.266,7.938 -0.799,9.096 -0.675,1.633 -1.644,2.789 -2.896,3.463 -1.74,1.012 -4.032,1.516 -6.875,1.516 h -2.616 v 4.611 h 84.291 l 5.065,-31.174 h -4.625 c -2.415,8.678 -6.386,15.133 -11.913,19.361"
           inkscape:connector-curvature="0" /><path
           style="fill:#c2920d;fill-opacity:1;stroke:none;stroke-width:2.14125443;stroke-miterlimit:4;stroke-dasharray:none;stroke-opacity:1"
           id="path13"
           d="m 1212.688,352.888 c -14.125,-0.583 -26.03,4.02 -35.697,13.819 -9.686,9.791 -14.514,22.035 -14.514,36.713 0,13.078 3.718,24.378 11.16,33.907 9.414,12.053 22.738,18.088 39.975,18.088 17.18,0 30.49,-6.319 39.908,-18.964 7.11,-9.516 10.667,-20.557 10.667,-33.104 0,-14.679 -4.77,-26.906 -14.297,-36.68 -9.537,-9.775 -21.927,-14.366 -37.185,-13.778 m 22.531,78.46 c -2.308,6.827 -5.531,11.798 -9.675,14.901 -3.25,2.434 -7.3,3.647 -12.153,3.647 -7.206,0 -12.803,-2.821 -16.814,-8.454 -5.744,-8.065 -8.621,-20.524 -8.621,-37.391 0,-14.192 1.859,-25.073 5.581,-32.651 4.567,-9.229 11.227,-13.844 19.984,-13.844 4.757,0 8.96,1.338 12.609,4.011 3.649,2.671 6.65,7.253 9.004,13.737 2.357,6.491 3.534,16.263 3.534,29.341 0,10.98 -1.152,19.886 -3.463,26.715"
           inkscape:connector-curvature="0" /></g><path
         style="fill:#c2920d;fill-opacity:1;stroke:none;stroke-width:2.14125443;stroke-miterlimit:4;stroke-dasharray:none;stroke-opacity:1"
         id="path15"
         d="m 899.717,454.844 c 17.18,0 30.488,-6.321 39.908,-18.964 7.108,-9.527 10.666,-20.555 10.666,-33.104 0,-14.679 -4.77,-26.905 -14.299,-36.68 -9.535,-9.774 -21.926,-14.364 -37.183,-13.778 -14.125,-0.582 -26.03,4.021 -35.697,13.82 -9.684,9.79 -14.514,22.035 -14.514,36.713 0,13.077 3.717,24.379 11.162,33.906 9.411,12.053 22.736,18.088 39.974,18.088 m -20.227,-83.96 c 4.566,-9.229 11.227,-13.844 19.987,-13.844 4.756,0 8.957,1.335 12.606,4.009 3.649,2.673 6.651,7.253 9.007,13.737 2.354,6.49 3.532,16.262 3.532,29.332 0,10.98 -1.152,19.888 -3.462,26.715 -2.305,6.827 -5.531,11.798 -9.675,14.909 -3.248,2.43 -7.299,3.645 -12.153,3.645 -7.206,0 -12.805,-2.819 -16.817,-8.454 -5.743,-8.065 -8.618,-20.524 -8.618,-37.39 0,-14.192 1.858,-25.073 5.579,-32.651"
         inkscape:connector-curvature="0" /><path
         style="fill:#c2920d;fill-opacity:1;stroke:none;stroke-width:2.14125443;stroke-miterlimit:4;stroke-dasharray:none;stroke-opacity:1"
         id="path17"
         d="m 849.935,420.502 h -4.627 c -2.414,8.676 -6.387,15.133 -11.913,19.359 -5.526,4.23 -12.879,6.344 -22.042,6.344 h -5.229 c -2.801,0 -4.823,-0.385 -6.082,-1.15 -1.253,-0.772 -2.112,-1.759 -2.57,-2.961 -0.457,-1.204 -0.688,-4.498 -0.688,-9.882 v -27.567 c 4.71,0 10.228,0.615 12.705,1.846 2.474,1.225 4.647,3.626 6.513,7.191 1.872,3.567 3.098,7.503 3.681,13.094 h 3.976 v -50.733 h -3.976 c -0.779,7.619 -2.575,12.739 -5.392,16.644 -2.811,3.906 -7.354,5.857 -13.613,5.857 h -3.897 v -34.029 c -0.032,-5.916 5.244,-5.23 5.244,-5.23 h 6.155 c 7.453,0 12.532,0.435 15.24,1.302 4.645,1.443 8.235,3.709 10.774,6.789 2.541,3.082 4.51,8.164 5.914,15.239 h 3.332 v -29.001 h -82.887 v 3.994 h 2.612 c 3.185,0 5.696,0.674 7.529,2.017 1.303,0.914 2.196,2.218 2.676,3.901 0.244,1.007 0.366,3.725 0.366,8.151 v 61.309 c 0,4.906 -0.265,7.938 -0.797,9.088 -0.674,1.633 -1.644,2.794 -2.893,3.465 -1.74,1.012 -4.032,1.516 -6.882,1.516 h -2.612 v 4.611 h 84.29 l 5.067,-31.174 z"
         inkscape:connector-curvature="0" /><path
         style="fill:#c2920d;fill-opacity:1;fill-rule:nonzero;stroke:none;stroke-width:2.14125443;stroke-miterlimit:4;stroke-dasharray:none;stroke-opacity:1"
         id="path19"
         d="m 690.849,447.002 h -2.237 c -3.21,0 -6.061,-0.985 -8.554,-2.957 -2.488,-1.972 -3.734,-5.765 -3.734,-11.392 v -59.211 l 64.138,79.957 4.159,0.006 v -81.55 c 0,-4.637 0.385,-5.983 1.15,-7.891 0.765,-1.908 1.835,-3.285 3.201,-4.131 1.368,-0.844 4.05,-1.532 8.04,-2.064 v -4.149 h -31.818 v 4.149 c 5.245,-0.096 8.991,1.255 11.211,4.057 1.626,2.077 2.439,4.135 2.439,10.031 v 42.706 L 688.913,353.62 h -30.381 v 3.291 c 2.888,0.096 2.991,1.063 4.529,1.88 l 8.138,8.191 -0.011,65.664 c 0,5.194 -1.026,8.868 -3.074,11.03 -2.05,2.164 -5.684,3.268 -10.897,3.316 v 3.969 h 33.617 v -3.969 z"
         inkscape:connector-curvature="0" /><path
         style="fill:#c2920d;fill-opacity:1;stroke:none;stroke-width:2.14125443;stroke-miterlimit:4;stroke-dasharray:none;stroke-opacity:1"
         id="path21"
         d="m 977.661,403.577 c 0,6.516 -5.282,11.796 -11.794,11.796 -6.517,0 -11.797,-5.284 -11.797,-11.796 0,-6.517 5.284,-11.796 11.797,-11.796 6.516,0 11.794,5.283 11.794,11.796 z"
         inkscape:connector-curvature="0" /></g></g><path
     style="fill:#ff0000;stroke-width:0.86602539"
     d="M 47.917811,43.129743 18.034999,15.156442 17.93204,37.351486 c -0.09909,21.361969 -0.07408,22.26665 0.666542,24.102718 0.906906,2.248312 2.326706,3.416244 5.491104,4.516995 1.574615,0.547737 2.800509,0.748107 4.589844,0.750205 l 2.441406,0.0029 v 1.318359 1.318359 H 15.691249 0.2615615 v -1.275867 -1.27587 l 2.721967,-0.171187 c 4.7419767,-0.298163 7.8500355,-1.830352 9.2707415,-4.570222 0.64986,-1.253273 0.707546,-3.136292 0.809244,-26.415638 L 13.173017,10.586071 8.5727579,7.2110241 C 5.2341095,4.7615761 3.6243329,3.7841021 2.7029677,3.6468211 1.5584755,3.4762951 1.4334365,3.3559501 1.4334365,2.4249501 V 1.3922351 H 15.451331 29.469225 L 52.267737,22.255111 c 12.53918,11.474581 23.105289,21.131564 23.480234,21.459961 0.649676,0.569015 0.677223,-0.208641 0.585938,-16.541587 -0.09361,-16.749527 -0.114508,-17.168606 -0.920301,-18.4570309 -0.453484,-0.725098 -1.289519,-1.688572 -1.857859,-2.141053 -1.428164,-1.137027 -4.6622,-2.163405 -7.571532,-2.402956 l -2.441406,-0.201023 v -1.289594 -1.289593 h 14.84375 14.84375 v 1.298617 c 0,1.440354 0.205879,1.336403 -3.839887,1.938837 -2.839238,0.422776 -4.551035,1.188063 -5.822402,2.602998 -2.105992,2.343814 -2.056461,1.527049 -2.056461,33.9099879 v 29.976123 l -1.855469,-0.0079 -1.855468,-0.0079 -29.882813,-27.973301 v 8e-6 z"
     id="path3440"
     inkscape:connector-curvature="0" /><path
     style="fill:#ff0000;stroke-width:0.86602539"
     d="m 96.745936,68.507075 v -1.439848 l 3.027344,-0.208295 c 1.66504,-0.114566 3.68429,-0.403128 4.48722,-0.641253 1.82957,-0.542598 3.64579,-2.069063 4.1807,-3.513726 0.27227,-0.735308 0.40761,-10.003301 0.40336,-27.620312 -0.006,-25.1783719 -0.0428,-26.5738499 -0.73,-27.7085739 -0.39798,-0.657196 -1.20931,-1.481448 -1.80295,-1.83167 -1.48011,-0.873189 -4.56808,-1.514444 -7.292823,-1.514444 H 96.745936 V 2.7105941 1.3922351 H 135.2225 173.69907 V 11.499657 21.607079 h -1.30803 -1.30802 l -0.89451,-2.53958 c -1.12592,-3.196527 -2.48787,-5.723187 -3.93576,-7.301517 -2.44488,-2.6651329 -6.85734,-4.8376419 -11.88962,-5.8539489 -3.20449,-0.647171 -19.91079,-0.967763 -21.68638,-0.416158 -2.33152,0.724312 -2.33706,0.759317 -2.33706,14.7782959 V 33.03286 l 1.46484,-0.0023 c 3.39479,-0.0052 8.0843,-0.600554 10.05228,-1.27628 4.59478,-1.577672 7.83877,-5.514944 9.32302,-11.315488 l 0.82556,-3.226201 h 1.66715 1.66715 v 17.578125 17.578125 h -1.72116 -1.72115 l -0.26734,-1.538086 c -0.39268,-2.259263 -2.38036,-6.537354 -3.92131,-8.439855 -1.87346,-2.313041 -4.35514,-3.947399 -6.83132,-4.49891 -1.97861,-0.440687 -2.96666,-0.551619 -8.11156,-0.910711 l -2.45666,-0.171466 0.11291,13.178323 c 0.10953,12.784615 0.13696,13.202479 0.91829,13.986996 1.47799,1.484027 2.63505,1.907215 6.06489,2.218204 7.57434,0.686778 18.40984,-0.570759 23.97604,-2.782585 3.14731,-1.250636 7.64214,-4.499587 9.76237,-7.056428 1.63483,-1.971486 3.74296,-5.519496 4.3264,-7.281381 0.24836,-0.749991 0.40719,-0.805663 2.29851,-0.805663 h 2.03172 l -2.35162,10.839844 -2.35162,10.839843 H 135.92151 96.745936 v -1.439847 z"
     id="path3442"
     inkscape:connector-curvature="0" /><path
     style="fill:#ff0000;stroke-width:0.86602539"
     d="M 217.05844,71.55044 C 210.70497,70.803188 204.8948,69.154846 199.75841,66.642431 185.42718,59.632445 177.41728,46.276307 179.15337,32.28448 c 1.14337,-9.214798 5.4281,-16.173658 13.75533,-22.3401159 6.92057,-5.124802 14.2937,-7.965459 23.36849,-9.00321401 4.74907,-0.543084 14.7494,-0.545447 19.53288,-0.0046 13.81064,1.56146501 25.37045,7.67950901 32.04467,16.95968491 3.87075,5.382094 5.55325,10.712161 5.56412,17.626876 0.0114,7.243758 -1.55296,12.423861 -5.46938,18.111041 -6.99621,10.159471 -18.73181,16.484768 -33.50823,18.060392 -3.79443,0.404605 -13.39414,0.325031 -17.38281,-0.144088 z m 13.75031,-3.394901 c 9.43623,-1.488546 15.3994,-8.040859 18.10005,-19.888304 0.8699,-3.81615 1.19906,-14.910073 0.60163,-20.276789 -1.81631,-16.315598 -9.46093,-24.2544609 -23.35552,-24.2544609 -9.24123,0 -15.88021,3.995666 -20.03126,12.0558089 -2.69642,5.235659 -4.1998,14.551935 -3.77503,23.39341 0.71666,14.917283 5.82888,24.444535 14.99504,27.945123 3.29573,1.258652 9.1565,1.704884 13.46509,1.025212 z"
     id="path3444"
     inkscape:connector-curvature="0" /><path
     style="fill:#ff0000;stroke-width:0.86602539"
     d="m 284.90922,44.035614 c -4.66882,-1.249001 -7.30819,-4.104202 -7.30009,-7.897058 0.009,-4.423699 4.70908,-7.866439 10.73837,-7.866439 7.60321,0 12.67787,5.583144 9.97449,10.973936 -1.95517,3.898788 -8.28858,6.160382 -13.41277,4.789561 z"
     id="path3446"
     inkscape:connector-curvature="0" /><path
     style="fill:#ff0000;stroke-width:0.86602539"
     d="m 343.81625,71.953371 c -16.91407,-1.410831 -32.19489,-10.13874 -37.98206,-21.694125 -3.64139,-7.27086 -4.02374,-16.607586 -1.00538,-24.550605 2.00107,-5.265944 6.78783,-11.185902 12.46258,-15.412926 9.17523,-6.8344579 19.96908,-10.07535491 33.55611,-10.07535491 6.27781,0 10.63618,0.535906 15.70247,1.93078201 10.72362,2.952476 11.42171,3.117773 12.39415,2.934724 1.57686,-0.296826 3.56976,-1.807929 4.4821,-3.39853 0.68537,-1.19488401 1.02056,-1.46697601 1.80714,-1.46697601 h 0.96571 V 12.232079 24.243798 h -1.85746 -1.85746 l -0.92462,-1.831056 c -1.8781,-3.719281 -5.32579,-7.74986 -9.85874,-11.525503 -6.49483,-5.4097579 -10.28458,-6.8582859 -17.94318,-6.8582859 -7.09477,0 -12.59253,1.596257 -17.17722,4.987348 -5.61606,4.1539509 -8.73648,10.0826109 -10.37243,19.7071629 -0.51444,3.026544 -0.61171,5.242683 -0.44632,10.168771 0.55551,16.545263 6.17276,25.254975 18.44218,28.595144 5.43539,1.479706 13.33987,1.519298 17.7729,0.08902 2.36401,-0.762726 4.55549,-2.502314 4.90312,-3.892061 0.14089,-0.563258 0.1903,-4.427326 0.1098,-8.586817 -0.1615,-8.345921 -0.27766,-8.77769 -2.71114,-10.077282 -1.55747,-0.831758 -4.91561,-1.430035 -8.0599,-1.43593 l -2.44141,-0.0046 v -1.025391 -1.02539 h 22.65625 22.65625 v 0.987547 0.987551 l -2.44141,0.200162 c -5.16547,0.423504 -6.67614,1.020765 -8.20684,3.244661 -0.75119,1.091379 -0.81929,1.802221 -0.99152,10.348412 l -0.18492,9.176541 -2.19313,0.739051 c -11.54083,3.889116 -28.33181,5.818491 -41.25562,4.740492 z"
     id="path3448"
     inkscape:connector-curvature="0" /><path
     style="fill:#ff0000;stroke-width:0.86602539"
     d="m 390.10532,68.921532 v -1.611328 l 2.63671,-0.0017 c 3.28297,-0.002 5.19712,-0.389081 6.74019,-1.362882 2.70723,-1.708491 2.5257,0.330381 2.64345,-29.690171 l 0.10628,-27.0994859 -0.88753,-1.315995 c -1.4823,-2.19787 -4.27301,-3.220359 -8.7977,-3.223387 l -2.4414,-0.0016 v -1.31836 -1.318359 h 38.47656 38.47656 V 12.085686 22.193108 h -1.35974 c -1.16553,0 -1.39358,-0.115078 -1.5966,-0.805664 -1.09415,-3.721846 -2.82451,-7.219933 -4.44544,-8.986886 -2.51614,-2.7428469 -6.66775,-4.8254469 -11.82934,-5.9340679 -2.86137,-0.614573 -20.08018,-0.916162 -21.80016,-0.381832 -2.319,0.720422 -2.32809,0.77756 -2.32809,14.6290249 v 12.612146 h 3.66979 c 5.86542,0 10.02334,-1.27425 12.61137,-3.864938 2.2722,-2.274522 4.029,-5.704879 4.83082,-9.432744 l 0.47958,-2.229662 h 1.70422 1.70422 V 35.37661 52.954735 h -1.72116 -1.72116 l -0.26734,-1.538086 c -0.35264,-2.028873 -2.32732,-6.479271 -3.59909,-8.111397 -1.39359,-1.788448 -3.90038,-3.76964 -5.58556,-4.414426 -1.58896,-0.607969 -4.62642,-1.05845 -9.09369,-1.34867 l -3.04269,-0.197669 0.113,13.203932 c 0.10963,12.810433 0.137,13.228031 0.91838,14.012607 0.44297,0.444774 1.29121,1.080495 1.88499,1.412715 1.01682,0.568917 1.58327,0.603048 9.74148,0.586981 7.68022,-0.01512 9.0135,-0.09011 11.76423,-0.661579 8.6644,-1.800053 14.51529,-5.61992 18.55095,-12.111345 0.83581,-1.344417 1.7178,-3.004694 1.95996,-3.689508 l 0.44031,-1.245117 h 1.93807 c 1.28616,0 1.94051,0.123181 1.94534,0.36621 0.004,0.201417 -1.00079,5.079346 -2.23288,10.839844 l -2.24016,10.473633 h -39.17337 -39.17336 z"
     id="path3450"
     inkscape:connector-curvature="0" /><path
     style="fill:#ff0000;stroke-width:0.86602539"
     d="m 513.15798,72.267077 c -12.61132,-1.065859 -22.87303,-5.133554 -30.14345,-11.948734 -7.7628,-7.276726 -11.32556,-15.862711 -10.77324,-25.962691 0.53804,-9.838768 5.01771,-17.548916 14.09455,-24.258756 8.57766,-6.3408359 18.93417,-9.29059891 32.61894,-9.29059891 15.05886,0 25.7869,3.10913701 34.69393,10.05478891 6.42544,5.010523 10.00966,10.074964 12.063,17.044821 0.8435,2.863166 1.16798,10.218427 0.59453,13.476562 -2.46884,14.026925 -14.16828,25.317155 -30.30249,29.242603 -6.48345,1.577422 -15.73895,2.242646 -22.84577,1.642005 z m 12.44542,-4.043983 c 3.43049,-0.800765 5.51741,-1.821586 8.1811,-4.001794 6.33814,-5.187724 9.45246,-14.259736 9.44178,-27.503971 -0.007,-8.307336 -1.05414,-15.172148 -2.9761,-19.504781 -2.95931,-6.671095 -7.28971,-10.5788479 -13.74689,-12.4051699 -3.22952,-0.913423 -10.63165,-0.8883 -13.78223,0.04678 -8.67332,2.574197 -13.87985,9.1899159 -16.2351,20.6292789 -0.95964,4.660947 -0.97198,17.156219 -0.0216,21.904894 2.08571,10.421877 6.74778,17.147276 13.75818,19.847253 2.94349,1.133651 5.08583,1.484414 9.24255,1.513268 2.68145,0.01861 4.45822,-0.133567 6.13835,-0.525756 z"
     id="path3452"
     inkscape:connector-curvature="0" /></svg>