<?xml version="1.0" encoding="UTF-8" standalone="no"?>
<!-- Generator: Adobe Illustrator 16.0.3, SVG Export Plug-In . SVG Version: 6.00 Build 0)  -->

<svg
   xmlns:dc="http://purl.org/dc/elements/1.1/"
   xmlns:cc="http://creativecommons.org/ns#"
   xmlns:rdf="http://www.w3.org/1999/02/22-rdf-syntax-ns#"
   xmlns:svg="http://www.w3.org/2000/svg"
   xmlns="http://www.w3.org/2000/svg"
   xmlns:sodipodi="http://sodipodi.sourceforge.net/DTD/sodipodi-0.dtd"
   xmlns:inkscape="http://www.inkscape.org/namespaces/inkscape"
   version="1.1"
   id="svg4237"
   sodipodi:version="0.32"
   inkscape:version="0.92.2 (5c3e80d, 2017-08-06)"
   sodipodi:docname="logo.svg"
   x="0px"
   y="0px"
   width="566.92902"
   height="138.7935"
   viewBox="0 0 566.929 138.7935"
   enable-background="new 0 0 566.929 185.058"
   xml:space="preserve"><metadata
     id="metadata30"><rdf:RDF><cc:Work
         rdf:about=""><dc:format>image/svg+xml</dc:format><dc:type
           rdf:resource="http://purl.org/dc/dcmitype/StillImage" /><dc:title></dc:title></cc:Work></rdf:RDF></metadata><defs
     id="defs28" /><sodipodi:namedview
     id="base"
     pagecolor="#ffffff"
     bordercolor="#666666"
     borderopacity="1.0"
     inkscape:zoom="0.35"
     inkscape:cx="35.257417"
     inkscape:cy="-11.130838"
     inkscape:window-height="1017"
     inkscape:window-width="1920"
     inkscape:window-x="-8"
     inkscape:window-y="-8"
     inkscape:pageopacity="0.0"
     inkscape:current-layer="layer1"
     inkscape:pageshadow="2"
     inkscape:document-units="px"
     showgrid="false"
     fit-margin-top="0"
     fit-margin-left="0"
     fit-margin-right="0"
     fit-margin-bottom="0"
     inkscape:window-maximized="1" /><g
     id="layer1"
     transform="translate(2.322,-536.9905)"
     inkscape:label="Ebene 1"
     inkscape:groupmode="layer"><path
       id="path6905"
       d="m 100.923,657.673 c 5.332,0 8.531,-0.81525 8.531,-4.617 0,-2.814 -2.327,-4.31925 -7.658,-4.31925 h -7.368 v 8.93625 z m -9.306,11.74125 v -22.488 h 10.955 c 7.755,0 9.792,2.90775 9.792,6.28125 0,5.02425 -6.011,6.2745 -11.537,6.2745 h -6.399 v 9.9315 l -2.811,7.5e-4"
       inkscape:connector-curvature="0"
       style="stroke-width:0.86602539" /><path
       id="path6907"
       d="m 116.143,669.41425 h 2.424 v -22.488 h -2.424 z"
       inkscape:connector-curvature="0"
       style="stroke-width:0.86602539" /><path
       id="path6909"
       d="m 138.925,660.9145 c -2.132,0.654 -4.362,0.78525 -6.494,0.90975 -3.782,0.21675 -6.107,1.2495 -6.107,3.43125 0,1.97775 2.327,2.9085 4.654,2.9085 3.974,0 7.949,-1.44 7.949,-4.719 z m -4.265,-0.93075 c 0.969,-0.0652 2.521,-0.25425 3.296,-0.5385 0.873,-0.27675 0.969,-1.119 0.969,-1.6785 0,-1.905 -1.551,-3.279 -5.428,-3.279 -3.393,0 -5.816,0.843 -6.302,3.65025 h -2.521 c 0.388,-3.81075 4.168,-5.3445 8.919,-5.3445 4.362,0 7.756,1.287 7.756,5.031 v 8.80575 c 0,1.46775 0.581,1.8105 2.617,1.2495 v 1.46925 c -0.291,0.0945 -1.163,0.312 -1.938,0.312 -0.389,0 -0.679,-0.0285 -1.066,-0.0937 -1.745,-0.1815 -2.037,-1.2795 -2.037,-2.4075 -2.037,1.7535 -4.944,2.691 -8.046,2.691 -3.781,0 -7.175,-1.5345 -7.175,-4.653 0,-2.712 2.521,-4.3695 7.562,-4.87125 l 3.394,-0.34275"
       inkscape:connector-curvature="0"
       style="stroke-width:0.86602539" /><path
       id="path6911"
       d="m 147.553,673.813 c 0.679,0.0945 1.356,0.1965 2.036,0.1965 2.909,0 3.296,-3.0675 4.265,-4.4715 l -8.434,-16.30125 h 2.812 l 6.98,13.902 6.882,-13.902 h 2.715 l -8.047,15.95925 c -2.037,4.05675 -3.393,6.588 -6.883,6.588 -0.873,0 -1.648,-0.0937 -2.327,-0.2175 v -1.7535"
       inkscape:connector-curvature="0"
       style="stroke-width:0.86602539" /><path
       id="path6913"
       d="m 170.722,662.6965 c 0.485,4.0275 3.976,5.496 8.628,5.496 5.332,0 7.562,-2.1795 7.562,-4.653 0,-6.96525 -18.226,-2.34075 -18.226,-11.17425 0,-3.1275 3.393,-6.0285 10.179,-6.0285 6.689,0 10.082,3.054 9.985,6.71925 h -2.617 c 0,-3.44025 -3.587,-4.908 -7.368,-4.908 -5.817,0 -7.853,2.6535 -7.368,4.96575 1.26,5.802 18.323,1.62075 18.323,10.33125 0,4.131 -4.072,6.5595 -10.955,6.5595 -6.302,0 -10.955,-2.4285 -10.955,-7.30725 l 2.812,-7.5e-4"
       inkscape:connector-curvature="0"
       style="stroke-width:0.86602539" /><path
       id="path6915"
       d="m 202.812,669.4735 c -0.582,0.0937 -1.648,0.378 -2.909,0.378 -2.424,0 -3.781,-0.8145 -3.781,-3.2205 v -11.83725 h -3.103 v -1.5555 h 3.103 v -4.50075 h 2.521 v 4.50075 h 3.975 v 1.5555 h -3.975 v 11.08875 c 0,1.59975 0,2.28225 2.132,2.28225 0.679,0 1.356,-0.0945 2.037,-0.2175 v 1.52625"
       inkscape:connector-curvature="0"
       style="stroke-width:0.86602539" /><path
       id="path6917"
       d="m 221.52,660.9145 c -2.132,0.654 -4.264,0.78525 -6.398,0.90975 -3.78,0.21675 -6.107,1.2495 -6.107,3.43125 0,1.97775 2.327,2.9085 4.655,2.9085 3.974,0 7.851,-1.44 7.851,-4.719 v -2.5305 z m -4.168,-0.93075 c 0.873,-0.0652 2.425,-0.25425 3.297,-0.5385 0.776,-0.27675 0.872,-1.119 0.872,-1.6785 0,-1.905 -1.454,-3.279 -5.332,-3.279 -3.489,0 -5.816,0.843 -6.301,3.65025 h -2.521 c 0.387,-3.81075 4.168,-5.3445 8.821,-5.3445 4.364,0 7.853,1.287 7.853,5.031 v 8.80575 c 0,1.46775 0.486,1.8105 2.619,1.2495 v 1.46925 c -0.389,0.0945 -1.262,0.312 -1.939,0.312 -0.388,0 -0.775,-0.0285 -1.164,-0.0937 -1.648,-0.1815 -1.939,-1.2795 -1.939,-2.4075 -2.134,1.7535 -4.943,2.691 -8.046,2.691 -3.781,0 -7.271,-1.5345 -7.271,-4.653 0,-2.712 2.521,-4.3695 7.562,-4.87125 l 3.489,-0.34275"
       inkscape:connector-curvature="0"
       style="stroke-width:0.86602539" /><path
       id="path6919"
       d="m 238.778,669.4735 c -0.581,0.0937 -1.649,0.378 -2.908,0.378 -2.423,0 -3.781,-0.8145 -3.781,-3.2205 v -11.83725 h -3.006 v -1.5555 h 3.006 v -4.50075 h 2.521 v 4.50075 h 3.975 v 1.5555 h -3.975 v 11.08875 c 0,1.59975 0,2.28225 2.132,2.28225 0.678,0 1.358,-0.0945 2.037,-0.2175 v 1.52625"
       inkscape:connector-curvature="0"
       style="stroke-width:0.86602539" /><path
       id="path6921"
       d="m 246.243,669.41425 h -2.425 V 653.2375 h 2.425 z M 243.624,649.702 v -2.77575 h 2.812 v 2.77575 h -2.812"
       inkscape:connector-curvature="0"
       style="stroke-width:0.86602539" /><path
       id="path6923"
       d="m 260.978,654.48775 c -5.235,0 -7.271,3.33675 -7.271,6.834 0,4.02825 2.521,6.8415 7.271,6.8415 5.234,0 7.368,-3.3735 7.368,-6.8415 0,-3.81 -2.036,-6.834 -7.368,-6.834 z m -9.985,6.83325 c 0,-4.71075 3.393,-8.52825 9.985,-8.52825 6.785,0 10.082,3.78 10.082,8.52825 0,5.12775 -3.975,8.529 -10.082,8.529 -5.429,-0.0645 -9.985,-2.87175 -9.985,-8.529"
       inkscape:connector-curvature="0"
       style="stroke-width:0.86602539" /><path
       id="path6925"
       d="M 277.071,669.41425 H 274.55 V 653.2375 h 2.521 v 2.24625 c 1.938,-1.59225 3.975,-2.69025 6.883,-2.69025 2.714,0 5.041,0.62475 6.592,2.31225 1.065,1.16325 1.163,2.37675 1.163,3.71475 v 10.593 h -2.521 v -10.557 c 0,-2.90025 -1.647,-4.3695 -5.623,-4.3695 -3.103,0 -5.235,1.49775 -6.01,3.14775 -0.486,1.03275 -0.486,1.9425 -0.486,3.069 v 8.7105"
       inkscape:connector-curvature="0"
       style="stroke-width:0.86602539" /><path
       id="path6927"
       d="m 301.5,664.15825 c -0.291,-0.102 -0.678,-0.153 -1.259,-0.153 h -0.777 v 1.49775 h 0.875 c 0.386,0 0.774,-0.0285 0.968,-0.0855 0.387,-0.11625 0.582,-0.3345 0.582,-0.65475 0,-0.29925 -0.195,-0.50325 -0.389,-0.6045 z m -1.066,-0.66225 c 0.68,0 1.164,0.0443 1.551,0.1455 0.582,0.18225 0.775,0.531 0.775,1.062 0,0.3705 -0.098,0.63975 -0.484,0.8145 -0.195,0.0945 -0.484,0.1605 -0.775,0.20325 0.387,0.0502 0.678,0.1965 0.871,0.41475 0.195,0.22575 0.291,0.44475 0.291,0.65475 v 0.30525 c 0,0.10125 0,0.21075 0.098,0.3135 0,0.1155 0,0.18825 0,0.22425 v 0.051 h -0.873 c 0,-0.015 0,-0.0293 0,-0.0367 0,-0.0158 0,-0.0367 0,-0.0585 l -0.096,-0.12975 v -0.33525 c 0,-0.4935 -0.195,-0.8145 -0.486,-0.96675 -0.193,-0.0945 -0.58,-0.138 -1.066,-0.138 h -0.774 v 1.665 h -0.971 v -4.188 h 1.94 v -7.5e-4 z m -3.004,-0.2175 c -0.873,0.63975 -1.262,1.4175 -1.262,2.31825 0,0.924 0.389,1.7025 1.262,2.34225 0.872,0.64725 1.841,0.96675 3.103,0.96675 1.261,0 2.229,-0.3195 3.102,-0.96675 0.873,-0.6405 1.262,-1.4175 1.262,-2.34225 0,-0.90075 -0.389,-1.6785 -1.262,-2.31825 -0.872,-0.6405 -1.841,-0.96075 -3.102,-0.96075 -1.262,-7.5e-4 -2.231,0.3195 -3.103,0.96075 z m 6.689,5.01525 c -0.97,0.7425 -2.229,1.11975 -3.586,1.11975 -1.359,0 -2.619,-0.378 -3.587,-1.11975 -0.971,-0.741 -1.455,-1.6425 -1.455,-2.69775 0,-1.0395 0.484,-1.941 1.455,-2.67525 0.968,-0.7485 2.228,-1.11225 3.587,-1.11225 1.356,0 2.616,0.363 3.586,1.11225 0.969,0.72675 1.455,1.629 1.455,2.67525 0,1.05675 -0.487,1.9575 -1.455,2.69775"
       inkscape:connector-curvature="0"
       style="stroke-width:0.86602539" /><path
       id="path6929"
       d="m 322.634,657.673 c 5.332,0 8.628,-0.81525 8.628,-4.617 0,-2.814 -2.423,-4.31925 -7.755,-4.31925 h -7.369 v 8.93625 z m -9.305,11.74125 v -22.488 h 10.956 c 7.755,0 9.789,2.90775 9.789,6.28125 0,5.02425 -5.914,6.2745 -11.535,6.2745 h -6.4 v 9.9315 l -2.81,7.5e-4"
       inkscape:connector-curvature="0"
       style="stroke-width:0.86602539" /><path
       id="path6931"
       d="m 345.222,654.48775 c -5.234,0 -7.366,3.33675 -7.366,6.834 0,4.02825 2.616,6.8415 7.366,6.8415 5.237,0 7.369,-3.3735 7.369,-6.8415 -0.097,-3.81 -2.036,-6.834 -7.369,-6.834 z m -9.984,6.83325 c 0,-4.71075 3.296,-8.52825 9.984,-8.52825 6.787,0 9.987,3.78 9.987,8.52825 0,5.12775 -3.976,8.529 -9.987,8.529 -5.525,-0.0645 -9.984,-2.87175 -9.984,-8.529"
       inkscape:connector-curvature="0"
       style="stroke-width:0.86602539" /><path
       id="path6933"
       d="m 361.413,669.41425 h -2.521 V 653.2375 h 2.521 v 3.03225 h 0.098 c 1.354,-2.5965 3.392,-3.4755 6.98,-3.4755 v 2.03625 c -5.624,-0.0945 -7.076,3.02475 -7.076,6.64575 v 7.938"
       inkscape:connector-curvature="0"
       style="stroke-width:0.86602539" /><path
       id="path6935"
       d="m 382.451,669.4735 c -0.582,0.0937 -1.648,0.378 -2.813,0.378 -2.519,0 -3.878,-0.8145 -3.878,-3.2205 v -11.83725 h -3.005 v -1.5555 h 3.005 v -4.50075 h 2.521 v 4.50075 h 4.071 v 1.5555 h -4.071 v 11.08875 c 0,1.59975 0.098,2.28225 2.132,2.28225 0.682,0 1.455,-0.0945 2.037,-0.2175 v 1.52625"
       inkscape:connector-curvature="0"
       style="stroke-width:0.86602539" /><path
       id="path6937"
       d="m 400.384,660.9145 c -2.133,0.654 -4.265,0.78525 -6.398,0.90975 -3.782,0.21675 -6.107,1.2495 -6.107,3.43125 0,1.97775 2.327,2.9085 4.652,2.9085 3.976,0 7.854,-1.44 7.854,-4.719 v -2.5305 z m -4.169,-0.93075 c 0.871,-0.0652 2.423,-0.25425 3.296,-0.5385 0.777,-0.27675 0.873,-1.119 0.873,-1.6785 0,-1.905 -1.455,-3.279 -5.332,-3.279 -3.489,0 -5.817,0.843 -6.301,3.65025 h -2.521 c 0.387,-3.81075 4.169,-5.3445 8.822,-5.3445 4.363,0 7.853,1.287 7.853,5.031 v 8.80575 c 0,1.46775 0.484,1.8105 2.618,1.2495 v 1.46925 c -0.389,0.0945 -1.262,0.312 -1.938,0.312 -0.389,0 -0.777,-0.0285 -1.164,-0.0937 -1.647,-0.1815 -1.938,-1.2795 -1.938,-2.4075 -2.133,1.7535 -4.944,2.691 -8.049,2.691 -3.779,0 -7.271,-1.5345 -7.271,-4.653 0,-2.712 2.521,-4.3695 7.562,-4.87125 l 3.49,-0.34275"
       inkscape:connector-curvature="0"
       style="stroke-width:0.86602539" /><path
       id="path6939"
       d="m 420.161,668.16325 c 4.169,0 7.271,-2.28225 7.369,-6.339 0.192,-4.0575 -2.23,-7.3365 -7.369,-7.3365 -4.557,0 -7.271,3.1185 -7.271,6.7695 -10e-4,3.9105 2.521,6.906 7.271,6.906 z m -7.272,1.251 h -2.521 v -22.488 h 2.521 v 8.89875 c 1.553,-1.9635 4.653,-3.03225 7.66,-3.03225 6.59,0 9.597,4.035 9.597,8.565 0,4.76925 -2.714,8.49225 -9.694,8.49225 -2.812,0 -6.01,-1.15575 -7.56,-3.279 v 0 2.84325"
       inkscape:connector-curvature="0"
       style="stroke-width:0.86602539" /><path
       id="path6941"
       d="m 435.673,669.41425 h 2.519 v -22.488 h -2.519 z"
       inkscape:connector-curvature="0"
       style="stroke-width:0.86602539" /><path
       id="path6943"
       d="m 459.908,660.19525 c 0,-3.1485 -2.326,-5.7075 -6.785,-5.7075 -4.46,0 -6.787,2.6535 -7.271,5.7075 z m -14.057,1.56975 c 0,3.4905 2.521,6.399 7.271,6.399 3.2,0 5.816,-1.3455 6.494,-3.71475 h 2.812 c -1.26,3.0525 -3.78,5.40225 -9.306,5.40225 -6.885,0 -9.89,-3.68625 -9.89,-8.4615 0,-4.71975 3.685,-8.59575 9.89,-8.59575 5.914,0 9.501,3.1635 9.501,8.9715 l -16.772,-7.5e-4"
       inkscape:connector-curvature="0"
       style="stroke-width:0.86602539" /><path
       id="path6945"
       d="M -2.322,536.9905 H 174.31 v 39.285 H 4.657 v 34.04925 h -6.979 v -39.285 H 167.33 v -28.815 H -2.322 v -5.23425"
       inkscape:connector-curvature="0"
       style="stroke-width:0.86602539" /><path
       id="path6947"
       d="m 394.956,576.2755 v 34.04925 h -6.98 v -39.285 h 169.65 v -28.815 h -169.65 v -5.23425 h 176.631 v 39.285 H 394.956"
       inkscape:connector-curvature="0"
       style="stroke-width:0.86602539" /><path
       id="path6949"
       d="M 264.371,536.9905 V 605.089 H 174.31 v 5.23575 h 97.428 v -68.1 h 90.063 v -5.23425 h -97.43"
       inkscape:connector-curvature="0"
       style="stroke-width:0.86602539" /></g></svg>