<?xml version="1.0" encoding="UTF-8" standalone="no"?>
<!-- Generator: Adobe Illustrator 13.0.0, SVG Export Plug-In . SVG Version: 6.00 Build 14948)  -->

<svg
   xmlns:ns="&amp;#38;ns_sfw;"
   xmlns:dc="http://purl.org/dc/elements/1.1/"
   xmlns:cc="http://creativecommons.org/ns#"
   xmlns:rdf="http://www.w3.org/1999/02/22-rdf-syntax-ns#"
   xmlns:svg="http://www.w3.org/2000/svg"
   xmlns="http://www.w3.org/2000/svg"
   xmlns:sodipodi="http://sodipodi.sourceforge.net/DTD/sodipodi-0.dtd"
   xmlns:inkscape="http://www.inkscape.org/namespaces/inkscape"
   version="1.2"
   id="Layer_3"
   x="0px"
   y="0px"
   width="519.46301"
   height="191.59274"
   viewBox="0 0 519.46299 191.59273"
   xml:space="preserve"
   inkscape:version="0.92.2 (5c3e80d, 2017-08-06)"
   sodipodi:docname="controller.svg"><defs
     id="defs106" /><sodipodi:namedview
     pagecolor="#ffffff"
     bordercolor="#666666"
     borderopacity="1"
     objecttolerance="10"
     gridtolerance="10"
     guidetolerance="10"
     inkscape:pageopacity="0"
     inkscape:pageshadow="2"
     inkscape:window-width="1920"
     inkscape:window-height="1017"
     id="namedview104"
     showgrid="false"
     fit-margin-top="0"
     fit-margin-left="0"
     fit-margin-right="0"
     fit-margin-bottom="0"
     inkscape:zoom="0.48145317"
     inkscape:cx="262.21151"
     inkscape:cy="136.066"
     inkscape:window-x="-8"
     inkscape:window-y="-8"
     inkscape:window-maximized="1"
     inkscape:current-layer="Layer_3" /><metadata
     id="metadata55"><rdf:RDF><cc:Work
         rdf:about=""><dc:format>image/svg+xml</dc:format><dc:type
           rdf:resource="http://purl.org/dc/dcmitype/StillImage" /><dc:title></dc:title></cc:Work></rdf:RDF><ns:sfw><ns:slices /><ns:sliceSourceBounds
         x="698.288"
         y="403.434"
         width="519.465"
         height="255.457"
         bottomLeftOrigin="true" /></ns:sfw></metadata><path
     d="M 37.305,13.2015"
     id="path4"
     inkscape:connector-curvature="0"
     style="fill:#f4f4f4;stroke-width:0.86602539" /><path
     id="path5"
     d="m 174.54,21.1305 c -0.312,0.0165 -0.585,0.1605 -0.71,0.375 -0.508,0.8415 -1.285,1.5945 -2.263,2.1705 -0.365,0.21675 -0.426,0.6135 -0.137,0.88725 0.289,0.273 0.818,0.3195 1.183,0.10275 0.002,-7.5e-4 0.005,-0.0022 0.006,-0.0037 1.185,-0.696 2.138,-1.58925 2.762,-2.62425 0.206,-0.31275 0.035,-0.69075 -0.382,-0.84525 -0.143,-0.05325 -0.301,-0.075 -0.459,-0.06225 z"
     inkscape:connector-curvature="0"
     style="fill:#f4f4f4;stroke-width:0.86602539" /><path
     id="path7"
     d="m 37.303,13.9875 c -3.877,0 -7.049,2.3595 -7.049,5.26725 0,2.90775 3.172,5.2875 7.049,5.2875 h 129.955 c 3.878,0 7.05,-2.379 7.05,-5.2875 0,-2.9085 -3.171,-5.26725 -7.05,-5.26725 z m 0,1.263 h 129.955 c 2.968,0 5.367,1.779 5.367,4.005 0,2.226 -2.398,4.02525 -5.367,4.02525 H 37.303 c -2.968,0 -5.367,-1.79925 -5.367,-4.02525 0,-2.22675 2.399,-4.005 5.367,-4.005 z"
     inkscape:connector-curvature="0"
     style="fill:#f4f4f4;stroke-width:0.86602539" /><path
     id="polyline9"
     d="m 174.464,21.1695 c -0.465,0.03075 -0.809,0.33825 -0.768,0.68775 0.042,0.3495 0.452,0.60675 0.917,0.576 0.003,0 0.006,0 0.009,-7.5e-4 h 48.244 73.498 138.575 c 0.464,0.0045 0.847,-0.27375 0.854,-0.6225 0.006,-0.348 -0.366,-0.63525 -0.831,-0.6405 -0.007,0 -0.015,0 -0.022,0 H 296.364 222.866 174.622 c -0.052,-0.0037 -0.106,-0.0037 -0.158,0 z"
     inkscape:connector-curvature="0"
     style="fill:#f4f4f4;stroke-width:0.86602539" /><path
     id="polyline11"
     d="m 175.121,19.82775 c -0.465,0.01575 -0.826,0.31125 -0.805,0.65925 0.021,0.348 0.414,0.61875 0.88,0.603 0.001,0 0.002,0 0.003,0 h 47.666 73.498 138.003 c 0.464,0.0053 0.846,-0.27375 0.854,-0.6225 0.006,-0.348 -0.366,-0.63525 -0.83,-0.6405 -0.009,0 -0.016,0 -0.023,0 H 296.363 222.865 175.199 c -0.026,-7.5e-4 -0.052,-7.5e-4 -0.078,7.5e-4 z"
     inkscape:connector-curvature="0"
     style="fill:#f4f4f4;stroke-width:0.86602539" /><path
     id="polygon13"
     d="m 0.659,26.5365 c -0.393,0.066 -0.667,0.33 -0.658,0.63075 v 1.32225 c 0,0.34875 0.376,0.6315 0.842,0.6315 h 222.021 145.232 150.31 c 0.465,0 0.842,-0.28275 0.842,-0.6315 v -1.32225 c 0,-0.34875 -0.377,-0.63075 -0.842,-0.63075 H 368.096 222.864 0.843 c -0.061,-0.0053 -0.123,-0.0053 -0.184,0 z m 1.026,1.263 h 221.179 145.232 149.468 v 0.05925 H 368.096 222.864 1.685 Z"
     inkscape:connector-curvature="0"
     style="fill:#f4f4f4;stroke-width:0.86602539" /><path
     d="M 463.34,13.2015"
     id="path11"
     inkscape:connector-curvature="0"
     style="fill:#f4f4f4;stroke-width:0.86602539" /><path
     id="polyline17"
     d="m 37.224,24.9375 c -0.465,0.01575 -0.825,0.31125 -0.804,0.66 0.021,0.34875 0.415,0.61875 0.879,0.603 10e-4,0 0.002,0 0.003,0 h 129.955 c 0.009,0 0.018,0 0.026,0 h 0.5 0.026 55.058 73.498 145.394 0.026 0.499 c 0.009,0 0.019,0 0.026,0 h 21.045 c 0.464,0.0045 0.848,-0.27375 0.854,-0.6225 0.007,-0.34875 -0.364,-0.63525 -0.829,-0.6405 -0.01,0 -0.017,0 -0.024,0 h -21.02 -0.026 -0.499 c -0.008,0 -0.018,0 -0.026,0 H 296.366 222.868 167.784 167.258 167.232 37.31 c -0.026,-7.5e-4 -0.053,-7.5e-4 -0.079,0 z"
     inkscape:connector-curvature="0"
     style="fill:#f4f4f4;stroke-width:0.86602539" /><path
     id="polyline19"
     d="m 171.938,23.57625 c -0.465,0.0315 -0.809,0.33825 -0.768,0.68775 0.041,0.34875 0.451,0.606 0.917,0.576 0.003,0 0.006,0 0.009,-7.5e-4 h 50.77 73.498 141.1 c 0.465,0.0052 0.847,-0.27375 0.854,-0.6225 0.006,-0.34875 -0.365,-0.63525 -0.829,-0.6405 -0.009,0 -0.017,0 -0.024,0 h -141.1 -73.498 -50.77 c -0.053,-0.0037 -0.105,-0.0037 -0.159,0 z"
     inkscape:connector-curvature="0"
     style="fill:#f4f4f4;stroke-width:0.86602539" /><path
     id="path21"
     d="m 434.913,21.1305 c -0.466,0.0083 -0.834,0.29775 -0.822,0.6465 0.003,0.09075 0.031,0.18 0.085,0.261 0.624,1.0335 1.577,1.9275 2.763,2.62425 0.361,0.219 0.893,0.177 1.184,-0.09375 0.292,-0.2715 0.236,-0.66975 -0.126,-0.88875 -0.002,-0.0015 -0.004,-0.0023 -0.006,-0.0037 -0.978,-0.57525 -1.754,-1.32825 -2.263,-2.1705 -0.14,-0.23775 -0.462,-0.387 -0.809,-0.375 z"
     inkscape:connector-curvature="0"
     style="fill:#f4f4f4;stroke-width:0.86602539" /><path
     id="path23"
     d="m 175.121,17.559 -0.079,0.0195 c -0.447,0.06975 -0.738,0.393 -0.657,0.72975 0.072,0.309 0.104,0.621 0.104,0.94725 0,0.36975 -0.039,0.7365 -0.131,1.08525 -0.129,0.33525 0.128,0.687 0.576,0.78375 0.447,0.0975 0.915,-0.096 1.045,-0.43125 0.014,-0.0375 0.024,-0.0765 0.03,-0.11475 0.114,-0.429 0.157,-0.8685 0.157,-1.32225 0,-0.14925 -0.04,-0.2865 -0.053,-0.43425 h 46.746 73.498 137.075 c -0.012,0.147 -0.052,0.28425 -0.052,0.43425 0,0.45375 0.068,0.912 0.184,1.34175 0.03,0.348 0.431,0.612 0.894,0.59025 0.464,-0.0225 0.816,-0.3225 0.787,-0.6705 -0.005,-0.06075 -0.021,-0.12 -0.05,-0.177 -0.092,-0.348 -0.135,-0.7155 -0.135,-1.08525 0,-0.3255 0.033,-0.63675 0.105,-0.9465 0.08,-0.33825 -0.216,-0.663 -0.665,-0.72975 l -0.075,-0.0195 c -0.063,-0.0053 -0.123,-0.0053 -0.186,0 H 296.347 222.849 175.288 c -0.062,-0.0053 -0.123,-0.0053 -0.184,0 h 0.017 z"
     inkscape:connector-curvature="0"
     style="fill:#f4f4f4;stroke-width:0.86602539" /><path
     id="path25"
     d="m 172.301,13.92975 c -0.464,-0.0165 -0.859,0.252 -0.881,0.6 -0.016,0.2565 0.176,0.495 0.487,0.603 0.009,0 0.018,0 0.026,0 0.849,0.54075 1.53,1.21425 1.973,1.99275 0.171,0.3075 0.632,0.4635 1.053,0.35475 h 47.902 73.498 138.263 c 0.412,0.09675 0.856,-0.05625 1.026,-0.35475 0.445,-0.783 1.145,-1.45125 1.999,-1.99275 0.422,-0.147 0.604,-0.522 0.409,-0.8385 -0.145,-0.23325 -0.462,-0.37725 -0.805,-0.3645 H 296.353 222.856 172.296 Z M 174.3,15.192 h 48.561 73.499 138.894 c -0.326,0.318 -0.596,0.666 -0.842,1.026 H 296.359 222.86 175.141 c -0.247,-0.36 -0.514,-0.708 -0.841,-1.026 z"
     inkscape:connector-curvature="0"
     style="fill:#f4f4f4;stroke-width:0.86602539" /><path
     id="path27"
     d="m 0.737,12.6075 c -0.423,0.03975 -0.739,0.31125 -0.736,0.63075 v 1.32225 c 0,0.34875 0.376,0.6315 0.842,0.6315 h 29.383 c -0.321,0.31425 -0.571,0.67125 -0.815,1.026 H 0.843 c -0.465,0 -0.842,0.28275 -0.842,0.6315 v 1.34175 c 0,0.34875 0.376,0.6315 0.842,0.6315 h 27.594 c -0.013,0.147 -0.053,0.285 -0.053,0.4335 0,0.19425 0.057,0.3825 0.079,0.573 H 0.843 c -0.465,0 -0.841,0.282 -0.842,0.63075 v 1.34175 c 0,0.34875 0.376,0.6315 0.842,0.6315 h 28.646 c 0.29,0.40575 0.611,0.79125 1,1.1445 H 0.842 c -0.465,0 -0.842,0.282 -0.842,0.63075 0,0.0068 0,0.01425 0,0.02025 L 0.052,25.59 c 0.015,0.34125 0.387,0.612 0.842,0.612 h 36.513 c 0.465,0.0045 0.847,-0.27375 0.854,-0.6225 0.007,-0.34875 -0.365,-0.63525 -0.83,-0.6405 -0.008,0 -0.016,0 -0.024,0 H 1.711 V 24.84 h 30.777 0.053 c 0.293,-0.0045 0.563,-0.1245 0.71,-0.31575 0.222,-0.276 0.131,-0.633 -0.21,-0.82875 -0.01,-0.0052 -0.016,-0.01425 -0.026,-0.0195 -0.96,-0.561 -1.749,-1.2735 -2.263,-2.09175 -0.008,-0.0135 -0.017,-0.027 -0.026,-0.03975 -0.003,-0.0053 0.003,-0.015 0,-0.0195 -0.008,-0.0068 -0.016,-0.0135 -0.025,-0.0195 -0.007,-0.02025 -0.016,-0.0405 -0.026,-0.06 L 30.648,21.42675 C 30.44,21.1845 30.039,21.0795 29.675,21.17025 H 1.685 V 21.0915 h 27.489 c 0.265,0.05625 0.55,0.01275 0.764,-0.1185 l 0.025,-0.0195 c 0.271,-0.16725 0.375,-0.44175 0.263,-0.69075 -0.008,-0.0068 -0.017,-0.0135 -0.026,-0.01875 -0.077,-0.318 -0.131,-0.651 -0.131,-0.987 0,-0.33075 0.03,-0.65325 0.105,-0.96675 0.073,-0.345 -0.241,-0.66825 -0.7,-0.72225 -0.038,-0.0045 -0.077,-0.0067 -0.115,-0.0075 H 29.175 1.685 V 17.481 H 29.7 29.885 c 0.33,-0.0015 0.628,-0.14775 0.762,-0.375 0.458,-0.79425 1.174,-1.488 2.052,-2.03175 0.358,-0.222 0.408,-0.62025 0.111,-0.88875 -0.123,-0.111 -0.292,-0.18675 -0.48,-0.216 L 32.252,13.95 C 32.191,13.938 32.129,13.93125 32.067,13.9305 H 1.685 v -0.05925 h 34.434 132.059 54.69 73.498 145.022 23.123 53.059 v 0.05925 h -48.983 c -0.062,7.5e-4 -0.124,0.0083 -0.185,0.0195 l -0.104,0.0195 c -0.453,0.078 -0.736,0.417 -0.631,0.7575 0.042,0.1365 0.144,0.25875 0.288,0.34725 0.879,0.54375 1.568,1.2375 2.025,2.03175 0.139,0.23325 0.45,0.381 0.79,0.375 0.009,0 0.018,0 0.025,0 h 0.079 46.693 v 0.0795 h -46.114 -0.157 c -0.465,0.006 -0.835,0.29325 -0.826,0.642 0,0.03 0.004,0.05925 0.009,0.08775 h -0.026 c 0.075,0.31425 0.132,0.636 0.132,0.96675 0,0.336 -0.055,0.669 -0.132,0.987 -0.003,0.0135 -0.022,0.02625 -0.026,0.039 0,0.0067 0,0.0135 0,0.0195 -0.088,0.237 0.015,0.4905 0.264,0.651 l 0.026,0.0195 c 0.22,0.13725 0.516,0.18225 0.788,0.1185 h 46.063 v 0.07875 h -46.615 c -0.355,-0.081 -0.741,0.02325 -0.946,0.2565 l -0.026,0.0195 c -0.019,0.01875 -0.036,0.039 -0.053,0.06 -0.009,0.01275 -0.019,0.02625 -0.026,0.03975 -0.514,0.834 -1.285,1.5615 -2.263,2.13075 -0.008,0.006 -0.017,0.01275 -0.026,0.0195 -0.374,0.2055 -0.457,0.6 -0.183,0.882 0.008,0.0083 0.017,0.0165 0.026,0.0255 0.158,0.15 0.401,0.237 0.657,0.237 h 0.105 49.323 V 24.939 h -54.296 c -0.465,-0.0045 -0.847,0.27375 -0.854,0.6225 -0.006,0.34875 0.365,0.63525 0.83,0.6405 0.009,0 0.016,0 0.023,0 h 55.11 c 0.456,0 0.829,-0.27075 0.843,-0.61125 l 0.052,-1.36125 c 0.015,-0.34875 -0.35,-0.63975 -0.814,-0.651 -0.009,0 -0.018,0 -0.027,0 h -48.243 c 0.388,-0.35325 0.709,-0.73875 1,-1.1445 h 47.245 c 0.464,0 0.841,-0.28275 0.841,-0.6315 v -1.34175 c 0,-0.348 -0.377,-0.6315 -0.841,-0.6315 h -46.22 c 0.021,-0.18975 0.079,-0.378 0.079,-0.57225 0,-0.1485 -0.041,-0.28725 -0.053,-0.4335 h 46.193 c 0.464,0 0.841,-0.28275 0.841,-0.6315 v -1.34175 c 0,-0.34875 -0.377,-0.6315 -0.841,-0.6315 h -47.166 c -0.244,-0.35475 -0.495,-0.71175 -0.816,-1.026 h 47.982 c 0.465,0 0.841,-0.28275 0.841,-0.6315 V 13.239 c 0,-0.348 -0.376,-0.63075 -0.841,-0.63075 H 464.509 441.387 296.364 222.867 168.177 36.118 0.842 c -0.035,-0.0037 -0.07,-0.0037 -0.105,-7.5e-4 z"
     inkscape:connector-curvature="0"
     style="fill:#f4f4f4;stroke-width:0.86602539" /><path
     id="path29"
     d="m 442.304,13.9875 c -3.879,0 -7.025,2.3595 -7.025,5.26725 0,2.90775 3.146,5.2875 7.025,5.2875 h 21.044 c 3.878,0 7.023,-2.379 7.023,-5.2875 0,-2.9085 -3.146,-5.26725 -7.023,-5.26725 z m 0,1.263 h 21.044 c 2.968,0 5.34,1.779 5.34,4.005 0,2.226 -2.372,4.02525 -5.34,4.02525 h -21.044 c -2.968,0 -5.341,-1.79925 -5.341,-4.02525 0,-2.22675 2.373,-4.005 5.341,-4.005 z"
     inkscape:connector-curvature="0"
     style="fill:#f4f4f4;stroke-width:0.86602539" /><path
     id="path31"
     d="M 3.789,0 C 1.729,0 0.054,1.257 0.054,2.80125 v 8.68125 c 0,0.34875 0.377,0.6315 0.842,0.6315 H 518.62 c 0.464,0 0.841,-0.28275 0.841,-0.6315 V 2.80125 C 519.461,1.25625 517.784,0 515.726,0 H 3.785 Z m 0,1.26225 h 511.94 c 1.149,0 2.052,0.6765 2.052,1.539 V 10.851 H 1.742 V 2.80125 c 0,-0.86175 0.902,-1.539 2.052,-1.539 z"
     inkscape:connector-curvature="0"
     style="fill:#f4f4f4;stroke-width:0.86602539" /><path
     id="path33"
     d="m 0.711,30.048 c -0.392,0.06525 -0.667,0.33 -0.658,0.6315 v 158.112 c 0,1.545 1.676,2.80125 3.735,2.80125 h 511.94 c 2.059,0 3.735,-1.257 3.735,-2.80125 l -0.01,-158.112 c 0,-0.34875 -0.377,-0.6315 -0.841,-0.6315 H 0.891 c -0.061,-0.0053 -0.123,-0.0053 -0.184,0 z m 1.026,1.263 h 516.039 v 157.4805 c 0,0.86175 -0.902,1.53975 -2.052,1.53975 H 3.785 c -1.151,0 -2.052,-0.67725 -2.052,-1.53975 z"
     inkscape:connector-curvature="0"
     style="fill:#f4f4f4;stroke-width:0.86602539" /><path
     id="path35"
     d="m 24.623,66.564 c -1.555,0 -2.815,0.96375 -2.815,2.13075 v 13.1205 c 0,1.16625 1.259,2.13 2.815,2.13 h 17.493 c 1.555,0 2.841,-0.96375 2.841,-2.13 v -13.1205 c 0,-1.167 -1.286,-2.13075 -2.841,-2.13075 z m 0,1.263 h 17.493 c 0.646,0 1.157,0.38325 1.157,0.8685 V 81.816 c 0,0.48375 -0.512,0.86775 -1.157,0.86775 H 24.623 c -0.646,0 -1.132,-0.3855 -1.132,-0.86775 V 68.6955 c 0.001,-0.48525 0.486,-0.8685 1.132,-0.8685 z"
     inkscape:connector-curvature="0"
     style="fill:#f4f4f4;stroke-width:0.86602539" /><path
     id="path37"
     d="m 49.325,66.564 c -1.555,0 -2.841,0.96375 -2.841,2.13075 v 13.1205 c 0,1.1655 1.285,2.13 2.841,2.13 h 17.466 c 1.555,0 2.841,-0.96375 2.841,-2.13 v -13.1205 c 0,-1.167 -1.287,-2.13075 -2.841,-2.13075 z m 0,1.263 h 17.466 c 0.646,0 1.158,0.38325 1.158,0.8685 V 81.816 c 0,0.48375 -0.512,0.86775 -1.158,0.86775 H 49.325 c -0.647,0 -1.158,-0.38475 -1.158,-0.86775 V 68.6955 c 0,-0.48525 0.512,-0.8685 1.158,-0.8685 z"
     inkscape:connector-curvature="0"
     style="fill:#f4f4f4;stroke-width:0.86602539" /><path
     id="path39"
     d="m 73.999,66.564 c -1.555,0 -2.842,0.96375 -2.842,2.13075 v 13.1205 c 0,1.16625 1.286,2.13 2.842,2.13 h 17.493 c 1.424,0 2.546,-0.82275 2.736,-1.854 0.009,-0.0135 0.018,-0.0263 0.027,-0.0397 0,-0.007 -10e-4,-0.0135 0,-0.0195 0.009,-0.0188 0.019,-0.039 0.025,-0.0593 0.014,-0.0382 0.022,-0.078 0.027,-0.11775 0.009,-0.0135 0.018,-0.027 0.026,-0.0397 V 68.69475 c 0,-1.167 -1.286,-2.13075 -2.841,-2.13075 z m 0,1.263 h 17.493 c 0.646,0 1.158,0.38325 1.158,0.8685 v 13.00125 c -0.002,0.027 -0.002,0.0525 0,0.0787 -0.01,0.0135 -0.019,0.0263 -0.026,0.0397 0,0.48375 -0.486,0.86775 -1.131,0.86775 H 74 c -0.645,0 -1.158,-0.38475 -1.158,-0.86775 v -13.1204 c 0,-0.48375 0.511,-0.86775 1.157,-0.86775 z"
     inkscape:connector-curvature="0"
     style="fill:#f4f4f4;stroke-width:0.86602539" /><path
     id="path41"
     d="m 98.67,66.564 c -1.555,0 -2.815,0.96375 -2.815,2.13075 v 13.1205 c 0,1.16625 1.26,2.13 2.815,2.13 h 17.493 c 1.555,0 2.841,-0.96375 2.841,-2.13 v -13.1205 c 0,-1.167 -1.287,-2.13075 -2.841,-2.13075 z m 0,1.263 h 17.493 c 0.646,0 1.158,0.38325 1.158,0.8685 V 81.816 c 0,0.48375 -0.512,0.86775 -1.158,0.86775 H 98.67 c -0.645,0 -1.131,-0.3855 -1.131,-0.86775 V 68.6955 c 0,-0.48525 0.485,-0.8685 1.131,-0.8685 z"
     inkscape:connector-curvature="0"
     style="fill:#f4f4f4;stroke-width:0.86602539" /><path
     id="path43"
     d="m 123.376,66.564 c -1.555,0 -2.841,0.96375 -2.841,2.13075 v 13.1205 c 0,1.16625 1.286,2.13 2.841,2.13 h 17.467 c 1.555,0 2.84,-0.96375 2.84,-2.13 v -13.1205 c 0,-1.167 -1.286,-2.13075 -2.84,-2.13075 z m 0,1.263 h 17.467 c 0.645,0 1.157,0.38325 1.157,0.8685 V 81.816 c 0,0.48375 -0.512,0.86775 -1.157,0.86775 h -17.467 c -0.645,0 -1.158,-0.3855 -1.158,-0.86775 V 68.6955 c 10e-4,-0.48525 0.512,-0.8685 1.158,-0.8685 z"
     inkscape:connector-curvature="0"
     style="fill:#f4f4f4;stroke-width:0.86602539" /><path
     id="path45"
     d="m 148.049,66.564 c -1.555,0 -2.842,0.96375 -2.842,2.13075 v 13.1205 c 0,1.16625 1.287,2.13 2.842,2.13 h 17.493 c 1.555,0 2.814,-0.96375 2.814,-2.13 v -13.1205 c 0,-1.167 -1.26,-2.13075 -2.814,-2.13075 z m 0,1.263 h 17.493 c 0.645,0 1.13,0.38325 1.13,0.8685 V 81.816 c 0,0.48375 -0.485,0.86775 -1.13,0.86775 h -17.493 c -0.645,0 -1.158,-0.3855 -1.158,-0.86775 V 68.6955 c 0,-0.48525 0.513,-0.8685 1.158,-0.8685 z"
     inkscape:connector-curvature="0"
     style="fill:#f4f4f4;stroke-width:0.86602539" /><path
     id="path47"
     d="m 172.721,66.564 c -1.555,0 -2.814,0.96375 -2.814,2.13075 v 13.1205 c 0,1.16625 1.259,2.13 2.814,2.13 h 17.494 c 1.554,0 2.84,-0.96375 2.84,-2.13 v -13.1205 c 0,-1.167 -1.286,-2.13075 -2.84,-2.13075 z m 0,1.263 h 17.494 c 0.645,0 1.157,0.38325 1.157,0.8685 V 81.816 c 0,0.48375 -0.512,0.86775 -1.157,0.86775 h -17.494 c -0.646,0 -1.131,-0.3855 -1.131,-0.86775 V 68.6955 c 0.001,-0.48525 0.486,-0.8685 1.131,-0.8685 z"
     inkscape:connector-curvature="0"
     style="fill:#f4f4f4;stroke-width:0.86602539" /><path
     id="path49"
     d="m 197.428,66.564 c -1.555,0 -2.841,0.96375 -2.841,2.13075 v 13.1205 c 0,1.16625 1.286,2.13 2.841,2.13 h 17.467 c 1.554,0 2.84,-0.96375 2.84,-2.13 v -13.1205 c 0,-1.167 -1.286,-2.13075 -2.84,-2.13075 z m 0,1.263 h 17.467 c 0.645,0 1.157,0.38325 1.157,0.8685 V 81.816 c 0,0.48375 -0.513,0.86775 -1.157,0.86775 h -17.467 c -0.645,0 -1.158,-0.3855 -1.158,-0.86775 V 68.6955 c 0,-0.48525 0.513,-0.8685 1.158,-0.8685 z"
     inkscape:connector-curvature="0"
     style="fill:#f4f4f4;stroke-width:0.86602539" /><path
     id="path51"
     d="m 222.1,66.564 c -1.555,0 -2.841,0.96375 -2.841,2.13075 v 13.1205 c 0,1.16625 1.285,2.13 2.841,2.13 h 17.493 c 1.555,0 2.815,-0.96375 2.815,-2.13 v -13.1205 c 0,-1.167 -1.26,-2.13075 -2.815,-2.13075 z m 0,1.263 h 17.493 c 0.646,0 1.132,0.38325 1.132,0.8685 V 81.816 c 0,0.48375 -0.487,0.86775 -1.132,0.86775 H 222.1 c -0.645,0 -1.157,-0.3855 -1.157,-0.86775 V 68.6955 c 0,-0.48525 0.512,-0.8685 1.157,-0.8685 z"
     inkscape:connector-curvature="0"
     style="fill:#f4f4f4;stroke-width:0.86602539" /><path
     id="path53"
     d="m 246.773,66.564 c -1.555,0 -2.841,0.96375 -2.841,2.13075 v 13.1205 c 0,1.1655 1.285,2.13 2.841,2.13 h 17.493 c 1.555,0 2.841,-0.96375 2.841,-2.13 v -13.1205 c 0,-1.167 -1.285,-2.13075 -2.841,-2.13075 z m 0,1.263 h 17.493 c 0.645,0 1.157,0.38325 1.157,0.8685 V 81.816 c 0,0.48375 -0.513,0.86775 -1.157,0.86775 h -17.493 c -0.646,0 -1.157,-0.38475 -1.157,-0.86775 V 68.6955 c 0,-0.48525 0.512,-0.8685 1.157,-0.8685 z"
     inkscape:connector-curvature="0"
     style="fill:#f4f4f4;stroke-width:0.86602539" /><path
     id="path55"
     d="m 271.48,66.564 c -1.557,0 -2.842,0.96375 -2.842,2.13075 v 13.1205 c 0,1.1655 1.285,2.13 2.842,2.13 h 17.466 c 1.555,0 2.841,-0.963 2.841,-2.13 v -13.1205 c 0,-1.167 -1.285,-2.13075 -2.841,-2.13075 z m 0,1.263 h 17.466 c 0.646,0 1.158,0.38325 1.158,0.8685 V 81.816 c 0,0.483 -0.514,0.86775 -1.158,0.86775 H 271.48 c -0.647,0 -1.157,-0.38475 -1.157,-0.86775 V 68.6955 c 0,-0.48525 0.511,-0.8685 1.157,-0.8685 z"
     inkscape:connector-curvature="0"
     style="fill:#f4f4f4;stroke-width:0.86602539" /><path
     id="path57"
     d="m 296.152,66.564 c -1.555,0 -2.841,0.96375 -2.841,2.13075 v 13.1205 c 0,1.1655 1.285,2.13 2.841,2.13 h 17.494 c 1.554,0 2.813,-0.96375 2.813,-2.13 v -13.1205 c 0,-1.167 -1.259,-2.13075 -2.813,-2.13075 z m 0,1.263 h 17.494 c 0.644,0 1.131,0.38325 1.131,0.8685 V 81.816 c 0,0.48375 -0.487,0.86775 -1.131,0.86775 h -17.494 c -0.646,0 -1.157,-0.38475 -1.157,-0.86775 V 68.6955 c 0,-0.48525 0.514,-0.8685 1.157,-0.8685 z"
     inkscape:connector-curvature="0"
     style="fill:#f4f4f4;stroke-width:0.86602539" /><path
     id="path59"
     d="m 320.825,66.564 c -1.555,0 -2.814,0.96375 -2.814,2.13075 v 13.1205 c 0,1.1655 1.259,2.13 2.814,2.13 h 17.494 c 1.554,0 2.839,-0.963 2.839,-2.13 v -13.1205 c 0,-1.167 -1.284,-2.13075 -2.839,-2.13075 z m 0,1.263 h 17.494 c 0.644,0 1.156,0.38325 1.156,0.8685 V 81.816 c 0,0.483 -0.513,0.86775 -1.156,0.86775 h -17.494 c -0.645,0 -1.132,-0.38475 -1.132,-0.86775 V 68.6955 c 0,-0.48525 0.487,-0.8685 1.132,-0.8685 z"
     inkscape:connector-curvature="0"
     style="fill:#f4f4f4;stroke-width:0.86602539" /><path
     id="path61"
     d="m 345.532,66.564 c -1.555,0 -2.842,0.96375 -2.842,2.13075 v 13.119 c 0,1.1655 1.286,2.13075 2.842,2.13075 h 17.466 c 1.555,0 2.842,-0.9645 2.842,-2.13075 0.001,-0.0195 0.001,-0.0397 0,-0.0592 v -13.0613 c 0,-1.167 -1.286,-2.13075 -2.842,-2.13075 l -17.466,0.001 z m 0,1.263 h 17.466 c 0.647,0 1.157,0.38325 1.157,0.8685 v 13.119 c 0,0.4845 -0.511,0.86775 -1.157,0.86775 h -17.466 c -0.646,0 -1.158,-0.38475 -1.158,-0.86775 V 68.69475 c 0,-0.48525 0.514,-0.8685 1.158,-0.86775 z"
     inkscape:connector-curvature="0"
     style="fill:#f4f4f4;stroke-width:0.86602539" /><path
     id="path63"
     d="m 62.267,84.873 c -1.555,0 -2.841,0.96375 -2.841,2.13075 v 13.119 c 0,1.16625 1.286,2.11125 2.841,2.11125 H 79.76 c 1.422,0 2.542,-0.80625 2.736,-1.8345 0.01,-0.0142 0.018,-0.0255 0.026,-0.0397 10e-4,-0.007 -0.001,-0.0142 0,-0.0195 0.01,-0.0187 0.019,-0.0383 0.027,-0.057 0.014,-0.039 0.022,-0.0788 0.026,-0.12075 0.009,-0.0112 0.019,-0.024 0.026,-0.0375 v -13.1198 c 0,-1.1655 -1.286,-2.13 -2.841,-2.13 H 62.267 Z m 0,1.26225 H 79.76 c 0.646,0 1.158,0.3855 1.158,0.8685 V 100.005 c -0.001,0.0188 -0.001,0.039 0,0.0577 -0.011,0.021 -0.019,0.0428 -0.026,0.0645 0,0.48375 -0.486,0.84825 -1.131,0.84825 H 62.267 c -0.646,0 -1.158,-0.36525 -1.158,-0.84525 V 87.00895 c 0,-0.48375 0.512,-0.86775 1.158,-0.86775 z"
     inkscape:connector-curvature="0"
     style="fill:#f4f4f4;stroke-width:0.86602539" /><path
     id="path65"
     d="m 24.623,84.873 c -1.555,0 -2.815,0.96375 -2.815,2.13075 v 13.119 c 0,1.16775 1.259,2.11125 2.815,2.11125 h 30.12 c 1.555,0 2.841,-0.94425 2.841,-2.11125 v -13.119 c 0,-1.16625 -1.285,-2.13075 -2.841,-2.13075 z m 0,1.26225 h 30.12 c 0.646,0 1.157,0.3855 1.157,0.8685 v 13.119 c 0,0.4845 -0.512,0.84975 -1.157,0.84975 h -30.12 c -0.646,0 -1.132,-0.366 -1.132,-0.84975 v -13.119 c 0.001,-0.48375 0.486,-0.8685 1.132,-0.8685 z"
     inkscape:connector-curvature="0"
     style="fill:#f4f4f4;stroke-width:0.86602539" /><path
     id="path67"
     d="m 86.944,84.873 c -1.555,0 -2.84,0.96375 -2.84,2.13075 v 13.119 c 0,1.16775 1.285,2.11125 2.84,2.11125 h 17.494 c 1.555,0 2.841,-0.94425 2.841,-2.11125 v -13.119 c 0,-1.16625 -1.286,-2.13075 -2.841,-2.13075 z m 0,1.26225 h 17.494 c 0.645,0 1.157,0.3855 1.157,0.8685 v 13.119 c 0,0.4845 -0.512,0.84975 -1.157,0.84975 H 86.944 c -0.645,0 -1.157,-0.366 -1.157,-0.84975 v -13.119 c 0,-0.48375 0.511,-0.8685 1.157,-0.8685 z"
     inkscape:connector-curvature="0"
     style="fill:#f4f4f4;stroke-width:0.86602539" /><path
     id="path69"
     d="m 111.641,84.873 c -1.555,0 -2.84,0.96375 -2.84,2.13075 v 13.119 c 0,1.16775 1.286,2.11125 2.84,2.11125 h 17.468 c 1.555,0 2.841,-0.94425 2.841,-2.11125 v -13.119 c 0,-1.16625 -1.286,-2.13075 -2.841,-2.13075 z m 0,1.26225 h 17.468 c 0.645,0 1.157,0.3855 1.157,0.8685 v 13.119 c 0,0.4845 -0.512,0.84975 -1.157,0.84975 h -17.468 c -0.645,0 -1.157,-0.366 -1.157,-0.84975 v -13.119 c 0,-0.48375 0.512,-0.8685 1.157,-0.8685 z"
     inkscape:connector-curvature="0"
     style="fill:#f4f4f4;stroke-width:0.86602539" /><path
     id="path71"
     d="m 136.314,84.873 c -1.554,0 -2.84,0.96375 -2.84,2.13075 v 13.119 c 0,1.16775 1.286,2.11125 2.84,2.11125 h 17.494 c 1.555,0 2.814,-0.94425 2.814,-2.11125 v -13.119 c 0,-1.16625 -1.259,-2.13075 -2.814,-2.13075 z m 0,1.26225 h 17.494 c 0.646,0 1.131,0.3855 1.131,0.8685 v 13.119 c 0,0.4845 -0.485,0.84975 -1.131,0.84975 h -17.494 c -0.645,0 -1.157,-0.366 -1.157,-0.84975 v -13.119 c 0,-0.48375 0.512,-0.8685 1.157,-0.8685 z"
     inkscape:connector-curvature="0"
     style="fill:#f4f4f4;stroke-width:0.86602539" /><path
     id="path73"
     d="m 160.995,84.873 c -1.555,0 -2.815,0.96375 -2.815,2.13075 v 13.119 c 0,1.167 1.259,2.11125 2.815,2.11125 h 17.494 c 1.555,0 2.841,-0.94425 2.841,-2.11125 v -13.119 c 0,-1.16625 -1.286,-2.13075 -2.841,-2.13075 z m 0,1.26225 h 17.494 c 0.645,0 1.157,0.3855 1.157,0.8685 v 13.119 c 0,0.4845 -0.512,0.84975 -1.157,0.84975 h -17.494 c -0.646,0 -1.131,-0.366 -1.131,-0.84975 v -13.119 c 0,-0.48375 0.486,-0.8685 1.131,-0.8685 z"
     inkscape:connector-curvature="0"
     style="fill:#f4f4f4;stroke-width:0.86602539" /><path
     id="path75"
     d="m 185.693,84.873 c -1.555,0 -2.841,0.96375 -2.841,2.13075 v 13.119 c 0,1.16775 1.285,2.11125 2.841,2.11125 h 17.468 c 1.554,0 2.841,-0.94425 2.841,-2.11125 v -13.119 c 0,-1.16625 -1.286,-2.13075 -2.841,-2.13075 z m 0,1.26225 h 17.468 c 0.645,0 1.157,0.3855 1.157,0.8685 v 13.119 c 0,0.4845 -0.514,0.84975 -1.157,0.84975 h -17.468 c -0.645,0 -1.158,-0.366 -1.158,-0.84975 v -13.119 c 0,-0.48375 0.513,-0.8685 1.158,-0.8685 z"
     inkscape:connector-curvature="0"
     style="fill:#f4f4f4;stroke-width:0.86602539" /><path
     id="path77"
     d="m 210.366,84.873 c -1.555,0 -2.841,0.96375 -2.841,2.13075 v 13.119 c 0,1.16775 1.286,2.11125 2.841,2.11125 h 17.493 c 1.555,0 2.815,-0.94425 2.815,-2.11125 v -13.119 c 0,-1.16625 -1.259,-2.13075 -2.815,-2.13075 z m 0,1.26225 h 17.493 c 0.645,0 1.131,0.3855 1.131,0.8685 v 13.119 c 0,0.4845 -0.486,0.84975 -1.131,0.84975 h -17.493 c -0.645,0 -1.158,-0.366 -1.158,-0.84975 v -13.119 c 0,-0.48375 0.513,-0.8685 1.158,-0.8685 z"
     inkscape:connector-curvature="0"
     style="fill:#f4f4f4;stroke-width:0.86602539" /><path
     id="path79"
     d="m 235.039,84.873 c -1.555,0 -2.841,0.96375 -2.841,2.13075 v 13.119 c 0,1.16775 1.286,2.11125 2.841,2.11125 h 17.494 c 1.554,0 2.841,-0.94425 2.841,-2.11125 v -13.119 c 0,-1.16625 -1.286,-2.13075 -2.841,-2.13075 z m 0,1.26225 h 17.494 c 0.645,0 1.157,0.3855 1.157,0.8685 v 13.119 c 0,0.4845 -0.512,0.84975 -1.157,0.84975 h -17.494 c -0.646,0 -1.158,-0.366 -1.158,-0.84975 v -13.119 c 0,-0.48375 0.512,-0.8685 1.158,-0.8685 z"
     inkscape:connector-curvature="0"
     style="fill:#f4f4f4;stroke-width:0.86602539" /><path
     id="path81"
     d="m 259.745,84.873 c -1.555,0 -2.842,0.96375 -2.842,2.13075 v 13.119 c 0,1.16775 1.286,2.11125 2.842,2.11125 h 17.466 c 1.555,0 2.842,-0.9435 2.842,-2.11125 v -13.119 c 0,-1.16625 -1.286,-2.13075 -2.842,-2.13075 z m 0,1.26225 h 17.466 c 0.646,0 1.159,0.3855 1.159,0.8685 v 13.119 c 0,0.48375 -0.515,0.84975 -1.159,0.84975 h -17.466 c -0.645,0 -1.158,-0.366 -1.158,-0.84975 v -13.119 c 0.001,-0.48375 0.513,-0.8685 1.158,-0.8685 z"
     inkscape:connector-curvature="0"
     style="fill:#f4f4f4;stroke-width:0.86602539" /><path
     id="path83"
     d="m 284.418,84.873 c -1.555,0 -2.842,0.96375 -2.842,2.13075 v 13.119 c 0,1.167 1.286,2.11125 2.842,2.11125 h 17.493 c 1.555,0 2.814,-0.94425 2.814,-2.11125 v -13.119 c 0,-1.16625 -1.258,-2.13075 -2.814,-2.13075 z m 0,1.26225 h 17.493 c 0.646,0 1.131,0.3855 1.131,0.8685 v 13.119 c 0,0.4845 -0.486,0.84975 -1.131,0.84975 h -17.493 c -0.646,0 -1.157,-0.366 -1.157,-0.84975 v -13.119 c 0,-0.48375 0.511,-0.8685 1.157,-0.8685 z"
     inkscape:connector-curvature="0"
     style="fill:#f4f4f4;stroke-width:0.86602539" /><path
     id="path85"
     d="m 309.091,84.873 c -1.554,0 -2.842,0.96375 -2.842,2.13075 v 13.119 c 0,1.16775 1.286,2.11125 2.842,2.11125 h 17.493 c 1.556,0 2.841,-0.9435 2.841,-2.11125 v -13.119 c 0,-1.16625 -1.285,-2.13075 -2.841,-2.13075 z m 0,1.26225 h 17.493 c 0.645,0 1.158,0.3855 1.158,0.8685 v 13.119 c 0,0.48375 -0.514,0.84975 -1.158,0.84975 h -17.493 c -0.645,0 -1.158,-0.366 -1.158,-0.84975 v -13.119 c -10e-4,-0.48375 0.514,-0.8685 1.158,-0.8685 z"
     inkscape:connector-curvature="0"
     style="fill:#f4f4f4;stroke-width:0.86602539" /><path
     id="path87"
     d="m 333.797,84.873 c -1.554,0 -2.842,0.96375 -2.842,2.13075 v 13.119 c 0,1.167 1.287,2.11125 2.842,2.11125 h 17.468 c 1.554,0 2.84,-0.94425 2.84,-2.11125 v -13.119 c 0,-1.16625 -1.285,-2.13075 -2.84,-2.13075 z m 0,1.26225 h 17.468 c 0.645,0 1.157,0.3855 1.157,0.8685 v 13.119 c 0,0.4845 -0.514,0.84975 -1.157,0.84975 h -17.468 c -0.646,0 -1.157,-0.366 -1.157,-0.84975 v -13.119 c -10e-4,-0.48375 0.511,-0.8685 1.157,-0.8685 z"
     inkscape:connector-curvature="0"
     style="fill:#f4f4f4;stroke-width:0.86602539" /><path
     id="path89"
     d="m 358.469,84.873 c -1.554,0 -2.839,0.96375 -2.839,2.13075 v 13.119 c 0,1.167 1.284,2.11125 2.839,2.11125 h 17.495 c 1.554,0 2.813,-0.9435 2.813,-2.11125 v -13.119 c 0,-1.16625 -1.259,-2.13075 -2.813,-2.13075 z m 0,1.26225 h 17.495 c 0.644,0 1.131,0.3855 1.131,0.8685 v 13.119 c 0,0.48375 -0.487,0.84975 -1.131,0.84975 h -17.495 c -0.646,0 -1.155,-0.366 -1.155,-0.84975 v -13.119 c -0.001,-0.48375 0.509,-0.8685 1.155,-0.8685 z"
     inkscape:connector-curvature="0"
     style="fill:#f4f4f4;stroke-width:0.86602539" /><path
     id="path91"
     d="m 445.755,84.873 c -1.555,0 -2.842,0.96375 -2.842,2.13075 v 13.119 c 0,1.167 1.286,2.11125 2.842,2.11125 h 31.75 c 1.555,0 2.842,-0.9435 2.842,-2.11125 v -13.119 c 0,-1.16625 -1.286,-2.13075 -2.842,-2.13075 z m 0,1.26225 h 31.75 c 0.646,0 1.158,0.3855 1.158,0.8685 v 13.119 c 0,0.48375 -0.514,0.84975 -1.158,0.84975 h -31.75 c -0.647,0 -1.157,-0.366 -1.157,-0.84975 v -13.119 c -0.001,-0.48375 0.51,-0.8685 1.157,-0.8685 z"
     inkscape:connector-curvature="0"
     style="fill:#f4f4f4;stroke-width:0.86602539" /><path
     id="path93"
     d="m 382.931,84.873 c -1.553,0 -2.842,0.96375 -2.842,2.13075 v 13.119 c 0,1.16775 1.286,2.11125 2.842,2.11125 h 29.437 c 1.555,0 2.842,-0.94425 2.842,-2.11125 v -13.119 c 0,-1.16625 -1.286,-2.13075 -2.842,-2.13075 z m 0,1.26225 h 29.437 c 0.646,0 1.157,0.3855 1.157,0.8685 v 13.119 c 0,0.4845 -0.511,0.84975 -1.157,0.84975 h -29.437 c -0.645,0 -1.157,-0.366 -1.157,-0.84975 v -13.119 c 0,-0.48375 0.514,-0.8685 1.157,-0.8685 z"
     inkscape:connector-curvature="0"
     style="fill:#f4f4f4;stroke-width:0.86602539" /><path
     id="path95"
     d="m 370.204,66.564 c -1.556,0 -2.841,0.96375 -2.841,2.13075 v 13.1205 c 0,1.1655 1.285,2.13 2.841,2.13 h 17.493 c 1.554,0 2.815,-0.963 2.815,-2.13 v -13.1205 c 0,-1.167 -1.261,-2.13075 -2.815,-2.13075 z m 0,1.263 h 17.493 c 0.646,0 1.131,0.38325 1.131,0.8685 V 81.816 c 0,0.483 -0.486,0.86775 -1.131,0.86775 h -17.493 c -0.646,0 -1.157,-0.38475 -1.157,-0.86775 V 68.6955 c 0,-0.48525 0.512,-0.8685 1.157,-0.8685 z"
     inkscape:connector-curvature="0"
     style="fill:#f4f4f4;stroke-width:0.86602539" /><path
     id="path97"
     d="m 17.994,103.18125 c -1.555,0 -2.841,0.96375 -2.841,2.1315 V 118.413 c 0,1.16625 1.286,2.13075 2.841,2.13075 h 17.493 c 1.555,0 2.815,-0.9645 2.815,-2.13075 v -13.10025 c 0,-1.16775 -1.26,-2.1315 -2.815,-2.1315 z m 0,1.263 h 17.493 c 0.646,0 1.131,0.3855 1.131,0.8685 V 118.413 c 0,0.4845 -0.485,0.86775 -1.131,0.86775 H 17.994 c -0.646,0 -1.158,-0.384 -1.158,-0.86775 v -13.10025 c 0.001,-0.4845 0.512,-0.8685 1.158,-0.8685 z"
     inkscape:connector-curvature="0"
     style="fill:#f4f4f4;stroke-width:0.86602539" /><path
     id="path99"
     d="m 42.67,103.18125 c -1.555,0 -2.841,0.96375 -2.841,2.1315 V 118.413 c 0,1.16625 1.286,2.13075 2.841,2.13075 h 17.492 c 1.556,0 2.841,-0.9645 2.841,-2.13075 v -13.10025 c 0,-1.16775 -1.286,-2.1315 -2.841,-2.1315 z m 0,1.263 h 17.492 c 0.646,0 1.158,0.3855 1.158,0.8685 V 118.413 c 0,0.4845 -0.512,0.86775 -1.158,0.86775 H 42.67 c -0.646,0 -1.158,-0.384 -1.158,-0.86775 v -13.10025 c 0,-0.4845 0.511,-0.8685 1.158,-0.8685 z"
     inkscape:connector-curvature="0"
     style="fill:#f4f4f4;stroke-width:0.86602539" /><path
     id="path101"
     d="m 67.344,103.18125 c -1.555,0 -2.815,0.96375 -2.815,2.1315 V 118.413 c 0,1.16625 1.26,2.13075 2.815,2.13075 h 17.493 c 1.417,0 2.562,-0.8115 2.762,-1.8345 0.01,-0.0195 0.019,-0.039 0.026,-0.0592 0.038,-0.0757 0.055,-0.156 0.052,-0.23625 v -13.10025 c 0,-1.16775 -1.286,-2.1315 -2.841,-2.1315 H 67.344 Z m 0,1.263 h 17.493 c 0.646,0 1.157,0.3855 1.157,0.8685 V 118.314 c -0.001,0.0203 -0.001,0.0405 0,0.06 v 0.039 c 0,0.4845 -0.512,0.86775 -1.157,0.86775 H 67.344 c -0.646,0 -1.131,-0.384 -1.131,-0.86775 v -13.10025 c 0,-0.4845 0.485,-0.8685 1.131,-0.8685 z"
     inkscape:connector-curvature="0"
     style="fill:#f4f4f4;stroke-width:0.86602539" /><path
     id="path103"
     d="m 92.045,103.18125 c -1.554,0 -2.84,0.96375 -2.84,2.1315 V 118.413 c 0,1.16625 1.285,2.13075 2.84,2.13075 h 17.493 c 1.555,0 2.814,-0.9645 2.814,-2.13075 v -13.10025 c 0,-1.16775 -1.26,-2.1315 -2.814,-2.1315 z m 0,1.263 h 17.493 c 0.646,0 1.131,0.3855 1.131,0.8685 V 118.413 c 0,0.4845 -0.485,0.86775 -1.131,0.86775 H 92.045 c -0.645,0 -1.158,-0.384 -1.158,-0.86775 v -13.10025 c 0.001,-0.4845 0.512,-0.8685 1.158,-0.8685 z"
     inkscape:connector-curvature="0"
     style="fill:#f4f4f4;stroke-width:0.86602539" /><path
     id="path105"
     d="m 116.718,103.18125 c -1.554,0 -2.84,0.96375 -2.84,2.1315 V 118.413 c 0,1.16625 1.285,2.13075 2.84,2.13075 h 17.493 c 1.555,0 2.841,-0.9645 2.841,-2.13075 v -13.10025 c 0,-1.16775 -1.286,-2.1315 -2.841,-2.1315 z m 0,1.263 h 17.493 c 0.646,0 1.157,0.3855 1.157,0.8685 V 118.413 c 0,0.4845 -0.512,0.86775 -1.157,0.86775 h -17.493 c -0.645,0 -1.157,-0.384 -1.157,-0.86775 v -13.10025 c 0,-0.4845 0.511,-0.8685 1.157,-0.8685 z"
     inkscape:connector-curvature="0"
     style="fill:#f4f4f4;stroke-width:0.86602539" /><path
     id="path107"
     d="m 141.399,103.18125 c -1.555,0 -2.815,0.96375 -2.815,2.1315 V 118.413 c 0,1.16625 1.259,2.13075 2.815,2.13075 h 17.493 c 1.555,0 2.842,-0.9645 2.842,-2.13075 v -13.10025 c 0,-1.16775 -1.287,-2.1315 -2.842,-2.1315 z m 0,1.263 h 17.493 c 0.646,0 1.158,0.3855 1.158,0.8685 V 118.413 c 0,0.4845 -0.513,0.86775 -1.158,0.86775 h -17.493 c -0.646,0 -1.131,-0.384 -1.131,-0.86775 v -13.10025 c -0.001,-0.4845 0.485,-0.8685 1.131,-0.8685 z"
     inkscape:connector-curvature="0"
     style="fill:#f4f4f4;stroke-width:0.86602539" /><path
     id="path109"
     d="m 166.097,103.18125 c -1.554,0 -2.841,0.96375 -2.841,2.1315 V 118.413 c 0,1.16625 1.286,2.13075 2.841,2.13075 h 17.493 c 1.555,0 2.815,-0.9645 2.815,-2.13075 v -13.10025 c 0,-1.16775 -1.26,-2.1315 -2.815,-2.1315 z m 0,1.263 h 17.493 c 0.646,0 1.131,0.3855 1.131,0.8685 V 118.413 c 0,0.4845 -0.486,0.86775 -1.131,0.86775 h -17.493 c -0.646,0 -1.158,-0.384 -1.158,-0.86775 v -13.10025 c 0,-0.4845 0.513,-0.8685 1.158,-0.8685 z"
     inkscape:connector-curvature="0"
     style="fill:#f4f4f4;stroke-width:0.86602539" /><path
     id="path111"
     d="m 190.77,103.18125 c -1.555,0 -2.842,0.96375 -2.842,2.1315 V 118.413 c 0,1.16625 1.285,2.13075 2.842,2.13075 h 17.493 c 1.555,0 2.84,-0.9645 2.84,-2.13075 v -13.10025 c 0,-1.16775 -1.285,-2.1315 -2.84,-2.1315 z m 0,1.263 h 17.493 c 0.646,0 1.157,0.3855 1.157,0.8685 V 118.413 c 0,0.4845 -0.512,0.86775 -1.157,0.86775 H 190.77 c -0.647,0 -1.158,-0.384 -1.158,-0.86775 v -13.10025 c 0,-0.4845 0.51,-0.8685 1.158,-0.8685 z"
     inkscape:connector-curvature="0"
     style="fill:#f4f4f4;stroke-width:0.86602539" /><path
     id="path113"
     d="m 215.442,103.18125 c -1.554,0 -2.814,0.96375 -2.814,2.1315 V 118.413 c 0,1.16625 1.259,2.13075 2.814,2.13075 h 17.493 c 1.555,0 2.841,-0.9645 2.841,-2.13075 v -13.10025 c 0,-1.16775 -1.286,-2.1315 -2.841,-2.1315 z m 0,1.263 h 17.493 c 0.645,0 1.157,0.3855 1.157,0.8685 V 118.413 c 0,0.4845 -0.512,0.86775 -1.157,0.86775 h -17.493 c -0.646,0 -1.131,-0.384 -1.131,-0.86775 v -13.10025 c 0,-0.4845 0.486,-0.8685 1.131,-0.8685 z"
     inkscape:connector-curvature="0"
     style="fill:#f4f4f4;stroke-width:0.86602539" /><path
     id="path115"
     d="m 240.149,103.18125 c -1.555,0 -2.842,0.96375 -2.842,2.1315 V 118.413 c 0,1.16625 1.287,2.13075 2.842,2.13075 h 17.493 c 1.554,0 2.814,-0.9645 2.814,-2.13075 v -13.10025 c 0,-1.167 -1.26,-2.1315 -2.814,-2.1315 z m 0,1.263 h 17.493 c 0.645,0 1.131,0.38475 1.131,0.8685 V 118.413 c 0,0.4845 -0.487,0.86775 -1.131,0.86775 h -17.493 c -0.646,0 -1.158,-0.384 -1.158,-0.86775 v -13.10025 c 0,-0.4845 0.511,-0.8685 1.158,-0.8685 z"
     inkscape:connector-curvature="0"
     style="fill:#f4f4f4;stroke-width:0.86602539" /><path
     id="path117"
     d="m 264.821,103.18125 c -1.554,0 -2.841,0.96375 -2.841,2.1315 V 118.413 c 0,1.16625 1.286,2.13075 2.841,2.13075 h 17.493 c 1.554,0 2.841,-0.9645 2.841,-2.13075 v -13.10025 c 0,-1.16775 -1.286,-2.1315 -2.841,-2.1315 z m 0,1.263 h 17.493 c 0.646,0 1.157,0.3855 1.157,0.8685 V 118.413 c 0,0.4845 -0.514,0.86775 -1.157,0.86775 h -17.493 c -0.646,0 -1.157,-0.384 -1.157,-0.86775 v -13.10025 c 0,-0.4845 0.511,-0.8685 1.157,-0.8685 z"
     inkscape:connector-curvature="0"
     style="fill:#f4f4f4;stroke-width:0.86602539" /><path
     id="path119"
     d="m 289.493,103.18125 c -1.553,0 -2.813,0.96375 -2.813,2.1315 V 118.413 c 0,1.16625 1.259,2.13075 2.813,2.13075 h 17.494 c 1.554,0 2.842,-0.9645 2.842,-2.13075 v -13.10025 c 0,-1.16775 -1.287,-2.1315 -2.842,-2.1315 z m 0,1.263 h 17.494 c 0.646,0 1.157,0.3855 1.157,0.8685 V 118.413 c 0,0.4845 -0.514,0.86775 -1.157,0.86775 h -17.494 c -0.645,0 -1.13,-0.384 -1.13,-0.86775 v -13.10025 c 0,-0.4845 0.486,-0.8685 1.13,-0.8685 z"
     inkscape:connector-curvature="0"
     style="fill:#f4f4f4;stroke-width:0.86602539" /><path
     id="path121"
     d="m 314.201,103.18125 c -1.556,0 -2.842,0.96375 -2.842,2.1315 V 118.413 c 0,1.16625 1.284,2.13075 2.842,2.13075 h 17.493 c 1.554,0 2.814,-0.9645 2.814,-2.13075 v -13.10025 c 0,-1.16775 -1.26,-2.1315 -2.814,-2.1315 z m 0,1.263 h 17.493 c 0.645,0 1.13,0.3855 1.13,0.8685 V 118.413 c 0,0.4845 -0.486,0.86775 -1.13,0.86775 h -17.493 c -0.646,0 -1.159,-0.384 -1.159,-0.86775 v -13.10025 c 0,-0.4845 0.513,-0.8685 1.159,-0.8685 z"
     inkscape:connector-curvature="0"
     style="fill:#f4f4f4;stroke-width:0.86602539" /><path
     id="path123"
     d="m 338.873,103.18125 c -1.554,0 -2.841,0.96375 -2.841,2.1315 V 118.413 c 0,1.16625 1.285,2.13075 2.841,2.13075 h 17.492 c 1.555,0 2.842,-0.9645 2.842,-2.13075 v -13.10025 c 0,-1.167 -1.286,-2.1315 -2.842,-2.1315 z m 0,1.263 h 17.492 c 0.646,0 1.157,0.38475 1.157,0.8685 V 118.413 c 0,0.4845 -0.512,0.86775 -1.157,0.86775 h -17.492 c -0.646,0 -1.158,-0.384 -1.158,-0.86775 v -13.10025 c 0,-0.4845 0.513,-0.8685 1.158,-0.8685 z"
     inkscape:connector-curvature="0"
     style="fill:#f4f4f4;stroke-width:0.86602539" /><path
     id="path125"
     d="m 445.755,103.18125 c -1.555,0 -2.842,0.96375 -2.842,2.1315 V 118.413 c 0,1.16625 1.286,2.13075 2.842,2.13075 h 31.75 c 1.555,0 2.842,-0.9645 2.842,-2.13075 v -13.10025 c 0,-1.16775 -1.286,-2.1315 -2.842,-2.1315 z m 0,1.263 h 31.75 c 0.646,0 1.158,0.3855 1.158,0.8685 V 118.413 c 0,0.4845 -0.514,0.86775 -1.158,0.86775 h -31.75 c -0.647,0 -1.157,-0.384 -1.157,-0.86775 v -13.10025 c -0.001,-0.4845 0.51,-0.8685 1.157,-0.8685 z"
     inkscape:connector-curvature="0"
     style="fill:#f4f4f4;stroke-width:0.86602539" /><path
     id="path127"
     d="m 364.227,103.18125 c -1.555,0 -2.841,0.96375 -2.841,2.1315 V 118.413 c 0,1.16625 1.285,2.13075 2.841,2.13075 h 41.063 c 1.554,0 2.814,-0.9645 2.814,-2.13075 v -13.10025 c 0,-1.16775 -1.261,-2.1315 -2.814,-2.1315 z m 0,1.263 h 41.063 c 0.646,0 1.132,0.3855 1.132,0.8685 V 118.413 c 0,0.4845 -0.488,0.86775 -1.132,0.86775 h -41.063 c -0.646,0 -1.157,-0.384 -1.157,-0.86775 v -13.10025 c 0,-0.4845 0.512,-0.8685 1.157,-0.8685 z"
     inkscape:connector-curvature="0"
     style="fill:#f4f4f4;stroke-width:0.86602539" /><path
     id="path129"
     d="m 17.994,121.491 c -1.555,0 -2.841,0.945 -2.841,2.1105 v 13.1205 c 0,1.16625 1.286,2.13 2.841,2.13 h 17.493 c 1.555,0 2.815,-0.963 2.815,-2.13 v -13.1205 c 0,-1.16625 -1.26,-2.1105 -2.815,-2.1105 z m 0,1.26225 h 17.493 c 0.646,0 1.131,0.3645 1.131,0.84825 v 13.1205 c 0,0.48375 -0.485,0.86775 -1.131,0.86775 H 17.994 c -0.646,0 -1.158,-0.3855 -1.158,-0.86775 v -13.1205 c 0.001,-0.4845 0.512,-0.84825 1.158,-0.84825 z"
     inkscape:connector-curvature="0"
     style="fill:#f4f4f4;stroke-width:0.86602539" /><path
     id="path131"
     d="m 42.67,121.491 c -1.555,0 -2.841,0.945 -2.841,2.1105 v 13.1205 c 0,1.16625 1.286,2.13 2.841,2.13 h 29.436 c 1.416,0 2.561,-0.81225 2.762,-1.83375 0,-0.007 0,-0.0143 0,-0.0195 0.003,-0.015 0.024,-0.0255 0.026,-0.0397 0.032,-0.063 0.049,-0.12975 0.053,-0.19725 0,-0.0143 0,-0.027 0,-0.0397 v -13.1205 c 0,-1.16625 -1.286,-2.1105 -2.841,-2.1105 H 42.67 Z m 0,1.26225 h 29.436 c 0.645,0 1.158,0.3645 1.158,0.84825 v 13.08075 0.0397 c 0,0.48375 -0.513,0.86775 -1.158,0.86775 H 42.67 c -0.646,0 -1.158,-0.38475 -1.158,-0.86775 v -13.1205 c 0,-0.4845 0.511,-0.84825 1.158,-0.84825 z"
     inkscape:connector-curvature="0"
     style="fill:#f4f4f4;stroke-width:0.86602539" /><path
     id="path133"
     d="m 79.313,121.491 c -1.555,0 -2.841,0.945 -2.841,2.1105 v 13.1205 c 0,1.16625 1.286,2.13 2.841,2.13 h 17.493 c 1.555,0 2.814,-0.963 2.814,-2.13 v -13.1205 c 0,-1.16625 -1.259,-2.1105 -2.814,-2.1105 z m 0,1.26225 h 17.493 c 0.645,0 1.131,0.3645 1.131,0.84825 v 13.1205 c 0,0.48375 -0.486,0.86775 -1.131,0.86775 H 79.313 c -0.646,0 -1.158,-0.3855 -1.158,-0.86775 v -13.1205 c 0.001,-0.4845 0.512,-0.84825 1.158,-0.84825 z"
     inkscape:connector-curvature="0"
     style="fill:#f4f4f4;stroke-width:0.86602539" /><path
     id="path135"
     d="m 103.99,121.491 c -1.555,0 -2.841,0.945 -2.841,2.1105 v 13.1205 c 0,1.16625 1.286,2.13 2.841,2.13 h 17.493 c 1.555,0 2.841,-0.963 2.841,-2.13 v -13.1205 c 0,-1.16625 -1.286,-2.1105 -2.841,-2.1105 z m 0,1.26225 h 17.493 c 0.646,0 1.158,0.3645 1.158,0.84825 v 13.1205 c 0,0.48375 -0.512,0.86775 -1.158,0.86775 H 103.99 c -0.645,0 -1.158,-0.3855 -1.158,-0.86775 v -13.1205 c 0,-0.4845 0.512,-0.84825 1.158,-0.84825 z"
     inkscape:connector-curvature="0"
     style="fill:#f4f4f4;stroke-width:0.86602539" /><path
     id="path137"
     d="m 128.688,121.491 c -1.555,0 -2.841,0.945 -2.841,2.1105 v 13.1205 c 0,1.16625 1.286,2.13 2.841,2.13 h 17.467 c 1.555,0 2.841,-0.963 2.841,-2.13 v -13.1205 c 0,-1.16625 -1.286,-2.1105 -2.841,-2.1105 z m 0,1.26225 h 17.467 c 0.646,0 1.158,0.36375 1.158,0.84825 v 13.1205 c 0,0.48375 -0.512,0.86775 -1.158,0.86775 h -17.467 c -0.646,0 -1.158,-0.3855 -1.158,-0.86775 v -13.1205 c 0,-0.4845 0.512,-0.84825 1.158,-0.84825 z"
     inkscape:connector-curvature="0"
     style="fill:#f4f4f4;stroke-width:0.86602539" /><path
     id="path139"
     d="m 85.521,139.7805 c -1.554,0 -2.841,0.963 -2.841,2.13075 V 155.031 c 0,1.16625 1.286,2.1315 2.841,2.1315 h 217.702 c 1.555,0 2.841,-0.9645 2.841,-2.1315 v -13.11975 c 0,-1.16625 -1.286,-2.13075 -2.841,-2.13075 z m 0,1.263 h 217.702 c 0.646,0 1.157,0.384 1.157,0.86775 V 155.031 c 0,0.4845 -0.513,0.86775 -1.157,0.86775 H 85.521 c -0.645,0 -1.157,-0.384 -1.157,-0.86775 v -13.11975 c 0,-0.4845 0.511,-0.86775 1.157,-0.86775 z"
     inkscape:connector-curvature="0"
     style="fill:#f4f4f4;stroke-width:0.86602539" /><path
     id="path141"
     d="m 153.361,121.491 c -1.555,0 -2.841,0.945 -2.841,2.1105 v 13.1205 c 0,1.1655 1.285,2.13 2.841,2.13 h 17.493 c 1.555,0 2.815,-0.963 2.815,-2.13 v -13.1205 c 0,-1.16625 -1.26,-2.1105 -2.815,-2.1105 z m 0,1.26225 h 17.493 c 0.646,0 1.132,0.3645 1.132,0.84825 v 13.1205 c 0,0.48375 -0.486,0.86775 -1.132,0.86775 h -17.493 c -0.646,0 -1.158,-0.38475 -1.158,-0.86775 v -13.1205 c 0,-0.4845 0.511,-0.84825 1.158,-0.84825 z"
     inkscape:connector-curvature="0"
     style="fill:#f4f4f4;stroke-width:0.86602539" /><path
     id="path143"
     d="m 178.042,121.491 c -1.555,0 -2.841,0.945 -2.841,2.1105 v 13.1205 c 0,1.16625 1.286,2.13 2.841,2.13 h 17.493 c 1.555,0 2.841,-0.963 2.841,-2.13 v -13.1205 c 0,-1.16625 -1.285,-2.1105 -2.841,-2.1105 z m 0,1.26225 h 17.493 c 0.647,0 1.158,0.36375 1.158,0.84825 v 13.1205 c 0,0.48375 -0.512,0.86775 -1.158,0.86775 h -17.493 c -0.646,0 -1.158,-0.3855 -1.158,-0.86775 v -13.1205 c 0,-0.4845 0.512,-0.84825 1.158,-0.84825 z"
     inkscape:connector-curvature="0"
     style="fill:#f4f4f4;stroke-width:0.86602539" /><path
     id="path145"
     d="m 202.74,121.491 c -1.554,0 -2.841,0.945 -2.841,2.1105 v 13.1205 c 0,1.1655 1.286,2.13 2.841,2.13 h 17.466 c 1.555,0 2.841,-0.963 2.841,-2.13 v -13.1205 c 0,-1.16625 -1.286,-2.1105 -2.841,-2.1105 z m 0,1.26225 h 17.466 c 0.646,0 1.158,0.3645 1.158,0.84825 v 13.1205 c 0,0.48375 -0.512,0.86775 -1.158,0.86775 H 202.74 c -0.646,0 -1.158,-0.38475 -1.158,-0.86775 v -13.1205 c 0,-0.4845 0.513,-0.84825 1.158,-0.84825 z"
     inkscape:connector-curvature="0"
     style="fill:#f4f4f4;stroke-width:0.86602539" /><path
     id="path147"
     d="m 227.412,121.491 c -1.555,0 -2.841,0.945 -2.841,2.1105 v 13.1205 c 0,1.16625 1.286,2.13 2.841,2.13 h 17.493 c 1.555,0 2.815,-0.963 2.815,-2.13 v -13.1205 c 0,-1.16625 -1.26,-2.1105 -2.815,-2.1105 z m 0,1.26225 h 17.493 c 0.646,0 1.131,0.36375 1.131,0.84825 v 13.1205 c 0,0.48375 -0.485,0.86775 -1.131,0.86775 h -17.493 c -0.645,0 -1.158,-0.3855 -1.158,-0.86775 v -13.1205 c 0.001,-0.4845 0.512,-0.84825 1.158,-0.84825 z"
     inkscape:connector-curvature="0"
     style="fill:#f4f4f4;stroke-width:0.86602539" /><path
     id="path149"
     d="m 252.093,121.491 c -1.553,0 -2.84,0.945 -2.84,2.1105 v 13.1205 c 0,1.1655 1.286,2.13 2.84,2.13 h 17.494 c 1.555,0 2.841,-0.963 2.841,-2.13 v -13.1205 c 0,-1.16625 -1.286,-2.1105 -2.841,-2.1105 z m 0,1.26225 h 17.494 c 0.646,0 1.157,0.3645 1.157,0.84825 v 13.1205 c 0,0.48375 -0.513,0.86775 -1.157,0.86775 h -17.494 c -0.645,0 -1.157,-0.38475 -1.157,-0.86775 v -13.1205 c 0,-0.4845 0.513,-0.84825 1.157,-0.84825 z"
     inkscape:connector-curvature="0"
     style="fill:#f4f4f4;stroke-width:0.86602539" /><path
     id="path151"
     d="m 276.791,121.491 c -1.554,0 -2.841,0.94425 -2.841,2.1105 v 13.1205 c 0,1.16625 1.286,2.13 2.841,2.13 h 17.468 c 1.555,0 2.841,-0.963 2.841,-2.13 v -13.1205 c 0,-1.16625 -1.286,-2.1105 -2.841,-2.1105 z m 0,1.26225 h 17.468 c 0.646,0 1.157,0.3645 1.157,0.84825 v 13.1205 c 0,0.48375 -0.513,0.86775 -1.157,0.86775 h -17.468 c -0.646,0 -1.156,-0.3855 -1.156,-0.86775 v -13.1205 c 0,-0.4845 0.511,-0.84825 1.156,-0.84825 z"
     inkscape:connector-curvature="0"
     style="fill:#f4f4f4;stroke-width:0.86602539" /><path
     id="path153"
     d="m 301.464,121.491 c -1.554,0 -2.842,0.94425 -2.842,2.1105 v 13.1205 c 0,1.16625 1.287,2.13 2.842,2.13 h 17.493 c 1.555,0 2.813,-0.963 2.813,-2.13 v -13.1205 c 0,-1.16625 -1.258,-2.1105 -2.813,-2.1105 z m 0,1.26225 h 17.493 c 0.646,0 1.132,0.3645 1.132,0.84825 v 13.1205 c 0,0.48375 -0.487,0.86775 -1.132,0.86775 h -17.493 c -0.646,0 -1.157,-0.3855 -1.157,-0.86775 v -13.1205 c -0.001,-0.4845 0.512,-0.84825 1.157,-0.84825 z"
     inkscape:connector-curvature="0"
     style="fill:#f4f4f4;stroke-width:0.86602539" /><path
     id="path155"
     d="m 326.137,121.491 c -1.554,0 -2.842,0.94425 -2.842,2.1105 v 13.1205 c 0,1.16625 1.286,2.13 2.842,2.13 h 30.436 c 1.556,0 2.841,-0.963 2.841,-2.13 v -13.1205 c 0,-1.16625 -1.285,-2.1105 -2.841,-2.1105 z m 0,1.26225 h 30.436 c 0.646,0 1.157,0.3645 1.157,0.84825 v 13.1205 c 0,0.48375 -0.513,0.86775 -1.157,0.86775 h -30.436 c -0.646,0 -1.157,-0.3855 -1.157,-0.86775 v -13.1205 c -0.001,-0.4845 0.512,-0.84825 1.157,-0.84825 z"
     inkscape:connector-curvature="0"
     style="fill:#f4f4f4;stroke-width:0.86602539" /><path
     id="path157"
     d="m 363.125,121.491 c -1.554,0 -2.842,0.945 -2.842,2.1105 v 13.1205 c 0,1.1655 1.287,2.13 2.842,2.13 h 17.467 c 1.554,0 2.841,-0.963 2.841,-2.13 v -13.1205 c 0,-1.16625 -1.286,-2.1105 -2.841,-2.1105 z m 0,1.26225 h 17.467 c 0.646,0 1.157,0.36375 1.157,0.84825 v 13.1205 c 0,0.48375 -0.512,0.86775 -1.157,0.86775 h -17.467 c -0.646,0 -1.157,-0.38475 -1.157,-0.86775 v -13.1205 c 0,-0.4845 0.512,-0.84825 1.157,-0.84825 z"
     inkscape:connector-curvature="0"
     style="fill:#f4f4f4;stroke-width:0.86602539" /><path
     id="path159"
     d="m 445.755,121.491 c -1.555,0 -2.842,0.945 -2.842,2.1105 v 13.1205 c 0,1.1655 1.286,2.13 2.842,2.13 h 31.75 c 1.555,0 2.842,-0.963 2.842,-2.13 v -13.1205 c 0,-1.16625 -1.286,-2.1105 -2.842,-2.1105 z m 0,1.26225 h 31.75 c 0.646,0 1.158,0.3645 1.158,0.84825 v 13.1205 c 0,0.48375 -0.514,0.86775 -1.158,0.86775 h -31.75 c -0.647,0 -1.157,-0.38475 -1.157,-0.86775 v -13.1205 c -0.001,-0.4845 0.51,-0.84825 1.157,-0.84825 z"
     inkscape:connector-curvature="0"
     style="fill:#f4f4f4;stroke-width:0.86602539" /><path
     id="path161"
     d="m 387.798,121.491 c -1.554,0 -2.842,0.945 -2.842,2.1105 v 13.1205 c 0,1.1655 1.285,2.13 2.842,2.13 h 17.493 c 1.554,0 2.814,-0.963 2.814,-2.13 v -13.1205 c 0,-1.16625 -1.261,-2.1105 -2.814,-2.1105 z m 0,1.26225 h 17.493 c 0.646,0 1.132,0.3645 1.132,0.84825 v 13.1205 c 0,0.48375 -0.488,0.86775 -1.132,0.86775 h -17.493 c -0.646,0 -1.158,-0.38475 -1.158,-0.86775 v -13.1205 c -10e-4,-0.4845 0.511,-0.84825 1.158,-0.84825 z"
     inkscape:connector-curvature="0"
     style="fill:#f4f4f4;stroke-width:0.86602539" /><path
     id="path163"
     d="m 394.877,66.564 c -1.555,0 -2.841,0.96375 -2.841,2.13075 v 13.1205 c 0,1.16625 1.285,2.13 2.841,2.13 h 17.493 c 1.555,0 2.842,-0.96375 2.842,-2.13 v -13.1205 c 0,-1.167 -1.287,-2.13075 -2.842,-2.13075 z m 0,1.263 h 17.493 c 0.647,0 1.157,0.38325 1.157,0.8685 V 81.816 c 0,0.48375 -0.511,0.86775 -1.157,0.86775 h -17.493 c -0.646,0 -1.157,-0.3855 -1.157,-0.86775 V 68.6955 c 0,-0.4845 0.512,-0.8685 1.157,-0.8685 z"
     inkscape:connector-curvature="0"
     style="fill:#f4f4f4;stroke-width:0.86602539" /><path
     id="path165"
     d="m 445.755,66.564 c -1.555,0 -2.842,0.96375 -2.842,2.13075 v 13.1205 c 0,1.1655 1.286,2.13 2.842,2.13 h 31.75 c 1.555,0 2.842,-0.963 2.842,-2.13 v -13.1205 c 0,-1.167 -1.286,-2.13075 -2.842,-2.13075 z m 0,1.263 h 31.75 c 0.646,0 1.158,0.38325 1.158,0.8685 V 81.816 c 0,0.483 -0.514,0.86775 -1.158,0.86775 h -31.75 c -0.647,0 -1.157,-0.38475 -1.157,-0.86775 V 68.6955 c -0.001,-0.48525 0.51,-0.8685 1.157,-0.8685 z"
     inkscape:connector-curvature="0"
     style="fill:#f4f4f4;stroke-width:0.86602539" /><path
     id="polygon167"
     d="m 19.783,64.49325 c -0.434,0.0308 -0.764,0.3045 -0.763,0.63075 v 35.9865 h -5.787 c -0.465,0 -0.842,0.28275 -0.842,0.63225 v 39.0825 c 0,0.34875 0.376,0.63075 0.842,0.63075 h 66.238 v 17.3025 c 0,0.3495 0.377,0.63225 0.842,0.63225 h 227.466 c 0.465,0 0.843,-0.28275 0.843,-0.63225 v -17.53875 h 101.435 c 0.466,0 0.842,-0.28275 0.842,-0.6315 v -35.985 h 6.444 c 0.466,0 0.843,-0.28275 0.843,-0.6315 v -38.847 c 0,-0.34875 -0.377,-0.63075 -0.843,-0.63075 H 19.861 c -0.026,-0.001 -0.053,-0.001 -0.078,-7.5e-4 z m 0.92,1.263 h 395.799 v 37.584 h -6.446 c -0.463,0 -0.841,0.282 -0.841,0.6315 v 35.985 H 307.78 c -0.465,0 -0.841,0.2835 -0.841,0.63225 v 17.5395 H 81.155 V 140.826 c 0,-0.34875 -0.377,-0.6315 -0.842,-0.6315 H 14.075 v -37.82025 h 5.788 c 0.465,0 0.841,-0.2835 0.841,-0.6315 z"
     inkscape:connector-curvature="0"
     style="fill:#f4f4f4;stroke-width:0.86602539" /><path
     id="rect169"
     d="m 441.336,64.872 c -0.424,0.0405 -0.741,0.312 -0.737,0.6315 v 74.71275 c 0,0.34875 0.377,0.6315 0.842,0.6315 h 40.168 c 0.466,0 0.843,-0.28275 0.843,-0.6315 V 65.5035 c 0,-0.34875 -0.377,-0.6315 -0.843,-0.6315 h -40.168 c -0.036,-0.002 -0.072,-0.002 -0.105,0 z m 0.946,1.263 h 38.485 v 73.4505 h -38.485 z"
     inkscape:connector-curvature="0"
     style="fill:#f4f4f4;stroke-width:0.86602539" /><path
     id="path171"
     d="m 8.919,57.94575 c -2.105,0 -3.84,1.28175 -3.84,2.8605 v 103.104 c 0,1.5795 1.734,2.88075 3.84,2.88075 H 511.33 c 2.104,0 3.813,-1.3005 3.813,-2.88075 V 60.8055 c 0,-1.57875 -1.709,-2.85975 -3.813,-2.85975 z m 0,1.26225 H 511.33 c 1.195,0 2.13,0.70125 2.13,1.5975 v 103.104 c 0,0.897 -0.935,1.6185 -2.13,1.6185 H 8.919 c -1.196,0 -2.157,-0.7215 -2.157,-1.6185 V 60.8055 c 0,-0.897 0.96,-1.5975 2.157,-1.5975 z"
     inkscape:connector-curvature="0"
     style="fill:#f4f4f4;stroke-width:0.86602539" /><path
     id="line173"
     d="m 517.407,27.8385 c -0.465,0 -0.842,0.282 -0.842,0.63075 0,0.0067 0,0.0135 0,0.02025 v 2.19 c -0.008,0.34875 0.364,0.63525 0.83,0.6405 0.463,0.0045 0.847,-0.2745 0.853,-0.6225 0,-0.006 0,-0.012 0,-0.018 v -2.19 c 0.016,-0.34875 -0.351,-0.6405 -0.814,-0.65025 -0.009,-7.5e-4 -0.018,-7.5e-4 -0.027,-7.5e-4 z"
     inkscape:connector-curvature="0"
     style="fill:#f4f4f4;stroke-width:0.86602539" /><path
     id="line175"
     d="m 517.407,24.87825 c -0.465,0 -0.842,0.28275 -0.842,0.63075 0,0.0067 0,0.0135 0,0.02025 V 27.108 c -0.008,0.34875 0.364,0.6345 0.83,0.63975 0.463,0.0053 0.847,-0.27375 0.853,-0.6225 0,-0.006 0,-0.012 0,-0.01725 v -1.57875 c 0.016,-0.34875 -0.351,-0.6405 -0.814,-0.651 -0.009,0 -0.018,0 -0.027,0 z"
     inkscape:connector-curvature="0"
     style="fill:#f4f4f4;stroke-width:0.86602539" /><path
     id="line177"
     d="m 517.305,21.09 c -0.423,0.0405 -0.737,0.31125 -0.735,0.6315 v 2.466 c -0.006,0.34875 0.364,0.63525 0.83,0.6405 0.465,0.0045 0.848,-0.27375 0.854,-0.6225 0,-0.006 0,-0.012 0,-0.018 v -2.466 c 0.004,-0.34875 -0.37,-0.63375 -0.835,-0.636 -0.038,0 -0.076,7.5e-4 -0.114,0.0045 z"
     inkscape:connector-curvature="0"
     style="fill:#f4f4f4;stroke-width:0.86602539" /><path
     id="line179"
     d="m 517.407,17.4405 c -0.465,0 -0.842,0.28275 -0.842,0.6315 0,0.0067 0,0.01275 0,0.0195 v 2.367 c -0.008,0.34875 0.364,0.636 0.83,0.6405 0.463,0.0053 0.847,-0.27375 0.853,-0.6225 0,-0.006 0,-0.012 0,-0.018 v -2.367 c 0.016,-0.34875 -0.351,-0.6405 -0.814,-0.651 -0.009,0 -0.018,0 -0.027,0 z"
     inkscape:connector-curvature="0"
     style="fill:#f4f4f4;stroke-width:0.86602539" /><path
     id="line181"
     d="m 517.305,13.9875 c -0.432,0.04125 -0.752,0.324 -0.735,0.651 v 2.2095 c -0.006,0.34875 0.364,0.636 0.83,0.6405 0.465,0.0053 0.848,-0.27375 0.854,-0.6225 0,-0.006 0,-0.012 0,-0.018 v -2.2095 c 0.019,-0.348 -0.344,-0.64125 -0.808,-0.6555 -0.048,-7.5e-4 -0.095,0 -0.141,0.0045 z"
     inkscape:connector-curvature="0"
     style="fill:#f4f4f4;stroke-width:0.86602539" /><path
     id="line183"
     d="m 517.407,10.85175 c -0.465,0 -0.842,0.282 -0.842,0.63075 0,0.0067 0,0.0135 0,0.0195 v 1.73625 c -0.008,0.34875 0.364,0.636 0.83,0.6405 0.463,0.0053 0.847,-0.27375 0.853,-0.6225 0,-0.0068 0,-0.012 0,-0.018 V 11.502 c 0.016,-0.34875 -0.351,-0.63975 -0.814,-0.65025 -0.009,0 -0.018,0 -0.027,0 z"
     inkscape:connector-curvature="0"
     style="fill:#f4f4f4;stroke-width:0.86602539" /><path
     id="line185"
     d="M 1.317,10.85175 C 0.893,10.8915 0.577,11.163 0.58,11.4825 v 1.776 c -0.007,0.34875 0.365,0.63525 0.83,0.6405 0.465,0.0045 0.847,-0.27375 0.854,-0.6225 0,-0.006 0,-0.012 0,-0.018 v -1.776 c 0.003,-0.34875 -0.371,-0.633 -0.835,-0.636 -0.038,-7.5e-4 -0.076,0.0015 -0.112,0.0052 z"
     inkscape:connector-curvature="0"
     style="fill:#f4f4f4;stroke-width:0.86602539" /><path
     id="line187"
     d="M 1.237,13.968 C 0.846,14.03325 0.57,14.298 0.58,14.5995 v 2.24925 c -0.007,0.34875 0.365,0.63525 0.83,0.6405 0.465,0.0053 0.847,-0.27375 0.854,-0.6225 0,-0.0067 0,-0.012 0,-0.018 V 14.5995 C 2.276,14.25075 1.908,13.9605 1.443,13.953 1.373,13.9515 1.305,13.9567 1.237,13.968 Z"
     inkscape:connector-curvature="0"
     style="fill:#f4f4f4;stroke-width:0.86602539" /><path
     id="line189"
     d="m 1.237,17.73675 c -0.391,0.066 -0.667,0.33 -0.657,0.6315 v 2.052 c -0.007,0.34875 0.365,0.63525 0.83,0.6405 0.465,0.0053 0.847,-0.27375 0.854,-0.62175 0,-0.006 0,-0.01275 0,-0.018 v -2.052 c 0.012,-0.34875 -0.356,-0.6375 -0.821,-0.6465 -0.07,-0.0023 -0.138,0.0038 -0.206,0.01425 z"
     inkscape:connector-curvature="0"
     style="fill:#f4f4f4;stroke-width:0.86602539" /><path
     id="line191"
     d="m 1.237,21.1305 c -0.391,0.066 -0.667,0.33 -0.657,0.63075 v 2.3085 c -0.007,0.34875 0.365,0.636 0.83,0.6405 0.465,0.0053 0.847,-0.27375 0.854,-0.6225 0,-0.006 0,-0.012 0,-0.018 v -2.3085 C 2.276,21.41325 1.908,21.123 1.443,21.1155 1.373,21.114 1.305,21.1185 1.237,21.1305 Z"
     inkscape:connector-curvature="0"
     style="fill:#f4f4f4;stroke-width:0.86602539" /><path
     id="line193"
     d="m 1.237,24.95775 c -0.391,0.066 -0.667,0.33 -0.657,0.6315 v 1.59825 c -0.007,0.34875 0.365,0.63525 0.83,0.6405 0.465,0.0045 0.847,-0.2745 0.854,-0.6225 0,-0.006 0,-0.012 0,-0.018 V 25.58925 C 2.276,25.2405 1.908,24.951 1.443,24.94275 c -0.07,-7.5e-4 -0.138,0.0037 -0.206,0.015 z"
     inkscape:connector-curvature="0"
     style="fill:#f4f4f4;stroke-width:0.86602539" /><path
     id="line195"
     d="m 1.317,28.035 c -0.424,0.0405 -0.74,0.31125 -0.737,0.6315 v 1.875 c -0.007,0.34875 0.365,0.6345 0.83,0.6405 0.465,0.0045 0.847,-0.27375 0.854,-0.62325 0,-0.006 0,-0.012 0,-0.01725 v -1.875 c 0.003,-0.348 -0.371,-0.6345 -0.835,-0.63675 -0.038,0 -0.076,0.0015 -0.112,0.0052 z"
     inkscape:connector-curvature="0"
     style="fill:#f4f4f4;stroke-width:0.86602539" /><path
     id="circle197"
     d="m 462.454,15.64575 c -2.715,0 -4.944,1.65225 -4.944,3.68925 0,2.037 2.229,3.70875 4.944,3.70875 2.719,0 4.946,-1.67175 4.946,-3.70875 0,-2.03775 -2.227,-3.68925 -4.946,-3.68925 z m 0,1.26225 c 1.808,0 3.262,1.07175 3.262,2.427 0,1.35525 -1.454,2.4465 -3.262,2.4465 -1.806,0 -3.261,-1.09125 -3.261,-2.4465 0,-1.35525 1.455,-2.427 3.261,-2.427 z"
     inkscape:connector-curvature="0"
     style="fill:#f4f4f4;stroke-width:0.86602539" /></svg>