<?xml version="1.0" encoding="UTF-8" standalone="no"?>
<!-- Generator: Adobe Illustrator 13.0.0, SVG Export Plug-In . SVG Version: 6.00 Build 14948)  -->

<svg
   xmlns:ns="&amp;#38;ns_sfw;"
   xmlns:dc="http://purl.org/dc/elements/1.1/"
   xmlns:cc="http://creativecommons.org/ns#"
   xmlns:rdf="http://www.w3.org/1999/02/22-rdf-syntax-ns#"
   xmlns:svg="http://www.w3.org/2000/svg"
   xmlns="http://www.w3.org/2000/svg"
   xmlns:sodipodi="http://sodipodi.sourceforge.net/DTD/sodipodi-0.dtd"
   xmlns:inkscape="http://www.inkscape.org/namespaces/inkscape"
   version="1.2"
   id="Layer_3"
   x="0px"
   y="0px"
   width="578.36401"
   height="158.5988"
   viewBox="0 0 578.36399 158.5988"
   xml:space="preserve"
   inkscape:version="0.92.2 (5c3e80d, 2017-08-06)"
   sodipodi:docname="controller.svg"><defs
     id="defs85" /><sodipodi:namedview
     pagecolor="#ffffff"
     bordercolor="#666666"
     borderopacity="1"
     objecttolerance="10"
     gridtolerance="10"
     guidetolerance="10"
     inkscape:pageopacity="0"
     inkscape:pageshadow="2"
     inkscape:window-width="1920"
     inkscape:window-height="1017"
     id="namedview83"
     showgrid="false"
     fit-margin-top="0"
     fit-margin-left="0"
     fit-margin-right="0"
     fit-margin-bottom="0"
     inkscape:zoom="0.48145317"
     inkscape:cx="286.85251"
     inkscape:cy="99.209049"
     inkscape:window-x="-8"
     inkscape:window-y="-8"
     inkscape:window-maximized="1"
     inkscape:current-layer="Layer_3" /><metadata
     id="metadata55"><rdf:RDF><cc:Work
         rdf:about=""><dc:format>image/svg+xml</dc:format><dc:type
           rdf:resource="http://purl.org/dc/dcmitype/StillImage" /><dc:title></dc:title></cc:Work></rdf:RDF><ns:sfw><ns:slices /><ns:sliceSourceBounds
         height="211.465"
         width="578.364"
         y="440.291"
         x="673.647"
         bottomLeftOrigin="true" /></ns:sfw></metadata><path
     id="rect3"
     d="m 0,12.1425 v 0.71325 25.49025 0.71325 h 0.951 461.875 0.95 V 38.346 12.85575 12.1425 H 462.826 0.95 Z M 1.901,13.569 H 461.874 V 37.63275 H 1.901 Z"
     inkscape:connector-curvature="0"
     style="fill:#f4f4f4;stroke-width:0.86602539" /><path
     id="circle5"
     d="m 442.51,16.91175 c -2.57,0 -4.694,1.57125 -4.694,3.498 0,1.92675 2.124,3.5205 4.694,3.5205 2.569,0 4.664,-1.59375 4.664,-3.5205 0,-1.92675 -2.095,-3.498 -4.664,-3.498 z m 0,1.42575 c 1.541,0 2.763,0.91575 2.763,2.07225 0,1.1565 -1.222,2.09475 -2.763,2.09475 -1.541,0 -2.793,-0.93825 -2.793,-2.09475 0,-1.1565 1.252,-2.07225 2.793,-2.07225 z"
     inkscape:connector-curvature="0"
     style="fill:#f4f4f4;stroke-width:0.86602539" /><path
     id="path7"
     d="m 495.804,21.279 c -1.185,0 -2.219,0.15 -2.941,0.69075 -0.72,0.54075 -0.921,1.31625 -0.921,2.20575 v 14.88375 c 0,0.8895 0.201,1.665 0.921,2.20575 0.723,0.5415 1.755,0.69075 2.941,0.69075 h 19.727 c 1.187,0 2.221,-0.14925 2.941,-0.69075 0.723,-0.54075 0.921,-1.31625 0.921,-2.20575 V 24.1755 c 0,-0.8895 -0.198,-1.665 -0.921,-2.20575 -0.721,-0.5415 -1.755,-0.69075 -2.941,-0.69075 z m 0,1.42575 h 19.727 c 0.96,0 1.406,0.141 1.604,0.2895 0.199,0.14925 0.356,0.46125 0.356,1.18125 v 14.88375 c 0,0.71925 -0.157,1.05375 -0.356,1.203 -0.198,0.14925 -0.645,0.267 -1.604,0.267 h -19.727 c -0.958,0 -1.405,-0.1185 -1.604,-0.267 -0.198,-0.14925 -0.356,-0.48375 -0.356,-1.203 V 24.1755 c 0,-0.71925 0.158,-1.032 0.356,-1.18125 0.201,-0.14925 0.646,-0.2895 1.604,-0.2895 z"
     inkscape:connector-curvature="0"
     style="fill:#f4f4f4;stroke-width:0.86602539" /><path
     id="path9"
     d="m 525.162,21.279 c -1.187,0 -2.221,0.15 -2.941,0.69075 -0.723,0.54075 -0.921,1.31625 -0.921,2.20575 v 14.88375 c 0,0.8895 0.198,1.665 0.921,2.20575 0.721,0.5415 1.755,0.69075 2.941,0.69075 h 19.727 c 1.185,0 2.219,-0.14925 2.941,-0.69075 0.72,-0.54075 0.921,-1.3155 0.921,-2.20575 V 24.1755 c 0,-0.8895 -0.201,-1.665 -0.921,-2.20575 C 547.107,21.429 546.075,21.279 544.889,21.279 Z m 0,1.42575 h 19.727 c 0.958,0 1.405,0.14025 1.604,0.2895 0.198,0.14925 0.356,0.462 0.356,1.18125 v 14.88375 c 0,0.71925 -0.158,1.05375 -0.356,1.203 -0.201,0.14925 -0.646,0.267 -1.604,0.267 h -19.727 c -0.96,0 -1.405,-0.1185 -1.604,-0.267 -0.198,-0.14925 -0.356,-0.48375 -0.356,-1.203 V 24.1755 c 0,-0.71925 0.158,-1.032 0.356,-1.18125 0.199,-0.14925 0.644,-0.2895 1.604,-0.2895 z"
     inkscape:connector-curvature="0"
     style="fill:#f4f4f4;stroke-width:0.86602539" /><path
     id="path11"
     d="m 525.162,0 c -1.187,0 -2.221,0.15 -2.941,0.69075 C 521.498,1.23225 521.3,2.007 521.3,2.8965 v 14.88375 c 0,0.8895 0.198,1.665 0.921,2.20575 0.713,0.54075 1.749,0.69 2.938,0.69 h 19.727 c 1.185,0 2.219,-0.14925 2.941,-0.69075 0.721,-0.54075 0.921,-1.3155 0.921,-2.20575 V 2.89575 c 0,-0.8895 -0.2,-1.665 -0.921,-2.20575 C 547.104,0.15 546.066,0 544.889,0 Z m 0,1.42575 h 19.727 c 0.958,0 1.405,0.141 1.604,0.2895 0.198,0.14925 0.356,0.462 0.356,1.18125 v 14.88375 c 0,0.71925 -0.158,1.05375 -0.356,1.203 -0.201,0.14925 -0.646,0.267 -1.604,0.267 h -19.727 c -0.96,0 -1.405,-0.11775 -1.604,-0.267 -0.198,-0.14925 -0.356,-0.48375 -0.356,-1.203 V 2.8965 c 0,-0.71925 0.158,-1.03125 0.356,-1.18125 0.199,-0.1485 0.646,-0.28875 1.606,-0.28875 z"
     inkscape:connector-curvature="0"
     style="fill:#f4f4f4;stroke-width:0.86602539" /><path
     id="path13"
     d="m 525.162,42.55725 c -1.187,0 -2.221,0.1725 -2.941,0.71325 -0.723,0.5415 -0.921,1.2945 -0.921,2.184 v 14.90625 c 0,0.89025 0.198,1.64325 0.921,2.18325 0.721,0.54225 1.755,0.71325 2.941,0.71325 h 19.727 c 1.185,0 2.219,-0.171 2.941,-0.71325 0.72,-0.54 0.921,-1.29375 0.921,-2.18325 V 45.4545 c 0,-0.8895 -0.201,-1.6425 -0.921,-2.184 -0.723,-0.54075 -1.755,-0.71325 -2.941,-0.71325 z m 0,1.4265 h 19.727 c 0.958,0 1.405,0.141 1.604,0.2895 0.198,0.14925 0.356,0.462 0.356,1.18125 v 14.90625 c 0,0.72 -0.158,1.03125 -0.356,1.1805 -0.201,0.15 -0.646,0.2895 -1.604,0.2895 h -19.727 c -0.96,0 -1.405,-0.14025 -1.604,-0.2895 C 523.36,61.392 523.202,61.08 523.202,60.36075 V 45.4545 c 0,-0.71925 0.158,-1.03125 0.356,-1.18125 0.199,-0.14925 0.644,-0.2895 1.604,-0.2895 z"
     inkscape:connector-curvature="0"
     style="fill:#f4f4f4;stroke-width:0.86602539" /><path
     id="path15"
     d="m 496.014,70.119 c -1.185,0 -2.221,0.15075 -2.941,0.69075 -0.72,0.5415 -0.921,1.317 -0.921,2.20575 V 87.9 c 0,0.8895 0.201,1.665 0.921,2.20575 0.721,0.54075 1.755,0.69075 2.941,0.69075 h 19.757 c 1.185,0 2.188,-0.15075 2.911,-0.69075 0.721,-0.54075 0.95,-1.31625 0.95,-2.20575 V 73.0155 c 0,-0.88875 -0.229,-1.66425 -0.95,-2.20575 -0.723,-0.54 -1.725,-0.69075 -2.911,-0.69075 z m 0,1.4265 h 19.757 c 0.958,0 1.376,0.1185 1.574,0.267 0.199,0.14925 0.387,0.4845 0.387,1.203 V 87.9 c 0,0.71925 -0.188,1.05375 -0.387,1.203 -0.198,0.1485 -0.616,0.267 -1.574,0.267 h -19.757 c -0.958,0 -1.376,-0.1185 -1.574,-0.267 -0.199,-0.14925 -0.387,-0.4845 -0.387,-1.203 V 73.0155 c 0,-0.7185 0.188,-1.0545 0.387,-1.203 0.198,-0.1485 0.616,-0.267 1.574,-0.267 z"
     inkscape:connector-curvature="0"
     style="fill:#f4f4f4;stroke-width:0.86602539" /><path
     id="path17"
     d="m 393.732,48.9075 c -1.187,0 -2.191,0.17175 -2.912,0.71325 -0.722,0.54075 -0.95,1.2945 -0.95,2.18325 v 14.90625 c 0,0.8895 0.23,1.6425 0.95,2.184 0.721,0.5415 1.726,0.71325 2.912,0.71325 h 19.754 c 1.188,0 2.222,-0.17175 2.941,-0.71325 0.725,-0.54075 0.923,-1.29375 0.923,-2.184 v -14.9055 c 0,-0.8895 -0.2,-1.6425 -0.921,-2.18325 -0.721,-0.5415 -1.755,-0.71325 -2.941,-0.71325 z m 0,1.42575 h 19.754 c 0.961,0 1.377,0.141 1.575,0.2895 0.191,0.14925 0.381,0.46125 0.381,1.18125 v 14.90625 c 0,0.7185 -0.188,1.032 -0.387,1.18125 -0.198,0.14925 -0.614,0.2895 -1.574,0.2895 h -19.755 c -0.96,0 -1.376,-0.141 -1.574,-0.2895 -0.201,-0.14925 -0.387,-0.46275 -0.387,-1.18125 V 51.804 c 0,-0.71925 0.186,-1.03125 0.387,-1.18125 0.198,-0.14925 0.614,-0.2895 1.574,-0.2895 z"
     inkscape:connector-curvature="0"
     style="fill:#f4f4f4;stroke-width:0.86602539" /><path
     id="path19"
     d="m 421.414,48.9075 c -1.187,0 -2.221,0.17175 -2.94,0.71325 -0.721,0.54075 -0.922,1.2945 -0.922,2.18325 v 14.90625 c 0,0.8895 0.201,1.6425 0.922,2.184 0.72,0.5415 1.754,0.71325 2.94,0.71325 h 35.592 c 1.187,0 2.219,-0.17175 2.941,-0.71325 0.72,-0.54075 0.921,-1.29375 0.921,-2.184 V 51.804 c 0,-0.8895 -0.201,-1.6425 -0.921,-2.18325 -0.721,-0.5415 -1.755,-0.71325 -2.941,-0.71325 z m 0,1.42575 h 35.592 c 0.96,0 1.405,0.141 1.604,0.2895 0.198,0.14925 0.356,0.462 0.356,1.18125 v 14.90625 c 0,0.71925 -0.158,1.032 -0.356,1.18125 -0.199,0.14925 -0.646,0.2895 -1.604,0.2895 h -35.592 c -0.96,0 -1.405,-0.141 -1.604,-0.2895 -0.199,-0.14925 -0.356,-0.46275 -0.356,-1.18125 V 51.804 c 0,-0.71925 0.157,-1.03125 0.356,-1.18125 0.199,-0.1485 0.646,-0.2895 1.604,-0.2895 z"
     inkscape:connector-curvature="0"
     style="fill:#f4f4f4;stroke-width:0.86602539" /><path
     id="path21"
     d="m 364.05,48.9075 c -1.185,0 -2.219,0.17175 -2.941,0.71325 -0.72,0.54075 -0.92,1.2945 -0.92,2.18325 v 14.90625 c 0,0.8895 0.2,1.6425 0.92,2.184 0.723,0.5415 1.755,0.71325 2.941,0.71325 h 19.727 c 1.188,0 2.222,-0.17175 2.941,-0.71325 0.721,-0.5415 0.921,-1.29375 0.921,-2.184 V 51.804 c 0,-0.8895 -0.2,-1.6425 -0.921,-2.18325 -0.72,-0.5415 -1.754,-0.71325 -2.941,-0.71325 z m 0,1.42575 h 19.727 c 0.961,0 1.406,0.141 1.604,0.2895 0.199,0.14925 0.356,0.46125 0.356,1.18125 v 14.90625 c 0,0.71925 -0.157,1.032 -0.356,1.18125 -0.198,0.14925 -0.644,0.2895 -1.604,0.2895 H 364.05 c -0.958,0 -1.405,-0.141 -1.604,-0.2895 -0.199,-0.14925 -0.357,-0.46275 -0.357,-1.18125 V 51.804 c 0,-0.71925 0.158,-1.03125 0.357,-1.18125 0.199,-0.1485 0.646,-0.2895 1.604,-0.2895 z"
     inkscape:connector-curvature="0"
     style="fill:#f4f4f4;stroke-width:0.86602539" /><path
     id="path23"
     d="m 334.341,48.9075 c -1.185,0 -2.219,0.17175 -2.94,0.71325 -0.721,0.54075 -0.921,1.2945 -0.921,2.18325 v 14.90625 c 0,0.8895 0.2,1.6425 0.921,2.184 0.722,0.5415 1.756,0.71325 2.94,0.71325 h 19.757 c 1.187,0 2.221,-0.17175 2.941,-0.71325 0.722,-0.54075 0.921,-1.29375 0.921,-2.184 V 51.804 c 0,-0.8895 -0.199,-1.6425 -0.921,-2.18325 -0.721,-0.5415 -1.755,-0.71325 -2.941,-0.71325 z m 0,1.42575 h 19.757 c 0.96,0 1.376,0.141 1.574,0.2895 0.199,0.14925 0.387,0.462 0.387,1.18125 v 14.90625 c 0,0.71925 -0.188,1.032 -0.387,1.18125 -0.198,0.14925 -0.614,0.2895 -1.574,0.2895 h -19.757 c -0.958,0 -1.374,-0.141 -1.572,-0.2895 -0.201,-0.14925 -0.387,-0.46275 -0.387,-1.18125 V 51.804 c 0,-0.71925 0.186,-1.03125 0.387,-1.18125 0.198,-0.1485 0.614,-0.2895 1.572,-0.2895 z"
     inkscape:connector-curvature="0"
     style="fill:#f4f4f4;stroke-width:0.86602539" /><path
     id="path25"
     d="m 304.662,48.9075 c -1.187,0 -2.221,0.17175 -2.941,0.71325 C 301,50.1615 300.8,50.91525 300.8,51.804 v 14.90625 c 0,0.8895 0.2,1.6425 0.921,2.184 0.721,0.5415 1.755,0.71325 2.941,0.71325 h 19.727 c 1.187,0 2.219,-0.17175 2.941,-0.71325 0.72,-0.54075 0.921,-1.29375 0.921,-2.184 V 51.804 c 0,-0.8895 -0.201,-1.6425 -0.921,-2.18325 -0.721,-0.5415 -1.755,-0.71325 -2.941,-0.71325 z m 0,1.42575 h 19.727 c 0.96,0 1.405,0.141 1.604,0.2895 0.198,0.14925 0.356,0.462 0.356,1.18125 v 14.90625 c 0,0.71925 -0.158,1.032 -0.356,1.18125 -0.199,0.14925 -0.646,0.2895 -1.604,0.2895 h -19.727 c -0.96,0 -1.406,-0.141 -1.604,-0.2895 -0.199,-0.14925 -0.356,-0.46275 -0.356,-1.18125 V 51.804 c 0,-0.71925 0.157,-1.03125 0.356,-1.18125 0.198,-0.1485 0.646,-0.2895 1.604,-0.2895 z"
     inkscape:connector-curvature="0"
     style="fill:#f4f4f4;stroke-width:0.86602539" /><path
     id="path27"
     d="m 274.953,48.9075 c -1.186,0 -2.22,0.17175 -2.941,0.71325 -0.721,0.54075 -0.921,1.2945 -0.921,2.18325 v 14.90625 c 0,0.8895 0.2,1.6425 0.921,2.184 0.721,0.5415 1.754,0.71325 2.941,0.71325 h 19.756 c 1.187,0 2.191,-0.17175 2.912,-0.71325 0.72,-0.54075 0.95,-1.29375 0.95,-2.184 V 51.804 c 0,-0.8895 -0.23,-1.6425 -0.95,-2.18325 -0.721,-0.5415 -1.726,-0.71325 -2.912,-0.71325 z m 0,1.42575 h 19.756 c 0.96,0 1.376,0.141 1.575,0.2895 0.198,0.14925 0.386,0.462 0.386,1.18125 v 14.90625 c 0,0.71925 -0.188,1.032 -0.386,1.18125 -0.201,0.15 -0.618,0.29025 -1.578,0.29025 H 274.95 c -0.959,0 -1.375,-0.14025 -1.575,-0.2895 -0.199,-0.15 -0.386,-0.462 -0.386,-1.18125 V 51.80475 c 0,-0.71925 0.188,-1.03125 0.386,-1.1805 0.199,-0.14925 0.616,-0.2895 1.575,-0.2895 z"
     inkscape:connector-curvature="0"
     style="fill:#f4f4f4;stroke-width:0.86602539" /><path
     id="path29"
     d="m 245.273,48.9075 c -1.186,0 -2.22,0.17175 -2.941,0.71325 -0.721,0.54075 -0.921,1.2945 -0.921,2.18325 v 14.90625 c 0,0.8895 0.2,1.6425 0.921,2.184 0.721,0.5415 1.755,0.71325 2.941,0.71325 H 265 c 1.186,0 2.22,-0.17175 2.941,-0.71325 0.721,-0.5415 0.921,-1.29375 0.921,-2.184 V 51.804 c 0,-0.8895 -0.2,-1.6425 -0.921,-2.18325 C 267.22,49.07925 266.187,48.9075 265,48.9075 Z m 0,1.42575 H 265 c 0.959,0 1.405,0.141 1.604,0.2895 0.199,0.14925 0.357,0.462 0.357,1.18125 v 14.90625 c 0,0.71925 -0.158,1.032 -0.357,1.18125 -0.199,0.14925 -0.645,0.2895 -1.604,0.2895 h -19.727 c -0.959,0 -1.405,-0.141 -1.604,-0.2895 -0.199,-0.14925 -0.356,-0.46275 -0.356,-1.18125 V 51.804 c 0,-0.71925 0.158,-1.03125 0.356,-1.18125 0.199,-0.1485 0.645,-0.2895 1.604,-0.2895 z"
     inkscape:connector-curvature="0"
     style="fill:#f4f4f4;stroke-width:0.86602539" /><path
     id="path31"
     d="m 215.565,48.9075 c -1.186,0 -2.22,0.17175 -2.941,0.71325 -0.721,0.54075 -0.921,1.2945 -0.921,2.18325 v 14.90625 c 0,0.8895 0.2,1.6425 0.921,2.184 0.721,0.5415 1.754,0.71325 2.941,0.71325 h 19.756 c 1.187,0 2.19,-0.17175 2.911,-0.71325 0.722,-0.5415 0.951,-1.29375 0.951,-2.184 V 51.804 c 0,-0.8895 -0.229,-1.6425 -0.951,-2.18325 -0.721,-0.5415 -1.725,-0.71325 -2.911,-0.71325 z m 0,1.42575 h 19.756 c 0.959,0 1.375,0.141 1.574,0.2895 0.199,0.14925 0.386,0.462 0.386,1.18125 v 14.90625 c 0,0.71925 -0.188,1.032 -0.386,1.18125 -0.198,0.14925 -0.615,0.2895 -1.574,0.2895 h -19.756 c -0.959,0 -1.375,-0.141 -1.574,-0.2895 -0.199,-0.14925 -0.386,-0.46275 -0.386,-1.18125 V 51.804 c 0,-0.71925 0.188,-1.03125 0.386,-1.18125 0.199,-0.1485 0.614,-0.2895 1.574,-0.2895 z"
     inkscape:connector-curvature="0"
     style="fill:#f4f4f4;stroke-width:0.86602539" /><path
     id="path33"
     d="m 185.856,48.9075 c -1.186,0 -2.19,0.17175 -2.911,0.71325 -0.722,0.54075 -0.951,1.2945 -0.951,2.18325 v 14.90625 c 0,0.8895 0.229,1.64325 0.951,2.184 0.721,0.54075 1.725,0.71325 2.911,0.71325 h 19.756 c 1.186,0 2.22,-0.17175 2.941,-0.71325 0.722,-0.5415 0.921,-1.29375 0.921,-2.184 V 51.804 c 0,-0.8895 -0.199,-1.6425 -0.921,-2.18325 -0.721,-0.5415 -1.754,-0.71325 -2.941,-0.71325 z m 0,1.42575 h 19.756 c 0.959,0 1.405,0.141 1.604,0.2895 0.199,0.14925 0.356,0.462 0.356,1.18125 v 14.90625 c 0,0.71925 -0.158,1.032 -0.356,1.18125 -0.198,0.14925 -0.645,0.2895 -1.604,0.2895 h -19.756 c -0.958,0 -1.375,-0.141 -1.574,-0.2895 -0.199,-0.14925 -0.386,-0.46275 -0.386,-1.18125 V 51.804 c 0,-0.71925 0.188,-1.03125 0.386,-1.18125 0.199,-0.1485 0.616,-0.2895 1.574,-0.2895 z"
     inkscape:connector-curvature="0"
     style="fill:#f4f4f4;stroke-width:0.86602539" /><path
     id="path35"
     d="m 156.176,48.9075 c -1.186,0 -2.22,0.17175 -2.941,0.71325 -0.721,0.54075 -0.921,1.2945 -0.921,2.18325 v 14.90625 c 0,0.8895 0.2,1.64325 0.921,2.184 0.721,0.54075 1.755,0.71325 2.941,0.71325 h 19.756 c 1.186,0 2.19,-0.17175 2.911,-0.71325 0.722,-0.5415 0.951,-1.29375 0.951,-2.184 V 51.804 c 0,-0.8895 -0.229,-1.6425 -0.951,-2.18325 -0.721,-0.5415 -1.725,-0.71325 -2.911,-0.71325 z m 0,1.42575 h 19.756 c 0.959,0 1.375,0.141 1.574,0.2895 0.199,0.14925 0.386,0.462 0.386,1.18125 v 14.90625 c 0,0.71925 -0.187,1.032 -0.386,1.18125 -0.199,0.14925 -0.615,0.2895 -1.574,0.2895 h -19.756 c -0.958,0 -1.404,-0.141 -1.604,-0.2895 -0.199,-0.14925 -0.356,-0.46275 -0.356,-1.18125 V 51.804 c 0,-0.71925 0.158,-1.03125 0.356,-1.18125 0.199,-0.1485 0.645,-0.2895 1.604,-0.2895 z"
     inkscape:connector-curvature="0"
     style="fill:#f4f4f4;stroke-width:0.86602539" /><path
     id="path37"
     d="m 126.467,48.9075 c -1.186,0 -2.19,0.17175 -2.912,0.71325 -0.721,0.54075 -0.95,1.2945 -0.95,2.18325 v 14.90625 c 0,0.8895 0.229,1.64325 0.95,2.184 0.722,0.54075 1.726,0.71325 2.912,0.71325 h 19.756 c 1.186,0 2.22,-0.17175 2.941,-0.71325 0.721,-0.54075 0.921,-1.29375 0.921,-2.184 V 51.804 c 0,-0.8895 -0.2,-1.6425 -0.921,-2.18325 -0.721,-0.5415 -1.755,-0.71325 -2.941,-0.71325 z m 0,1.42575 h 19.756 c 0.959,0 1.375,0.141 1.574,0.2895 0.199,0.14925 0.386,0.462 0.386,1.18125 v 14.90625 c 0,0.71925 -0.187,1.032 -0.386,1.18125 -0.199,0.14925 -0.615,0.2895 -1.574,0.2895 h -19.756 c -0.958,0 -1.375,-0.141 -1.575,-0.2895 -0.199,-0.14925 -0.386,-0.46275 -0.386,-1.18125 V 51.804 c 0,-0.71925 0.188,-1.03125 0.386,-1.18125 0.2,-0.1485 0.617,-0.2895 1.575,-0.2895 z"
     inkscape:connector-curvature="0"
     style="fill:#f4f4f4;stroke-width:0.86602539" /><path
     id="path39"
     d="m 96.788,48.9075 c -1.187,0 -2.22,0.17175 -2.941,0.71325 -0.722,0.54075 -0.921,1.2945 -0.921,2.18325 v 14.90625 c 0,0.8895 0.2,1.6425 0.921,2.184 0.721,0.5415 1.754,0.71325 2.941,0.71325 h 19.727 c 1.186,0 2.22,-0.17175 2.941,-0.71325 0.722,-0.5415 0.921,-1.29375 0.921,-2.184 V 51.804 c 0,-0.8895 -0.199,-1.6425 -0.921,-2.18325 -0.721,-0.5415 -1.754,-0.71325 -2.941,-0.71325 z m 0,1.42575 h 19.727 c 0.959,0 1.405,0.141 1.604,0.2895 0.199,0.14925 0.356,0.462 0.356,1.18125 v 14.90625 c 0,0.71925 -0.158,1.032 -0.356,1.18125 -0.198,0.14925 -0.645,0.2895 -1.604,0.2895 H 96.788 c -0.959,0 -1.406,-0.141 -1.604,-0.2895 -0.185,-0.14925 -0.343,-0.46125 -0.343,-1.18125 V 51.804 c 0,-0.71925 0.158,-1.03125 0.356,-1.1805 0.199,-0.14925 0.646,-0.2895 1.604,-0.2895 z"
     inkscape:connector-curvature="0"
     style="fill:#f4f4f4;stroke-width:0.86602539" /><path
     id="path41"
     d="m 67.081,48.9075 c -1.186,0 -2.19,0.17175 -2.911,0.71325 -0.721,0.54075 -0.951,1.2945 -0.951,2.18325 v 14.90625 c 0,0.8895 0.229,1.6425 0.951,2.184 0.721,0.5415 1.725,0.71325 2.911,0.71325 h 19.756 c 1.187,0 2.22,-0.17175 2.942,-0.71325 0.721,-0.5415 0.92,-1.29375 0.92,-2.184 V 51.804 c 0,-0.8895 -0.2,-1.6425 -0.92,-2.18325 -0.722,-0.5415 -1.755,-0.71325 -2.942,-0.71325 z m 0,1.42575 h 19.756 c 0.959,0 1.376,0.141 1.575,0.2895 0.199,0.14925 0.386,0.462 0.386,1.18125 v 14.90625 c 0,0.71925 -0.187,1.032 -0.386,1.18125 -0.199,0.14925 -0.615,0.2895 -1.575,0.2895 H 67.081 c -0.959,0 -1.375,-0.141 -1.574,-0.2895 -0.199,-0.1485 -0.386,-0.46125 -0.386,-1.18125 V 51.804 c 0,-0.71925 0.188,-1.03125 0.386,-1.1805 0.199,-0.14925 0.615,-0.2895 1.574,-0.29025 z"
     inkscape:connector-curvature="0"
     style="fill:#f4f4f4;stroke-width:0.86602539" /><path
     id="path43"
     d="m 37.403,48.9075 c -1.186,0 -2.22,0.17175 -2.941,0.71325 -0.721,0.54075 -0.921,1.2945 -0.921,2.18325 v 14.90625 c 0,0.8895 0.2,1.64325 0.921,2.184 0.721,0.54075 1.755,0.71325 2.941,0.71325 h 19.726 c 1.187,0 2.22,-0.17175 2.941,-0.71325 0.512,-0.384 0.728,-0.8955 0.832,-1.47075 h 0.089 V 66.71025 51.804 c 0,-0.8895 -0.2,-1.6425 -0.921,-2.18325 -0.721,-0.5415 -1.755,-0.71325 -2.941,-0.71325 z m 0,1.42575 h 19.726 c 0.959,0 1.406,0.141 1.604,0.2895 0.199,0.14925 0.356,0.462 0.356,1.18125 v 14.193 0.71325 c 0,0.71925 -0.157,1.032 -0.356,1.18125 -0.199,0.14925 -0.645,0.2895 -1.604,0.2895 H 37.403 c -0.958,0 -1.405,-0.141 -1.604,-0.2895 C 35.6,67.743 35.443,67.42875 35.443,66.71025 V 51.804 c 0,-0.71925 0.157,-1.03125 0.356,-1.18125 0.199,-0.1485 0.645,-0.2895 1.604,-0.2895 z"
     inkscape:connector-curvature="0"
     style="fill:#f4f4f4;stroke-width:0.86602539" /><path
     id="path45"
     d="m 54.009,71.0775 c -1.186,0 -2.22,0.1725 -2.941,0.71325 -0.721,0.5415 -0.921,1.29525 -0.921,2.18325 v 14.907 c 0,0.88875 0.2,1.64175 0.921,2.18325 0.721,0.5415 1.755,0.7125 2.941,0.7125 h 19.756 c 1.186,0 2.19,-0.17175 2.912,-0.7125 0.721,-0.5415 0.951,-1.2945 0.951,-2.18325 V 73.974 c 0,-0.88875 -0.23,-1.64175 -0.951,-2.18325 C 75.955,71.25 74.951,71.0775 73.765,71.0775 Z m 0,1.42575 h 19.756 c 0.959,0 1.375,0.141 1.575,0.2895 0.198,0.1485 0.386,0.462 0.386,1.1805 v 14.907 c 0,0.71925 -0.188,1.03125 -0.386,1.1805 -0.199,0.1485 -0.616,0.2895 -1.575,0.2895 H 54.009 c -0.959,0 -1.375,-0.141 -1.574,-0.2895 -0.199,-0.16425 -0.386,-0.47775 -0.386,-1.191 V 73.9635 c 0,-0.7185 0.187,-1.032 0.386,-1.18125 0.199,-0.14925 0.615,-0.2895 1.574,-0.2895 z"
     inkscape:connector-curvature="0"
     style="fill:#f4f4f4;stroke-width:0.86602539" /><path
     id="path47"
     d="m 6.832,71.0775 c -1.186,0 -2.219,0.1725 -2.941,0.71325 C 3.169,72.333 2.97,73.0815 2.97,73.9725 v 14.907 c 0,0.88875 0.2,1.641 0.921,2.18325 0.721,0.54075 1.755,0.7125 2.941,0.7125 h 37.879 c 1.186,0 2.22,-0.17175 2.941,-0.7125 0.721,-0.54225 0.921,-1.29525 0.921,-2.18325 V 88.16625 73.9725 c 0,-0.88875 -0.2,-1.6425 -0.921,-2.18325 C 46.93,71.2485 45.897,71.076 44.711,71.076 H 6.832 Z m 0,1.42575 h 37.879 c 0.959,0 1.375,0.141 1.575,0.2895 0.199,0.1485 0.386,0.462 0.386,1.1805 v 14.907 c 0,0.71925 -0.187,1.03125 -0.386,1.1805 -0.199,0.1485 -0.616,0.2895 -1.575,0.2895 H 6.832 c -0.959,0 -1.375,-0.141 -1.574,-0.2895 C 5.059,89.8965 4.871,89.583 4.871,88.86975 V 73.9635 c 0,-0.7185 0.188,-1.032 0.386,-1.18125 0.199,-0.14925 0.616,-0.2895 1.575,-0.2895 z"
     inkscape:connector-curvature="0"
     style="fill:#f4f4f4;stroke-width:0.86602539" /><path
     id="path49"
     d="m 83.421,71.0775 c -1.186,0 -2.19,0.1725 -2.912,0.71325 -0.721,0.5415 -0.951,1.29525 -0.951,2.18325 v 14.907 c 0,0.8895 0.23,1.64175 0.951,2.18325 0.722,0.5415 1.726,0.7125 2.912,0.7125 h 19.756 c 1.187,0 2.22,-0.17175 2.941,-0.7125 0.721,-0.54075 0.921,-1.2945 0.921,-2.18325 V 88.16775 73.974 c 0,-0.88875 -0.2,-1.64175 -0.921,-2.18325 -0.721,-0.54075 -1.755,-0.71325 -2.941,-0.71325 z m 0,1.42575 h 19.756 c 0.96,0 1.406,0.141 1.604,0.2895 0.199,0.1485 0.356,0.462 0.356,1.1805 v 14.907 c 0,0.71925 -0.158,1.03125 -0.356,1.1805 -0.199,0.1485 -0.645,0.2895 -1.604,0.2895 H 83.421 c -0.958,0 -1.375,-0.141 -1.575,-0.2895 -0.199,-0.14925 -0.386,-0.462 -0.386,-1.1805 v -14.907 c 0,-0.7185 0.188,-1.032 0.386,-1.1805 0.2,-0.1485 0.616,-0.2895 1.575,-0.2895 z"
     inkscape:connector-curvature="0"
     style="fill:#f4f4f4;stroke-width:0.86602539" /><path
     id="path51"
     d="m 112.863,71.0775 c -1.186,0 -2.22,0.1725 -2.941,0.71325 -0.721,0.5415 -0.921,1.29525 -0.921,2.18325 v 14.907 c 0,0.88875 0.2,1.64175 0.921,2.18325 0.721,0.5415 1.754,0.7125 2.941,0.7125 h 19.756 c 1.186,0 2.19,-0.17175 2.911,-0.7125 0.721,-0.54075 0.951,-1.2945 0.951,-2.18325 V 73.974 c 0,-0.88875 -0.229,-1.64175 -0.951,-2.18325 -0.721,-0.54075 -1.725,-0.71325 -2.911,-0.71325 z m 0,1.42575 h 19.756 c 0.959,0 1.375,0.141 1.575,0.2895 0.198,0.1485 0.386,0.462 0.386,1.1805 v 14.907 c 0,0.7185 -0.188,1.03125 -0.386,1.1805 -0.199,0.1485 -0.616,0.2895 -1.575,0.2895 h -19.756 c -0.959,0 -1.405,-0.141 -1.604,-0.2895 -0.199,-0.14925 -0.356,-0.462 -0.356,-1.1805 v -14.907 c 0,-0.7185 0.158,-1.032 0.356,-1.1805 0.199,-0.1485 0.645,-0.2895 1.604,-0.2895 z"
     inkscape:connector-curvature="0"
     style="fill:#f4f4f4;stroke-width:0.86602539" /><path
     id="path53"
     d="m 142.278,71.0775 c -1.186,0 -2.19,0.1725 -2.912,0.71325 -0.721,0.5415 -0.951,1.29525 -0.951,2.18325 v 14.907 c 0,0.8895 0.23,1.64175 0.951,2.18325 0.721,0.5415 1.726,0.7125 2.912,0.7125 h 19.756 c 1.186,0 2.22,-0.17175 2.941,-0.7125 0.721,-0.5415 0.921,-1.2945 0.921,-2.18325 V 73.974 c 0,-0.88875 -0.2,-1.64175 -0.921,-2.18325 C 164.253,71.25 163.22,71.0775 162.034,71.0775 Z m 0,1.42575 h 19.756 c 0.959,0 1.376,0.141 1.575,0.2895 0.199,0.1485 0.386,0.462 0.386,1.1805 v 14.907 c 0,0.7185 -0.188,1.03125 -0.386,1.1805 -0.199,0.1485 -0.616,0.2895 -1.575,0.2895 h -19.756 c -0.958,0 -1.375,-0.141 -1.575,-0.2895 -0.199,-0.14925 -0.386,-0.462 -0.386,-1.1805 v -14.907 c 0,-0.7185 0.188,-1.032 0.386,-1.1805 0.199,-0.1485 0.616,-0.2895 1.575,-0.2895 z"
     inkscape:connector-curvature="0"
     style="fill:#f4f4f4;stroke-width:0.86602539" /><path
     id="path55"
     d="m 171.71,71.0775 c -1.186,0 -2.22,0.1725 -2.941,0.71325 -0.721,0.5415 -0.921,1.29525 -0.921,2.18325 v 14.907 c 0,0.88875 0.2,1.64175 0.921,2.18325 0.722,0.5415 1.755,0.7125 2.941,0.7125 h 19.727 c 1.187,0 2.22,-0.17175 2.941,-0.7125 0.721,-0.5415 0.921,-1.2945 0.921,-2.18325 V 73.974 c 0,-0.88875 -0.2,-1.64175 -0.921,-2.18325 -0.721,-0.54075 -1.755,-0.71325 -2.941,-0.71325 z m 0,1.42575 h 19.727 c 0.959,0 1.405,0.141 1.604,0.2895 0.199,0.1485 0.356,0.462 0.356,1.1805 v 14.907 c 0,0.71925 -0.158,1.03125 -0.356,1.1805 -0.199,0.1485 -0.645,0.2895 -1.604,0.2895 H 171.71 c -0.959,0 -1.405,-0.141 -1.604,-0.2895 -0.198,-0.14925 -0.356,-0.462 -0.356,-1.1805 v -14.907 c 0,-0.7185 0.158,-1.032 0.356,-1.1805 0.198,-0.1485 0.645,-0.2895 1.604,-0.2895 z"
     inkscape:connector-curvature="0"
     style="fill:#f4f4f4;stroke-width:0.86602539" /><path
     id="path57"
     d="m 201.124,71.0775 c -1.186,0 -2.19,0.1725 -2.911,0.71325 -0.722,0.5415 -0.951,1.29525 -0.951,2.18325 v 14.907 c 0,0.8895 0.229,1.64175 0.951,2.18325 0.721,0.5415 1.725,0.7125 2.911,0.7125 h 19.756 c 1.187,0 2.22,-0.17175 2.941,-0.7125 0.721,-0.54075 0.921,-1.2945 0.921,-2.18325 V 73.974 c 0,-0.88875 -0.2,-1.64175 -0.921,-2.18325 C 223.1,71.25 222.066,71.0775 220.88,71.0775 Z m 0,1.42575 h 19.756 c 0.959,0 1.376,0.141 1.574,0.2895 0.199,0.1485 0.387,0.462 0.387,1.1805 v 14.907 c 0,0.71925 -0.188,1.03125 -0.387,1.1805 -0.198,0.1485 -0.615,0.2895 -1.574,0.2895 h -19.756 c -0.959,0 -1.375,-0.141 -1.574,-0.2895 -0.199,-0.14925 -0.386,-0.462 -0.386,-1.1805 v -14.907 c 0,-0.7185 0.187,-1.032 0.386,-1.1805 0.199,-0.1485 0.615,-0.2895 1.574,-0.2895 z"
     inkscape:connector-curvature="0"
     style="fill:#f4f4f4;stroke-width:0.86602539" /><path
     id="path59"
     d="m 230.567,71.0775 c -1.186,0 -2.22,0.1725 -2.941,0.71325 -0.721,0.5415 -0.921,1.29525 -0.921,2.18325 v 14.907 c 0,0.88875 0.2,1.64175 0.921,2.18325 0.722,0.5415 1.755,0.7125 2.941,0.7125 h 19.727 c 1.186,0 2.22,-0.17175 2.941,-0.7125 0.721,-0.5415 0.921,-1.2945 0.921,-2.18325 V 73.974 c 0,-0.88875 -0.2,-1.64175 -0.921,-2.18325 C 252.513,71.25 251.48,71.0775 250.294,71.0775 Z m 0,1.42575 h 19.727 c 0.959,0 1.405,0.141 1.604,0.2895 0.199,0.1485 0.356,0.462 0.356,1.1805 v 14.907 c 0,0.71925 -0.158,1.03125 -0.356,1.1805 -0.199,0.1485 -0.646,0.2895 -1.604,0.2895 h -19.727 c -0.959,0 -1.405,-0.141 -1.604,-0.2895 -0.199,-0.14925 -0.356,-0.462 -0.356,-1.1805 v -14.907 c 0,-0.7185 0.158,-1.032 0.356,-1.1805 0.198,-0.1485 0.645,-0.2895 1.604,-0.2895 z"
     inkscape:connector-curvature="0"
     style="fill:#f4f4f4;stroke-width:0.86602539" /><path
     id="path61"
     d="m 259.98,71.0775 c -1.186,0 -2.22,0.1725 -2.941,0.71325 -0.722,0.5415 -0.921,1.29525 -0.921,2.18325 v 14.907 c 0,0.8895 0.2,1.64175 0.921,2.18325 0.721,0.5415 1.755,0.7125 2.941,0.7125 h 19.756 c 1.186,0 2.22,-0.17175 2.941,-0.7125 0.721,-0.5415 0.921,-1.2945 0.921,-2.18325 V 73.974 c 0,-0.88875 -0.2,-1.64175 -0.921,-2.18325 -0.722,-0.54075 -1.755,-0.71325 -2.941,-0.71325 z m 0,1.42575 h 19.756 c 0.959,0 1.376,0.141 1.574,0.2895 0.199,0.1485 0.387,0.462 0.387,1.1805 v 14.907 c 0,0.7185 -0.188,1.03125 -0.387,1.1805 -0.199,0.1485 -0.615,0.2895 -1.574,0.2895 H 259.98 c -0.958,0 -1.375,-0.141 -1.574,-0.2895 -0.199,-0.14925 -0.386,-0.462 -0.386,-1.1805 v -14.907 c 0,-0.7185 0.188,-1.032 0.386,-1.1805 0.199,-0.1485 0.616,-0.2895 1.574,-0.2895 z"
     inkscape:connector-curvature="0"
     style="fill:#f4f4f4;stroke-width:0.86602539" /><path
     id="path63"
     d="m 289.423,71.0775 c -1.186,0 -2.22,0.1725 -2.941,0.71325 -0.722,0.5415 -0.921,1.29525 -0.921,2.18325 v 14.907 c 0,0.88875 0.2,1.64175 0.921,2.18325 0.722,0.5415 1.755,0.7125 2.941,0.7125 h 19.727 c 1.185,0 2.219,-0.17175 2.941,-0.7125 0.721,-0.5415 0.921,-1.2945 0.921,-2.18325 V 73.974 c 0,-0.88875 -0.2,-1.64175 -0.921,-2.18325 C 311.368,71.25 310.336,71.0775 309.15,71.0775 Z m 0,1.42575 h 19.727 c 0.959,0 1.406,0.141 1.604,0.2895 0.199,0.1485 0.356,0.462 0.356,1.1805 v 14.907 c 0,0.7185 -0.157,1.03125 -0.356,1.1805 -0.2,0.1485 -0.646,0.2895 -1.604,0.2895 h -19.727 c -0.959,0 -1.405,-0.141 -1.604,-0.2895 -0.198,-0.14925 -0.356,-0.462 -0.356,-1.1805 v -14.907 c 0,-0.7185 0.158,-1.032 0.356,-1.1805 0.199,-0.1485 0.645,-0.2895 1.604,-0.2895 z"
     inkscape:connector-curvature="0"
     style="fill:#f4f4f4;stroke-width:0.86602539" /><path
     id="path65"
     d="m 318.837,71.0775 c -1.187,0 -2.221,0.1725 -2.941,0.71325 -0.723,0.5415 -0.921,1.29525 -0.921,2.18325 v 14.907 c 0,0.88875 0.2,1.64175 0.921,2.18325 0.721,0.5415 1.755,0.7125 2.941,0.7125 h 19.756 c 1.186,0 2.189,-0.17175 2.912,-0.7125 0.721,-0.5415 0.95,-1.2945 0.95,-2.18325 V 73.974 c 0,-0.88875 -0.229,-1.64175 -0.95,-2.18325 -0.723,-0.54075 -1.727,-0.71325 -2.912,-0.71325 z m 0,1.42575 h 19.756 c 0.959,0 1.376,0.141 1.575,0.2895 0.198,0.1485 0.386,0.462 0.386,1.1805 v 14.907 c 0,0.7185 -0.188,1.03125 -0.386,1.1805 -0.2,0.1485 -0.616,0.2895 -1.575,0.2895 h -19.756 c -0.96,0 -1.376,-0.141 -1.574,-0.2895 -0.199,-0.14925 -0.387,-0.462 -0.387,-1.1805 v -14.907 c 0,-0.7185 0.188,-1.032 0.387,-1.1805 0.198,-0.1485 0.614,-0.2895 1.574,-0.2895 z"
     inkscape:connector-curvature="0"
     style="fill:#f4f4f4;stroke-width:0.86602539" /><path
     id="path67"
     d="m 348.269,71.0775 c -1.184,0 -2.219,0.1725 -2.94,0.71325 -0.721,0.5415 -0.921,1.29525 -0.921,2.18325 v 14.907 c 0,0.88875 0.2,1.64175 0.921,2.18325 0.72,0.5415 1.755,0.7125 2.94,0.7125 h 19.728 c 1.187,0 2.221,-0.17175 2.94,-0.7125 0.721,-0.5415 0.922,-1.2945 0.922,-2.18325 V 73.974 c 0,-0.88875 -0.201,-1.64175 -0.922,-2.18325 -0.72,-0.54075 -1.754,-0.71325 -2.94,-0.71325 z m 0,1.42575 h 19.728 c 0.96,0 1.405,0.141 1.604,0.2895 0.198,0.1485 0.356,0.462 0.356,1.1805 v 14.907 c 0,0.71925 -0.158,1.03125 -0.356,1.1805 -0.199,0.1485 -0.645,0.2895 -1.604,0.2895 h -19.728 c -0.957,0 -1.405,-0.141 -1.604,-0.2895 -0.199,-0.14925 -0.356,-0.462 -0.356,-1.1805 v -14.907 c 0,-0.7185 0.157,-1.032 0.356,-1.1805 0.198,-0.1485 0.647,-0.2895 1.604,-0.2895 z"
     inkscape:connector-curvature="0"
     style="fill:#f4f4f4;stroke-width:0.86602539" /><path
     id="path69"
     d="m 377.683,71.0775 c -1.185,0 -2.219,0.1725 -2.941,0.71325 -0.72,0.5415 -0.921,1.29525 -0.921,2.18325 v 14.907 c 0,0.88875 0.201,1.64175 0.921,2.18325 0.723,0.5415 1.755,0.7125 2.941,0.7125 h 19.757 c 1.187,0 2.19,-0.17175 2.911,-0.7125 0.721,-0.54075 0.951,-1.2945 0.951,-2.18325 V 73.974 c 0,-0.88875 -0.23,-1.64175 -0.951,-2.18325 C 399.63,71.25 398.626,71.0775 397.44,71.0775 Z m 0,1.42575 h 19.757 c 0.96,0 1.376,0.141 1.574,0.2895 0.199,0.1485 0.387,0.462 0.387,1.1805 v 14.907 c 0,0.71925 -0.188,1.03125 -0.387,1.1805 -0.198,0.1485 -0.616,0.2895 -1.574,0.2895 h -19.757 c -0.958,0 -1.376,-0.141 -1.574,-0.2895 -0.199,-0.14925 -0.387,-0.462 -0.387,-1.1805 v -14.907 c 0,-0.7185 0.188,-1.032 0.387,-1.1805 0.198,-0.1485 0.616,-0.2895 1.574,-0.2895 z"
     inkscape:connector-curvature="0"
     style="fill:#f4f4f4;stroke-width:0.86602539" /><path
     id="path71"
     d="M 456.819,91.05675"
     inkscape:connector-curvature="0"
     style="fill:none;stroke:#f4f4f4;stroke-width:1.64666069" /><path
     id="path73"
     d="M 459.108,95.34975"
     inkscape:connector-curvature="0"
     style="fill:none;stroke:#f4f4f4;stroke-width:1.64666069" /><path
     id="path75"
     d="m 406.024,71.0775 c -1.187,0 -2.221,0.1725 -2.941,0.71325 -0.722,0.5415 -0.921,1.29525 -0.921,2.18325 v 14.907 c 0,0.8895 0.199,1.64175 0.921,2.18325 0.721,0.5415 1.755,0.7125 2.941,0.7125 1.512,0 2.295,0.111 2.466,0.201 0.085,0.045 0.141,0.0683 0.208,0.24525 0.066,0.17625 0.089,0.4845 0.089,0.93525 v 17.0685 c 0,0.89025 0.229,1.665 0.951,2.20575 0.72,0.54075 1.725,0.69075 2.911,0.69075 h 43.373 c 1.187,0 2.221,-0.15 2.941,-0.69075 0.715,-0.53625 0.917,-1.30425 0.921,-2.184 0,-0.007 0,-0.0142 0,-0.0217 l 0.179,-36.22875 v -0.0225 c 0,-0.89025 -0.229,-1.64325 -0.951,-2.184 -0.721,-0.54075 -1.725,-0.71325 -2.911,-0.71325 h -50.177 z m 0,1.42575 h 50.177 c 0.96,0 1.376,0.141 1.574,0.2895 0.199,0.1485 0.387,0.462 0.387,1.1805 l -0.179,36.25275 c 0,0.71925 -0.157,1.05375 -0.356,1.203 -0.198,0.1485 -0.645,0.267 -1.604,0.267 H 412.65 c -0.96,0 -1.376,-0.1185 -1.574,-0.267 -0.191,-0.15 -0.381,-0.4845 -0.381,-1.2045 V 93.15675 c 0,-0.5115 -0.028,-0.93975 -0.179,-1.33725 -0.151,-0.3975 -0.46,-0.78375 -0.921,-1.0245 -0.923,-0.48375 -2.003,-0.44625 -3.564,-0.44625 -0.96,0 -1.376,-0.141 -1.575,-0.2895 -0.198,-0.14925 -0.386,-0.462 -0.386,-1.1805 v -14.907 c 0,-0.7185 0.188,-1.03125 0.386,-1.1805 0.199,-0.14925 0.615,-0.2895 1.575,-0.2895 z"
     inkscape:connector-curvature="0"
     style="fill:#f4f4f4;stroke-width:0.86602539" /><path
     id="path77"
     d="m 59.833,92.6055 c -1.186,0 -2.22,0.17175 -2.941,0.7125 -0.721,0.5415 -0.921,1.2945 -0.921,2.18325 v 14.90625 c 0,0.89025 0.2,1.6425 0.921,2.18325 0.721,0.5415 1.755,0.71325 2.941,0.71325 h 19.756 c 1.186,0 2.19,-0.17175 2.912,-0.71325 0.721,-0.54 0.951,-1.29375 0.951,-2.18325 V 95.50125 c 0,-0.88875 -0.23,-1.64175 -0.951,-2.18325 -0.721,-0.54075 -1.726,-0.7125 -2.912,-0.7125 z m 0,1.42575 h 19.756 c 0.959,0 1.375,0.14025 1.575,0.2895 0.199,0.14925 0.386,0.462 0.386,1.1805 v 14.90625 c 0,0.72 -0.188,1.032 -0.386,1.1805 -0.199,0.14925 -0.615,0.29025 -1.575,0.29025 H 59.833 c -0.959,0 -1.376,-0.141 -1.575,-0.29025 -0.199,-0.1485 -0.386,-0.46125 -0.386,-1.1805 V 95.50125 c 0,-0.7185 0.188,-1.03125 0.386,-1.1805 0.198,-0.14925 0.616,-0.2895 1.575,-0.2895 z"
     inkscape:connector-curvature="0"
     style="fill:#f4f4f4;stroke-width:0.86602539" /><path
     id="path79"
     d="m 6.416,92.6055 c -1.186,0 -2.19,0.17175 -2.911,0.7125 -0.722,0.5415 -0.951,1.2945 -0.951,2.18325 v 14.90625 c 0,0.89025 0.229,1.6425 0.951,2.18325 0.721,0.5415 1.725,0.71325 2.911,0.71325 h 45.663 c 1.186,0 2.189,-0.17175 2.911,-0.71325 0.722,-0.54 0.951,-1.29375 0.951,-2.18325 V 95.50125 c 0,-0.88875 -0.229,-1.64175 -0.951,-2.18325 -0.721,-0.54075 -1.725,-0.7125 -2.911,-0.7125 z m 0,1.42575 h 45.663 c 0.959,0 1.375,0.14025 1.574,0.2895 0.199,0.14925 0.386,0.462 0.386,1.1805 v 14.90625 c 0,0.72 -0.187,1.032 -0.386,1.1805 -0.198,0.14925 -0.615,0.29025 -1.574,0.29025 H 6.416 c -0.959,0 -1.375,-0.141 -1.574,-0.29025 -0.199,-0.1485 -0.386,-0.46125 -0.386,-1.1805 V 95.50125 c 0,-0.7185 0.187,-1.03125 0.386,-1.1805 0.199,-0.15675 0.615,-0.2925 1.574,-0.2925 z"
     inkscape:connector-curvature="0"
     style="fill:#f4f4f4;stroke-width:0.86602539" /><path
     id="path81"
     d="m 89.273,92.6055 c -1.186,0 -2.22,0.17175 -2.941,0.7125 -0.722,0.5415 -0.921,1.2945 -0.921,2.18325 v 14.90625 c 0,0.89025 0.2,1.64325 0.921,2.18325 0.721,0.5415 1.755,0.71325 2.941,0.71325 H 109 c 1.186,0 2.22,-0.17175 2.941,-0.71325 0.512,-0.384 0.728,-0.89475 0.832,-1.47075 h 0.089 v -0.7125 -14.90625 c 0,-0.88875 -0.2,-1.64175 -0.921,-2.18325 -0.721,-0.54075 -1.755,-0.7125 -2.941,-0.7125 z m 0,1.42575 H 109 c 0.959,0 1.405,0.14025 1.604,0.2895 0.199,0.14925 0.357,0.462 0.357,1.1805 v 14.193 0.71325 c 0,0.72 -0.158,1.032 -0.357,1.1805 -0.199,0.14925 -0.645,0.29025 -1.604,0.29025 H 89.273 c -0.958,0 -1.405,-0.141 -1.604,-0.29025 -0.199,-0.1485 -0.356,-0.46125 -0.356,-1.1805 V 95.50125 c 0,-0.7185 0.158,-1.03125 0.356,-1.1805 0.199,-0.14925 0.645,-0.2895 1.604,-0.2895 z"
     inkscape:connector-curvature="0"
     style="fill:#f4f4f4;stroke-width:0.86602539" /><path
     id="path83"
     d="m 118.681,92.6055 c -1.186,0 -2.22,0.17175 -2.941,0.7125 -0.722,0.5415 -0.921,1.2945 -0.921,2.18325 v 14.90625 c 0,0.89025 0.2,1.64325 0.921,2.18325 0.721,0.5415 1.755,0.71325 2.941,0.71325 h 19.756 c 1.186,0 2.19,-0.17175 2.911,-0.71325 0.722,-0.54 0.951,-1.29375 0.951,-2.18325 V 95.50125 c 0,-0.88875 -0.229,-1.64175 -0.951,-2.18325 -0.721,-0.54075 -1.725,-0.7125 -2.911,-0.7125 z m 0,1.42575 h 19.756 c 0.959,0 1.376,0.14025 1.574,0.2895 0.199,0.14925 0.386,0.462 0.386,1.1805 v 14.90625 c 0,0.72 -0.187,1.032 -0.386,1.1805 -0.198,0.14925 -0.615,0.29025 -1.574,0.29025 h -19.756 c -0.958,0 -1.375,-0.141 -1.574,-0.29025 -0.199,-0.1485 -0.386,-0.46125 -0.386,-1.1805 V 95.50125 c 0,-0.7185 0.188,-1.03125 0.386,-1.1805 0.198,-0.14925 0.616,-0.2895 1.574,-0.2895 z"
     inkscape:connector-curvature="0"
     style="fill:#f4f4f4;stroke-width:0.86602539" /><path
     id="path85"
     d="m 148.096,92.6055 c -1.186,0 -2.19,0.17175 -2.912,0.7125 -0.721,0.5415 -0.951,1.2945 -0.951,2.18325 v 14.90625 c 0,0.89025 0.229,1.64325 0.951,2.18325 0.721,0.5415 1.726,0.71325 2.912,0.71325 h 19.756 c 1.186,0 2.22,-0.17175 2.941,-0.71325 0.721,-0.54 0.921,-1.29375 0.921,-2.18325 V 95.50125 c 0,-0.88875 -0.2,-1.64175 -0.921,-2.18325 -0.722,-0.54075 -1.755,-0.7125 -2.941,-0.7125 z m 0,1.42575 h 19.756 c 0.959,0 1.405,0.14025 1.604,0.2895 0.198,0.14925 0.356,0.462 0.356,1.1805 v 14.90625 c 0,0.72 -0.158,1.032 -0.356,1.1805 -0.199,0.14925 -0.645,0.29025 -1.604,0.29025 h -19.756 c -0.959,0 -1.376,-0.141 -1.575,-0.29025 -0.199,-0.1485 -0.386,-0.46125 -0.386,-1.1805 V 95.50125 c 0,-0.7185 0.187,-1.03125 0.386,-1.1805 0.199,-0.14925 0.616,-0.2895 1.575,-0.2895 z"
     inkscape:connector-curvature="0"
     style="fill:#f4f4f4;stroke-width:0.86602539" /><path
     id="path87"
     d="m 177.538,92.6055 c -1.186,0 -2.22,0.17175 -2.941,0.7125 -0.722,0.5415 -0.921,1.2945 -0.921,2.18325 v 14.90625 c 0,0.89025 0.2,1.6425 0.921,2.18325 0.721,0.5415 1.755,0.71325 2.941,0.71325 h 19.756 c 1.186,0 2.19,-0.17175 2.912,-0.71325 0.721,-0.54 0.951,-1.29375 0.951,-2.18325 V 95.50125 c 0,-0.88875 -0.229,-1.64175 -0.951,-2.18325 -0.721,-0.54075 -1.725,-0.7125 -2.912,-0.7125 z m 0,1.42575 h 19.756 c 0.959,0 1.376,0.14025 1.575,0.2895 0.199,0.14925 0.386,0.462 0.386,1.1805 v 14.90625 c 0,0.72 -0.188,1.032 -0.386,1.1805 -0.199,0.14925 -0.615,0.29025 -1.575,0.29025 h -19.756 c -0.959,0 -1.405,-0.141 -1.604,-0.29025 -0.199,-0.1485 -0.357,-0.46125 -0.357,-1.1805 V 95.50125 c 0,-0.7185 0.158,-1.03125 0.357,-1.1805 0.199,-0.14925 0.645,-0.2895 1.604,-0.2895 z"
     inkscape:connector-curvature="0"
     style="fill:#f4f4f4;stroke-width:0.86602539" /><path
     id="path89"
     d="m 206.952,92.6055 c -1.186,0 -2.19,0.17175 -2.911,0.7125 -0.722,0.5415 -0.951,1.2945 -0.951,2.18325 v 14.90625 c 0,0.89025 0.229,1.6425 0.951,2.18325 0.721,0.5415 1.725,0.71325 2.911,0.71325 h 19.756 c 1.186,0 2.22,-0.17175 2.941,-0.71325 0.721,-0.54 0.921,-1.29375 0.921,-2.18325 V 95.50125 c 0,-0.88875 -0.2,-1.64175 -0.921,-2.18325 -0.721,-0.54075 -1.755,-0.7125 -2.941,-0.7125 z m 0,1.42575 h 19.756 c 0.958,0 1.375,0.14025 1.574,0.2895 0.199,0.14925 0.386,0.462 0.386,1.1805 v 14.90625 c 0,0.72 -0.187,1.032 -0.386,1.1805 -0.199,0.14925 -0.615,0.29025 -1.574,0.29025 h -19.756 c -0.959,0 -1.375,-0.141 -1.574,-0.29025 -0.199,-0.1485 -0.386,-0.46125 -0.386,-1.1805 V 95.50125 c 0,-0.7185 0.187,-1.03125 0.386,-1.1805 0.198,-0.14925 0.615,-0.2895 1.574,-0.2895 z"
     inkscape:connector-curvature="0"
     style="fill:#f4f4f4;stroke-width:0.86602539" /><path
     id="path91"
     d="m 236.394,92.6055 c -1.186,0 -2.22,0.17175 -2.941,0.7125 -0.721,0.5415 -0.921,1.2945 -0.921,2.18325 v 14.90625 c 0,0.89025 0.2,1.64325 0.921,2.18325 0.721,0.5415 1.756,0.71325 2.941,0.71325 h 19.727 c 1.186,0 2.22,-0.17175 2.941,-0.71325 0.721,-0.54 0.921,-1.29375 0.921,-2.18325 V 95.50125 c 0,-0.88875 -0.2,-1.64175 -0.921,-2.18325 -0.722,-0.54075 -1.755,-0.7125 -2.941,-0.7125 z m 0,1.42575 h 19.727 c 0.959,0 1.405,0.14025 1.604,0.2895 0.199,0.14925 0.356,0.462 0.356,1.1805 v 14.90625 c 0,0.72 -0.158,1.032 -0.356,1.1805 -0.199,0.14925 -0.645,0.29025 -1.604,0.29025 h -19.727 c -0.958,0 -1.405,-0.141 -1.604,-0.29025 -0.199,-0.1485 -0.356,-0.46125 -0.356,-1.1805 V 95.50125 c 0,-0.7185 0.158,-1.03125 0.356,-1.1805 0.199,-0.14925 0.645,-0.2895 1.604,-0.2895 z"
     inkscape:connector-curvature="0"
     style="fill:#f4f4f4;stroke-width:0.86602539" /><path
     id="path93"
     d="m 265.799,92.6055 c -1.186,0 -2.19,0.17175 -2.912,0.7125 -0.721,0.5415 -0.951,1.2945 -0.951,2.18325 v 14.90625 c 0,0.89025 0.229,1.6425 0.951,2.18325 0.722,0.5415 1.726,0.71325 2.912,0.71325 h 19.756 c 1.186,0 2.22,-0.17175 2.94,-0.71325 0.722,-0.54 0.922,-1.29375 0.922,-2.18325 V 95.50125 c 0,-0.88875 -0.2,-1.64175 -0.922,-2.18325 -0.721,-0.54075 -1.754,-0.7125 -2.94,-0.7125 z m 0,1.42575 h 19.756 c 0.959,0 1.376,0.14025 1.574,0.2895 0.198,0.14925 0.386,0.462 0.386,1.1805 v 14.90625 c 0,0.72 -0.188,1.032 -0.386,1.1805 -0.198,0.14925 -0.615,0.29025 -1.574,0.29025 h -19.756 c -0.959,0 -1.376,-0.141 -1.575,-0.29025 -0.199,-0.1485 -0.386,-0.46125 -0.386,-1.1805 V 95.50125 c 0,-0.7185 0.188,-1.03125 0.386,-1.1805 0.198,-0.14925 0.615,-0.2895 1.575,-0.2895 z"
     inkscape:connector-curvature="0"
     style="fill:#f4f4f4;stroke-width:0.86602539" /><path
     id="path95"
     d="m 295.24,92.6055 c -1.185,0 -2.219,0.17175 -2.941,0.7125 -0.72,0.5415 -0.921,1.2945 -0.921,2.18325 v 14.90625 c 0,0.89025 0.201,1.6425 0.921,2.18325 0.723,0.5415 1.755,0.71325 2.941,0.71325 h 19.727 c 1.187,0 2.221,-0.17175 2.941,-0.71325 0.721,-0.54 0.921,-1.29375 0.921,-2.18325 V 95.50125 c 0,-0.88875 -0.2,-1.64175 -0.921,-2.18325 -0.721,-0.54075 -1.755,-0.7125 -2.941,-0.7125 z m 0,1.42575 h 19.727 c 0.96,0 1.406,0.14025 1.604,0.2895 0.199,0.14925 0.356,0.462 0.356,1.1805 v 14.90625 c 0,0.72 -0.157,1.032 -0.356,1.1805 -0.198,0.14925 -0.645,0.29025 -1.604,0.29025 H 295.24 c -0.958,0 -1.405,-0.141 -1.604,-0.29025 -0.198,-0.1485 -0.356,-0.46125 -0.356,-1.1805 V 95.50125 c 0,-0.7185 0.158,-1.03125 0.356,-1.1805 0.199,-0.14925 0.646,-0.2895 1.604,-0.2895 z"
     inkscape:connector-curvature="0"
     style="fill:#f4f4f4;stroke-width:0.86602539" /><path
     id="path97"
     d="m 324.654,92.6055 c -1.185,0 -2.189,0.17175 -2.911,0.7125 -0.721,0.5415 -0.951,1.2945 -0.951,2.18325 v 14.90625 c 0,0.89025 0.2,1.6425 0.921,2.18325 0.723,0.5415 1.755,0.71325 2.941,0.71325 h 19.757 c 1.186,0 2.221,-0.17175 2.94,-0.71325 0.721,-0.54 0.921,-1.29375 0.921,-2.18325 V 95.50125 c 0,-0.88875 -0.2,-1.64175 -0.921,-2.18325 -0.72,-0.54075 -1.755,-0.7125 -2.94,-0.7125 z m 0,1.42575 h 19.757 c 0.959,0 1.375,0.14025 1.574,0.2895 0.198,0.14925 0.386,0.462 0.386,1.1805 v 14.90625 c 0,0.72 -0.188,1.032 -0.386,1.1805 -0.199,0.14925 -0.616,0.29025 -1.574,0.29025 h -19.757 c -0.958,0 -1.376,-0.141 -1.575,-0.29025 -0.198,-0.1485 -0.386,-0.46125 -0.386,-1.1805 V 95.50125 c 0,-0.7185 0.188,-1.03125 0.386,-1.1805 0.2,-0.14925 0.617,-0.2895 1.575,-0.2895 z"
     inkscape:connector-curvature="0"
     style="fill:#f4f4f4;stroke-width:0.86602539" /><path
     id="path99"
     d="m 354.098,92.6055 c -1.187,0 -2.221,0.17175 -2.941,0.7125 -0.722,0.5415 -0.921,1.2945 -0.921,2.18325 v 14.90625 c 0,0.89025 0.199,1.6425 0.921,2.18325 0.721,0.5415 1.755,0.71325 2.941,0.71325 h 19.727 c 1.185,0 2.219,-0.17175 2.941,-0.71325 0.721,-0.54 0.921,-1.29375 0.921,-2.18325 V 95.50125 c 0,-0.88875 -0.2,-1.64175 -0.921,-2.18325 -0.723,-0.54075 -1.755,-0.7125 -2.941,-0.7125 z m 0,1.42575 h 19.727 c 0.958,0 1.405,0.14025 1.604,0.2895 0.198,0.14925 0.356,0.462 0.356,1.1805 v 14.90625 c 0,0.72 -0.158,1.032 -0.356,1.1805 -0.199,0.14925 -0.646,0.29025 -1.604,0.29025 h -19.727 c -0.96,0 -1.405,-0.141 -1.604,-0.29025 -0.198,-0.1485 -0.356,-0.46125 -0.356,-1.1805 V 95.50125 c 0,-0.7185 0.158,-1.03125 0.356,-1.1805 0.199,-0.14925 0.644,-0.2895 1.604,-0.2895 z"
     inkscape:connector-curvature="0"
     style="fill:#f4f4f4;stroke-width:0.86602539" /><path
     id="path101"
     d="m 383.512,92.6055 c -1.187,0 -2.221,0.17175 -2.941,0.7125 -0.723,0.5415 -0.921,1.2945 -0.921,2.18325 v 14.90625 c 0,0.89025 0.198,1.6425 0.921,2.18325 0.721,0.5415 1.755,0.71325 2.941,0.71325 h 19.756 c 1.185,0 2.189,-0.17175 2.91,-0.71325 0.722,-0.54 0.95,-1.29375 0.95,-2.18325 V 95.50125 c 0,-0.88875 -0.229,-1.64175 -0.95,-2.18325 -0.721,-0.54075 -1.726,-0.7125 -2.91,-0.7125 z m 0,1.42575 h 19.756 c 0.958,0 1.376,0.14025 1.573,0.2895 0.198,0.14925 0.386,0.462 0.386,1.1805 v 14.90625 c 0,0.72 -0.188,1.032 -0.386,1.1805 -0.199,0.14925 -0.615,0.29025 -1.573,0.29025 h -19.756 c -0.96,0 -1.376,-0.141 -1.575,-0.29025 -0.198,-0.1485 -0.386,-0.46125 -0.386,-1.1805 V 95.50125 c 0,-0.7185 0.188,-1.03125 0.386,-1.1805 0.199,-0.14925 0.615,-0.2895 1.575,-0.2895 z"
     inkscape:connector-curvature="0"
     style="fill:#f4f4f4;stroke-width:0.86602539" /><path
     id="path103"
     d="m 73.647,114.123 c -1.186,0 -2.22,0.1725 -2.941,0.7125 -0.722,0.54225 -0.921,1.29525 -0.921,2.184 v 14.90625 c 0,0.89025 0.199,1.6425 0.921,2.18325 0.721,0.5415 1.754,0.71325 2.941,0.71325 h 19.756 c 1.186,0 2.19,-0.17175 2.911,-0.71325 0.512,-0.384 0.728,-0.89475 0.832,-1.47075 h 0.119 v -0.7125 -14.90625 c 0,-0.88875 -0.229,-1.64175 -0.951,-2.184 -0.721,-0.54 -1.725,-0.7125 -2.911,-0.7125 z m 0,1.42575 h 19.756 c 0.959,0 1.375,0.141 1.574,0.2895 0.199,0.15 0.386,0.46275 0.386,1.18125 v 14.193 0.71325 c 0,0.72 -0.188,1.032 -0.386,1.1805 -0.199,0.14925 -0.615,0.29025 -1.574,0.29025 H 73.647 c -0.959,0 -1.375,-0.141 -1.574,-0.29025 -0.199,-0.1485 -0.386,-0.46125 -0.386,-1.1805 V 117.0195 c 0,-0.71925 0.188,-1.03125 0.386,-1.18125 0.199,-0.1485 0.615,-0.2895 1.574,-0.2895 z"
     inkscape:connector-curvature="0"
     style="fill:#f4f4f4;stroke-width:0.86602539" /><path
     id="path105"
     d="m 6.416,114.123 c -1.186,0 -2.19,0.1725 -2.911,0.7125 -0.722,0.54225 -0.951,1.29525 -0.951,2.184 v 14.90625 c 0,0.89025 0.229,1.6425 0.951,2.18325 0.721,0.5415 1.726,0.71325 2.911,0.71325 h 58.913 c 1.186,0 2.22,-0.17175 2.941,-0.71325 0.721,-0.54075 0.921,-1.29375 0.921,-2.18325 V 117.0195 c 0,-0.88875 -0.2,-1.64175 -0.921,-2.184 -0.722,-0.54 -1.755,-0.7125 -2.941,-0.7125 z m 0,1.42575 h 58.913 c 0.959,0 1.406,0.141 1.604,0.2895 0.199,0.15 0.356,0.46275 0.356,1.18125 v 14.90625 c 0,0.72 -0.158,1.032 -0.356,1.1805 -0.199,0.14925 -0.645,0.29025 -1.604,0.29025 H 6.416 c -0.958,0 -1.375,-0.141 -1.574,-0.29025 -0.199,-0.1485 -0.386,-0.46125 -0.386,-1.1805 V 117.0195 c 0,-0.71925 0.187,-1.03125 0.386,-1.18125 0.199,-0.1485 0.616,-0.29175 1.575,-0.29175 z"
     inkscape:connector-curvature="0"
     style="fill:#f4f4f4;stroke-width:0.86602539" /><path
     id="path107"
     d="m 103.062,114.123 c -1.186,0 -2.19,0.1725 -2.912,0.7125 -0.722,0.54225 -0.951,1.29525 -0.951,2.184 v 14.90625 c 0,0.89025 0.229,1.6425 0.951,2.18325 0.721,0.5415 1.726,0.71325 2.912,0.71325 h 19.756 c 1.186,0 2.22,-0.17175 2.941,-0.71325 0.722,-0.54 0.921,-1.29375 0.921,-2.18325 v -0.71325 -14.193 c 0,-0.88875 -0.2,-1.64175 -0.921,-2.184 -0.721,-0.54 -1.754,-0.7125 -2.941,-0.7125 z m 0,1.42575 h 19.756 c 0.959,0 1.376,0.141 1.575,0.2895 0.199,0.15 0.386,0.46275 0.386,1.18125 v 14.90625 c 0,0.72 -0.158,1.032 -0.357,1.1805 -0.199,0.14925 -0.645,0.29025 -1.604,0.29025 h -19.756 c -0.959,0 -1.375,-0.141 -1.575,-0.29025 -0.199,-0.1485 -0.386,-0.46125 -0.386,-1.1805 V 117.0195 c 0,-0.71925 0.188,-1.03125 0.386,-1.18125 0.2,-0.1485 0.616,-0.2895 1.575,-0.2895 z"
     inkscape:connector-curvature="0"
     style="fill:#f4f4f4;stroke-width:0.86602539" /><path
     id="path109"
     d="m 132.505,114.123 c -1.186,0 -2.22,0.1725 -2.941,0.7125 -0.721,0.54225 -0.921,1.29525 -0.921,2.184 v 14.90625 c 0,0.89025 0.2,1.6425 0.921,2.18325 0.722,0.5415 1.755,0.71325 2.941,0.71325 h 19.756 c 1.186,0 2.19,-0.17175 2.912,-0.71325 0.721,-0.54 0.951,-1.29375 0.951,-2.18325 V 117.0195 c 0,-0.88875 -0.23,-1.64175 -0.951,-2.184 -0.721,-0.54 -1.726,-0.7125 -2.912,-0.7125 z m 0,1.42575 h 19.756 c 0.959,0 1.375,0.141 1.575,0.2895 0.199,0.15 0.386,0.46275 0.386,1.18125 v 14.90625 c 0,0.72 -0.188,1.032 -0.386,1.1805 -0.199,0.14925 -0.616,0.29025 -1.575,0.29025 h -19.756 c -0.959,0 -1.406,-0.141 -1.604,-0.29025 -0.199,-0.1485 -0.356,-0.46125 -0.356,-1.1805 V 117.0195 c 0,-0.71925 0.158,-1.03125 0.356,-1.18125 0.198,-0.1485 0.645,-0.2895 1.604,-0.2895 z"
     inkscape:connector-curvature="0"
     style="fill:#f4f4f4;stroke-width:0.86602539" /><path
     id="path111"
     d="m 161.909,114.123 c -1.186,0 -2.19,0.1725 -2.911,0.7125 -0.722,0.54225 -0.951,1.29525 -0.951,2.184 v 14.90625 c 0,0.89025 0.229,1.6425 0.951,2.18325 0.721,0.5415 1.725,0.71325 2.911,0.71325 h 19.756 c 1.186,0 2.22,-0.17175 2.941,-0.71325 0.721,-0.54 0.92,-1.29375 0.92,-2.18325 V 117.0195 c 0,-0.88875 -0.199,-1.64175 -0.92,-2.184 -0.721,-0.54 -1.755,-0.7125 -2.941,-0.7125 z m 0,1.42575 h 19.756 c 0.959,0 1.375,0.141 1.574,0.2895 0.199,0.15 0.386,0.46275 0.386,1.18125 v 14.90625 c 0,0.72 -0.187,1.032 -0.386,1.1805 -0.199,0.14925 -0.615,0.29025 -1.574,0.29025 h -19.756 c -0.959,0 -1.375,-0.141 -1.575,-0.29025 -0.199,-0.1485 -0.386,-0.46125 -0.386,-1.1805 V 117.0195 c 0,-0.71925 0.187,-1.03125 0.386,-1.18125 0.199,-0.1485 0.616,-0.2895 1.575,-0.2895 z"
     inkscape:connector-curvature="0"
     style="fill:#f4f4f4;stroke-width:0.86602539" /><path
     id="path113"
     d="m 191.351,114.123 c -1.186,0 -2.22,0.1725 -2.941,0.7125 -0.721,0.54225 -0.921,1.29525 -0.921,2.184 v 14.90625 c 0,0.89025 0.2,1.6425 0.921,2.18325 0.721,0.5415 1.755,0.71325 2.941,0.71325 h 19.727 c 1.186,0 2.22,-0.17175 2.941,-0.71325 0.721,-0.54075 0.921,-1.29375 0.921,-2.18325 V 117.0195 c 0,-0.88875 -0.2,-1.64175 -0.921,-2.184 -0.722,-0.54 -1.755,-0.7125 -2.941,-0.7125 z m 0,1.42575 h 19.727 c 0.959,0 1.405,0.141 1.604,0.2895 0.199,0.15 0.356,0.46275 0.356,1.18125 v 14.90625 c 0,0.72 -0.158,1.032 -0.356,1.1805 -0.199,0.14925 -0.645,0.29025 -1.604,0.29025 h -19.727 c -0.959,0 -1.405,-0.141 -1.604,-0.29025 -0.199,-0.1485 -0.356,-0.46125 -0.356,-1.1805 V 117.0195 c 0,-0.71925 0.158,-1.03125 0.356,-1.18125 0.199,-0.1485 0.646,-0.2895 1.604,-0.2895 z"
     inkscape:connector-curvature="0"
     style="fill:#f4f4f4;stroke-width:0.86602539" /><path
     id="path115"
     d="m 220.765,114.123 c -1.186,0 -2.19,0.1725 -2.912,0.7125 -0.721,0.54225 -0.951,1.29525 -0.951,2.184 v 14.90625 c 0,0.89025 0.229,1.6425 0.951,2.18325 0.722,0.5415 1.726,0.71325 2.912,0.71325 h 19.755 c 1.187,0 2.22,-0.17175 2.942,-0.71325 0.721,-0.54075 0.921,-1.29375 0.921,-2.18325 V 117.0195 c 0,-0.88875 -0.2,-1.64175 -0.921,-2.184 -0.722,-0.54 -1.755,-0.7125 -2.941,-0.7125 z m 0,1.42575 h 19.755 c 0.959,0 1.376,0.141 1.575,0.2895 0.199,0.15 0.386,0.46275 0.386,1.18125 v 14.90625 c 0,0.72 -0.188,1.032 -0.386,1.1805 -0.199,0.14925 -0.615,0.29025 -1.575,0.29025 h -19.755 c -0.959,0 -1.376,-0.141 -1.575,-0.29025 -0.199,-0.1485 -0.386,-0.46125 -0.386,-1.1805 V 117.0195 c 0,-0.71925 0.187,-1.03125 0.386,-1.18125 0.199,-0.1485 0.616,-0.2895 1.575,-0.2895 z"
     inkscape:connector-curvature="0"
     style="fill:#f4f4f4;stroke-width:0.86602539" /><path
     id="path117"
     d="m 250.207,114.123 c -1.186,0 -2.22,0.1725 -2.941,0.7125 -0.722,0.54225 -0.921,1.29525 -0.921,2.184 v 14.90625 c 0,0.89025 0.2,1.6425 0.921,2.18325 0.721,0.5415 1.755,0.71325 2.941,0.71325 h 19.727 c 1.186,0 2.22,-0.17175 2.941,-0.71325 0.722,-0.54 0.921,-1.29375 0.921,-2.18325 V 117.0195 c 0,-0.88875 -0.2,-1.64175 -0.921,-2.184 -0.721,-0.54 -1.755,-0.7125 -2.941,-0.7125 z m 0,1.42575 h 19.727 c 0.959,0 1.405,0.141 1.604,0.2895 0.199,0.15 0.356,0.46275 0.356,1.18125 v 14.90625 c 0,0.72 -0.158,1.032 -0.356,1.1805 -0.199,0.14925 -0.645,0.29025 -1.604,0.29025 h -19.727 c -0.959,0 -1.405,-0.141 -1.604,-0.29025 -0.199,-0.1485 -0.356,-0.46125 -0.356,-1.1805 V 117.0195 c 0,-0.71925 0.158,-1.03125 0.356,-1.18125 0.199,-0.1485 0.645,-0.2895 1.604,-0.2895 z"
     inkscape:connector-curvature="0"
     style="fill:#f4f4f4;stroke-width:0.86602539" /><path
     id="path119"
     d="m 279.612,114.123 c -1.186,0 -2.22,0.1725 -2.94,0.7125 -0.722,0.54225 -0.921,1.29525 -0.921,2.184 v 14.90625 c 0,0.89025 0.2,1.6425 0.921,2.18325 0.721,0.5415 1.755,0.71325 2.94,0.71325 h 19.757 c 1.185,0 2.189,-0.17175 2.911,-0.71325 0.721,-0.54 0.951,-1.29375 0.951,-2.18325 V 117.0195 c 0,-0.88875 -0.201,-1.64175 -0.921,-2.184 -0.723,-0.54 -1.755,-0.7125 -2.941,-0.7125 z m 0,1.42575 h 19.757 c 0.958,0 1.376,0.141 1.574,0.2895 0.199,0.15 0.387,0.46275 0.387,1.18125 v 14.90625 c 0,0.72 -0.188,1.032 -0.387,1.1805 -0.198,0.14925 -0.616,0.29025 -1.574,0.29025 h -19.757 c -0.958,0 -1.375,-0.141 -1.574,-0.29025 -0.199,-0.1485 -0.387,-0.46125 -0.387,-1.1805 V 117.0195 c 0,-0.71925 0.188,-1.03125 0.387,-1.18125 0.199,-0.1485 0.615,-0.2895 1.574,-0.2895 z"
     inkscape:connector-curvature="0"
     style="fill:#f4f4f4;stroke-width:0.86602539" /><path
     id="path121"
     d="m 309.054,114.123 c -1.186,0 -2.22,0.1725 -2.941,0.7125 -0.721,0.54225 -0.921,1.29525 -0.921,2.184 v 14.90625 c 0,0.89025 0.2,1.6425 0.921,2.18325 0.722,0.5415 1.756,0.71325 2.941,0.71325 h 19.727 c 1.187,0 2.221,-0.17175 2.941,-0.71325 0.722,-0.54 0.921,-1.29375 0.921,-2.18325 V 117.0195 c 0,-0.88875 -0.199,-1.64175 -0.921,-2.184 -0.721,-0.54 -1.755,-0.7125 -2.941,-0.7125 z m 0,1.42575 h 19.727 c 0.96,0 1.405,0.141 1.604,0.2895 0.199,0.15 0.357,0.46275 0.357,1.18125 v 14.90625 c 0,0.72 -0.158,1.032 -0.357,1.1805 -0.198,0.14925 -0.644,0.29025 -1.604,0.29025 h -19.727 c -0.959,0 -1.404,-0.141 -1.604,-0.29025 -0.199,-0.1485 -0.356,-0.46125 -0.356,-1.1805 V 117.0195 c 0,-0.71925 0.157,-1.03125 0.356,-1.18125 0.2,-0.1485 0.645,-0.2895 1.604,-0.2895 z"
     inkscape:connector-curvature="0"
     style="fill:#f4f4f4;stroke-width:0.86602539" /><path
     id="path123"
     d="m 338.469,114.123 c -1.187,0 -2.221,0.1725 -2.941,0.7125 -0.722,0.54225 -0.921,1.29525 -0.921,2.184 v 14.90625 c 0,0.89025 0.199,1.6425 0.921,2.18325 0.721,0.5415 1.755,0.71325 2.941,0.71325 h 19.755 c 1.187,0 2.191,-0.17175 2.911,-0.71325 0.723,-0.54 0.951,-1.29375 0.951,-2.18325 V 117.0195 c 0,-0.88875 -0.229,-1.64175 -0.951,-2.184 -0.72,-0.54 -1.725,-0.7125 -2.911,-0.7125 z m 0,1.42575 h 19.755 c 0.96,0 1.376,0.141 1.574,0.2895 0.199,0.15 0.387,0.46275 0.387,1.18125 v 14.90625 c 0,0.72 -0.188,1.032 -0.387,1.1805 -0.198,0.14925 -0.614,0.29025 -1.574,0.29025 h -19.755 c -0.96,0 -1.376,-0.141 -1.574,-0.29025 -0.201,-0.1485 -0.387,-0.46125 -0.387,-1.1805 V 117.0195 c 0,-0.71925 0.186,-1.03125 0.387,-1.18125 0.198,-0.1485 0.614,-0.2895 1.574,-0.2895 z"
     inkscape:connector-curvature="0"
     style="fill:#f4f4f4;stroke-width:0.86602539" /><path
     id="path125"
     d="m 367.883,114.123 c -1.187,0 -2.191,0.1725 -2.912,0.7125 -0.722,0.54225 -0.95,1.29525 -0.95,2.184 v 14.90625 c 0,0.89025 0.229,1.6425 0.95,2.18325 0.721,0.5415 1.726,0.71325 2.912,0.71325 h 19.755 c 1.186,0 2.221,-0.17175 2.94,-0.71325 0.723,-0.54 0.921,-1.29375 0.921,-2.18325 V 117.0195 c 0,-0.88875 -0.198,-1.64175 -0.921,-2.184 -0.72,-0.54 -1.755,-0.7125 -2.94,-0.7125 z m 0,1.42575 h 19.755 c 0.959,0 1.405,0.141 1.604,0.2895 0.199,0.15 0.356,0.46275 0.356,1.18125 v 14.90625 c 0,0.72 -0.157,1.032 -0.356,1.1805 -0.198,0.14925 -0.645,0.29025 -1.604,0.29025 h -19.755 c -0.96,0 -1.376,-0.141 -1.575,-0.29025 -0.198,-0.1485 -0.386,-0.46125 -0.386,-1.1805 V 117.0195 c 0,-0.71925 0.188,-1.03125 0.386,-1.18125 0.199,-0.1485 0.615,-0.2895 1.575,-0.2895 z"
     inkscape:connector-curvature="0"
     style="fill:#f4f4f4;stroke-width:0.86602539" /><path
     id="path127"
     d="m 397.2,114.123 c -1.186,0 -2.22,0.1725 -2.941,0.7125 -0.721,0.54225 -0.951,1.2945 -0.951,2.184 v 14.90625 c 0,0.89025 0.23,1.6425 0.951,2.18325 0.722,0.5415 1.756,0.71325 2.941,0.71325 h 59.536 c 1.187,0 2.221,-0.17175 2.941,-0.71325 0.723,-0.54 0.921,-1.29375 0.921,-2.18325 V 117.0195 c 0,-0.88875 -0.2,-1.64175 -0.921,-2.184 -0.721,-0.54 -1.755,-0.7125 -2.941,-0.7125 z m 0,1.42575 h 59.536 c 0.96,0 1.406,0.141 1.604,0.2895 0.199,0.15 0.356,0.46275 0.356,1.18125 v 14.90625 c 0,0.72 -0.157,1.032 -0.356,1.1805 -0.198,0.14925 -0.645,0.29025 -1.604,0.29025 H 397.2 c -0.959,0 -1.404,-0.141 -1.604,-0.29025 -0.199,-0.1485 -0.387,-0.46125 -0.387,-1.1805 V 117.0195 c 0,-0.7185 0.188,-1.03125 0.387,-1.18125 0.2,-0.1485 0.645,-0.2895 1.604,-0.2895 z"
     inkscape:connector-curvature="0"
     style="fill:#f4f4f4;stroke-width:0.86602539" /><path
     id="path129"
     d="m 367.883,135.33525 c -1.187,0 -2.191,0.15 -2.912,0.69075 -0.722,0.54075 -0.95,1.3155 -0.95,2.205 v 14.8845 c 0,0.8895 0.229,1.665 0.95,2.20575 0.721,0.5415 1.726,0.69075 2.912,0.69075 h 19.755 c 1.186,0 2.221,-0.14925 2.94,-0.69075 0.723,-0.5415 0.921,-1.31625 0.921,-2.20575 V 138.231 c 0,-0.8895 -0.198,-1.66425 -0.921,-2.205 -0.72,-0.54075 -1.755,-0.69075 -2.94,-0.69075 z m 0,1.4265 h 19.755 c 0.959,0 1.405,0.141 1.604,0.2895 0.199,0.1485 0.356,0.462 0.356,1.1805 v 14.8845 c 0,0.72 -0.157,1.0545 -0.356,1.203 -0.198,0.14925 -0.645,0.267 -1.604,0.267 h -19.755 c -0.96,0 -1.376,-0.11775 -1.575,-0.267 -0.198,-0.1485 -0.386,-0.4845 -0.386,-1.203 v -14.8845 c 0,-0.71925 0.188,-1.032 0.386,-1.1805 0.199,-0.14925 0.615,-0.2895 1.575,-0.2895 z"
     inkscape:connector-curvature="0"
     style="fill:#f4f4f4;stroke-width:0.86602539" /><path
     id="path131"
     d="m 100.857,135.33525 c -1.186,0 -2.22,0.15 -2.941,0.69075 -0.721,0.54075 -0.921,1.3155 -0.921,2.205 v 14.8845 c 0,0.89025 0.2,1.665 0.921,2.20575 0.721,0.54075 1.755,0.69075 2.941,0.69075 h 258.288 c 1.187,0 2.221,-0.14925 2.941,-0.69075 0.722,-0.5415 0.921,-1.31625 0.921,-2.20575 V 138.231 c 0,-0.8895 -0.199,-1.66425 -0.921,-2.205 -0.721,-0.54075 -1.755,-0.69075 -2.941,-0.69075 z m 0,1.4265 h 258.288 c 0.96,0 1.405,0.141 1.604,0.2895 0.198,0.1485 0.356,0.462 0.356,1.1805 v 14.8845 c 0,0.72 -0.158,1.0545 -0.356,1.203 -0.199,0.14925 -0.645,0.267 -1.604,0.267 H 100.857 c -0.959,0 -1.375,-0.11775 -1.575,-0.267 -0.199,-0.1485 -0.386,-0.4845 -0.386,-1.203 v -14.8845 c 0,-0.71925 0.188,-1.032 0.386,-1.1805 0.199,-0.14925 0.616,-0.2895 1.575,-0.2895 z"
     inkscape:connector-curvature="0"
     style="fill:#f4f4f4;stroke-width:0.86602539" /><path
     id="path133"
     d="m 7.694,48.9075 c -1.186,0 -2.22,0.17175 -2.941,0.71325 -0.721,0.54075 -0.921,1.2945 -0.921,2.18325 v 14.90625 c 0,0.8895 0.2,1.64325 0.921,2.184 0.721,0.54075 1.755,0.71325 2.941,0.71325 H 27.45 c 1.187,0 2.22,-0.17175 2.941,-0.71325 0.722,-0.5415 0.921,-1.29375 0.921,-2.184 V 51.804 c 0,-0.8895 -0.2,-1.6425 -0.921,-2.18325 C 29.67,49.07925 28.637,48.9075 27.45,48.9075 Z m 0,1.42575 H 27.45 c 0.959,0 1.376,0.141 1.575,0.2895 0.199,0.14925 0.386,0.462 0.386,1.18125 v 14.90625 c 0,0.71925 -0.188,1.032 -0.386,1.18125 -0.199,0.15 -0.615,0.29025 -1.574,0.29025 H 7.695 c -0.959,0 -1.376,-0.141 -1.575,-0.2895 -0.199,-0.15 -0.386,-0.462 -0.386,-1.182 V 51.804 c 0,-0.7185 0.188,-1.03125 0.386,-1.1805 0.199,-0.14925 0.616,-0.2895 1.574,-0.29025 z"
     inkscape:connector-curvature="0"
     style="fill:#f4f4f4;stroke-width:0.86602539" /><path
     id="path135"
     d="m 496.014,92.09175 c -1.185,0 -2.221,0.14925 -2.941,0.69075 -0.72,0.54075 -0.921,1.31625 -0.921,2.20575 v 14.8845 c 0,0.88875 0.201,1.66425 0.921,2.20575 0.721,0.54 1.755,0.69075 2.941,0.69075 h 19.757 c 1.185,0 2.188,-0.15075 2.911,-0.69075 0.721,-0.54225 0.95,-1.317 0.95,-2.20575 v -14.8845 c 0,-0.8895 -0.229,-1.66575 -0.95,-2.20575 -0.723,-0.5415 -1.725,-0.69075 -2.911,-0.69075 z m 0,1.42575 h 19.757 c 0.958,0 1.376,0.11775 1.574,0.267 0.199,0.14925 0.387,0.4845 0.387,1.203 v 14.88375 c 0,0.71925 -0.188,1.05375 -0.387,1.203 -0.198,0.14925 -0.616,0.267 -1.574,0.267 h -19.757 c -0.958,0 -1.376,-0.11775 -1.574,-0.267 -0.199,-0.14925 -0.387,-0.4845 -0.387,-1.203 V 94.9875 c 0,-0.72 0.188,-1.05375 0.387,-1.203 0.198,-0.1485 0.616,-0.267 1.574,-0.267 z"
     inkscape:connector-curvature="0"
     style="fill:#f4f4f4;stroke-width:0.86602539" /><path
     id="path137"
     d="m 496.014,114.0585 c -1.185,0 -2.221,0.15075 -2.941,0.69075 -0.72,0.54225 -0.921,1.31625 -0.921,2.20575 v 14.8845 c 0,0.89025 0.201,1.66575 0.921,2.20575 0.721,0.5415 1.755,0.69075 2.941,0.69075 h 19.757 c 1.185,0 2.188,-0.14925 2.911,-0.69075 0.721,-0.54075 0.95,-1.31625 0.95,-2.20575 V 116.955 c 0,-0.88875 -0.229,-1.66425 -0.95,-2.20575 -0.723,-0.54 -1.725,-0.69075 -2.911,-0.69075 z m 0,1.4265 h 19.757 c 0.958,0 1.376,0.1185 1.574,0.267 0.199,0.14925 0.387,0.4845 0.387,1.203 v 14.8845 c 0,0.72 -0.188,1.05375 -0.387,1.203 -0.198,0.1485 -0.616,0.267 -1.574,0.267 h -19.757 c -0.958,0 -1.376,-0.1185 -1.574,-0.267 -0.199,-0.14925 -0.387,-0.4845 -0.387,-1.203 V 116.955 c 0,-0.71925 0.188,-1.05375 0.387,-1.203 0.198,-0.1485 0.616,-0.267 1.574,-0.267 z"
     inkscape:connector-curvature="0"
     style="fill:#f4f4f4;stroke-width:0.86602539" /><path
     id="path139"
     d="m 496.014,136.0275 c -1.185,0 -2.221,0.1485 -2.941,0.69075 -0.72,0.54 -0.921,1.3155 -0.921,2.205 v 14.8845 c 0,0.88875 0.201,1.66425 0.921,2.20575 0.721,0.54075 1.755,0.69075 2.941,0.69075 h 19.757 c 1.185,0 2.188,-0.15 2.911,-0.69075 0.721,-0.54225 0.95,-1.317 0.95,-2.20575 v -14.8845 c 0,-0.89025 -0.229,-1.66575 -0.95,-2.205 -0.723,-0.54225 -1.725,-0.69075 -2.911,-0.69075 z m 0,1.4265 h 19.757 c 0.958,0 1.376,0.11775 1.574,0.267 0.199,0.1485 0.387,0.483 0.387,1.203 v 14.8845 c 0,0.7185 -0.188,1.05375 -0.387,1.203 -0.198,0.15 -0.616,0.267 -1.574,0.267 h -19.757 c -0.958,0 -1.376,-0.117 -1.574,-0.267 -0.199,-0.1485 -0.387,-0.4845 -0.387,-1.203 V 138.924 c 0,-0.72 0.188,-1.05375 0.387,-1.203 0.198,-0.14925 0.616,-0.267 1.574,-0.267 z"
     inkscape:connector-curvature="0"
     style="fill:#f4f4f4;stroke-width:0.86602539" /><path
     id="path141"
     d="m 525.4,70.119 c -1.187,0 -2.221,0.15075 -2.941,0.69075 -0.722,0.5415 -0.921,1.317 -0.921,2.20575 V 87.9 c 0,0.8895 0.199,1.66575 0.921,2.20575 0.721,0.54075 1.755,0.69075 2.941,0.69075 h 19.727 c 1.186,0 2.219,-0.15075 2.941,-0.69075 0.721,-0.54075 0.921,-1.31625 0.921,-2.20575 V 73.0155 c 0,-0.88875 -0.2,-1.66425 -0.921,-2.20575 -0.723,-0.54 -1.755,-0.69075 -2.941,-0.69075 z m 0,1.4265 h 19.727 c 0.959,0 1.406,0.1185 1.604,0.267 0.199,0.14925 0.356,0.4845 0.356,1.203 V 87.9 c 0,0.71925 -0.157,1.05375 -0.356,1.203 -0.2,0.1485 -0.646,0.267 -1.604,0.267 H 525.4 c -0.96,0 -1.405,-0.1185 -1.604,-0.267 -0.198,-0.14925 -0.356,-0.4845 -0.356,-1.203 V 73.0155 c 0,-0.7185 0.158,-1.0545 0.356,-1.203 0.198,-0.1485 0.646,-0.267 1.604,-0.267 z"
     inkscape:connector-curvature="0"
     style="fill:#f4f4f4;stroke-width:0.86602539" /><path
     id="path143"
     d="m 525.486,92.09175 c -1.187,0 -2.221,0.14925 -2.941,0.69075 -0.723,0.54075 -0.921,1.31625 -0.921,2.20575 v 14.8845 c 0,0.88875 0.198,1.66425 0.921,2.20575 0.721,0.54 1.755,0.69075 2.941,0.69075 h 19.727 c 1.185,0 2.219,-0.15075 2.941,-0.69075 0.72,-0.54225 0.921,-1.317 0.921,-2.20575 v -14.8845 c 0,-0.8895 -0.201,-1.66575 -0.921,-2.20575 -0.723,-0.5415 -1.755,-0.69075 -2.941,-0.69075 z m 0,1.42575 h 19.727 c 0.958,0 1.405,0.11775 1.604,0.267 0.198,0.14925 0.356,0.4845 0.356,1.203 v 14.88375 c 0,0.71925 -0.158,1.05375 -0.356,1.203 -0.199,0.14925 -0.646,0.267 -1.604,0.267 h -19.727 c -0.96,0 -1.406,-0.11775 -1.604,-0.267 -0.199,-0.14925 -0.356,-0.4845 -0.356,-1.203 V 94.9875 c 0,-0.72 0.157,-1.05375 0.356,-1.203 0.197,-0.1485 0.644,-0.267 1.604,-0.267 z"
     inkscape:connector-curvature="0"
     style="fill:#f4f4f4;stroke-width:0.86602539" /><path
     id="path145"
     d="m 525.486,114.0585 c -1.187,0 -2.221,0.15075 -2.941,0.69075 -0.723,0.54225 -0.921,1.31625 -0.921,2.20575 v 14.8845 c 0,0.89025 0.198,1.66575 0.921,2.20575 0.721,0.5415 1.755,0.69075 2.941,0.69075 h 19.727 c 1.185,0 2.219,-0.14925 2.941,-0.69075 0.72,-0.54075 0.921,-1.31625 0.921,-2.20575 V 116.955 c 0,-0.88875 -0.201,-1.66425 -0.921,-2.20575 -0.723,-0.54 -1.755,-0.69075 -2.941,-0.69075 z m 0,1.4265 h 19.727 c 0.958,0 1.405,0.1185 1.604,0.267 0.198,0.14925 0.356,0.4845 0.356,1.203 v 14.8845 c 0,0.72 -0.158,1.05375 -0.356,1.203 -0.199,0.1485 -0.646,0.267 -1.604,0.267 h -19.727 c -0.96,0 -1.406,-0.1185 -1.604,-0.267 -0.199,-0.14925 -0.356,-0.4845 -0.356,-1.203 V 116.955 c 0,-0.71925 0.157,-1.05375 0.356,-1.203 0.197,-0.1485 0.644,-0.267 1.604,-0.267 z"
     inkscape:connector-curvature="0"
     style="fill:#f4f4f4;stroke-width:0.86602539" /><path
     id="path147"
     d="m 525.486,136.0275 c -1.187,0 -2.221,0.1485 -2.941,0.69075 -0.723,0.54 -0.921,1.3155 -0.921,2.205 v 14.8845 c 0,0.88875 0.198,1.66425 0.921,2.20575 0.721,0.54075 1.755,0.69075 2.941,0.69075 h 19.727 c 1.185,0 2.219,-0.15 2.941,-0.69075 0.72,-0.54225 0.921,-1.317 0.921,-2.20575 v -14.8845 c 0,-0.89025 -0.201,-1.66575 -0.921,-2.205 -0.723,-0.54225 -1.755,-0.69075 -2.941,-0.69075 z m 0,1.4265 h 19.727 c 0.958,0 1.405,0.11775 1.604,0.267 0.198,0.1485 0.356,0.483 0.356,1.203 v 14.8845 c 0,0.7185 -0.158,1.05375 -0.356,1.203 -0.199,0.15 -0.646,0.267 -1.604,0.267 h -19.727 c -0.96,0 -1.406,-0.117 -1.604,-0.267 -0.199,-0.1485 -0.356,-0.4845 -0.356,-1.203 V 138.924 c 0,-0.72 0.157,-1.05375 0.356,-1.203 0.197,-0.14925 0.644,-0.267 1.604,-0.267 z"
     inkscape:connector-curvature="0"
     style="fill:#f4f4f4;stroke-width:0.86602539" /><path
     id="path149"
     d="m 554.775,70.119 c -1.185,0 -2.219,0.15075 -2.941,0.69075 -0.721,0.5415 -0.95,1.317 -0.95,2.20575 V 87.9 c 0,0.8895 0.229,1.66575 0.95,2.20575 0.723,0.54075 1.755,0.69075 2.941,0.69075 h 19.727 c 1.187,0 2.221,-0.15075 2.941,-0.69075 0.723,-0.54075 0.921,-1.31625 0.921,-2.20575 V 73.0155 c 0,-0.88875 -0.198,-1.66425 -0.921,-2.20575 -0.721,-0.54 -1.755,-0.69075 -2.941,-0.69075 z m 0,1.4265 h 19.727 c 0.96,0 1.406,0.1185 1.604,0.267 0.198,0.14925 0.356,0.4845 0.356,1.203 V 87.9 c 0,0.71925 -0.158,1.05375 -0.356,1.203 -0.198,0.1485 -0.645,0.267 -1.604,0.267 h -19.727 c -0.96,0 -1.405,-0.1185 -1.604,-0.267 -0.198,-0.14925 -0.386,-0.4845 -0.386,-1.203 V 73.0155 c 0,-0.7185 0.188,-1.0545 0.386,-1.203 0.198,-0.1485 0.646,-0.267 1.604,-0.267 z"
     inkscape:connector-curvature="0"
     style="fill:#f4f4f4;stroke-width:0.86602539" /><path
     id="path151"
     d="m 554.775,92.09175 c -1.187,0 -2.219,0.14925 -2.941,0.69075 -0.721,0.54075 -0.95,1.31625 -0.95,2.20575 v 14.8845 c 0,0.88875 0.229,1.66425 0.95,2.20575 0.723,0.54 1.755,0.69075 2.941,0.69075 h 19.727 c 1.187,0 2.221,-0.15075 2.941,-0.69075 0.723,-0.54225 0.921,-1.317 0.921,-2.20575 v -14.8845 c 0,-0.8895 -0.198,-1.66575 -0.921,-2.20575 -0.721,-0.5415 -1.755,-0.69075 -2.941,-0.69075 z m 0,1.42575 h 19.727 c 0.96,0 1.406,0.11775 1.604,0.267 0.198,0.14925 0.356,0.4845 0.356,1.203 v 14.88375 c 0,0.71925 -0.158,1.05375 -0.356,1.203 -0.198,0.14925 -0.645,0.267 -1.604,0.267 h -19.727 c -0.96,0 -1.405,-0.11775 -1.604,-0.267 -0.198,-0.14925 -0.386,-0.4845 -0.386,-1.203 V 94.9875 c 0,-0.72 0.188,-1.05375 0.386,-1.203 0.199,-0.1485 0.646,-0.267 1.604,-0.267 z"
     inkscape:connector-curvature="0"
     style="fill:#f4f4f4;stroke-width:0.86602539" /><path
     id="path153"
     d="m 554.775,114.0585 c -1.185,0 -2.219,0.15075 -2.941,0.69075 -0.721,0.54225 -0.95,1.31625 -0.95,2.20575 v 14.8845 c 0,0.89025 0.229,1.66575 0.95,2.20575 0.723,0.5415 1.755,0.69075 2.941,0.69075 h 19.727 c 1.187,0 2.221,-0.14925 2.941,-0.69075 0.723,-0.54075 0.921,-1.31625 0.921,-2.20575 V 116.955 c 0,-0.88875 -0.198,-1.66425 -0.921,-2.20575 -0.721,-0.54 -1.755,-0.69075 -2.941,-0.69075 z m 0,1.4265 h 19.727 c 0.96,0 1.406,0.1185 1.604,0.267 0.198,0.14925 0.356,0.4845 0.356,1.203 v 14.8845 c 0,0.72 -0.158,1.05375 -0.356,1.203 -0.198,0.1485 -0.645,0.267 -1.604,0.267 h -19.727 c -0.96,0 -1.405,-0.1185 -1.604,-0.267 -0.198,-0.14925 -0.386,-0.4845 -0.386,-1.203 V 116.955 c 0,-0.71925 0.188,-1.05375 0.386,-1.203 0.198,-0.1485 0.646,-0.267 1.604,-0.267 z"
     inkscape:connector-curvature="0"
     style="fill:#f4f4f4;stroke-width:0.86602539" /><path
     id="path155"
     d="m 554.775,136.0275 c -1.185,0 -2.219,0.1485 -2.941,0.69075 -0.721,0.54 -0.95,1.3155 -0.95,2.205 v 14.8845 c 0,0.88875 0.229,1.66425 0.95,2.20575 0.723,0.54075 1.755,0.69075 2.941,0.69075 h 19.727 c 1.187,0 2.221,-0.15 2.941,-0.69075 0.723,-0.54225 0.921,-1.317 0.921,-2.20575 v -14.8845 c 0,-0.89025 -0.198,-1.66575 -0.921,-2.205 -0.721,-0.54225 -1.755,-0.69075 -2.941,-0.69075 z m 0,1.4265 h 19.727 c 0.96,0 1.406,0.11775 1.604,0.267 0.198,0.1485 0.356,0.483 0.356,1.203 v 14.8845 c 0,0.7185 -0.158,1.05375 -0.356,1.203 -0.198,0.15 -0.645,0.267 -1.604,0.267 h -19.727 c -0.96,0 -1.405,-0.117 -1.604,-0.267 -0.198,-0.1485 -0.386,-0.4845 -0.386,-1.203 V 138.924 c 0,-0.72 0.188,-1.05375 0.386,-1.203 0.198,-0.14925 0.646,-0.267 1.604,-0.267 z"
     inkscape:connector-curvature="0"
     style="fill:#f4f4f4;stroke-width:0.86602539" /><path
     id="path157"
     d="m 554.186,21.279 c -1.187,0 -2.221,0.15 -2.941,0.69075 -0.722,0.54075 -0.921,1.31625 -0.921,2.20575 v 14.88375 c 0,0.8895 0.199,1.665 0.921,2.20575 0.721,0.5415 1.755,0.69075 2.941,0.69075 h 19.727 c 1.185,0 2.22,-0.14925 2.941,-0.69075 0.721,-0.54075 0.921,-1.3155 0.921,-2.20575 V 24.1755 c 0,-0.8895 -0.2,-1.665 -0.921,-2.20575 C 576.132,21.429 575.099,21.279 573.913,21.279 Z m 0,1.42575 h 19.727 c 0.958,0 1.406,0.14025 1.604,0.2895 0.199,0.14925 0.356,0.462 0.356,1.18125 v 14.88375 c 0,0.71925 -0.157,1.05375 -0.356,1.203 -0.198,0.14925 -0.646,0.267 -1.604,0.267 h -19.727 c -0.96,0 -1.405,-0.1185 -1.604,-0.267 -0.198,-0.14925 -0.356,-0.48375 -0.356,-1.203 V 24.1755 c 0,-0.71925 0.158,-1.032 0.356,-1.18125 0.198,-0.14925 0.644,-0.2895 1.604,-0.2895 z"
     inkscape:connector-curvature="0"
     style="fill:#f4f4f4;stroke-width:0.86602539" /><path
     id="path159"
     d="m 4.367,46.479 c -1.187,0 -2.22,0.17175 -2.941,0.71325 C 0.704,47.733 0.505,48.48675 0.505,49.3755 V 133.71 c 0,0.89025 0.2,1.6425 0.921,2.18325 0.721,0.5415 1.755,0.71325 2.941,0.71325 h 89.958 c 0.469,0 0.653,0.0623 0.624,0.0443 -0.03,-0.0172 0.059,0.006 0.059,0.44625 v 18.60525 c 0,0.89025 0.2,1.665 0.921,2.20575 0.722,0.54075 1.755,0.69075 2.941,0.69075 h 292.921 c 1.187,0 2.221,-0.14925 2.941,-0.69075 0.722,-0.5415 0.921,-1.317 0.921,-2.20575 v -18.40355 c 0,-0.36525 0.1,-0.486 0.208,-0.55725 0.107,-0.072 0.338,-0.13425 0.802,-0.13425 h 63.429 c 1.187,0 2.191,-0.17175 2.911,-0.7125 0.721,-0.5415 0.951,-1.2945 0.951,-2.18325 V 49.37625 c 0,-0.8895 -0.23,-1.6425 -0.951,-2.18325 -0.72,-0.5415 -1.725,-0.71325 -2.911,-0.71325 H 4.358 Z m 0,1.4265 h 455.734 c 0.959,0 1.377,0.14025 1.575,0.2895 0.198,0.14925 0.386,0.462 0.386,1.1805 V 133.71 c 0,0.71925 -0.188,1.032 -0.386,1.1805 -0.198,0.1485 -0.614,0.2895 -1.575,0.2895 h -63.428 c -0.747,0 -1.473,0.1095 -2.051,0.4905 -0.575,0.38175 -0.861,0.99 -0.861,1.62675 v 18.4035 c 0,0.71925 -0.188,1.0545 -0.386,1.203 -0.199,0.14925 -0.615,0.267 -1.575,0.267 H 98.879 c -0.959,0 -1.405,-0.1185 -1.604,-0.267 -0.198,-0.1485 -0.356,-0.4845 -0.356,-1.203 V 137.0955 c 0,-0.6315 -0.192,-1.203 -0.772,-1.56 -0.58,-0.357 -1.229,-0.35625 -1.812,-0.35625 H 4.376 c -0.959,0 -1.406,-0.141 -1.604,-0.29025 -0.198,-0.1485 -0.356,-0.46125 -0.356,-1.17975 v -84.3345 c 0,-0.71925 0.158,-1.03125 0.356,-1.1805 0.199,-0.14925 0.645,-0.2895 1.604,-0.2895 z"
     inkscape:connector-curvature="0"
     style="fill:#f4f4f4;stroke-width:0.86602539" /></svg>