<?xml version="1.0" encoding="UTF-8" standalone="no"?>
<!-- Generator: Adobe Illustrator 13.0.0, SVG Export Plug-In . SVG Version: 6.00 Build 14948)  -->

<svg
   xmlns:dc="http://purl.org/dc/elements/1.1/"
   xmlns:cc="http://creativecommons.org/ns#"
   xmlns:rdf="http://www.w3.org/1999/02/22-rdf-syntax-ns#"
   xmlns:svg="http://www.w3.org/2000/svg"
   xmlns="http://www.w3.org/2000/svg"
   xmlns:sodipodi="http://sodipodi.sourceforge.net/DTD/sodipodi-0.dtd"
   xmlns:inkscape="http://www.inkscape.org/namespaces/inkscape"
   version="1.1"
   id="Layer_1"
   x="0px"
   y="0px"
   width="568"
   height="69.878914"
   viewBox="-0.57 -0.5 568 69.878916"
   enable-background="new -0.57 -0.5 568 93.173"
   xml:space="preserve"
   sodipodi:docname="logo.svg"
   inkscape:version="0.92.2 (5c3e80d, 2017-08-06)"><metadata
     id="metadata57"><rdf:RDF><cc:Work
         rdf:about=""><dc:format>image/svg+xml</dc:format><dc:type
           rdf:resource="http://purl.org/dc/dcmitype/StillImage" /><dc:title></dc:title></cc:Work></rdf:RDF></metadata><defs
     id="defs55" /><sodipodi:namedview
     pagecolor="#ffffff"
     bordercolor="#666666"
     borderopacity="1"
     objecttolerance="10"
     gridtolerance="10"
     guidetolerance="10"
     inkscape:pageopacity="0"
     inkscape:pageshadow="2"
     inkscape:window-width="1920"
     inkscape:window-height="1017"
     id="namedview53"
     showgrid="false"
     fit-margin-top="0"
     fit-margin-left="0"
     fit-margin-right="0"
     fit-margin-bottom="0"
     inkscape:zoom="0.61443662"
     inkscape:cx="284"
     inkscape:cy="46.585502"
     inkscape:window-x="-8"
     inkscape:window-y="-8"
     inkscape:window-maximized="1"
     inkscape:current-layer="Layer_1" /><g
     id="g50"
     transform="matrix(1,0,0,0.75,0,-0.12508333)"><g
       id="g13"><g
         id="g11"><linearGradient
           id="SVGID_1_"
           gradientUnits="userSpaceOnUse"
           x1="176.729"
           y1="0.00048828131"
           x2="176.729"
           y2="92.500504"><stop
             offset="0"
             style="stop-color:#FFFFFF"
             id="stop2" /><stop
             offset="1"
             style="stop-color:#CCCCCC"
             id="stop4" /></linearGradient><path
           d="m 18.421,92.138 1.372,-18.127 h 7.505 l 1.511,18.127 H 47.331 L 35.72,0.45 H 11.787 L 0,92.138 h 18.421 m 7.792,-33.256 h -5.337 l 2.706,-35.629 2.631,35.629 M 77.555,0.45 H 51.749 V 92.138 H 69.401 V 39.921 l 7.301,52.216 H 88.165 L 95.179,40.205 V 92.137 H 112.83 V 0.45 H 86.987 L 82.188,40.948 77.555,0.45 m 38.488,11.158 c -0.012,6.318 -0.084,12.634 -0.033,18.955 0.033,1.033 0.096,2.065 0.156,2.808 0.134,1.565 0.257,2.042 0.518,3.058 0.268,1.004 0.72,2.259 1.432,3.368 0.334,0.531 0.71,1.036 1.269,1.646 0.559,0.61 1.301,1.325 2.083,1.993 1.611,1.394 3.367,2.47 5.129,3.399 3.851,2.129 7.678,4.232 11.555,6.391 0.52,0.329 1.071,0.605 1.619,1.137 1.332,1.28 1.328,2.768 1.309,4.191 l 0.074,1.98 0.028,12.414 c 0.012,0.907 -0.075,1.803 -0.512,2.766 -0.149,0.279 -0.354,0.539 -0.6,0.75 -0.782,0.65 -1.768,0.822 -2.742,0.433 -0.3,-0.125 -0.576,-0.306 -0.81,-0.53 -0.982,-0.945 -0.869,-2.287 -1.01,-3.439 L 135.5,54.244 h -19.514 l 0.02,20.92 c 0.016,2.568 0.033,5.002 0.589,7.519 0.299,1.297 0.776,2.646 1.5,3.853 0.724,1.207 1.691,2.272 2.826,3.105 1.134,0.832 2.434,1.43 3.461,1.785 1.028,0.354 1.784,0.467 2.54,0.558 0.756,0.091 1.511,0.19 2.269,0.19 h 19.826 c 0.898,0 1.798,0.039 2.905,-0.266 1.109,-0.304 2.422,-0.844 3.557,-1.564 1.137,-0.723 2.096,-1.625 2.756,-2.594 0.66,-0.967 1.023,-2.002 1.336,-2.934 0.313,-0.932 0.574,-1.763 0.765,-2.872 0.191,-1.108 0.313,-2.493 0.382,-3.881 0.066,-1.388 0.033,-2.774 0.033,-4.163 V 59.203 c 0,-0.275 0,-0.553 -0.008,-1.174 -0.006,-0.621 -0.018,-1.586 -0.061,-2.689 -0.043,-1.103 -0.118,-2.344 -0.186,-3.146 -0.067,-0.801 -0.127,-1.163 -0.201,-1.522 -0.074,-0.359 -0.164,-0.715 -0.265,-1.069 -0.101,-0.353 -0.212,-0.704 -0.495,-1.312 -0.281,-0.607 -0.733,-1.474 -1.278,-2.277 -0.544,-0.804 -1.18,-1.546 -1.89,-2.208 -0.711,-0.661 -1.496,-1.24 -2.37,-1.838 -1.807,-1.227 -3.822,-2.482 -5.766,-3.56 l -8.284,-4.52 c -0.499,-0.272 -0.991,-0.557 -1.466,-0.869 -0.476,-0.313 -0.935,-0.647 -1.211,-0.857 -0.497,-0.379 -0.498,-0.429 -0.707,-0.651 -0.082,-0.093 -0.161,-0.188 -0.298,-0.413 -0.312,-0.497 -0.689,-1.371 -0.759,-2.11 -0.049,-0.397 -0.007,-0.797 -0.007,-1.198 0.005,-2.886 -0.015,-5.865 0.014,-8.657 -0.017,-0.65 -0.001,-1.393 0.24,-2.087 0.111,-0.341 0.257,-0.671 0.438,-0.949 0.94,-1.257 2.065,-1.441 3.305,-0.92 0.282,0.147 0.542,0.359 0.762,0.606 0.22,0.247 0.4,0.527 0.529,0.83 0.128,0.302 0.206,0.625 0.257,1.072 0.105,0.921 0.114,2.188 0.107,3.302 V 31.89 h 19.598 c -0.021,-5.63 0.068,-11.255 -0.063,-16.891 -0.055,-1.304 -0.149,-2.607 -0.229,-3.466 -0.079,-0.859 -0.145,-1.273 -0.227,-1.684 -0.085,-0.411 -0.185,-0.817 -0.301,-1.221 -0.116,-0.403 -0.245,-0.803 -0.553,-1.489 -0.307,-0.686 -0.79,-1.657 -1.424,-2.523 C 157.318,3.75 156.533,2.991 155.65,2.376 154.766,1.761 153.785,1.292 152.943,0.989 151.286,0.42 150.024,0.324 148.584,0.14 147.878,0.065 147.17,-0.005 146.46,0.001 l -16.964,0.136 c -1.947,0.063 -3.875,0.305 -5.903,0.873 -0.618,0.189 -1.198,0.427 -1.75,0.719 -1.11,0.606 -2.034,1.269 -2.993,2.447 -0.483,0.599 -0.994,1.363 -1.413,2.174 -0.847,1.661 -1.354,3.472 -1.394,5.258 M 163.976,0.45 v 14.789 h 9.775 v 76.898 h 19.598 V 15.239 h 9.701 V 0.45 h -39.074 m 65.204,0 h -20.866 v 91.688 h 19.569 V 55.591 c 1.282,0.049 2.563,-0.108 3.863,0.293 0.274,0.098 0.531,0.246 0.752,0.435 0.904,0.776 0.834,1.767 0.973,2.703 0.17,1.881 0.037,3.771 0.084,5.653 v 27.462 h 19.568 l -0.018,-28.663 c -0.031,-2.825 -0.223,-5.624 -0.839,-8.45 -0.173,-0.638 -0.402,-1.276 -0.688,-1.905 -0.433,-1.004 -1.019,-1.943 -1.732,-2.771 -0.713,-0.829 -1.554,-1.549 -2.482,-2.126 -0.928,-0.577 -1.947,-1.011 -3.006,-1.285 0.511,-0.127 1.017,-0.287 1.519,-0.48 1.007,-0.383 1.952,-0.93 2.786,-1.612 0.833,-0.683 1.555,-1.502 2.127,-2.415 0.57,-0.913 0.993,-1.919 1.248,-2.966 0.209,-0.75 0.384,-1.504 0.525,-2.262 0.459,-3.09 0.623,-6.187 0.561,-9.291 v -9.6 c 0.061,-1.895 -0.029,-3.802 -0.271,-5.699 -0.118,-0.945 -0.274,-1.886 -0.442,-2.666 -0.167,-0.781 -0.346,-1.402 -0.578,-2.004 -0.232,-0.602 -0.516,-1.184 -0.846,-1.737 -0.331,-0.554 -0.709,-1.079 -1.129,-1.569 -0.656,-0.7 -1.396,-1.321 -2.201,-1.844 -1.67,-1.083 -3.544,-1.688 -5.393,-1.846 C 237.91,0.438 233.543,0.581 229.18,0.45 m -1.297,14.908 c 0.924,0.007 1.841,0.018 2.768,0.022 0.442,0.04 0.895,0.152 1.333,0.35 1.273,0.838 1.338,1.902 1.454,2.93 0.082,1.154 0.078,2.315 0.117,3.474 -0.016,4.017 0.051,8.032 -0.047,12.048 -0.01,0.717 -0.07,1.432 -0.177,2.146 -0.033,0.334 -0.131,0.663 -0.288,0.96 -0.156,0.297 -0.371,0.563 -0.629,0.779 -0.592,0.533 -1.38,0.56 -2.091,0.644 -0.81,0.077 -1.627,0.086 -2.44,0.029 V 15.358 m 47.692,76.78 1.371,-18.127 h 7.507 l 1.51,18.127 h 18.521 L 292.875,0.45 H 268.94 l -11.785,91.688 h 18.42 m 7.793,-33.256 h -5.338 l 2.706,-35.629 2.632,35.629 M 351.087,6.108 C 350.415,5.031 349.548,4.073 348.54,3.306 347.53,2.538 346.382,1.961 345.528,1.618 344.673,1.275 344.112,1.167 343.553,1.068 342.992,0.969 342.432,0.881 341.871,0.816 341.307,0.752 340.744,0.711 339.404,0.651 338.064,0.592 335.949,0.46 333.832,0.459 L 308.46,0.45 v 91.688 l 31.104,-0.053 c 0.773,-0.002 1.531,-0.221 2.293,-0.355 1.604,-0.289 3.016,-0.594 4.521,-1.275 0.793,-0.356 1.646,-0.832 2.422,-1.416 0.773,-0.586 1.471,-1.283 2.129,-2.356 0.658,-1.075 1.277,-2.526 1.732,-4.302 0.453,-1.773 0.801,-3.871 0.797,-5.971 l -0.137,-62.58 c -0.004,-1.429 -0.361,-2.84 -0.727,-4.146 -0.36,-1.305 -0.837,-2.499 -1.507,-3.576 m -21.824,9.33 c 0.416,0 0.834,-0.033 1.238,0.017 0.404,0.05 0.791,0.144 1.111,0.244 0.32,0.1 0.57,0.209 0.795,0.359 0.225,0.15 0.422,0.342 0.578,0.562 0.678,1.017 0.594,2.464 0.654,3.747 v 52.802 c 0,0.391 -0.002,0.781 -0.057,1.16 -0.057,0.379 -0.15,0.746 -0.271,1.065 -0.121,0.319 -0.271,0.592 -0.473,0.823 -0.197,0.232 -0.445,0.424 -0.715,0.576 -0.27,0.154 -0.553,0.34 -0.865,0.34 h -3.205 V 15.438 h 1.21"
           id="path7"
           style="fill:url(#SVGID_1_)"
           inkscape:connector-curvature="0" /><path
           d="M 149.017,92.672 H 129.19 c -0.802,0 -1.576,-0.104 -2.328,-0.193 v 0 c -0.765,-0.093 -1.576,-0.213 -2.644,-0.582 v 0 c -1.068,-0.371 -2.403,-0.983 -3.593,-1.855 v 0 c -1.19,-0.873 -2.2,-1.987 -2.959,-3.25 v 0 c -0.759,-1.267 -1.25,-2.662 -1.559,-4.002 v 0 c -0.57,-2.583 -0.585,-5.057 -0.602,-7.626 v 0 l -0.021,-21.421 h 20.513 l 0.006,19.121 c 0.135,1.247 0.073,2.408 0.861,3.142 v 0 c 0.188,0.181 0.413,0.328 0.647,0.425 v 0 c 0.292,0.116 0.578,0.171 0.852,0.171 v 0 c 0.494,-0.003 0.962,-0.173 1.381,-0.517 v 0 c 0.195,-0.168 0.365,-0.382 0.469,-0.576 v 0 c 0.375,-0.834 0.466,-1.593 0.468,-2.41 v 0 c 0,-0.054 0,-0.102 0,-0.148 v 0 l -0.029,-12.397 -0.073,-2.003 c 0,-0.16 0.002,-0.315 0.002,-0.465 v 0 c -0.006,-1.259 -0.114,-2.35 -1.159,-3.363 v 0 c -0.487,-0.475 -0.987,-0.728 -1.516,-1.06 v 0 c -3.875,-2.156 -7.701,-4.261 -11.543,-6.384 v 0 c -1.783,-0.939 -3.572,-2.036 -5.223,-3.463 v 0 c -0.796,-0.68 -1.549,-1.406 -2.125,-2.034 v 0 c -0.577,-0.628 -0.977,-1.165 -1.321,-1.715 v 0 c -0.753,-1.171 -1.217,-2.469 -1.495,-3.512 v 0 c -0.263,-1.012 -0.4,-1.563 -0.533,-3.144 v 0 c -0.06,-0.75 -0.125,-1.79 -0.158,-2.843 v 0 c -0.015,-1.62 -0.019,-3.239 -0.019,-4.854 v 0 c 0,-4.707 0.042,-9.407 0.052,-14.108 v 0 0.002 l 0.5,10e-4 -0.5,-0.011 c 0.042,-1.875 0.57,-3.755 1.449,-5.476 v 0 c 0.438,-0.846 0.964,-1.634 1.47,-2.262 v 0 c 0.998,-1.229 1.999,-1.949 3.146,-2.573 v 0 c 0.583,-0.307 1.192,-0.556 1.85,-0.759 v 0 c 2.071,-0.579 4.043,-0.825 6.034,-0.89 v 0 l 16.94,-0.137 c 0.052,-0.002 0.089,0 0.112,0 v 0 c 0.715,0 1.412,0.07 2.103,0.143 v 0 c 1.422,0.182 2.743,0.282 4.466,0.875 v 0 c 0.879,0.317 1.896,0.8 2.822,1.447 v 0 c 0.929,0.645 1.752,1.443 2.419,2.355 v 0 c 0.668,0.91 1.162,1.91 1.479,2.612 v 0 c 0.315,0.703 0.458,1.141 0.577,1.557 v 0 c 0.12,0.415 0.222,0.834 0.311,1.261 v 0 c 0.085,0.425 0.155,0.867 0.234,1.733 v 0 c 0.081,0.871 0.176,2.179 0.23,3.502 v 0 c 0.058,2.534 0.073,5.065 0.073,7.595 v 0 c 0,2.453 -0.013,4.904 -0.013,7.354 v 0 c 0,0.651 0.002,1.3 0.004,1.951 v 0 l 0.002,0.502 h -20.6 V 20.986 c -0.002,-0.181 0,-0.363 0,-0.543 v 0 c 0,-0.96 -0.021,-1.968 -0.104,-2.702 v 0 c -0.047,-0.419 -0.116,-0.684 -0.22,-0.933 v 0 c -0.107,-0.251 -0.257,-0.485 -0.443,-0.694 v 0 c -0.185,-0.206 -0.4,-0.379 -0.583,-0.477 v 0 c -0.375,-0.16 -0.715,-0.234 -1.026,-0.234 v 0 c -0.595,0.008 -1.118,0.251 -1.665,0.966 v 0 c -0.149,0.23 -0.282,0.522 -0.385,0.842 v 0 c -0.172,0.491 -0.218,1.043 -0.218,1.578 v 0 c 0,0.11 0.002,0.22 0.006,0.348 v 0 c -0.014,1.248 -0.019,2.536 -0.019,3.834 v 0 c 0,1.254 0.004,2.523 0.004,3.782 v 0 c 0,0.347 0.002,0.693 0,1.037 v 0 c 0,0.275 -0.017,0.529 -0.017,0.759 v 0 c 0,0.13 0.006,0.257 0.022,0.392 v 0 c 0.052,0.612 0.411,1.464 0.688,1.897 v 0 c 0.129,0.208 0.17,0.257 0.234,0.33 v 0 c 0.251,0.264 0.156,0.218 0.645,0.597 v 0 c 0.268,0.203 0.722,0.533 1.184,0.836 v 0 c 0.458,0.303 0.939,0.581 1.431,0.848 v 0 l 8.286,4.522 c 1.959,1.086 3.985,2.349 5.808,3.583 v 0 c 0.881,0.605 1.688,1.198 2.428,1.887 v 0 c 0.738,0.687 1.397,1.458 1.961,2.293 v 0 c 0.566,0.835 1.028,1.719 1.319,2.345 v 0 c 0.292,0.628 0.419,1.022 0.522,1.385 v 0 c 0.104,0.365 0.197,0.732 0.273,1.107 v 0 c 0.077,0.373 0.143,0.771 0.209,1.58 v 0 c 0.068,0.813 0.146,2.057 0.187,3.169 v 0 c 0.044,1.111 0.056,2.081 0.063,2.703 v 0 c 0.008,0.622 0.008,0.904 0.008,1.18 v 0 14.697 c 0,0.687 0.008,1.381 0.008,2.08 v 0 c 0,0.698 -0.008,1.401 -0.043,2.108 v 0 c -0.068,1.399 -0.191,2.799 -0.388,3.939 v 0 c -0.197,1.145 -0.469,2.012 -0.784,2.948 v 0 c -0.315,0.936 -0.69,2.02 -1.396,3.055 v 0 c -0.707,1.034 -1.712,1.979 -2.903,2.735 v 0 c -1.186,0.752 -2.536,1.306 -3.693,1.625 v 0 c -0.943,0.255 -1.752,0.282 -2.486,0.282 v 0 c -0.18,0 -0.362,0 -0.545,0 z M 116.505,75.16 c 0.017,2.569 0.035,4.962 0.577,7.41 v 0 c 0.29,1.257 0.752,2.56 1.443,3.706 v 0 c 0.688,1.15 1.611,2.166 2.691,2.961 v 0 c 1.078,0.792 2.341,1.374 3.328,1.715 v 0 c 0.989,0.34 1.69,0.443 2.437,0.534 v 0 c 0.761,0.092 1.497,0.188 2.21,0.188 v 0 h 19.827 c 0.183,0 0.365,0 0.55,0 v 0 c 0.711,0 1.401,-0.027 2.223,-0.249 v 0 c 1.062,-0.291 2.339,-0.815 3.421,-1.504 v 0 c 1.084,-0.69 1.997,-1.551 2.61,-2.452 v 0 c 0.616,-0.9 0.964,-1.885 1.275,-2.813 v 0 c 0.311,-0.927 0.562,-1.723 0.746,-2.797 v 0 c 0.185,-1.076 0.307,-2.446 0.375,-3.821 v 0 c 0.033,-0.683 0.042,-1.368 0.042,-2.059 v 0 c 0,-0.69 -0.008,-1.384 -0.008,-2.08 v 0 -14.697 c -0.002,-0.275 0,-0.549 -0.008,-1.169 v 0 c -0.006,-0.62 -0.019,-1.578 -0.062,-2.675 v 0 c -0.042,-1.095 -0.116,-2.333 -0.185,-3.123 v 0 c -0.066,-0.792 -0.121,-1.119 -0.193,-1.464 v 0 c -0.071,-0.344 -0.158,-0.688 -0.255,-1.032 v 0 c -0.097,-0.342 -0.195,-0.649 -0.468,-1.238 v 0 c -0.272,-0.587 -0.713,-1.437 -1.238,-2.208 v 0 c -0.523,-0.773 -1.134,-1.486 -1.816,-2.121 v 0 c -0.682,-0.636 -1.447,-1.2 -2.31,-1.792 v 0 c -1.795,-1.219 -3.799,-2.467 -5.725,-3.535 v 0 l -8.283,-4.52 c -0.506,-0.276 -1.01,-0.566 -1.501,-0.89 v 0 c -0.489,-0.321 -0.954,-0.659 -1.24,-0.877 v 0 c -0.504,-0.379 -0.599,-0.527 -0.778,-0.718 v 0 c -0.091,-0.102 -0.205,-0.242 -0.348,-0.479 v 0 c -0.349,-0.566 -0.745,-1.461 -0.832,-2.314 v 0 c -0.021,-0.172 -0.027,-0.34 -0.027,-0.5 v 0 c 0,-0.276 0.017,-0.531 0.017,-0.761 v 0 c 0,-0.342 0,-0.688 0,-1.035 v 0 c 0,-1.256 -0.004,-2.523 -0.004,-3.782 v 0 c 0,-1.3 0.004,-2.592 0.019,-3.824 v 0 c -0.004,-0.116 -0.006,-0.234 -0.006,-0.358 v 0 c 0,-0.587 0.043,-1.252 0.27,-1.897 v 0 c 0.122,-0.375 0.282,-0.742 0.514,-1.095 v 0 c 0.676,-0.921 1.555,-1.402 2.484,-1.394 v 0 c 0.473,0 0.948,0.114 1.454,0.33 v 0 c 0.344,0.181 0.647,0.429 0.902,0.715 v 0 c 0.255,0.287 0.465,0.614 0.618,0.969 v 0 c 0.149,0.354 0.238,0.736 0.292,1.211 v 0 c 0.091,0.813 0.11,1.841 0.11,2.815 v 0 c 0,0.185 0,0.367 0,0.543 v 0 10.403 h 18.598 c -0.001,-0.484 -0.003,-0.968 -0.003,-1.452 v 0 c 0,-2.453 0.013,-4.906 0.013,-7.354 v 0 c 0,-2.526 -0.015,-5.049 -0.073,-7.562 v 0 c -0.054,-1.296 -0.147,-2.592 -0.226,-3.442 v 0 c -0.079,-0.851 -0.141,-1.236 -0.22,-1.628 v 0 c -0.081,-0.4 -0.178,-0.794 -0.29,-1.184 v 0 c -0.114,-0.392 -0.23,-0.754 -0.531,-1.424 v 0 C 158.624,6.674 158.151,5.73 157.55,4.909 v 0 c -0.6,-0.819 -1.346,-1.541 -2.184,-2.124 v 0 c -0.84,-0.584 -1.787,-1.039 -2.583,-1.325 v 0 c -1.599,-0.55 -2.801,-0.641 -4.25,-0.825 v 0 c -0.676,-0.073 -1.337,-0.137 -1.987,-0.137 v 0 c -0.035,0 -0.056,0 -0.081,0 v 0 l -16.951,0.137 c -1.918,0.062 -3.801,0.298 -5.773,0.85 v 0 c -0.589,0.182 -1.14,0.406 -1.657,0.68 v 0 c -1.078,0.591 -1.926,1.198 -2.843,2.322 v 0 c -0.462,0.572 -0.958,1.313 -1.358,2.088 v 0 c -0.817,1.601 -1.302,3.342 -1.339,5.042 v 0 0 c -0.011,4.699 -0.052,9.396 -0.052,14.094 v 0 c 0,1.615 0.004,3.229 0.019,4.833 v 0 c 0.033,1.024 0.095,2.048 0.155,2.78 v 0 c 0.135,1.555 0.243,1.956 0.502,2.974 v 0 c 0.257,0.968 0.697,2.181 1.373,3.228 v 0 c 0.319,0.51 0.672,0.985 1.215,1.576 v 0 c 0.541,0.591 1.271,1.296 2.04,1.953 v 0 c 1.572,1.358 3.293,2.416 5.045,3.338 v 0 c 3.851,2.129 7.676,4.232 11.581,6.407 v 0 c 0.487,0.311 1.09,0.611 1.698,1.198 v 0 c 1.327,1.268 1.472,2.785 1.464,4.083 v 0 c 0,0.162 -0.002,0.317 -0.002,0.45 v 0 l 0.073,1.998 0.029,12.41 c 0.002,0.056 0,0.108 0,0.155 v 0 c 0.002,0.892 -0.108,1.829 -0.57,2.85 v 0 c -0.179,0.334 -0.421,0.641 -0.722,0.899 v 0 c -0.585,0.487 -1.292,0.755 -2.026,0.753 v 0 c -0.409,0.002 -0.821,-0.081 -1.228,-0.242 v 0 c -0.359,-0.149 -0.687,-0.363 -0.966,-0.633 v 0 c -1.176,-1.157 -1.012,-2.679 -1.163,-3.799 v 0 L 135,54.744 h -18.516 z m 191.453,-75.21 25.875,0.008 c 2.136,0.002 4.261,0.133 5.594,0.193 v 0 c 1.342,0.06 1.921,0.102 2.501,0.168 v 0 c 0.574,0.066 1.145,0.155 1.713,0.255 v 0 c 0.563,0.1 1.184,0.22 2.073,0.579 v 0 c 0.89,0.359 2.069,0.95 3.129,1.754 v 0 c 1.056,0.807 1.964,1.808 2.667,2.936 v 0 h 0.002 l -0.002,0.001 c 0.703,1.127 1.196,2.369 1.565,3.704 v 0 c 0.366,1.314 0.74,2.768 0.744,4.28 v 0 l 0.137,62.615 v 0 c 0,0.001 0,0.001 0,0.002 v 0 c 0,0.001 10e-4,0.005 0,0.014 v 0 c -0.002,2.137 -0.354,4.252 -0.813,6.045 v 0 c -0.465,1.816 -1.1,3.312 -1.79,4.439 v 0 c -0.688,1.126 -1.442,1.881 -2.254,2.493 v 0 c -0.813,0.613 -1.695,1.104 -2.517,1.474 v 0 c -1.563,0.707 -3.027,1.021 -4.641,1.313 v 0 c -0.728,0.125 -1.512,0.356 -2.378,0.361 v 0 l -31.606,0.054 V -0.05 Z m 1.001,91.687 30.603,-0.052 c 0.679,0 1.41,-0.205 2.207,-0.348 v 0 c 1.594,-0.289 2.954,-0.585 4.403,-1.24 v 0 c 0.764,-0.345 1.587,-0.803 2.324,-1.358 v 0 c 0.736,-0.56 1.377,-1.198 2.006,-2.219 v 0 c 0.626,-1.024 1.229,-2.432 1.673,-4.165 v 0 c 0.444,-1.731 0.782,-3.78 0.782,-5.813 v 0 c 0.003,0 -0.003,-0.01 0,-0.051 v 0 L 352.82,13.83 c -0.002,-1.346 -0.344,-2.714 -0.707,-4.012 v 0 C 351.76,8.545 351.3,7.399 350.664,6.372 v 0 l 0.423,-0.265 -0.425,0.265 c -0.639,-1.026 -1.466,-1.939 -2.424,-2.669 v 0 c -0.962,-0.729 -2.08,-1.294 -2.896,-1.621 v 0 c -0.821,-0.328 -1.321,-0.423 -1.875,-0.523 v 0 c -0.556,-0.097 -1.104,-0.185 -1.65,-0.247 v 0 C 341.268,1.25 340.72,1.208 339.383,1.15 v 0 C 338.035,1.09 335.93,0.959 333.832,0.957 v 0 L 308.959,0.95 Z m -23.459,1 -1.508,-18.129 h -6.583 l -1.335,17.666 v 0.002 l -0.5,-0.038 v 0.499 H 256.583 L 268.5,-0.05 h 24.813 l 11.738,92.687 z m -27.778,-1 h 17.388 l 1.371,-18.126 h 8.431 l 1.51,18.124 h 17.493 L 292.432,0.95 h -23.053 z m -24.668,1 0.002,-27.949 c -0.01,-0.327 -0.014,-0.65 -0.014,-0.977 v 0 c 0,-0.773 0.019,-1.542 0.019,-2.303 v 0 c 0,-0.788 -0.019,-1.57 -0.083,-2.314 v 0 c -0.145,-1.037 -0.095,-1.796 -0.805,-2.397 v 0 c -0.174,-0.146 -0.379,-0.265 -0.576,-0.335 v 0 c -0.749,-0.234 -1.51,-0.266 -2.318,-0.266 v 0 c -0.234,0 -0.475,0.004 -0.719,0.004 v 0 c -0.059,0 -0.118,0 -0.176,-0.001 v 0 36.538 H 207.815 V -0.05 h 21.368 v 0.5 l 0.014,-0.5 c 4.342,0.131 8.723,-0.015 13.111,0.496 v 0 c 1.928,0.166 3.881,0.796 5.623,1.926 v 0 c 0.84,0.543 1.609,1.19 2.308,1.937 v 0 c 0.438,0.512 0.833,1.06 1.18,1.638 v 0 c 0.344,0.577 0.641,1.184 0.883,1.814 v 0 c 0.243,0.628 0.429,1.279 0.599,2.078 v 0 c 0.172,0.798 0.33,1.752 0.45,2.708 v 0 c 0.195,1.534 0.292,3.075 0.292,4.611 v 0 c 0,0.39 -0.006,0.777 -0.019,1.151 v 0 9.592 c 0.008,0.417 0.013,0.838 0.013,1.259 v 0 c 0,2.708 -0.176,5.412 -0.581,8.132 v 0 c -0.145,0.773 -0.324,1.541 -0.531,2.29 v 0 c -0.268,1.099 -0.711,2.154 -1.311,3.114 v 0 c -0.602,0.958 -1.358,1.818 -2.233,2.536 v 0 c -0.877,0.715 -1.868,1.29 -2.923,1.691 v 0 c -0.026,0.011 -0.051,0.02 -0.077,0.029 v 0 c 0.571,0.236 1.124,0.519 1.649,0.844 v 0 c 0.97,0.604 1.85,1.356 2.596,2.223 v 0 c 0.747,0.869 1.36,1.853 1.808,2.893 v 0 c 0.299,0.653 0.535,1.317 0.722,2.006 v 0 c 0.626,2.873 0.819,5.708 0.85,8.557 v 0 l 0.019,29.164 h -20.571 z m -1.141,-37.225 c 0.332,0.118 0.641,0.297 0.911,0.526 v 0 c 1.099,0.952 1.007,2.174 1.145,3.038 v 0 c 0.075,0.816 0.091,1.63 0.091,2.433 v 0 c 0,0.775 -0.019,1.544 -0.019,2.303 v 0 c 0,0.319 0.004,0.633 0.015,0.963 v 0 26.961 h 18.568 l -0.019,-28.157 c -0.031,-2.806 -0.222,-5.57 -0.821,-8.323 v 0 c -0.166,-0.612 -0.386,-1.226 -0.666,-1.84 v 0 c -0.413,-0.957 -0.973,-1.854 -1.651,-2.644 v 0 c -0.68,-0.79 -1.482,-1.476 -2.368,-2.027 v 0 c -0.883,-0.55 -1.856,-0.965 -2.868,-1.226 v 0 l 0.004,-0.968 c 0.492,-0.122 0.977,-0.276 1.464,-0.462 v 0 c 0.956,-0.363 1.854,-0.883 2.646,-1.532 v 0 c 0.79,-0.647 1.477,-1.427 2.02,-2.291 v 0 c 0.541,-0.869 0.946,-1.825 1.19,-2.837 v 0 c 0.205,-0.736 0.377,-1.474 0.512,-2.2 v 0 c 0.394,-2.65 0.568,-5.304 0.568,-7.968 v 0 c 0,-0.413 -0.004,-0.828 -0.012,-1.25 v 0 -9.615 c 0.012,-0.377 0.019,-0.757 0.019,-1.136 v 0 c 0,-1.493 -0.096,-2.994 -0.286,-4.485 v 0 c -0.116,-0.933 -0.27,-1.862 -0.434,-2.625 v 0 c -0.164,-0.761 -0.336,-1.354 -0.556,-1.929 v 0 C 251.144,7.547 250.873,6.989 250.555,6.46 v 0 C 250.24,5.931 249.879,5.429 249.491,4.978 v 0 c -0.628,-0.67 -1.337,-1.265 -2.108,-1.767 v 0 C 245.786,2.174 243.99,1.596 242.205,1.442 v 0 C 237.9,0.941 233.548,1.081 229.165,0.951 v 0 h -20.354 v 90.686 h 18.57 V 55.072 l 0.516,0.019 c 0.218,0.008 0.436,0.011 0.66,0.011 v 0 c 0.234,0 0.473,-0.005 0.719,-0.005 v 0 c 0.831,-0.001 1.708,0.025 2.637,0.315 z M 173.25,92.637 V 15.74 h -9.774 V 0.45 h 0.5 v -0.5 h 39.575 v 15.79 h -9.702 v 76.897 z m -8.775,-77.899 h 9.776 l -0.002,76.897 h 18.599 V 14.738 h 9.7 V 0.95 H 164.475 Z M 94.68,92.637 94.678,47.644 88.603,92.637 H 76.267 l -6.366,-45.53 v 45.53 H 51.248 V -0.05 h 26.307 v 0.5 l 0.498,-0.058 4.145,36.232 4.343,-36.674 h 26.79 v 92.687 z m 0.999,-52.432 v 51.43 h 16.65 V 0.95 H 87.431 L 82.684,41.008 81.691,41.006 77.109,0.95 H 52.248 V 91.636 H 68.9 V 39.921 l 0.995,-0.07 7.241,51.785 H 87.727 L 94.684,40.137 Z M 28.349,92.637 26.837,74.51 h -6.581 l -1.337,17.664 0.002,0.002 -0.5,-0.038 v 0.499 H -0.57 L 11.348,-0.05 h 24.811 l 11.74,92.687 z m -27.781,-1 h 17.388 l 1.373,-18.128 h 8.429 l 1.511,18.126 H 46.763 L 35.28,0.95 H 12.227 Z M 327.553,77.633 V 14.938 h 0.501 1.209 v 1 h -0.711 v 60.697 h 2.706 c 0.107,0.01 0.331,-0.102 0.62,-0.276 v 0 c 0.228,-0.128 0.429,-0.286 0.582,-0.469 v 0 c 0.155,-0.178 0.276,-0.394 0.384,-0.672 v 0 c 0.105,-0.281 0.193,-0.617 0.242,-0.96 v 0 c 0.05,-0.334 0.053,-0.7 0.053,-1.088 v 0 -52.779 c -0.05,-1.323 -0.013,-2.691 -0.563,-3.481 v 0 c -0.12,-0.17 -0.273,-0.319 -0.447,-0.435 v 0 c -0.175,-0.116 -0.374,-0.208 -0.666,-0.299 v 0 c -0.297,-0.091 -0.657,-0.18 -1.026,-0.224 v 0 c -0.146,-0.019 -0.301,-0.025 -0.469,-0.025 v 0 c -0.22,0 -0.456,0.011 -0.705,0.011 v 0 -1 c 0.22,0 0.456,-0.01 0.705,-0.01 v 0 c 0.188,0 0.386,0.006 0.593,0.031 v 0 c 0.442,0.054 0.856,0.156 1.199,0.264 v 0 c 0.348,0.107 0.65,0.236 0.925,0.421 v 0 c 0.275,0.185 0.516,0.417 0.717,0.701 v 0 c 0.797,1.229 0.666,2.756 0.736,4.024 v 0 52.802 c 0,0.392 0,0.807 -0.061,1.233 v 0 c -0.062,0.412 -0.163,0.811 -0.3,1.169 v 0 c -0.135,0.359 -0.313,0.688 -0.559,0.969 v 0 c -0.244,0.288 -0.539,0.512 -0.848,0.687 v 0 c -0.253,0.135 -0.595,0.396 -1.113,0.406 v 0 h -3.704 z m -50.064,-18.251 2.747,-36.167 h 0.998 l 2.633,35.63 -0.5,0.036 v 0.501 z m 1.08,-1.001 h 4.261 L 280.728,29.945 Z M 20.334,59.382 23.082,23.215 h 1 l 2.631,35.63 -0.5,0.036 v 0.501 z m 1.081,-1.001 h 4.258 L 23.575,29.947 Z m 206.434,-19.142 -0.466,-0.031 v -23.85 h 0.5 l 0.004,-0.5 c 0.925,0.006 1.841,0.017 2.81,0.023 v 0 c 0.493,0.046 1.001,0.17 1.493,0.392 v 0 l 0.035,0.017 0.033,0.022 c 1.464,0.944 1.578,2.306 1.68,3.312 v 0 c 0.083,1.18 0.079,2.345 0.118,3.51 v 0 c -0.002,0.473 -0.004,0.946 -0.004,1.418 v 0 c 0,1.74 0.01,3.481 0.01,5.225 v 0 c 0,1.802 -0.013,3.608 -0.054,5.41 v 0 c -0.01,0.74 -0.072,1.479 -0.18,2.19 v 0 c -0.04,0.398 -0.153,0.788 -0.342,1.143 v 0 c -0.187,0.356 -0.443,0.671 -0.736,0.918 v 0 c -0.77,0.68 -1.696,0.68 -2.378,0.769 v 0 c -0.479,0.046 -0.962,0.068 -1.441,0.068 v 0 c -0.364,0.001 -0.725,-0.013 -1.082,-0.036 z m 1.081,-0.962 c 0.45,0 0.9,-0.021 1.335,-0.063 v 0 c 0.748,-0.081 1.399,-0.133 1.827,-0.531 v 0 c 0.209,-0.174 0.383,-0.39 0.51,-0.63 v 0 c 0.125,-0.236 0.206,-0.504 0.234,-0.8 v 0 c 0.104,-0.692 0.162,-1.385 0.172,-2.084 v 0 c 0.042,-1.795 0.054,-3.593 0.052,-5.391 v 0 c 0.002,-1.74 -0.008,-3.481 -0.008,-5.225 v 0 c 0,-0.475 0.002,-0.948 0.004,-1.402 v 0 c -0.039,-1.171 -0.037,-2.326 -0.116,-3.436 v 0 c -0.131,-1.059 -0.149,-1.821 -1.197,-2.546 v 0 c -0.375,-0.164 -0.758,-0.258 -1.094,-0.291 v 0 c -0.76,-0.003 -1.513,-0.011 -2.266,-0.017 v 0 22.403 c 0.181,0.008 0.364,0.013 0.547,0.013 z"
           id="path9"
           inkscape:connector-curvature="0" /></g></g><g
       id="g48"><g
         id="g24"><linearGradient
           id="SVGID_2_"
           gradientUnits="userSpaceOnUse"
           x1="413.6333"
           y1="0.087399997"
           x2="413.6333"
           y2="92.587402"><stop
             offset="0"
             style="stop-color:#FFFFFF"
             id="stop15" /><stop
             offset="1"
             style="stop-color:#CCCCCC"
             id="stop17" /></linearGradient><path
           d="M 429.748,82.679 H 408.35 c -2.561,-0.081 -4.543,-0.188 -5.889,-0.313 -1.109,-0.104 -1.934,-0.478 -2.566,-1.179 -0.588,-0.59 -0.938,-1.54 -1.045,-2.821 -0.127,-1.505 -0.23,-3.796 -0.313,-6.783 v -51.47 c 0,-2.498 0.082,-4.492 0.244,-5.927 0.143,-1.25 0.58,-2.192 1.367,-2.913 0.688,-0.691 1.471,-1.078 2.391,-1.18 1.098,-0.122 3.084,-0.185 5.906,-0.185 h 21.303 v 14.871 h 9.965 V 0.45 h -33.768 c -2.48,0 -4.979,0.152 -7.43,0.452 -2.609,0.322 -4.953,1.41 -6.99,3.267 -2.104,2.102 -3.33,4.65 -3.65,7.576 -0.299,2.721 -0.449,6.049 -0.449,9.893 V 73.11 c 0,3.429 0.152,6.335 0.453,8.642 0.322,2.5 1.422,4.701 3.264,6.541 1.842,1.842 4.102,2.961 6.723,3.328 2.443,0.344 5.592,0.519 9.352,0.519 h 32.625 V 67.81 h -10.094 v 14.869 z"
           id="path20"
           style="fill:url(#SVGID_2_)"
           inkscape:connector-curvature="0" /><path
           d="m 407.216,92.639 c -3.777,0 -6.943,-0.177 -9.422,-0.524 v 0 c -2.72,-0.379 -5.094,-1.553 -7.007,-3.47 v 0 c -1.914,-1.908 -3.071,-4.224 -3.406,-6.83 v 0 c -0.304,-2.338 -0.457,-5.263 -0.457,-8.705 v 0 -51.472 c 0,-3.857 0.151,-7.201 0.453,-9.948 v 0 c 0.329,-3.032 1.613,-5.701 3.811,-7.89 v 0 c 2.104,-1.921 4.555,-3.061 7.265,-3.395 v 0 c 2.472,-0.301 4.99,-0.455 7.492,-0.457 v 0 h 34.267 v 25.329 h -10.965 v -14.87 h -20.803 c -2.813,0 -4.796,0.065 -5.852,0.183 v 0 c -0.811,0.092 -1.469,0.415 -2.107,1.052 v 0 c -0.689,0.637 -1.071,1.433 -1.209,2.6 v 0 c -0.157,1.403 -0.241,3.383 -0.239,5.871 v 0 l -0.002,51.455 c 0.082,2.983 0.187,5.27 0.313,6.757 v 0 c 0.101,1.215 0.434,2.047 0.917,2.526 v 0 c 0.547,0.6 1.216,0.914 2.242,1.017 v 0 c 1.326,0.123 3.304,0.23 5.841,0.312 v 0 h 20.899 V 67.308 h 11.095 v 25.331 z m -8.64,-91.241 c -2.51,0.31 -4.745,1.347 -6.698,3.124 v 0 c -2.028,2.028 -3.195,4.457 -3.507,7.276 v 0 c -0.296,2.694 -0.446,6.007 -0.446,9.839 v 0 51.473 c 0,3.413 0.152,6.302 0.448,8.577 v 0 c 0.312,2.393 1.352,4.479 3.121,6.25 v 0 c 1.771,1.769 3.918,2.833 6.438,3.187 v 0 c 2.41,0.34 5.54,0.516 9.284,0.516 v 0 h 32.125 V 68.307 h -9.095 v 14.371 0.499 h -21.914 c -2.566,-0.08 -4.555,-0.187 -5.921,-0.314 v 0 c -1.191,-0.104 -2.172,-0.539 -2.872,-1.322 v 0 c -0.71,-0.717 -1.075,-1.787 -1.19,-3.132 v 0 c -0.127,-1.525 -0.23,-3.82 -0.313,-6.826 v 0 -51.47 c 0,-2.51 0.081,-4.518 0.247,-5.984 v 0 c 0.148,-1.333 0.641,-2.42 1.511,-3.21 v 0 c 0.752,-0.76 1.661,-1.213 2.689,-1.324 v 0 c 1.14,-0.125 3.129,-0.187 5.961,-0.187 v 0 h 21.803 v 14.87 h 8.965 V 0.95 h -33.267 c -2.462,0 -4.939,0.151 -7.369,0.448 z m 31.172,81.28 v -0.499 z"
           id="path22"
           inkscape:connector-curvature="0" /></g><g
         id="g35"><linearGradient
           id="SVGID_3_"
           gradientUnits="userSpaceOnUse"
           x1="477.20651"
           y1="0.087399997"
           x2="477.20651"
           y2="92.587402"><stop
             offset="0"
             style="stop-color:#FFFFFF"
             id="stop26" /><stop
             offset="1"
             style="stop-color:#CCCCCC"
             id="stop28" /></linearGradient><path
           d="m 506.179,16.3 c 0,-1.792 -0.063,-3.528 -0.191,-5.16 -0.137,-1.718 -0.531,-3.268 -1.178,-4.608 -0.658,-1.364 -1.654,-2.554 -2.963,-3.535 -1.297,-0.971 -3.1,-1.693 -5.406,-2.155 -0.613,-0.086 -1.182,-0.152 -1.711,-0.198 -0.518,-0.042 -1.182,-0.084 -1.996,-0.129 -0.836,-0.042 -1.922,-0.064 -3.23,-0.064 h -41.33 v 9.458 h 8.641 V 82.68 h -8.641 v 9.458 h 28.521 V 82.68 h -8.77 V 50.451 h 20.678 c 1.801,0 3.564,-0.043 5.24,-0.127 1.764,-0.088 3.396,-0.357 4.861,-0.804 1.535,-0.467 2.904,-1.272 4.068,-2.394 1.164,-1.124 2.082,-2.667 2.729,-4.612 0.359,-1.171 0.586,-2.487 0.676,-3.914 0.084,-1.38 0.084,-3.208 0.002,-5.397 z m -10.728,3.6 v 11.482 c 0,2.177 -0.064,3.971 -0.189,5.334 -0.105,1.208 -0.422,2.15 -0.932,2.8 -0.484,0.618 -1.316,1.057 -2.473,1.304 -1.316,0.282 -3.27,0.426 -5.803,0.426 H 467.925 V 9.909 h 17.623 c 2.479,0 4.438,0.083 5.83,0.25 1.213,0.144 2.111,0.485 2.666,1.012 0.549,0.521 0.918,1.423 1.096,2.68 0.205,1.438 0.311,3.474 0.311,6.049 z"
           id="path31"
           style="fill:url(#SVGID_3_)"
           inkscape:connector-curvature="0" /><path
           d="M 447.671,92.636 V 82.18 l 8.64,-0.002 v -71.77 h -8.64 V -0.05 h 41.831 c 1.313,0 2.407,0.023 3.259,0.065 v 0 c 0.815,0.044 1.482,0.086 2.011,0.129 v 0 c 0.54,0.048 1.117,0.114 1.765,0.207 v 0 c 2.355,0.473 4.229,1.212 5.609,2.245 v 0 c 1.366,1.024 2.42,2.279 3.113,3.719 v 0 c 0.678,1.404 1.085,3.016 1.227,4.786 v 0 c 0.129,1.647 0.192,3.396 0.192,5.199 v 0 16.886 c 0.038,1.09 0.059,2.095 0.062,3.003 v 0 c -0.003,0.917 -0.021,1.732 -0.065,2.441 v 0 c -0.091,1.461 -0.323,2.815 -0.699,4.042 v 0 c -0.665,2.002 -1.62,3.622 -2.855,4.813 v 0 c -1.219,1.174 -2.661,2.023 -4.271,2.514 v 0 c -1.51,0.458 -3.183,0.734 -4.981,0.823 v 0 c -1.686,0.084 -3.457,0.127 -5.265,0.129 v 0 H 468.425 V 82.18 h 8.771 v 10.456 z m 1.001,-0.999 h 27.52 v -8.458 h -8.769 V 49.95 h 21.18 c 1.791,0 3.548,-0.042 5.214,-0.127 v 0 c 1.729,-0.084 3.322,-0.349 4.741,-0.781 v 0 c 1.461,-0.445 2.758,-1.208 3.867,-2.276 v 0 c 1.092,-1.054 1.974,-2.524 2.597,-4.399 v 0 c 0.347,-1.125 0.568,-2.405 0.655,-3.797 v 0 c 0.042,-0.68 0.062,-1.478 0.062,-2.38 v 0 c 0,-0.893 -0.021,-1.886 -0.062,-2.986 v 0 V 16.3 c 0.002,-1.78 -0.062,-3.503 -0.188,-5.121 v 0 c -0.133,-1.667 -0.515,-3.155 -1.13,-4.431 v 0 C 503.736,5.46 502.796,4.334 501.546,3.396 v 0 C 500.334,2.486 498.6,1.783 496.37,1.337 v 0 c -0.606,-0.086 -1.166,-0.15 -1.682,-0.196 v 0 c -0.511,-0.04 -1.172,-0.083 -1.98,-0.127 v 0 c -0.824,-0.042 -1.903,-0.063 -3.206,-0.063 v 0 h -40.83 v 8.458 h 8.642 V 83.18 h -8.642 z M 467.425,41.745 V 9.409 h 18.122 c 2.491,0 4.462,0.083 5.89,0.253 v 0 c 1.271,0.152 2.272,0.507 2.95,1.145 v 0 c 0.676,0.65 1.058,1.658 1.246,2.973 v 0 c 0.211,1.479 0.316,3.529 0.316,6.12 v 0 11.482 c 0,2.186 -0.065,3.992 -0.192,5.377 v 0 c -0.111,1.269 -0.443,2.306 -1.036,3.064 v 0 c -0.59,0.75 -1.538,1.223 -2.761,1.484 v 0 c -1.379,0.296 -3.354,0.437 -5.906,0.437 v 0 h -18.629 z m 0.997,-0.998 h 17.632 c 2.513,0 4.443,-0.146 5.697,-0.416 v 0 c 1.09,-0.232 1.806,-0.636 2.184,-1.124 v 0 c 0.427,-0.541 0.729,-1.39 0.828,-2.537 v 0 c 0.122,-1.339 0.188,-3.121 0.186,-5.288 v 0 V 19.9 h 0.002 c 0,-2.562 -0.107,-4.583 -0.306,-5.98 v 0 c -0.167,-1.198 -0.523,-1.994 -0.946,-2.387 v 0 c -0.431,-0.416 -1.227,-0.743 -2.38,-0.878 v 0 c -1.358,-0.163 -3.305,-0.247 -5.771,-0.245 v 0 h -17.125 v 30.337 z"
           id="path33"
           inkscape:connector-curvature="0" /></g><g
         id="g46"><linearGradient
           id="SVGID_4_"
           gradientUnits="userSpaceOnUse"
           x1="540.72223"
           y1="0.087399997"
           x2="540.72223"
           y2="92.587402"><stop
             offset="0"
             style="stop-color:#FFFFFF"
             id="stop37" /><stop
             offset="1"
             style="stop-color:#CCCCCC"
             id="stop39" /></linearGradient><path
           d="M 556.833,67.809 V 82.68 h -21.398 c -2.559,-0.081 -4.541,-0.188 -5.889,-0.313 -1.105,-0.104 -1.934,-0.477 -2.563,-1.178 -0.588,-0.59 -0.939,-1.54 -1.047,-2.822 -0.125,-1.5 -0.23,-3.789 -0.313,-6.781 V 20.113 c 0,-2.498 0.082,-4.492 0.244,-5.926 0.146,-1.252 0.58,-2.194 1.369,-2.914 0.688,-0.692 1.471,-1.078 2.389,-1.18 1.098,-0.122 3.084,-0.185 5.906,-0.185 h 21.303 v 14.871 h 9.969 V 0.45 h -33.771 c -2.479,0 -4.977,0.152 -7.426,0.452 -2.613,0.322 -4.955,1.41 -6.994,3.267 -2.102,2.102 -3.328,4.65 -3.648,7.575 -0.299,2.718 -0.451,6.047 -0.451,9.894 V 73.11 c 0,3.431 0.152,6.339 0.453,8.642 0.324,2.5 1.422,4.699 3.266,6.541 1.842,1.842 4.104,2.961 6.723,3.328 2.443,0.344 5.59,0.519 9.352,0.519 h 32.625 V 67.81 h -10.099 z"
           id="path42"
           style="fill:url(#SVGID_4_)"
           inkscape:connector-curvature="0" /><path
           d="m 534.306,92.637 c -3.778,0 -6.943,-0.175 -9.423,-0.521 v 0 c -2.717,-0.38 -5.093,-1.555 -7.005,-3.471 v 0 c -1.916,-1.91 -3.073,-4.225 -3.409,-6.83 v 0 c -0.305,-2.334 -0.456,-5.261 -0.458,-8.706 v 0 -51.471 c 0.002,-3.86 0.153,-7.207 0.455,-9.948 v 0 c 0.33,-3.033 1.615,-5.7 3.81,-7.891 v 0 c 2.106,-1.921 4.555,-3.061 7.269,-3.393 v 0 c 2.47,-0.304 4.988,-0.455 7.487,-0.457 v 0 h 34.271 v 25.329 h -10.968 l -0.002,-14.871 h -20.801 c -2.813,0 -4.796,0.064 -5.852,0.181 v 0 c -0.81,0.093 -1.467,0.415 -2.107,1.053 v 0 c -0.689,0.636 -1.067,1.432 -1.21,2.602 v 0 c -0.158,1.401 -0.241,3.384 -0.241,5.871 v 0 51.458 c 0.083,2.986 0.188,5.271 0.311,6.754 v 0 c 0.103,1.216 0.437,2.046 0.922,2.531 v 0 c 0.542,0.595 1.216,0.91 2.237,1.012 v 0 c 1.329,0.124 3.306,0.23 5.843,0.313 v 0 l 20.898,-0.002 v -14.37 -0.5 h 11.097 v 25.329 h -33.124 z m -8.639,-91.24 c -2.514,0.313 -4.747,1.349 -6.702,3.125 v 0 c -2.024,2.029 -3.194,4.458 -3.505,7.276 v 0 c -0.296,2.693 -0.449,6.005 -0.447,9.84 v 0 51.471 c -0.002,3.416 0.151,6.307 0.447,8.578 v 0 c 0.313,2.394 1.353,4.478 3.124,6.249 v 0 c 1.77,1.768 3.918,2.834 6.438,3.188 v 0 c 2.408,0.339 5.537,0.516 9.283,0.516 v 0 H 566.43 V 68.308 h -9.1 v 14.87 h -21.913 c -2.565,-0.081 -4.555,-0.188 -5.92,-0.314 v 0 c -1.188,-0.106 -2.172,-0.536 -2.869,-1.323 v 0 c -0.708,-0.715 -1.078,-1.785 -1.191,-3.133 v 0 c -0.125,-1.517 -0.231,-3.813 -0.314,-6.822 v 0 -51.473 c 0,-2.51 0.08,-4.516 0.249,-5.986 v 0 c 0.15,-1.332 0.64,-2.418 1.51,-3.208 v 0 c 0.753,-0.764 1.661,-1.214 2.688,-1.325 v 0 c 1.138,-0.125 3.129,-0.187 5.962,-0.187 v 0 h 21.801 v 14.87 h 8.97 V 0.951 h -33.271 c -2.459,0 -4.937,0.149 -7.365,0.446 z m 31.166,66.911 v -0.5 z"
           id="path44"
           inkscape:connector-curvature="0" /></g></g></g></svg>