<?xml version="1.0" encoding="UTF-8" standalone="no"?>
<svg
   xmlns:dc="http://purl.org/dc/elements/1.1/"
   xmlns:cc="http://creativecommons.org/ns#"
   xmlns:rdf="http://www.w3.org/1999/02/22-rdf-syntax-ns#"
   xmlns:svg="http://www.w3.org/2000/svg"
   xmlns="http://www.w3.org/2000/svg"
   xmlns:sodipodi="http://sodipodi.sourceforge.net/DTD/sodipodi-0.dtd"
   xmlns:inkscape="http://www.inkscape.org/namespaces/inkscape"
   viewBox="0 0 643.1875 77.501249"
   height="77.501251"
   width="643.1875"
   xml:space="preserve"
   version="1.1"
   id="svg2"
   sodipodi:docname="logo.svg"
   inkscape:version="0.92.2 (5c3e80d, 2017-08-06)"><sodipodi:namedview
     pagecolor="#ffffff"
     bordercolor="#666666"
     borderopacity="1"
     objecttolerance="10"
     gridtolerance="10"
     guidetolerance="10"
     inkscape:pageopacity="0"
     inkscape:pageshadow="2"
     inkscape:window-width="1920"
     inkscape:window-height="1017"
     id="namedview35"
     showgrid="false"
     fit-margin-top="0"
     fit-margin-left="0"
     fit-margin-right="0"
     fit-margin-bottom="0"
     inkscape:zoom="0.54261005"
     inkscape:cx="321.59375"
     inkscape:cy="51.667248"
     inkscape:window-x="-8"
     inkscape:window-y="-8"
     inkscape:window-maximized="1"
     inkscape:current-layer="svg2" /><metadata
     id="metadata8"><rdf:RDF><cc:Work
         rdf:about=""><dc:format>image/svg+xml</dc:format><dc:type
           rdf:resource="http://purl.org/dc/dcmitype/StillImage" /><dc:title></dc:title></cc:Work></rdf:RDF></metadata><defs
     id="defs6"><linearGradient
       id="linearGradient24"
       spreadMethod="pad"
       gradientTransform="matrix(0,59.676815,59.676815,0,257.27502,22.990791)"
       gradientUnits="userSpaceOnUse"
       y2="0"
       x2="1"
       y1="0"
       x1="0"><stop
         id="stop26"
         offset="0"
         style="stop-opacity:1;stop-color:#ffffff" /><stop
         id="stop28"
         offset="0.26694311"
         style="stop-opacity:1;stop-color:#ffffff" /><stop
         id="stop30"
         offset="0.458827"
         style="stop-opacity:1;stop-color:#8a9cd7" /><stop
         id="stop32"
         offset="0.65396032"
         style="stop-opacity:1;stop-color:#ffffff" /><stop
         id="stop34"
         offset="1"
         style="stop-opacity:1;stop-color:#ffffff" /></linearGradient><linearGradient
       id="linearGradient50"
       spreadMethod="pad"
       gradientTransform="matrix(0,22.990791,22.990791,0,257.30157,0)"
       gradientUnits="userSpaceOnUse"
       y2="0"
       x2="1"
       y1="0"
       x1="0"><stop
         id="stop52"
         offset="0"
         style="stop-opacity:1;stop-color:#ffffff" /><stop
         id="stop54"
         offset="1"
         style="stop-opacity:1;stop-color:#4675c3" /></linearGradient><clipPath
       id="clipPath62"
       clipPathUnits="userSpaceOnUse"><path
         id="path64"
         d="M 0,82.668 H 514.55 V 0 H 0 Z"
         inkscape:connector-curvature="0" /></clipPath></defs><g
     transform="matrix(1.25,0,0,-0.9375,-1.7466869e-6,77.50125)"
     id="g10"><g
       id="g12"><g
         id="g14"><g
           id="g20"><g
             id="g22"><path
               id="path36"
               style="fill:url(#linearGradient24);stroke:none"
               d="m 236.522,81.461 c -14.081,-1.68 -27.511,-5.53 -39.551,-13.08 v 0 C 185.022,60.881 171.932,56.951 158.292,54.5 v 0 c -19.211,-3.439 -38.631,-4.299 -58.12,-4.169 v 0 c -14.631,0.09 -29.26,0.41 -43.871,-0.061 v 0 C 43.852,49.861 31.561,47.791 19.761,43.491 v 0 c -5.539,-2.01 -10.81,-4.51 -15.31,-8.36 v 0 C 1.062,32.211 -0.419,28.661 0.102,24.98 v 0 c 0.09,-0.659 0.25,-1.319 0.47,-1.99 v 0 h 513.459 c 0.2,0.64 0.35,1.301 0.44,1.99 v 0 c 0.041,0.301 0.061,0.611 0.071,0.921 v 0 c 0.004,0.123 0.007,0.244 0.008,0.365 v 0 0.168 c -0.033,4.523 -2.683,7.565 -6.158,10.097 v 0 c -6.83,4.99 -14.63,7.77 -22.711,9.77 v 0 c -15.429,3.81 -31.15,4.679 -46.98,4.55 v 0 c -15.3,-0.12 -30.61,-0.28 -45.909,-0.03 v 0 c -13.761,0.22 -27.441,1.65 -40.9,4.53 v 0 c -11.31,2.41 -22.38,5.6 -32.331,11.92 v 0 c -14.87,9.44 -31.389,13.76 -48.8,14.93 v 0 c -4.521,0.304 -9.039,0.467 -13.555,0.467 v 0 c -6.9,0 -13.794,-0.379 -20.684,-1.207"
               inkscape:connector-curvature="0" /></g></g></g></g><g
       id="g38"><g
         id="g40"><g
           id="g46"><g
             id="g48"><path
               id="path56"
               style="fill:url(#linearGradient50);stroke:none"
               d="m 0.572,22.99 c 0.389,-1.179 0.98,-2.369 1.78,-3.539 v 0 C 3.571,17.68 5.081,16.041 6.701,14.63 v 0 c 4.16,-3.639 9.171,-5.869 14.3,-7.669 v 0 C 34.492,2.21 48.561,0.731 62.732,0.41 v 0 C 79.601,0.031 96.482,0.04 113.361,0.021 v 0 c 47.911,-0.04 95.821,-0.01 143.74,-0.01 v 0 0.02 h 59.21 c 9.708,0.004 19.416,0.003 29.124,0.002 v 0 c 26.087,-0.003 52.177,-0.006 78.267,0.118 v 0 c 2.99,0.015 5.981,0.006 8.974,-0.003 v 0 c 12.918,-0.04 25.844,-0.079 38.705,1.813 v 0 c 9.301,1.37 18.52,2.92 27.121,6.999 v 0 c 4.819,2.291 9.48,4.801 12.82,9.161 v 0 c 1.16,1.51 2.14,3.1 2.709,4.869 v 0 z"
               inkscape:connector-curvature="0" /></g></g></g></g><g
       id="g58"><g
         clip-path="url(#clipPath62)"
         id="g60"><g
           transform="translate(497.5416,17.6508)"
           id="g66"><path
             id="path68"
             style="fill:#231f20;fill-opacity:1;fill-rule:nonzero;stroke:none"
             d="m 0,0 c -5.55,-4.73 -12.24,-6.96 -19.08,-8.82 -10.42,-2.83 -21.09,-4.1 -31.86,-4.14 -56.83,-0.22 -113.66,-0.33 -170.5,-0.47 -43.42,-0.11 -86.85,-0.32 -130.27,-0.27 -26.61,0.03 -53.22,0.29 -79.83,0.81 -13.02,0.24 -25.91,2.11 -38.08,7.02 -4.02,1.63 -7.83,4.15 -11.19,6.91 -2.26,1.85 -3.41,4.04 -3.51,6.29 -0.11,2.44 1.02,4.95 3.31,7.18 4.78,4.63 10.81,6.99 17.03,8.82 8.85,2.6 17.95,4 27.13,4.21 17.01,0.38 34.03,0.23 51.03,0.58 18.71,0.39 37.36,1.59 55.66,5.97 7.75,1.86 15.28,4.33 22.56,7.56 0.16,0.07 0.34,0.11 0.4,0.12 3.95,-2.41 7.54,-4.87 11.37,-6.88 6.64,-3.48 13.98,-4.76 21.27,-6.07 12.8,-2.29 25.72,-2.11 38.65,-2.13 13.58,-0.03 27.03,0.87 40.28,4.09 8.04,1.96 15.43,5.17 21.76,10.62 0.2,0.17 0.46,0.27 0.51,0.28 6.61,-2.21 12.84,-4.54 19.22,-6.37 10.61,-3.05 21.49,-4.64 32.47,-5.69 C -99,27.44 -76.25,28.2 -53.53,28 -40.99,27.89 -28.54,26.85 -16.4,23.48 -10.41,21.82 -4.65,19.55 0.17,15.45 3.25,12.83 4.67,10.08 4.47,7.33 4.29,4.85 2.79,2.38 0,0 m -285.99,48.97 c 5.3,2.96 11.17,4.16 17.06,5.17 14.96,2.57 30.03,3.01 45.13,1.96 9.96,-0.69 19.89,-1.82 29.37,-5.25 1.84,-0.67 3.65,-1.54 5.26,-2.64 3.59,-2.44 3.68,-5.52 -0.05,-7.7 -2.95,-1.72 -6.22,-3.11 -9.52,-4 -12.96,-3.51 -26.26,-4.18 -36,-4.24 -15.67,0 -27.68,0.7 -39.47,3.39 -3.75,0.86 -7.34,2.39 -10.99,3.62 -0.26,0.09 -0.5,0.22 -0.73,0.37 -1.77,1.14 -3.78,2.18 -3.81,4.65 -0.03,2.49 1.92,3.65 3.75,4.67 M 10.85,18.88 c -6.83,4.99 -14.63,7.77 -22.71,9.77 -15.43,3.81 -31.15,4.68 -46.98,4.55 -15.3,-0.12 -30.61,-0.28 -45.91,-0.03 -13.76,0.22 -27.44,1.65 -40.9,4.53 -11.31,2.41 -22.38,5.6 -32.33,11.92 -14.87,9.44 -31.39,13.76 -48.8,14.93 -11.43,0.77 -22.84,0.63 -34.24,-0.74 -14.08,-1.68 -27.51,-5.53 -39.55,-13.08 -11.95,-7.5 -25.04,-11.43 -38.68,-13.88 -19.21,-3.44 -38.63,-4.3 -58.12,-4.17 -14.63,0.09 -29.26,0.41 -43.87,-0.06 -12.45,-0.41 -24.74,-2.48 -36.54,-6.78 -5.54,-2.01 -10.81,-4.51 -15.31,-8.36 -3.39,-2.92 -4.87,-6.47 -4.35,-10.15 0.25,-1.83 1,-3.7 2.25,-5.53 1.22,-1.77 2.73,-3.41 4.35,-4.82 4.16,-3.64 9.17,-5.87 14.3,-7.67 13.49,-4.75 27.56,-6.23 41.73,-6.55 16.87,-0.38 33.75,-0.37 50.63,-0.39 47.91,-0.04 95.82,-0.01 143.74,-0.01 v 0.02 h 59.21 c 35.79,0.02 71.59,-0.05 107.39,0.12 15.9,0.08 31.84,-0.52 47.68,1.81 9.3,1.37 18.52,2.92 27.12,7 4.82,2.29 9.48,4.8 12.82,9.16 1.58,2.06 2.83,4.27 3.15,6.86 0.04,0.3 0.06,0.61 0.07,0.92 0.18,4.82 -2.54,8 -6.15,10.63"
             inkscape:connector-curvature="0" /></g><g
           transform="translate(280.2916,58.6308)"
           id="g70"><path
             id="path72"
             style="fill:#231f20;fill-opacity:1;fill-rule:nonzero;stroke:none"
             d="M 0,0 C 0.26,0.82 0.79,2.48 0.79,2.48 0.79,2.48 1.624,0.79 1.964,0 1.304,-0.06 0.68,0.06 0,0 M 1.36,9.4 0.46,9.37 C -1.23,4.46 -2.92,-0.44 -4.68,-5.53 h 2.65 c 0.54,1.44 1.05,2.81 1.7,4.55 0.26,-0.82 0.4,-1.27 0.53,-1.69 H 5.51 C 4.08,1.49 2.72,5.44 1.36,9.4 M 8.99,-3.9 C 7.59,0.36 6.15,4.6 4.78,8.87 4.14,10.84 2.89,12.11 0.82,12.08 -1.14,12.04 -2.34,10.81 -2.95,8.9 -4.1,5.28 -5.33,1.68 -6.55,-1.92 -6.7,-2.35 -6.96,-2.75 -7.17,-3.17 c -0.14,0.05 -0.29,0.08 -0.43,0.12 v 8.58 h -6.64 L -14.297,3.589 -9.92,3.57 c 0,0 -0.05,-4.57 -0.05,-6.89 -1.96,0 -3.78,0.02 -5.6,0 -1.8,-0.03 -2.59,0.87 -2.58,2.64 0.03,2.38 -0.01,4.76 0,7.15 0.03,2.32 0.7,2.98 3.07,3.01 2.44,0.02 4.87,0 7.42,0 v 2.24 c -3.05,0 -5.9,0.12 -8.74,-0.04 -2.39,-0.13 -3.95,-1.81 -4,-4.1 -0.08,-3.07 -0.08,-6.13 -0.01,-9.19 0.05,-2.12 1.61,-3.9 3.65,-3.97 3.73,-0.13 7.47,-0.04 11.23,-0.04 0.33,0.9 0.63,1.66 0.89,2.43 1.32,3.85 2.59,7.72 3.98,11.55 0.21,0.6 0.73,1.387 1.42,1.46 C 1.432,9.891 2.04,9.45 2.19,9.05 3.67,5 5.04,0.91 6.59,-3.59 H 0.03 C 0.07,-4.43 0.09,-4.94 0.12,-5.54 H 9.34 C 9.21,-4.91 9.15,-4.39 8.99,-3.9 M -7.65,6.44 v 2.12 c -2.69,0 -5.13,-0.02 -7.57,0 -1.33,0.02 -2.08,-0.69 -2.13,-1.94 -0.09,-2.36 -0.18,-4.75 0.02,-7.1 0.05,-0.71 0.97,-1.78 1.63,-1.91 1.54,-0.28 3.17,-0.09 4.86,-0.09 v 5.15 h -2.54 c 0,-1.11 -0.05,-1.62 -0.05,-2.77 -0.55,0.09 -1,-0.03 -1.52,0.05 v 6.49 z m -21.13,-6.66 c 0,0.24 0.01,0.47 0.02,0.71 h 5.25 c -0.04,0.78 -0.07,1.28 -0.1,1.8 h -7.85 c 0,-1 0.05,-1.828 0.05,-2.6 0,-1.268 0.89,-1.99 1.44,-2.03 2.66,-0.22 5.35,-0.1 8.1,-0.1 v 2.22 z m 6.84,8.76 c -2.66,0 -5.17,0.14 -7.65,-0.09 -0.67,-0.06 -1.8,-0.465 -1.8,-1.91 0,-0.713 -0.06,-1.7 -0.06,-2.85 h 7.92 c -0.04,0.72 -0.07,1.26 -0.11,2.04 h -5.06 c 0,0.21 0,0.42 -0.01,0.62 h 6.77 z m -7.59,-11.82 c -1.86,-0.02 -2.77,0.93 -2.79,2.73 -0.04,2.24 -0.05,4.49 -0.03,6.73 0.02,2.56 0.74,3.28 3.26,3.3 2.36,0.02 4.72,0 7.16,0 v 2.23 c -2.99,0 -5.84,0.13 -8.67,-0.04 -2.24,-0.13 -3.7,-1.53 -3.84,-3.78 -0.21,-3.17 -0.22,-6.38 -0.06,-9.56 0.11,-2.16 1.53,-3.69 3.58,-3.82 2.96,-0.19 5.94,-0.04 9.03,-0.04 v 2.25 c -2.64,0 -5.14,0.01 -7.64,0 M -41.57,5.6 c -0.77,0.09 -1.534,-0.059 -2.294,0.041 0.01,0.2 0.014,0.649 0.034,0.859 h 7.71 c -0.04,0.87 -0.1,2.04 -0.1,2.04 0,0 -5.29,0.18 -7.83,-0.11 -0.83,-0.09 -2.069,-0.602 -2.15,-2.15 -0.086,-1.657 0.273,-2.014 1.023,-2.514 0.366,-0.244 1.077,-0.366 1.467,-0.396 0.61,-0.05 1.22,-0.01 1.84,-0.02 2.09,-0.05 3.46,-1.26 3.52,-3.13 0.07,-1.92 -1.33,-3.43 -3.43,-3.51 -2.49,-0.09 -4.99,-0.02 -7.66,-0.02 0.05,-0.92 0.09,-1.55 0.13,-2.31 2.9,0 5.61,-0.12 8.31,0.03 2.83,0.16 4.94,2.64 4.95,5.5 0.02,3.03 -2.19,5.31 -5.52,5.69 m -4.83,2.25 c -0.522,-0.696 -0.677,-2.231 -0.37,-3.12 0.359,-1.04 1.227,-1.732 2.577,-1.948 0.888,-0.142 1.94,0.008 2.86,-0.172 1.42,-0.28 2.323,-1.15 2.273,-2.61 -0.06,-1.46 -0.94,-2.45 -2.46,-2.49 -2.51,-0.08 -5.02,-0.02 -7.72,-0.02 -0.07,0.68 -0.12,1.23 -0.19,2.07 h 7.8 c 0.03,0.21 0.027,0.684 0.047,0.894 -0.727,0 -1.247,0.006 -1.897,0.036 -3.38,0.14 -5.89,2.43 -5.95,5.46 -0.06,3.13 2.25,5.59 5.64,5.76 2.49,0.13 4.99,0.03 7.6,0.03 V 9.48 c -2.25,0 -4.49,0.18 -6.69,-0.07 -1.24,-0.13 -2.703,-0.472 -3.52,-1.56"
             inkscape:connector-curvature="0" /></g><g
           transform="translate(478.7116,18.9708)"
           id="g74"><path
             id="path76"
             style="fill:#231f20;fill-opacity:1;fill-rule:nonzero;stroke:none"
             d="m 0,0 c -3.35,-0.01 -6.32,2.75 -6.56,6.01 -0.02,0.14 -0.03,0.28 -0.03,0.42 -0.03,3.42 3.04,6.39 6.57,6.38 C 3.54,12.8 6.52,9.83 6.45,6.34 6.45,6.23 6.44,6.12 6.43,6.01 6.2,2.75 3.31,0.02 0,0 m -20.15,-6.04 c -0.62,-0.04 -1.33,-0.13 -2.04,-0.13 -8.57,-0.01 -17.15,-0.03 -25.71,0 -5.11,0.02 -7.4,2.4 -7.38,7.56 0.01,1.54 0.01,3.07 0.01,4.62 -0.01,1.37 -0.01,2.74 -0.01,4.11 0.39,0.09 0.65,0.2 0.9,0.2 2.86,0.02 5.72,0.01 8.86,0.01 0.43,-2.41 2.35,-2.23 4.22,-2.22 5.65,0.01 11.29,0 16.94,-0.01 0.86,0 1.73,-0.09 2.66,-0.14 V 2.99 h -23.35 c -0.44,-2.74 0.25,-3.62 2.66,-3.64 6.46,-0.03 12.93,-0.01 19.39,-0.01 h 2.85 z m -55.04,-0.03 h -12.32 c -2.66,3.98 -5.33,7.97 -8.09,12.08 -0.93,1.38 -1.86,2.78 -2.81,4.19 h 11.19 c 0.89,-1.35 1.81,-2.74 2.76,-4.19 0.99,-1.5 2.02,-3.06 3.11,-4.7 1.07,1.62 2.08,3.17 3.08,4.7 0.93,1.42 1.85,2.82 2.78,4.23 h 11.19 c -0.95,-1.43 -1.89,-2.84 -2.82,-4.23 -2.74,-4.09 -5.4,-8.07 -8.07,-12.08 m -31.95,0.02 h -9.7 V 10.2 h 9.7 z m -14.04,-0.11 c -3.52,0 -7.04,-0.14 -10.55,0.09 -0.94,0.07 -2,1.11 -2.66,1.97 -1.81,2.39 -4.06,3.23 -7.04,2.97 -3.1,-0.25 -6.23,-0.05 -9.55,-0.05 v 6.59 h 10.03 c 1.76,0 3.53,0 5.3,0.01 1.22,0.01 1.91,0.14 2.31,0.59 0.35,0.39 0.46,1.05 0.5,2.12 0.01,0.66 0.07,1.32 0.11,2.09 h 9.73 c 0.28,-1.52 0.32,-2.92 0.03,-4.21 -0.47,-2.17 -1.84,-4.02 -4.48,-5.56 2.45,-2.01 4.68,-3.85 6.91,-5.68 -0.21,-0.31 -0.43,-0.62 -0.64,-0.93 m -32.2,0.15 h -9.85 v 16.24 h 9.85 z m -16.44,6.33 c -0.05,-3.44 -2.24,-6.29 -5.61,-6.37 -8.01,-0.2 -16.03,-0.06 -24.3,-0.06 v 5.31 c 0.89,0.05 1.68,0.13 2.47,0.13 4.9,0.01 9.79,-0.01 14.7,0.01 2.27,0.02 2.78,0.52 2.8,2.75 0.01,1.3 0.02,2.6 0.02,3.92 0,1.36 -0.01,2.74 -0.01,4.17 h 10.01 c 0,-1.36 0.01,-2.75 0,-4.14 V 6.01 c -0.02,-1.89 -0.05,-3.79 -0.08,-5.69 m -31.52,-6.33 h -9.78 v 16.22 h 9.78 z m -33.15,0 h -9.73 c -0.06,1.51 -0.13,2.97 -0.21,4.72 h -17.65 v 6.63 h 17.71 v 4.87 h 9.88 z m -29.68,-0.02 H -274 V 10.2 h 9.83 z m -14.77,6.49 c -0.21,-3.6 -3.13,-6.55 -6.78,-6.6 -5.37,-0.09 -10.74,-0.04 -16.11,-0.04 -4.02,0 -8.03,-0.03 -12.04,0.02 -4.31,0.04 -6.83,2.61 -6.85,6.86 v 9.65 h 9.94 V 2.76 c 0.01,-3.12 0.3,-3.42 3.35,-3.42 h 15.09 c 0.41,0 0.82,-0.01 1.23,0.02 1.16,0.08 2.14,0.65 1.83,1.87 -0.17,0.67 -1.18,1.55 -1.86,1.59 -3.05,0.18 -6.12,0.09 -9.18,0.09 h -2.7 v 4.77 c 0.11,0.09 0.22,0.25 0.31,0.25 6.05,0 12.1,0.18 18.13,-0.09 1.4,-0.06 2.66,-0.77 3.64,-1.83 1.33,-1.44 2.13,-3.53 2,-5.55 m -47.07,-6.51 c -0.71,-0.04 -1.42,-0.12 -2.15,-0.12 -8.51,-0.01 -17.01,-0.02 -25.52,0 -5.15,0.01 -7.48,2.38 -7.46,7.48 0.01,1.56 0,3.12 0,4.7 v 4.18 h 9.78 c 0.51,-1.89 2.03,-2.11 3.79,-2.1 5.71,0.05 11.43,0.02 17.15,0.02 h 2.84 V 2.98 h -23.38 c -0.36,-2.75 0.33,-3.62 2.74,-3.63 6.54,-0.03 13.07,-0.01 19.6,-0.01 h 2.61 z m -40.86,0.03 h -9.93 v 16.2 h 9.93 z m -22.04,-0.04 h -9.64 v 16.24 h 9.64 z m -21.88,0.03 h -9.69 v 16.28 h 9.69 z M -443.12,0 c -3.34,-0.02 -6.32,2.76 -6.55,6.01 -0.03,0.15 -0.03,0.31 -0.03,0.47 0.03,3.39 3,6.31 6.45,6.33 3.6,0.02 6.6,-2.9 6.58,-6.41 0,-0.13 -0.01,-0.26 -0.02,-0.39 -0.23,-3.24 -3.14,-5.99 -6.43,-6.01 m 22.64,17.52 c 0.64,0.06 1.17,0.16 1.69,0.16 15.44,0.01 30.88,0.02 46.32,0 3.56,-0.01 5.71,-2.21 5.55,-5.66 h -53.56 z m 59.4,0.02 h 35.1 v -5.5 h -35.1 z m 45.82,0.13 c 3.95,0.07 7.89,0.02 11.84,0.02 h 24.4 v -5.62 h -41.49 c -0.36,3.21 1.81,5.55 5.25,5.6 m 46.43,-0.02 c 9.78,0.08 19.56,0.08 29.34,0 3.08,-0.02 5.13,-2.45 4.94,-5.59 h -39.34 c 0.06,3.38 1.95,5.57 5.06,5.59 m 57.59,-0.18 c 0.67,0.09 1.12,0.21 1.58,0.21 11.42,0.01 22.85,0.03 34.28,-0.01 3.44,0 5.57,-2.21 5.4,-5.64 h -41.12 c -0.05,0.75 -0.12,1.34 -0.14,1.94 -0.01,1.14 0,2.28 0,3.5 m 52.98,0.17 c 10.13,0.1 20.24,0.1 30.36,0 3.12,-0.03 5.16,-2.54 4.83,-5.63 h -40 c -0.27,3.1 1.75,5.61 4.81,5.63 m 41.44,-0.09 h 9.74 v -5.52 h -9.74 z m 24.43,0.43 c 1.22,-1.83 2.48,-3.72 3.97,-5.93 h -11.23 c -1.16,1.76 -2.45,3.7 -3.92,5.93 z M -70.33,18 h 11.21 c -1.44,-2.18 -2.69,-4.06 -3.95,-5.97 h -11.17 c 1.45,2.21 2.68,4.1 3.91,5.97 m 15.09,-0.42 H -20.1 V 12.05 H -55.24 Z M 9.85,11.03 C 7.36,13.16 4.47,15 1.47,16.27 c -8.22,3.51 -16.96,4.94 -25.82,5.33 -8.49,0.36 -17,0.45 -25.51,0.45 -114.42,0.03 -228.83,0.02 -343.25,0.02 -6.26,0 -12.53,0.14 -18.79,-0.07 -10.34,-0.35 -20.61,-1.32 -30.46,-4.86 -4.08,-1.47 -7.98,-3.19 -10.94,-6.48 -1.42,-1.58 -2.09,-3.11 -1.99,-4.65 0.07,-1.34 0.72,-2.68 1.95,-4.08 2.93,-3.33 6.54,-5.68 10.75,-7.15 7.76,-2.71 15.8,-4.04 23.97,-4.38 8.43,-0.36 16.87,-0.47 25.31,-0.47 57.24,-0.04 114.48,-0.02 171.73,-0.02 h 25.52 c 53.3,0.01 106.59,-0.02 159.89,0.06 10.81,0.01 21.6,0.63 32.11,3.62 5.41,1.54 10.37,3.77 14.19,8.01 1.36,1.5 2.12,2.98 2.23,4.41 0.16,1.75 -0.65,3.43 -2.51,5.02"
             inkscape:connector-curvature="0" /></g></g></g></g></svg>