<?xml version="1.0" encoding="UTF-8" standalone="no"?>
<svg
   xmlns:dc="http://purl.org/dc/elements/1.1/"
   xmlns:cc="http://creativecommons.org/ns#"
   xmlns:rdf="http://www.w3.org/1999/02/22-rdf-syntax-ns#"
   xmlns:svg="http://www.w3.org/2000/svg"
   xmlns="http://www.w3.org/2000/svg"
   xmlns:sodipodi="http://sodipodi.sourceforge.net/DTD/sodipodi-0.dtd"
   xmlns:inkscape="http://www.inkscape.org/namespaces/inkscape"
   viewBox="0 0 742.4588 351.10467"
   height="351.10468"
   width="742.4588"
   xml:space="preserve"
   version="1.1"
   id="svg2"
   sodipodi:docname="pcenginecd.svg"
   inkscape:version="0.92.2 (5c3e80d, 2017-08-06)"><sodipodi:namedview
     pagecolor="#ffffff"
     bordercolor="#666666"
     borderopacity="1"
     objecttolerance="10"
     gridtolerance="10"
     guidetolerance="10"
     inkscape:pageopacity="0"
     inkscape:pageshadow="2"
     inkscape:window-width="1920"
     inkscape:window-height="1017"
     id="namedview24"
     showgrid="false"
     fit-margin-top="0"
     fit-margin-left="0"
     fit-margin-right="0"
     fit-margin-bottom="0"
     inkscape:zoom="0.46992817"
     inkscape:cx="371.33334"
     inkscape:cy="233.47291"
     inkscape:window-x="-8"
     inkscape:window-y="-8"
     inkscape:window-maximized="1"
     inkscape:current-layer="svg2" /><metadata
     id="metadata8"><rdf:RDF><cc:Work
         rdf:about=""><dc:format>image/svg+xml</dc:format><dc:type
           rdf:resource="http://purl.org/dc/dcmitype/StillImage" /><dc:title></dc:title></cc:Work></rdf:RDF></metadata><defs
     id="defs6" /><g
     transform="matrix(1.3333333,0,0,-0.99999997,0,351.99999)"
     id="g10"><g
       transform="scale(0.1)"
       id="g12"><path
         id="path14"
         style="fill:#000000;fill-opacity:1;fill-rule:nonzero;stroke:none"
         d="m 3085.81,1290 c -116.15,-95.48 -267.19,-153.34 -432.48,-153.34 -165.28,0 -316.33,57.86 -432.47,153.34 H 962.848 C 1168.23,551.199 1845.76,8.95312 2650,8.95312 3454.24,8.95312 4131.77,551.199 4337.15,1290 H 3085.81"
         inkscape:connector-curvature="0" /><path
         id="path16"
         style="fill:#000000;fill-opacity:1;fill-rule:nonzero;stroke:none"
         d="m 2203.94,2243.95 c 118.27,104.44 276.39,168.34 450.19,168.34 173.81,0 331.92,-63.9 450.19,-168.34 H 4336.6 C 4129.56,2980.21 3453.23,3520 2650.8,3520 1848.37,3520 1172.04,2980.21 965,2243.95 h 1238.94"
         inkscape:connector-curvature="0" /><path
         id="path18"
         style="fill:#ffffff;fill-opacity:1;fill-rule:nonzero;stroke:none"
         d="M 1528.33,2896.67 C 1562.76,2963.32 2040,3270 2068.75,3210 l 276.4,-669.31 c 12.35,-36.31 4.85,-58.81 0.47,-65.07 -27.5,5 -199.37,-126.24 -213.12,-144.37 -11.25,-11.87 -31.25,-38.75 -72.5,0 l -533.33,505.42 c -14.79,12.71 -9.17,47.08 1.66,60"
         inkscape:connector-curvature="0" /><path
         id="path20"
         style="fill:#ffffff;fill-opacity:1;fill-rule:nonzero;stroke:none"
         d="m 2496.67,3326.67 c -26.3,27.63 -131.32,10.29 -154.17,0.83 -18.12,-7.5 -31.88,-11.88 -30.83,-25.83 l 168.95,-762.29 c 10.63,5 81.88,7.5 92.5,0 0,0 -61.24,742.5 -61.45,743.95 -1.05,16.67 1.45,26.05 -15,43.34"
         inkscape:connector-curvature="0" /><path
         id="path22"
         style="fill:#ffffff;fill-opacity:1;fill-rule:nonzero;stroke:none"
         d="m 1690,1026.25 h -335.62 c -34.38,0 -46.88,-32.5 -46.88,-65.625 0,-29.375 17.5,-66.25 50.62,-66.25 0,0 245,0 265,0 27.5,0 30,-46.25 0,-46.25 -30,0 -287.5,0 -287.5,0 -21.87,0 -21.24,-43.75 0,-43.75 0,0 285.63,0 318.76,0 33.12,0 58.12,35.625 58.12,70 0,34.375 -23.75,70 -61.25,70 0,0 -231.87,0 -252.5,0 -20.63,0 -21.87,39.375 0,39.375 20,0 291.87,0 291.87,0 21.26,0 20.63,42.5 -0.62,42.5"
         inkscape:connector-curvature="0" /><path
         id="path24"
         style="fill:#ffffff;fill-opacity:1;fill-rule:nonzero;stroke:none"
         d="m 1763.33,1001.67 c 0,-42.92 0,-42.713 0,-65.002 0,-22.293 15.84,-42.293 38.75,-42.293 22.92,0 233.34,0 266.25,0 32.92,0 33.55,-43.543 0,-43.543 -28.33,0 -243.75,0 -271.66,0 -27.92,0 -27.09,-43.332 0,-43.332 27.08,0 290.21,0 320.83,0 30.62,0 50.62,25.418 50.62,54.582 0,29.168 0,108.125 0,137.086 0,28.952 -60.62,28.542 -60.62,0 0,-28.543 0,-18.336 0,-18.336 0,-40.832 -10.83,-42.5 -46.67,-42.5 -27.08,0 -171.87,0 -204.16,0 -32.29,0 -33.55,6.668 -33.55,37.5 0,22.918 0,-1.664 0,27.498 0,29.17 -59.79,28.55 -59.79,-1.66"
         inkscape:connector-curvature="0" /><path
         id="path26"
         style="fill:#ffffff;fill-opacity:1;fill-rule:nonzero;stroke:none"
         d="m 2591.25,1027.5 h -335.63 c -34.37,0 -46.87,-32.5 -46.87,-65.625 0,-29.375 17.5,-66.25 50.63,-66.25 0,0 245,0 265,0 27.5,0 30,-46.25 0,-46.25 -30,0 -287.5,0 -287.5,0 -21.88,0 -21.26,-43.75 0,-43.75 0,0 285.62,0 318.74,0 33.13,0 58.13,35.625 58.13,70 0,34.375 -23.75,70 -61.25,70 0,0 -231.88,0 -252.5,0 -20.62,0 -21.88,39.375 0,39.375 20,0 291.88,0 291.88,0 21.24,0 20.62,42.5 -0.63,42.5"
         inkscape:connector-curvature="0" /><path
         id="path28"
         style="fill:#ffffff;fill-opacity:1;fill-rule:nonzero;stroke:none"
         d="m 2679.38,1025.62 c 18.12,0 352.5,0 366.87,0 20,0 21.25,-35.62 0,-35.62 -21.25,0 -60,0 -60,0 0,0 -30,0 -59.37,0 -29.38,0 -34.07,-18.75 -34.07,-36.562 0,-17.813 0,-93.438 0,-130.313 0,-36.875 -59.69,-35.625 -59.69,0 0,35.625 0,110 0,130.625 0,20.625 -14.37,35.625 -37.5,35.625 -23.12,0 -105,0 -116.87,0 -18.13,0 -18.75,36.245 0.63,36.245"
         inkscape:connector-curvature="0" /><path
         id="path30"
         style="fill:#ffffff;fill-opacity:1;fill-rule:nonzero;stroke:none"
         d="m 3493.12,1025.62 c -25,0 -340,0 -360,0 -20,0 -31.56,-16.24 -31.56,-31.558 0,-15.312 0,-95.937 0,-127.187 0,-31.25 22.5,-54.531 54.53,-54.531 32.03,0 310.79,0 329.53,0 26.26,0 23.13,45.156 0,45.156 -23.12,0 -268.12,0 -290.62,0 -22.5,0 -21.88,38.75 0,38.75 21.88,0 220.62,0 251.88,0 31.24,0 30,45.625 0,45.625 -30,0 -230,0 -251.88,0 -23.75,0 -25,42.5 0,42.5 21.88,0 270,0 296.88,0 26.87,0 26.24,41.245 1.24,41.245"
         inkscape:connector-curvature="0" /><path
         id="path32"
         style="fill:#ffffff;fill-opacity:1;fill-rule:nonzero;stroke:none"
         d="m 3617.5,1030.83 c -45,0 -62.5,-28.95 -62.5,-62.392 0,-33.438 0,-81.563 0,-122.188 0,-40.625 61.88,-40 61.88,0 0,40 0,51.875 0,103.125 0,44.375 118.74,43.125 118.74,0 0,-46.25 0,-62.5 0,-105.625 0,-33.125 60,-34.375 60,0 0,43.125 0,65.625 0,108.75 0,40.625 106.26,37.5 106.26,0 0,-37.5 0,-75.625 0,-111.25 0,-40 59.37,-38.125 59.37,0 0,35 0,101.25 0,134.375 0,33.125 -20,55.205 -50.63,55.205 -30.62,0 -248.12,0 -293.12,0"
         inkscape:connector-curvature="0" /><path
         id="path34"
         style="fill:#000000;fill-opacity:1;fill-rule:nonzero;stroke:none"
         d="m 850,2053.33 c -48.332,0 -491.668,0 -628.332,0 C 155,2053.33 0,1951.67 0,1756.67 c 0,-175 165,-305 223.332,-305 106.668,0 585,0 630,0 45,0 40,148.33 0,148.33 -40,0 -500,0 -550,0 -50,0 -138.332,71.67 -138.332,156.67 0,90 70,151.66 118.332,151.66 48.336,0 520,0 568.336,0 48.332,0 46.664,145 -1.668,145"
         inkscape:connector-curvature="0" /><path
         id="path36"
         style="fill:#000000;fill-opacity:1;fill-rule:nonzero;stroke:none"
         d="m 1588.33,2060 c -78.33,0 -506.66,0 -546.66,0 -40,0 -55.838,-20 -55.838,-55.83 0,-35.84 0,-452.5 0,-494.17 0,-41.67 10,-51.25 51.248,-51.25 41.25,0 499.59,0 564.59,0 73.33,0 256.66,49.58 256.66,301.25 0,251.67 -191.66,300 -270,300 z m -11.66,-450.83 c -48.33,0 -325.84,0 -365.84,0 -40,0 -55.83,7.5 -55.83,42.5 0,35 0,163.33 0,195.83 0,32.5 16.67,57.5 57.5,57.5 40.83,0 291.67,0 351.67,0 60,0 123.33,-48.33 123.33,-136.67 0,-88.33 -62.5,-159.16 -110.83,-159.16"
         inkscape:connector-curvature="0" /><path
         id="path38"
         style="fill:#000000;fill-opacity:1;fill-rule:nonzero;stroke:none"
         d="m 2031.88,1678.12 c 50.05,0 90.62,34.99 90.62,78.13 0,43.14 -40.57,78.13 -90.62,78.13 -50.06,0 -90.63,-34.99 -90.63,-78.13 0,-43.14 40.57,-78.13 90.63,-78.13"
         inkscape:connector-curvature="0" /><path
         id="path40"
         style="fill:#000000;fill-opacity:1;fill-rule:nonzero;stroke:none"
         d="m 3093.33,1903.75 c 0,85.83 -127.08,167.92 -200,167.92 -99.58,0 -633.12,0 -656.66,0 -23.55,0 -35.84,-11.88 -35.84,-35.84 0,-23.95 0,-490.83 0,-550.83 0,-60 179.17,-56.25 179.17,0 0,56.25 0,101.67 0,133.33 0,31.67 17.09,49.17 49.17,49.17 32.08,0 381.25,0 424.16,0 42.92,0 61.67,-43.33 61.67,-74.17 0,-30.83 0,-44.99 0,-106.66 0,-61.67 178.33,-57.08 178.33,0 0,57.08 0,83.33 0,133.33 0,50 -41.66,108.33 -41.66,108.33 0,0 41.66,57.29 41.66,104.17 0,37.08 0,0.42 0,71.25 z m -219.16,-81.25 c -32.5,0 -435,0 -468.33,0 -33.34,0 -34.17,85.83 0,85.83 29.16,0 437.5,0 468.33,0 30.83,0 32.5,-85.83 0,-85.83"
         inkscape:connector-curvature="0" /><path
         id="path42"
         style="fill:#000000;fill-opacity:1;fill-rule:nonzero;stroke:none"
         d="m 3893.33,2060 c -123.33,0 -318.33,0 -466.66,0 C 3320,2060 3155,1973.33 3155,1766.67 c 0,-256.67 205,-310 266.67,-310 101.67,0 361.66,0 486.66,0 65,0 251.67,76.66 251.67,310 C 4160,1965 3986.67,2060 3893.33,2060 Z m -23.83,-445 c -79.18,0 -342.01,0 -406.42,0 -39.33,0 -125.18,51.25 -125.18,152.66 0,94.84 89.6,135.67 128.35,135.67 93.97,0 315.62,0 393.75,0 38.75,0 114.57,-52.08 114.57,-135.67 0,-120.16 -70.82,-152.66 -105.07,-152.66"
         inkscape:connector-curvature="0" /><path
         id="path44"
         style="fill:#000000;fill-opacity:1;fill-rule:nonzero;stroke:none"
         d="m 4411.67,2063.33 c -121.05,0 -174.17,-104.37 -174.17,-174.16 0,-69.79 0,-344.17 0,-407.5 0,-63.34 170.83,-58.34 170.83,0 0,58.33 0,321.25 0,359.58 0,43.75 24.17,63.75 56.67,63.75 51.67,0 86.67,0 110,0 23.33,0 40,-11.67 40,-51.67 0,-40 0,-313.33 0,-368.33 0,-60 171.67,-63.33 171.67,0 0,53.33 0,330 0,353.33 0,23.34 5,66.67 58.33,66.67 53.33,0 58.33,0 96.67,0 38.33,0 57.5,-28.33 57.5,-57.5 0,-29.17 0,-272.5 0,-359.17 0,-68.33 167.5,-68.33 167.5,0 0,83.34 0,368.34 0,435 0,53.34 -66.25,140.42 -202.92,140.42 -136.67,0 -446.67,-0.42 -552.08,-0.42"
         inkscape:connector-curvature="0" /><path
         id="path46"
         style="fill:#000000;fill-opacity:1;fill-rule:nonzero;stroke:none"
         d="m 5278.33,2236.67 c -27.71,0 -24.58,-70.84 0,-70.84 20.84,0 120.84,0 166.67,0 45.83,0 46.67,-89.16 0,-89.16 -46.67,0 -123.33,-5.84 -148.33,-5.84 -25,0 -54.17,-35.83 -54.17,-57.5 0,-21.66 0,-77.08 0,-89.58 0,-16.25 15.83,-23.75 25.62,-23.75 14.17,0 274.38,0 289.38,0 15,0 14.17,55 0,55 -14.17,0 -192.54,0 -210.83,0 -23.34,0 -25.84,47.5 3.33,47.5 10.83,0 81.67,0 81.67,0 82.5,0 134.16,67.5 134.16,114.17 0,82.5 -73.33,120.83 -125,120.83 -51.66,0 -140.83,-0.83 -162.5,-0.83"
         inkscape:connector-curvature="0" /></g></g></svg>