<?xml version="1.0" encoding="UTF-8" standalone="no"?>
<!-- Generator: Adobe Illustrator 19.0.0, SVG Export Plug-In . SVG Version: 6.00 Build 0)  -->

<svg
   xmlns:dc="http://purl.org/dc/elements/1.1/"
   xmlns:cc="http://creativecommons.org/ns#"
   xmlns:rdf="http://www.w3.org/1999/02/22-rdf-syntax-ns#"
   xmlns:svg="http://www.w3.org/2000/svg"
   xmlns="http://www.w3.org/2000/svg"
   xmlns:sodipodi="http://sodipodi.sourceforge.net/DTD/sodipodi-0.dtd"
   xmlns:inkscape="http://www.inkscape.org/namespaces/inkscape"
   version="1.1"
   id="Layer_1"
   x="0px"
   y="0px"
   viewBox="-261 285 183.36001 69.760001"
   xml:space="preserve"
   sodipodi:docname="controller.svg"
   width="183.36"
   height="69.760002"
   inkscape:version="0.92.2 (5c3e80d, 2017-08-06)"><metadata
     id="metadata20"><rdf:RDF><cc:Work
         rdf:about=""><dc:format>image/svg+xml</dc:format><dc:type
           rdf:resource="http://purl.org/dc/dcmitype/StillImage" /><dc:title></dc:title></cc:Work></rdf:RDF></metadata><defs
     id="defs18" /><sodipodi:namedview
     pagecolor="#ffffff"
     bordercolor="#666666"
     borderopacity="1"
     objecttolerance="10"
     gridtolerance="10"
     guidetolerance="10"
     inkscape:pageopacity="0"
     inkscape:pageshadow="2"
     inkscape:window-width="1920"
     inkscape:window-height="1017"
     id="namedview16"
     showgrid="false"
     fit-margin-top="0"
     fit-margin-left="0"
     fit-margin-right="0"
     fit-margin-bottom="0"
     inkscape:zoom="3.0204018"
     inkscape:cx="89.88236"
     inkscape:cy="33.032213"
     inkscape:window-x="-8"
     inkscape:window-y="-8"
     inkscape:window-maximized="1"
     inkscape:current-layer="Layer_1" /><g
     id="XMLID_2_"
     transform="matrix(0,-0.8,0.96,0,-563.4,145.96)"><g
       id="XMLID_698_"><path
         d="m -214.2,367.6 h -6 v -20 c 0,-18.4 -9.3,-26.6 -30.2,-26.6 v -6 c 24,0 36.2,11 36.2,32.6 z"
         id="path2"
         inkscape:connector-curvature="0"
         style="fill:#60605d"
         sodipodi:nodetypes="ccsccsc" /></g><polygon
       id="XMLID_697_"
       points="-216.2,352.8 -211.3,352.8 -212.2,350.4 -222.2,350.4 -223.1,352.8 -217.8,352.8 -217.8,354.4 -223.7,354.4 -224.6,356.8 -217.8,356.8 -217.8,358.4 -225.1,358.4 -225.9,360.4 -217.8,360.4 -217.8,362 -226.5,362 -227.8,365.6 -206.2,365.6 -207.6,362 -216.2,362 -216.2,360.4 -208.3,360.4 -209,358.4 -216.2,358.4 -216.2,356.8 -209.7,356.8 -210.6,354.4 -216.2,354.4 "
       style="fill:#868580" /><path
       id="XMLID_695_"
       d="m -253.8,364.4 h 72.8 c 4,0 7.2,3.2 7.2,7.2 v 127.2 c 0,4 -3.2,7.2 -7.2,7.2 h -72.8 c -4,0 -7.2,-3.2 -7.2,-7.2 V 371.6 c 0,-4 3.2,-7.2 7.2,-7.2 z"
       inkscape:connector-curvature="0"
       style="fill:#c9c9c9" /><path
       id="XMLID_693_"
       d="m -242.2,390.4 h 50.4 c 1.3,0 2.4,1.1 2.4,2.4 v 70.4 c 0,1.3 -1.1,2.4 -2.4,2.4 h -50.4 c -1.3,0 -2.4,-1.1 -2.4,-2.4 v -70.4 c 0,-1.4 1.1,-2.4 2.4,-2.4 z"
       inkscape:connector-curvature="0"
       style="fill:#dcdbdb" /><g
       id="XMLID_688_"><path
         id="XMLID_691_"
         d="m -242.2,376.5 h 16 c 1.3,0 2.4,1.1 2.4,2.4 v 32 c 0,1.3 -1.1,2.4 -2.4,2.4 h -16 c -1.3,0 -2.4,-1.1 -2.4,-2.4 v -32 c 0,-1.3 1.1,-2.4 2.4,-2.4 z"
         inkscape:connector-curvature="0"
         style="fill:#60605d" /><path
         id="XMLID_689_"
         d="m -242.2,374.4 h 16 c 1.3,0 2.4,1.1 2.4,2.4 v 32 c 0,1.3 -1.1,2.4 -2.4,2.4 h -16 c -1.3,0 -2.4,-1.1 -2.4,-2.4 v -32 c 0,-1.4 1.1,-2.4 2.4,-2.4 z"
         inkscape:connector-curvature="0"
         style="fill:#868580" /></g><g
       id="XMLID_683_"><path
         id="XMLID_686_"
         d="m -207.8,376.5 h 16 c 1.3,0 2.4,1.1 2.4,2.4 v 32 c 0,1.3 -1.1,2.4 -2.4,2.4 h -16 c -1.3,0 -2.4,-1.1 -2.4,-2.4 v -32 c 0,-1.3 1.1,-2.4 2.4,-2.4 z"
         inkscape:connector-curvature="0"
         style="fill:#60605d" /><path
         id="XMLID_684_"
         d="m -207.8,374.4 h 16 c 1.3,0 2.4,1.1 2.4,2.4 v 32 c 0,1.3 -1.1,2.4 -2.4,2.4 h -16 c -1.3,0 -2.4,-1.1 -2.4,-2.4 v -32 c 0,-1.4 1.1,-2.4 2.4,-2.4 z"
         inkscape:connector-curvature="0"
         style="fill:#868580" /></g></g></svg>