<?xml version="1.0" encoding="UTF-8" standalone="no"?>
<!-- Generator: Adobe Illustrator 19.0.0, SVG Export Plug-In . SVG Version: 6.00 Build 0)  -->

<svg
   xmlns:dc="http://purl.org/dc/elements/1.1/"
   xmlns:cc="http://creativecommons.org/ns#"
   xmlns:rdf="http://www.w3.org/1999/02/22-rdf-syntax-ns#"
   xmlns:svg="http://www.w3.org/2000/svg"
   xmlns="http://www.w3.org/2000/svg"
   xmlns:sodipodi="http://sodipodi.sourceforge.net/DTD/sodipodi-0.dtd"
   xmlns:inkscape="http://www.inkscape.org/namespaces/inkscape"
   version="1.1"
   id="Layer_1"
   x="0px"
   y="0px"
   viewBox="0 0 145.90097 109.5"
   xml:space="preserve"
   sodipodi:docname="controller.svg"
   width="145.90097"
   height="109.5"
   inkscape:version="0.92.2 (5c3e80d, 2017-08-06)"><metadata
     id="metadata43"><rdf:RDF><cc:Work
         rdf:about=""><dc:format>image/svg+xml</dc:format><dc:type
           rdf:resource="http://purl.org/dc/dcmitype/StillImage" /><dc:title></dc:title></cc:Work></rdf:RDF></metadata><defs
     id="defs41" /><sodipodi:namedview
     pagecolor="#ffffff"
     bordercolor="#666666"
     borderopacity="1"
     objecttolerance="10"
     gridtolerance="10"
     guidetolerance="10"
     inkscape:pageopacity="0"
     inkscape:pageshadow="2"
     inkscape:window-width="1920"
     inkscape:window-height="1017"
     id="namedview39"
     showgrid="false"
     fit-margin-top="0"
     fit-margin-left="0"
     fit-margin-right="0"
     fit-margin-bottom="0"
     inkscape:zoom="1.6164384"
     inkscape:cx="73"
     inkscape:cy="73"
     inkscape:window-x="-8"
     inkscape:window-y="-8"
     inkscape:window-maximized="1"
     inkscape:current-layer="Layer_1" /><g
     id="g36"
     transform="scale(1,0.75)"><path
       d="M 129.2,146 H 16.8 C 7.6,146 0,138.4 0,129.2 V 16.8 C 0,7.6 7.6,0 16.8,0 h 112.3 c 9.3,0 16.8,7.6 16.8,16.8 v 112.3 c 0.1,9.3 -7.5,16.9 -16.7,16.9 z"
       id="path2"
       inkscape:connector-curvature="0"
       style="fill:#b7b6a8" /><path
       d="M 108.8,23.3 H 35.3 c -6.6,0 -12,5.4 -12,12 v 73.3 c 0,6.6 5.4,12 12,12 h 73.5 c 6.6,0 12,-5.4 12,-12 V 35.3 c 0,-6.7 -5.4,-12 -12,-12 z"
       id="path4"
       inkscape:connector-curvature="0"
       style="fill:#a4adb7" /><g
       id="g18"><g
         id="g14"><g
           id="g8"><circle
             cx="28.9"
             cy="27.299999"
             r="14.5"
             id="circle6"
             style="fill:#960e0c" /></g><g
           id="g12"><path
             d="m 28.9,42.3 c -8.3,0 -15,-6.7 -15,-15 0,-8.3 6.7,-15 15,-15 8.3,0 15,6.7 15,15 0,8.3 -6.7,15 -15,15 z m 0,-29 c -7.7,0 -14,6.3 -14,14 0,7.7 6.3,14 14,14 7.7,0 14,-6.3 14,-14 0,-7.7 -6.3,-14 -14,-14 z"
             id="path10"
             inkscape:connector-curvature="0"
             style="fill:#421a1a" /></g></g><path
         d="m 45.4,27.3 c 0,9.1 -7.4,16.5 -16.5,16.5 -9.1,0 -16.5,-7.4 -16.5,-16.5 0,-9.1 7.4,-16.5 16.5,-16.5 9.1,0 16.5,7.4 16.5,16.5 z M 28.9,12.8 c -8,0 -14.5,6.5 -14.5,14.5 0,8 6.5,14.5 14.5,14.5 8,0 14.5,-6.5 14.5,-14.5 0,-8 -6.5,-14.5 -14.5,-14.5 z"
         id="path16"
         inkscape:connector-curvature="0"
         style="fill:#b7b6a8" /></g><g
       id="g32"><g
         id="g28"><g
           id="g22"><circle
             cx="115.3"
             cy="27.299999"
             r="14.5"
             id="circle20"
             style="fill:#960e0c" /></g><g
           id="g26"><path
             d="m 115.3,42.3 c -8.3,0 -15,-6.7 -15,-15 0,-8.3 6.7,-15 15,-15 8.3,0 15,6.7 15,15 0,8.3 -6.8,15 -15,15 z m 0,-29 c -7.7,0 -14,6.3 -14,14 0,7.7 6.3,14 14,14 7.7,0 14,-6.3 14,-14 0,-7.7 -6.3,-14 -14,-14 z"
             id="path24"
             inkscape:connector-curvature="0"
             style="fill:#421a1a" /></g></g><path
         d="m 131.8,27.3 c 0,9.1 -7.4,16.5 -16.5,16.5 -9.1,0 -16.5,-7.4 -16.5,-16.5 0,-9.1 7.4,-16.5 16.5,-16.5 9.1,0 16.5,7.4 16.5,16.5 z M 115.3,12.8 c -8,0 -14.5,6.5 -14.5,14.5 0,8 6.5,14.5 14.5,14.5 8,0 14.5,-6.5 14.5,-14.5 0,-8 -6.5,-14.5 -14.5,-14.5 z"
         id="path30"
         inkscape:connector-curvature="0"
         style="fill:#b7b6a8" /></g><circle
       cx="72.099998"
       cy="71.900002"
       r="42.5"
       id="circle34"
       style="fill:#231f20" /></g></svg>