<?xml version="1.0" encoding="UTF-8" standalone="no"?>
<!-- Generator: Adobe Illustrator 13.0.0, SVG Export Plug-In . SVG Version: 6.00 Build 14948)  -->

<svg
   xmlns:dc="http://purl.org/dc/elements/1.1/"
   xmlns:cc="http://creativecommons.org/ns#"
   xmlns:rdf="http://www.w3.org/1999/02/22-rdf-syntax-ns#"
   xmlns:svg="http://www.w3.org/2000/svg"
   xmlns="http://www.w3.org/2000/svg"
   xmlns:sodipodi="http://sodipodi.sourceforge.net/DTD/sodipodi-0.dtd"
   xmlns:inkscape="http://www.inkscape.org/namespaces/inkscape"
   version="1.2"
   id="Ebene_1"
   x="0px"
   y="0px"
   width="566.92902"
   height="65.973747"
   viewBox="0 0 566.929 65.97375"
   xml:space="preserve"
   sodipodi:docname="logo.svg"
   inkscape:version="0.92.2 (5c3e80d, 2017-08-06)"><metadata
     id="metadata55"><rdf:RDF><cc:Work
         rdf:about=""><dc:format>image/svg+xml</dc:format><dc:type
           rdf:resource="http://purl.org/dc/dcmitype/StillImage" /><dc:title></dc:title></cc:Work></rdf:RDF></metadata><defs
     id="defs53" /><sodipodi:namedview
     pagecolor="#ffffff"
     bordercolor="#666666"
     borderopacity="1"
     objecttolerance="10"
     gridtolerance="10"
     guidetolerance="10"
     inkscape:pageopacity="0"
     inkscape:pageshadow="2"
     inkscape:window-width="1920"
     inkscape:window-height="1017"
     id="namedview51"
     showgrid="false"
     fit-margin-top="0"
     fit-margin-left="0"
     fit-margin-right="0"
     fit-margin-bottom="0"
     inkscape:zoom="0.61559735"
     inkscape:cx="283.46451"
     inkscape:cy="43.983002"
     inkscape:window-x="-8"
     inkscape:window-y="-8"
     inkscape:window-maximized="1"
     inkscape:current-layer="Ebene_1" /><path
     d="M 0.566,39.25725 V 33.456 H 61.131 V 26.83575 H 0.566 L 0.185,8.97075 h 68.81 v 5.7855 H 8.429 l 0.381,6.2955 h 60.564 v 18.207 H 0.566 Z"
     id="path2"
     inkscape:connector-curvature="0"
     style="fill:#4c4c4c;stroke-width:0.86602539" /><path
     d="M 74.357,39.25725 V 9.08475 h 8.244 v 30.1725 z"
     id="path4"
     inkscape:connector-curvature="0"
     style="fill:#4c4c4c;stroke-width:0.86602539" /><path
     d="M 87.026,39.25725 V 9.08475 h 68.81 v 30.1725 h -8.244 V 14.8695 H 95.269 v 24.39 l -8.243,-0.0022 v 0 z"
     id="path6"
     inkscape:connector-curvature="0"
     style="fill:#4c4c4c;stroke-width:0.86602539" /><path
     d="M 160.237,39.25725 V 9.08475 h 68.86 v 5.7855 h -60.564 v 18.5865 h 60.564 V 39.261 h -68.86 v -0.0037 z"
     id="path8"
     inkscape:connector-curvature="0"
     style="fill:#4c4c4c;stroke-width:0.86602539" /><path
     d="M 234.583,39.25725 V 0 h 8.246 v 39.25875 h -8.246 z"
     id="path10"
     inkscape:connector-curvature="0"
     style="fill:#4c4c4c;stroke-width:0.86602539" /><path
     d="M 320.994,39.25725 V 9.08475 h 8.295 v 30.1725 z"
     id="path12"
     inkscape:connector-curvature="0"
     style="fill:#4c4c4c;stroke-width:0.86602539" /><path
     d="M 334.271,39.25725 V 9.08475 h 68.807 v 5.7855 H 342.515 V 39.261 h -8.244 v -0.0037 z"
     id="path14"
     inkscape:connector-curvature="0"
     style="fill:#4c4c4c;stroke-width:0.86602539" /><path
     d="m 247.228,9.08475 v 5.7855 h 60.564 v 6.618 h -60.564 v 17.7705 h 68.861 v -30.174 z m 60.564,24.372 H 255.521 V 26.8365 h 52.271 z"
     id="path16"
     inkscape:connector-curvature="0"
     style="fill:#4c4c4c;stroke-width:0.86602539" /><path
     d="M 74.357,5.80425 V 0 h 8.244 v 5.80425 z"
     id="path18"
     inkscape:connector-curvature="0"
     style="fill:#4c4c4c;stroke-width:0.86602539" /><path
     d="M 320.994,5.80425 V 0 h 8.295 v 5.80425 z"
     id="path20"
     inkscape:connector-curvature="0"
     style="fill:#4c4c4c;stroke-width:0.86602539" /><path
     d="M 0,60.165 9.688,51.4755 H 0.76 v -2.502 h 14.215 v 2.352 L 5.287,60.015 h 9.941 v 2.5035 H 0 Z"
     id="path22"
     inkscape:connector-curvature="0"
     style="fill:#4c4c4c;stroke-width:0.86602539" /><path
     d="M 21.985,55.42275 16.166,48.972 h 4.604 l 3.542,4.326 3.668,-4.326 h 4.351 l -5.792,6.46875 6.298,7.077 h -4.73 L 24.16,57.8325 20.138,62.51775 h -4.479 z"
     id="path24"
     inkscape:connector-curvature="0"
     style="fill:#4c4c4c;stroke-width:0.86602539" /><path
     d="m 44.172,58.02375 c 0,1.8015 1.871,2.5035 3.996,2.5035 1.393,0 3.519,-0.303 3.519,-1.689 0,-1.46025 -2.707,-1.70625 -5.363,-2.238 -2.681,-0.53175 -5.388,-1.308 -5.388,-3.85275 0,-2.769 3.491,-4.09725 6.754,-4.09725 3.769,0 7.235,1.23225 7.235,4.3635 H 51.08 c -0.126,-1.632 -1.67,-2.0475 -3.566,-2.0475 -1.266,0 -2.732,0.39825 -2.732,1.53675 0,1.0455 0.861,1.17525 5.389,2.04825 1.315,0.24675 5.362,0.87225 5.362,3.94575 0,2.48475 -2.605,4.34475 -7.513,4.34475 -3.997,0 -7.741,-1.4805 -7.69,-4.818 z"
     id="path26"
     inkscape:connector-curvature="0"
     style="fill:#4c4c4c;stroke-width:0.86602539" /><path
     d="m 57.503,52.71075 h 3.416 v 1.2525 h 0.052 C 61.829,52.92 63.246,52.446 64.866,52.446 c 4.099,0 5.944,2.4855 5.944,5.27325 0,2.619 -1.922,5.0655 -5.742,5.0655 -1.569,0 -3.061,-0.513 -3.921,-1.47975 h -0.051 v 4.66875 h -3.593 z m 9.715,4.932 c 0,-1.5555 -0.835,-3.16875 -3.138,-3.16875 -2.353,0 -3.11,1.57575 -3.11,3.16875 0,1.59375 0.809,3.111 3.137,3.111 2.351,0 3.111,-1.5165 3.111,-3.111 z"
     id="path28"
     inkscape:connector-curvature="0"
     style="fill:#4c4c4c;stroke-width:0.86602539" /><path
     d="m 75.922,58.26825 c 0.101,1.70775 1.214,2.4855 3.212,2.4855 1.441,0 2.605,-0.66375 2.833,-1.2705 h 3.161 c -1.012,2.31375 -3.161,3.29925 -6.121,3.29925 -4.124,0 -6.678,-2.124 -6.678,-5.16075 0,-2.9415 2.708,-5.1795 6.678,-5.1795 4.451,0 6.603,2.8095 6.35,5.82525 z M 81.764,56.562 c -0.328,-1.3665 -1.113,-2.08575 -2.858,-2.08575 -2.277,0 -2.935,1.3275 -2.985,2.08575 z"
     id="path30"
     inkscape:connector-curvature="0"
     style="fill:#4c4c4c;stroke-width:0.86602539" /><path
     d="m 96.387,56.163 c -0.229,-1.10025 -1.164,-1.6875 -2.657,-1.6875 -2.302,0 -3.062,1.7445 -3.062,3.186 0,1.40475 0.733,3.09225 2.985,3.09225 1.669,0 2.63,-0.79725 2.858,-1.98975 h 3.464 c -0.455,2.598 -2.858,4.02 -6.298,4.02 -3.946,0 -6.604,-2.08575 -6.604,-5.02725 0,-3.054 2.428,-5.313 6.678,-5.313 3.088,0 5.92,1.21425 6.147,3.72075 z"
     id="path32"
     inkscape:connector-curvature="0"
     style="fill:#4c4c4c;stroke-width:0.86602539" /><path
     d="m 106.558,52.71075 h 2.63 V 54.513 h -2.63 v 4.857 c 0,0.91125 0.303,1.14075 1.517,1.14075 0.38,0 0.734,-0.01875 1.113,-0.078 V 62.538 c -0.606,0.078 -1.391,0.0975 -2.099,0.0975 -2.201,0 -4.123,-0.38175 -4.123,-2.334 V 54.516 h -2.177 v -1.80225 h 2.177 V 49.77 h 3.592 z"
     id="path34"
     inkscape:connector-curvature="0"
     style="fill:#4c4c4c;stroke-width:0.86602539" /><path
     d="m 110.909,52.71075 h 3.415 v 1.8225 h 0.051 c 0.657,-1.2345 2.429,-2.0865 4.175,-2.0865 0.253,0 0.556,0.0375 0.784,0.09675 v 2.50275 c -0.33,-0.05625 -0.859,-0.0945 -1.29,-0.0945 -2.63,0 -3.542,1.422 -3.542,3.147 v 4.422 h -3.592 z"
     id="path36"
     inkscape:connector-curvature="0"
     style="fill:#4c4c4c;stroke-width:0.86602539" /><path
     d="m 133.018,62.5185 h -3.416 v -1.36575 h -0.076 c -0.911,1.10025 -2.479,1.632 -3.997,1.632 -3.82,0 -4.782,-1.61025 -4.782,-4.04025 v -6.03375 h 3.594 V 58.251 c 0,1.61175 0.632,2.40975 2.301,2.40975 1.949,0 2.783,-0.816 2.783,-2.80725 V 52.713 h 3.592 z"
     id="path38"
     inkscape:connector-curvature="0"
     style="fill:#4c4c4c;stroke-width:0.86602539" /><path
     d="m 135.852,52.71075 h 3.391 V 54.039 h 0.05 c 0.937,-1.008 2.302,-1.59525 3.997,-1.59525 1.645,0 3.111,0.45525 3.82,1.6335 0.759,-0.85575 2.125,-1.6335 3.946,-1.6335 2.783,0 4.782,0.96675 4.782,3.51075 v 6.564 h -3.593 v -5.559 c 0,-1.30725 -0.15,-2.39025 -2.2,-2.39025 -2.024,0 -2.404,1.2525 -2.404,2.48475 v 5.4645 h -3.592 v -5.50125 c 0,-1.14 0.101,-2.448 -2.177,-2.448 -0.708,0 -2.428,0.34125 -2.428,2.25825 v 5.691 h -3.592 z"
     id="path40"
     inkscape:connector-curvature="0"
     style="fill:#4c4c4c;stroke-width:0.86602539" /><polygon
     points="464.167,2.173 429.958,2.173 369.855,62.285 404.062,62.285 "
     id="polygon42"
     transform="scale(1,0.75)"
     style="fill:#ca2825" /><polygon
     points="498.451,2.173 464.244,2.173 404.138,62.285 438.347,62.285 "
     id="polygon44"
     transform="scale(1,0.75)"
     style="fill:#fdc601" /><polygon
     points="532.71,2.173 498.501,2.173 438.398,62.285 472.605,62.285 "
     id="polygon46"
     transform="scale(1,0.75)"
     style="fill:#009c37" /><polygon
     points="566.929,2.173 532.722,2.173 472.617,62.285 506.826,62.285 "
     id="polygon48"
     transform="scale(1,0.75)"
     style="fill:#02559c" /></svg>