<?xml version="1.0" encoding="UTF-8" standalone="no"?>
<svg
   xmlns:dc="http://purl.org/dc/elements/1.1/"
   xmlns:cc="http://creativecommons.org/ns#"
   xmlns:rdf="http://www.w3.org/1999/02/22-rdf-syntax-ns#"
   xmlns:svg="http://www.w3.org/2000/svg"
   xmlns="http://www.w3.org/2000/svg"
   xmlns:sodipodi="http://sodipodi.sourceforge.net/DTD/sodipodi-0.dtd"
   xmlns:inkscape="http://www.inkscape.org/namespaces/inkscape"
   viewBox="0 0 400.95362 155.08781"
   height="155.08781"
   width="400.95361"
   xml:space="preserve"
   version="1.1"
   id="svg2"
   sodipodi:docname="controller.svg"
   inkscape:version="0.92.2 (5c3e80d, 2017-08-06)"><sodipodi:namedview
     pagecolor="#ffffff"
     bordercolor="#666666"
     borderopacity="1"
     objecttolerance="10"
     gridtolerance="10"
     guidetolerance="10"
     inkscape:pageopacity="0"
     inkscape:pageshadow="2"
     inkscape:window-width="1920"
     inkscape:window-height="1017"
     id="namedview50"
     showgrid="false"
     fit-margin-top="0"
     fit-margin-left="0"
     fit-margin-right="0"
     fit-margin-bottom="0"
     inkscape:zoom="0.87042461"
     inkscape:cx="200.47674"
     inkscape:cy="103.39187"
     inkscape:window-x="-8"
     inkscape:window-y="-8"
     inkscape:window-maximized="1"
     inkscape:current-layer="svg2" /><metadata
     id="metadata8"><rdf:RDF><cc:Work
         rdf:about=""><dc:format>image/svg+xml</dc:format><dc:type
           rdf:resource="http://purl.org/dc/dcmitype/StillImage" /><dc:title></dc:title></cc:Work></rdf:RDF></metadata><defs
     id="defs6"><clipPath
       id="clipPath16"
       clipPathUnits="userSpaceOnUse"><path
         id="path18"
         d="M 0,165.427 H 320.763 V 0 H 0 Z"
         inkscape:connector-curvature="0" /></clipPath></defs><g
     transform="matrix(1.25,0,0,-0.9375,-1.25e-4,155.08781)"
     id="g10"><g
       id="g12"><g
         clip-path="url(#clipPath16)"
         id="g14"><g
           transform="translate(309.8801)"
           id="g20"><path
             id="path22"
             style="fill:#333333;fill-opacity:1;fill-rule:nonzero;stroke:none"
             d="m 0,0 h -298.997 c -5.986,0 -10.883,4.897 -10.883,10.883 v 143.661 c 0,5.986 4.897,10.883 10.883,10.883 H 0 c 5.985,0 10.883,-4.897 10.883,-10.883 V 10.883 C 10.883,4.897 5.985,0 0,0"
             inkscape:connector-curvature="0" /></g><g
           transform="translate(264.9478,96.9834)"
           id="g24"><path
             id="path26"
             style="fill:#a6a8ab;fill-opacity:1;fill-rule:evenodd;stroke:none"
             d="m 0,0 c -0.638,-0.724 -1.388,-1.304 -2.255,-1.726 -0.872,-0.425 -1.788,-0.71 -2.757,-0.805 -0.431,-0.042 -0.866,-0.083 -1.299,-0.08 -0.856,0.006 -1.7,0.126 -2.532,0.337 -0.854,0.216 -1.676,0.518 -2.464,0.913 -0.693,0.348 -1.368,0.727 -1.971,1.218 -0.515,0.418 -1.037,0.833 -1.516,1.29 -1.987,1.898 -3.959,3.811 -5.937,5.719 -0.06,0.057 -0.12,0.115 -0.188,0.181 0.372,0.386 0.733,0.761 1.117,1.159 0.055,-0.052 0.113,-0.108 0.171,-0.164 1.459,-1.407 2.907,-2.827 4.384,-4.215 0.468,-0.441 1.011,-0.804 1.526,-1.194 0.626,-0.474 1.325,-0.822 2.038,-1.139 1.094,-0.486 2.228,-0.841 3.426,-0.933 0.656,-0.051 1.32,-0.099 1.973,-0.048 1.477,0.115 2.864,0.539 4.085,1.416 0.039,0.028 0.083,0.048 0.125,0.072 C -1.383,1.334 -0.691,0.667 0,0"
             inkscape:connector-curvature="0" /></g><g
           transform="translate(243.4589,103.52)"
           id="g28"><path
             id="path30"
             style="fill:#a6a8ab;fill-opacity:1;fill-rule:evenodd;stroke:none"
             d="m 0,0 c 4.782,-4.612 9.563,-9.225 14.356,-13.848 -0.558,-0.578 -1.108,-1.149 -1.677,-1.738 C 7.894,-10.97 3.108,-6.354 -1.677,-1.739 -1.118,-1.159 -0.559,-0.58 0,0"
             inkscape:connector-curvature="0" /></g><g
           transform="translate(265.311,108.3787)"
           id="g32"><path
             id="path34"
             style="fill:#a6a8ab;fill-opacity:1;fill-rule:evenodd;stroke:none"
             d="M 0,0 C -1.487,2.26 -2.965,4.512 -4.443,6.764 -4.427,6.781 -4.402,6.79 -4.385,6.807 -2.132,5.376 0.122,3.945 2.41,2.498 Z M 11.759,2.532 C 8.704,4.092 5.641,5.659 2.586,7.218 1.075,7.998 -0.419,8.795 -1.946,9.541 -2.854,9.987 -3.77,10.425 -4.733,10.71 -6.305,11.17 -7.8,10.117 -8.254,9.167 -8.772,8.081 -8.577,7.034 -8.038,6.052 -6.628,3.42 -5.185,0.806 -3.751,-1.8 c 0.8,-1.465 1.616,-2.913 2.408,-4.37 0.652,-1.225 1.288,-2.449 1.932,-3.682 L 0.743,-10 c 0.941,0.975 1.882,1.951 2.824,2.909 0.206,0.214 0.262,0.375 0.097,0.666 -0.581,0.973 -1.112,1.981 -1.669,2.997 1.272,1.318 2.526,2.635 3.798,3.919 0.09,0.094 0.376,0.116 0.503,0.043 1.027,-0.511 2.037,-1.057 3.039,-1.593 l 3.12,3.234 C 12.2,2.305 11.98,2.419 11.759,2.532"
             inkscape:connector-curvature="0" /></g><g
           transform="translate(305.8055,139.4241)"
           id="g36"><path
             id="path38"
             style="fill:#a6a8ab;fill-opacity:1;fill-rule:evenodd;stroke:none"
             d="m 0,0 c -4.701,4.535 -9.403,9.07 -14.161,13.66 1.042,1.08 2.064,2.14 3.086,3.2 C -6.354,12.307 -1.634,7.753 3.087,3.2 2.058,2.133 1.029,1.067 0,0"
             inkscape:connector-curvature="0" /></g><g
           transform="translate(249.118,80.5725)"
           id="g40"><path
             id="path42"
             style="fill:#a6a8ab;fill-opacity:1;fill-rule:evenodd;stroke:none"
             d="m 0,0 c -0.676,0.652 -1.328,1.277 -1.973,1.911 -0.042,0.041 -0.063,0.164 -0.033,0.209 0.433,0.643 0.75,1.343 0.934,2.091 0.146,0.596 0.254,1.207 0.31,1.817 0.097,1.057 -0.005,2.106 -0.258,3.138 -0.206,0.842 -0.471,1.667 -0.881,2.43 -0.377,0.704 -0.795,1.387 -1.225,2.06 -0.205,0.319 -0.455,0.619 -0.725,0.886 -1.648,1.624 -3.307,3.236 -4.962,4.853 -0.03,0.029 -0.06,0.057 -0.1,0.096 0.372,0.387 0.737,0.764 1.118,1.159 0.061,-0.058 0.12,-0.115 0.179,-0.173 2.16,-2.083 4.328,-4.159 6.474,-6.257 C -0.718,13.805 -0.368,13.311 0,12.841 0.478,12.23 0.866,11.561 1.203,10.864 1.736,9.76 2.133,8.612 2.275,7.39 2.341,6.828 2.398,6.26 2.392,5.695 2.38,4.598 2.153,3.537 1.729,2.521 1.355,1.624 0.839,0.827 0.143,0.148 0.099,0.105 0.057,0.06 0,0"
             inkscape:connector-curvature="0" /></g><g
           transform="translate(287.0322,142.8595)"
           id="g44"><path
             id="path46"
             style="fill:#a6a8ab;fill-opacity:1;fill-rule:evenodd;stroke:none"
             d="m 0,0 c 3.808,-3.673 7.552,-7.285 11.329,-10.928 -0.968,-1.003 -1.924,-1.994 -2.932,-3.04 -0.144,0.139 -0.299,0.288 -0.453,0.437 C 4.079,-9.803 0.24,-6.048 -3.67,-2.367 -4.558,-1.531 -4.712,0.556 -3.74,1.565 -2.802,2.539 -1.891,3.54 -0.919,4.477 0.952,6.281 3.807,6.906 6.175,5.67 8.039,4.697 9.164,2.523 8.782,0.454 8.668,-0.165 8.524,-0.778 8.386,-1.437 11.608,-2.201 14.881,-2.978 18.223,-3.771 18.117,-3.912 18.056,-4.015 17.976,-4.098 16.975,-5.14 15.977,-6.184 14.962,-7.211 14.848,-7.326 14.609,-7.428 14.468,-7.389 11.651,-6.614 8.84,-5.809 6.024,-5.027 3.876,-4.43 3.817,-3.175 4.45,-1.461 4.661,-0.889 4.847,-0.28 4.889,0.322 4.97,1.483 4.232,1.925 3.326,2.048 2.518,2.159 1.766,2.018 1.216,1.279 0.878,0.826 0.435,0.451 0,0"
             inkscape:connector-curvature="0" /></g><g
           transform="translate(282.6025,126.2878)"
           id="g48"><path
             id="path50"
             style="fill:#a6a8ab;fill-opacity:1;fill-rule:evenodd;stroke:none"
             d="m 0,0 c -1.487,2.26 -2.957,4.504 -4.435,6.756 0.017,0.017 0.05,0.034 0.066,0.051 2.246,-1.422 4.5,-2.853 6.779,-4.309 z m 11.759,2.549 c -3.055,1.56 -6.118,3.11 -9.174,4.686 -1.85,0.942 -3.7,1.901 -5.541,2.852 -0.807,0.414 -1.663,0.81 -2.586,0.743 C -7.617,10.7 -9.174,8.932 -8.32,6.77 -7.95,5.851 -7.455,4.977 -6.985,4.112 -5.02,0.498 -3.047,-3.09 -1.073,-6.695 c 0.591,-1.082 1.191,-2.173 1.8,-3.306 0.998,1.036 1.956,2.011 2.897,3.021 0.09,0.094 0.11,0.371 0.033,0.496 -0.532,1.025 -1.096,2.032 -1.662,3.073 1.263,1.309 2.517,2.626 3.789,3.91 0.099,0.103 0.376,0.116 0.503,0.06 1.027,-0.528 2.038,-1.073 3.048,-1.601 l 3.111,3.225 c -0.237,0.131 -0.458,0.244 -0.687,0.366"
             inkscape:connector-curvature="0" /></g><g
           transform="translate(278.9882,111.841)"
           id="g52"><path
             id="path54"
             style="fill:#a6a8ab;fill-opacity:1;fill-rule:evenodd;stroke:none"
             d="m 0,0 c -3.781,3.647 -7.534,7.267 -11.316,10.915 -0.894,-0.927 -1.763,-1.828 -2.664,-2.762 -0.912,0.88 -1.796,1.733 -2.708,2.612 2.745,2.846 5.5,5.702 8.279,8.583 0.883,-0.851 1.767,-1.704 2.68,-2.585 C -6.584,15.878 -7.427,15.003 -8.31,14.088 -4.518,10.432 -0.756,6.803 3.035,3.146 2.015,2.089 1.034,1.072 0,0"
             inkscape:connector-curvature="0" /></g><g
           transform="translate(55.7172,74.7958)"
           id="g56"><path
             id="path58"
             style="fill:#2b2a2b;fill-opacity:1;fill-rule:nonzero;stroke:none"
             d="M 0,0 C -23.076,0.268 -41.948,18.541 -41.764,42.201 -41.59,65.123 -22.805,83.606 0.63,83.577 23.784,83.549 42.781,64.692 42.675,41.837 42.791,18.934 23.919,-0.288 0,0 M 107.467,86.53 C 101.247,86.492 95.027,86.252 88.827,86.233 43.779,86.099 -1.259,86.166 -46.308,86.166 h -2.228 c -0.717,-0.47 -1.172,-0.872 -1.463,-1.496 V -69.379 c 0.388,-0.403 0.766,-0.806 1.124,-1.189 1.763,-0.365 2.974,0.067 4.108,1.169 4.989,4.823 9.794,9.808 14.919,14.505 7.072,6.481 13.572,13.556 20.654,20.056 7.16,6.576 13.747,13.747 20.916,20.324 7.024,6.451 13.486,13.479 20.519,19.94 7.208,6.625 13.834,13.834 21.052,20.458 6.984,6.404 13.398,13.393 20.383,19.807 7.256,6.662 13.921,13.92 21.177,20.592 5.29,4.86 10.259,10.076 15.365,15.137 0.436,0.432 0.843,0.892 1.192,1.256 v 2.09 c -0.969,1.515 -2.384,1.774 -3.943,1.764"
             inkscape:connector-curvature="0" /></g><g
           transform="translate(247.2538,0.0547)"
           id="g60"><path
             id="path62"
             style="fill:#4a4a4c;fill-opacity:1;fill-rule:nonzero;stroke:none"
             d="m 0,0 c -14.363,-0.018 -28.726,-0.046 -43.079,-0.046 -5.687,0 -11.374,0.037 -17.051,0.064 -0.137,1.212 -5.131,5.559 -6.325,6.753 -5.395,5.423 -10.8,10.836 -16.231,16.222 -1.276,1.267 -2.661,2.434 -3.983,3.664 -0.419,0.383 -0.92,0.747 -0.911,1.422 0.383,-0.128 0.793,-0.21 1.139,-0.401 4.456,-2.47 9.113,-3.609 14.272,-2.817 8.512,1.313 14.226,6.079 17.461,13.871 1.394,3.345 1.905,6.881 1.358,10.599 -0.438,2.944 -1.495,5.605 -2.561,8.302 1.959,-0.829 3.181,-2.551 4.493,-4.055 3.545,-4.065 7.637,-7.592 11.255,-11.574 4.411,-4.848 9.287,-9.25 13.698,-14.08 C -22.638,23.722 -18.391,19.94 -14.6,15.73 -10.964,11.674 -0.009,0.064 0,0"
             inkscape:connector-curvature="0" /></g><g
           transform="translate(317.8188,3.4906)"
           id="g64"><path
             id="path66"
             style="fill:#4a4a4c;fill-opacity:1;fill-rule:nonzero;stroke:none"
             d="m 0,0 c 0,0 -3.044,-3.491 -7.472,-3.491 -17.079,0 -32.116,0.01 -49.195,0.01 -0.173,0 -7.391,7.345 -9.442,9.423 -5.695,5.76 -11.709,11.216 -17.361,17.033 -0.489,0.503 0,0 -2.765,2.999 1.229,-0.643 2.592,-1.641 3.039,-1.915 3.053,-1.877 6.452,-2.788 9.952,-2.879 6.744,-0.183 12.558,2.132 17.142,7.199 4.976,5.514 6.744,11.93 5.377,19.22 -1.37,5.44 -2.714,6.31 -3.765,8.27 6.007,-5.727 4.704,-4.223 6.007,-5.727 3.108,-3.582 6.653,-6.735 9.897,-10.171 6.425,-6.798 13.187,-13.26 19.603,-20.049 C -14.116,14.782 -0.419,0.684 0,0"
             inkscape:connector-curvature="0" /></g><g
           transform="translate(244.4104,26.3834)"
           id="g68"><path
             id="path70"
             style="fill:#1f1718;fill-opacity:1;fill-rule:nonzero;stroke:none"
             d="M 0,0 C -10.982,0.118 -19.794,9.505 -19.658,20.943 -19.539,31.76 -10.253,40.637 0.793,40.509 12.157,40.391 20.997,31.368 20.852,20.05 20.706,8.594 11.638,-0.118 0,0 m 22.683,24.707 c -0.437,2.305 -1.831,6.151 -4.538,9.459 -5.815,6.927 -13.233,9.442 -22.046,7.811 -4.802,-0.894 -8.639,-3.391 -11.956,-7.082 -4.922,-5.459 -6.17,-11.71 -4.903,-18.628 0.893,-4.903 3.335,-9.058 6.99,-12.467 0.792,-0.738 3.536,-2.36 3.982,-2.633 3.053,-1.878 6.452,-2.789 9.952,-2.88 6.744,-0.183 12.558,2.132 17.142,7.199 4.976,5.514 6.744,11.93 5.377,19.221"
             inkscape:connector-curvature="0" /></g><g
           transform="translate(171.4664,26.3834)"
           id="g72"><path
             id="path74"
             style="fill:#1f1718;fill-opacity:1;fill-rule:nonzero;stroke:none"
             d="M 0,0 C -11.055,0.018 -20.214,9.177 -20.232,20.25 -20.25,31.46 -11.155,40.436 0.091,40.537 11.264,40.646 20.678,31.095 20.286,20.232 20.605,9.66 11.665,-0.018 0,0 m 22.437,23.002 c -0.437,2.944 -1.494,5.605 -2.561,8.303 -0.464,1.175 -1.522,1.886 -2.26,2.834 -4.32,5.504 -10.125,8.129 -16.969,8.375 -7.446,0.265 -13.533,-2.943 -18.017,-8.667 -5.286,-6.735 -5.578,-14.362 -2.525,-22.173 1.623,-4.146 4.821,-7.09 8.102,-9.924 0.383,-0.128 0.793,-0.21 1.139,-0.401 4.457,-2.47 9.114,-3.609 14.272,-2.816 8.512,1.312 14.226,6.078 17.461,13.87 1.395,3.345 1.905,6.881 1.358,10.599"
             inkscape:connector-curvature="0" /></g><g
           transform="translate(265.2602,46.4366)"
           id="g76"><path
             id="path78"
             style="fill:#b82c31;fill-opacity:1;fill-rule:nonzero;stroke:none"
             d="m 0,0 c -0.148,-11.461 -9.21,-20.176 -20.851,-20.054 -10.978,0.115 -19.794,9.509 -19.661,20.947 0.127,10.811 9.408,19.687 20.459,19.566 C -8.692,20.334 0.146,11.317 0,0"
             inkscape:connector-curvature="0" /></g><g
           transform="translate(191.7528,46.6162)"
           id="g80"><path
             id="path82"
             style="fill:#b82c31;fill-opacity:1;fill-rule:nonzero;stroke:none"
             d="m 0,0 c 0.32,-10.575 -8.62,-20.254 -20.289,-20.235 -11.05,0.018 -20.207,9.18 -20.225,20.249 -0.018,11.214 9.077,20.187 20.32,20.293 C -9.019,20.413 0.389,10.863 0,0"
             inkscape:connector-curvature="0" /></g><g
           transform="translate(87.8226,106.2213)"
           id="g84"><path
             id="path86"
             style="fill:#59585a;fill-opacity:1;fill-rule:nonzero;stroke:none"
             d="m 0,0 c -4.108,0 -8.409,-0.192 -12.691,0.058 -3.536,0.21 -6.781,-2.464 -6.675,-6.692 0.097,-3.758 0.029,-7.516 0.02,-11.284 -0.01,-2.118 -0.34,-2.444 -2.51,-2.454 -6.413,-0.01 -12.826,0 -19.046,0 -0.794,0.345 -1.153,0.834 -1.598,1.457 0,4.209 0.009,8.523 -0.01,12.827 -0.01,3.864 -2.219,6.059 -6.113,6.078 -3.924,0.02 -7.847,0 -11.771,0.01 -2.276,0.01 -3.032,0.748 -3.042,2.981 -0.019,5.427 0.01,10.843 -0.009,16.269 -0.01,1.735 0.629,2.857 2.567,2.886 5.154,-0.307 10.337,-1.151 15.384,0.767 0.116,0.009 0.223,0.009 0.349,0.019 0.165,0.288 0.436,0.355 0.746,0.374 0.262,0.259 0.504,0.508 0.756,0.767 0.232,0.239 0.465,0.47 0.697,0.709 1.463,2.685 1.647,5.589 1.56,8.561 -0.078,2.646 0,5.283 -0.02,7.928 -0.009,1.045 0.31,1.956 1.463,1.966 6.326,0.057 12.653,0.029 18.775,0.029 0.998,-0.835 1.085,-1.726 1.076,-2.675 -0.02,-2.886 0.029,-5.781 -0.02,-8.667 -0.029,-1.783 0.107,-3.537 0.407,-5.292 v -0.009 c 0.281,-0.163 0.349,-0.432 0.368,-0.738 0.291,-0.163 0.368,-0.432 0.378,-0.738 0.126,-0.125 0.252,-0.24 0.378,-0.374 0.349,-0.135 0.6,-0.374 0.736,-0.729 0.116,-0.115 0.233,-0.24 0.349,-0.355 2.228,-1.236 4.553,-2.051 7.188,-1.888 3.188,0.211 9.882,0.134 10.027,0.029 1.221,0.009 1.86,-0.585 1.87,-1.793 V 1.534 C 1.192,0.805 0.756,0.374 0,0 m -31.476,52.152 c -23.434,0.029 -42.219,-18.454 -42.393,-41.376 -0.184,-23.661 18.687,-41.933 41.764,-42.201 23.919,-0.288 42.791,18.933 42.674,41.836 0.107,22.855 -18.891,41.712 -42.045,41.741"
             inkscape:connector-curvature="0" /></g><g
           transform="translate(56.8894,102.4057)"
           id="g88"><path
             id="path90"
             style="fill:#6e6d6e;fill-opacity:1;fill-rule:nonzero;stroke:none"
             d="m 0,0 c -8.186,0.134 -15.539,7.133 -15.413,15.837 0.116,7.89 7.44,15.406 16.188,15.061 C 8.583,30.601 16.15,23.861 15.704,15.444 16.208,7.008 8.312,-0.144 0,0 m 30.652,25.635 c -0.145,0.105 -6.839,0.182 -10.027,-0.029 -2.635,-0.163 -4.96,0.652 -7.188,1.889 -0.116,0.115 -1.928,2.77 -2.209,2.933 l -0.009,0.01 h 0.009 c -0.3,1.754 -0.436,3.509 -0.407,5.292 0.049,2.885 0,5.781 0.02,8.666 0.009,0.949 -0.078,1.841 -1.076,2.675 -6.122,0 -12.449,0.029 -18.775,-0.029 -1.152,-0.009 -1.472,-0.92 -1.462,-1.965 0.019,-2.646 -0.059,-5.282 0.019,-7.928 0.087,-2.972 -0.097,-5.877 -1.56,-8.561 -0.232,-0.24 -2.431,-1.86 -2.548,-1.87 -5.047,-1.917 -10.23,-1.073 -15.384,-0.767 -1.937,-0.028 -2.577,-1.15 -2.567,-2.885 0.019,-5.426 -0.01,-10.843 0.01,-16.269 0.009,-2.234 0.765,-2.972 3.042,-2.981 3.923,-0.01 7.847,0.009 11.77,-0.01 3.895,-0.019 6.103,-2.215 6.113,-6.078 0.02,-4.305 0.01,-8.619 0.01,-12.827 0.445,-0.623 0.804,-1.112 1.598,-1.457 6.22,0 12.633,-0.01 19.046,0 2.171,0.009 2.5,0.335 2.51,2.454 0.009,3.767 0.077,7.525 -0.02,11.283 -0.106,4.228 3.139,6.903 6.675,6.692 4.282,-0.249 8.584,-0.057 12.691,-0.057 0.756,0.373 1.192,0.805 1.589,1.533 v 18.493 c -0.01,1.208 -0.649,1.803 -1.87,1.793"
             inkscape:connector-curvature="0" /></g><g
           transform="translate(57.129,106.7265)"
           id="g92"><path
             id="path94"
             style="fill:#363638;fill-opacity:1;fill-rule:nonzero;stroke:none"
             d="M 0,0 C -6.413,0 -11.056,3.851 -11.275,10.977 -11.456,17.144 -7.25,21.894 -0.121,22.47 6.68,21.906 11.202,18.055 11.287,11.193 11.36,4.595 6.959,-0.012 0,0 M 0.691,30.46 C -10.256,30.892 -19.421,21.486 -19.567,11.613 -19.724,0.72 -10.523,-8.038 -0.279,-8.206 10.123,-8.386 20.003,0.564 19.373,11.121 19.931,21.654 10.462,30.088 0.691,30.46"
             inkscape:connector-curvature="0" /></g><g
           transform="translate(56.9182,135.4034)"
           id="g96"><path
             id="path98"
             style="fill:#4f4e4f;fill-opacity:1;fill-rule:nonzero;stroke:none"
             d="m 0,0 c 10.581,-0.873 17.608,-6.859 17.733,-17.518 0.121,-10.274 -6.718,-17.426 -17.53,-17.414 -9.981,0.012 -17.208,5.996 -17.54,17.079 C -17.624,-8.268 -11.078,-0.887 0,0"
             inkscape:connector-curvature="0" /></g></g></g></g></svg>