<?xml version="1.0" encoding="UTF-8" standalone="no"?>
<!-- Generator: Adobe Illustrator 13.0.0, SVG Export Plug-In . SVG Version: 6.00 Build 14948)  -->

<svg
   xmlns:ns="&amp;#38;ns_sfw;"
   xmlns:dc="http://purl.org/dc/elements/1.1/"
   xmlns:cc="http://creativecommons.org/ns#"
   xmlns:rdf="http://www.w3.org/1999/02/22-rdf-syntax-ns#"
   xmlns:svg="http://www.w3.org/2000/svg"
   xmlns="http://www.w3.org/2000/svg"
   xmlns:sodipodi="http://sodipodi.sourceforge.net/DTD/sodipodi-0.dtd"
   xmlns:inkscape="http://www.inkscape.org/namespaces/inkscape"
   version="1.2"
   id="Layer_3"
   x="0px"
   y="0px"
   width="580.79102"
   height="204.95551"
   viewBox="0 0 580.79099 204.9555"
   xml:space="preserve"
   inkscape:version="0.92.2 (5c3e80d, 2017-08-06)"
   sodipodi:docname="controller.svg"><defs
     id="defs24" /><sodipodi:namedview
     pagecolor="#ffffff"
     bordercolor="#666666"
     borderopacity="1"
     objecttolerance="10"
     gridtolerance="10"
     guidetolerance="10"
     inkscape:pageopacity="0"
     inkscape:pageshadow="2"
     inkscape:window-width="1920"
     inkscape:window-height="1017"
     id="namedview22"
     showgrid="false"
     fit-margin-top="0"
     fit-margin-left="0"
     fit-margin-right="0"
     fit-margin-bottom="0"
     inkscape:zoom="0.48145317"
     inkscape:cx="291.06351"
     inkscape:cy="124.76901"
     inkscape:window-x="-8"
     inkscape:window-y="-8"
     inkscape:window-maximized="1"
     inkscape:current-layer="Layer_3" /><metadata
     id="metadata55"><rdf:RDF><cc:Work
         rdf:about=""><dc:format>image/svg+xml</dc:format><dc:type
           rdf:resource="http://purl.org/dc/dcmitype/StillImage" /><dc:title></dc:title></cc:Work></rdf:RDF><ns:sfw><ns:slices /><ns:sliceSourceBounds
         x="-7231"
         y="-7652"
         width="16383"
         height="16383"
         bottomLeftOrigin="true" /></ns:sfw></metadata><path
     id="path3"
     d="m 205.259,8.30625 c -0.172,0 -0.176,0.01425 -0.302,0.02325 -0.125,0.0097 -0.303,0.02775 -0.513,0.04575 -0.42,0.03525 -1.022,0.06825 -1.78,0.13575 -1.515,0.13575 -3.666,0.33525 -6.397,0.58875 -5.463,0.5055 -13.18,1.23525 -22.391,2.1045 -18.42,1.7385 -42.852,4.06725 -67.261,6.405 -24.409,2.33775 -48.809,4.67475 -67.202,6.4725 -9.196,0.89925 -16.887,1.668 -22.33,2.2185 -2.722,0.27525 -4.893,0.495 -6.397,0.65625 -0.756,0.081 -1.335,0.1545 -1.754,0.204 -0.209,0.0255 -0.383,0.05025 -0.513,0.06825 -0.064,0.009 -0.096,0.0135 -0.15,0.0225 -0.054,0.009 -0.076,-0.0083 -0.242,0.045 C 3.31,28.80525 0,32.33625 0,36.417 v 158.64675 c 0,5.45925 5.913,9.89175 13.187,9.89175 h 554.386 c 7.274,0 13.218,-4.4355 13.218,-9.8895 V 36.4185 c 0,-3.918 -3.064,-7.31775 -7.484,-8.91675 -0.169,-0.0615 -0.181,-0.05625 -0.241,-0.0675 -0.06,-0.01125 -0.144,-0.0345 -0.211,-0.04575 -0.136,-0.02025 -0.3,-0.04125 -0.514,-0.0675 -0.426,-0.05325 -1.021,-0.12 -1.78,-0.20325 -1.526,-0.168 -3.698,-0.39675 -6.431,-0.67875 -5.476,-0.5625 -13.191,-1.33125 -22.423,-2.241 -18.462,-1.8195 -42.94,-4.18725 -67.438,-6.54075 -24.5,-2.3535 -49.007,-4.68075 -67.508,-6.4275 -9.251,-0.873 -17.014,-1.61925 -22.512,-2.127 -2.748,-0.25425 -4.927,-0.453 -6.457,-0.58875 -0.765,-0.06825 -1.353,-0.09975 -1.78,-0.13575 -0.214,-0.018 -0.384,-0.036 -0.514,-0.04575 C 375.369,8.3228 375.326,8.31 375.166,8.31 v 1.44825 c -0.101,0 0.006,-0.0083 0.121,0 0.115,0.0082 0.304,0.02775 0.513,0.045 0.419,0.03525 0.988,0.0915 1.751,0.15825 1.524,0.13575 3.711,0.3345 6.457,0.58875 5.494,0.50775 13.261,1.2315 22.512,2.10525 18.499,1.746 43.006,4.07475 67.504,6.4275 24.495,2.352 48.98,4.72125 67.441,6.54075 9.231,0.90975 16.957,1.70175 22.42,2.2635 2.733,0.28125 4.896,0.48975 6.398,0.65625 0.752,0.08325 1.349,0.15375 1.75,0.204 0.201,0.02475 0.354,0.0525 0.453,0.0675 0.009,0.003 0.021,-0.0023 0.029,0 0.03,0.0045 0.053,0.021 0.061,0.02325 3.704,1.3815 6.276,4.2615 6.276,7.58175 v 158.6475 c 0,4.67175 -5.055,8.442 -11.285,8.442 H 13.18 c -6.235,0 -11.259,-3.76575 -11.259,-8.445 V 36.41625 c 0,-3.477 2.801,-6.465 6.79,-7.7625 0.02,-0.003 0.027,0.0045 0.06,0 0.101,-0.01425 0.252,-0.045 0.453,-0.06825 0.401,-0.04725 1.003,-0.1005 1.75,-0.1815 1.495,-0.15975 3.648,-0.40425 6.367,-0.67875 5.437,-0.549 13.104,-1.29675 22.3,-2.19525 18.391,-1.797 42.794,-4.15725 67.203,-6.495 24.408,-2.3385 48.842,-4.644 67.261,-6.3825 9.21,-0.86925 16.901,-1.599 22.36,-2.10525 2.73,-0.25275 4.918,-0.453 6.427,-0.58875 0.755,-0.0675 1.338,-0.12375 1.75,-0.15825 0.206,-0.01725 0.372,-0.03675 0.483,-0.04575 0.112,-0.0082 0.24,0 0.121,0 v -1.449 z"
     inkscape:connector-curvature="0"
     style="fill:#f4f4f4;stroke-width:0.86602539" /><path
     id="path5"
     d="m 208.367,0 c -1.261,0 -2.336,0.44175 -2.957,1.086 -0.621,0.645 -0.845,1.44825 -0.845,2.241 v 57.258 c 0,35.5455 38.426,64.38825 85.82,64.38825 47.394,0 85.851,-28.84275 85.851,-64.38825 V 3.32775 c 0,-0.8295 -0.231,-1.64175 -0.874,-2.286 -0.648,-0.64275 -1.73,-1.0395 -3.024,-1.0395 H 208.365 Z m 0,1.449 h 163.975 c 0.836,0 1.192,0.1665 1.479,0.453 0.285,0.28575 0.483,0.7935 0.483,1.42575 v 57.258 c 0,34.76325 -37.571,62.93925 -83.92,62.93925 -46.352,0 -83.889,-28.17675 -83.889,-62.93925 v -57.258 c 0,-0.56925 0.184,-1.09275 0.483,-1.40325 0.299,-0.30975 0.656,-0.474 1.391,-0.474 z"
     inkscape:connector-curvature="0"
     style="fill:#f4f4f4;stroke-width:0.86602539" /><path
     id="path7"
     d="m 84.467,100.78275 c -4.331,0 -8.55,0.39825 -12.583,1.13175 -19.22,3.49125 -34.366,14.80575 -39.107,29.1945 -1.014,3.07875 -1.54,6.2835 -1.54,9.59625 0,3.1815 0.479,6.288 1.418,9.2565 4.597,14.53275 19.782,25.98825 39.108,29.5335 4.069,0.747 8.332,1.13175 12.704,1.13175 4.318,0 8.532,-0.38175 12.554,-1.10925 19.579,-3.546 34.928,-15.1995 39.379,-29.964 0.858,-2.84475 1.298,-5.81175 1.298,-8.84925 0,-3.29175 -0.537,-6.489 -1.539,-9.55125 -4.708,-14.37975 -19.782,-25.689 -38.958,-29.21775 -4.079,-0.75 -8.35,-1.15425 -12.735,-1.155 z m 0,1.449 c 4.229,7.5e-4 8.322,0.38625 12.252,1.1085 18.474,3.39975 33.032,14.30025 37.568,28.155 0.966,2.949 1.479,6.03675 1.479,9.21075 0,2.9295 -0.441,5.79225 -1.268,8.53275 -4.288,14.22525 -19.066,25.46025 -37.93,28.878 -3.876,0.7005 -7.937,1.06425 -12.101,1.06425 -4.217,0 -8.301,-0.3675 -12.221,-1.08675 -18.62,-3.41625 -33.262,-14.469 -37.689,-28.47075 -0.905,-2.85975 -1.389,-5.8485 -1.389,-8.91675 0,-3.195 0.502,-6.2895 1.479,-9.25575 4.568,-13.8645 19.171,-24.768 37.689,-28.13175 3.888,-0.70725 7.954,-1.08675 12.131,-1.0875 z"
     inkscape:connector-curvature="0"
     style="fill:#f4f4f4;stroke-width:0.86602539" /><path
     id="path9"
     d="m 84.467,100.78275 c -4.331,0 -8.55,0.39825 -12.583,1.13175 h -0.03 -0.061 c -0.87,0.222 -1.643,0.624 -2.142,1.22175 -0.5,0.5985 -0.695,1.33575 -0.695,2.241 v 21.93 c 0,0.70425 -0.162,1.14375 -0.392,1.35825 -0.229,0.21375 -0.636,0.40725 -1.811,0.40725 H 37.362 c -1.049,0 -1.952,0.0442 -2.776,0.339 -0.824,0.29625 -1.426,0.879 -1.78,1.6305 v 0.0217 l -0.03,0.0457 c -1.014,3.07875 -1.539,6.2835 -1.539,9.59625 0,3.1815 0.479,6.288 1.418,9.25725 h 0.03 c 0.261,0.759 0.713,1.44225 1.54,1.8555 0.827,0.41175 1.859,0.51975 3.138,0.51975 h 29.361 c 0.937,0 1.441,0.135 1.72,0.33975 0.279,0.2055 0.513,0.612 0.513,1.449 v 21.9075 c 0,1.0485 0.254,1.83 0.785,2.3985 0.531,0.56775 1.294,0.86325 1.931,1.041 h 0.061 l 0.03,0.0225 c 4.069,0.74625 8.332,1.13175 12.704,1.13175 4.318,0 8.531,-0.381 12.553,-1.10925 h 0.03 c 0.789,-0.16425 1.57,-0.51675 2.112,-1.10925 0.542,-0.59175 0.815,-1.3905 0.815,-2.37525 v -21.93 c 0,-0.67425 0.223,-1.086 0.543,-1.335 0.32,-0.24975 0.851,-0.4305 1.871,-0.4305 h 29.18 c 1.509,0 2.656,-0.29025 3.44,-0.83625 0.784,-0.5475 1.158,-1.251 1.388,-1.92375 v -0.0225 c 0.858,-2.84475 1.297,-5.81175 1.297,-8.84925 0,-3.29175 -0.536,-6.48975 -1.539,-9.55125 v -0.0225 c -0.271,-0.74175 -0.768,-1.36875 -1.6,-1.69725 -0.831,-0.3285 -1.761,-0.36225 -2.987,-0.36225 h -29.15 c -1.145,0 -1.681,-0.186 -1.961,-0.40725 -0.281,-0.22125 -0.483,-0.6255 -0.483,-1.35825 V 105.3795 c 0,-0.873 -0.073,-1.57875 -0.513,-2.196 -0.441,-0.61725 -1.271,-1.03575 -2.233,-1.24425 h -0.03 c -4.079,-0.75075 -8.35,-1.155 -12.735,-1.155 z m 0,1.449 c 4.219,0 8.301,0.3885 12.222,1.1085 0.009,0.001 0.02,-10e-4 0.03,0 0.628,0.14025 0.848,0.2715 1.026,0.5205 0.182,0.255 0.302,0.74025 0.302,1.5165 v 21.93 c 0,0.91275 0.225,1.76775 0.996,2.37675 0.771,0.6075 1.956,0.837 3.38,0.837 h 29.15 c 1.144,0 1.797,0.0908 2.082,0.20325 0.279,0.1095 0.436,0.237 0.634,0.7695 0.002,0.007 -0.002,0.015 0,0.0217 0.961,2.94375 1.479,6.02175 1.479,9.189 0,2.9295 -0.442,5.79225 -1.268,8.53275 -0.19,0.5445 -0.421,0.94575 -0.784,1.19925 -0.372,0.2595 -0.949,0.453 -2.143,0.453 h -29.18 c -1.349,0 -2.489,0.28275 -3.259,0.88275 -0.771,0.59925 -1.086,1.42725 -1.086,2.331 v 21.93075 c 0,0.7785 -0.216,1.26975 -0.482,1.56 -0.268,0.29175 -0.607,0.4275 -1.057,0.5205 -3.858,0.69525 -7.896,1.06425 -12.041,1.06425 -4.184,0 -8.237,-0.35625 -12.13,-1.06425 -0.016,-0.004 -0.013,-0.0172 -0.03,-0.0217 -0.448,-0.129 -0.739,-0.2565 -0.965,-0.498 -0.234,-0.2505 -0.453,-0.69675 -0.453,-1.56075 v -21.90825 c 0,-1.04175 -0.302,-1.89 -1.086,-2.4675 -0.785,-0.57675 -1.889,-0.76875 -3.078,-0.76875 H 37.363 c -1.101,0 -1.712,-0.126 -2.052,-0.294 -0.338,-0.171 -0.556,-0.39675 -0.754,-0.9735 -0.905,-2.85975 -1.389,-5.8485 -1.389,-8.9175 0,-3.17025 0.486,-6.2415 1.449,-9.189 h 0.03 c 0.251,-0.5325 0.445,-0.69225 0.785,-0.8145 0.339,-0.1215 0.964,-0.18075 1.931,-0.18075 h 29.392 c 1.482,0 2.629,-0.285 3.32,-0.92775 0.689,-0.64275 0.814,-1.461 0.814,-2.286 v -21.93 c 0,-0.744 0.158,-1.1895 0.393,-1.4715 0.227,-0.2715 0.557,-0.4395 1.116,-0.58875 0.017,-0.004 0.012,-0.0172 0.03,-0.0225 3.858,-0.6945 7.895,-1.062 12.039,-1.062 z"
     inkscape:connector-curvature="0"
     style="fill:#f4f4f4;stroke-width:0.86602539" /><path
     id="circle11"
     d="m 84.467,129.912 c -7.934,0 -14.393,4.84425 -14.393,10.79475 0,5.95125 6.459,10.7955 14.393,10.7955 7.935,0 14.394,-4.845 14.394,-10.7955 0,-5.95125 -6.46,-10.79475 -14.394,-10.79475 z m 0,1.4475 c 6.891,0 12.463,4.17825 12.463,9.3465 0,5.16825 -5.572,9.3465 -12.463,9.3465 -6.89,0 -12.462,-4.17825 -12.462,-9.3465 0,-5.16825 5.572,-9.3465 12.462,-9.3465 z"
     inkscape:connector-curvature="0"
     style="fill:#f4f4f4;stroke-width:0.86602539" /><path
     id="path13"
     d="m 53.627,42.186 c -7.274,0 -13.187,4.43475 -13.187,9.89025 v 42.141 c 0,2.364 0.652,4.089 1.75,5.31825 1.099,1.2285 2.657,1.899 4.255,2.17275 3.186,0.54525 6.448,-0.315 8.178,-1.10925 0.008,-0.004 0.023,0.004 0.03,0 8.826,-3.7005 18.98,-5.81625 29.814,-5.81625 33.825,0 61.227,20.5515 61.227,45.9195 0,15.3375 -10.012,28.9125 -25.408,37.2525 l -0.091,0.045 -0.06,0.069 -1.811,1.51575 -0.061,0.0457 c -1.822,1.38975 -2.957,3.30975 -2.957,5.409 0,4.245 4.601,7.695 10.259,7.695 h 7.967 335.854 0.966 28.004 c 25.572,0 46.319,-15.56025 46.319,-34.74 0,-6.90975 -2.69,-13.35 -7.332,-18.76125 -0.006,-0.008 0.006,-0.0165 0,-0.0225 -0.447,-0.56475 -0.634,-0.714 -0.634,-2.2185 v -84.915 c 0,-5.4555 -5.914,-9.89025 -13.188,-9.89025 H 412.082 c -4.325,0 -7.789,1.29525 -10.081,3.37275 -2.289,2.0775 -3.439,4.8975 -3.439,7.98825 v 6.654 c 0,44.81775 -48.423,81.1125 -108.18,81.1125 -59.756,0 -108.179,-36.2955 -108.179,-81.1125 v -6.654 c 0,-3.279 -0.792,-6.0795 -2.776,-8.12475 -1.989,-2.04075 -5.185,-3.2325 -9.482,-3.2325 H 53.615 Z m 0,1.44825 h 116.329 c 3.852,0 6.311,0.9495 7.937,2.625 1.626,1.67625 2.384,4.18725 2.384,7.287 v 6.654 c 0,45.6 49.312,82.5615 110.11,82.5615 60.8,0 110.111,-36.9615 110.111,-82.5615 v -6.654 c 0,-2.823 1.047,-5.3235 2.987,-7.08375 1.941,-1.7565 4.779,-2.82525 8.604,-2.82525 h 111.442 c 6.229,0 11.256,3.76875 11.256,8.44125 v 84.915 c 0,1.668 0.438,2.394 0.905,2.988 h 0.03 v 0.0217 c 4.456,5.19 7.031,11.35725 7.031,17.99175 0,18.39675 -19.859,33.2925 -44.39,33.2925 h -27.038 -0.965 -336.82 -7.967 c -4.615,0 -8.329,-2.7855 -8.329,-6.246 0,-1.731 0.935,-3.2805 2.444,-4.41375 l 0.03,-0.0225 v -0.0225 l 1.69,-1.449 c 0.022,-0.012 0.037,-0.033 0.06,-0.045 15.841,-8.6055 26.163,-22.596 26.163,-38.3835 0,-26.15175 -28.29,-47.36925 -63.158,-47.36925 -11.178,0 -21.7,2.19675 -30.809,6.02025 h -0.03 c -1.27,0.58575 -4.339,1.365 -6.76,0.951 -1.21,-0.207 -2.257,-0.666 -3.078,-1.584 -0.821,-0.91875 -1.418,-2.33325 -1.418,-4.50375 v -42.1395 c -0.006,-4.67025 5.019,-8.439 11.25,-8.439 z"
     inkscape:connector-curvature="0"
     style="fill:#f4f4f4;stroke-width:0.86602539" /><path
     id="circle15"
     d="m 433.997,137.39925 c -16.033,0 -29.06,9.77025 -29.06,21.79575 0,12.02325 13.026,21.795 29.06,21.795 16.031,0 29.027,-9.771 29.027,-21.795 10e-4,-12.02475 -12.995,-21.79575 -29.027,-21.79575 z m 0,1.449 c 14.988,0 27.097,9.105 27.097,20.34675 0,11.24025 -12.11,20.346 -27.097,20.346 -14.99,0 -27.128,-9.10575 -27.128,-20.346 0,-11.24175 12.138,-20.34675 27.128,-20.34675 z"
     inkscape:connector-curvature="0"
     style="fill:#f4f4f4;stroke-width:0.86602539" /><path
     id="circle17"
     d="m 433.997,140.724 c -13.587,0 -24.623,8.2785 -24.623,18.468 0,10.18875 11.036,18.4665 24.623,18.4665 13.585,0 24.622,-8.27775 24.622,-18.4665 0,-10.1895 -11.037,-18.468 -24.622,-18.468 z m 0,1.44825 c 12.54,0 22.69,7.6125 22.69,17.019 0,9.40575 -10.15,17.01825 -22.69,17.01825 -12.542,0 -22.692,-7.6125 -22.692,-17.01825 0,-9.40575 10.15,-17.019 22.692,-17.019 z"
     inkscape:connector-curvature="0"
     style="fill:#f4f4f4;stroke-width:0.86602539" /><path
     id="path19"
     d="m 433.997,131.76525 c -20.189,0 -36.574,12.288 -36.574,27.42975 0,15.1425 16.385,27.42975 36.574,27.42975 h 67.684 c 20.189,0 36.573,-12.28725 36.573,-27.42975 0,-15.14175 -16.384,-27.42975 -36.573,-27.42975 z m 0,1.44825 h 67.684 c 19.146,0 34.642,11.62125 34.642,25.9815 0,14.36025 -15.495,25.9815 -34.642,25.9815 h -67.684 c -19.146,0 -34.642,-11.6205 -34.642,-25.9815 10e-4,-14.36025 15.496,-25.9815 34.642,-25.9815 z"
     inkscape:connector-curvature="0"
     style="fill:#f4f4f4;stroke-width:0.86602539" /><path
     id="circle21"
     d="m 501.677,137.39925 c -16.031,0 -29.06,9.77025 -29.06,21.79575 0,12.02325 13.028,21.795 29.06,21.795 16.032,0 29.029,-9.771 29.029,-21.795 0,-12.02475 -12.997,-21.79575 -29.029,-21.79575 z m 0,1.449 c 14.989,0 27.098,9.105 27.098,20.34675 0,11.24025 -12.11,20.346 -27.098,20.346 -14.988,0 -27.129,-9.10575 -27.129,-20.346 0,-11.24175 12.141,-20.34675 27.129,-20.34675 z"
     inkscape:connector-curvature="0"
     style="fill:#f4f4f4;stroke-width:0.86602539" /><path
     id="circle23"
     d="m 501.677,140.724 c -13.586,0 -24.624,8.2785 -24.624,18.468 0,10.18875 11.038,18.4665 24.624,18.4665 13.586,0 24.624,-8.27775 24.624,-18.4665 0,-10.1895 -11.038,-18.468 -24.624,-18.468 z m 0,1.44825 c 12.541,0 22.692,7.6125 22.692,17.019 0,9.40575 -10.151,17.01825 -22.692,17.01825 -12.541,0 -22.693,-7.6125 -22.693,-17.01825 0,-9.40575 10.152,-17.019 22.693,-17.019 z"
     inkscape:connector-curvature="0"
     style="fill:#f4f4f4;stroke-width:0.86602539" /><path
     id="path25"
     d="m 432.819,96.4815 -0.604,0.339 -12.945,7.446 -0.362,0.2265 v 0.33975 18.8745 c 0,1.27125 1.383,2.331 3.078,2.331 h 21.636 c 1.695,0 3.079,-1.059 3.079,-2.331 v -18.8745 -0.33975 l -0.362,-0.2265 -12.945,-7.446 z m -0.031,1.833 11.979,6.87975 v 18.51225 c 0,0.48825 -0.495,0.88275 -1.146,0.88275 h -21.636 c -0.652,0 -1.146,-0.393 -1.146,-0.88275 v -18.51225 z"
     inkscape:connector-curvature="0"
     style="fill:#f4f4f4;stroke-width:0.86602539" /><path
     id="path27"
     d="m 501.562,96.4815 -0.604,0.339 -12.916,7.446 -0.392,0.2265 v 0.33975 18.8745 c 0,1.272 1.412,2.331 3.108,2.331 h 21.605 c 1.695,0 3.078,-1.059 3.078,-2.331 v -18.8745 -0.33975 l -0.362,-0.2265 -12.94,-7.44525 -0.572,-0.339 z m 0,1.833 11.949,6.87975 v 18.51225 c 0,0.48825 -0.494,0.88275 -1.146,0.88275 h -21.606 c -0.653,0 -1.178,-0.39375 -1.178,-0.88275 v -18.48975 z"
     inkscape:connector-curvature="0"
     style="fill:#f4f4f4;stroke-width:0.86602539" /><path
     id="path29"
     d="m 243.256,152.1735 c -4.974,0 -9.022,3.0585 -9.022,6.78975 0,3.73125 4.049,6.7665 9.022,6.7665 h 25.167 c 4.974,0 9.022,-3.03675 9.022,-6.7665 0,-3.73125 -4.048,-6.78975 -9.022,-6.78975 z m 0,1.44825 h 25.167 c 3.93,0 7.091,2.3925 7.091,5.3415 0,2.9475 -3.161,5.31825 -7.091,5.31825 h -25.167 c -3.93,0 -7.092,-2.37 -7.092,-5.31825 0,-2.9475 3.161,-5.3415 7.092,-5.3415 z"
     inkscape:connector-curvature="0"
     style="fill:#f4f4f4;stroke-width:0.86602539" /><path
     id="path31"
     d="m 243.256,148.40025 c -7.763,0 -14.061,4.7475 -14.061,10.56975 0,5.8215 6.298,10.5465 14.061,10.5465 h 25.167 c 7.763,0 14.092,-4.725 14.092,-10.5465 0,-5.82225 -6.329,-10.56975 -14.092,-10.56975 z m 0,1.449 h 25.167 c 6.719,0 12.161,4.08075 12.161,9.12075 0,5.03925 -5.442,9.0975 -12.161,9.0975 h -25.167 c -6.72,0 -12.13,-4.059 -12.13,-9.0975 0,-5.04 5.411,-9.12075 12.13,-9.12075 z"
     inkscape:connector-curvature="0"
     style="fill:#f4f4f4;stroke-width:0.86602539" /><path
     id="path33"
     d="m 312.897,152.1735 c -4.974,0 -9.022,3.0585 -9.022,6.78975 0,3.73125 4.049,6.7665 9.022,6.7665 h 25.167 c 4.975,0 9.023,-3.03675 9.023,-6.7665 0,-3.73125 -4.049,-6.78975 -9.023,-6.78975 z m 0,1.44825 h 25.167 c 3.929,0 7.092,2.39325 7.092,5.3415 0,2.9475 -3.161,5.31825 -7.092,5.31825 h -25.167 c -3.929,0 -7.091,-2.37 -7.091,-5.31825 0,-2.9475 3.162,-5.3415 7.091,-5.3415 z"
     inkscape:connector-curvature="0"
     style="fill:#f4f4f4;stroke-width:0.86602539" /><path
     id="path35"
     d="m 312.897,148.40025 c -7.763,0 -14.092,4.7475 -14.092,10.56975 0,5.8215 6.329,10.5465 14.092,10.5465 h 25.167 c 7.764,0 14.061,-4.725 14.061,-10.5465 0,-5.82225 -6.297,-10.56975 -14.061,-10.56975 z m 0,1.449 h 25.167 c 6.721,0 12.13,4.08075 12.13,9.12075 0,5.03925 -5.409,9.0975 -12.13,9.0975 h -25.167 c -6.72,0 -12.16,-4.059 -12.16,-9.0975 0,-5.04 5.44,-9.12075 12.16,-9.12075 z"
     inkscape:connector-curvature="0"
     style="fill:#f4f4f4;stroke-width:0.86602539" /><path
     id="path37"
     d="m 84.467,82.96725 c -13.553,0 -26.318,2.643 -37.388,7.26525 l -2.776,1.15425 -0.845,0.36225 0.453,0.63375 3.108,4.164 0.483,0.63375 0.845,-0.33975 2.776,-1.17675 c 9.876,-4.12125 21.229,-6.45 33.344,-6.45 18.979,7.5e-4 36.115,5.748 48.553,15.07275 12.434,9.32775 20.126,22.17975 20.127,36.414 -0.002,16.419 -10.248,31.026 -26.192,40.46625 l -2.505,1.4715 -0.754,0.453 0.604,0.5655 3.953,3.7575 0.604,0.5655 0.754,-0.453 2.505,-1.47075 c 17.857,-10.56525 29.332,-26.9745 29.331,-45.3555 -0.003,-31.8765 -34.477,-57.73275 -76.98,-57.7335 z m 0,1.44825 c 41.461,0.001 75.046,25.19025 75.048,56.28525 0.001,17.928 -11.197,33.92175 -28.607,44.223 l -1.75,1.01775 -2.746,-2.625 1.75,-1.0185 c 16.389,-9.70425 26.915,-24.729 26.917,-41.598 -0.001,-14.62575 -7.921,-27.846 -20.702,-37.434 -12.785,-9.5835 -30.412,-15.501 -49.911,-15.50175 -12.449,0 -24.126,2.41725 -34.28,6.654 l -1.931,0.8145 -2.173,-2.91975 1.932,-0.8145 c 10.791,-4.50525 23.233,-7.08375 36.453,-7.083 z"
     inkscape:connector-curvature="0"
     style="fill:#f4f4f4;stroke-width:0.86602539" /></svg>