<?xml version="1.0" encoding="UTF-8" standalone="no"?>
<!-- Generator: Adobe Illustrator 16.0.3, SVG Export Plug-In . SVG Version: 6.00 Build 0)  -->

<svg
   xmlns:dc="http://purl.org/dc/elements/1.1/"
   xmlns:cc="http://creativecommons.org/ns#"
   xmlns:rdf="http://www.w3.org/1999/02/22-rdf-syntax-ns#"
   xmlns:svg="http://www.w3.org/2000/svg"
   xmlns="http://www.w3.org/2000/svg"
   xmlns:sodipodi="http://sodipodi.sourceforge.net/DTD/sodipodi-0.dtd"
   xmlns:inkscape="http://www.inkscape.org/namespaces/inkscape"
   version="1.1"
   id="Layer_1"
   x="0px"
   y="0px"
   width="566.93756"
   height="205.74857"
   viewBox="0 0 566.93759 205.74857"
   enable-background="new 0 0 566.936 274.332"
   xml:space="preserve"
   sodipodi:docname="logo.svg"
   inkscape:version="0.92.2 (5c3e80d, 2017-08-06)"><metadata
     id="metadata33"><rdf:RDF><cc:Work
         rdf:about=""><dc:format>image/svg+xml</dc:format><dc:type
           rdf:resource="http://purl.org/dc/dcmitype/StillImage" /><dc:title></dc:title></cc:Work></rdf:RDF></metadata><defs
     id="defs31" /><sodipodi:namedview
     pagecolor="#ffffff"
     bordercolor="#666666"
     borderopacity="1"
     objecttolerance="10"
     gridtolerance="10"
     guidetolerance="10"
     inkscape:pageopacity="0"
     inkscape:pageshadow="2"
     inkscape:window-width="1920"
     inkscape:window-height="1017"
     id="namedview29"
     showgrid="false"
     fit-margin-top="0"
     fit-margin-left="0"
     fit-margin-right="0"
     fit-margin-bottom="0"
     inkscape:zoom="0.61558979"
     inkscape:cx="283.46823"
     inkscape:cy="137.166"
     inkscape:window-x="-8"
     inkscape:window-y="-8"
     inkscape:window-maximized="1"
     inkscape:current-layer="Layer_1" /><g
     id="g26"
     transform="matrix(1,0,0,0.75,2.4047283e-4,-4.2900317e-4)"><g
       id="g4"><path
         d="m 57.9,201.665 c -0.39,0 -0.787,-0.088 -1.161,-0.271 C 18.76,182.96 -0.85,161.472 0.028,139.247 c 0.714,-18.296 15.645,-35.57 43.177,-49.959 26.123,-13.65 62.969,-24.482 106.557,-31.33 1.454,-0.227 2.815,0.766 3.043,2.218 0.229,1.452 -0.764,2.813 -2.217,3.043 C 62.295,77.085 6.644,106.298 5.35,139.458 c -0.777,19.661 18.299,39.957 53.715,57.146 1.323,0.644 1.875,2.231 1.233,3.56 -0.462,0.948 -1.41,1.501 -2.398,1.501 z"
         id="path2"
         inkscape:connector-curvature="0"
         style="fill:#ff0000" /></g><g
       id="g8"><path
         d="m 388.979,65.167 c -0.145,0 -0.289,-0.011 -0.436,-0.035 -28.057,-4.606 -57.67,-7.681 -88.023,-9.133 -1.471,-0.069 -2.604,-1.317 -2.533,-2.787 0.07,-1.468 1.341,-2.589 2.787,-2.531 30.558,1.463 60.379,4.557 88.636,9.196 1.448,0.238 2.434,1.607 2.194,3.06 -0.216,1.305 -1.343,2.23 -2.625,2.23 z"
         id="path6"
         inkscape:connector-curvature="0"
         style="fill:#ff0000" /></g><g
       id="g12"><path
         d="m 305.16,247.033 c -0.746,0 -1.486,0 -2.232,-0.003 -1.471,-0.003 -2.655,-1.198 -2.651,-2.67 0.004,-1.468 1.19,-2.653 2.658,-2.653 0.004,0 0.008,0 0.012,0 0.731,0.002 1.479,0.002 2.215,0.002 142.504,0.002 254.953,-37.04 256.436,-84.646 0.521,-16.659 -12.862,-33.561 -38.709,-48.873 -25.735,-15.251 -62.619,-28.25 -106.66,-37.589 -1.438,-0.306 -2.356,-1.72 -2.053,-3.157 0.303,-1.439 1.721,-2.354 3.158,-2.052 44.6,9.459 82.039,22.674 108.27,38.217 27.615,16.364 41.902,34.906 41.316,53.62 -0.787,25.316 -28.754,48.395 -78.748,64.974 -48.338,16.028 -113.256,24.83 -183.012,24.83 z"
         id="path10"
         inkscape:connector-curvature="0"
         style="fill:#ff0000" /></g><polygon
       points="317.91,63.624 325.308,97.091 255.009,150.675 337.58,117.708 360.78,141.861 353.382,108.404 423.681,54.818 341.114,87.776 "
       id="polygon14"
       style="fill:#ff0000" /><g
       id="g24"><path
         d="m 265.343,175.296 c 1.008,-4.961 2.846,-4.24 7.877,-5.039 l 4.683,-0.738 -1.458,7.809 -4.683,0.748 c -5.031,0.798 -7.246,2.144 -6.419,-2.78 z m -10.153,-7.148 -3.645,19.606 c -0.998,5.354 0.62,7.078 5.772,6.263 l 29.831,-4.732 6.394,-34.386 -29.833,4.725 c -5.154,0.817 -7.53,3.172 -8.519,8.524 z m 189.368,-30.95 -0.348,1.896 30.77,-4.885 c 2.429,-0.39 4.796,-2.845 5.291,-5.5 0.486,-2.653 -1.075,-4.492 -3.506,-4.104 l -7.903,1.248 -12.609,2.007 -3.195,0.5 c -3.695,0.591 -7.75,4.805 -8.5,8.838 z m -215.887,88.669 0.25,-1.367 c 1.058,0.08 2.476,0.489 3.714,0.304 l 31.98,-5.016 c -1.188,6.38 -9.615,7.979 -22.475,10.017 l -14.637,2.325 -7.848,42.202 19.23,-3.047 c 47.345,-4.673 65.357,-29.143 71.138,-58.313 l 57.688,-9.155 9.295,-50.021 4.692,-0.75 c 5.142,-0.815 4.384,-1.746 3.396,3.597 l -8.508,45.769 41.416,-6.572 0.567,-3.033 c 3.126,1.378 6.779,1.865 10.646,1.258 l 71.625,-11.361 6.68,-35.953 -4.643,-3.306 c 4.023,-4.763 7.158,-10.593 8.066,-15.485 l 1.129,-5.67 c 3.573,-21.207 -15.978,-26.838 -24.9,-25.42 l -41.104,6.521 c -7.279,1.156 -15.295,6.229 -21.127,12.949 -5.394,-5.342 -13.72,-7.418 -18.562,-6.649 l -45.76,7.259 5.123,11.322 41.27,-6.54 c 5.951,-0.948 9.928,1.428 11.018,6.14 -0.438,1.248 -11.018,57.579 -11.018,57.579 l -14.797,2.349 7.934,-42.645 c 0.982,-5.341 -0.633,-7.068 -5.771,-6.25 l -28.357,4.503 -9.303,50.021 -16.266,2.589 10.645,-57.271 -13.391,-15.796 -48.203,17.425 22.846,-3.625 0.369,-0.051 -14.527,78.156 c -3.692,19.854 -24.878,38.839 -43.669,41.823 l -19.229,3.047 2.916,-15.641 14.627,-2.313 c 12.859,-2.047 27.336,-14.916 29.833,-28.375 l 1.578,-8.468 -38.09,6.041 c -8.167,1.298 -12.6,-3.664 -10.993,-12.291 l 6.83,-36.742 c 1.208,-6.529 5.282,-11.95 10.733,-14.768 l 0.09,-0.979 19.109,-14.707 -11.163,1.877 c -5.94,0.938 -16.953,5.392 -23.951,14.317 -5.292,-6.313 -14.547,-8.786 -19.759,-7.959 l -41.055,6.521 6.69,-35.963 29.953,-4.752 c 15.944,-2.526 33.586,-20.458 36.721,-37.301 l 4.503,-24.232 C 257,27.137 245.149,13.888 229.204,16.415 l -65.457,10.384 -13.948,75.041 -60.275,9.565 c -5.102,0.81 -10.064,5.841 -11.062,11.231 L 55.935,243.79 c -0.999,5.394 2.326,9.113 7.429,8.31 l 115.008,-18.252 9.305,-50.021 4.682,-0.748 c 5.152,-0.809 4.393,-1.735 3.395,3.604 l -8.506,45.757 z m -85.343,-27.426 -38.459,6.101 1.448,-7.808 31.061,-4.937 7.558,-40.646 -31.061,4.935 1.447,-7.815 38.459,-6.103 z m -2.327,12.51 -3.195,17.192 -68.042,10.794 21.207,-114.12 56.211,-8.916 -2.906,15.635 -39.937,6.342 -6.1,32.828 32.539,-5.162 -2.905,15.627 -32.539,5.162 -6.11,32.836 z m 78.156,4.296 -16.274,2.571 7.927,-42.632 c 0.999,-5.344 -0.619,-7.078 -5.771,-6.262 l -28.355,4.504 -9.294,50.021 -16.275,2.586 12.201,-65.652 0.379,-0.063 53.984,-8.563 c 8.167,-1.299 12.6,3.652 10.993,12.289 z m 105.761,-80.506 15.905,-2.516 -12.211,65.652 -16.266,2.578 12.199,-65.646 z m 98.685,30.943 5.648,-30.372 c 1.791,-9.604 12.113,-19.04 20.908,-20.438 l 38.049,-6.029 c 6.412,-1.021 10.865,6.14 9.557,13.147 l -1.866,9.774 c -1.31,7.009 -8.468,14.458 -14.875,15.476 l -39.498,6.271 -0.568,3.545 c -0.75,4.031 1.926,7.18 5.621,6.591 l 44.147,-7.03 -2.975,16.02 -49.801,7.896 c -8.796,1.392 -16.124,-5.239 -14.347,-14.851 z M 188.206,80.568 193.728,50.865 214.435,47.58 c 2.716,-0.43 4.104,1.119 3.564,3.983 l -3.774,20.329 c -0.54,2.875 -2.596,4.961 -5.312,5.391 z"
         id="path16"
         inkscape:connector-curvature="0"
         style="fill:#ff0000" /><g
         id="g22"><path
           d="m 320.565,94.466 -4.395,-17.412 -2.479,0.299 -0.797,4.293 c -0.551,2.977 -2.943,5.4 -5.752,5.852 l -17.015,2.695 c -2.808,0.449 -4.414,-1.348 -3.862,-4.323 l 8.575,-46.117 c 0.55,-2.965 2.943,-5.392 5.748,-5.841 l 17.019,-2.695 c 2.807,-0.448 4.412,1.349 3.858,4.313 l -1.098,5.87 34.396,-5.462 1.307,-7.029 C 359.366,11.168 347.304,-2.32 330.509,0.335 L 297.603,5.558 C 280.82,8.224 262.849,26.475 259.555,44.216 l -9.154,49.243 c -3.295,17.741 8.766,31.229 25.56,28.564 l 11,-1.737 z"
           id="path18"
           inkscape:connector-curvature="0"
           style="fill:#ff0000" /><path
           d="m 344.946,83.962 c 0.898,-2.416 1.519,-3.334 1.979,-5.812 l 1.168,-6.26 -13.688,2.176 z"
           id="path20"
           inkscape:connector-curvature="0"
           style="fill:#ff0000" /></g></g></g></svg>