<?xml version="1.0" encoding="UTF-8" standalone="no"?>
<!-- Generator: Adobe Illustrator 13.0.0, SVG Export Plug-In . SVG Version: 6.00 Build 14948)  -->

<svg
   xmlns:ns="&amp;#38;ns_sfw;"
   xmlns:dc="http://purl.org/dc/elements/1.1/"
   xmlns:cc="http://creativecommons.org/ns#"
   xmlns:rdf="http://www.w3.org/1999/02/22-rdf-syntax-ns#"
   xmlns:svg="http://www.w3.org/2000/svg"
   xmlns="http://www.w3.org/2000/svg"
   xmlns:sodipodi="http://sodipodi.sourceforge.net/DTD/sodipodi-0.dtd"
   xmlns:inkscape="http://www.inkscape.org/namespaces/inkscape"
   version="1.2"
   id="Layer_3"
   x="0px"
   y="0px"
   width="576.73602"
   height="159.48225"
   viewBox="0 0 576.736 159.48225"
   xml:space="preserve"
   inkscape:version="0.92.2 (5c3e80d, 2017-08-06)"
   sodipodi:docname="controller.svg"><defs
     id="defs26" /><sodipodi:namedview
     pagecolor="#ffffff"
     bordercolor="#666666"
     borderopacity="1"
     objecttolerance="10"
     gridtolerance="10"
     guidetolerance="10"
     inkscape:pageopacity="0"
     inkscape:pageshadow="2"
     inkscape:window-width="1920"
     inkscape:window-height="1017"
     id="namedview24"
     showgrid="false"
     fit-margin-top="0"
     fit-margin-left="0"
     fit-margin-right="0"
     fit-margin-bottom="0"
     inkscape:zoom="0.48145317"
     inkscape:cx="289.26351"
     inkscape:cy="100.98699"
     inkscape:window-x="-8"
     inkscape:window-y="-8"
     inkscape:window-maximized="1"
     inkscape:current-layer="Layer_3" /><metadata
     id="metadata55"><rdf:RDF><cc:Work
         rdf:about=""><dc:format>image/svg+xml</dc:format><dc:type
           rdf:resource="http://purl.org/dc/dcmitype/StillImage" /><dc:title></dc:title></cc:Work></rdf:RDF><ns:sfw><ns:slices /><ns:sliceSourceBounds
         x="-7231"
         y="-7652"
         width="16383"
         height="16383"
         bottomLeftOrigin="true" /></ns:sfw></metadata><path
     id="path3"
     d="m 29.301,14.00175 c -7.519,0 -13.624,4.57875 -13.624,10.218 V 130.7505 c 0,5.64 6.105,10.23975 13.624,10.23975 h 518.128 c 7.519,0 13.625,-4.6005 13.625,-10.23975 V 24.21975 c 0,-5.63925 -6.106,-10.218 -13.625,-10.218 H 335.065 v 1.44975 h 212.364 c 6.474,0 11.691,3.91125 11.691,8.7675 v 106.53075 c 0,4.85625 -5.218,8.79 -11.691,8.79 H 29.301 c -6.475,0 -11.691,-3.93375 -11.691,-8.79 v -106.53 c 0,-4.8555 5.216,-8.7675 11.691,-8.7675 H 282.236 V 14.0025 H 29.301 Z"
     inkscape:connector-curvature="0"
     style="fill:#f4f4f4;stroke-width:0.86602539" /><path
     id="path5"
     d="M 13.624,0 C 6.105,0 0,4.57875 0,10.21875 v 139.0455 c 0,5.64 6.105,10.21875 13.624,10.218 h 549.458 c 7.518,0 13.654,-4.578 13.654,-10.218 V 10.2255 c 0,-5.64375 -6.129,-10.22175 -13.65,-10.22175 h -228.073 -0.756 l -0.181,0.5205 -0.121,0.3405 -0.029,0.09075 v 0.11325 23.3805 c 0,10.611 -11.47,19.19025 -25.617,19.19025 -14.147,0 -25.586,-8.58 -25.586,-19.19025 V 1.068 0.90975 L 282.662,0.7965 282.488,0.456 282.218,0.003 H 281.579 13.632 Z m 0,1.44975 H 280.789 V 24.4455 c 0,11.394 12.327,20.64075 27.518,20.64075 15.193,0 27.551,-9.24525 27.551,-20.64075 V 1.44975 h 227.221 c 6.474,0 11.721,3.91275 11.721,8.769 V 149.2575 c 0,4.8555 -5.247,8.76675 -11.721,8.76675 H 13.623 C 7.153,158.03125 1.936,154.1175 1.936,149.2665 V 10.22175 c 0,-4.85625 5.217,-8.7675 11.691,-8.7675 z"
     inkscape:connector-curvature="0"
     style="fill:#f4f4f4;stroke-width:0.86602539" /><path
     id="path7"
     d="m 278,14.7945 v 9.65025 c 0,12.546 13.574,22.725 30.299,22.725 16.727,0 30.329,-10.179 30.329,-22.725 V 14.862 h -1.934 v 9.58275 c 0,11.7615 -12.714,21.27525 -28.396,21.27525 -15.682,0 -28.365,-9.513 -28.365,-21.27525 V 14.7945 Z"
     inkscape:connector-curvature="0"
     style="fill:#f4f4f4;stroke-width:0.86602539" /><path
     id="line9"
     d="M 281.693,0.6345 V 2.085 h 53.136 V 0.6345 Z"
     inkscape:connector-curvature="0"
     style="fill:#f4f4f4;stroke-width:0.86602539" /><path
     id="circle11"
     d="m 139.895,52.17675 c -19.673,0 -35.646,11.9805 -35.646,26.7345 0,14.754 15.973,26.7345 35.646,26.7345 19.672,0 35.645,-11.9805 35.645,-26.7345 0,-14.754 -15.973,-26.7345 -35.645,-26.7345 z m 0,1.4505 c 18.627,0 33.712,11.31375 33.712,25.28475 0,13.9695 -15.085,25.284 -33.712,25.284 -18.628,0 -33.713,-11.3145 -33.713,-25.284 0,-13.971 15.085,-25.28475 33.713,-25.28475 z"
     inkscape:connector-curvature="0"
     style="fill:#f4f4f4;stroke-width:0.86602539" /><path
     id="circle13"
     d="m 139.895,66.67725 c -8.993,0 -16.313,5.49 -16.313,12.23475 0,6.744 7.319,12.23475 16.313,12.23475 8.992,0 16.282,-5.49 16.282,-12.23475 -0.001,-6.74475 -7.29,-12.23475 -16.282,-12.23475 z m 0,1.4505 c 7.947,0 14.349,4.82325 14.349,10.78425 0,5.96025 -6.401,10.78425 -14.349,10.78425 -7.948,0 -14.379,-4.824 -14.379,-10.78425 0,-5.961 6.43,-10.78425 14.379,-10.78425 z"
     inkscape:connector-curvature="0"
     style="fill:#f4f4f4;stroke-width:0.86602539" /><path
     id="circle15"
     d="m 139.895,69.35025 c -7.029,0 -12.749,4.28925 -12.749,9.561 0,5.271 5.72,9.561 12.749,9.561 7.028,0 12.748,-4.28925 12.748,-9.561 -0.001,-5.271 -5.72,-9.561 -12.748,-9.561 z m 0,1.4505 c 5.983,0 10.815,3.62325 10.815,8.11125 0,4.4865 -4.832,8.1105 -10.815,8.1105 -5.984,0 -10.815,-3.62325 -10.815,-8.1105 0,-4.48725 4.83,-8.11125 10.815,-8.11125 z"
     inkscape:connector-curvature="0"
     style="fill:#f4f4f4;stroke-width:0.86602539" /><path
     id="circle17"
     d="m 140.107,59.178 c -14.763,0 -26.733,9.0015 -26.733,20.073 0,11.07225 11.972,20.05125 26.733,20.05125 14.763,0 26.765,-8.97975 26.765,-20.05125 0,-11.0715 -12.002,-20.073 -26.765,-20.073 z m 0,1.4505 c 13.718,0 24.832,8.3355 24.832,18.62325 0,10.2885 -11.114,18.60075 -24.832,18.60075 -13.717,0 -24.8,-8.313 -24.8,-18.60075 0,-10.2885 11.083,-18.62325 24.8,-18.62325 z"
     inkscape:connector-curvature="0"
     style="fill:#f4f4f4;stroke-width:0.86602539" /><path
     id="circle19"
     d="m 269.271,61.01325 c -13.458,0 -24.377,8.19 -24.377,18.2835 0,10.0935 10.92,18.306 24.377,18.306 13.458,0 24.378,-8.2125 24.378,-18.306 0,-10.0935 -10.92,-18.2835 -24.378,-18.2835 z m 0,1.44975 c 12.413,0 22.445,7.524 22.445,16.83375 0,9.30975 -10.032,16.8555 -22.445,16.8555 -12.413,0 -22.444,-7.5465 -22.444,-16.8555 0,-9.309 10.031,-16.83375 22.444,-16.83375 z"
     inkscape:connector-curvature="0"
     style="fill:#f4f4f4;stroke-width:0.86602539" /><path
     id="circle21"
     d="m 344.4,61.01325 c -13.458,0 -24.378,8.19 -24.378,18.2835 0,10.0935 10.92,18.306 24.378,18.306 13.458,0 24.377,-8.2125 24.377,-18.306 0,-10.0935 -10.919,-18.2835 -24.377,-18.2835 z m 0,1.44975 c 12.411,0 22.444,7.524 22.444,16.83375 0,9.30975 -10.033,16.8555 -22.444,16.8555 -12.414,0 -22.445,-7.5465 -22.445,-16.8555 0,-9.309 10.031,-16.83375 22.445,-16.83375 z"
     inkscape:connector-curvature="0"
     style="fill:#f4f4f4;stroke-width:0.86602539" /><path
     id="circle23"
     d="m 419.528,61.01325 c -13.458,0 -24.378,8.19 -24.378,18.2835 0,10.0935 10.92,18.306 24.378,18.306 13.458,0 24.377,-8.2125 24.377,-18.306 0,-10.0935 -10.919,-18.2835 -24.377,-18.2835 z m 0,1.44975 c 12.413,0 22.444,7.524 22.444,16.83375 0,9.30975 -10.031,16.8555 -22.444,16.8555 -12.412,0 -22.445,-7.5465 -22.445,-16.8555 0,-9.309 10.033,-16.83375 22.445,-16.83375 z"
     inkscape:connector-curvature="0"
     style="fill:#f4f4f4;stroke-width:0.86602539" /><path
     id="circle25"
     d="m 494.658,61.01325 c -13.456,0 -24.381,8.19 -24.381,18.28725 0,10.0935 10.921,18.306 24.379,18.306 13.457,0 24.377,-8.2125 24.377,-18.306 0,-10.0935 -10.92,-18.2835 -24.377,-18.2835 z m 0,1.44975 c 12.411,0 22.443,7.524 22.443,16.83375 0,9.30975 -10.032,16.8555 -22.443,16.8555 -12.414,0 -22.445,-7.5465 -22.445,-16.8555 0,-9.309 10.031,-16.83375 22.445,-16.83375 z"
     inkscape:connector-curvature="0"
     style="fill:#f4f4f4;stroke-width:0.86602539" /><path
     id="path27"
     d="m 139.768,39.51225 c -14.418,0 -27.459,4.37625 -36.915,11.46375 -9.449,7.092 -15.283,16.8735 -15.285,27.68625 0.003,10.8135 5.836,20.5935 15.285,27.68625 9.456,7.08825 22.496,11.46225 36.915,11.463 14.419,-10e-4 27.459,-4.37625 36.915,-11.463 9.45,-7.09125 15.284,-16.87125 15.285,-27.68625 C 191.967,67.8495 186.133,58.068 176.683,50.976 167.229,43.88925 154.189,39.513 139.766,39.51225 Z m 0,1.4505 c 13.897,7.5e-4 26.447,4.206 35.555,11.03325 9.104,6.83175 14.71,16.245 14.711,26.66625 -0.001,10.4235 -5.608,19.812 -14.711,26.643 -9.108,6.82725 -21.658,11.055 -35.555,11.05575 -13.896,0 -26.446,-4.2285 -35.554,-11.05575 -9.1,-6.82875 -14.706,-16.21725 -14.708,-26.643 0.002,-10.422 5.609,-19.83375 14.708,-26.66625 9.105,-6.828 21.663,-11.03325 35.554,-11.03325 z"
     inkscape:connector-curvature="0"
     style="fill:#f4f4f4;stroke-width:0.86602539" /><path
     id="path29"
     d="m 269.271,57.77325 c -7.936,7.5e-4 -15.094,2.397 -20.3,6.2985 -5.202,3.9045 -8.426,9.273 -8.428,15.225 0.001,5.95125 3.227,11.34375 8.428,15.24825 5.206,3.90075 12.364,6.297 20.3,6.29775 7.936,-7.5e-4 15.094,-2.39775 20.3,-6.29775 5.2,-3.9045 8.426,-9.29625 8.427,-15.24825 -10e-4,-5.95125 -3.227,-11.31975 -8.427,-15.225 -5.206,-3.90075 -12.364,-6.29775 -20.3,-6.2985 z m 0,1.44975 c 7.416,7.5e-4 14.08,2.226 18.941,5.868 4.855,3.645 7.852,8.64375 7.854,14.20575 -0.002,5.56125 -2.999,10.55925 -7.854,14.20575 -4.861,3.64125 -11.526,5.88975 -18.941,5.8905 -7.416,-7.5e-4 -14.08,-2.2485 -18.94,-5.8905 -4.856,-3.64575 -7.853,-8.6445 -7.854,-14.20575 0,-5.562 2.997,-10.56 7.854,-14.20575 4.859,-3.642 11.524,-5.86725 18.94,-5.868 z"
     inkscape:connector-curvature="0"
     style="fill:#f4f4f4;stroke-width:0.86602539" /><path
     id="path31"
     d="m 344.4,57.77325 c -7.938,7.5e-4 -15.095,2.3985 -20.3,6.2985 -5.202,3.9045 -8.427,9.273 -8.429,15.225 0.002,5.95125 3.227,11.34375 8.429,15.24825 5.203,3.90075 12.362,6.297 20.3,6.29775 7.933,-10e-4 15.092,-2.39775 20.3,-6.29775 5.199,-3.9045 8.426,-9.29625 8.428,-15.24825 -0.002,-5.952 -3.229,-11.3205 -8.428,-15.225 -5.208,-3.9 -12.365,-6.29775 -20.3,-6.2985 z m 0,1.44975 c 7.414,7.5e-4 14.079,2.22675 18.94,5.868 4.854,3.64425 7.853,8.643 7.854,14.20575 -0.002,5.56125 -3,10.56 -7.854,14.20575 -4.861,3.64125 -11.526,5.889 -18.94,5.8905 -7.416,-0.002 -14.083,-2.24925 -18.94,-5.8905 -4.856,-3.645 -7.853,-8.6445 -7.854,-14.20575 0.002,-5.56275 2.998,-10.56 7.854,-14.20575 4.857,-3.6405 11.524,-5.86725 18.94,-5.868 z"
     inkscape:connector-curvature="0"
     style="fill:#f4f4f4;stroke-width:0.86602539" /><path
     id="path33"
     d="m 419.528,57.77325 c -7.936,7.5e-4 -15.091,2.3985 -20.3,6.2985 -5.2,3.90525 -8.427,9.273 -8.429,15.225 0.002,5.9505 3.229,11.34375 8.429,15.24825 5.209,3.9 12.364,6.297 20.3,6.29775 7.933,-7.5e-4 15.092,-2.39775 20.3,-6.29775 5.199,-3.9045 8.426,-9.297 8.428,-15.24825 -0.002,-5.952 -3.229,-11.319 -8.428,-15.225 -5.208,-3.9 -12.365,-6.29775 -20.3,-6.2985 z m 0,1.44975 c 7.414,7.5e-4 14.079,2.22675 18.94,5.868 4.855,3.64575 7.853,8.643 7.854,14.20575 -0.002,5.5605 -2.999,10.55925 -7.854,14.20575 -4.861,3.64125 -11.526,5.88975 -18.94,5.8905 -7.414,-7.5e-4 -14.077,-2.2485 -18.94,-5.8905 -4.854,-3.64575 -7.853,-8.64525 -7.854,-14.20575 0.002,-5.562 3,-10.55925 7.854,-14.20575 4.852,-3.65175 11.513,-5.8785 18.927,-5.8785 z"
     inkscape:connector-curvature="0"
     style="fill:#f4f4f4;stroke-width:0.86602539" /><path
     id="path35"
     d="m 494.658,57.77325 c -7.936,7.5e-4 -15.096,2.39775 -20.3,6.2985 -5.202,3.90525 -8.429,9.27375 -8.429,15.225 0,5.95125 3.227,11.34375 8.429,15.24825 5.204,3.9 12.364,6.297 20.3,6.29775 7.933,-10e-4 15.09,-2.39775 20.3,-6.29775 5.198,-3.9045 8.423,-9.29625 8.427,-15.24825 -0.002,-5.95125 -3.229,-11.319 -8.427,-15.225 -5.208,-3.90075 -12.365,-6.29625 -20.3,-6.2985 z m 0,1.44975 c 7.414,10e-4 14.076,2.226 18.94,5.868 4.855,3.64575 7.853,8.64375 7.854,14.20575 -0.002,5.56125 -2.999,10.55925 -7.854,14.20575 -4.862,3.64125 -11.526,5.889 -18.94,5.8905 -7.416,-0.002 -14.081,-2.2485 -18.941,-5.8905 -4.855,-3.64575 -7.854,-8.6445 -7.854,-14.20575 0,-5.562 2.998,-10.55925 7.854,-14.20575 4.86,-3.642 11.525,-5.86725 18.941,-5.868 z"
     inkscape:connector-curvature="0"
     style="fill:#f4f4f4;stroke-width:0.86602539" /><path
     id="path37"
     d="M 194.336,81.156"
     inkscape:connector-curvature="0"
     style="fill:none;stroke:#f4f4f4;stroke-width:1.67428696" /><path
     id="path39"
     d="m 139.768,34.50525 c -32.501,0.0023 -58.872,19.7805 -58.875,44.15625 0.002,24.375 26.373,44.15475 58.875,44.15625 31.051,-0.002 56.452,-18.07125 58.665,-40.94025 h 35.676 c 1.732,13.44525 16.789,23.9685 35.162,23.96925 18.368,-7.5e-4 33.421,-10.53075 35.163,-23.96925 h 4.803 c 1.741,13.43775 16.795,23.967 35.163,23.96925 18.366,-0.002 33.39,-10.533 35.132,-23.96925 h 4.833 c 1.737,13.44075 16.793,23.9685 35.163,23.96925 18.37,-7.5e-4 33.425,-10.527 35.162,-23.96925 h 4.803 c 1.745,13.437 16.796,23.9685 35.161,23.96925 19.535,-7.5e-4 35.371,-11.901 35.373,-26.55225 -0.002,-14.65125 -15.838,-26.52975 -35.373,-26.5305 -17.772,7.5e-4 -32.471,9.8415 -34.981,22.65525 h -5.195 C 451.964,62.59875 437.3,52.75875 419.525,52.7565 c -17.776,0.002 -32.44,9.84225 -34.951,22.656 h -5.226 c -2.512,-12.8145 -17.178,-22.656 -34.951,-22.656 -17.773,7.5e-4 -32.44,9.84 -34.951,22.656 h -5.226 c -2.519,-12.80625 -17.185,-22.65375 -34.95,-22.656 -17.771,0.003 -32.437,9.84375 -34.951,22.656 h -35.886 c -2.21,-22.86975 -27.612,-40.914 -58.665,-40.917 z m 0,1.4505 c 30.316,0.0023 55.059,17.748 56.821,40.14675 v 0.0225 l 0.03,0.0457 v 0.702 h 0.967 37.428 0.363 l 0.272,-0.15825 0.09,-0.045 0.272,-0.1815 0.06,-0.29475 c 2.042,-12.39225 16.113,-21.97425 33.199,-21.97575 17.06,0.002 31.123,9.567 33.2,21.93075 l 0.029,0.1365 0.091,0.13575 0.091,0.11325 0.302,0.33975 h 0.544 6.706 0.815 l 0.121,-0.61125 0.031,-0.15825 c 2.103,-12.3435 16.158,-21.885 33.198,-21.88575 17.065,7.5e-4 31.131,9.558 33.199,21.9315 l 0.029,0.204 0.182,0.15825 0.091,0.11325 0.302,0.249 h 0.453 6.677 0.694 l 0.211,-0.498 0.061,-0.11325 0.03,-0.0683 v -0.0675 c 2.117,-12.36975 16.171,-21.91425 33.232,-21.91575 17.063,7.5e-4 31.117,9.546 33.195,21.90825 v 0.0225 l 0.03,0.11325 0.121,0.612 h 0.815 6.767 0.635 l 0.241,-0.4305 0.03,-0.0682 0.061,-0.0908 0.03,-0.11325 c 2.054,-12.38175 16.123,-21.95325 33.198,-21.954 18.489,7.5e-4 33.438,11.21175 33.44,25.08 -0.002,13.8675 -14.951,25.10175 -33.44,25.10325 -17.654,-0.002 -32.105,-10.23 -33.38,-23.2215 v -0.1815 l -0.12,-0.13575 -0.061,-0.0682 -0.272,-0.36225 h -0.544 -6.403 -0.847 l -0.121,0.6345 v 0.0683 l -0.029,0.0217 v 0.0225 c -1.286,12.98475 -15.709,23.2215 -33.359,23.2215 -17.668,-10e-4 -32.125,-10.263 -33.379,-23.268 v -0.2265 l -0.211,-0.1815 -0.03,-0.0225 -0.302,-0.27225 h -0.453 -6.344 -0.423 l -0.272,0.2265 -0.09,0.0682 -0.241,0.1815 -0.031,0.2715 c -1.272,12.9915 -15.694,23.2185 -33.35,23.2215 -17.646,-0.003 -32.095,-10.21875 -33.38,-23.19975 v -0.0675 -0.0457 l -0.03,-0.0907 -0.181,-0.56625 h -0.756 -6.374 -0.544 l -0.271,0.36225 -0.091,0.11325 -0.12,0.13575 -0.031,0.18075 C 301.343,94.185 286.927,104.3895 269.293,104.391 251.71,104.39 237.317,94.2435 235.942,81.327 c 0,0.005 -0.002,-0.0525 0,-0.0675 v -0.0457 c 0,-0.063 0.006,-0.1365 -0.06,-0.2715 -0.067,-0.13575 -0.237,-0.333 -0.483,-0.4305 l -0.242,-0.0908 h -0.242 -37.306 -0.967 v 0.72525 0.0218 0.0225 c -1.75,22.40925 -26.527,40.16775 -56.851,40.17 -31.493,-0.0218 -56.975,-19.1333 -56.977,-42.7238 0.002,-23.59275 25.485,-42.70425 56.941,-42.7065 z"
     inkscape:connector-curvature="0"
     style="fill:#f4f4f4;stroke-width:0.86602539" /><path
     id="path41"
     d="M 234.917,81.14175"
     inkscape:connector-curvature="0"
     style="fill:none;stroke:#f4f4f4;stroke-width:1.67428696" /></svg>