<?xml version="1.0" encoding="UTF-8" standalone="no"?>
<!-- Generator: Adobe Illustrator 13.0.0, SVG Export Plug-In . SVG Version: 6.00 Build 14948)  -->

<svg
   xmlns:dc="http://purl.org/dc/elements/1.1/"
   xmlns:cc="http://creativecommons.org/ns#"
   xmlns:rdf="http://www.w3.org/1999/02/22-rdf-syntax-ns#"
   xmlns:svg="http://www.w3.org/2000/svg"
   xmlns="http://www.w3.org/2000/svg"
   xmlns:sodipodi="http://sodipodi.sourceforge.net/DTD/sodipodi-0.dtd"
   xmlns:inkscape="http://www.inkscape.org/namespaces/inkscape"
   version="1.2"
   id="Ebene_1"
   x="0px"
   y="0px"
   width="566.92902"
   height="106.73607"
   viewBox="0 -13.883 566.929 106.73607"
   xml:space="preserve"
   sodipodi:docname="logo.svg"
   inkscape:version="0.92.2 (5c3e80d, 2017-08-06)"><metadata
     id="metadata21"><rdf:RDF><cc:Work
         rdf:about=""><dc:format>image/svg+xml</dc:format><dc:type
           rdf:resource="http://purl.org/dc/dcmitype/StillImage" /><dc:title></dc:title></cc:Work></rdf:RDF></metadata><defs
     id="defs19" /><sodipodi:namedview
     pagecolor="#ffffff"
     bordercolor="#666666"
     borderopacity="1"
     objecttolerance="10"
     gridtolerance="10"
     guidetolerance="10"
     inkscape:pageopacity="0"
     inkscape:pageshadow="2"
     inkscape:window-width="1920"
     inkscape:window-height="1017"
     id="namedview17"
     showgrid="false"
     fit-margin-top="0"
     fit-margin-left="0"
     fit-margin-right="0"
     fit-margin-bottom="0"
     inkscape:zoom="0.61559735"
     inkscape:cx="283.46451"
     inkscape:cy="71.158255"
     inkscape:window-x="-8"
     inkscape:window-y="-8"
     inkscape:window-maximized="1"
     inkscape:current-layer="Ebene_1" /><path
     d="m 240.575,44.0635 c -14.877,11.163753 -14.877,29.256003 0,40.421253 14.885,11.15775 39.008,11.15775 53.893,0 12.871,-9.65325 14.605,-24.492 5.219,-35.544752 l -20.5,15.375002 c -0.016,2.22825 -1.151,4.4505 -3.414,6.14475 -4.557,3.41325 -11.945,3.41325 -16.502,0 -4.55,-3.41775 -4.55,-8.95575 0,-12.375 4.557,-3.41325 11.945,-3.41325 16.502,0 l 0.35,0.27825 18.705,-14.027253 -0.355,-0.272999 C 279.583,32.90575 255.46,32.90575 240.575,44.0635 Z"
     id="path2"
     inkscape:connector-curvature="0"
     style="fill:#5b5b5b;stroke-width:0.86602539" /><path
     d="M 92.1,92.737753 184.201,14.10775 h -38.433 l -58.87,44.952003 c -1.797,1.371 -4.713,1.371 -6.509,0 -1.796,-1.36875 -1.796,-3.59775 0,-4.97475 L 132.75,14.108501 H 0 Z"
     id="path4"
     inkscape:connector-curvature="0"
     style="fill:#494949;stroke-width:0.86602539" /><path
     d="m 503.134,64.145503 -31.893,28.125 h 26.061 l 24.832,-18.96075 c 1.439,-1.09725 3.771,-1.09725 5.211,0 1.438,1.09575 1.438,2.8755 0,3.9795 l -19.621,14.98425 h 59.205 l -31.893,-28.1265 31.893,-28.124253 h -26.061 l -24.832,18.961503 c -1.439,1.10325 -3.771,1.10325 -5.211,0 -1.439,-1.0965 -1.439,-2.874 0,-3.978 l 19.621,-14.984252 h -59.205 z"
     id="path6"
     inkscape:connector-curvature="0"
     style="fill:#5b5b5b;stroke-width:0.86602539" /><path
     d="m 356.339,36.021251 v 56.250002 h 23.938 v -36.5595 h 18.15 l 22.326,-19.690502 h -26.061 l -24.84,18.961502 c -1.432,1.10325 -3.766,1.10325 -5.201,0 -1.439,-1.0965 -1.439,-2.87475 0,-3.978 L 384.27,36.0205 Z"
     id="path8"
     inkscape:connector-curvature="0"
     style="fill:#5b5b5b;stroke-width:0.86602539" /><path
     d="m 338.494,36.259751 h 14.465 L 376.852,17.7415 H 338.498 V -13.883 l -58.351,50.142751 h 25.519 L 323.139,24.08725 c 1.439,-1.096499 3.773,-1.096499 5.203,0 1.438,1.104001 1.438,2.8815 0,3.9795 l -13.782,10.527 v 53.678253 h 23.938 V 36.259751 Z"
     id="path10"
     inkscape:connector-curvature="0"
     style="fill:#5b5b5b;stroke-width:0.86602539" /><path
     d="m 158.919,44.0635 c -14.877,11.163753 -14.877,29.256003 0,40.421253 14.885,11.15775 39.008,11.15775 53.893,0 12.871,-9.65325 14.605,-24.492 5.218,-35.544752 l -20.5,15.375002 c -0.016,2.22825 -1.151,4.4505 -3.414,6.14475 -3.741,2.79975 -9.379,3.30075 -13.796,1.5135 l 34.747,-26.060252 c -0.599,-0.536251 -4.425,-3.384 -5.576,-4.065 C 194.537,32.959 172.738,33.699251 158.919,44.0635 Z m 16.175,23.581503 c -1.765,-3.17175 -0.925,-6.97575 2.52,-9.558 3.445,-2.583 8.516,-3.21525 12.746,-1.89075 z"
     id="path12"
     inkscape:connector-curvature="0"
     style="fill:#5b5b5b;stroke-width:0.86602539" /><path
     d="m 418.664,44.0635 c -14.877,11.163753 -14.877,29.256003 0,40.421253 14.887,11.15775 39.01,11.15775 53.895,0 12.871,-9.65325 14.605,-24.492 5.223,-35.544752 l -20.5,15.375002 c -0.02,2.22825 -1.15,4.4505 -3.414,6.14475 -3.74,2.79975 -9.379,3.30075 -13.795,1.5135 l 34.746,-26.060252 c -0.604,-0.536251 -4.43,-3.384 -5.576,-4.065 -14.96,-8.889001 -36.759,-8.14875 -50.579,2.215499 z m 16.175,23.581503 c -1.766,-3.17175 -0.926,-6.97575 2.52,-9.558 3.445,-2.583 8.518,-3.21525 12.746,-1.89075 z"
     id="path14"
     inkscape:connector-curvature="0"
     style="fill:#5b5b5b;stroke-width:0.86602539" /></svg>