<?xml version="1.0" encoding="UTF-8" standalone="no"?>
<!-- Generator: Adobe Illustrator 13.0.0, SVG Export Plug-In . SVG Version: 6.00 Build 14948)  -->

<svg
   xmlns:ns="&amp;#38;ns_sfw;"
   xmlns:dc="http://purl.org/dc/elements/1.1/"
   xmlns:cc="http://creativecommons.org/ns#"
   xmlns:rdf="http://www.w3.org/1999/02/22-rdf-syntax-ns#"
   xmlns:svg="http://www.w3.org/2000/svg"
   xmlns="http://www.w3.org/2000/svg"
   xmlns:sodipodi="http://sodipodi.sourceforge.net/DTD/sodipodi-0.dtd"
   xmlns:inkscape="http://www.inkscape.org/namespaces/inkscape"
   version="1.2"
   id="Layer_3"
   x="0px"
   y="0px"
   width="342.55801"
   height="251.313"
   viewBox="0 0 342.558 251.313"
   xml:space="preserve"
   inkscape:version="0.92.2 (5c3e80d, 2017-08-06)"
   sodipodi:docname="controller.svg"><defs
     id="defs43" /><sodipodi:namedview
     pagecolor="#ffffff"
     bordercolor="#666666"
     borderopacity="1"
     objecttolerance="10"
     gridtolerance="10"
     guidetolerance="10"
     inkscape:pageopacity="0"
     inkscape:pageshadow="2"
     inkscape:window-width="1920"
     inkscape:window-height="1017"
     id="namedview41"
     showgrid="false"
     fit-margin-top="0"
     fit-margin-left="0"
     fit-margin-right="0"
     fit-margin-bottom="0"
     inkscape:zoom="0.48145317"
     inkscape:cx="172.39771"
     inkscape:cy="167.06799"
     inkscape:window-x="-8"
     inkscape:window-y="-8"
     inkscape:window-maximized="1"
     inkscape:current-layer="Layer_3" /><metadata
     id="metadata55"><rdf:RDF><cc:Work
         rdf:about=""><dc:format>image/svg+xml</dc:format><dc:type
           rdf:resource="http://purl.org/dc/dcmitype/StillImage" /><dc:title></dc:title></cc:Work></rdf:RDF><ns:sfw><ns:slices /><ns:sliceSourceBounds
         x="788.102"
         y="-7652"
         width="342.555"
         height="16383"
         bottomLeftOrigin="true" /></ns:sfw></metadata><path
     id="path3"
     d="m 5.8811977,83.81775 -1.493,0.0352 c 0.188,3.10575 -1.065,11.232 -2.543,18.846 -1.49599997,7.70625 -4.074,32.8005 1.983,53.6505 3.014,10.37775 6.5480003,20.7105 11.1760003,28.716 4.627,8.00475 10.375,13.7925 18.059,14.733 7.462,0.91425 12.823,-0.972 16.705,-5.03925 3.882,-4.0665 6.438,-10.2435 8.913,-18.11025 4.936,-15.699 10.158,-33.2505 11.246,-36.95625 0.493,-1.67925 2.223,-3.63975 4.503,-5.1285 2.28,-1.488 5.095,-2.49825 7.583,-2.4315 l 0.047,-1.10325 c -3.041,-0.081 -6.128,1.05675 -8.61,2.6775 -2.482,1.62 -4.375,3.7335 -4.97,5.757 -1.083,3.69525 -6.336,21.23475 -11.269,36.92175 -2.461,7.82625 -5.013,13.89225 -8.656,17.709 -3.644,3.81675 -8.212,5.448 -15.259,4.58475 -6.825,-0.83625 -12.388,-6.1965 -16.939,-14.07 -4.551,-7.87275 -8.0760003,-18.1545 -11.0830003,-28.50525 -5.98399997,-20.60175 -3.424,-45.68775 -1.96,-53.2305 1.483,-7.63425 2.774,-15.6465 2.567,-19.056 z"
     inkscape:connector-curvature="0"
     style="fill:#f4f4f4;stroke-width:0.86602539" /><path
     id="path5"
     d="m 97.807198,19.8075 c -0.575,0.012 -1.397,0.1155 -3.313,0.26325 -2.067,0.159 -10.274,1.20375 -19.389,2.51925 -9.115,1.3155 -19.028,2.8755 -24.288,4.07775 -5.285,1.2075 -11.05,3.47175 -15.632,5.5125 -2.291,1.01925 -4.292,1.974 -5.763,2.73 -0.736,0.378 -1.343,0.7065 -1.796,0.96225 -0.453,0.25575 -0.71,0.4065 -0.934,0.59475 -0.633,0.534 -0.742,1.2615 -0.792,2.32725 -0.052,1.06575 0.017,2.5035 0.116,4.42725 l 1.493,-0.0525 c -0.098,-1.92525 -0.164,-3.33375 -0.116,-4.32225 0.047,-0.98775 0.264,-1.51275 0.42,-1.64475 -0.027,0.0225 0.293,-0.195 0.723,-0.43725 0.429,-0.24225 1.005,-0.55725 1.727,-0.92775 1.443,-0.741 3.408,-1.6875 5.669,-2.69475 4.523,-2.013 10.251,-4.2465 15.329,-5.40675 5.104,-1.16625 15.03,-2.73 24.125,-4.0425 9.094,-1.3125 17.465,-2.38275 19.248,-2.51925 1.934,-0.1485 2.834,-0.23775 3.197,-0.24525 0.181,-0.003 0.189,7.5e-4 0.187,0 -0.003,-7.5e-4 0.066,0.0383 0.256,0.14025 l 0.863,-0.90975 c -0.155,-0.0833 -0.269,-0.16275 -0.513,-0.24525 -0.244,-0.0825 -0.529,-0.11175 -0.817,-0.1065 z"
     inkscape:connector-curvature="0"
     style="fill:#f4f4f4;stroke-width:0.86602539" /><path
     id="path7"
     d="m 171.0442,0 c -27.119,0 -51.562,5.02125 -68.851,13.107 l -0.42,0.192 0.07,0.3495 9.262,49.01325 -13.299002,-36.8865 -1.423,0.297 16.425002,45.6195 v 0.0172 l 0.024,0.0525 1.446,-0.21 v -0.0705 l -0.023,-0.0697 -10.872,-57.53475 c 16.968,-7.8405 40.99,-12.75675 67.661,-12.75675 h 0.444 c 26.664,0 50.694,4.9215 67.661,12.75675 l -10.873,57.60525 -0.023,0.0705 1.471,0.21 16.448,-45.68925 -1.446,-0.297 -13.321,36.99225 9.285,-49.119 0.07,-0.3495 -0.396,-0.192 c -17.289,-8.085 -41.755,-13.107 -68.875,-13.107 h -0.445 z"
     inkscape:connector-curvature="0"
     style="fill:#f4f4f4;stroke-width:0.86602539" /><path
     id="path9"
     d="m 101.7972,13.56075 c 0,0 -1.992002,3.066 -3.687002,6.57975 -0.852,1.7655 -1.309,3.0675 -2.077,3.972 -0.767,0.9045 -1.816,1.5 -4.223,1.959 -2.361,0.45225 -9.328,1.13925 -17.545,2.205 -8.218,1.06575 -17.76,2.529 -25.618,4.61925 -26.018,6.92175 -44.2830003,25.9065 -44.2830003,47.8065 0,28.1565 30.4550003,50.3205 67.9640003,50.991 16.527,0.29475 27.768002,1.8705 35.417002,4.1475 7.65,2.277 11.708,5.23425 14.092,8.38125 1.087,1.4355 2.283,5.2125 3.36,10.14975 1.077,4.9365 2.118,11.08575 3.15,17.5155 2.063,12.8595 4.12,26.82225 6.649,34.5945 3.063,9.4125 7.081,20.53725 12.716,29.3625 2.817,4.413 6.051,8.24175 9.8,11.007 3.748,2.7645 8.058,4.46175 12.948,4.46175 h 1.609 c 4.892,0 9.225,-1.698 12.973,-4.46175 3.747,-2.76525 6.959,-6.594 9.775,-11.007 5.636,-8.826 9.653,-19.95075 12.716,-29.3625 2.531,-7.7715 4.609,-21.735 6.674,-34.5945 1.031,-6.42975 2.05,-12.57825 3.125,-17.5155 1.078,-4.938 2.274,-8.71425 3.36,-10.14975 2.386,-3.147 6.467,-6.10425 14.114,-8.38125 7.65,-2.277 18.869,-3.85275 35.396,-4.1475 37.509,-0.6705 67.964,-22.83375 67.964,-50.991 0,-21.9 -18.266,-40.88475 -44.283,-47.8065 -7.857,-2.09025 -17.399,-3.5535 -25.617,-4.61925 -8.218,-1.06575 -15.185,-1.7535 -17.546,-2.205 -2.407,-0.459 -3.455,-1.0545 -4.224,-1.959 -0.766,-0.9045 -1.2,-2.2065 -2.051,-3.972 -1.695,-3.51375 -3.688,-6.57975 -3.688,-6.57975 l -1.354,0.4905 c 0,0 1.955,3.012 3.615,6.45675 0.828,1.713 1.258,3.069 2.218,4.2 0.96,1.131 2.482,1.9485 5.109,2.45025 2.673,0.51075 9.48,1.161 17.662,2.22225 8.183,1.06125 17.68,2.517 25.384,4.5675 25.415,6.7605 43.281,25.323 43.281,46.75575 0,27.55125 -29.772,49.215 -66.52,49.87125 -16.637,0.297 -28.011,1.8675 -35.905,4.2165 -7.896,2.3505 -12.313,5.5065 -14.863,8.8725 -1.379,1.8225 -2.438,5.5455 -3.523,10.51575 -1.083,4.97175 -2.117,11.136 -3.149,17.56875 -2.063,12.86775 -4.149,26.84775 -6.625,34.455 -3.057,9.39 -7.081,20.47125 -12.623,29.15325 -2.771,4.3395 -5.913,8.0835 -9.473,10.7085 -3.558,2.62425 -7.486,4.12875 -11.923,4.12875 h -1.609 c -4.436,0 -8.363,-1.5045 -11.922,-4.12875 -3.559,-2.625 -6.701,-6.369 -9.473,-10.7085 -5.542,-8.682 -9.566,-19.764 -12.622,-29.15325 -2.477,-7.60875 -4.562,-21.58725 -6.625,-34.455 -1.033,-6.43275 -2.066,-12.59775 -3.15,-17.56875 -1.083,-4.97025 -2.143,-8.694 -3.523,-10.51575 -2.55,-3.366 -6.967,-6.522 -14.862,-8.8725 -7.895,-2.349 -19.270002,-3.92025 -35.907002,-4.2165 -36.747,-0.65625 -66.5180003,-22.32 -66.5180003,-49.87125 0,-21.43275 17.8650003,-39.99525 43.2800003,-46.75575 7.705,-2.04975 17.202,-3.50625 25.384,-4.5675 8.183,-1.06125 14.989,-1.7115 17.663,-2.22225 2.626,-0.50175 4.149,-1.3185 5.109,-2.45025 0.96,-1.131 1.39,-2.48625 2.216,-4.2 1.662002,-3.44475 3.616002,-6.45675 3.616002,-6.45675 z"
     inkscape:connector-curvature="0"
     style="fill:#f4f4f4;stroke-width:0.86602539" /><path
     id="path11"
     d="m 336.6522,83.81775 c -0.206,3.40875 1.084,11.42175 2.566,19.056 1.464,7.54275 4.024,32.62875 -1.96,53.2305 -3.006,10.35075 -6.531,20.6325 -11.082,28.50525 -4.552,7.8735 -10.114,13.23375 -16.938,14.07 -7.047,0.8625 -11.592,-0.768 -15.236,-4.58475 -3.643,-3.81675 -6.218,-9.8835 -8.679,-17.709 -4.934,-15.687 -10.161,-33.2265 -11.247,-36.92175 -0.593,-2.0235 -2.51,-4.137 -4.993,-5.757 -2.481,-1.62075 -5.568,-2.75925 -8.608,-2.6775 l 0.069,1.10325 c 2.488,-0.0668 5.28,0.9435 7.56,2.4315 2.281,1.48875 4.012,3.44925 4.504,5.1285 1.087,3.705 6.332,21.258 11.269,36.95625 2.475,7.86675 5.03,14.0445 8.912,18.11025 3.884,4.06725 9.244,5.9535 16.706,5.03925 7.684,-0.9405 13.432,-6.72825 18.059,-14.733 4.628,-8.0055 8.161,-18.33825 11.176,-28.716 6.056,-20.85 3.479,-45.94425 1.983,-53.6505 -1.479,-7.61475 -2.756,-15.741 -2.567,-18.846 z"
     inkscape:connector-curvature="0"
     style="fill:#f4f4f4;stroke-width:0.86602539" /><path
     id="path13"
     d="m 244.7482,19.8075 c -0.287,-0.005 -0.572,0.0232 -0.816,0.10575 -0.243,0.0817 -0.382,0.16125 -0.537,0.24525 l 0.863,0.90975 c 0.192,-0.102 0.285,-0.141 0.281,-0.14025 -0.004,7.5e-4 -0.019,-0.003 0.162,0 0.364,0.007 1.264,0.0968 3.197,0.24525 1.783,0.13725 10.153,1.20675 19.248,2.51925 9.095,1.3125 19.045,2.87625 24.148,4.0425 5.077,1.161 10.783,3.39375 15.306,5.40675 2.262,1.00725 4.227,1.95375 5.668,2.69475 0.723,0.37125 1.322,0.68625 1.75,0.92775 0.43,0.2415 0.728,0.4605 0.701,0.43725 0.156,0.13275 0.396,0.657 0.443,1.64475 0.048,0.9885 -0.019,2.397 -0.117,4.32225 l 1.47,0.0525 c 0.099,-1.92375 0.192,-3.36075 0.14,-4.42725 -0.051,-1.06575 -0.183,-1.79325 -0.816,-2.32725 -0.224,-0.189 -0.479,-0.33975 -0.934,-0.59475 -0.453,-0.255 -1.059,-0.58425 -1.796,-0.96225 -1.472,-0.756 -3.449,-1.71 -5.739,-2.73 -4.582,-2.04 -10.369,-4.30425 -15.655,-5.5125 -5.261,-1.20225 -15.173,-2.7615 -24.288,-4.07775 -9.114,-1.3155 -17.299,-2.36025 -19.365,-2.51925 -1.916,-0.147 -2.738,-0.2505 -3.314,-0.2625 z"
     inkscape:connector-curvature="0"
     style="fill:#f4f4f4;stroke-width:0.86602539" /><path
     id="circle15"
     d="m 63.277198,54.47325 c -21.771,0 -39.43,13.26225 -39.43,29.58975 0,16.3275 17.659,29.5725 39.43,29.5725 21.771,0 39.430002,-13.245 39.430002,-29.5725 0,-16.3275 -17.659002,-29.58975 -39.430002,-29.58975 z m 0,1.11975 c 20.964,0 37.937002,12.747 37.937002,28.47 0,15.723 -16.973002,28.4535 -37.937002,28.4535 -20.964,0 -37.937,-12.72975 -37.937,-28.4535 0,-15.723 16.972,-28.47 37.937,-28.47 z"
     inkscape:connector-curvature="0"
     style="fill:#f4f4f4;stroke-width:0.86602539" /><path
     id="circle17"
     d="m 171.2782,78.23625 c -10.215,0 -18.525,6.2325 -18.525,13.89375 0,7.66125 8.31,13.87575 18.525,13.87575 10.215,0 18.501,-6.2145 18.501,-13.87575 0.001,-7.662 -8.286,-13.89375 -18.501,-13.89375 z m 0,1.11975 c 9.408,0 17.007,5.718 17.007,12.774 0,7.05525 -7.6,12.75675 -17.007,12.75675 -9.407,0 -17.032,-5.7015 -17.032,-12.75675 0,-7.05675 7.624,-12.774 17.032,-12.774 z"
     inkscape:connector-curvature="0"
     style="fill:#f4f4f4;stroke-width:0.86602539" /><path
     id="circle19"
     d="m 171.2782,116.06775 c -20.899,0 -37.867,12.72675 -37.867,28.40025 0,15.6735 16.968,28.383 37.867,28.383 20.899,0 37.842,-12.70875 37.842,-28.383 0,-15.67425 -16.943,-28.40025 -37.842,-28.40025 z m 0,1.11975 c 20.091,0 36.35,12.2115 36.35,27.2805 0,15.069 -16.259,27.26325 -36.35,27.26325 -20.092,0 -36.374,-12.19425 -36.374,-27.26325 0,-15.069 16.282,-27.2805 36.374,-27.2805 z"
     inkscape:connector-curvature="0"
     style="fill:#f4f4f4;stroke-width:0.86602539" /><path
     id="circle21"
     d="m 171.2782,81.64875 c -7.708,0 -13.976,4.701 -13.976,10.482 0,5.78025 6.268,10.482 13.976,10.482 7.708,0 13.975,-4.70175 13.975,-10.482 0,-5.78175 -6.266,-10.482 -13.975,-10.482 z m 0,1.11975 c 6.901,0 12.482,4.1865 12.482,9.3615 0,5.175 -5.581,9.3615 -12.482,9.3615 -6.901,0 -12.482,-4.18575 -12.482,-9.3615 0,-5.17575 5.581,-9.3615 12.482,-9.3615 z"
     inkscape:connector-curvature="0"
     style="fill:#f4f4f4;stroke-width:0.86602539" /><path
     id="circle23"
     d="m 243.6992,80.2485 c -8.471,0 -15.354,5.16075 -15.354,11.514 0,6.35325 6.883,11.514 15.354,11.514 8.471,0 15.354,-5.16075 15.354,-11.514 -10e-4,-6.35325 -6.884,-11.514 -15.354,-11.514 z m 0,1.11975 c 7.664,0 13.859,4.64625 13.859,10.39425 0,5.74725 -6.195,10.3935 -13.859,10.3935 -7.663,0 -13.859,-4.64625 -13.859,-10.3935 -0.001,-5.748 6.195,-10.39425 13.859,-10.39425 z"
     inkscape:connector-curvature="0"
     style="fill:#f4f4f4;stroke-width:0.86602539" /><path
     id="circle25"
     d="m 268.9672,98.90175 c -8.472,0 -15.354,5.16075 -15.354,11.514 0,6.35325 6.882,11.514 15.354,11.514 8.471,0 15.352,-5.16075 15.352,-11.514 0,-6.35325 -6.881,-11.514 -15.352,-11.514 z m 0,1.11975 c 7.664,0 13.858,4.64625 13.858,10.39425 0,5.748 -6.194,10.39425 -13.858,10.39425 -7.664,0 -13.859,-4.64625 -13.859,-10.39425 0,-5.748 6.195,-10.39425 13.859,-10.39425 z"
     inkscape:connector-curvature="0"
     style="fill:#f4f4f4;stroke-width:0.86602539" /><path
     id="path27"
     d="m 55.577198,60.70275 c -2.803,0 -5.086,1.713 -5.086,3.8145 v 8.679 c 0,0.51525 -0.091,0.84975 -0.233,0.9975 -0.143,0.14775 -0.383,0.2805 -1.237,0.2805 h -11.805 c -2.802,0 -5.086,1.713 -5.086,3.8145 V 89.838 c 0,2.1015 2.284,3.8145 5.086,3.8145 h 11.642 c 0.568,7.5e-4 0.964,0.102 1.213,0.2805 0.249,0.1785 0.42,0.45825 0.42,0.94425 v 8.73225 c 0,2.1015 2.284,3.8145 5.086,3.8145 h 15.398 c 2.802,0 5.087,-1.713 5.087,-3.8145 V 94.86 c 0,-0.65775 0.185,-0.89625 0.373,-1.01475 0.188,-0.11775 0.573,-0.19275 1.19,-0.19275 h 11.712 c 2.802,0 5.086,-1.713 5.086,-3.8145 V 78.28875 c 0,-2.1015 -2.284,-3.8145 -5.086,-3.8145 h -11.689 c -0.897,0 -1.586,-0.4305 -1.586,-1.22475 v -8.73225 c 0,-2.1015 -2.285,-3.8145 -5.087,-3.8145 z m 0,1.119 h 15.398 c 1.994,0 3.593,1.19925 3.593,2.69475 v 8.73225 c 0,1.35225 1.445,2.3445 3.08,2.3445 h 11.689 c 1.995,0 3.593,1.1985 3.593,2.69475 v 11.54925 c 0,1.4955 -1.598,2.69475 -3.593,2.69475 h -11.712 c -0.748,0 -1.524,0.063 -2.146,0.4545 -0.622,0.39075 -0.91,1.038 -0.91,1.872 v 8.7495 c 0,1.4955 -1.599,2.69475 -3.593,2.69475 h -15.398 c -1.996,0 -3.593,-1.19925 -3.593,-2.69475 v -8.73225 c 0,-0.7095 -0.304,-1.332 -0.886,-1.74975 -0.582,-0.417 -1.394,-0.59475 -2.24,-0.59475 h -11.642 c -1.996,0 -3.593,-1.2 -3.593,-2.69475 V 78.28725 c 0,-1.49625 1.597,-2.69475 3.593,-2.69475 h 11.805 c 1.105,0 1.972,-0.2565 2.45,-0.75225 0.479,-0.4965 0.513,-1.06275 0.513,-1.64475 v -8.67825 c -10e-4,-1.49625 1.597,-2.6955 3.592,-2.6955 z"
     inkscape:connector-curvature="0"
     style="fill:#f4f4f4;stroke-width:0.86602539" /><path
     id="path29"
     d="m 56.604198,62.52225 c -2.486,0 -4.527,1.5315 -4.527,3.39525 v 8.71425 c 0,0.4425 -0.084,0.717 -0.187,0.822 -0.102,0.10575 -0.279,0.21 -1.003,0.21 h -11.806 c -2.485,0 -4.526,1.5135 -4.526,3.37725 v 10.02675 c 0,1.86375 2.041,3.3945 4.526,3.3945 h 11.689 c 0.475,0 0.786,0.0885 0.979,0.22725 0.194,0.1395 0.327,0.345 0.327,0.753 v 8.766 c 0,1.86375 2.041,3.37725 4.527,3.37725 h 13.345 c 2.485,0 4.526,-1.5135 4.526,-3.37725 v -8.784 c 0,-0.56025 0.146,-0.738 0.281,-0.82275 0.134,-0.084 0.453,-0.14025 0.98,-0.14025 h 11.735 c 2.486,0 4.526,-1.53075 4.526,-3.3945 V 79.04025 c 0,-1.86375 -2.041,-3.37725 -4.526,-3.37725 h -11.712 c -0.731,0 -1.284,-0.32775 -1.284,-0.98025 v -8.766 c 0,-1.86375 -2.041,-3.39525 -4.526,-3.39525 h -13.344 z m 0,1.1205 h 13.345 c 1.678,0 3.033,1.0155 3.033,2.27475 v 8.76675 c 0,1.2105 1.309,2.1 2.776,2.1 h 11.712 c 1.679,0 3.033,0.999 3.033,2.2575 V 89.0685 c 0,1.2585 -1.354,2.27475 -3.033,2.27475 h -11.735 c -0.659,0 -1.368,0.0457 -1.938,0.40275 -0.568,0.35775 -0.816,0.945 -0.816,1.68 v 8.784 c 0,1.25925 -1.355,2.2575 -3.033,2.2575 h -13.345 c -1.679,0 -3.034,-0.99825 -3.034,-2.2575 v -8.766 c 0,-0.63075 -0.266,-1.17975 -0.793,-1.55775 -0.527,-0.378 -1.253,-0.543 -2.006,-0.543 h -11.689 c -1.678,0 -3.033,-1.01625 -3.033,-2.27475 V 79.04175 c 0,-1.2585 1.354,-2.2575 3.033,-2.2575 h 11.806 c 0.975,0 1.779,-0.228 2.216,-0.6825 0.438,-0.4545 0.467,-0.96 0.467,-1.46925 v -8.71575 c 0.001,-1.2585 1.355,-2.274 3.034,-2.274 z"
     inkscape:connector-curvature="0"
     style="fill:#f4f4f4;stroke-width:0.86602539" /><path
     id="path31"
     d="m 77.742198,79.0065 c -1.167,0 -2.124,0.71775 -2.124,1.59225 v 6.912 c 0,0.8745 0.957,1.6095 2.124,1.6095 0.419,0 0.811,-0.10275 1.144,-0.2625 0.007,-0.005 0.015,-0.0143 0.023,-0.018 h 0.023 l 7.559,-3.42975 h 0.023 c 0.605,-0.28125 1.003,-0.78 1.003,-1.347 0,-0.6015 -0.455,-1.12875 -1.12,-1.40025 l -0.023,-0.0172 -7.466,-3.3765 c -0.006,-0.003 -0.017,0.002 -0.023,0 -0.333,-0.165 -0.716,-0.2625 -1.143,-0.2625 z m 0,1.119 c 0.134,0 0.249,0.0187 0.35,0.0697 v 0.0172 h 0.023 l 7.513,3.4125 h 0.023 l 0.023,0.0173 c 0.202,0.0795 0.35,0.23175 0.35,0.42 0,0.17475 -0.125,0.3195 -0.304,0.40275 l -7.605,3.42975 v 0.0172 h -0.023 c -0.1,0.051 -0.214,0.0877 -0.35,0.0877 -0.359,0 -0.629,-0.21975 -0.629,-0.48975 v -6.912 c 0,-0.26925 0.27,-0.4725 0.629,-0.4725 z"
     inkscape:connector-curvature="0"
     style="fill:#f4f4f4;stroke-width:0.86602539" /><path
     id="circle33"
     d="m 63.277198,79.1985 c -3.565,0 -6.463,2.19075 -6.463,4.8645 0,2.67375 2.898,4.84725 6.463,4.84725 3.565,0 6.463,-2.1735 6.463,-4.84725 0,-2.67375 -2.898,-4.8645 -6.463,-4.8645 z m 0,1.1205 c 2.758,0 4.969,1.6755 4.969,3.744 0,2.0685 -2.211,3.7275 -4.969,3.7275 -2.758,0 -4.97,-1.659 -4.97,-3.7275 0,-2.0685 2.211,-3.744 4.97,-3.744 z"
     inkscape:connector-curvature="0"
     style="fill:#f4f4f4;stroke-width:0.86602539" /><path
     id="path35"
     d="m 63.277198,65.88225 c -0.791,0 -1.478,0.33525 -1.843,0.822 -0.011,0.0143 -0.037,0.0203 -0.047,0.0353 l -4.479,5.5995 -0.023,-0.0173 c -0.008,0.01 0.008,0.0255 0,0.0345 -0.21,0.2475 -0.35,0.54375 -0.35,0.85725 0,0.8745 0.956,1.59225 2.124,1.59225 h 9.239 c 1.167,0 2.123,-0.717 2.123,-1.59225 0,-0.3225 -0.15,-0.6225 -0.374,-0.87525 v -0.0172 l -4.549,-5.68725 h -0.023 c -0.377,-0.45075 -1.04,-0.7515 -1.798,-0.7515 z m 0,1.11975 c 0.233,0 0.424,0.0923 0.537,0.22725 l 4.572,5.68725 0.023,0.0172 v 0.0173 c 0.068,0.0757 0.117,0.162 0.117,0.2625 0,0.26925 -0.269,0.4725 -0.629,0.4725 h -9.239 c -0.361,0 -0.631,-0.2025 -0.631,-0.4725 0,-0.1005 0.049,-0.186 0.117,-0.2625 v -0.0173 l 4.55,-5.65275 v -0.0165 h 0.023 c 0.105,-0.15225 0.308,-0.2625 0.56,-0.2625 z"
     inkscape:connector-curvature="0"
     style="fill:#f4f4f4;stroke-width:0.86602539" /><path
     id="path37"
     d="m 48.811198,79.0065 c -0.42,0 -0.813,0.0847 -1.144,0.2445 l -0.046,0.0173 -7.56,3.42975 h -0.024 c -0.603,0.28125 -1.002,0.7965 -1.002,1.36425 0,0.603 0.455,1.1295 1.12,1.40025 l 0.023,0.0173 7.466,3.35925 0.023,0.018 v -0.018 c 0.335,0.16425 0.718,0.2805 1.144,0.2805 1.166,0 2.146,-0.735 2.146,-1.6095 v -6.912 c 0.001,-0.87525 -0.98,-1.5915 -2.146,-1.5915 z m 0,1.119 c 0.359,0 0.653,0.20325 0.653,0.4725 v 6.912 c 0,0.26925 -0.293,0.48975 -0.653,0.48975 -0.136,0 -0.25,-0.036 -0.35,-0.0877 l -0.023,-0.0172 -7.513,-3.3945 -0.023,-0.0173 h -0.023 c -0.203,-0.0795 -0.35,-0.2325 -0.35,-0.42075 0,-0.17475 0.124,-0.31875 0.303,-0.402 l 7.606,-3.44775 0.023,-0.0172 c 0.101,-0.051 0.215,-0.0697 0.35,-0.0697 z"
     inkscape:connector-curvature="0"
     style="fill:#f4f4f4;stroke-width:0.86602539" /><path
     id="path39"
     d="m 58.657198,93.30225 c -1.167,0 -2.124,0.71775 -2.124,1.593 0,0.31425 0.136,0.62475 0.35,0.8745 l 0.023,0.0352 4.549,5.66925 h 0.024 c 0.375,0.45375 1.039,0.75225 1.796,0.75225 0.792,0 1.478,-0.336 1.843,-0.82275 h 0.023 c 0.008,-0.0112 0.016,-0.0232 0.024,-0.0352 l 4.502,-5.5815 v -0.018 c 0.219,-0.2505 0.35,-0.555 0.35,-0.8745 0,-0.876 -0.957,-1.593 -2.123,-1.593 h -9.237 z m 0,1.11975 h 9.239 c 0.359,0 0.629,0.20325 0.629,0.4725 0,0.0998 -0.048,0.20325 -0.117,0.27975 v 0.0173 l -4.55,5.63475 v 0.0172 l -0.023,0.0173 c -0.106,0.153 -0.309,0.24525 -0.56,0.24525 -0.234,0 -0.425,-0.075 -0.537,-0.21 l -4.573,-5.7045 -0.023,-0.0173 c -0.067,-0.075 -0.117,-0.17925 -0.117,-0.27975 0.002,-0.26925 0.272,-0.4725 0.632,-0.4725 z"
     inkscape:connector-curvature="0"
     style="fill:#f4f4f4;stroke-width:0.86602539" /><path
     id="polygon41"
     d="m 169.8552,126.96975 -0.21,0.0517 -16.728,4.79475 -0.373,0.105 -0.093,0.2805 -4.457,13.1415 -0.047,0.174 0.07,0.1755 6.393,12.54675 0.14,0.26175 0.373,0.0705 17.544,3.342 0.21,0.036 0.234,-0.0517 16.729,-4.79625 0.35,-0.105 0.094,-0.27975 4.455,-13.14075 0.071,-0.1755 -0.094,-0.174 -6.393,-12.52875 -0.141,-0.2805 -0.372,-0.0705 -17.522,-3.34125 z m 0.094,1.17225 16.915,3.21975 6.159,12.1095 -4.294,12.68625 -16.145,4.62 -16.915,-3.21975 -6.16,-12.1095 4.293,-12.68625 z"
     inkscape:connector-curvature="0"
     style="fill:#f4f4f4;stroke-width:0.86602539" /><path
     id="circle43"
     d="m 171.2782,130.977 c -9.925,0 -17.989,6.04725 -17.989,13.491 0,7.44375 8.064,13.47375 17.989,13.47375 9.924,0 17.988,-6.03 17.988,-13.47375 0,-7.44375 -8.064,-13.491 -17.988,-13.491 z m 0,1.1205 c 9.118,0 16.495,5.532 16.495,12.3705 0,6.83775 -7.377,12.354 -16.495,12.354 -9.118,0 -16.495,-5.5155 -16.495,-12.354 0,-6.8385 7.377,-12.3705 16.495,-12.3705 z"
     inkscape:connector-curvature="0"
     style="fill:#f4f4f4;stroke-width:0.86602539" /><path
     id="line45"
     d="m 252.9852,100.16175 -1.003,0.80475 4.619,3.27225 1.026,-0.82275 z"
     inkscape:connector-curvature="0"
     style="fill:#f4f4f4;stroke-width:0.86602539" /><path
     id="line47"
     d="m 256.2502,97.48425 -1.026,0.82275 4.645,3.25425 1.025,-0.80475 z"
     inkscape:connector-curvature="0"
     style="fill:#f4f4f4;stroke-width:0.86602539" /><g
     id="g49"
     transform="matrix(1,0,0,0.75,-126.6968,-5.3355)"><path
       id="path51"
       d="m 402.872,99.087 c -0.419,0 -0.812,0.114 -1.143,0.326 l -0.047,0.024 -7.559,4.572 H 394.1 c -0.604,0.376 -1.003,1.039 -1.003,1.797 0,0.803 0.456,1.505 1.118,1.867 l 0.024,0.023 7.466,4.503 0.023,0.023 v -0.023 c 0.334,0.216 0.718,0.35 1.143,0.35 1.167,0 2.147,-0.957 2.147,-2.123 v -9.216 c 0.002,-1.168 -0.979,-2.123 -2.146,-2.123 z m 0,1.493 c 0.361,0 0.653,0.271 0.653,0.63 v 9.216 c 0,0.359 -0.291,0.629 -0.653,0.629 -0.132,0 -0.246,-0.025 -0.35,-0.093 v -0.023 H 402.5 l -7.514,-4.526 -0.022,-0.023 h -0.023 c -0.201,-0.106 -0.351,-0.332 -0.351,-0.583 0,-0.226 0.133,-0.399 0.304,-0.513 l 7.606,-4.597 h 0.022 v -0.023 c 0.104,-0.07 0.216,-0.094 0.35,-0.094 z"
       inkscape:connector-curvature="0"
       style="fill:#f4f4f4" /><path
       id="circle53"
       d="m 400.237,94.163 c -6.428,0 -11.644,5.24 -11.644,11.666 0,6.427 5.216,11.643 11.644,11.643 6.425,0 11.665,-5.216 11.665,-11.643 0,-6.426 -5.24,-11.666 -11.665,-11.666 z m 0,1.494 c 5.619,0 10.172,4.553 10.172,10.172 0,5.62 -4.553,10.15 -10.172,10.15 -5.619,0 -10.149,-4.53 -10.149,-10.15 0,-5.62 4.53,-10.172 10.149,-10.172 z"
       inkscape:connector-curvature="0"
       style="fill:#f4f4f4" /><path
       id="path55"
       d="m 441.627,99.087 c -1.167,0 -2.147,0.957 -2.147,2.123 v 9.216 c 0,1.167 0.98,2.123 2.147,2.123 0.419,0 0.811,-0.113 1.144,-0.327 0.008,-0.005 0.016,-0.018 0.022,-0.023 h 0.023 l 7.559,-4.573 h 0.024 c 0.604,-0.375 1.003,-1.039 1.003,-1.797 0,-0.802 -0.455,-1.505 -1.12,-1.867 l -0.023,-0.023 -7.466,-4.502 c -0.006,-0.005 -0.017,0.003 -0.022,0 -0.335,-0.219 -0.717,-0.35 -1.144,-0.35 z m 0,1.493 c 0.132,0 0.247,0.024 0.349,0.093 v 0.023 H 442 l 7.513,4.527 0.022,0.023 h 0.023 c 0.207,0.107 0.351,0.33 0.351,0.583 0,0.227 -0.135,0.401 -0.304,0.514 l -7.605,4.595 -0.024,0.023 c -0.099,0.067 -0.211,0.093 -0.349,0.093 -0.359,0 -0.654,-0.27 -0.654,-0.629 v -9.216 c 0,-0.359 0.295,-0.629 0.654,-0.629 z"
       inkscape:connector-curvature="0"
       style="fill:#f4f4f4" /><path
       id="circle57"
       d="m 444.263,94.163 c -6.427,0 -11.665,5.24 -11.665,11.666 0,6.427 5.238,11.643 11.665,11.643 6.427,0 11.643,-5.216 11.643,-11.643 -0.001,-6.426 -5.217,-11.666 -11.643,-11.666 z m 0,1.494 c 5.619,0 10.15,4.553 10.15,10.172 0,5.62 -4.531,10.15 -10.15,10.15 -5.62,0 -10.173,-4.53 -10.173,-10.15 0,-5.62 4.553,-10.172 10.173,-10.172 z"
       inkscape:connector-curvature="0"
       style="fill:#f4f4f4" /></g><g
     id="g59"
     transform="matrix(1,0,0,0.75,-126.6968,-5.3355)"><path
       id="path61"
       d="m 422.262,76.665 c -0.757,0 -1.444,0.4 -1.82,1.003 v 0.023 l -4.572,7.559 c -0.005,0.006 0.004,0.018 0,0.024 l -0.024,0.023 c -0.211,0.332 -0.326,0.724 -0.326,1.143 0,1.166 0.956,2.146 2.123,2.146 h 9.216 c 1.167,0 2.147,-0.979 2.147,-2.146 0,-0.426 -0.152,-0.808 -0.373,-1.143 v -0.023 l -4.504,-7.467 c -0.004,-0.01 -0.017,-0.013 -0.023,-0.023 -0.362,-0.663 -1.042,-1.119 -1.844,-1.119 z m 0,1.493 c 0.251,0 0.454,0.147 0.56,0.35 v 0.023 l 0.023,0.023 4.526,7.513 0.023,0.023 c 0.067,0.1 0.116,0.217 0.116,0.35 0,0.359 -0.292,0.654 -0.653,0.654 h -9.216 c -0.361,0 -0.63,-0.294 -0.63,-0.654 0,-0.136 0.025,-0.25 0.093,-0.35 l 0.023,-0.023 4.597,-7.606 c 0.115,-0.171 0.31,-0.303 0.538,-0.303 z"
       inkscape:connector-curvature="0"
       style="fill:#f4f4f4" /><path
       id="circle63"
       d="m 422.262,72.162 c -6.427,0 -11.666,5.215 -11.666,11.642 0,6.427 5.239,11.666 11.666,11.666 6.428,0 11.642,-5.239 11.642,-11.666 -10e-4,-6.427 -5.215,-11.642 -11.642,-11.642 z m 0,1.493 c 5.619,0 10.148,4.528 10.148,10.149 0,5.62 -4.529,10.173 -10.148,10.173 -5.62,0 -10.173,-4.553 -10.173,-10.173 0,-5.62 4.553,-10.149 10.173,-10.149 z"
       inkscape:connector-curvature="0"
       style="fill:#f4f4f4" /><path
       id="path65"
       d="m 417.642,123.048 c -1.167,0 -2.123,0.979 -2.123,2.146 0,0.425 0.13,0.809 0.351,1.143 h -0.024 l 0.024,0.024 4.503,7.466 0.022,0.023 c 0.362,0.665 1.064,1.12 1.867,1.12 0.757,0 1.421,-0.401 1.796,-1.003 v -0.023 l 4.574,-7.56 v -0.023 c 0.005,-0.008 0.018,-0.015 0.021,-0.024 0.214,-0.33 0.352,-0.721 0.352,-1.143 0,-1.167 -0.979,-2.146 -2.147,-2.146 z m 0,1.493 h 9.216 c 0.361,0 0.653,0.294 0.653,0.653 0,0.134 -0.046,0.248 -0.116,0.351 l -0.023,0.023 -4.597,7.606 c -0.113,0.172 -0.287,0.304 -0.513,0.304 -0.253,0 -0.478,-0.147 -0.584,-0.35 v -0.023 l -0.023,-0.023 -4.526,-7.513 -0.023,-0.023 c -0.065,-0.099 -0.093,-0.215 -0.093,-0.351 -10e-4,-0.361 0.269,-0.654 0.629,-0.654 z"
       inkscape:connector-curvature="0"
       style="fill:#f4f4f4" /><path
       id="circle67"
       d="m 422.262,116.165 c -6.427,0 -11.666,5.239 -11.666,11.666 0,6.426 5.239,11.642 11.666,11.642 6.427,0 11.642,-5.216 11.642,-11.642 -10e-4,-6.427 -5.216,-11.666 -11.642,-11.666 z m 0,1.493 c 5.619,0 10.148,4.553 10.148,10.173 0,5.619 -4.529,10.149 -10.148,10.149 -5.62,0 -10.173,-4.53 -10.173,-10.149 0,-5.62 4.553,-10.173 10.173,-10.173 z"
       inkscape:connector-curvature="0"
       style="fill:#f4f4f4" /></g><path
     id="path69"
     d="m 284.5292,55.4355 c -6.164,2.058 -11.121,5.778 -13.835,10.4115 l 1.376,0.4545 c 2.564,-4.377 7.244,-7.908 13.065,-9.852 z"
     inkscape:connector-curvature="0"
     style="fill:#f4f4f4;stroke-width:0.86602539" /><path
     id="path71"
     d="m 272.1392,81.89325 -1.352,0.4545 c 2.729,4.5675 7.623,8.2335 13.719,10.27125 l 0.629,-1.01475 c -5.757,-1.9245 -10.416,-5.397 -12.996,-9.711 z"
     inkscape:connector-curvature="0"
     style="fill:#f4f4f4;stroke-width:0.86602539" /><path
     id="path73"
     d="m 318.9422,81.89325 c -2.563,4.28025 -7.151,7.728 -12.854,9.65925 l 0.63,1.032 c 6.037,-2.0445 10.888,-5.70525 13.603,-10.23675 z"
     inkscape:connector-curvature="0"
     style="fill:#f4f4f4;stroke-width:0.86602539" /><path
     id="path75"
     d="m 306.7172,55.47075 -0.63,1.032 c 5.707,1.93275 10.316,5.3895 12.879,9.6765 l 1.354,-0.4725 c -2.713,-4.53825 -7.562,-8.19 -13.603,-10.236 z"
     inkscape:connector-curvature="0"
     style="fill:#f4f4f4;stroke-width:0.86602539" /></svg>