<?xml version="1.0" encoding="UTF-8" standalone="no"?>
<!-- Generator: Adobe Illustrator 13.0.0, SVG Export Plug-In . SVG Version: 6.00 Build 14948)  -->

<svg
   xmlns:ns="&amp;ns_sfw;"
   xmlns:dc="http://purl.org/dc/elements/1.1/"
   xmlns:cc="http://creativecommons.org/ns#"
   xmlns:rdf="http://www.w3.org/1999/02/22-rdf-syntax-ns#"
   xmlns:svg="http://www.w3.org/2000/svg"
   xmlns="http://www.w3.org/2000/svg"
   xmlns:sodipodi="http://sodipodi.sourceforge.net/DTD/sodipodi-0.dtd"
   xmlns:inkscape="http://www.inkscape.org/namespaces/inkscape"
   version="1.1"
   id="Layer_1"
   x="0px"
   y="0px"
   width="566.92902"
   height="77.1315"
   viewBox="0 0 566.929 77.131503"
   enable-background="new 0 0 566.929 102.84"
   xml:space="preserve"
   sodipodi:docname="logo.svg"
   inkscape:version="0.92.2 (5c3e80d, 2017-08-06)"><defs
     id="defs37" /><sodipodi:namedview
     pagecolor="#ffffff"
     bordercolor="#666666"
     borderopacity="1"
     objecttolerance="10"
     gridtolerance="10"
     guidetolerance="10"
     inkscape:pageopacity="0"
     inkscape:pageshadow="2"
     inkscape:window-width="1920"
     inkscape:window-height="1017"
     id="namedview35"
     showgrid="false"
     fit-margin-top="0"
     fit-margin-left="0"
     fit-margin-right="0"
     fit-margin-bottom="0"
     inkscape:zoom="0.61559735"
     inkscape:cx="283.46451"
     inkscape:cy="51.422002"
     inkscape:window-x="-8"
     inkscape:window-y="-8"
     inkscape:window-maximized="1"
     inkscape:current-layer="Layer_1" /><metadata
     id="metadata2"><ns:sfw><ns:slices /><ns:sliceSourceBounds
         x="677.036"
         y="488.078"
         width="566.929"
         height="102.842"
         bottomLeftOrigin="true" /></ns:sfw><rdf:RDF><cc:Work
         rdf:about=""><dc:format>image/svg+xml</dc:format><dc:type
           rdf:resource="http://purl.org/dc/dcmitype/StillImage" /><dc:title></dc:title></cc:Work></rdf:RDF></metadata><polygon
     id="polygon3542"
     points="62.829,32.113 65.865,28.707 65.865,5.553 51.491,11.127 39.613,32.324 51.491,27.772 "
     transform="scale(1,0.75)"
     style="fill:#1747ce" /><polygon
     id="polygon3558"
     points="51.491,102.842 51.491,39.606 66.938,33.69 88.391,64.354 88.391,25.369 102.98,19.742 102.98,81.161 88.391,87.288 66.938,59.29 66.938,96.307 "
     transform="scale(1,0.75)"
     style="fill:#1747ce" /><polygon
     id="polygon3560"
     points="14.589,87.288 28.277,81.227 14.589,54.652 "
     transform="scale(1,0.75)"
     style="fill:#1747ce" /><polygon
     id="polygon3538"
     points="51.491,11.127 37.117,5.535 29.178,19.742 36.044,33.689 39.613,32.324 "
     transform="scale(1,0.75)"
     style="fill:#069330" /><polygon
     id="polygon3540"
     points="88.391,64.354 66.938,33.69 62.829,32.113 73.807,19.742 88.391,25.369 "
     transform="scale(1,0.75)"
     style="fill:#069330" /><polygon
     id="polygon3552"
     points="14.589,87.288 14.589,54.652 36.044,96.307 51.491,102.842 51.491,39.606 36.044,33.689 36.044,65.792 14.589,25.369 0,19.742 0,81.161 "
     transform="scale(1,0.75)"
     style="fill:#069330" /><polygon
     id="polygon3554"
     points="29.178,19.742 36.044,33.689 36.044,65.792 14.589,25.369 "
     transform="scale(1,0.75)"
     style="fill:#cc130e" /><polygon
     id="polygon3556"
     points="71.321,80.73 88.391,87.288 66.938,59.29 66.938,74.586 "
     transform="scale(1,0.75)"
     style="fill:#cc130e" /><polygon
     id="polygon3544"
     points="51.491,27.772 66.938,33.689 51.491,39.606 36.044,33.689 "
     transform="scale(1,0.75)"
     style="fill:#ffc001" /><polygon
     id="polygon3546"
     points="88.391,25.369 73.802,19.742 88.391,14.129 102.98,19.742 "
     transform="scale(1,0.75)"
     style="fill:#ffc001" /><polygon
     id="polygon3548"
     points="14.589,25.369 0,19.742 14.589,14.129 29.178,19.742 "
     transform="scale(1,0.75)"
     style="fill:#ffc001" /><polygon
     id="polygon3550"
     points="51.491,11.127 65.865,5.553 51.491,0 37.117,5.535 "
     transform="scale(1,0.75)"
     style="fill:#ffc001" /><polygon
     id="polygon3518"
     points="160.984,33.752 160.984,60.989 160.859,60.989 151.323,33.752 129.948,33.752 129.948,81.252 144.403,81.252 144.403,53.834 144.533,53.834 154.07,81.252 175.447,81.252 175.447,33.752 "
     transform="scale(1,0.75)"
     style="fill:#1747ce" /><polygon
     id="polygon3520"
     points="241.636,33.752 241.636,60.989 241.505,60.989 231.968,33.752 210.595,33.752 210.595,81.252 225.056,81.252 225.056,53.834 225.181,53.834 234.714,81.252 256.089,81.252 256.089,33.752 "
     transform="scale(1,0.75)"
     style="fill:#1747ce" /><polygon
     id="polygon3522"
     points="380.498,33.752 380.498,60.989 380.369,60.989 370.833,33.752 349.457,33.752 349.457,81.252 363.914,81.252 363.914,53.834 364.041,53.834 373.578,81.252 394.957,81.252 394.957,33.752 "
     transform="scale(1,0.75)"
     style="fill:#1747ce" /><polygon
     id="polygon3524"
     points="184.179,81.252 184.179,33.752 202.009,33.752 202.009,81.252 "
     transform="scale(1,0.75)"
     style="fill:#1747ce" /><polygon
     id="polygon3526"
     points="301.785,33.752 301.785,46.655 290.416,46.655 290.416,81.252 272.591,81.252 272.591,46.655 261.261,46.655 261.261,33.752 "
     transform="scale(1,0.75)"
     style="fill:#1747ce" /><polygon
     id="polygon3536"
     points="324.597,46.303 324.597,51.27 340.906,51.27 340.906,63.448 324.597,63.448 324.597,68.777 342.875,68.777 342.875,81.236 307.05,81.236 307.05,33.739 342.31,33.739 342.31,46.303 "
     transform="scale(1,0.75)"
     style="fill:#1747ce" /><path
     id="path3528"
     d="m 402.63,25.314 h 21.123 c 18.016,0 23.75,7.64775 23.75,18.20625 0,10.75725 -8.848,17.4195 -22.684,17.4195 H 402.63 Z m 17.453,27.53025 h 1.738 c 2.867,0 4.789,-0.65925 5.912,-2.09025 1.184,-1.48125 1.316,-4.179 1.316,-7.629 0,-3.453 -0.135,-6.1455 -1.316,-7.629 -1.123,-1.4325 -3.045,-2.09175 -5.912,-2.09175 h -1.738 z"
     inkscape:connector-curvature="0"
     style="fill:#1747ce;stroke-width:0.86602539" /><path
     id="path3530"
     d="m 475.451,24.3795 c 15.521,0 23.244,7.64475 23.244,18.74625 0,11.1045 -7.725,18.7515 -23.244,18.7515 -15.523,0 -23.246,-7.647 -23.246,-18.7515 0,-11.1015 7.72,-18.74625 23.246,-18.74625 z m 0,28.46925 c 2.738,0 4.801,-1.0095 4.801,-9.72375 0,-8.51775 -1.939,-9.72075 -4.801,-9.72075 -2.865,0 -4.801,1.203 -4.801,9.72075 0,8.715 2.058,9.72375 4.801,9.72375 z"
     inkscape:connector-curvature="0"
     style="fill:#1747ce;stroke-width:0.86602539" /><path
     id="path3562"
     d="m 507.025,53.4225 c -3.107,0 -5.629,1.89075 -5.629,4.2255 0,2.3355 2.521,4.22925 5.629,4.22925 3.115,0 5.641,-1.8915 5.641,-4.22925 -0.002,-2.334 -2.526,-4.2255 -5.641,-4.2255 z m 0,7.713 c -2.563,0 -4.637,-1.5585 -4.637,-3.48675 0,-1.926 2.072,-3.4845 4.637,-3.4845 2.574,0 4.656,1.56 4.656,3.4845 0,1.92825 -2.082,3.48675 -4.656,3.48675 z"
     inkscape:connector-curvature="0"
     style="fill:#1747ce;stroke-width:0.86602539" /><path
     id="path3564"
     d="m 506.109,59.97075 h -1.328 V 55.3215 h 2.635 c 1.068,0.01425 2.154,0.26775 2.154,1.21125 0,0.60225 -0.52,1.0065 -1.287,1.128 v 0.0105 c 1.021,0.08925 1.021,0.555 1.135,1.20225 0.059,0.294 0.105,0.84225 0.359,1.09875 h -1.469 c -0.111,-0.41175 -0.174,-0.8295 -0.232,-1.2465 -0.035,-0.258 -0.117,-0.61275 -0.559,-0.627 h -1.408 z m 0,-2.64525 h 1.119 c 0.582,-0.006 0.928,-0.22875 0.928,-0.6375 0,-0.41025 -0.346,-0.58575 -0.928,-0.59175 h -1.119 z"
     inkscape:connector-curvature="0"
     style="fill:#1747ce;stroke-width:0.86602539" /><polygon
     id="polygon3566"
     points="160.984,33.752 160.984,60.989 160.859,60.989 151.323,33.752 129.948,33.752 129.948,81.252 144.403,81.252 144.403,53.834 144.533,53.834 154.07,81.252 175.447,81.252 175.447,33.752 "
     transform="scale(1,0.75)"
     style="fill:#1747ce" /><polygon
     id="polygon3568"
     points="241.636,33.752 241.636,60.989 241.505,60.989 231.968,33.752 210.595,33.752 210.595,81.252 225.056,81.252 225.056,53.834 225.181,53.834 234.714,81.252 256.089,81.252 256.089,33.752 "
     transform="scale(1,0.75)"
     style="fill:#1747ce" /><polygon
     id="polygon3570"
     points="380.498,33.752 380.498,60.989 380.369,60.989 370.833,33.752 349.457,33.752 349.457,81.252 363.914,81.252 363.914,53.834 364.041,53.834 373.578,81.252 394.957,81.252 394.957,33.752 "
     transform="scale(1,0.75)"
     style="fill:#1747ce" /><polygon
     id="polygon3572"
     points="184.179,81.252 184.179,33.752 202.009,33.752 202.009,81.252 "
     transform="scale(1,0.75)"
     style="fill:#1747ce" /><polygon
     id="polygon3574"
     points="301.785,33.752 301.785,46.655 290.416,46.655 290.416,81.252 272.591,81.252 272.591,46.655 261.261,46.655 261.261,33.752 "
     transform="scale(1,0.75)"
     style="fill:#1747ce" /><polygon
     id="polygon3576"
     points="324.597,46.303 324.597,51.27 340.906,51.27 340.906,63.448 324.597,63.448 324.597,68.777 342.875,68.777 342.875,81.236 307.05,81.236 307.05,33.739 342.31,33.739 342.31,46.303 "
     transform="scale(1,0.75)"
     style="fill:#1747ce" /><path
     id="path3532"
     d="m 530.583,20.577 c -0.949,-0.06225 -1.871,-0.033 -3.158,0.0105 -7.521,0.261 -10.563,2.66475 -11.594,5.3805 h 0.182 c 1.873,-1.22775 4.188,-1.80075 7.289,-1.80075 5.965,0 11.414,3.2535 11.414,9.357 0,5.84025 -5.986,10.389 -14.02,10.389 -10.584,0 -15.188,-6.06225 -15.188,-12.5625 0,-5.28075 2.498,-9.753 6.598,-12.6375 3.902,-2.71125 8.934,-4.08075 15.092,-4.1865 1.631,-0.0705 2.6,0 3.385,0.05325 z m -10.021,17.592 c 2.439,0 3.918,-1.86825 3.918,-4.25475 -0.02,-2.0145 -1.25,-4.20975 -4.52,-4.20975 -1.998,0 -3.555,0.9495 -4.143,2.09625 -0.229,0.35175 -0.314,0.85275 -0.314,1.7025 0.209,2.27625 1.672,4.6665 4.998,4.6665 z"
     inkscape:connector-curvature="0"
     style="fill:#cc130e;stroke-width:0.86602539" /><path
     id="path3534"
     d="m 553.365,43.43325 v -6.393 H 537.519 V 31.932 l 12.723,-17.00325 h 12.66 V 31.1835 h 4.027 v 5.85675 h -4.027 v 6.393 z m 0,-12.24975 v -4.89825 c 0,-1.8105 0.145,-3.6915 0.268,-5.67375 h -0.207 c -1.178,1.92375 -2.203,3.75525 -3.543,5.74275 l -3.113,4.7445 -0.033,0.08625 z"
     inkscape:connector-curvature="0"
     style="fill:#cc130e;stroke-width:0.86602539" /></svg>