<?xml version="1.0" encoding="UTF-8" standalone="no"?>
<!-- Created with Inkscape (http://www.inkscape.org/) -->

<svg
   xmlns:dc="http://purl.org/dc/elements/1.1/"
   xmlns:cc="http://creativecommons.org/ns#"
   xmlns:rdf="http://www.w3.org/1999/02/22-rdf-syntax-ns#"
   xmlns:svg="http://www.w3.org/2000/svg"
   xmlns="http://www.w3.org/2000/svg"
   xmlns:sodipodi="http://sodipodi.sourceforge.net/DTD/sodipodi-0.dtd"
   xmlns:inkscape="http://www.inkscape.org/namespaces/inkscape"
   id="svg2"
   version="1.1"
   inkscape:version="0.92.2 (5c3e80d, 2017-08-06)"
   xml:space="preserve"
   width="539.52625"
   height="241.75313"
   viewBox="0 0 539.52625 241.75313"
   sodipodi:docname="console.svg"><metadata
     id="metadata8"><rdf:RDF><cc:Work
         rdf:about=""><dc:format>image/svg+xml</dc:format><dc:type
           rdf:resource="http://purl.org/dc/dcmitype/StillImage" /><dc:title></dc:title></cc:Work></rdf:RDF></metadata><defs
     id="defs6"><clipPath
       clipPathUnits="userSpaceOnUse"
       id="clipPath16"><path
         d="M 0,257.87 H 431.621 V 0 H 0 Z"
         id="path18"
         inkscape:connector-curvature="0" /></clipPath></defs><sodipodi:namedview
     pagecolor="#ffffff"
     bordercolor="#666666"
     borderopacity="1"
     objecttolerance="10"
     gridtolerance="10"
     guidetolerance="10"
     inkscape:pageopacity="0"
     inkscape:pageshadow="2"
     inkscape:window-width="1631"
     inkscape:window-height="998"
     id="namedview4"
     showgrid="false"
     inkscape:zoom="0.64501033"
     inkscape:cx="11.627719"
     inkscape:cy="161.16876"
     inkscape:window-x="-8"
     inkscape:window-y="-8"
     inkscape:window-maximized="1"
     inkscape:current-layer="g10"
     fit-margin-top="0"
     fit-margin-left="0"
     fit-margin-right="0"
     fit-margin-bottom="0" /><g
     id="g10"
     inkscape:groupmode="layer"
     inkscape:label="console_ngp"
     transform="matrix(1.25,0,0,-1.25,0,241.75312)"><g
       id="g12"
       transform="scale(1,0.75)"><g
         id="g14"
         clip-path="url(#clipPath16)"><g
           id="g20"
           transform="translate(431.621,52.35)"><path
             d="m 0,0 v -5.85 -14.42 c 0,0 -1.459,-10.79 -6.585,-15.92 -5.117,-5.12 -18.148,-7.41 -18.148,-7.41 l -52.803,-4.34 -93.266,-4.41 h -89.268 l -74.448,3.16 -68.953,5.17 c 0,0 -28.15,1.17 -28.15,22.83 v 20.98 c 16.968,-1.87 59.619,-5.83 115.06,-5.7 1.03,-0.29 1.859,-0.28 1.859,-0.28 l 62.287,-1 h 73.289 c 0,0 54.123,1.09 61.867,1.09 1.06,0 1.949,0.14 2.708,0.4 C -57.24,-5.84 -15.09,-1.72 0,0"
             style="fill:#39454d;fill-opacity:1;fill-rule:nonzero;stroke:none"
             id="path22"
             inkscape:connector-curvature="0" /></g><g
           id="g24"
           transform="translate(431.621,249)"><path
             d="m 0,0 v -196.65 c -15.09,-1.72 -57.24,-5.84 -114.551,-5.7 -0.759,-0.26 -1.648,-0.4 -2.708,-0.4 -7.744,0 -61.867,-1.09 -61.867,-1.09 h -73.289 l -62.287,1 c 0,0 -0.829,-0.01 -1.859,0.28 -55.441,-0.13 -98.092,3.83 -115.06,5.7 V -196 -12 0.66 c 0,0 0.33,5 11.822,6.17 11.492,1.17 24.823,2.04 24.823,2.04 h 358.411 c 0,0 25.233,-2.12 29.57,-3.37 C -2.668,4.25 0,4.08 0,0"
             style="fill:#495a67;fill-opacity:1;fill-rule:nonzero;stroke:none"
             id="path26"
             inkscape:connector-curvature="0" /></g><g
           id="g28"
           transform="translate(317.1405,46.65)"><path
             d="m 0,0 c -0.76,-0.26 -1.65,-0.4 -2.71,-0.4 -7.75,0 -61.91,-1.09 -61.91,-1.09 h -73.34 l -62.33,1 c 0,0 -0.83,-0.01 -1.86,0.28 -1.68,0.47 -3.89,1.73 -3.89,5.14 v 191.92 c 0,0 -0.13,5.52 4.58,5.52 4.71,0 100.17,-0.02 100.17,-0.02 h 100.5 c 0,0 4.83,0.58 4.83,-4.71 L 4.04,7.35 C 4.04,7.35 4.79,1.57 0,0"
             style="fill:#16181d;fill-opacity:1;fill-rule:nonzero;stroke:none"
             id="path30"
             inkscape:connector-curvature="0" /></g><path
           d="m 126.476,235.22 h 178.5 V 66.892 h -178.5 z"
           style="fill:#565e64;fill-opacity:1;fill-rule:nonzero;stroke:none"
           id="path32"
           inkscape:connector-curvature="0" /><g
           id="g34"
           transform="translate(89.3505,227.41)"><path
             d="m 0,0 c 0,-4.32 -3.5,-7.82 -7.81,-7.82 -3.86,0 -7.06,2.79 -7.69,6.47 l -16.52,0.02 c -0.05,-0.57 -0.14,-1.17 -0.25,-1.82 -0.41,-2.42 -2.5,-4.46 -4.26,-4.46 h -26.42 c 0,0 -3.86,-0.28 -5.03,5.04 -0.55,2.52 0.01,5.75 0.01,5.75 0,0 1.16,3.96 5.02,4.43 h 25.4 c 0,0 4.32,0 5.38,-5.53 0.06,-0.26 0.11,-0.51 0.14,-0.78 l 16.51,-0.03 c 0.61,3.71 3.82,6.54 7.71,6.54 C -3.5,7.81 0,4.31 0,0"
             style="fill:#656971;fill-opacity:1;fill-rule:nonzero;stroke:none"
             id="path36"
             inkscape:connector-curvature="0" /></g><g
           id="g38"
           transform="translate(28.663,232.4966)"><path
             d="m 0,0 h 20.937 c 0,0 3.563,0 4.436,-3.696 0.314,-1.036 0.21,-2.111 -0.081,-3.499 -0.339,-1.615 -2.063,-2.984 -3.511,-2.982 H 0 c 0,0 -3.188,-0.186 -4.146,3.373 -0.453,1.684 0.004,3.844 0.004,3.844 0,0 0.954,2.647 4.142,2.96"
             style="fill:#404044;fill-opacity:1;fill-rule:nonzero;stroke:none"
             id="path40"
             inkscape:connector-curvature="0" /></g><g
           id="g42"
           transform="translate(75.788,227.4072)"><path
             d="M 0,0 C 0,3.176 2.574,5.75 5.75,5.75 8.926,5.75 11.5,3.176 11.5,0 11.5,-3.176 8.926,-5.75 5.75,-5.75 2.574,-5.75 0,-3.176 0,0"
             style="fill:#eb223b;fill-opacity:1;fill-rule:nonzero;stroke:none"
             id="path44"
             inkscape:connector-curvature="0" /></g><g
           id="g46"
           transform="translate(340.3505,143.33)"><path
             d="M 0,0 C 0,9.527 7.723,17.25 17.25,17.25 26.777,17.25 34.5,9.527 34.5,0 34.5,-9.527 26.777,-17.25 17.25,-17.25 7.723,-17.25 0,-9.527 0,0"
             style="fill:#263246;fill-opacity:1;fill-rule:nonzero;stroke:none"
             id="path48"
             inkscape:connector-curvature="0" /></g><g
           id="g50"
           transform="translate(383.7255,175.205)"><path
             d="M 0,0 C 0,9.389 7.611,17 17,17 26.389,17 34,9.389 34,0 34,-9.389 26.389,-17 17,-17 7.611,-17 0,-9.389 0,0"
             style="fill:#263246;fill-opacity:1;fill-rule:nonzero;stroke:none"
             id="path52"
             inkscape:connector-curvature="0" /></g><g
           id="g54"
           transform="translate(403.2305,40.45)"><path
             d="m 0,0 c -2.08,0 -3.76,-1.67 -3.76,-3.74 0,-2.08 1.68,-3.76 3.76,-3.76 2.07,0 3.74,1.68 3.74,3.76 C 3.74,-1.67 2.07,0 0,0 m -0.005,24.505 c 2.071,0 3.75,1.679 3.75,3.75 0,2.071 -1.679,3.75 -3.75,3.75 -2.071,0 -3.75,-1.679 -3.75,-3.75 0,-2.071 1.679,-3.75 3.75,-3.75 m 0,32.25 c 2.071,0 3.75,1.679 3.75,3.75 0,2.071 -1.679,3.75 -3.75,3.75 -2.071,0 -3.75,-1.679 -3.75,-3.75 0,-2.071 1.679,-3.75 3.75,-3.75 M -27.38,-2 c -2.07,0 -3.75,-1.67 -3.75,-3.74 0,-2.08 1.68,-3.76 3.75,-3.76 2.07,0 3.75,1.68 3.75,3.76 0,2.07 -1.68,3.74 -3.75,3.74 m 0,24.505 c 2.071,0 3.75,1.679 3.75,3.75 0,2.071 -1.679,3.75 -3.75,3.75 -2.071,0 -3.75,-1.679 -3.75,-3.75 0,-2.071 1.679,-3.75 3.75,-3.75 m 0,32.25 c 2.071,0 3.75,1.679 3.75,3.75 0,2.071 -1.679,3.75 -3.75,3.75 -2.071,0 -3.75,-1.679 -3.75,-3.75 0,-2.071 1.679,-3.75 3.75,-3.75 M -54.63,-4.74 c -2.07,0 -3.75,-1.68 -3.75,-3.76 0,-2.07 1.68,-3.74 3.75,-3.74 2.07,0 3.75,1.67 3.75,3.74 0,2.08 -1.68,3.76 -3.75,3.76 m 0,24.495 c 2.071,0 3.75,1.679 3.75,3.75 0,2.071 -1.679,3.75 -3.75,3.75 -2.071,0 -3.75,-1.679 -3.75,-3.75 0,-2.071 1.679,-3.75 3.75,-3.75 m -3.75,36 c 0,2.071 1.679,3.75 3.75,3.75 2.071,0 3.75,-1.679 3.75,-3.75 0,-2.071 -1.679,-3.75 -3.75,-3.75 -2.071,0 -3.75,1.679 -3.75,3.75"
             style="fill:#666a6e;fill-opacity:1;fill-rule:nonzero;stroke:none"
             id="path56"
             inkscape:connector-curvature="0" /></g><g
           id="g58"
           transform="translate(80.663,55.955)"><path
             d="M 0,0 C 1.208,0 2.188,0.979 2.188,2.188 2.188,3.396 1.208,4.375 0,4.375 -1.208,4.375 -2.187,3.396 -2.187,2.188 -2.187,0.979 -1.208,0 0,0 m 0,7.437 c 1.208,0 2.188,0.98 2.188,2.188 0,1.208 -0.98,2.188 -2.188,2.188 -1.208,0 -2.187,-0.98 -2.187,-2.188 0,-1.208 0.979,-2.188 2.187,-2.188 m 0,7.438 c 1.208,0 2.188,0.979 2.188,2.187 0,1.209 -0.98,2.188 -2.188,2.188 -1.208,0 -2.187,-0.979 -2.187,-2.188 0,-1.208 0.979,-2.187 2.187,-2.187 m 0,7.562 c 1.208,0 2.188,0.98 2.188,2.188 0,1.208 -0.98,2.187 -2.188,2.187 -1.208,0 -2.187,-0.979 -2.187,-2.187 0,-1.208 0.979,-2.188 2.187,-2.188 M -8.437,0 c 1.208,0 2.187,0.979 2.187,2.188 0,1.208 -0.979,2.187 -2.187,2.187 -1.209,0 -2.188,-0.979 -2.188,-2.187 C -10.625,0.979 -9.646,0 -8.437,0 m 0,7.437 c 1.208,0 2.187,0.98 2.187,2.188 0,1.208 -0.979,2.188 -2.187,2.188 -1.209,0 -2.188,-0.98 -2.188,-2.188 0,-1.208 0.979,-2.188 2.188,-2.188 m 0,7.438 c 1.208,0 2.187,0.979 2.187,2.187 0,1.209 -0.979,2.188 -2.187,2.188 -1.209,0 -2.188,-0.979 -2.188,-2.188 0,-1.208 0.979,-2.187 2.188,-2.187 m 0,7.562 c 1.208,0 2.187,0.98 2.187,2.188 0,1.208 -0.979,2.187 -2.187,2.187 -1.209,0 -2.188,-0.979 -2.188,-2.187 0,-1.208 0.979,-2.188 2.188,-2.188 M -16.687,0 c 1.208,0 2.187,0.979 2.187,2.188 0,1.208 -0.979,2.187 -2.187,2.187 -1.209,0 -2.188,-0.979 -2.188,-2.187 0,-1.209 0.979,-2.188 2.188,-2.188 m 0,7.437 c 1.208,0 2.187,0.98 2.187,2.188 0,1.208 -0.979,2.188 -2.187,2.188 -1.209,0 -2.188,-0.98 -2.188,-2.188 0,-1.208 0.979,-2.188 2.188,-2.188 m 0,7.438 c 1.208,0 2.187,0.979 2.187,2.187 0,1.209 -0.979,2.188 -2.187,2.188 -1.209,0 -2.188,-0.979 -2.188,-2.188 0,-1.208 0.979,-2.187 2.188,-2.187 m 0,7.562 c 1.208,0 2.187,0.98 2.187,2.188 0,1.208 -0.979,2.187 -2.187,2.187 -1.209,0 -2.188,-0.979 -2.188,-2.187 0,-1.208 0.979,-2.188 2.188,-2.188 M -24.937,0 c 1.208,0 2.187,0.979 2.187,2.188 0,1.208 -0.979,2.187 -2.187,2.187 -1.209,0 -2.188,-0.979 -2.188,-2.187 0,-1.209 0.979,-2.188 2.188,-2.188 m 0,7.437 c 1.208,0 2.187,0.98 2.187,2.188 0,1.208 -0.979,2.188 -2.187,2.188 -1.209,0 -2.188,-0.98 -2.188,-2.188 0,-1.208 0.979,-2.188 2.188,-2.188 m 0,7.438 c 1.208,0 2.187,0.979 2.187,2.187 0,1.209 -0.979,2.188 -2.187,2.188 -1.209,0 -2.188,-0.979 -2.188,-2.188 0,-1.208 0.979,-2.187 2.188,-2.187 m 0,7.562 c 1.208,0 2.187,0.98 2.187,2.188 0,1.208 -0.979,2.187 -2.187,2.187 -1.209,0 -2.188,-0.979 -2.188,-2.187 0,-1.208 0.979,-2.188 2.188,-2.188 M -33.063,0 c 1.209,0 2.188,0.979 2.188,2.188 0,1.208 -0.979,2.187 -2.188,2.187 -1.208,0 -2.187,-0.979 -2.187,-2.187 0,-1.209 0.979,-2.188 2.187,-2.188 m 0,7.437 c 1.209,0 2.188,0.98 2.188,2.188 0,1.208 -0.979,2.188 -2.188,2.188 -1.208,0 -2.187,-0.98 -2.187,-2.188 0,-1.208 0.979,-2.188 2.187,-2.188 m 0,7.438 c 1.209,0 2.188,0.979 2.188,2.187 0,1.209 -0.979,2.188 -2.188,2.188 -1.208,0 -2.187,-0.979 -2.187,-2.188 0,-1.208 0.979,-2.187 2.187,-2.187 m -2.187,9.75 c 0,1.208 0.979,2.187 2.187,2.187 1.209,0 2.188,-0.979 2.188,-2.187 0,-1.208 -0.979,-2.188 -2.188,-2.188 -1.208,0 -2.187,0.98 -2.187,2.188"
             style="fill:#16181d;fill-opacity:1;fill-rule:nonzero;stroke:none"
             id="path60"
             inkscape:connector-curvature="0" /></g><g
           id="g62"
           transform="translate(394.9339,227.2466)"><path
             d="m 0,0 c 0,5.201 4.216,9.417 9.417,9.417 5.2,0 9.416,-4.216 9.416,-9.417 0,-5.201 -4.216,-9.417 -9.416,-9.417 C 4.216,-9.417 0,-5.201 0,0"
             style="fill:#656971;fill-opacity:1;fill-rule:nonzero;stroke:none"
             id="path64"
             inkscape:connector-curvature="0" /></g><g
           id="g66"
           transform="translate(397.7672,227.2466)"><path
             d="m 0,0 c 0,3.636 2.947,6.583 6.583,6.583 3.636,0 6.584,-2.947 6.584,-6.583 0,-3.636 -2.948,-6.583 -6.584,-6.583 C 2.947,-6.583 0,-3.636 0,0"
             style="fill:#404044;fill-opacity:1;fill-rule:nonzero;stroke:none"
             id="path68"
             inkscape:connector-curvature="0" /></g><g
           id="g70"
           transform="translate(29.6405,162.33)"><path
             d="m 0,0 h -6.9 c -0.09,-1.11 -0.14,-2.24 -0.14,-3.38 0,-1.03 0.04,-2.05 0.11,-3.06 h 6.9 c -0.09,1.01 -0.14,2.03 -0.14,3.06 0,1.14 0.06,2.27 0.17,3.38 m 9.11,-26.98 -4.91,-4.8 c 0.81,-0.86 1.65,-1.68 2.52,-2.46 l 4.8,4.93 c -0.83,0.74 -1.64,1.52 -2.41,2.33 M 34.46,-38 c -1.14,0 -2.26,0.05 -3.37,0.16 v -6.9 c 1.11,-0.09 2.23,-0.14 3.37,-0.14 1.03,0 2.05,0.04 3.06,0.12 v 6.89 C 36.51,-37.95 35.49,-38 34.46,-38 m 25.94,11.67 c -0.75,-0.83 -1.52,-1.62 -2.33,-2.39 l 4.79,-4.91 c 0.86,0.8 1.68,1.64 2.47,2.52 z m 15.45,26.02 h -6.9 c 0.09,-1.01 0.14,-2.03 0.14,-3.07 0,-1.14 -0.05,-2.26 -0.16,-3.37 h 6.89 c 0.09,1.11 0.14,2.23 0.14,3.37 0,1.03 -0.04,2.06 -0.11,3.07 M 62.2,27.49 57.4,22.56 c 0.83,-0.74 1.64,-1.52 2.41,-2.33 l 4.9,4.79 c -0.8,0.86 -1.64,1.68 -2.51,2.47 M 34.46,38.12 c -1.03,0 -2.05,-0.04 -3.06,-0.11 v -6.89 c 1.01,0.08 2.03,0.13 3.06,0.13 1.14,0 2.26,-0.05 3.37,-0.16 v 6.89 c -1.11,0.09 -2.23,0.14 -3.37,0.14 M 10.85,21.97 C 10.04,21.2 9.27,20.41 8.53,19.57 l -4.94,4.79 c 0.79,0.88 1.62,1.72 2.47,2.52 z"
             style="fill:#404044;fill-opacity:1;fill-rule:nonzero;stroke:none"
             id="path72"
             inkscape:connector-curvature="0" /></g><g
           id="g74"
           transform="translate(98.5905,162.02)"><path
             d="M 0,0 H 6.9 C 6.18,9.78 2.08,18.61 -4.24,25.33 l -4.9,-4.79 C -4.04,15.05 -0.69,7.91 0,0 m -8.55,-26.02 4.93,-4.78 c 5.9,6.57 9.74,15.02 10.49,24.36 h -6.89 c -0.73,-7.48 -3.83,-14.26 -8.53,-19.58 m -22.88,-11.54 v -6.89 c 9.78,0.71 18.61,4.81 25.34,11.13 l -4.79,4.91 c -5.49,-5.1 -12.64,-8.45 -20.55,-9.15 M -6.75,27.8 c -6.57,5.91 -15.03,9.74 -24.37,10.49 V 31.4 c 7.47,-0.72 14.25,-3.82 19.57,-8.53 z m -30.8,3.63 v 6.89 c -9.77,-0.71 -18.6,-4.81 -25.34,-11.13 l 4.79,-4.91 c 5.49,5.11 12.64,8.46 20.55,9.15 m -24.68,-65.36 c 6.57,-5.91 15.03,-9.75 24.37,-10.5 v 6.9 c -7.47,0.72 -14.25,3.82 -19.57,8.53 z m -6.75,27.8 h -6.9 c 0.72,-9.78 4.82,-18.61 11.13,-25.34 l 4.91,4.8 c -5.1,5.48 -8.45,12.63 -9.14,20.54 m 0.03,6.44 h -6.9 c 0.75,9.34 4.59,17.8 10.49,24.36 l 4.94,-4.79 c -4.71,-5.32 -7.81,-12.1 -8.53,-19.57"
             style="fill:#656971;fill-opacity:1;fill-rule:nonzero;stroke:none"
             id="path76"
             inkscape:connector-curvature="0" /></g><g
           id="g78"
           transform="translate(97.1906,155.72)"><path
             d="m 0,0 c -0.7,-7.19 -3.68,-13.69 -8.19,-18.8 -0.72,-0.8 -1.46,-1.56 -2.24,-2.3 -5.27,-4.89 -12.13,-8.11 -19.72,-8.78 -0.97,-0.08 -1.95,-0.12 -2.94,-0.12 -1.09,0 -2.17,0.04 -3.24,0.15 -7.17,0.69 -13.67,3.67 -18.78,8.19 -0.8,0.71 -1.58,1.46 -2.31,2.24 -4.9,5.26 -8.12,12.12 -8.78,19.71 -0.09,0.97 -0.13,1.95 -0.13,2.94 0,1.09 0.05,2.18 0.16,3.24 0.69,7.18 3.67,13.68 8.19,18.79 0.71,0.81 1.45,1.57 2.23,2.31 5.27,4.9 12.13,8.12 19.72,8.78 0.97,0.08 1.95,0.12 2.94,0.12 1.09,0 2.17,-0.04 3.24,-0.15 7.17,-0.69 13.67,-3.67 18.78,-8.19 0.8,-0.71 1.58,-1.46 2.31,-2.24 C -3.86,20.62 -0.64,13.77 0.02,6.18 0.11,5.21 0.15,4.23 0.15,3.23 0.15,2.14 0.11,1.06 0,0 m 1.4,6.3 c -0.69,7.91 -4.04,15.05 -9.14,20.54 -0.77,0.81 -1.58,1.59 -2.41,2.33 -5.32,4.71 -12.1,7.81 -19.57,8.53 -1.11,0.11 -2.23,0.16 -3.37,0.16 -1.03,0 -2.05,-0.05 -3.06,-0.13 -7.91,-0.69 -15.06,-4.04 -20.55,-9.15 -0.81,-0.77 -1.58,-1.56 -2.32,-2.4 -4.71,-5.32 -7.81,-12.1 -8.53,-19.57 -0.11,-1.11 -0.17,-2.24 -0.17,-3.38 0,-1.03 0.05,-2.05 0.14,-3.06 0.69,-7.91 4.04,-15.06 9.14,-20.54 0.77,-0.81 1.58,-1.59 2.41,-2.33 5.32,-4.71 12.1,-7.81 19.57,-8.53 1.11,-0.11 2.23,-0.16 3.37,-0.16 1.03,0 2.05,0.05 3.06,0.13 7.91,0.7 15.06,4.05 20.55,9.15 0.81,0.77 1.58,1.56 2.33,2.39 4.7,5.32 7.8,12.1 8.53,19.58 0.11,1.11 0.16,2.23 0.16,3.37 0,1.04 -0.05,2.06 -0.14,3.07"
             style="fill:#83898b;fill-opacity:1;fill-rule:nonzero;stroke:none"
             id="path80"
             inkscape:connector-curvature="0" /></g><g
           id="g82"
           transform="translate(97.3405,158.95)"><path
             d="m 0,0 c 0,-1.09 -0.04,-2.17 -0.15,-3.23 -0.7,-7.19 -3.68,-13.69 -8.19,-18.8 -0.72,-0.8 -1.46,-1.56 -2.24,-2.3 -5.27,-4.89 -12.13,-8.11 -19.72,-8.78 -0.97,-0.08 -1.95,-0.12 -2.94,-0.12 -1.09,0 -2.17,0.04 -3.24,0.15 -7.17,0.69 -13.67,3.67 -18.78,8.19 -0.8,0.71 -1.58,1.46 -2.31,2.24 -4.9,5.26 -8.12,12.12 -8.78,19.71 -0.09,0.97 -0.13,1.95 -0.13,2.94 0,1.09 0.05,2.18 0.16,3.24 0.69,7.18 3.67,13.68 8.19,18.79 0.71,0.81 1.45,1.57 2.23,2.31 5.27,4.9 12.13,8.12 19.72,8.78 0.97,0.08 1.95,0.12 2.94,0.12 1.09,0 2.17,-0.04 3.24,-0.15 7.17,-0.69 13.67,-3.67 18.78,-8.19 0.8,-0.71 1.58,-1.46 2.31,-2.24 4.9,-5.27 8.12,-12.12 8.78,-19.71 C -0.04,1.98 0,1 0,0"
             style="fill:#3b4952;fill-opacity:1;fill-rule:nonzero;stroke:none"
             id="path84"
             inkscape:connector-curvature="0" /></g><g
           id="g86"
           transform="translate(42.6839,158.955)"><path
             d="m 0,0 c 0,11.828 9.589,21.417 21.417,21.417 11.828,0 21.416,-9.589 21.416,-21.417 0,-11.828 -9.588,-21.417 -21.416,-21.417 C 9.589,-21.417 0,-11.828 0,0"
             style="fill:#404044;fill-opacity:1;fill-rule:nonzero;stroke:none"
             id="path88"
             inkscape:connector-curvature="0" /></g><g
           id="g90"
           transform="translate(46.663,158.955)"><path
             d="M 0,0 C 0,9.63 7.807,17.437 17.437,17.437 27.068,17.437 34.875,9.63 34.875,0 34.875,-9.63 27.068,-17.437 17.437,-17.437 7.807,-17.437 0,-9.63 0,0"
             style="fill:#252528;fill-opacity:1;fill-rule:nonzero;stroke:none"
             id="path92"
             inkscape:connector-curvature="0" /></g><g
           id="g94"
           transform="translate(72.8505,158.955)"><path
             d="m 0,0 c 0,4.832 -3.918,8.75 -8.75,8.75 -4.833,0 -8.75,-3.918 -8.75,-8.75 0,-4.832 3.917,-8.75 8.75,-8.75 C -3.918,-8.75 0,-4.832 0,0"
             style="fill:#2a2b2d;fill-opacity:1;fill-rule:nonzero;stroke:none"
             id="path96"
             inkscape:connector-curvature="0" /></g><g
           id="g98"
           transform="translate(206.8905,19.62)"><path
             d="m 0,0 c -0.83,1.63 -1.46,2.04 -2.16,2.04 h -11.67 c 0,0 -0.51,0.13 -0.81,0.63 -0.18,0.3 -0.15,1.25 0.18,1.66 0.3,0.37 0.8,0.46 1.09,0.46 H 0.21 V 8.27 H -15.5 c -0.51,0 -1.01,-0.17 -1.42,-0.49 -0.59,-0.47 -1.39,-1.24 -1.62,-2.07 -0.38,-1.38 -0.5,-4.31 0,-5.31 0.5,-1 2,-1.75 2.5,-1.75 h 11.25 c 0,0 0.58,-0.06 0.83,-0.56 0.25,-0.5 0.13,-1.38 -0.25,-1.63 -0.37,-0.25 -0.54,-0.21 -1,-0.21 H -18.87 V -6.88 H -2 c 0,0 2,0.26 2.21,1.67 C 0.42,-3.79 0.84,-1.62 0,0 M 15.27,8.27 V -0.54 L 6.49,8.24 H 2.02 V -6.85 h 4 v 9.18 l 9.22,-9.21 h 4.1 V 8.27 Z M 38.58,-6.85 h -5.31 l -4.81,4.81 -3.28,-3.28 V -6.85 H 20.77 V 8.27 h 4.57 V 0.59 l 7.4,7.4 H 38.4 L 31.07,0.66 Z"
             style="fill:#636875;fill-opacity:1;fill-rule:nonzero;stroke:none"
             id="path100"
             inkscape:connector-curvature="0" /></g><g
           id="g102"
           transform="translate(23.6694,243.5096)"><path
             d="m 0,0 c 0.212,-0.045 0.479,-0.063 0.803,-0.063 1.171,0 1.885,0.459 1.885,1.296 0,0.802 -0.703,1.189 -1.773,1.189 C 0.491,2.422 0.167,2.395 0,2.359 Z M -0.971,2.926 C -0.502,2.989 0.111,3.043 0.892,3.043 1.852,3.043 2.554,2.863 3,2.539 3.413,2.251 3.658,1.81 3.658,1.27 3.658,0.72 3.458,0.288 3.078,-0.027 2.565,-0.468 1.729,-0.693 0.781,-0.693 0.491,-0.693 0.223,-0.684 0,-0.639 V -3.07 h -0.971 z"
             style="fill:#231f20;fill-opacity:1;fill-rule:nonzero;stroke:none"
             id="path104"
             inkscape:connector-curvature="0" /></g><g
           id="g106"
           transform="translate(29.2211,243.4379)"><path
             d="m 0,0 c 0,-1.296 0.87,-2.458 2.398,-2.458 1.54,0 2.409,1.144 2.409,2.521 C 4.807,1.269 4.026,2.53 2.409,2.53 0.803,2.53 0,1.332 0,0 m 5.833,0.099 c 0,-2.089 -1.572,-3.196 -3.491,-3.196 -1.985,0 -3.38,1.243 -3.38,3.079 0,1.926 1.484,3.187 3.492,3.187 2.052,0 3.379,-1.27 3.379,-3.07"
             style="fill:#231f20;fill-opacity:1;fill-rule:nonzero;stroke:none"
             id="path108"
             inkscape:connector-curvature="0" /></g><g
           id="g110"
           transform="translate(37.5385,240.4398)"><path
             d="m 0,0 -1.907,6.068 h 1.026 L 0.011,2.998 C 0.234,2.242 0.435,1.485 0.569,0.9 H 0.591 C 0.714,1.503 0.948,2.224 1.205,3.007 L 2.208,6.068 H 3.224 L 4.138,2.989 C 4.35,2.269 4.551,1.548 4.663,0.909 H 4.685 C 4.841,1.576 5.053,2.25 5.287,3.007 L 6.28,6.068 H 7.272 L 5.142,0 H 4.127 L 3.179,3.16 C 2.945,3.934 2.789,4.528 2.688,5.141 H 2.666 C 2.532,4.538 2.365,3.943 2.086,3.16 L 1.015,0 Z"
             style="fill:#231f20;fill-opacity:1;fill-rule:nonzero;stroke:none"
             id="path112"
             inkscape:connector-curvature="0" /></g><g
           id="g114"
           transform="translate(49.6367,243.2845)"><path
             d="m 0,0 h -2.922 v -2.188 h 3.256 v -0.657 h -4.227 v 6.068 h 4.06 V 2.566 H -2.922 V 0.648 H 0 Z"
             style="fill:#231f20;fill-opacity:1;fill-rule:nonzero;stroke:none"
             id="path116"
             inkscape:connector-curvature="0" /></g><g
           id="g118"
           transform="translate(52.1996,243.663)"><path
             d="M 0,0 H 0.993 C 2.03,0 2.688,0.459 2.688,1.152 2.688,1.936 1.985,2.277 0.959,2.287 0.491,2.287 0.156,2.25 0,2.214 Z M -0.971,2.764 C -0.48,2.845 0.223,2.89 0.892,2.89 1.929,2.89 2.599,2.737 3.067,2.395 3.446,2.125 3.658,1.71 3.658,1.242 3.658,0.441 3.034,-0.09 2.242,-0.306 v -0.027 c 0.58,-0.162 0.925,-0.594 1.104,-1.225 0.245,-0.846 0.424,-1.431 0.58,-1.665 H 2.922 C 2.799,-3.052 2.632,-2.53 2.42,-1.774 2.197,-0.937 1.795,-0.622 0.915,-0.594 H 0 v -2.629 h -0.971 z"
             style="fill:#231f20;fill-opacity:1;fill-rule:nonzero;stroke:none"
             id="path120"
             inkscape:connector-curvature="0" /></g><g
           id="g122"
           transform="translate(351.373,227.6029)"><path
             d="m 0,0 c 0,-1.296 0.87,-2.458 2.398,-2.458 1.54,0 2.41,1.144 2.41,2.521 C 4.808,1.269 4.026,2.53 2.409,2.53 0.804,2.53 0,1.332 0,0 m 5.834,0.099 c 0,-2.089 -1.573,-3.196 -3.491,-3.196 -1.986,0 -3.38,1.243 -3.38,3.079 0,1.926 1.483,3.187 3.491,3.187 2.053,0 3.38,-1.27 3.38,-3.07"
             style="fill:#231f20;fill-opacity:1;fill-rule:nonzero;stroke:none"
             id="path124"
             inkscape:connector-curvature="0" /></g><g
           id="g126"
           transform="translate(359.4345,227.6747)"><path
             d="m 0,0 c 0.212,-0.045 0.479,-0.063 0.803,-0.063 1.171,0 1.885,0.459 1.885,1.296 0,0.802 -0.703,1.189 -1.774,1.189 C 0.49,2.422 0.167,2.395 0,2.359 Z M -0.971,2.926 C -0.502,2.989 0.111,3.043 0.892,3.043 1.852,3.043 2.554,2.863 3,2.539 3.413,2.251 3.658,1.81 3.658,1.27 3.658,0.72 3.457,0.288 3.078,-0.027 2.565,-0.468 1.729,-0.693 0.78,-0.693 0.49,-0.693 0.223,-0.684 0,-0.639 V -3.07 h -0.971 z"
             style="fill:#231f20;fill-opacity:1;fill-rule:nonzero;stroke:none"
             id="path128"
             inkscape:connector-curvature="0" /></g><g
           id="g130"
           transform="translate(365.8222,230.0067)"><path
             d="M 0,0 H -2.286 V 0.666 H 3.279 V 0 H 0.981 V -5.402 H 0 Z"
             style="fill:#231f20;fill-opacity:1;fill-rule:nonzero;stroke:none"
             id="path132"
             inkscape:connector-curvature="0" /></g><path
           d="m 370.906,224.605 h -0.971 v 6.068 h 0.971 z"
           style="fill:#231f20;fill-opacity:1;fill-rule:nonzero;stroke:none"
           id="path134"
           inkscape:connector-curvature="0" /><g
           id="g136"
           transform="translate(373.1913,227.6029)"><path
             d="m 0,0 c 0,-1.296 0.87,-2.458 2.398,-2.458 1.54,0 2.41,1.144 2.41,2.521 C 4.808,1.269 4.026,2.53 2.409,2.53 0.804,2.53 0,1.332 0,0 m 5.834,0.099 c 0,-2.089 -1.573,-3.196 -3.491,-3.196 -1.986,0 -3.38,1.243 -3.38,3.079 0,1.926 1.483,3.187 3.491,3.187 2.053,0 3.38,-1.27 3.38,-3.07"
             style="fill:#231f20;fill-opacity:1;fill-rule:nonzero;stroke:none"
             id="path138"
             inkscape:connector-curvature="0" /></g><g
           id="g140"
           transform="translate(380.2822,224.6049)"><path
             d="M 0,0 V 6.068 H 1.06 L 3.469,2.998 C 4.026,2.287 4.462,1.647 4.818,1.026 L 4.841,1.035 C 4.752,1.846 4.729,2.584 4.729,3.529 V 6.068 H 5.644 V 0 H 4.662 L 2.275,3.079 C 1.751,3.754 1.249,4.447 0.87,5.104 L 0.836,5.096 C 0.893,4.33 0.914,3.601 0.914,2.593 V 0 Z"
             style="fill:#231f20;fill-opacity:1;fill-rule:nonzero;stroke:none"
             id="path142"
             inkscape:connector-curvature="0" /></g><g
           id="g144"
           transform="translate(358.7079,173.0638)"><path
             d="M 0,0 -1.227,2.91 C -1.505,3.57 -1.69,4.17 -1.877,4.755 H -1.914 C -2.1,4.155 -2.304,3.54 -2.545,2.925 L -3.771,0 Z M -4.106,-1.02 -5.408,-4.2 H -7.08 l 4.256,10.11 h 1.951 L 3.402,-4.2 H 1.674 l -1.339,3.18 z"
             style="fill:#231f20;fill-opacity:1;fill-rule:nonzero;stroke:none"
             id="path146"
             inkscape:connector-curvature="0" /></g><g
           id="g148"
           transform="translate(398.0048,200.5414)"><path
             d="m 0,0 c 0.315,-0.045 0.78,-0.06 1.356,-0.06 1.673,0 3.216,0.495 3.216,1.965 0,1.38 -1.468,1.95 -3.234,1.95 H 0 Z m 0,4.845 h 1.468 c 1.71,0 2.714,0.72 2.714,1.695 0,1.185 -1.116,1.65 -2.751,1.65 C 0.687,8.19 0.26,8.145 0,8.1 Z m -1.617,4.14 c 0.706,0.12 1.821,0.21 2.955,0.21 C 2.955,9.195 3.996,8.97 4.776,8.46 5.427,8.07 5.817,7.47 5.817,6.675 5.817,5.7 5.018,4.845 3.698,4.455 V 4.425 C 4.888,4.185 6.281,3.39 6.281,1.89 6.281,1.02 5.854,0.36 5.223,-0.135 4.349,-0.78 2.937,-1.08 0.892,-1.08 c -1.116,0 -1.97,0.06 -2.509,0.12 z"
             style="fill:#231f20;fill-opacity:1;fill-rule:nonzero;stroke:none"
             id="path150"
             inkscape:connector-curvature="0" /></g><g
           id="g152"
           transform="translate(243.104,51.2493)"><path
             d="M 0,0 C 0,0.732 -0.009,1.465 0.006,2.197 0.01,2.413 -0.061,2.458 -0.259,2.451 -0.662,2.437 -1.066,2.457 -1.469,2.443 -1.676,2.435 -1.647,2.557 -1.654,2.685 -1.661,2.828 -1.635,2.9 -1.463,2.899 -0.312,2.892 0.839,2.891 1.989,2.9 2.184,2.901 2.166,2.796 2.163,2.674 2.161,2.557 2.196,2.436 1.994,2.443 1.569,2.457 1.142,2.439 0.717,2.451 0.545,2.455 0.505,2.395 0.505,2.232 0.511,0.737 0.509,-0.757 0.507,-2.252 0.506,-2.327 0.553,-2.443 0.458,-2.472 0.325,-2.514 0.174,-2.513 0.04,-2.471 -0.03,-2.449 0.001,-2.351 0.001,-2.287 -0.001,-1.524 0,-0.762 0,0"
             style="fill:#565759;fill-opacity:1;fill-rule:nonzero;stroke:none"
             id="path154"
             inkscape:connector-curvature="0" /></g><g
           id="g156"
           transform="translate(241.2451,48.9902)"><path
             d="m 0,0 c -0.006,-0.157 -0.018,-0.237 -0.215,-0.236 -1.038,0.011 -2.078,0.01 -3.117,0.001 -0.182,-0.001 -0.224,0.055 -0.222,0.229 0.008,0.822 0.003,1.645 0.003,2.467 0,0.83 0.004,1.66 -0.002,2.489 -0.002,0.151 0.033,0.209 0.197,0.208 1.017,-0.007 2.033,-0.008 3.05,10e-4 0.192,0.001 0.193,-0.089 0.197,-0.232 0.004,-0.155 -0.022,-0.228 -0.205,-0.225 -0.837,0.009 -1.674,0 -2.511,0.007 -0.173,0.002 -0.235,-0.04 -0.23,-0.224 0.012,-0.5 0.011,-1.001 0,-1.502 C -3.059,2.809 -2.996,2.771 -2.835,2.772 -2.072,2.78 -1.31,2.77 -0.547,2.781 -0.366,2.783 -0.32,2.728 -0.323,2.553 -0.325,2.387 -0.355,2.32 -0.543,2.323 -1.306,2.334 -2.068,2.322 -2.831,2.331 -3.012,2.334 -3.058,2.276 -3.055,2.102 c 0.011,-0.553 0.011,-1.107 0,-1.66 -0.003,-0.176 0.046,-0.23 0.226,-0.228 0.867,0.009 1.734,0 2.601,0.008 C -0.056,0.223 0.008,0.182 0,0"
             style="fill:#565759;fill-opacity:1;fill-rule:nonzero;stroke:none"
             id="path158"
             inkscape:connector-curvature="0" /></g><g
           id="g160"
           transform="translate(237.4738,48.7622)"><path
             d="M 0,0 C -0.227,0 -0.41,-0.004 -0.592,0.001 -0.698,0.004 -0.732,0.105 -0.784,0.174 -1.423,1.012 -2.064,1.848 -2.695,2.692 -2.807,2.843 -2.881,2.863 -3.018,2.724 -3.229,2.513 -3.455,2.316 -3.683,2.124 -3.793,2.032 -3.827,1.931 -3.825,1.793 -3.819,1.255 -3.832,0.716 -3.817,0.179 -3.812,-0.03 -3.931,-0.01 -4.058,-0.001 -4.175,0.007 -4.329,-0.07 -4.328,0.171 -4.32,1.853 -4.321,3.534 -4.327,5.216 -4.328,5.439 -4.187,5.38 -4.073,5.38 -3.961,5.379 -3.815,5.441 -3.819,5.217 -3.828,4.425 -3.823,3.632 -3.82,2.84 c 0,-0.068 -0.045,-0.165 0.042,-0.199 0.068,-0.026 0.11,0.061 0.157,0.104 0.858,0.79 1.729,1.566 2.562,2.381 0.28,0.274 0.564,0.268 0.955,0.242 C -0.607,4.91 -1.065,4.494 -1.523,4.078 -1.8,3.827 -2.07,3.568 -2.356,3.328 -2.495,3.212 -2.482,3.134 -2.378,3.004 -1.633,2.077 -0.896,1.146 -0.157,0.215 -0.112,0.159 -0.072,0.099 0,0"
             style="fill:#565759;fill-opacity:1;fill-rule:nonzero;stroke:none"
             id="path162"
             inkscape:connector-curvature="0" /></g><g
           id="g164"
           transform="translate(232.0553,50.1898)"><path
             d="m 0,0 c -0.386,-1.012 -1.104,-1.52 -2.146,-1.52 -1.126,0.001 -1.894,0.533 -2.242,1.61 -0.36,1.113 -0.288,2.177 0.45,3.146 0.828,1.087 3.167,1.26 3.883,-0.568 C -0.021,2.582 0.06,2.463 -0.102,2.447 -0.235,2.434 -0.403,2.218 -0.513,2.488 -0.745,3.057 -1.101,3.502 -1.745,3.609 -2.482,3.732 -3.11,3.529 -3.567,2.915 c -0.481,-0.646 -0.55,-1.39 -0.467,-2.16 0.052,-0.492 0.197,-0.952 0.553,-1.318 0.887,-0.917 2.348,-0.693 2.916,0.446 0.057,0.113 0.113,0.231 0.143,0.353 0.037,0.15 0.116,0.159 0.245,0.123 C 0.108,0.281 0.109,0.286 0,0"
             style="fill:#565759;fill-opacity:1;fill-rule:nonzero;stroke:none"
             id="path166"
             inkscape:connector-curvature="0" /></g><g
           id="g168"
           transform="translate(225.8034,49.9133)"><path
             d="M 0,0 C -0.719,-1.119 -2.356,-1.145 -3.112,-0.05 -3.705,0.809 -3.697,2.308 -3.096,3.163 -2.356,4.216 -0.712,4.182 0,3.099 0.277,2.678 0.403,2.188 0.403,1.538 0.417,0.986 0.301,0.468 0,0 M 0.93,1.779 C 0.835,3.242 0.07,4.147 -1.261,4.3 -2.588,4.452 -3.605,3.785 -3.953,2.498 -4.11,1.918 -4.121,1.327 -3.992,0.743 c 0.2,-0.908 0.685,-1.606 1.614,-1.867 0.928,-0.26 1.818,-0.164 2.547,0.544 0.592,0.575 0.754,1.321 0.762,2.113 0,0.082 0.005,0.164 -0.001,0.246"
             style="fill:#565759;fill-opacity:1;fill-rule:nonzero;stroke:none"
             id="path170"
             inkscape:connector-curvature="0" /></g><g
           id="g172"
           transform="translate(223.706,60.3109)"><path
             d="M 0,0 C -0.054,0.082 -0.069,0.144 0.025,0.226 0.824,0.925 1.618,1.628 2.409,2.336 2.512,2.428 2.551,2.407 2.615,2.301 2.85,1.908 3.091,1.519 3.336,1.133 3.392,1.043 3.386,0.996 3.292,0.946 3.195,0.894 3.106,0.827 3.014,0.767 2.232,0.284 1.449,-0.195 0.672,-0.684 0.545,-0.764 0.49,-0.744 0.417,-0.624 0.287,-0.411 0.14,-0.207 0,0"
             style="fill:#df2025;fill-opacity:1;fill-rule:nonzero;stroke:none"
             id="path174"
             inkscape:connector-curvature="0" /></g><g
           id="g176"
           transform="translate(221.0455,65.7903)"><path
             d="M 0,0 C 0.021,-0.003 0.043,-0.007 0.064,-0.01 0.1,-0.037 0.139,-0.041 0.181,-0.027 0.203,-0.031 0.224,-0.035 0.246,-0.039 0.302,-0.073 0.361,-0.074 0.423,-0.062 0.444,-0.065 0.465,-0.069 0.486,-0.072 0.522,-0.1 0.562,-0.102 0.604,-0.089 L 0.668,-0.101 C 0.714,-0.13 0.764,-0.131 0.815,-0.118 0.836,-0.122 0.858,-0.126 0.88,-0.13 0.94,-0.185 0.901,-0.242 0.881,-0.296 0.811,-0.49 0.739,-0.683 0.668,-0.876 0.348,-1.743 0.028,-2.61 -0.291,-3.477 c -0.028,-0.077 -0.047,-0.159 -0.161,-0.135 -0.231,0.05 -0.462,0.097 -0.693,0.143 -0.077,0.015 -0.094,0.053 -0.083,0.128 0.105,0.679 0.207,1.359 0.309,2.04 0.05,0.336 0.097,0.674 0.145,1.011 0.004,0.021 0.008,0.043 0.012,0.064 0.027,0.036 0.031,0.075 0.017,0.117 0.004,0.022 0.007,0.043 0.011,0.065 0.02,0.119 0.088,0.146 0.197,0.108 C -0.502,0.052 -0.461,0.06 -0.422,0.059 -0.401,0.056 -0.38,0.053 -0.358,0.05 -0.322,0.025 -0.283,0.021 -0.242,0.036 -0.21,0.03 -0.179,0.025 -0.147,0.019 -0.101,-0.011 -0.052,-0.014 0,0"
             style="fill:#df2025;fill-opacity:1;fill-rule:nonzero;stroke:none"
             id="path178"
             inkscape:connector-curvature="0" /></g><g
           id="g180"
           transform="translate(222.0778,61.7297)"><path
             d="M 0,0 C -0.026,0.073 0.021,0.126 0.053,0.181 0.602,1.118 1.153,2.054 1.7,2.992 1.754,3.084 1.793,3.112 1.892,3.041 2.231,2.797 2.576,2.562 2.922,2.329 3.003,2.274 3.022,2.234 2.95,2.155 2.853,2.047 2.767,1.929 2.676,1.816 2.636,1.772 2.594,1.729 2.555,1.683 1.988,1.005 1.42,0.328 0.856,-0.353 0.787,-0.436 0.733,-0.448 0.643,-0.39 0.431,-0.255 0.215,-0.129 0,0"
             style="fill:#df2025;fill-opacity:1;fill-rule:nonzero;stroke:none"
             id="path182"
             inkscape:connector-curvature="0" /></g><g
           id="g184"
           transform="translate(216.4502,55.6711)"><path
             d="m 0,0 0.001,-0.01 c 0.01,-0.017 0.02,-0.033 0.029,-0.05 l 0.001,-0.011 c 0.01,-0.016 0.02,-0.033 0.03,-0.049 V -0.131 C 0.062,-0.164 0.07,-0.194 0.1,-0.214 0.107,-0.229 0.115,-0.244 0.122,-0.258 L 0.119,-0.269 0.13,-0.273 C 0.136,-0.286 0.143,-0.299 0.15,-0.312 0.151,-0.359 0.173,-0.396 0.211,-0.423 0.438,-0.882 0.661,-1.342 0.891,-1.799 1.693,-3.398 2.495,-4.996 3.305,-6.591 3.375,-6.73 3.368,-6.796 3.214,-6.837 3.157,-6.851 3.106,-6.887 3.052,-6.914 3.037,-6.923 3.021,-6.933 3.005,-6.943 2.992,-6.946 2.979,-6.95 2.965,-6.953 2.743,-7.047 2.521,-7.14 2.299,-7.234 2.113,-7.312 2.112,-7.313 2.024,-7.132 c -1.334,2.718 -2.667,5.436 -4.001,8.153 -0.281,0.573 -0.566,1.144 -0.85,1.716 -0.005,0.019 -0.008,0.039 -0.016,0.057 -0.126,0.264 -0.126,0.264 0.144,0.393 1.221,0.58 2.444,1.157 3.663,1.742 0.371,0.178 0.721,0.398 1.12,0.518 C 4.255,6.098 6.572,4.733 6.879,2.479 7.131,0.631 6.169,-0.548 6.166,-0.584 v 0 C 6.151,-0.596 6.132,-0.606 6.12,-0.622 5.519,-1.399 4.727,-1.912 3.831,-2.286 3.716,-2.334 3.639,-2.318 3.55,-2.238 3.389,-2.094 3.219,-1.96 3.053,-1.823 2.213,-1.128 1.374,-0.433 0.532,0.259 0.445,0.33 0.42,0.392 0.461,0.502 0.59,0.839 0.71,1.181 0.828,1.523 0.957,1.897 1.109,2.264 1.215,2.646 1.22,2.655 1.423,3.196 1.423,3.196 1.434,3.205 1.445,3.214 1.456,3.222 2.048,3.222 3.791,3.24 4.07,3.237 4.13,3.236 4.192,3.248 4.235,3.191 4.235,3.16 4.236,2.13 4.235,1.885 4.065,1.879 3.895,1.867 3.725,1.866 3.331,1.863 2.936,1.865 2.541,1.865 2.475,1.865 2.409,1.873 2.388,1.783 2.351,1.628 2.309,1.474 2.27,1.32 2.25,1.303 2.119,0.796 2.079,0.688 2.043,0.591 2.071,0.532 2.154,0.474 2.645,0.132 3.131,-0.216 3.619,-0.56 c 0.344,-0.243 0.349,-0.247 0.663,0.027 0.31,0.272 0.959,1.195 0.956,1.201 V 0.669 C 5.258,0.697 5.281,0.723 5.296,0.754 5.719,1.608 5.594,2.422 5.104,3.203 4.683,3.876 4.065,4.206 3.274,4.204 2.711,4.202 2.181,4.052 1.681,3.798 0.832,3.37 -0.016,2.941 -0.859,2.503 -1.264,2.293 -1.211,2.413 -1.015,1.991 -1.011,1.982 -1.002,1.977 -0.995,1.969 Z"
             style="fill:#df2025;fill-opacity:1;fill-rule:nonzero;stroke:none"
             id="path186"
             inkscape:connector-curvature="0" /></g><g
           id="g188"
           transform="translate(213.4409,49.7814)"><path
             d="M 0,0 C -0.756,-0.985 -2.273,-0.958 -2.996,0.049 -3.621,0.92 -3.594,2.462 -2.978,3.339 -2.292,4.314 -0.376,4.401 0.26,2.933 0.436,2.527 0.504,2.103 0.501,1.665 0.502,1.059 0.376,0.49 0,0 M 1.019,1.978 C 0.929,3.267 0.198,4.305 -1.167,4.437 -2.354,4.55 -3.369,4.058 -3.803,2.824 -3.933,2.453 -3.981,2.068 -3.964,1.676 c 0,-0.127 -0.009,-0.255 0.002,-0.381 0.101,-1.196 0.804,-2.252 2.159,-2.389 1.276,-0.128 2.32,0.449 2.697,1.739 0.127,0.437 0.157,0.884 0.125,1.333"
             style="fill:#565759;fill-opacity:1;fill-rule:nonzero;stroke:none"
             id="path190"
             inkscape:connector-curvature="0" /></g><g
           id="g192"
           transform="translate(209.3295,48.9857)"><path
             d="m 0,0 c -0.003,-0.171 -0.039,-0.232 -0.224,-0.23 -1.039,0.009 -2.079,0.008 -3.118,0 -0.17,-0.001 -0.215,0.046 -0.213,0.213 0.008,0.83 0.003,1.66 0.003,2.491 0,0.822 0.004,1.645 -0.002,2.467 -0.002,0.154 0.021,0.224 0.203,0.223 1.01,-0.01 2.02,-0.01 3.029,0 C -0.137,5.165 -0.12,5.091 -0.118,4.94 -0.117,4.778 -0.14,4.703 -0.334,4.705 -1.164,4.717 -1.994,4.706 -2.825,4.714 -2.996,4.716 -3.059,4.679 -3.054,4.493 -3.04,3.985 -3.044,3.476 -3.052,2.968 -3.054,2.82 -3.009,2.776 -2.861,2.777 c 0.77,0.007 1.54,-0.004 2.31,0.009 0.198,0.003 0.212,-0.081 0.214,-0.238 C -0.334,2.39 -0.366,2.325 -0.545,2.328 -1.3,2.338 -2.056,2.327 -2.811,2.336 -2.989,2.338 -3.059,2.302 -3.054,2.106 c 0.014,-0.553 0.012,-1.107 10e-4,-1.66 -0.004,-0.175 0.04,-0.23 0.223,-0.228 0.867,0.01 1.735,0 2.602,0.009 C -0.049,0.228 0.002,0.178 0,0"
             style="fill:#565759;fill-opacity:1;fill-rule:nonzero;stroke:none"
             id="path194"
             inkscape:connector-curvature="0" /></g><g
           id="g196"
           transform="translate(205.1323,49.6131)"><path
             d="m 0,0 c 0,-0.092 -0.004,-0.172 -0.095,-0.233 -0.998,-0.674 -2.076,-0.941 -3.231,-0.517 -0.989,0.364 -1.518,1.124 -1.6,2.179 -0.038,0.495 -0.01,0.989 0.147,1.464 0.433,1.316 1.564,1.834 2.858,1.709 C -1.07,4.519 -0.438,4.128 -0.137,3.291 -0.103,3.197 -0.061,3.084 -0.216,3.077 -0.348,3.071 -0.511,2.847 -0.613,3.095 -0.943,3.907 -1.556,4.253 -2.412,4.218 -3.236,4.183 -3.829,3.796 -4.18,3.051 c -0.443,-0.94 -0.276,-2.29 0.356,-2.959 0.612,-0.648 1.373,-0.725 2.191,-0.563 0.364,0.072 0.693,0.23 1.003,0.431 0.099,0.063 0.141,0.139 0.138,0.258 -0.007,0.328 -0.009,0.658 0.001,0.986 0.004,0.152 -0.053,0.191 -0.196,0.189 C -1.128,1.386 -1.569,1.4 -2.01,1.386 -2.199,1.38 -2.211,1.466 -2.209,1.613 c 0.002,0.143 0.003,0.241 0.196,0.231 0.306,-0.017 0.613,-0.005 0.92,-0.005 0.299,0 0.598,-0.008 0.896,0.003 C -0.035,1.848 0.004,1.79 0.002,1.637 -0.005,1.091 -0.001,0.546 0,0"
             style="fill:#565759;fill-opacity:1;fill-rule:nonzero;stroke:none"
             id="path198"
             inkscape:connector-curvature="0" /></g><g
           id="g200"
           transform="translate(198.6632,49.9564)"><path
             d="m 0,0 c -0.739,-1.206 -2.508,-1.212 -3.2,0.02 -0.547,0.973 -0.544,2.006 0.008,2.977 0.668,1.178 2.414,1.196 3.161,0.064 C 0.28,2.588 0.386,2.059 0.377,1.484 0.39,0.966 0.282,0.46 0,0 M 0.903,1.741 C 0.805,3.197 0.05,4.094 -1.271,4.254 -2.605,4.416 -3.635,3.744 -3.981,2.45 -4.137,1.869 -4.148,1.279 -4.018,0.695 c 0.202,-0.908 0.689,-1.606 1.618,-1.864 0.928,-0.257 1.818,-0.16 2.545,0.55 0.591,0.575 0.751,1.322 0.768,2.134 -0.002,0.062 -0.004,0.144 -0.01,0.226"
             style="fill:#565759;fill-opacity:1;fill-rule:nonzero;stroke:none"
             id="path202"
             inkscape:connector-curvature="0" /></g><g
           id="g204"
           transform="translate(194.6482,48.979)"><path
             d="m 0,0 c -0.003,-0.177 -0.051,-0.225 -0.228,-0.223 -1.032,0.008 -2.063,0.009 -3.094,-0.001 -0.197,-0.002 -0.232,0.066 -0.23,0.244 0.008,0.822 0.003,1.644 0.003,2.466 0,0.822 0.005,1.644 -0.003,2.467 -0.002,0.163 0.037,0.218 0.21,0.217 1.009,-0.008 2.019,-0.011 3.027,0.001 C -0.108,5.174 -0.114,5.079 -0.107,4.93 -0.101,4.769 -0.139,4.711 -0.315,4.713 -1.152,4.722 -1.989,4.712 -2.826,4.721 -3.005,4.723 -3.055,4.669 -3.051,4.494 -3.04,4.001 -3.038,3.508 -3.052,3.015 -3.057,2.819 -2.987,2.781 -2.808,2.784 -2.054,2.792 -1.298,2.78 -0.543,2.793 -0.35,2.796 -0.33,2.721 -0.327,2.56 -0.323,2.386 -0.369,2.331 -0.55,2.334 -1.313,2.345 -2.075,2.334 -2.837,2.343 -3.007,2.344 -3.053,2.293 -3.051,2.127 -3.041,1.567 -3.04,1.006 -3.052,0.446 -3.056,0.26 -2.988,0.224 -2.82,0.226 -1.96,0.233 -1.1,0.224 -0.241,0.233 -0.057,0.236 0.003,0.191 0,0"
             style="fill:#565759;fill-opacity:1;fill-rule:nonzero;stroke:none"
             id="path206"
             inkscape:connector-curvature="0" /></g><g
           id="g208"
           transform="translate(190.4713,48.9628)"><path
             d="M 0,0 C 0,-0.149 -0.03,-0.203 -0.194,-0.21 -0.432,-0.22 -0.581,-0.153 -0.722,0.058 -1.612,1.397 -2.52,2.724 -3.423,4.053 -3.477,4.132 -3.516,4.224 -3.6,4.277 -3.671,4.247 -3.645,4.189 -3.644,4.14 c 0.009,-1.361 0.015,-2.721 0.033,-4.082 0.002,-0.198 -0.04,-0.266 -0.255,-0.271 -0.235,-0.005 -0.243,0.101 -0.242,0.279 0.004,1.616 10e-4,3.231 0.006,4.846 0,0.089 -0.072,0.249 0.08,0.258 0.161,0.009 0.356,0.1 0.488,-0.102 0.263,-0.4 0.536,-0.794 0.804,-1.19 0.697,-1.027 1.392,-2.055 2.09,-3.081 0.04,-0.058 0.061,-0.138 0.173,-0.163 0,0.385 0.003,0.761 -0.001,1.137 C -0.477,2.84 -0.482,3.909 -0.505,4.978 -0.511,5.21 -0.385,5.18 -0.241,5.184 -0.093,5.187 0.004,5.19 0.003,4.98 -0.007,3.32 -0.004,1.66 0,0"
             style="fill:#565759;fill-opacity:1;fill-rule:nonzero;stroke:none"
             id="path210"
             inkscape:connector-curvature="0" /></g></g></g></g></svg>