<?xml version="1.0" encoding="UTF-8" standalone="no"?>
<!-- Generator: Adobe Illustrator 18.0.0, SVG Export Plug-In . SVG Version: 6.00 Build 0)  -->

<svg
   xmlns:dc="http://purl.org/dc/elements/1.1/"
   xmlns:cc="http://creativecommons.org/ns#"
   xmlns:rdf="http://www.w3.org/1999/02/22-rdf-syntax-ns#"
   xmlns:svg="http://www.w3.org/2000/svg"
   xmlns="http://www.w3.org/2000/svg"
   xmlns:xlink="http://www.w3.org/1999/xlink"
   xmlns:sodipodi="http://sodipodi.sourceforge.net/DTD/sodipodi-0.dtd"
   xmlns:inkscape="http://www.inkscape.org/namespaces/inkscape"
   version="1.1"
   id="Layer_1"
   x="0px"
   y="0px"
   viewBox="0 0 376.55615 168.28125"
   enable-background="new 0 0 800 600"
   xml:space="preserve"
   sodipodi:docname="controller.svg"
   width="376.55615"
   height="168.28125"
   inkscape:version="0.92.2 (5c3e80d, 2017-08-06)"><metadata
     id="metadata139"><rdf:RDF><cc:Work
         rdf:about=""><dc:format>image/svg+xml</dc:format><dc:type
           rdf:resource="http://purl.org/dc/dcmitype/StillImage" /><dc:title></dc:title></cc:Work></rdf:RDF></metadata><defs
     id="defs137" /><sodipodi:namedview
     pagecolor="#ffffff"
     bordercolor="#666666"
     borderopacity="1"
     objecttolerance="10"
     gridtolerance="10"
     guidetolerance="10"
     inkscape:pageopacity="0"
     inkscape:pageshadow="2"
     inkscape:window-width="1920"
     inkscape:window-height="1017"
     id="namedview135"
     showgrid="false"
     fit-margin-top="0"
     fit-margin-left="0"
     fit-margin-right="0"
     fit-margin-bottom="0"
     inkscape:zoom="1.5733333"
     inkscape:cx="84.124151"
     inkscape:cy="45.367186"
     inkscape:window-x="-8"
     inkscape:window-y="-8"
     inkscape:window-maximized="1"
     inkscape:current-layer="g14" /><g
     id="Layer_1_1_"
     display="none"
     style="display:none"
     transform="translate(-212.98661,-232.18375)"><g
       id="Layer_2"
       display="inline"
       style="display:inline"><image
         sodipodi:absref="H:\emulationstation\.emulationstation\themes\rgbpi-flat\zx81\Funstock-packshot-440x440.jpg"
         xlink:href="Funstock-packshot-440x440.jpg"
         style="overflow:visible"
         id="image2"
         transform="translate(180,80)"
         height="440"
         width="440"
         enable-background="new    "
         overflow="visible" /></g></g><g
     id="Layer_3"
     transform="translate(-212.98661,-232.18375)"><g
       id="g10"
       transform="matrix(1.25,0,0,-1.25,0,582.09)"><g
         id="g12"><g
           id="g91"><g
             id="g89"><g
               id="g87"><defs
                 id="defs7"><rect
                   id="SVGID_1_"
                   x="26.799999"
                   y="59.799999"
                   width="588.29999"
                   height="350.5" /></defs><clipPath
                 id="SVGID_2_"><use
                   xlink:href="#SVGID_1_"
                   overflow="visible"
                   id="use9"
                   style="overflow:visible"
                   x="0"
                   y="0"
                   width="100%"
                   height="100%" /></clipPath><g
                 id="g14"
                 clip-path="url(#SVGID_2_)"><g
                   id="g20"
                   transform="matrix(1,0,0,0.75,739.5266,36.325)"><path
                     id="path22"
                     d="m -272.5,145.3 c 5,0 4.6,0.6 4.6,2.7 v 173.8 c 0,2.3 -4.3,3 -9.2,3 h -282.8 c -4.9,0 -9.2,-0.7 -9.2,-3 V 148 c 0,-2.1 -0.4,-2.7 4.6,-2.7 z"
                     inkscape:connector-curvature="0"
                     style="fill:#3a3742" /></g><g
                   id="g200"
                   transform="matrix(1,0,0,0.75,727.01,271.99293)"><path
                     id="path202"
                     d="m -265,-47.9 c 4.1,0 8,-1.1 9.6,-6.1 v 0 c -1.2,6.2 -5.6,7.1 -9.6,7.1 h -282 c -4.1,0 -8.4,-0.9 -9.6,-7.1 v 0 c 1.6,4.9 5.6,6.1 9.6,6.1 z"
                     inkscape:connector-curvature="0"
                     style="fill:#181221" /></g><g
                   id="g204"
                   transform="matrix(1,0,0,0.75,727.01,273.67015)"><path
                     id="path206"
                     d="m -265,-49.3 c 4.1,0 8,-1.1 9.6,-6.1 v 0 c -1.2,6.2 -5.6,7.1 -9.6,7.1 h -282 c -4.1,0 -8.4,-0.9 -9.6,-7.1 v 0 c 1.6,4.9 5.6,6.1 9.6,6.1 z"
                     inkscape:connector-curvature="0"
                     style="fill:#3a3742" /></g><g
                   id="g208"
                   transform="matrix(1,0,0,0.75,727.01,275.73565)"><path
                     id="path210"
                     d="m -265,-50.9 c 4.1,0 8.4,-0.9 9.6,-7.1 0,6.3 -0.5,12.5 -9.6,12.5 h -282 c -9.1,0 -9.6,-6.3 -9.6,-12.5 1.2,6.2 5.6,7.1 9.6,7.1 z"
                     inkscape:connector-curvature="0"
                     style="fill:#181221" /></g><g
                   id="g212"
                   transform="matrix(1,0,0,0.75,11.4969,38.00215)"><path
                     id="path214"
                     d="m 163.5,143.9 c -5,0 -4.6,0.6 -4.6,2.7 0,0 0.7,-0.7 4.7,-0.7 h 291.8 c 4,0 4.7,0.7 4.7,0.7 0,-2.1 0.4,-2.7 -4.6,-2.7 z"
                     inkscape:connector-curvature="0"
                     style="fill:#181221" /></g><g
                   id="g216"
                   transform="matrix(1,0,0,0.75,11.4969,36.325)"><path
                     id="path218"
                     d="m 163.5,145.3 c -5,0 -4.6,0.6 -4.6,2.7 0,0 0.7,-0.7 4.7,-0.7 h 291.8 c 4,0 4.7,0.7 4.7,0.7 0,-2.1 0.4,-2.7 -4.6,-2.7 z"
                     inkscape:connector-curvature="0"
                     style="fill:#3a3742" /></g><g
                   id="g220"
                   transform="matrix(1,0,0,0.75,56.7343,337.1743)"><path
                     id="path222"
                     d="m 136.4,-101.3 c 0.2,0.1 0.4,0.2 0.6,0.3 0.2,0.1 0.3,0.3 0.4,0.5 0.1,0.2 0.2,0.4 0.2,0.6 0,0.2 0,0.5 -0.1,0.6 -0.1,0.1 -0.2,0.3 -0.4,0.4 -0.2,0.1 -0.3,0.2 -0.5,0.3 -0.2,0.1 -0.4,0.1 -0.6,0.2 -0.2,0 -0.4,0.1 -0.5,0.1 -0.1,0 -0.3,0.1 -0.4,0.1 -0.1,0 -0.2,0.1 -0.2,0.2 -0.1,0.1 -0.1,0.1 -0.1,0.2 0,0.1 0.1,0.3 0.2,0.4 0.1,0.1 0.3,0.1 0.6,0.1 0.2,0 0.4,-0.1 0.6,-0.2 0.1,-0.1 0.2,-0.2 0.3,-0.4 h 1.1 c 0,0.2 -0.1,0.4 -0.2,0.6 -0.1,0.2 -0.2,0.3 -0.4,0.4 -0.2,0.1 -0.4,0.2 -0.6,0.3 -0.2,0.1 -0.5,0.1 -0.7,0.1 -0.3,0 -0.5,0 -0.8,-0.1 -0.2,-0.1 -0.4,-0.1 -0.6,-0.3 -0.2,-0.1 -0.3,-0.3 -0.4,-0.4 -0.1,-0.2 -0.1,-0.4 -0.1,-0.6 0,-0.2 0,-0.4 0.1,-0.6 0.1,-0.2 0.2,-0.3 0.4,-0.4 0.2,-0.1 0.3,-0.2 0.6,-0.2 0.2,-0.1 0.4,-0.1 0.7,-0.2 0.2,0 0.3,-0.1 0.5,-0.1 0.1,0 0.3,-0.1 0.4,-0.1 0.1,0 0.2,-0.1 0.2,-0.2 0.1,-0.1 0.1,-0.2 0.1,-0.3 0,-0.1 0,-0.2 -0.1,-0.2 0,-0.1 -0.1,-0.1 -0.2,-0.2 -0.1,0 -0.2,-0.1 -0.3,-0.1 -0.1,0 -0.2,0 -0.3,0 -0.3,0 -0.6,0.1 -0.7,0.2 -0.2,0.1 -0.3,0.3 -0.3,0.6 h -1.1 c 0,-0.3 0.1,-0.5 0.2,-0.7 0.1,-0.2 0.2,-0.4 0.4,-0.5 0.2,-0.1 0.4,-0.2 0.7,-0.3 0.3,-0.1 0.6,-0.1 0.9,-0.1 -0.1,-0.1 0.2,-0.1 0.4,0"
                     inkscape:connector-curvature="0"
                     style="fill:#d3c5c5" /></g><g
                   id="g224"
                   transform="matrix(1,0,0,0.75,64.1132,339.019)"><path
                     id="path226"
                     d="m 132,-102.8 c -0.1,0.2 -0.2,0.4 -0.2,0.7 0,0.1 0,0.3 0,0.4 0,0.1 0.1,0.2 0.1,0.3 0.1,0.1 0.1,0.2 0.2,0.2 0.1,0.1 0.2,0.1 0.3,0.1 0.3,0 0.4,-0.1 0.6,-0.3 0.1,-0.2 0.2,-0.4 0.2,-0.7 0,-0.3 -0.1,-0.5 -0.2,-0.7 -0.1,-0.2 -0.3,-0.3 -0.5,-0.3 -0.2,0 -0.4,0.1 -0.5,0.3 m -1.2,-2.1 h 1 v 0.8 c 0,0.2 0,0.3 0,0.5 0,0.1 0,0.2 0,0.3 v 0 c 0.1,-0.2 0.2,-0.3 0.4,-0.4 0.2,-0.1 0.4,-0.1 0.6,-0.1 0.2,0 0.4,0 0.6,0.1 0.2,0.1 0.4,0.2 0.5,0.4 0.1,0.2 0.2,0.3 0.3,0.6 0.1,0.2 0.1,0.5 0.1,0.7 0,0.3 0,0.5 -0.1,0.7 -0.1,0.2 -0.2,0.4 -0.3,0.6 -0.1,0.2 -0.3,0.3 -0.5,0.4 -0.2,0.1 -0.4,0.1 -0.6,0.1 -0.5,0 -0.8,-0.2 -1.1,-0.6 v 0 0.5 h -1 v -4.6 z"
                     inkscape:connector-curvature="0"
                     style="fill:#d3c5c5" /></g><g
                   id="g228"
                   transform="matrix(1,0,0,0.75,76.6159,342.15708)"><path
                     id="path230"
                     d="m 124.5,-105.4 c 0.1,-0.1 0.2,-0.3 0.2,-0.6 h -1.5 c 0,0.2 0.1,0.4 0.2,0.5 0.1,0.1 0.3,0.2 0.5,0.2 0.3,0.1 0.5,0.1 0.6,-0.1 m 0.2,-2.5 c 0.2,0.1 0.3,0.1 0.5,0.2 0.2,0.1 0.3,0.2 0.3,0.3 0.1,0.1 0.2,0.3 0.2,0.4 h -1 c -0.1,-0.1 -0.1,-0.2 -0.2,-0.2 -0.1,0 -0.2,-0.1 -0.4,-0.1 -0.2,0 -0.4,0.1 -0.6,0.2 -0.1,0.1 -0.2,0.3 -0.3,0.6 h 2.5 c 0,0.3 0,0.6 -0.1,0.9 -0.1,0.3 -0.2,0.5 -0.4,0.7 -0.2,0.1 -0.3,0.2 -0.5,0.3 -0.2,0.1 -0.4,0.1 -0.7,0.1 -0.3,0 -0.5,0 -0.7,-0.1 -0.2,-0.1 -0.4,-0.2 -0.6,-0.4 -0.2,-0.2 -0.3,-0.3 -0.4,-0.6 -0.1,-0.2 -0.1,-0.5 -0.1,-0.7 0,-0.2 0,-0.5 0.1,-0.7 0.1,-0.2 0.2,-0.4 0.4,-0.6 0.2,-0.2 0.4,-0.3 0.6,-0.4 0.2,-0.1 0.5,-0.1 0.8,-0.1 0.2,0.1 0.4,0.1 0.6,0.2"
                     inkscape:connector-curvature="0"
                     style="fill:#d3c5c5" /></g><g
                   id="g232"
                   transform="matrix(1,0,0,0.75,86.8714,337.19268)"><path
                     id="path234"
                     d="m 118.4,-101.3 c 0.2,0.1 0.4,0.2 0.5,0.3 0.1,0.1 0.2,0.3 0.3,0.4 0.1,0.2 0.1,0.3 0.1,0.5 h -1 c 0,-0.2 -0.1,-0.3 -0.2,-0.4 -0.1,-0.1 -0.3,-0.2 -0.5,-0.2 -0.3,0 -0.5,0.1 -0.6,0.3 -0.1,0.2 -0.2,0.4 -0.2,0.7 0,0.3 0.1,0.6 0.2,0.8 0.1,0.2 0.3,0.3 0.6,0.3 0.2,0 0.3,0 0.4,-0.1 0.1,-0.1 0.2,-0.2 0.2,-0.4 h 1 c 0,0.2 -0.1,0.3 -0.2,0.5 -0.1,0.2 -0.2,0.3 -0.3,0.4 -0.1,0.1 -0.3,0.2 -0.5,0.3 -0.2,0.1 -0.4,0.1 -0.6,0.1 -0.3,0 -0.5,0 -0.7,-0.1 -0.2,-0.1 -0.4,-0.2 -0.6,-0.4 -0.2,-0.2 -0.3,-0.3 -0.4,-0.6 -0.1,-0.2 -0.1,-0.5 -0.1,-0.7 0,-0.3 0,-0.5 0.1,-0.7 0.1,-0.2 0.2,-0.4 0.4,-0.6 0.2,-0.2 0.4,-0.3 0.6,-0.4 0.2,-0.1 0.5,-0.1 0.8,-0.1 0.3,0 0.5,0 0.7,0.1"
                     inkscape:connector-curvature="0"
                     style="fill:#d3c5c5" /></g><g
                   id="g236"
                   transform="matrix(1,0,0,0.75,89.9848,342.49412)"><path
                     id="path238"
                     d="m 116.5,-105.7 h 0.5 v -1.9 c 0,-0.2 0,-0.3 0.1,-0.4 0.1,-0.1 0.1,-0.2 0.2,-0.3 0.1,-0.1 0.2,-0.1 0.3,-0.1 0.1,0 0.3,0 0.4,0 0.1,0 0.3,0 0.4,0 0.1,0 0.2,0 0.2,0 v 0.7 h -0.1 -0.1 -0.1 c -0.1,0 -0.2,0 -0.3,0.1 -0.1,0 -0.1,0.1 -0.1,0.3 v 1.7 h 0.7 v 0.6 H 118 v 1.1 h -1 v -1.1 h -0.5 z"
                     inkscape:connector-curvature="0"
                     style="fill:#d3c5c5" /></g><g
                   id="g240"
                   transform="matrix(1,0,0,0.75,99.3168,343.71985)"><path
                     id="path242"
                     d="m 110.9,-106.7 h -1 v -3.4 h 1 v 1.6 c 0,0.3 0.1,0.6 0.3,0.7 0.2,0.2 0.4,0.2 0.7,0.2 0.1,0 0.1,0 0.2,0 v 0 0.9 c 0,0 -0.1,0 -0.2,0 -0.2,0 -0.4,-0.1 -0.6,-0.2 -0.2,-0.1 -0.3,-0.3 -0.4,-0.5 v 0 z"
                     inkscape:connector-curvature="0"
                     style="fill:#d3c5c5" /></g><g
                   id="g244"
                   transform="matrix(1,0,0,0.75,111.6397,337.19882)"><path
                     id="path246"
                     d="m 103.5,-101.3 v 3.4 h -1 v -1.9 c 0,-0.2 -0.1,-0.4 -0.2,-0.5 -0.1,-0.1 -0.3,-0.2 -0.5,-0.2 -0.2,0 -0.3,0.1 -0.4,0.2 -0.1,0.1 -0.1,0.2 -0.1,0.4 v 2 h -1 v -2.2 c 0,-0.4 0.1,-0.7 0.3,-0.9 0.2,-0.2 0.5,-0.3 0.9,-0.3 0.2,0 0.4,0 0.6,0.1 0.2,0.1 0.3,0.2 0.4,0.4 v 0 -0.5 z"
                     inkscape:connector-curvature="0"
                     style="fill:#d3c5c5" /></g><g
                   id="g248"
                   transform="matrix(1,0,0,0.75,113.3394,337.19882)"><path
                     id="path250"
                     d="m 102.5,-101.3 h 1 v 1.9 c 0,0.2 0.1,0.4 0.2,0.5 0.1,0.1 0.3,0.2 0.4,0.2 0.2,0 0.3,-0.1 0.4,-0.2 0.1,-0.1 0.1,-0.2 0.1,-0.4 v -2 h 1 v 1.9 c 0,0.2 0.1,0.4 0.2,0.5 0.1,0.1 0.3,0.2 0.4,0.2 0.2,0 0.3,-0.1 0.4,-0.2 0.1,-0.1 0.1,-0.2 0.1,-0.4 v -2 h 1 v 2.2 c 0,0.4 -0.1,0.7 -0.3,0.9 -0.2,0.2 -0.5,0.3 -0.9,0.3 -0.2,0 -0.4,0 -0.6,-0.1 -0.2,-0.1 -0.4,-0.3 -0.5,-0.5 v 0 c -0.2,0.4 -0.5,0.6 -1,0.6 -0.2,0 -0.5,-0.1 -0.6,-0.2 -0.2,-0.1 -0.3,-0.3 -0.4,-0.5 v 0 0.5 h -1 v -3.2 c 0,0 0.1,0 0.1,0 z"
                     inkscape:connector-curvature="0"
                     style="fill:#d3c5c5" /></g><g
                   id="g252"
                   transform="matrix(1,0,0,0.75,21.072,337.19882)"><path
                     id="path254"
                     d="m 157.8,-101.3 h 4 v 0.9 h -1.6 c -0.1,0 -0.2,0 -0.3,0 -0.1,0 -0.2,0 -0.4,0 -0.1,0 -0.3,0 -0.4,0 v 0 l 0.3,0.3 c 0.1,0.1 0.2,0.2 0.3,0.3 0.1,0.1 0.2,0.2 0.3,0.3 l 1.7,2 v 0.8 H 158 v -0.9 h 1.4 c 0.1,0 0.2,0 0.3,0 0.1,0 0.2,0 0.3,0 0.1,0 0.2,0 0.4,0 v 0 c -0.1,-0.1 -0.2,-0.2 -0.3,-0.3 -0.1,-0.1 -0.2,-0.2 -0.3,-0.3 -0.1,-0.1 -0.2,-0.2 -0.2,-0.3 l -1.8,-2.1 z"
                     inkscape:connector-curvature="0"
                     style="fill:#d3c5c5" /></g><g
                   id="g256"
                   transform="matrix(1,0,0,0.75,32.2999,337.19882)"><path
                     id="path258"
                     d="m 151.1,-101.3 h 1.3 l 0.5,0.8 c 0.1,0.1 0.1,0.2 0.2,0.3 0.1,0.1 0.1,0.2 0.2,0.3 0.1,0.1 0.1,0.2 0.2,0.3 v 0 c 0.1,-0.1 0.1,-0.2 0.2,-0.3 0,-0.1 0.1,-0.2 0.2,-0.3 0.1,-0.1 0.1,-0.2 0.2,-0.3 l 0.5,-0.8 h 1.3 l -1.6,2.5 1.5,2.2 h -1.2 l -0.4,-0.6 c -0.1,-0.1 -0.1,-0.2 -0.2,-0.3 -0.1,-0.1 -0.1,-0.2 -0.2,-0.3 -0.1,-0.1 -0.1,-0.2 -0.2,-0.3 v 0 c -0.1,0.1 -0.1,0.2 -0.2,0.3 0,0.1 -0.1,0.2 -0.2,0.3 -0.1,0.1 -0.1,0.2 -0.2,0.3 l -0.4,0.6 h -1.3 l 1.5,-2.2 z"
                     inkscape:connector-curvature="0"
                     style="fill:#d3c5c5" /></g><path
                   id="path260"
                   d="m 244,278.65 h 3.7 v -9.9 H 244 Z"
                   inkscape:connector-curvature="0"
                   style="fill:#5b585b;stroke-width:0.86602539" /><path
                   id="path262"
                   d="m 253.2,271.375 h 9.2 V 270.7 h -9.2 z m -3.7,4.65 v -1.95 h 12.8 V 273.4 h -12.8 v -4.65 H 266 v 7.275 z"
                   inkscape:connector-curvature="0"
                   style="fill:#5b585b;stroke-width:0.86602539" /><path
                   id="path264"
                   d="m 267.8,276.025 h 3.7 v -7.275 h -3.7 z"
                   inkscape:connector-curvature="0"
                   style="fill:#5b585b;stroke-width:0.86602539" /><path
                   id="path266"
                   d="m 267.8,278.65 h 3.7 v -1.95 h -3.7 z"
                   inkscape:connector-curvature="0"
                   style="fill:#5b585b;stroke-width:0.86602539" /><g
                   id="g268"
                   transform="matrix(1,0,0,0.75,256.6329,375.59057)"><path
                     id="path270"
                     d="m 16.7,-132.8 v -9.7 h 3.7 v 7 H 35 v 2.6 z"
                     inkscape:connector-curvature="0"
                     style="fill:#5b585b" /></g><g
                   id="g272"
                   transform="matrix(1,0,0,0.75,133.3571,375.59057)"><path
                     id="path274"
                     d="m 90.5,-132.8 v -9.7 h 18.3 v 2.6 H 94.2 v 4.4 h 14.6 v 2.6 z"
                     inkscape:connector-curvature="0"
                     style="fill:#5b585b" /></g><g
                   id="g276"
                   transform="matrix(1,0,0,0.75,83.1321,375.59057)"><path
                     id="path278"
                     d="m 120.6,-132.8 v -9.7 h 3.7 v 7 h 11 v -7 h 3.7 v 9.7 z"
                     inkscape:connector-curvature="0"
                     style="fill:#5b585b" /></g><path
                   id="path280"
                   d="m 198.2,276.025 h 3.7 v -7.275 h -3.7 z"
                   inkscape:connector-curvature="0"
                   style="fill:#5b585b;stroke-width:0.86602539" /><path
                   id="path282"
                   d="m 198.2,278.65 h 3.7 v -1.95 h -3.7 z"
                   inkscape:connector-curvature="0"
                   style="fill:#5b585b;stroke-width:0.86602539" /><g
                   id="g284"
                   transform="matrix(1,0,0,0.75,19.2138,375.59057)"><path
                     id="path286"
                     d="m 158.9,-132.8 v -6.2 h 14.6 v -0.9 h -14.6 v -2.6 h 18.3 v 6.2 h -14.7 v 0.9 h 14.7 v 2.6 z"
                     inkscape:connector-curvature="0"
                     style="fill:#5b585b" /></g><path
                   id="path288"
                   d="m 244.9,277.975 h 3.7 v -9.9 h -3.7 z"
                   inkscape:connector-curvature="0"
                   style="fill:#181221;stroke-width:0.86602539" /><path
                   id="path290"
                   d="m 254.1,270.775 h 9.2 V 270.1 h -9.2 z m -3.7,4.575 v -1.95 h 12.8 v -0.675 h -12.8 v -4.65 h 16.5 v 7.275 z"
                   inkscape:connector-curvature="0"
                   style="fill:#181221;stroke-width:0.86602539" /><path
                   id="path292"
                   d="m 268.7,275.35 h 3.7 v -7.275 h -3.7 z"
                   inkscape:connector-curvature="0"
                   style="fill:#181221;stroke-width:0.86602539" /><path
                   id="path294"
                   d="m 268.7,277.975 h 3.7 v -1.95 h -3.7 z"
                   inkscape:connector-curvature="0"
                   style="fill:#181221;stroke-width:0.86602539" /><g
                   id="g296"
                   transform="matrix(1,0,0,0.75,258.8691,373.91343)"><path
                     id="path298"
                     d="m 15.4,-131.4 v -9.7 H 19 v 7 h 14.6 v 2.6 z"
                     inkscape:connector-curvature="0"
                     style="fill:#181221" /></g><g
                   id="g300"
                   transform="matrix(1,0,0,0.75,135.5933,373.91343)"><path
                     id="path302"
                     d="m 89.2,-131.4 v -9.7 h 18.3 v 2.6 H 92.9 v 4.4 h 14.6 v 2.6 z"
                     inkscape:connector-curvature="0"
                     style="fill:#181221" /></g><g
                   id="g304"
                   transform="matrix(1,0,0,0.75,85.3683,373.91343)"><path
                     id="path306"
                     d="m 119.3,-131.4 v -9.7 h 3.7 v 7 h 11 v -7 h 3.7 v 9.7 z"
                     inkscape:connector-curvature="0"
                     style="fill:#181221" /></g><path
                   id="path308"
                   d="m 199.1,275.35 h 3.7 v -7.275 h -3.7 z"
                   inkscape:connector-curvature="0"
                   style="fill:#181221;stroke-width:0.86602539" /><path
                   id="path310"
                   d="m 199.1,277.975 h 3.7 v -1.95 h -3.7 z"
                   inkscape:connector-curvature="0"
                   style="fill:#181221;stroke-width:0.86602539" /><g
                   id="g312"
                   transform="matrix(1,0,0,0.75,21.4501,373.91343)"><path
                     id="path314"
                     d="m 157.6,-131.4 v -6.2 h 14.6 v -0.9 h -14.6 v -2.6 h 18.3 v 6.2 h -14.7 v 0.9 h 14.7 v 2.6 z"
                     inkscape:connector-curvature="0"
                     style="fill:#181221" /></g><path
                   id="path316"
                   d="m 244.5,278.35 h 3.7 v -9.9 h -3.7 z"
                   inkscape:connector-curvature="0"
                   style="fill:#3a3742;stroke-width:0.86602539" /><path
                   id="path318"
                   d="m 253.6,271.075 h 9.2 V 270.4 h -9.2 z m -3.6,4.575 v -1.95 h 12.8 v -0.675 H 250 v -4.65 h 16.5 v 7.275 z"
                   inkscape:connector-curvature="0"
                   style="fill:#3a3742;stroke-width:0.86602539" /><path
                   id="path320"
                   d="m 268.3,275.65 h 3.7 v -7.275 h -3.7 z"
                   inkscape:connector-curvature="0"
                   style="fill:#3a3742;stroke-width:0.86602539" /><path
                   id="path322"
                   d="m 268.3,278.35 h 3.7 v -2.025 h -3.7 z"
                   inkscape:connector-curvature="0"
                   style="fill:#3a3742;stroke-width:0.86602539" /><g
                   id="g324"
                   transform="matrix(1,0,0,0.75,257.7509,374.752)"><path
                     id="path326"
                     d="m 16,-132.1 v -9.7 h 3.7 v 7 h 14.6 v 2.6 z"
                     inkscape:connector-curvature="0"
                     style="fill:#3a3742" /></g><g
                   id="g328"
                   transform="matrix(1,0,0,0.75,134.4752,374.752)"><path
                     id="path330"
                     d="m 89.9,-132.1 v -9.7 h 18.3 v 2.6 H 93.5 v 4.4 h 14.6 v 2.6 z"
                     inkscape:connector-curvature="0"
                     style="fill:#3a3742" /></g><g
                   id="g332"
                   transform="matrix(1,0,0,0.75,84.2502,374.752)"><path
                     id="path334"
                     d="m 119.9,-132.1 v -9.7 h 3.7 v 7 h 11 v -7 h 3.7 v 9.7 z"
                     inkscape:connector-curvature="0"
                     style="fill:#3a3742" /></g><path
                   id="path336"
                   d="m 198.7,275.65 h 3.7 v -7.275 h -3.7 z"
                   inkscape:connector-curvature="0"
                   style="fill:#3a3742;stroke-width:0.86602539" /><path
                   id="path338"
                   d="m 198.7,278.35 h 3.7 v -2.025 h -3.7 z"
                   inkscape:connector-curvature="0"
                   style="fill:#3a3742;stroke-width:0.86602539" /><g
                   id="g340"
                   transform="matrix(1,0,0,0.75,20.332,374.752)"><path
                     id="path342"
                     d="m 158.2,-132.1 v -6.2 h 14.6 v -0.9 h -14.6 v -2.6 h 18.3 v 6.2 h -14.7 v 0.9 h 14.7 v 2.6 z"
                     inkscape:connector-curvature="0"
                     style="fill:#3a3742" /></g></g></g></g></g></g></g></g><g
     id="Layer_2_1_"
     transform="matrix(1,0,0,0.75,-212.98661,-132.0675)"
     style="opacity:0.65"><path
       d="m 503.8,288.5 h -32 c -1.5,0 -2.8,-1.2 -2.8,-2.8 v -16 c 0,-1.5 1.2,-2.8 2.8,-2.8 h 32 c 1.5,0 2.8,1.2 2.8,2.8 v 16 c -0.1,1.6 -1.3,2.8 -2.8,2.8 z"
       id="path96"
       inkscape:connector-curvature="0"
       style="fill:#b3bbb9" /><path
       d="m 556.3,288.5 h -32 c -1.5,0 -2.8,-1.2 -2.8,-2.8 v -16 c 0,-1.5 1.2,-2.8 2.8,-2.8 h 32 c 1.5,0 2.8,1.2 2.8,2.8 v 16 c -0.1,1.6 -1.3,2.8 -2.8,2.8 z"
       id="path98"
       inkscape:connector-curvature="0"
       style="fill:#b3bbb9" /><path
       d="m 503.8,326.5 h -32 c -1.5,0 -2.8,-1.2 -2.8,-2.8 v -16 c 0,-1.5 1.2,-2.8 2.8,-2.8 h 32 c 1.5,0 2.8,1.2 2.8,2.8 v 16 c -0.1,1.6 -1.3,2.8 -2.8,2.8 z"
       id="path100"
       inkscape:connector-curvature="0"
       style="fill:#b3bbb9" /><path
       d="m 556.3,326.5 h -32 c -1.5,0 -2.8,-1.2 -2.8,-2.8 v -16 c 0,-1.5 1.2,-2.8 2.8,-2.8 h 32 c 1.5,0 2.8,1.2 2.8,2.8 v 16 c -0.1,1.6 -1.3,2.8 -2.8,2.8 z"
       id="path102"
       inkscape:connector-curvature="0"
       style="fill:#b3bbb9" /><path
       d="m 396.1,283.5 h 9.8 c 0.5,0 0.8,-0.7 0.8,-1.5 v -8.6 c 0,-0.8 -0.4,-1.5 -0.8,-1.5 h -9.8 c -0.5,0 -0.8,0.7 -0.8,1.5 v 8.6 c 0,0.8 0.3,1.5 0.8,1.5 z"
       id="path104"
       inkscape:connector-curvature="0"
       style="fill:#b3bbb9" /><path
       d="m 469.8,356.5 h 9.8 c 0.5,0 0.8,-0.7 0.8,-1.5 v -8.6 c 0,-0.8 -0.4,-1.5 -0.8,-1.5 h -9.8 c -0.5,0 -0.8,0.7 -0.8,1.5 v 8.6 c 0,0.8 0.4,1.5 0.8,1.5 z"
       id="path106"
       inkscape:connector-curvature="0"
       style="fill:#b3bbb9" /><path
       d="m 495.8,356.5 h 9.8 c 0.5,0 0.8,-0.7 0.8,-1.5 v -8.6 c 0,-0.8 -0.4,-1.5 -0.8,-1.5 h -9.8 c -0.5,0 -0.8,0.7 -0.8,1.5 v 8.6 c 0,0.8 0.4,1.5 0.8,1.5 z"
       id="path108"
       inkscape:connector-curvature="0"
       style="fill:#b3bbb9" /><path
       d="m 522.3,356.5 h 9.8 c 0.5,0 0.8,-0.7 0.8,-1.5 v -8.6 c 0,-0.8 -0.4,-1.5 -0.8,-1.5 h -9.8 c -0.5,0 -0.8,0.7 -0.8,1.5 v 8.6 c 0,0.8 0.4,1.5 0.8,1.5 z"
       id="path110"
       inkscape:connector-curvature="0"
       style="fill:#b3bbb9" /><path
       d="m 548.3,356.5 h 9.8 c 0.5,0 0.8,-0.7 0.8,-1.5 v -8.6 c 0,-0.8 -0.4,-1.5 -0.8,-1.5 h -9.8 c -0.5,0 -0.8,0.7 -0.8,1.5 v 8.6 c 0,0.8 0.4,1.5 0.8,1.5 z"
       id="path112"
       inkscape:connector-curvature="0"
       style="fill:#b3bbb9" /><path
       d="m 264.5,315.8 h -16 c -1.5,0 -2.8,-1.2 -2.8,-2.8 v -32 c 0,-1.5 1.2,-2.8 2.8,-2.8 h 16 c 0,0 2.9,-0.7 3.6,-1.4 0.6,-0.6 1.4,-3.2 1.4,-3.2 v -16 c 0,-1.5 1.2,-2.7 2.8,-2.7 h 32 c 1.5,0 2.8,1.2 2.8,2.7 v 16 c 0,0 0.8,2.6 1.4,3.2 0.7,0.7 3.5,1.3 3.5,1.3 h 16 c 1.5,0 2.8,1.2 2.8,2.8 v 32 c 0,1.5 -1.2,2.8 -2.8,2.8 h -16 c 0,0 -2.9,1 -3.6,1.8 -0.7,0.7 -1.4,3.6 -1.4,3.6 v 16 c 0,1.5 -1.2,2.8 -2.8,2.8 h -32 c -1.5,0 -2.8,-1.2 -2.8,-2.8 v -16 c 0,0 -0.8,-3 -1.5,-3.7 -0.6,-0.7 -3.4,-1.6 -3.4,-1.6 z"
       id="path114"
       inkscape:connector-curvature="0"
       style="fill:#b3bbb9" /><path
       d="m 275.3,278 12.9,13 12.9,-13 c 0,0 0.8,-0.7 0.8,-1.5 V 262 c 0,-0.8 -0.4,-1.5 -0.8,-1.5 h -25.8 c -0.5,0 -0.8,0.7 -0.8,1.5 v 14.6 c 0,0.7 0.8,1.4 0.8,1.4 z"
       id="path116"
       inkscape:connector-curvature="0"
       style="fill:#bb1339" /><path
       d="m 301.2,316.1 -12.9,-13 -12.9,13 c 0,0 -0.8,0.7 -0.8,1.5 v 14.6 c 0,0.8 0.4,1.5 0.8,1.5 h 25.8 c 0.5,0 0.8,-0.7 0.8,-1.5 v -14.6 c 0,-0.8 -0.8,-1.5 -0.8,-1.5 z"
       id="path118"
       inkscape:connector-curvature="0"
       style="fill:#bb1339" /><path
       d="m 307.3,284.2 -13,12.9 13,12.9 c 0,0 0.7,0.8 1.5,0.8 h 14.6 c 0.8,0 1.5,-0.4 1.5,-0.8 v -25.8 c 0,-0.5 -0.7,-0.8 -1.5,-0.8 h -14.6 c -0.8,-0.1 -1.5,0.8 -1.5,0.8 z"
       id="path120"
       inkscape:connector-curvature="0"
       style="fill:#bb1339" /><path
       d="m 269.2,310 13,-12.9 -13,-12.9 c 0,0 -0.7,-0.8 -1.5,-0.8 h -14.6 c -0.8,0 -1.5,0.4 -1.5,0.8 V 310 c 0,0.5 0.7,0.8 1.5,0.8 h 14.6 c 0.8,0 1.5,-0.8 1.5,-0.8 z"
       id="path122"
       inkscape:connector-curvature="0"
       style="fill:#bb1339" /></g></svg>