<?xml version="1.0" encoding="UTF-8" standalone="no"?>
<!-- Generator: Adobe Illustrator 16.0.3, SVG Export Plug-In . SVG Version: 6.00 Build 0)  -->

<svg
   xmlns:dc="http://purl.org/dc/elements/1.1/"
   xmlns:cc="http://creativecommons.org/ns#"
   xmlns:rdf="http://www.w3.org/1999/02/22-rdf-syntax-ns#"
   xmlns:svg="http://www.w3.org/2000/svg"
   xmlns="http://www.w3.org/2000/svg"
   xmlns:sodipodi="http://sodipodi.sourceforge.net/DTD/sodipodi-0.dtd"
   xmlns:inkscape="http://www.inkscape.org/namespaces/inkscape"
   version="1.1"
   id="Layer_1"
   x="0px"
   y="0px"
   width="566.92706"
   height="50.729618"
   viewBox="0 0 566.92705 50.729618"
   enable-background="new 0 0 566.929 67.639"
   xml:space="preserve"
   sodipodi:docname="logo.svg"
   inkscape:version="0.92.2 (5c3e80d, 2017-08-06)"><metadata
     id="metadata24"><rdf:RDF><cc:Work
         rdf:about=""><dc:format>image/svg+xml</dc:format><dc:type
           rdf:resource="http://purl.org/dc/dcmitype/StillImage" /><dc:title></dc:title></cc:Work></rdf:RDF></metadata><defs
     id="defs22" /><sodipodi:namedview
     pagecolor="#ffffff"
     bordercolor="#666666"
     borderopacity="1"
     objecttolerance="10"
     gridtolerance="10"
     guidetolerance="10"
     inkscape:pageopacity="0"
     inkscape:pageshadow="2"
     inkscape:window-width="1920"
     inkscape:window-height="1017"
     id="namedview20"
     showgrid="false"
     fit-margin-top="0"
     fit-margin-left="0"
     fit-margin-right="0"
     fit-margin-bottom="0"
     inkscape:zoom="0.61559735"
     inkscape:cx="283.46357"
     inkscape:cy="33.819813"
     inkscape:window-x="-8"
     inkscape:window-y="-8"
     inkscape:window-maximized="1"
     inkscape:current-layer="Layer_1" /><g
     id="g17"
     transform="matrix(1,0,0,0.75,-9.3842902e-4,1.3097713e-4)"><g
       id="g6"><path
         id="path5"
         d="m 213.297,56.3 c -4.779,6.492 -9.51,8.334 -11.58,9.33 -2.068,0.998 -5.201,1.779 -7.941,1.779 -7.689,0 -13.688,-2.507 -18,-7.5 -4.314,-5.016 -6.469,-12.047 -6.469,-21.165 0,-10.782 2.719,-19.923 8.182,-27.471 C 182.948,3.75 190.19,0 199.214,0 c 6.846,0 12.445,1.922 16.828,5.789 4.383,3.844 6.564,9.891 6.564,18.117 h -13.244 c 0,-3.938 -0.867,-6.703 -2.604,-8.297 -1.732,-1.57 -4.219,-2.367 -7.477,-2.367 -5.32,0 -9.422,2.601 -12.352,7.781 -2.906,5.204 -4.385,11.109 -4.385,17.742 0,4.524 0.963,8.229 2.838,11.086 1.898,2.885 4.732,4.313 8.508,4.313 3.938,0 6.984,-1.125 9.188,-3.353 2.18,-2.202 3.797,-5.063 4.828,-8.556 h -12.33 l 1.996,-12 h 24.045 l -2.039,11.625 c 0.003,0.005 -1.521,7.928 -6.281,14.42 z"
         inkscape:connector-curvature="0" /><polygon
         id="polygon9"
         points="314.411,16.104 294.299,65.84 284.809,65.84 280.426,16.127 273.508,65.84 261.792,65.84 272.5,1.666 288.934,1.666 292.614,46.855 311.083,1.547 327.629,1.666 316.872,65.84 305.293,65.84 " /><polygon
         id="polygon11"
         points="337.918,38.956 335.481,52.62 356.831,52.62 354.725,65.84 321.067,65.84 331.708,1.594 364.965,1.594 362.928,14.907 341.997,14.907 339.887,26.509 358.803,26.509 356.831,38.956 " /><path
         id="path13"
         d="M 239.081,1.547 213.206,65.84 h 12.609 l 4.617,-12.541 h 16.5 l 1.078,12.541 h 12.211 L 252.908,1.548 h -13.827 z m -4.641,40.784 9.377,-25.571 2.178,25.571 z"
         inkscape:connector-curvature="0" /></g><g
       id="g12"><path
         id="path5_1_"
         d="m 430.284,56.3 c -4.781,6.492 -9.51,8.334 -11.58,9.331 -2.068,0.997 -5.201,1.779 -7.941,1.779 -7.688,0 -13.688,-2.508 -18,-7.5 -4.314,-5.016 -6.471,-12.046 -6.471,-21.164 0,-10.782 2.721,-19.923 8.182,-27.471 5.461,-7.523 12.703,-11.273 21.727,-11.273 6.844,0 12.445,1.922 16.828,5.789 4.385,3.845 6.563,9.893 6.563,18.118 h -13.24 c 0,-3.938 -0.867,-6.703 -2.604,-8.297 -1.732,-1.569 -4.219,-2.367 -7.477,-2.367 -5.32,0 -9.422,2.601 -12.352,7.781 -2.908,5.204 -4.383,11.109 -4.383,17.743 0,4.523 0.961,8.228 2.834,11.085 1.9,2.885 4.734,4.313 8.51,4.313 3.938,0 6.984,-1.125 9.188,-3.352 2.18,-2.203 3.797,-5.063 4.83,-8.556 h -12.33 l 1.992,-12 h 24.047 l -2.039,11.625 c -10e-4,10e-4 -1.526,7.924 -6.284,14.416 z"
         inkscape:connector-curvature="0" /><polygon
         id="polygon15"
         points="453.02,38.956 450.561,52.62 471.936,52.62 469.827,65.862 436.168,65.862 446.809,1.594 480.069,1.594 478.03,14.906 457.098,14.906 454.991,26.532 473.879,26.532 471.936,38.956 " /><path
         id="path17"
         d="m 496.801,1.572 -25.875,64.292 h 12.635 l 4.592,-12.54 h 16.525 l 1.076,12.54 h 12.189 L 510.629,1.572 Z m -4.617,40.758 9.354,-25.572 2.203,25.572 z"
         inkscape:connector-curvature="0" /><path
         id="path19"
         d="m 537.491,29.836 2.813,-15.819 h 6.75 c 2.484,0 4.336,0.444 5.578,1.336 1.242,0.914 1.852,2.718 1.852,5.437 0,3.047 -1.008,5.297 -3,6.798 -2.018,1.5 -4.57,2.249 -7.664,2.249 h -6.329 z M 529.874,1.594 519.233,65.862 h 12.303 l 4.127,-24.493 h 5.695 l 9.516,24.493 h 14.109 L 554.436,38.744 c 3.68,-1.875 6.844,-4.993 9.047,-8.25 2.297,-3.352 3.445,-7.266 3.445,-11.743 0,-6.07 -1.359,-10.43 -4.102,-13.125 -2.719,-2.694 -6.588,-4.031 -11.555,-4.031 h -21.397 z"
         inkscape:connector-curvature="0" /></g><path
       id="path21"
       d="M 10.274,26.281 C 21.131,8.071 36.077,-3.295 43.657,0.855 51.221,5.023 48.555,23.163 37.678,41.361 26.819,59.572 11.875,70.936 4.313,66.784 -3.269,62.619 -0.587,44.477 10.274,26.281 Z"
       inkscape:connector-curvature="0"
       style="fill:#d61808" /><path
       id="path21_2_"
       d="M 58.846,26.281 C 69.704,8.071 84.649,-3.295 92.227,0.855 99.791,5.023 97.125,23.163 86.248,41.361 75.391,59.572 60.446,70.936 52.883,66.784 45.303,62.619 47.985,44.477 58.846,26.281 Z"
       inkscape:connector-curvature="0"
       style="fill:#008400" /><path
       id="path21_3_"
       d="M 107.418,26.281 C 118.273,8.07 133.221,-3.295 140.799,0.854 c 7.564,4.168 4.898,22.308 -5.979,40.506 -10.859,18.211 -25.801,29.575 -33.365,25.423 -7.581,-4.164 -4.898,-22.306 5.963,-40.502 z"
       inkscape:connector-curvature="0"
       style="fill:#0000ff" /></g></svg>