<?xml version="1.0" encoding="UTF-8" standalone="no"?>
<svg
   xmlns:dc="http://purl.org/dc/elements/1.1/"
   xmlns:cc="http://creativecommons.org/ns#"
   xmlns:rdf="http://www.w3.org/1999/02/22-rdf-syntax-ns#"
   xmlns:svg="http://www.w3.org/2000/svg"
   xmlns="http://www.w3.org/2000/svg"
   xmlns:sodipodi="http://sodipodi.sourceforge.net/DTD/sodipodi-0.dtd"
   xmlns:inkscape="http://www.inkscape.org/namespaces/inkscape"
   viewBox="0 0 525.10376 171.02138"
   height="171.02138"
   width="525.10376"
   xml:space="preserve"
   version="1.1"
   id="svg2"
   sodipodi:docname="controller.svg"
   inkscape:version="0.92.2 (5c3e80d, 2017-08-06)"><sodipodi:namedview
     pagecolor="#ffffff"
     bordercolor="#666666"
     borderopacity="1"
     objecttolerance="10"
     gridtolerance="10"
     guidetolerance="10"
     inkscape:pageopacity="0"
     inkscape:pageshadow="2"
     inkscape:window-width="1920"
     inkscape:window-height="1017"
     id="namedview72"
     showgrid="false"
     fit-margin-top="0"
     fit-margin-left="0"
     fit-margin-right="0"
     fit-margin-bottom="0"
     inkscape:zoom="0.66463055"
     inkscape:cx="262.55188"
     inkscape:cy="114.01438"
     inkscape:window-x="-8"
     inkscape:window-y="-8"
     inkscape:window-maximized="1"
     inkscape:current-layer="svg2" /><metadata
     id="metadata8"><rdf:RDF><cc:Work
         rdf:about=""><dc:format>image/svg+xml</dc:format><dc:type
           rdf:resource="http://purl.org/dc/dcmitype/StillImage" /><dc:title></dc:title></cc:Work></rdf:RDF></metadata><defs
     id="defs6"><clipPath
       id="clipPath16"
       clipPathUnits="userSpaceOnUse"><path
         id="path18"
         d="M 0,182.423 H 420.083 V 0 H 0 Z"
         inkscape:connector-curvature="0" /></clipPath></defs><g
     transform="matrix(1.25,0,0,-0.9375,0,171.02137)"
     id="g10"><g
       id="g12"><g
         clip-path="url(#clipPath16)"
         id="g14"><g
           transform="translate(420.083,1.8808)"
           id="g20"><path
             id="path22"
             style="fill:#ffffff;fill-opacity:1;fill-rule:nonzero;stroke:none"
             d="m 0,0 c 0,-1.039 -0.958,-1.881 -2.139,-1.881 h -415.804 c -1.182,0 -2.14,0.842 -2.14,1.881 v 178.662 c 0,1.038 0.958,1.88 2.14,1.88 H -2.139 c 1.181,0 2.139,-0.842 2.139,-1.88 z"
             inkscape:connector-curvature="0" /></g><g
           transform="translate(253.5049,11.9238)"
           id="g24"><path
             id="path26"
             style="fill:#333333;fill-opacity:1;fill-rule:nonzero;stroke:none"
             d="m 0,0 h 152.916 c 1.111,0 2.012,0.65 2.012,1.451 V 139.34 c 0,0.802 -0.901,1.451 -2.012,1.451 h -391.023 c -1.112,0 -2.012,-0.649 -2.012,-1.451 V 1.451 c 0,-0.801 0.9,-1.451 2.012,-1.451 h 120.674 z"
             inkscape:connector-curvature="0" /></g><g
           transform="translate(254.7715,39.7197)"
           id="g28"><path
             id="path30"
             style="fill:#212121;fill-opacity:1;fill-rule:nonzero;stroke:none"
             d="m 0,0 c 0,-3.512 -2.314,-6.358 -5.169,-6.358 h -108.025 c -2.856,0 -5.17,2.846 -5.17,6.358 v 27.98 c 0,3.511 2.314,6.359 5.17,6.359 H -5.169 C -2.314,34.339 0,31.491 0,27.98 Z"
             inkscape:connector-curvature="0" /></g><g
           transform="translate(248.9463,41.1279)"
           id="g32"><path
             id="path34"
             style="fill:#ffffff;fill-opacity:1;fill-rule:nonzero;stroke:none"
             d="m 0,0 c 0,-1.287 -1.043,-2.33 -2.33,-2.33 h -102.054 c -1.286,0 -2.329,1.043 -2.329,2.33 v 25.164 c 0,1.287 1.043,2.33 2.329,2.33 H -2.33 c 1.287,0 2.33,-1.043 2.33,-2.33 z"
             inkscape:connector-curvature="0" /></g><g
           transform="translate(254.3057,148.9873)"
           id="g36"><path
             id="path38"
             style="fill:#666666;fill-opacity:1;fill-rule:nonzero;stroke:none"
             d="m 0,0 c 0,2.059 -1.67,3.728 -3.729,3.728 h -109.975 c -2.06,0 -3.728,-1.669 -3.728,-3.728 v -11.301 c 0,-2.058 1.668,-3.727 3.728,-3.727 H -3.729 c 2.059,0 3.729,1.669 3.729,3.727 z"
             inkscape:connector-curvature="0" /></g><g
           transform="translate(254.3057,123.3672)"
           id="g40"><path
             id="path42"
             style="fill:#666666;fill-opacity:1;fill-rule:nonzero;stroke:none"
             d="m 0,0 c 0,2.059 -1.67,3.729 -3.729,3.729 h -109.975 c -2.06,0 -3.728,-1.67 -3.728,-3.729 v -11.301 c 0,-2.058 1.668,-3.727 3.728,-3.727 H -3.729 c 2.059,0 3.729,1.669 3.729,3.727 z"
             inkscape:connector-curvature="0" /></g><g
           transform="translate(254.3057,96.8613)"
           id="g44"><path
             id="path46"
             style="fill:#666666;fill-opacity:1;fill-rule:nonzero;stroke:none"
             d="m 0,0 c 0,2.06 -1.67,3.729 -3.729,3.729 h -109.975 c -2.06,0 -3.728,-1.669 -3.728,-3.729 v -11.3 c 0,-2.059 1.668,-3.728 3.728,-3.728 H -3.729 c 2.059,0 3.729,1.669 3.729,3.728 z"
             inkscape:connector-curvature="0" /></g><g
           transform="translate(250.5771,24.332)"
           id="g48"><path
             id="path50"
             style="fill:#666666;fill-opacity:1;fill-rule:nonzero;stroke:none"
             d="m 0,0 h -109.975 c -2.06,0 -3.728,-1.669 -3.728,-3.728 v -8.68 H 3.729 v 8.68 C 3.729,-1.669 2.059,0 0,0"
             inkscape:connector-curvature="0" /></g><g
           transform="translate(91.9385,57.1943)"
           id="g52"><path
             id="path54"
             style="fill:#ffffff;fill-opacity:1;fill-rule:nonzero;stroke:none"
             d="m 0,0 h 20.241 c 2.059,0 3.728,1.669 3.728,3.729 v 27.726 c 0,2.06 -1.669,3.729 -3.728,3.729 H 0 v 20.242 c 0,2.058 -1.67,3.727 -3.729,3.727 h -27.726 c -2.06,0 -3.729,-1.669 -3.729,-3.727 V 35.184 h -20.242 c -2.058,0 -3.728,-1.669 -3.728,-3.729 V 3.729 c 0,-2.06 1.67,-3.729 3.728,-3.729 h 20.242 v -20.241 c 0,-2.059 1.669,-3.729 3.729,-3.729 h 27.726 c 2.059,0 3.729,1.67 3.729,3.729 z"
             inkscape:connector-curvature="0" /></g><g
           transform="translate(318.9775,34.2343)"
           id="g56"><path
             id="path58"
             style="fill:#ffffff;fill-opacity:1;fill-rule:nonzero;stroke:none"
             d="m 0,0 c 0,-1.287 -1.043,-2.33 -2.33,-2.33 h -38.912 c -1.286,0 -2.329,1.043 -2.329,2.33 v 39.377 c 0,1.287 1.043,2.33 2.329,2.33 H -2.33 c 1.287,0 2.33,-1.043 2.33,-2.33 z"
             inkscape:connector-curvature="0" /></g><g
           transform="translate(314.5498,53.9228)"
           id="g60"><path
             id="path62"
             style="fill:#cd3332;fill-opacity:1;fill-rule:nonzero;stroke:none"
             d="m 0,0 c 0,-9.587 -7.772,-17.358 -17.357,-17.358 -9.588,0 -17.36,7.771 -17.36,17.358 0,9.587 7.772,17.358 17.36,17.358 C -7.772,17.358 0,9.587 0,0"
             inkscape:connector-curvature="0" /></g><g
           transform="translate(373.6435,34.2343)"
           id="g64"><path
             id="path66"
             style="fill:#ffffff;fill-opacity:1;fill-rule:nonzero;stroke:none"
             d="m 0,0 c 0,-1.287 -1.043,-2.33 -2.33,-2.33 h -38.911 c -1.286,0 -2.329,1.043 -2.329,2.33 v 39.377 c 0,1.287 1.043,2.33 2.329,2.33 H -2.33 c 1.287,0 2.33,-1.043 2.33,-2.33 z"
             inkscape:connector-curvature="0" /></g><g
           transform="translate(369.2158,53.9228)"
           id="g68"><path
             id="path70"
             style="fill:#cd3332;fill-opacity:1;fill-rule:nonzero;stroke:none"
             d="m 0,0 c 0,-9.587 -7.771,-17.358 -17.357,-17.358 -9.588,0 -17.36,7.771 -17.36,17.358 0,9.587 7.772,17.358 17.36,17.358 C -7.771,17.358 0,9.587 0,0"
             inkscape:connector-curvature="0" /></g><g
           transform="translate(157.125,47.9043)"
           id="g72"><path
             id="path74"
             style="fill:#212121;fill-opacity:1;fill-rule:nonzero;stroke:none"
             d="m 0,0 c -3.323,0 -6.019,2.694 -6.019,6.019 0,3.325 2.696,6.019 6.019,6.019 h 21.94 c 3.325,0 6.02,-2.694 6.02,-6.019 C 27.96,2.694 25.265,0 21.94,0 Z"
             inkscape:connector-curvature="0" /></g><g
           transform="translate(212.1133,47.9043)"
           id="g76"><path
             id="path78"
             style="fill:#212121;fill-opacity:1;fill-rule:nonzero;stroke:none"
             d="m 0,0 c -3.325,0 -6.021,2.694 -6.021,6.019 0,3.325 2.696,6.019 6.021,6.019 h 21.94 c 3.325,0 6.02,-2.694 6.02,-6.019 C 27.96,2.694 25.265,0 21.94,0 Z"
             inkscape:connector-curvature="0" /></g><g
           transform="translate(88.792,60.3398)"
           id="g80"><path
             id="path82"
             style="fill:#212121;fill-opacity:1;fill-rule:nonzero;stroke:none"
             d="M 0,0 H 24.058 V 28.893 H 0 V 52.95 H -28.893 V 28.893 H -52.949 V 0 h 24.056 V -24.057 H 0 Z"
             inkscape:connector-curvature="0" /></g><g
           transform="translate(74.3467,92.9599)"
           id="g84"><path
             id="path86"
             style="fill:#000000;fill-opacity:1;fill-rule:nonzero;stroke:none"
             d="M 0,0 H 6 V 6.933 H 8.562 L 0,15.379 -8.563,6.933 H -6 V 0 Z"
             inkscape:connector-curvature="0" /></g><g
           transform="translate(74.3467,56.6123)"
           id="g88"><path
             id="path90"
             style="fill:#000000;fill-opacity:1;fill-rule:nonzero;stroke:none"
             d="M 0,0 H -6 V -6.932 H -8.563 L 0,-15.378 8.562,-6.932 H 6 V 0 Z"
             inkscape:connector-curvature="0" /></g><g
           transform="translate(92.5205,74.5664)"
           id="g92"><path
             id="path94"
             style="fill:#000000;fill-opacity:1;fill-rule:nonzero;stroke:none"
             d="M 0,0 V -6 H 6.932 V -8.564 L 15.377,0 6.932,8.563 V 5.999 H 0 Z"
             inkscape:connector-curvature="0" /></g><g
           transform="translate(56.1728,74.5664)"
           id="g96"><path
             id="path98"
             style="fill:#000000;fill-opacity:1;fill-rule:nonzero;stroke:none"
             d="M 0,0 V 5.999 H -6.932 V 8.563 L -15.379,0 -6.932,-8.564 V -6 H 0 Z"
             inkscape:connector-curvature="0" /></g><g
           transform="translate(82.249,74.5664)"
           id="g100"><path
             id="path102"
             style="fill:#000000;fill-opacity:1;fill-rule:nonzero;stroke:none"
             d="m 0,0 c 0,-4.364 -3.539,-7.902 -7.902,-7.902 -4.366,0 -7.903,3.538 -7.903,7.902 0,4.363 3.537,7.902 7.903,7.902 C -3.539,7.902 0,4.363 0,0"
             inkscape:connector-curvature="0" /></g><g
           transform="translate(287.5303,119.791)"
           id="g104"><path
             id="path106"
             style="fill:#cd3332;fill-opacity:1;fill-rule:nonzero;stroke:none"
             d="m 0,0 c -0.115,0.08 -0.176,0.173 -0.234,0.267 -1.764,2.855 -3.53,5.71 -5.288,8.568 -0.106,0.172 -0.212,0.243 -0.419,0.24 C -7.103,9.064 -8.264,9.07 -9.424,9.07 -9.516,9.07 -9.608,9.061 -9.713,9.057 V -4.03 h 4.008 v 9.045 c 0.023,0.006 0.046,0.014 0.068,0.02 0.059,-0.089 0.119,-0.179 0.176,-0.268 1.77,-2.852 3.542,-5.703 5.306,-8.558 0.118,-0.191 0.245,-0.262 0.471,-0.26 1.132,0.012 2.264,0.006 3.397,0.006 H 4.008 V 9.049 H 0 Z"
             inkscape:connector-curvature="0" /></g><g
           transform="translate(352.0889,118.2568)"
           id="g108"><path
             id="path110"
             style="fill:#cd3332;fill-opacity:1;fill-rule:nonzero;stroke:none"
             d="m 0,0 c -0.033,-0.848 -0.732,-1.414 -1.564,-1.385 -0.849,0.03 -1.466,0.614 -1.5,1.462 -0.025,0.611 -0.004,1.227 -0.004,1.839 h -0.005 c 0,0.565 -0.013,1.132 0.003,1.697 0.026,0.926 0.605,1.51 1.501,1.541 C -0.696,5.184 -0.03,4.636 0.006,3.731 0.055,2.489 0.049,1.242 0,0 m 0.004,5.763 c -0.733,0.4 -1.44,0.716 -2.236,0.775 C -3.02,6.595 -3.772,6.481 -4.488,6.142 -5.211,5.799 -5.807,5.303 -6.286,4.667 c -1.19,-1.576 -1.33,-3.724 -0.208,-5.291 1.702,-2.378 3.937,-2.657 6.486,-1.436 0.01,-0.148 0.021,-0.293 0.03,-0.432 H 3.871 V 10.589 H 0.004 Z"
             inkscape:connector-curvature="0" /></g><g
           transform="translate(310.3603,123.5078)"
           id="g112"><path
             id="path114"
             style="fill:#cd3332;fill-opacity:1;fill-rule:nonzero;stroke:none"
             d="M 0,0 C -1.627,1.673 -4.392,1.79 -6.199,0.265 -6.273,0.203 -6.352,0.145 -6.486,0.038 v 0.88 h -3.858 v -8.671 h 3.843 c 0.007,0.128 0.019,0.248 0.018,0.368 -0.002,1.708 -0.013,3.415 -0.003,5.122 0.002,0.276 0.045,0.575 0.158,0.82 0.36,0.777 1.329,1.186 2.205,0.972 0.832,-0.203 1.35,-0.886 1.35,-1.787 V -7.409 -7.74 h 3.868 c 0.009,0.048 0.018,0.075 0.018,0.102 0,1.614 0.019,3.227 -0.008,4.839 C 1.088,-1.739 0.757,-0.779 0,0"
             inkscape:connector-curvature="0" /></g><g
           transform="translate(343.5146,121.1045)"
           id="g116"><path
             id="path118"
             style="fill:#cd3332;fill-opacity:1;fill-rule:nonzero;stroke:none"
             d="M 0,0 C -0.037,1.046 -0.512,1.942 -1.314,2.638 -3.004,4.101 -5.552,4.11 -7.267,2.665 -7.343,2.602 -7.418,2.538 -7.56,2.419 V 3.33 h -3.869 v -8.667 h 3.869 v 0.388 c 0,1.726 0,3.453 -0.004,5.179 0,0.363 0.097,0.688 0.312,0.978 0.498,0.667 1.406,0.947 2.203,0.68 0.782,-0.262 1.201,-0.882 1.203,-1.78 0,-1.697 0,-3.395 10e-4,-5.093 0.001,-0.118 0.015,-0.237 0.023,-0.352 h 3.837 c 0.01,0.058 0.023,0.094 0.023,0.131 C 0.031,-3.471 0.061,-1.733 0,0"
             inkscape:connector-curvature="0" /></g><g
           transform="translate(364.6396,120.1689)"
           id="g120"><path
             id="path122"
             style="fill:#cd3332;fill-opacity:1;fill-rule:nonzero;stroke:none"
             d="m 0,0 h -0.029 c 0,-0.745 0.033,-1.491 -0.008,-2.234 -0.057,-0.991 -0.767,-1.624 -1.701,-1.587 -0.736,0.029 -1.336,0.595 -1.474,1.404 -0.038,0.222 -0.055,0.449 -0.056,0.675 -0.005,1.161 -0.005,2.32 0.002,3.48 10e-4,0.244 0.019,0.492 0.069,0.731 0.181,0.856 0.847,1.405 1.628,1.363 0.828,-0.045 1.448,-0.679 1.538,-1.57 C -0.017,2.131 -0.002,1.999 -0.002,1.867 0.002,1.244 0,0.622 0,0 M 2.502,3.417 C 0.238,5.386 -3.506,5.358 -5.771,3.357 -7.85,1.523 -7.885,-1.442 -5.84,-3.313 c 1.198,-1.095 2.635,-1.569 4.141,-1.583 1.582,0.007 2.926,0.424 4.086,1.363 2.308,1.87 2.357,5.001 0.115,6.95"
             inkscape:connector-curvature="0" /></g><g
           transform="translate(325.7256,121.4023)"
           id="g124"><path
             id="path126"
             style="fill:#cd3332;fill-opacity:1;fill-rule:nonzero;stroke:none"
             d="m 0,0 c -0.669,0 -1.338,0.012 -2.008,-0.006 -0.256,-0.006 -0.334,0.079 -0.306,0.325 0.037,0.308 0.019,0.624 0.078,0.927 0.15,0.774 0.821,1.309 1.591,1.304 C 0.133,2.545 0.811,1.982 0.937,1.196 0.998,0.819 0.998,0.433 1.029,0 Z M 3.759,1.818 C 2.672,2.904 1.34,3.463 -0.183,3.571 -1.963,3.697 -3.566,3.24 -4.92,2.048 -5.823,1.251 -6.383,0.254 -6.467,-0.967 c -0.109,-1.585 0.528,-2.863 1.744,-3.826 1.817,-1.436 3.881,-1.723 6.065,-1.065 1.523,0.459 2.711,1.379 3.398,2.86 0.053,0.113 0.086,0.234 0.129,0.355 H 1.025 C 0.998,-3.001 0.992,-3.34 0.944,-3.675 0.827,-4.498 0.205,-5.08 -0.562,-5.108 c -0.838,-0.032 -1.54,0.453 -1.665,1.299 -0.117,0.803 -0.087,1.628 -0.123,2.488 h 7.455 c 0,0.142 0.01,0.244 0,0.344 C 4.994,0.117 4.531,1.048 3.759,1.818"
             inkscape:connector-curvature="0" /></g><g
           transform="translate(319.706,125.7441)"
           id="g128"><path
             id="path130"
             style="fill:#cd3332;fill-opacity:1;fill-rule:nonzero;stroke:none"
             d="m 0,0 h -2.109 v 1.748 h -3.942 v -1.751 c -0.128,0 -0.229,0.001 -0.33,0 C -6.9,-0.004 -7.419,0.001 -7.937,-0.014 -8.021,-0.016 -8.17,-0.101 -8.173,-0.156 -8.193,-0.52 -8.184,-0.887 -8.184,-1.283 h 2.149 v -8.698 h 3.933 v 8.706 H 0 Z"
             inkscape:connector-curvature="0" /></g><path
           id="path132"
           style="fill:#cd3332;fill-opacity:1;fill-rule:nonzero;stroke:none"
           d="m 293.874,115.759 h 3.891 v 8.675 h -3.891 z"
           inkscape:connector-curvature="0" /><path
           id="path134"
           style="fill:#cd3332;fill-opacity:1;fill-rule:nonzero;stroke:none"
           d="m 297.765,128.842 h -3.908 v -2.612 h 3.908 z"
           inkscape:connector-curvature="0" /><g
           transform="translate(369.6367,125.0683)"
           id="g136"><path
             id="path138"
             style="fill:#cd3332;fill-opacity:1;fill-rule:nonzero;stroke:none"
             d="M 0,0 C -1.208,-0.002 -2.125,0.928 -2.138,2.166 -2.149,3.387 -1.222,4.338 -0.013,4.343 1.178,4.347 2.101,3.41 2.104,2.192 2.11,0.95 1.198,0.001 0,0 m -0.001,4.753 c -1.455,0.004 -2.603,-1.121 -2.613,-2.561 -0.01,-1.457 1.129,-2.59 2.603,-2.591 1.453,-0.001 2.602,1.131 2.608,2.568 0.004,1.43 -1.153,2.58 -2.598,2.584"
             inkscape:connector-curvature="0" /></g><g
           transform="translate(369.2353,127.417)"
           id="g140"><path
             id="path142"
             style="fill:#cd3332;fill-opacity:1;fill-rule:nonzero;stroke:none"
             d="M 0,0 C -0.057,0.001 -0.164,0.002 -0.164,0.002 L -0.168,0.96 0.76,0.963 C 0.98,0.955 1.139,0.697 1.129,0.461 1.12,0.23 0.986,0.036 0.742,0.01 0.49,-0.019 0.253,-0.004 0,0 m 1.176,-1.624 h 0.433 c -0.273,0.428 -0.536,0.841 -0.806,1.264 0.094,0.024 0.166,0.048 0.234,0.072 0.375,0.13 0.567,0.425 0.537,0.831 C 1.545,0.942 1.334,1.226 0.94,1.258 0.445,1.298 -0.054,1.267 -0.572,1.267 v -2.904 h 0.412 v 1.254 h 0.553 c 0,0 0.132,-0.204 0.193,-0.31 z"
             inkscape:connector-curvature="0" /></g></g></g></g></svg>