<?xml version="1.0" encoding="UTF-8" standalone="no"?>
<!-- Generator: Adobe Illustrator 16.0.3, SVG Export Plug-In . SVG Version: 6.00 Build 0)  -->

<svg
   xmlns:dc="http://purl.org/dc/elements/1.1/"
   xmlns:cc="http://creativecommons.org/ns#"
   xmlns:rdf="http://www.w3.org/1999/02/22-rdf-syntax-ns#"
   xmlns:svg="http://www.w3.org/2000/svg"
   xmlns="http://www.w3.org/2000/svg"
   xmlns:sodipodi="http://sodipodi.sourceforge.net/DTD/sodipodi-0.dtd"
   xmlns:inkscape="http://www.inkscape.org/namespaces/inkscape"
   version="1.1"
   id="Ebene_1"
   x="0px"
   y="0px"
   width="566.92999"
   height="65.109749"
   viewBox="0 0 566.92998 65.109746"
   enable-background="new 0 0 566.929 86.813"
   xml:space="preserve"
   sodipodi:docname="logo.svg"
   inkscape:version="0.92.2 (5c3e80d, 2017-08-06)"><metadata
     id="metadata76"><rdf:RDF><cc:Work
         rdf:about=""><dc:format>image/svg+xml</dc:format><dc:type
           rdf:resource="http://purl.org/dc/dcmitype/StillImage" /><dc:title></dc:title></cc:Work></rdf:RDF></metadata><defs
     id="defs74" /><sodipodi:namedview
     pagecolor="#ffffff"
     bordercolor="#666666"
     borderopacity="1"
     objecttolerance="10"
     gridtolerance="10"
     guidetolerance="10"
     inkscape:pageopacity="0"
     inkscape:pageshadow="2"
     inkscape:window-width="1920"
     inkscape:window-height="1017"
     id="namedview72"
     showgrid="false"
     fit-margin-top="0"
     fit-margin-left="0"
     fit-margin-right="0"
     fit-margin-bottom="0"
     inkscape:zoom="0.61559735"
     inkscape:cx="283.46451"
     inkscape:cy="43.406498"
     inkscape:window-x="-8"
     inkscape:window-y="-8"
     inkscape:window-maximized="1"
     inkscape:current-layer="Ebene_1" /><g
     id="g69"
     transform="scale(1,0.75)"><path
       d="M 44.922,42.076 V 0 H 32.266 V 29.421 L 13.603,0 H 0 V 42.076 H 12.655 V 11.707 l 19.61,30.369 z"
       id="path2"
       inkscape:connector-curvature="0"
       style="fill:#ff0000" /><path
       d="M 65.486,42.076 V 13.604 H 52.832 v 28.473 z"
       id="path4"
       inkscape:connector-curvature="0"
       style="fill:#ff0000" /><path
       d="M 65.486,7.594 V 0 H 52.832 v 7.594 z"
       id="path6"
       inkscape:connector-curvature="0"
       style="fill:#ff0000" /><path
       d="M 109.777,42.076 V 22.464 c 0,-4.114 -7.908,-9.808 -12.021,-9.808 h -3.797 c -2.846,0 -6.01,2.529 -8.857,3.795 V 13.604 H 72.447 V 42.077 H 85.101 V 22.464 c 0,-1.899 4.43,-4.114 6.329,-4.114 1.897,0 5.377,2.214 5.377,4.114 v 19.613 z"
       id="path8"
       inkscape:connector-curvature="0"
       style="fill:#ff0000" /><g
       id="_x33_162_1_"><path
         d="M 214.811,42.077 V 22.463 c 0,-4.111 -7.908,-9.807 -12.025,-9.807 h -3.795 c -2.847,0 -6.009,2.53 -8.858,3.795 v -2.847 h -12.654 v 28.473 h 12.654 V 22.463 c 0,-1.897 4.432,-4.111 6.325,-4.111 1.896,0 5.381,2.214 5.381,4.111 v 19.614 z"
         id="path10"
         inkscape:connector-curvature="0"
         style="fill:#ff0000" /></g><path
       d="M 130.338,42.076 V 13.604 h 6.646 V 9.807 h -6.646 v -6.01 h -12.967 v 6.01 h -6.646 v 3.797 h 6.646 v 28.473 z"
       id="path13"
       inkscape:connector-curvature="0"
       style="fill:#ff0000" /><path
       d="m 154.7,12.655 c -10.122,0 -18.663,6.959 -18.663,15.5 0,8.86 8.542,15.818 18.663,15.818 8.857,0 16.135,-5.062 18.033,-11.703 h -12.971 v 3.795 c 0,3.163 -2.213,4.112 -5.063,4.112 -2.849,0 -4.744,-0.949 -4.744,-4.112 v -7.909 h 23.412 C 173.368,19.615 165.139,12.655 154.7,12.655 Z m 0,2.848 c 2.85,0 5.063,1.898 5.063,5.062 v 2.848 h -9.807 v -2.849 c -10e-4,-3.163 1.895,-5.061 4.744,-5.061 z"
       id="path15"
       inkscape:connector-curvature="0"
       style="fill:#ff0000" /><path
       d="m 279.349,12.655 c -10.442,0 -18.666,6.959 -18.666,15.5 0,8.86 8.224,15.818 18.666,15.818 10.118,0 18.663,-6.958 18.663,-15.818 0,-8.54 -8.545,-15.5 -18.663,-15.5 z m 0,2.848 c 2.846,0 4.746,1.898 4.746,5.062 v 15.503 c 0,3.163 -1.9,4.112 -4.746,4.112 -3.164,0 -5.063,-0.949 -5.063,-4.112 V 20.563 c 10e-4,-3.162 1.899,-5.06 5.063,-5.06 z"
       id="path17"
       inkscape:connector-curvature="0"
       style="fill:#ff0000" /><path
       d="m 242.968,0 v 15.502 c 0,0 -3.801,-2.847 -8.861,-2.847 -7.909,0 -14.553,6.959 -14.553,14.551 0,7.91 6.644,15.819 14.553,15.819 5.062,0 8.861,-1.898 8.861,-1.898 v 0.949 h 12.651 V 0 Z m -4.749,17.401 c 2.848,0 4.749,2.214 4.749,5.063 v 11.705 c 0,2.849 -1.901,3.795 -4.749,3.795 -3.164,0 -5.063,-0.947 -5.063,-3.795 V 22.464 c 0.002,-2.849 1.899,-5.063 5.063,-5.063 z"
       id="path19"
       inkscape:connector-curvature="0"
       style="fill:#ff0000" /><path
       d="m 299.591,12.815 c -3.399,0 -6.166,-2.768 -6.166,-6.171 0,-3.637 2.709,-6.486 6.166,-6.486 3.347,0 6.174,2.971 6.174,6.486 0,3.23 -2.942,6.171 -6.174,6.171 z m 0,-12.337 c -3.278,0 -5.846,2.708 -5.846,6.167 0,3.227 2.622,5.852 5.846,5.852 3.063,0 5.854,-2.789 5.854,-5.852 0.001,-3.343 -2.681,-6.167 -5.854,-6.167 z m 1.445,8.777 -1.217,-2.134 h -1.964 v 2.055 h -0.319 V 3.637 h 2.376 c 1.039,0 1.582,0.876 1.582,1.742 0,0.79 -0.451,1.587 -1.318,1.722 l 1.138,1.995 z m -3.181,-2.453 h 2.057 c 0.867,0 1.263,-0.737 1.263,-1.423 0,-0.686 -0.396,-1.423 -1.263,-1.423 h -2.057 z"
       id="path21"
       inkscape:connector-curvature="0"
       style="fill:#ff0000" /><path
       d="M 56.868,86.756 V 71.198 c 0,-2.949 -2.952,-5.9 -5.904,-5.9 h -22.53 v 21.459 h 6.977 V 72.274 c 0,-1.074 0.801,-2.148 1.875,-2.148 h 10.729 c 1.074,0 2.148,1.074 2.148,2.148 v 14.482 z"
       id="path23"
       inkscape:connector-curvature="0" /><g
       id="_x32_399_1_"><path
         d="M 243.534,86.756 V 71.198 c 0,-2.949 -2.949,-5.9 -5.897,-5.9 h -22.533 v 21.459 h 6.973 V 72.274 c 0,-1.074 0.808,-2.148 1.875,-2.148 h 10.729 c 1.073,0 2.147,1.074 2.147,2.148 v 14.482 z"
         id="path25"
         inkscape:connector-curvature="0" /></g><path
       d="M 344.871,86.756 V 71.198 c 0,-2.949 -2.949,-5.9 -5.898,-5.9 H 316.44 v 21.459 h 6.974 V 72.274 c 0,-1.074 0.807,-2.148 1.881,-2.148 h 10.729 c 1.073,0 2.144,1.074 2.144,2.148 v 14.482 z"
       id="path28"
       inkscape:connector-curvature="0" /><path
       d="M 284.048,86.756 V 71.198 c 0,-2.949 -2.95,-5.9 -5.899,-5.9 h -30.311 v 21.459 h 6.978 V 72.274 c 0,-1.074 0.803,-2.148 1.875,-2.148 h 4.023 c 0.808,0 1.876,1.074 1.876,2.148 v 14.482 h 6.979 V 72.274 c 0,-1.074 0.802,-2.148 1.876,-2.148 h 4.022 c 0.807,0 1.875,1.074 1.875,2.148 v 14.482 z"
       id="path30"
       inkscape:connector-curvature="0" /><path
       d="M 23.606,86.756 H 5.905 C 2.953,86.756 0,84.877 0,81.928 V 65.03 h 23.605 v 5.096 H 7.781 c -0.805,0 -1.875,0.807 -1.875,1.879 0,1.072 1.07,1.877 1.875,1.877 h 14.752 v 4.291 H 7.781 c -0.805,0 -1.875,1.074 -1.875,1.879 0,1.072 1.07,2.145 1.875,2.145 h 15.825 z"
       id="path32"
       inkscape:connector-curvature="0" /><path
       d="M 110.792,86.756 H 93.086 c -2.949,0 -5.898,-1.879 -5.898,-4.828 V 65.03 h 23.604 v 5.096 H 94.965 c -0.804,0 -1.878,0.807 -1.878,1.879 0,1.072 1.074,1.877 1.878,1.877 h 14.752 v 4.291 H 94.965 c -0.804,0 -1.878,1.074 -1.878,1.879 0,1.072 1.074,2.145 1.878,2.145 h 15.826 v 4.559 z"
       id="path34"
       inkscape:connector-curvature="0" /><path
       d="m 312.594,86.756 h -17.707 c -2.949,0 -5.898,-1.879 -5.898,-4.828 V 65.03 h 23.605 v 5.096 h -15.826 c -0.807,0 -1.881,0.807 -1.881,1.879 0,1.072 1.074,1.877 1.881,1.877 h 14.752 v 4.291 h -14.752 c -0.807,0 -1.881,1.074 -1.881,1.879 0,1.072 1.074,2.145 1.881,2.145 h 15.826 z"
       id="path36"
       inkscape:connector-curvature="0" /><path
       d="m 59.816,65.297 v 4.826 h 6.974 c 1.878,0 1.878,0 1.878,2.148 v 14.482 h 6.706 v -14.48 c 0,-2.148 0,-2.148 2.146,-2.148 h 6.706 v -4.826 h -24.41 z"
       id="path38"
       inkscape:connector-curvature="0" /><path
       d="m 145.043,65.297 v 4.826 h 6.973 c 1.875,0 1.875,0 1.875,2.148 v 14.482 h 6.706 v -14.48 c 0,-2.148 0,-2.148 2.148,-2.148 h 6.706 v -4.826 h -24.408 z"
       id="path40"
       inkscape:connector-curvature="0" /><path
       d="m 348.804,65.297 v 4.826 h 6.974 c 1.875,0 1.875,0 1.875,2.148 v 14.482 h 6.705 v -14.48 c 0,-2.148 0,-2.148 2.147,-2.148 h 6.706 v -4.826 h -24.407 z"
       id="path42"
       inkscape:connector-curvature="0" /><path
       d="m 115.606,65.297 v 21.459 h 6.976 v -3.754 c 0,-1.074 0.802,-2.148 1.875,-2.148 h 8.852 c 1.074,0 1.875,1.074 1.875,2.148 v 3.754 h 5.904 v -5.902 c 0,-0.805 -0.807,-1.875 -0.807,-2.949 0,-0.805 1.875,-2.682 1.875,-4.828 v -1.879 c 0,-1.877 -2.949,-5.9 -4.825,-5.9 h -21.725 z m 8.851,4.826 h 8.852 c 1.074,0 1.875,1.074 1.875,2.148 v 1.875 c 0,1.074 -0.801,1.879 -1.875,1.879 h -8.852 c -1.074,0 -1.875,-0.805 -1.875,-1.879 v -1.875 c 0,-1.073 0.801,-2.148 1.875,-2.148 z"
       id="path44"
       inkscape:connector-curvature="0" /><path
       d="m 177.298,65.297 c -1.881,0 -4.83,4.023 -4.83,5.9 v 15.559 h 6.973 v -5.902 h 12.61 v 5.902 h 6.973 V 71.198 c 0,-1.877 -2.948,-5.9 -5.097,-5.9 h -16.629 z m 4.025,4.826 h 8.848 c 0.807,0 1.881,1.074 1.881,2.148 v 3.754 h -12.61 v -3.754 c -0.001,-1.073 0.806,-2.148 1.881,-2.148 z"
       id="path46"
       inkscape:connector-curvature="0" /><path
       d="M 210.559,86.756 V 65.297 h -6.706 v 21.459 z"
       id="path48"
       inkscape:connector-curvature="0" /><g
       id="_x33_177_1_"><path
         d="M 566.93,86.698 V 71.141 c 0,-2.949 -2.955,-5.9 -5.904,-5.9 h -30.307 v 21.457 h 6.973 V 72.215 c 0,-1.074 0.803,-2.148 1.875,-2.148 h 4.023 c 0.807,0 1.881,1.074 1.881,2.148 v 14.482 h 6.973 V 72.215 c 0,-1.074 0.803,-2.148 1.877,-2.148 h 4.023 c 0.807,0 1.879,1.074 1.879,2.148 v 14.482 h 6.707 z"
         id="path50"
         inkscape:connector-curvature="0" /></g><g
       id="_x33_181_3_"><path
         d="m 525.917,86.698 h -17.703 c -2.949,0 -5.898,-1.879 -5.898,-4.828 V 64.973 h 23.602 v 5.094 H 510.09 c -0.801,0 -1.875,0.807 -1.875,1.879 0,1.074 1.074,1.877 1.875,1.877 h 14.752 v 4.291 H 510.09 c -0.801,0 -1.875,1.074 -1.875,1.879 0,1.074 1.074,2.146 1.875,2.146 h 15.826 v 4.559 z"
         id="path53"
         inkscape:connector-curvature="0" /></g><g
       id="_x32_391_3_"><path
         d="m 474.942,65.239 v 4.828 h 6.975 c 1.875,0 1.875,0 1.875,2.148 v 14.48 h 6.705 v -14.48 c 0,-2.148 0,-2.148 2.148,-2.148 h 6.705 V 65.24 h -24.408 z"
         id="path56"
         inkscape:connector-curvature="0" /></g><g
       id="_x33_187"><path
         d="m 395.497,65.356 c -1.875,0 -5.898,2.951 -5.898,4.826 v 2.953 c 0,1.877 4.023,4.826 5.898,4.826 H 407.3 c 1.074,0 2.143,1.074 2.143,1.879 0,1.07 -1.067,2.145 -2.143,2.145 h -17.701 v 4.828 h 19.844 c 1.882,0 5.639,-2.949 5.639,-4.828 v -2.949 c 0,-2.146 -3.757,-5.096 -5.639,-5.096 h -11.797 c -1.073,0 -2.147,-0.805 -2.147,-1.879 0,-1.072 1.074,-1.879 2.147,-1.879 h 17.436 v -4.826 z"
         id="path59"
         inkscape:connector-curvature="0" /></g><g
       id="_x33_187_1_"><path
         d="m 452.317,65.356 c -1.881,0 -5.903,2.951 -5.903,4.826 v 2.953 c 0,1.877 4.022,4.826 5.903,4.826 h 11.803 c 1.068,0 2.143,1.074 2.143,1.879 0,1.07 -1.072,2.145 -2.143,2.145 h -17.707 v 4.828 h 19.85 c 1.881,0 5.631,-2.949 5.631,-4.828 v -2.949 c 0,-2.146 -3.75,-5.096 -5.631,-5.096 H 454.46 c -1.068,0 -2.145,-0.805 -2.145,-1.879 0,-1.072 1.074,-1.879 2.145,-1.879 h 17.434 v -4.826 z"
         id="path62"
         inkscape:connector-curvature="0" /></g><g
       id="g67"><path
         d="m 417.222,65.356 v 9.656 c 0,1.877 2.949,4.828 4.83,4.828 h 4.824 v 6.973 h 6.979 V 79.84 h 4.825 c 1.881,0 4.83,-2.951 4.83,-4.828 v -9.656 h -6.705 v 7.779 c 0,0.805 -1.075,1.877 -2.147,1.877 h -8.581 c -1.074,0 -2.148,-1.072 -2.148,-1.877 v -7.779 z"
         id="path65"
         inkscape:connector-curvature="0" /></g></g></svg>