<?xml version="1.0" encoding="UTF-8" standalone="no"?>
<svg
   xmlns:dc="http://purl.org/dc/elements/1.1/"
   xmlns:cc="http://creativecommons.org/ns#"
   xmlns:rdf="http://www.w3.org/1999/02/22-rdf-syntax-ns#"
   xmlns:svg="http://www.w3.org/2000/svg"
   xmlns="http://www.w3.org/2000/svg"
   xmlns:sodipodi="http://sodipodi.sourceforge.net/DTD/sodipodi-0.dtd"
   xmlns:inkscape="http://www.inkscape.org/namespaces/inkscape"
   viewBox="0 0 446.97808 132.61528"
   height="132.61528"
   width="446.97809"
   xml:space="preserve"
   version="1.1"
   id="svg2"
   sodipodi:docname="controller.svg"
   inkscape:version="0.92.2 (5c3e80d, 2017-08-06)"><sodipodi:namedview
     pagecolor="#ffffff"
     bordercolor="#666666"
     borderopacity="1"
     objecttolerance="10"
     gridtolerance="10"
     guidetolerance="10"
     inkscape:pageopacity="0"
     inkscape:pageshadow="2"
     inkscape:window-width="1920"
     inkscape:window-height="1017"
     id="namedview54"
     showgrid="false"
     fit-margin-top="0"
     fit-margin-left="0"
     fit-margin-right="0"
     fit-margin-bottom="0"
     inkscape:zoom="0.52798929"
     inkscape:cx="223.4891"
     inkscape:cy="88.410519"
     inkscape:window-x="-8"
     inkscape:window-y="-8"
     inkscape:window-maximized="1"
     inkscape:current-layer="svg2" /><metadata
     id="metadata8"><rdf:RDF><cc:Work
         rdf:about=""><dc:format>image/svg+xml</dc:format><dc:type
           rdf:resource="http://purl.org/dc/dcmitype/StillImage" /><dc:title></dc:title></cc:Work></rdf:RDF></metadata><defs
     id="defs6"><clipPath
       id="clipPath18"
       clipPathUnits="userSpaceOnUse"><path
         id="path20"
         d="M 0,357.583 H 141.457 V 0 H 0 Z"
         inkscape:connector-curvature="0" /></clipPath></defs><g
     transform="matrix(0,-0.9375,-1.25,0,446.97809,132.61556)"
     id="g10"><path
       id="path12"
       style="fill:#959995;fill-opacity:1;fill-rule:nonzero;stroke:none"
       d="M 5.976,0 H 135.481 V 354.097 H 5.976 Z"
       inkscape:connector-curvature="0" /><g
       id="g14"><g
         clip-path="url(#clipPath18)"
         id="g16"><g
           transform="translate(27.4583,354.0965)"
           id="g22"><path
             id="path24"
             style="fill:#9a2025;fill-opacity:1;fill-rule:nonzero;stroke:none"
             d="m 0,0 h -21.482 v -101.214 c 0,0 -5.976,-0.219 -5.976,3.719 v 94.94 c 0,0 0,6.011 5.355,6.011 H -3.5 C -3.5,3.456 0,3.973 0,0"
             inkscape:connector-curvature="0" /></g><g
           transform="translate(141.4566,351.5414)"
           id="g26"><path
             id="path28"
             style="fill:#9a2025;fill-opacity:1;fill-rule:nonzero;stroke:none"
             d="m 0,0 v -94.94 c 0,-3.938 -5.976,-3.719 -5.976,-3.719 V 2.555 H -27.45 c 0,3.973 3.501,3.465 3.501,3.465 0,0 13.23,-0.009 18.594,-0.009 C 0,6.011 0,0 0,0"
             inkscape:connector-curvature="0" /></g><path
           id="path30"
           style="fill:#21201f;fill-opacity:1;fill-rule:nonzero;stroke:none"
           d="M 124.691,320.259 H 16.774 v 22.462 h 107.917 z"
           inkscape:connector-curvature="0" /><path
           id="path32"
           style="fill:#ffffff;fill-opacity:1;fill-rule:nonzero;stroke:none"
           d="M 124.691,309.173 H 16.774 v 11.087 h 107.917 z"
           inkscape:connector-curvature="0" /><g
           transform="translate(48.5596,316.3593)"
           id="g34"><path
             id="path36"
             style="fill:#231f20;fill-opacity:1;fill-rule:nonzero;stroke:none"
             d="M 0,0 V 1.015 C 0,1.918 0.451,2.369 1.354,2.369 H 7.445 V 1.015 H 1.354 V 0 h 4.737 c 0.902,0 1.354,-0.451 1.354,-1.354 v -1.015 c 0,-0.902 -0.452,-1.353 -1.354,-1.353 H 0 v 1.353 h 6.091 v 1.015 H 1.354 C 0.451,-1.354 0,-0.902 0,0"
             inkscape:connector-curvature="0" /></g><g
           transform="translate(59.0497,317.3744)"
           id="g38"><path
             id="path40"
             style="fill:#231f20;fill-opacity:1;fill-rule:nonzero;stroke:none"
             d="M 0,0 V 1.354 H 5.076 V 0 H 4.061 v -3.384 c 0,-0.902 -0.452,-1.353 -1.354,-1.353 h -3.722 c -0.903,0 -1.354,0.451 -1.354,1.353 v 1.015 h 1.354 V -3.384 H 2.707 V 0 Z"
             inkscape:connector-curvature="0" /></g><path
           id="path42"
           style="fill:#231f20;fill-opacity:1;fill-rule:nonzero;stroke:none"
           d="m 64.802,316.359 h 2.369 v -1.354 h -2.369 z"
           inkscape:connector-curvature="0" /><g
           transform="translate(75.6307,316.3593)"
           id="g44"><path
             id="path46"
             style="fill:#231f20;fill-opacity:1;fill-rule:nonzero;stroke:none"
             d="M 0,0 C 0,-0.902 -0.451,-1.354 -1.354,-1.354 H -6.429 V -2.369 H 0 v -1.353 h -7.783 v 2.368 c 0,0.903 0.451,1.354 1.354,1.354 h 5.075 v 1.015 h -6.429 v 1.354 h 6.429 C -0.451,2.369 0,1.918 0,1.015 Z"
             inkscape:connector-curvature="0" /></g><path
           id="path48"
           style="fill:#231f20;fill-opacity:1;fill-rule:nonzero;stroke:none"
           d="m 82.737,317.374 h -5.076 v -3.384 h 5.076 z m 1.353,-3.383 c 0,-0.903 -0.451,-1.354 -1.353,-1.354 h -5.076 c -0.902,0 -1.353,0.451 -1.353,1.354 v 3.383 c 0,0.903 0.451,1.354 1.353,1.354 h 5.076 c 0.902,0 1.353,-0.451 1.353,-1.354 z"
           inkscape:connector-curvature="0" /><path
           id="path50"
           style="fill:#231f20;fill-opacity:1;fill-rule:nonzero;stroke:none"
           d="m 91.197,317.374 h -5.076 v -3.384 h 5.076 z m 1.353,-3.383 c 0,-0.903 -0.451,-1.354 -1.353,-1.354 h -5.076 c -0.903,0 -1.354,0.451 -1.354,1.354 v 3.383 c 0,0.903 0.451,1.354 1.354,1.354 h 5.076 c 0.902,0 1.353,-0.451 1.353,-1.354 z"
           inkscape:connector-curvature="0" /><g
           transform="translate(70.4833,164.286)"
           id="g52"><path
             id="path54"
             style="fill:#656769;fill-opacity:1;fill-rule:nonzero;stroke:none"
             d="M 0,0 C -25.734,0 -46.595,20.861 -46.595,46.595 -46.595,72.33 -25.734,93.19 0,93.19 25.735,93.19 46.595,72.33 46.595,46.595 46.595,20.861 25.735,0 0,0 m 0,98.51 c -28.675,0 -51.915,-23.24 -51.915,-51.915 0,-28.674 23.24,-51.915 51.915,-51.915 28.675,0 51.915,23.241 51.915,51.915 C 51.915,75.27 28.675,98.51 0,98.51"
             inkscape:connector-curvature="0" /></g><g
           transform="translate(117.0784,210.8811)"
           id="g56"><path
             id="path58"
             style="fill:#818283;fill-opacity:1;fill-rule:nonzero;stroke:none"
             d="m 0,0 c 0,-25.734 -20.861,-46.595 -46.595,-46.595 -25.735,0 -46.595,20.861 -46.595,46.595 0,25.735 20.86,46.595 46.595,46.595 C -20.861,46.595 0,25.735 0,0"
             inkscape:connector-curvature="0" /></g><g
           transform="translate(99.4028,210.8811)"
           id="g60"><path
             id="path62"
             style="fill:#656769;fill-opacity:1;fill-rule:nonzero;stroke:none"
             d="m 0,0 c 0,-15.969 -12.95,-28.92 -28.92,-28.92 -15.969,0 -28.919,12.951 -28.919,28.92 0,10.737 5.854,20.108 14.543,25.096 -0.595,-1.584 -0.937,-3.29 -0.971,-5.075 v -0.009 c -5.609,-4.489 -9.197,-11.393 -9.197,-19.137 0,-13.554 10.99,-24.544 24.544,-24.544 13.555,0 24.545,10.99 24.545,24.544 0,7.744 -3.588,14.648 -9.197,19.137 v 0.009 c -0.035,1.785 -0.376,3.491 -0.971,5.075 C -5.854,20.108 0,10.737 0,0"
             inkscape:connector-curvature="0" /></g><g
           transform="translate(95.0277,211.7561)"
           id="g64"><path
             id="path66"
             style="fill:#232221;fill-opacity:1;fill-rule:nonzero;stroke:none"
             d="m 0,0 c 0,-13.554 -10.99,-24.544 -24.544,-24.544 -13.555,0 -24.545,10.99 -24.545,24.544 0,7.744 3.588,14.648 9.197,19.137 -0.009,-0.105 -0.009,-0.219 -0.009,-0.324 0,-2.546 0.621,-4.953 1.724,-7.07 -2.669,-3.176 -4.27,-7.272 -4.27,-11.743 0,-10.089 8.172,-18.262 18.261,-18.262 10.089,0 18.262,8.173 18.262,18.262 0,4.716 -1.785,9.022 -4.725,12.259 0.936,1.995 1.461,4.209 1.461,6.554 0,0.105 0,0.219 -0.008,0.324 C -3.588,14.648 0,7.744 0,0"
             inkscape:connector-curvature="0" /></g><g
           transform="translate(49.1152,235.9856)"
           id="g68"><path
             id="path70"
             style="fill:#959995;fill-opacity:1;fill-rule:nonzero;stroke:none"
             d="m 0,0 -5.486,5.486 c -0.385,0.385 -0.893,0.578 -1.4,0.578 -0.499,0 -1.007,-0.193 -1.392,-0.578 -0.761,-0.761 -0.761,-2.012 0,-2.782 l 5.495,-5.487 c 0.377,-0.385 0.884,-0.577 1.392,-0.577 0.507,0 1.015,0.192 1.391,0.577 C 0.77,-2.021 0.77,-0.77 0,0 m 52.641,-52.641 -5.486,5.486 c -0.385,0.385 -0.892,0.577 -1.391,0.577 -0.508,0 -1.006,-0.192 -1.391,-0.577 -0.77,-0.761 -0.77,-2.021 0,-2.783 l 5.486,-5.495 c 0.385,-0.385 0.892,-0.569 1.391,-0.569 0.508,0 1.015,0.184 1.391,0.569 0.771,0.77 0.771,2.021 0,2.792 M 52.327,5.416 c -0.771,0.762 -2.022,0.762 -2.783,0 L 44.049,-0.079 C 43.672,-0.464 43.48,-0.962 43.48,-1.47 c 0,-0.508 0.192,-1.006 0.569,-1.391 0.77,-0.77 2.021,-0.77 2.782,0 l 5.496,5.486 c 0.376,0.385 0.568,0.893 0.568,1.391 0,0.508 -0.192,1.015 -0.568,1.4 m -52.642,-52.65 c -0.77,0.77 -2.021,0.77 -2.791,0 l -5.487,-5.486 c -0.385,-0.385 -0.577,-0.893 -0.577,-1.392 0,-0.507 0.192,-1.006 0.577,-1.391 0.762,-0.77 2.022,-0.77 2.783,0 l 5.495,5.487 c 0.376,0.385 0.569,0.892 0.569,1.391 0,0.507 -0.193,1.015 -0.569,1.391 m 23.127,64.402 c -0.359,0.359 -0.849,0.578 -1.391,0.578 -1.085,0 -1.969,-0.884 -1.969,-1.969 V 9.818 c 0.63,0.079 1.269,0.122 1.916,0.122 0.683,0 1.365,-0.043 2.021,-0.131 v 5.968 c 0,0.542 -0.218,1.032 -0.577,1.391 m 0,-74.447 c -0.359,0.359 -0.849,0.577 -1.391,0.577 -1.085,0 -1.969,-0.883 -1.969,-1.968 v -7.771 c 0,-0.542 0.219,-1.032 0.577,-1.391 0.359,-0.359 0.849,-0.577 1.392,-0.577 1.085,0 1.968,0.892 1.968,1.968 v 7.771 c 0,0.542 -0.218,1.032 -0.577,1.391 m 39.437,34.091 h -7.761 c -0.543,0 -1.033,-0.219 -1.391,-0.578 -0.359,-0.358 -0.578,-0.848 -0.578,-1.391 0,-1.085 0.884,-1.969 1.969,-1.969 h 7.761 c 0.543,0 1.033,0.219 1.392,0.578 0.358,0.359 0.577,0.849 0.577,1.391 0,1.085 -0.884,1.969 -1.969,1.969 m -72.478,-1.969 c 0,-0.542 -0.219,-1.032 -0.578,-1.391 -0.358,-0.359 -0.848,-0.578 -1.391,-0.578 h -7.77 c -1.085,0 -1.969,0.884 -1.969,1.969 0,0.543 0.219,1.033 0.578,1.391 0.358,0.359 0.848,0.578 1.391,0.578 h 7.77 c 1.085,0 1.969,-0.884 1.969,-1.969"
             inkscape:connector-curvature="0" /></g><g
           transform="translate(85.84,230.5692)"
           id="g72"><path
             id="path74"
             style="fill:#191716;fill-opacity:1;fill-rule:nonzero;stroke:none"
             d="m 0,0 c 0,-2.345 -0.525,-4.559 -1.461,-6.554 -0.657,-1.374 -1.505,-2.634 -2.512,-3.754 -1.093,-1.207 -2.38,-2.24 -3.806,-3.045 -2.231,-1.277 -4.821,-2.004 -7.578,-2.004 -2.756,0 -5.346,0.727 -7.577,2.004 -1.252,0.709 -2.398,1.593 -3.395,2.616 -1.059,1.077 -1.961,2.311 -2.661,3.667 -1.102,2.117 -1.723,4.524 -1.723,7.07 0,0.105 0,0.219 0.008,0.324 v 0.009 c 0.035,1.785 0.377,3.491 0.972,5.075 1.977,5.241 6.729,9.117 12.46,9.826 0.63,0.079 1.269,0.123 1.916,0.123 0.683,0 1.365,-0.044 2.022,-0.132 5.687,-0.752 10.395,-4.611 12.355,-9.817 0.595,-1.584 0.936,-3.29 0.971,-5.075 V 0.324 C 0,0.219 0,0.105 0,0"
             inkscape:connector-curvature="0" /></g><g
           transform="translate(89.1038,211.7561)"
           id="g76"><path
             id="path78"
             style="fill:#1b1918;fill-opacity:1;fill-rule:nonzero;stroke:none"
             d="m 0,0 c 0,-10.089 -8.173,-18.262 -18.262,-18.262 -10.089,0 -18.262,8.173 -18.262,18.262 0,4.471 1.602,8.567 4.271,11.743 0.7,-1.356 1.601,-2.59 2.66,-3.666 -1.637,-2.276 -2.59,-5.058 -2.59,-8.077 0,-4.743 2.371,-8.925 5.985,-11.437 2.249,-1.566 4.979,-2.485 7.936,-2.485 2.643,0 5.119,0.735 7.219,2.013 4.017,2.441 6.703,6.86 6.703,11.909 0,3.211 -1.085,6.151 -2.896,8.505 1.006,1.12 1.855,2.38 2.511,3.754 C -1.785,9.022 0,4.716 0,0"
             inkscape:connector-curvature="0" /></g><g
           transform="translate(78.061,217.2163)"
           id="g80"><path
             id="path82"
             style="fill:#191716;fill-opacity:1;fill-rule:nonzero;stroke:none"
             d="m 0,0 v -17.369 c -2.1,-1.278 -4.576,-2.013 -7.219,-2.013 -2.958,0 -5.688,0.919 -7.936,2.485 V 0 c 2.231,-1.277 4.821,-2.004 7.577,-2.004 2.757,0 5.347,0.727 7.578,2.004"
             inkscape:connector-curvature="0" /></g><g
           transform="translate(62.9056,217.2163)"
           id="g84"><path
             id="path86"
             style="fill:#1c1b1a;fill-opacity:1;fill-rule:nonzero;stroke:none"
             d="m 0,0 v -16.897 c -3.614,2.512 -5.985,6.694 -5.985,11.437 0,3.019 0.954,5.801 2.59,8.076 C -2.398,1.593 -1.251,0.709 0,0"
             inkscape:connector-curvature="0" /></g><g
           transform="translate(84.7637,211.7561)"
           id="g88"><path
             id="path90"
             style="fill:#1c1b1a;fill-opacity:1;fill-rule:nonzero;stroke:none"
             d="M 0,0 C 0,-5.049 -2.686,-9.468 -6.703,-11.909 V 5.46 C -5.276,6.265 -3.99,7.298 -2.896,8.505 -1.085,6.151 0,3.211 0,0"
             inkscape:connector-curvature="0" /></g><g
           transform="translate(44.6425,334.2797)"
           id="g92"><path
             id="path94"
             style="fill:#28479f;fill-opacity:1;fill-rule:nonzero;stroke:none"
             d="m 0,0 c 0,0.752 0.27,1.401 0.81,1.948 0.54,0.547 1.296,0.821 2.266,0.821 h 7.383 V 0.308 H 3.076 C 2.666,0.308 2.461,0.205 2.461,0 c 0,-0.205 0.205,-0.308 0.615,-0.308 h 1.846 c 1.408,0 2.683,-0.57 3.825,-1.712 1.141,-1.142 1.712,-2.519 1.712,-4.132 0,-1.6 -0.571,-2.974 -1.712,-4.123 -1.142,-1.148 -2.417,-1.722 -3.825,-1.722 h -7.998 v 2.461 h 7.383 c 1.135,0 2.034,0.335 2.697,1.005 0.663,0.669 0.994,1.462 0.994,2.379 0,0.929 -0.331,1.726 -0.994,2.389 C 6.341,-3.1 5.442,-2.769 4.307,-2.769 H 3.076 c -0.97,0 -1.726,0.27 -2.266,0.81 C 0.27,-1.418 0,-0.766 0,0 m -3.076,0 c 0,1.6 0.571,2.974 1.712,4.122 1.142,1.149 2.417,1.723 3.825,1.723 h 7.998 V 3.384 H 3.076 C 1.941,3.384 1.043,3.049 0.379,2.379 -0.284,1.709 -0.615,0.916 -0.615,0 c 0,-0.93 0.331,-1.726 0.994,-2.389 0.664,-0.663 1.562,-0.995 2.697,-0.995 h 1.231 c 0.97,0 1.726,-0.27 2.266,-0.81 0.54,-0.54 0.81,-1.193 0.81,-1.958 0,-0.752 -0.27,-1.402 -0.81,-1.949 -0.54,-0.547 -1.296,-0.82 -2.266,-0.82 h -7.383 v 2.461 h 7.383 c 0.41,0 0.615,0.102 0.615,0.308 0,0.205 -0.205,0.307 -0.615,0.307 H 2.461 c -1.408,0 -2.683,0.571 -3.825,1.713 -1.141,1.141 -1.712,2.519 -1.712,4.132"
             inkscape:connector-curvature="0" /></g><g
           transform="translate(59.4086,330.8958)"
           id="g96"><path
             id="path98"
             style="fill:#28479f;fill-opacity:1;fill-rule:nonzero;stroke:none"
             d="M 0,0 H 7.998 V -2.461 H 2.461 c 0,-0.41 0.205,-0.615 0.615,-0.615 H 9.844 V -5.537 H 2.461 C 0.82,-5.537 0,-4.717 0,-3.076 Z m 0,0.615 v 3.077 c 0,1.64 0.82,2.461 2.461,2.461 H 9.844 V 3.692 H 3.076 C 2.666,3.692 2.461,3.486 2.461,3.076 H 7.998 V 0.615 Z m -3.076,3.077 c 0,3.691 1.845,5.537 5.537,5.537 H 9.844 V 6.768 H 2.461 c -2.051,0 -3.076,-1.026 -3.076,-3.076 v -6.768 c 0,-2.051 1.025,-3.077 3.076,-3.077 H 9.844 V -8.614 H 2.461 c -3.692,0 -5.537,1.846 -5.537,5.538 z"
             inkscape:connector-curvature="0" /></g><g
           transform="translate(73.5594,334.5874)"
           id="g100"><path
             id="path102"
             style="fill:#28479f;fill-opacity:1;fill-rule:nonzero;stroke:none"
             d="M 0,0 C 0,1.641 0.82,2.461 2.461,2.461 H 9.844 V 0 H 3.076 C 2.666,0 2.461,-0.205 2.461,-0.615 v -5.538 c 0,-0.41 0.205,-0.615 0.615,-0.615 h 1.231 v 0.615 H 3.076 v 2.461 H 6.768 V -9.229 H 2.461 C 0.82,-9.229 0,-8.408 0,-6.768 Z m -3.076,0 c 0,3.691 1.845,5.537 5.537,5.537 H 9.844 V 3.076 H 2.461 C 0.41,3.076 -0.615,2.051 -0.615,0 v -6.768 c 0,-2.051 1.025,-3.076 3.076,-3.076 h 4.922 v 6.768 H 3.076 v 2.461 h 6.768 v -11.69 H 2.461 c -3.692,0 -5.537,1.846 -5.537,5.537 z"
             inkscape:connector-curvature="0" /></g><g
           transform="translate(91.6068,330.6908)"
           id="g104"><path
             id="path106"
             style="fill:#28479f;fill-opacity:1;fill-rule:nonzero;stroke:none"
             d="m 0,0 -1.128,-2.871 h 2.256 z m -1.538,-5.332 v 1.333 L -3.281,-8.408 H -5.742 L -0.41,5.947 c 0.068,0.274 0.205,0.411 0.41,0.411 0.205,0 0.342,-0.137 0.41,-0.411 L 4.717,-5.332 Z m 0,-0.615 h 7.28 L 0.82,6.563 C 0.684,6.836 0.41,6.973 0,6.973 c -0.342,0 -0.615,-0.137 -0.82,-0.41 L -6.358,-8.408 H -8.819 L -3.076,7.383 C -2.393,8.75 -1.367,9.434 0,9.434 1.572,9.434 2.598,8.75 3.076,7.383 L 9.024,-8.408 H -1.538 Z"
             inkscape:connector-curvature="0" /></g></g></g></g></svg>