<?xml version="1.0" encoding="UTF-8" standalone="no"?>
<svg
   xmlns:bx="https://www.boxy-svg.com/bx"
   xmlns:dc="http://purl.org/dc/elements/1.1/"
   xmlns:cc="http://creativecommons.org/ns#"
   xmlns:rdf="http://www.w3.org/1999/02/22-rdf-syntax-ns#"
   xmlns:svg="http://www.w3.org/2000/svg"
   xmlns="http://www.w3.org/2000/svg"
   xmlns:sodipodi="http://sodipodi.sourceforge.net/DTD/sodipodi-0.dtd"
   xmlns:inkscape="http://www.inkscape.org/namespaces/inkscape"
   width="384.98901"
   height="123.8535"
   viewBox="-0.0840015 2.5 384.989 123.8535"
   version="1.1"
   id="svg77"
   sodipodi:docname="controller.svg"
   inkscape:version="0.92.2 (5c3e80d, 2017-08-06)">
  <metadata
     id="metadata83">
    <rdf:RDF>
      <cc:Work
         rdf:about="">
        <dc:format>image/svg+xml</dc:format>
        <dc:type
           rdf:resource="http://purl.org/dc/dcmitype/StillImage" />
        <dc:title></dc:title>
      </cc:Work>
    </rdf:RDF>
  </metadata>
  <defs
     id="defs81" />
  <sodipodi:namedview
     pagecolor="#ffffff"
     bordercolor="#666666"
     borderopacity="1"
     objecttolerance="10"
     gridtolerance="10"
     guidetolerance="10"
     inkscape:pageopacity="0"
     inkscape:pageshadow="2"
     inkscape:window-width="1920"
     inkscape:window-height="1017"
     id="namedview79"
     showgrid="false"
     inkscape:zoom="1.8130387"
     inkscape:cx="183.97732"
     inkscape:cy="100.22814"
     inkscape:window-x="-8"
     inkscape:window-y="-8"
     inkscape:window-maximized="1"
     inkscape:current-layer="svg77"
     fit-margin-top="0"
     fit-margin-left="0"
     fit-margin-right="0"
     fit-margin-bottom="0" />
  <path
     id="path7"
     d="m 261.87,2.500003 c -0.991,0 -2.134,0.06375 -3.111,0.38925 -0.978,0.32625 -1.795,1.02225 -1.795,2.0055 h 0.641 c -0.011,0.189 0.021,0.4725 0.332,0.48075 l 44.485,-0.09075 c 15.887,0.35925 29.69,3.82425 41.794,9.35175 0.514,0.1935 0.736,-0.2085 0.727,-0.366 -0.036,-0.64275 -0.086,-1.14825 -0.151,-1.551 h 0.065 c 0,-0.636 0.073,-1.1265 0,-1.6005 -0.073,-0.468 -0.428,-0.94275 -1.077,-1.212 -0.006,-0.003 0.004,-0.01425 0,-0.01575 -0.006,-0.0015 -0.015,0.003 -0.02,0 -11.945,-5.0355 -25.708,-7.39125 -40.34,-7.39125 z"
     style="fill:#bdbdbd;stroke-width:0.86602539"
     bx:origin="0 0"
     inkscape:connector-curvature="0" />
  <path
     id="path-7"
     d="m 123.05199,2.5 c 0.991,0 2.134,0.06375 3.111,0.38925 0.978,0.32625 1.795,1.02225 1.795,2.0055 h -0.641 c 0.011,0.189 -0.021,0.4725 -0.332,0.48075 L 82.499983,5.28475 C 66.612983,5.644 52.809984,9.109 40.705984,14.6365 c -0.514001,0.1935 -0.736,-0.2085 -0.727,-0.366 0.036,-0.64275 0.086,-1.14825 0.151,-1.551 h -0.065 c 0,-0.636 -0.073,-1.1265 0,-1.6005 0.073,-0.468 0.428,-0.94275 1.077,-1.212 0.006,-0.003 -0.004,-0.01425 0,-0.01575 0.006,-0.0015 0.015,0.003 0.02,0 11.945,-5.0355 25.708,-7.39125 40.34,-7.39125 z"
     style="fill:#bdbdbd;stroke-width:0.86602539"
     bx:origin="0 1"
     inkscape:connector-curvature="0" />
  <path
     id="path-11"
     d="M 80.934998,4.833253 H 170.385 186.483 v 0.62775 0.47775 h 0.637 10.758 0.637 v -0.47775 -0.62775 h 15.919 89.449 c 44.754,0 81.022,27.1875 81.022,60.7515 0,33.5655 -36.27,60.766497 -81.022,60.766497 -17.66,0 -33.984,-4.239 -47.297,-11.43 h -0.019 L 254.894,113.95 c -2.94,-1.761 -6.667,-2.80875 -10.719,-2.80875 h -30.361 -42.813 -30.362 c -4.051,0 -7.778,1.04775 -10.717,2.80875 l -1.674,0.97125 h -0.019 c -13.305,7.1955 -29.626002,11.43225 -47.292001,11.43225 -44.752001,0 -81.0210005,-27.200997 -81.0210005,-60.766497 0,-33.564 36.2700005,-60.75225 81.0210005,-60.75225 z"
     style="fill:#cccccc;stroke-width:0.86602539"
     bx:origin="0.5 0.5"
     inkscape:connector-curvature="0" />
  <g
     transform="matrix(1,0,0,0.75,-1.5e-6,1.375003)"
     id="g32">
    <g
       id="g18">
      <path
         d="m 145.366,123.432 c 0.053,-0.336 -0.087,-0.598 -0.42,-0.784 l -0.56,-0.319 c -0.787,-0.469 -1.16,-1.107 -1.12,-1.913 0.02,-0.372 0.117,-0.7 0.29,-0.983 0.173,-0.293 0.417,-0.519 0.73,-0.678 0.307,-0.16 0.643,-0.235 1.01,-0.226 0.493,0.009 0.89,0.199 1.19,0.571 0.3,0.363 0.447,0.855 0.44,1.475 h -1.16 c 0.007,-0.248 -0.033,-0.451 -0.12,-0.611 -0.087,-0.15 -0.23,-0.23 -0.43,-0.239 -0.2,0 -0.373,0.062 -0.52,0.186 -0.153,0.123 -0.243,0.296 -0.27,0.518 -0.04,0.302 0.13,0.549 0.51,0.744 0.38,0.196 0.657,0.359 0.83,0.492 0.547,0.434 0.803,1.019 0.77,1.754 -0.02,0.381 -0.113,0.718 -0.28,1.01 -0.167,0.283 -0.397,0.505 -0.69,0.664 -0.293,0.16 -0.627,0.235 -1,0.226 -0.267,-0.009 -0.513,-0.062 -0.74,-0.159 -0.233,-0.107 -0.433,-0.262 -0.6,-0.465 -0.327,-0.408 -0.483,-0.948 -0.47,-1.622 l 1.17,0.014 c -0.013,0.336 0.037,0.594 0.15,0.77 0.107,0.169 0.293,0.253 0.56,0.253 0.193,0 0.357,-0.057 0.49,-0.173 0.133,-0.123 0.213,-0.292 0.24,-0.505 z"
         style="fill:#4c4c4c"
         bx:origin="0.5 0.5"
         id="path5"
         inkscape:connector-curvature="0" />
      <path
         d="m 169.788,119.844 h -1.44 l -0.71,5.382 h -1.17 l 0.71,-5.382 h -1.43 l 0.17,-1.235 h 4.04 z"
         style="fill:#4c4c4c"
         bx:origin="0.5 0.5"
         id="path8"
         inkscape:connector-curvature="0" />
      <path
         d="m 164.477,122.967 c -0.034,0.469 -0.15,0.881 -0.35,1.236 -0.2,0.363 -0.46,0.642 -0.78,0.837 -0.327,0.195 -0.68,0.288 -1.06,0.279 -0.52,-0.017 -0.927,-0.239 -1.22,-0.664 -0.3,-0.435 -0.464,-1.019 -0.49,-1.754 -0.02,-0.488 0.02,-1.023 0.12,-1.608 0.1,-0.576 0.263,-1.076 0.49,-1.502 0.233,-0.434 0.503,-0.757 0.81,-0.97 0.313,-0.212 0.653,-0.315 1.02,-0.305 0.546,0.017 0.976,0.235 1.29,0.651 0.313,0.425 0.486,1.006 0.52,1.741 h -1.17 c 0.006,-0.408 -0.047,-0.695 -0.16,-0.864 -0.12,-0.177 -0.3,-0.27 -0.54,-0.279 -0.62,-0.027 -0.997,0.607 -1.13,1.9 -0.06,0.594 -0.09,1.014 -0.09,1.262 -0.014,0.744 0.193,1.13 0.62,1.156 0.273,0.01 0.493,-0.083 0.66,-0.279 0.166,-0.195 0.273,-0.465 0.32,-0.81 z"
         style="fill:#4c4c4c"
         bx:origin="0.5 0.5"
         id="path10"
         inkscape:connector-curvature="0" />
      <path
         d="m 159.332,122.422 h -1.83 l -0.2,1.582 h 2.16 l -0.16,1.222 h -3.33 l 0.86,-6.617 h 3.34 l -0.16,1.235 h -2.17 l -0.18,1.396 h 1.83 z"
         style="fill:#4c4c4c"
         bx:origin="0.5 0.5"
         id="path12"
         inkscape:connector-curvature="0" />
      <path
         d="m 153.087,124.004 h 2.02 l -0.16,1.222 h -3.19 l 0.86,-6.617 h 1.17 z"
         style="fill:#4c4c4c"
         bx:origin="0.5 0.5"
         id="path14"
         inkscape:connector-curvature="0" />
      <path
         d="m 150.782,122.422 h -1.83 l -0.2,1.582 h 2.16 l -0.16,1.222 h -3.33 l 0.86,-6.617 h 3.34 l -0.16,1.235 h -2.17 l -0.18,1.396 h 1.83 z"
         style="fill:#4c4c4c"
         bx:origin="0.5 0.5"
         id="path16"
         inkscape:connector-curvature="0" />
    </g>
    <g
       id="g30">
      <path
         d="m 189.002,123.432 c 0.053,-0.336 -0.087,-0.598 -0.42,-0.784 l -0.56,-0.319 c -0.787,-0.469 -1.16,-1.107 -1.12,-1.913 0.02,-0.372 0.117,-0.7 0.29,-0.983 0.173,-0.293 0.417,-0.519 0.73,-0.678 0.307,-0.16 0.643,-0.235 1.01,-0.226 0.493,0.009 0.89,0.199 1.19,0.571 0.3,0.363 0.447,0.855 0.44,1.475 h -1.16 c 0.007,-0.248 -0.033,-0.451 -0.12,-0.611 -0.087,-0.15 -0.23,-0.23 -0.43,-0.239 -0.2,0 -0.373,0.062 -0.52,0.186 -0.153,0.123 -0.243,0.296 -0.27,0.518 -0.04,0.302 0.13,0.549 0.51,0.744 0.38,0.196 0.657,0.359 0.83,0.492 0.547,0.434 0.803,1.019 0.77,1.754 -0.02,0.381 -0.113,0.718 -0.28,1.01 -0.167,0.283 -0.397,0.505 -0.69,0.664 -0.293,0.16 -0.627,0.235 -1,0.226 -0.267,-0.009 -0.513,-0.062 -0.74,-0.159 -0.233,-0.107 -0.433,-0.262 -0.6,-0.465 -0.327,-0.408 -0.483,-0.948 -0.47,-1.622 l 1.17,0.014 c -0.013,0.336 0.037,0.594 0.15,0.77 0.107,0.169 0.293,0.253 0.56,0.253 0.193,0 0.357,-0.057 0.49,-0.173 0.133,-0.123 0.213,-0.292 0.24,-0.505 z"
         style="fill:#4c4c4c"
         bx:origin="0.5 0.5"
         id="path20"
         inkscape:connector-curvature="0" />
      <path
         d="m 210.073,119.844 h -1.44 l -0.71,5.382 h -1.17 l 0.71,-5.382 h -1.43 l 0.17,-1.235 h 4.04 z"
         style="fill:#4c4c4c"
         bx:origin="0.5 0.5"
         id="path22"
         inkscape:connector-curvature="0" />
      <path
         d="m 202.25,121.665 h 0.68 c 0.186,0 0.35,-0.057 0.49,-0.173 0.14,-0.123 0.24,-0.292 0.3,-0.505 0.06,-0.203 0.076,-0.408 0.05,-0.611 -0.047,-0.336 -0.21,-0.514 -0.49,-0.532 h -0.79 z m -0.16,1.222 -0.3,2.339 h -1.17 l 0.86,-6.617 1.76,0.013 c 0.56,0 0.993,0.173 1.3,0.518 0.3,0.355 0.433,0.833 0.4,1.435 -0.02,0.479 -0.124,0.873 -0.31,1.183 -0.18,0.319 -0.434,0.567 -0.76,0.744 l 0.67,2.644 v 0.08 h -1.25 l -0.55,-2.339 z"
         style="fill:#4c4c4c"
         bx:origin="0 0"
         id="path24"
         inkscape:connector-curvature="0" />
      <path
         d="m 197.201,123.99 -0.44,1.236 h -1.29 l 2.64,-6.617 h 1.1 l 0.92,6.617 h -1.22 l -0.12,-1.236 z m 0.44,-1.235 h 1.03 l -0.22,-2.273 z"
         style="fill:#4c4c4c"
         bx:origin="0 0"
         id="path26"
         inkscape:connector-curvature="0" />
      <path
         d="m 195.548,119.844 h -1.44 l -0.71,5.382 h -1.17 l 0.71,-5.382 h -1.43 l 0.17,-1.235 h 4.04 z"
         style="fill:#4c4c4c"
         bx:origin="0.5 0.5"
         id="path28"
         inkscape:connector-curvature="0" />
    </g>
  </g>
  <path
     id="path42"
     style="fill:#999999;fill-opacity:1;fill-rule:nonzero;stroke:#999999;stroke-width:0.86602539"
     d="m 127.385,64.890253 c 0,19.05225 -20.559,34.4955 -45.920002,34.4955 -25.361,0 -45.92,-15.44325 -45.92,-34.4955 0,-19.0515 20.559,-34.497 45.92,-34.497 25.361002,0 45.920002,15.4455 45.920002,34.497"
     bx:origin="0.5 0.5"
     clip-path="url(#clipPath16)"
     inkscape:connector-curvature="0" />
  <path
     id="path46"
     style="fill:#cccccc;fill-opacity:1;fill-rule:nonzero;stroke:none;stroke-width:0.86602539"
     d="m 125.965,64.889503 c 0,18.4455 -19.922,33.3975 -44.499002,33.3975 -24.577,0 -44.501,-14.952 -44.501,-33.3975 0,-18.44475 19.924,-33.3975 44.501,-33.3975 24.577002,0 44.499002,14.95275 44.499002,33.3975"
     bx:origin="0.5 0.5"
     clip-path="url(#clipPath16)"
     inkscape:connector-curvature="0" />
  <path
     id="path50"
     style="fill:#666666;fill-opacity:1;fill-rule:nonzero;stroke:none;stroke-width:0.86602539"
     d="m 377.021,64.956253 c 0,30.249 -32.697,54.770997 -73.029,54.770997 -40.333,0 -73.029,-24.521997 -73.029,-54.770997 0,-30.24975 32.696,-54.77175 73.029,-54.77175 40.332,0 73.029,24.522 73.029,54.77175"
     bx:origin="0.5 0.5"
     clip-path="url(#clipPath16)"
     inkscape:connector-curvature="0" />
  <path
     id="path70"
     style="fill:#4c4c4c;fill-opacity:1;fill-rule:nonzero;stroke:none;stroke-width:0.86602539"
     d="M 113.449,56.245003 H 92.989998 v -15.3435 c 0,-0.65475 -0.715,-1.19175 -1.59,-1.19175 h -19.871 c -0.875,0 -1.59,0.537 -1.59,1.19175 v 15.3435 h -20.459 c -0.873,0 -1.588,0.537 -1.588,1.1925 v 14.904 c 0,0.65475 0.715,1.19175 1.588,1.19175 h 20.459 v 15.34425 c 0,0.6555 0.715,1.19175 1.59,1.19175 h 19.871 c 0.875,0 1.59,-0.53625 1.59,-1.19175 V 73.533253 H 113.449 c 0.874,0 1.589,-0.537 1.589,-1.19175 v -14.904 c 0,-0.6555 -0.715,-1.1925 -1.589,-1.1925"
     bx:origin="0.5 0.5"
     clip-path="url(#clipPath16)"
     inkscape:connector-curvature="0" />
  <path
     id="path90"
     style="fill:#666666;fill-opacity:1;fill-rule:nonzero;stroke:none;stroke-width:0.86602539"
     d="m 52.680998,63.325753 c -2.022,0.8595 -2.022,2.26725 0,3.1275 l 7.834,3.3315 c 2.022,0.861 3.676,0.459 3.676,-0.8925 v -8.0055 c 0,-1.3515 -1.654,-1.752 -3.676,-0.89325 l -7.834,3.33225 c -2.022,0.8595 -2.022,2.26725 0,3.1275 l 7.834,3.3315 c 2.022,0.861 3.676,0.459 3.676,-0.8925 v -8.0055 c 0,-1.3515 -1.654,-1.752 -3.676,-0.89325 z"
     bx:origin="0.5 0.5"
     clip-path="url(#clipPath16)"
     inkscape:connector-curvature="0" />
  <path
     id="path94"
     style="fill:#666666;fill-opacity:1;fill-rule:nonzero;stroke:none;stroke-width:0.86602539"
     d="m 110.15,63.325753 c 2.023,0.8595 2.023,2.26725 0,3.1275 l -7.834,3.3315 c -2.022,0.861 -3.676002,0.459 -3.676002,-0.8925 v -8.0055 c 0,-1.3515 1.654002,-1.752 3.676002,-0.89325 l 7.834,3.33225 c 2.023,0.8595 2.023,2.26725 0,3.1275 l -7.834,3.3315 c -2.022,0.861 -3.676002,0.459 -3.676002,-0.8925 v -8.0055 c 0,-1.3515 1.654002,-1.752 3.676002,-0.89325 z"
     bx:origin="0.5 0.5"
     clip-path="url(#clipPath16)"
     inkscape:connector-curvature="0" />
  <path
     id="path98"
     style="fill:#666666;fill-opacity:1;fill-rule:nonzero;stroke:none;stroke-width:0.86602539"
     d="m 83.548998,43.394503 c -1.147,-1.5165 -3.024,-1.5165 -4.17,0 l -4.441999,5.8755 c -1.147001,1.5165 -0.611001,2.757 1.189999,2.757 h 10.674001 c 1.802,0 2.336,-1.2405 1.191,-2.757 l -4.443001,-5.8755 c -1.147,-1.5165 -3.024,-1.5165 -4.17,0 l -4.441999,5.8755 c -1.147001,1.5165 -0.611001,2.757 1.189999,2.757 h 10.674001 c 1.802,0 2.336,-1.2405 1.191,-2.757 z"
     bx:origin="0.5 0.5"
     clip-path="url(#clipPath16)"
     inkscape:connector-curvature="0" />
  <path
     id="path102"
     style="fill:#666666;fill-opacity:1;fill-rule:nonzero;stroke:none;stroke-width:0.86602539"
     d="m 83.499998,86.496253 c -1.146,1.51725 -3.023,1.51725 -4.17,0 l -4.442,-5.87475 c -1.146,-1.51725 -0.611,-2.75775 1.19,-2.75775 h 10.675 c 1.801,0 2.336,1.2405 1.19,2.75775 l -4.443,5.87475 c -1.146,1.51725 -3.023,1.51725 -4.17,0 l -4.442,-5.87475 c -1.146,-1.51725 -0.611,-2.75775 1.19,-2.75775 h 10.675 c 1.801,0 2.336,1.2405 1.19,2.75775 z"
     bx:origin="0.5 0.5"
     clip-path="url(#clipPath16)"
     inkscape:connector-curvature="0" />
  <path
     id="path-4"
     style="fill:#666666;fill-opacity:1;fill-rule:nonzero;stroke:none;stroke-width:0.86602569"
     d="m 168.56358,72.242183 -16.44552,9.66899 c -5.68472,3.35841 -12.78427,-2.72134 -6.63882,-6.35208 l 16.4445,-9.66972 c 5.87698,-3.39169 12.59972,2.91353 6.63984,6.35281"
     bx:origin="0.5 0.5"
     clip-path="url(#clipPath16)"
     inkscape:connector-curvature="0" />
  <path
     id="path-2"
     style="fill:#666666;fill-opacity:1;fill-rule:nonzero;stroke:none;stroke-width:0.86602569"
     d="m 209.90159,72.242183 -16.44552,9.66898 c -5.68471,3.35842 -12.78427,-2.72133 -6.63882,-6.35207 l 16.4445,-9.66972 c 5.87698,-3.39169 12.59972,2.91353 6.63984,6.35281"
     bx:origin="0.5 0.5"
     clip-path="url(#clipPath16)"
     inkscape:connector-curvature="0" />
  <path
     d="m 329.061,25.361503 -2.686,-0.0225 3.388,3.0255 -3.613,3.29625 2.527,-0.01275 2.382,-2.127 2.381,2.127 2.527,0.01275 -3.613,-3.29625 3.388,-3.0255 -2.686,0.0225 -1.997,1.82175 z"
     style="fill:#d8d8d8;stroke-width:0.86602539"
     bx:origin="0 0"
     id="path44"
     inkscape:connector-curvature="0" />
  <path
     d="m 362.129,47.712253 1.254,0.0082 1.253,-0.0082 3.797,6.23325 -2.041,0.0082 -0.948,-1.56375 -4.112,-0.018 -0.959,1.58175 -2.041,-0.0082 z m 2.545,3.40575 -1.291,-2.13075 -1.271,2.097 z"
     style="fill:#d8d8d8;stroke-width:0.86602539"
     bx:origin="0 0"
     id="path47"
     inkscape:connector-curvature="0" />
  <path
     d="m 243.581,78.123253 -2.27,-0.001 3.762,3.5055 v 2.877 h 1.984 v -2.8935 l 3.744,-3.489 -2.27,0.002 -2.475,2.32125 z"
     style="fill:#d8d8d8;stroke-width:0.86602539"
     bx:origin="0 0"
     id="path49"
     inkscape:connector-curvature="0" />
  <path
     d="m 275.069,99.931753 h 0.84 v -0.001 h 4.585 v -0.002 c 0.014,7.5e-4 0.028,7.5e-4 0.042,0.002 h 0.069 v 0.003 c 3.457,0.170997 3.68,2.940747 0.241,3.065247 4.193,0.12 3.909,3.23625 -0.241,3.366 v 7.5e-4 h -0.018 c -0.032,7.5e-4 -0.064,10e-4 -0.096,0.002 v -0.002 h -5.422 z m 5.507,5.246997 c 1.32,-0.16575 1.404,-1.2885 0.029,-1.4925 v 0.001 h -3.331 v 1.491 z m -0.032,-2.6775 c 1.425,-0.40425 0.82,-1.28025 0.061,-1.386 v 10e-4 h -3.331 v 1.3845 z"
     style="fill:#cccccc;stroke-width:0.86602539"
     bx:origin="0 0"
     id="path51"
     inkscape:connector-curvature="0" />
  <path
     id="circle35"
     d="m 267.298,54.181003 c -8.331,0 -15.101,5.07825 -15.101,11.3265 0,6.24825 6.77,11.3265 15.101,11.3265 8.332,0 15.102,-5.07825 15.102,-11.3265 0,-6.24825 -6.77,-11.3265 -15.102,-11.3265 z m 0,0.957 c 7.642,0 13.826,4.63875 13.826,10.3695 0,5.73075 -6.184,10.36875 -13.826,10.36875 -7.64,0 -13.824,-4.638 -13.824,-10.36875 0,-5.73075 6.184,-10.3695 13.824,-10.3695 z"
     style="fill:#f4f4f4;stroke-width:0.86602539"
     bx:origin="0.5 0.5"
     inkscape:connector-curvature="0" />
  <path
     id="circle37"
     d="m 303.967,32.755753 c -8.331,0 -15.082,5.0775 -15.082,11.3265 0,6.2475 6.751,11.32575 15.082,11.32575 8.331,0 15.102,-5.07825 15.102,-11.32575 0,-6.249 -6.771,-11.3265 -15.102,-11.3265 z m 0,0.95775 c 7.641,0 13.825,4.638 13.825,10.368 0,5.73075 -6.184,10.36875 -13.825,10.36875 -7.64,0 -13.805,-4.638 -13.805,-10.36875 0,-5.73 6.164,-10.368 13.805,-10.368 z"
     style="fill:#f4f4f4;stroke-width:0.86602539"
     bx:origin="0.5 0.5"
     inkscape:connector-curvature="0" />
  <path
     id="circle41"
     d="m 305.179,75.098503 c -8.33,0 -15.101,5.07825 -15.101,11.32725 0,6.24825 6.771,11.3115 15.101,11.3115 8.333,0 15.082,-5.06325 15.082,-11.3115 0,-6.24825 -6.749,-11.32725 -15.082,-11.32725 z m 0,0.9585 c 7.643,0 13.805,4.638 13.805,10.36875 0,5.73075 -6.162,10.353 -13.805,10.353 -7.64,0 -13.824,-4.62225 -13.824,-10.353 0,-5.73075 6.184,-10.36875 13.824,-10.36875 z"
     style="fill:#f4f4f4;stroke-width:0.86602539"
     bx:origin="0.5 0.5"
     inkscape:connector-curvature="0" />
  <path
     id="circle43"
     d="m 341.849,53.674003 c -8.331,0 -15.103,5.07825 -15.103,11.32575 0,6.24825 6.772,11.32575 15.103,11.32575 8.332,0 15.102,-5.0775 15.102,-11.32575 0,-6.2475 -6.772,-11.32575 -15.102,-11.32575 z m 0,0.957 c 7.64,0 13.824,4.638 13.824,10.368 0,5.7315 -6.184,10.36875 -13.824,10.36875 -7.64,0 -13.824,-4.638 -13.824,-10.36875 0,-5.73 6.184,-10.368 13.824,-10.368 z"
     style="fill:#f4f4f4;stroke-width:0.86602539"
     bx:origin="0.5 0.5"
     inkscape:connector-curvature="0" />
  <path
     d="m 355.758,56.774503 c 6.039,5.81475 4.662,14.1885 -3.092,18.7185 l -36.667,21.42525 c -7.754,4.529247 -18.919,3.480747 -24.957,-2.334 -6.038,-5.8155 -4.661,-14.1885 3.093,-18.71775 l 36.687,-21.411 c 2.906,-1.6995 6.279,-2.625 9.697,-2.79825 5.692,-0.2895 11.466,1.482 15.239,5.11725 z"
     style="fill:#d8d8d8;stroke-width:0.86602539"
     bx:origin="0 0"
     id="path57"
     inkscape:connector-curvature="0" />
  <path
     id="path-5"
     d="m 341.848,53.680753 c 8.342,0 15.093,5.06325 15.093,11.3205 0,6.255 -6.751,11.3175 -15.093,11.3175 -8.341,0 -15.092,-5.0625 -15.092,-11.3175 0,-6.25725 6.751,-11.3205 15.092,-11.3205 z"
     style="fill:#eb2d2f;fill-opacity:1;stroke-width:0.86602539"
     bx:origin="0.5 0.5"
     inkscape:connector-curvature="0" />
  <path
     d="m 318.005,35.920003 c 6.039,5.81475 4.662,14.1885 -3.093,18.71775 l -36.666,21.42525 c -7.754,4.52925 -18.919,3.4815 -24.958,-2.334 -6.038,-5.8155 -4.66,-14.1885 3.094,-18.717 l 36.687,-21.411 c 2.906,-1.6995 6.278,-2.625 9.696,-2.799 5.693,-0.2895 11.467,1.48275 15.24,5.118 z"
     style="fill:#d8d8d8;stroke-width:0.86602539"
     bx:origin="0 0"
     id="path60"
     inkscape:connector-curvature="0" />
  <path
     id="path-6"
     d="m 303.978,32.762503 c 8.341,0 15.092,5.06325 15.092,11.3205 0,6.25575 -6.751,11.31825 -15.092,11.31825 -8.341,0 -15.093,-5.0625 -15.093,-11.31825 0,-6.25725 6.752,-11.3205 15.093,-11.3205 z"
     style="fill:#323b98;fill-opacity:1;stroke-width:0.86602539"
     bx:origin="0.5 0.5"
     inkscape:connector-curvature="0" />
  <path
     id="path-1"
     d="m 305.169,75.099253 c 8.342,0 15.093,5.06325 15.093,11.31975 0,6.25575 -6.751,11.3175 -15.093,11.3175 -8.341,0 -15.092,-5.06175 -15.092,-11.3175 0,-6.2565 6.751,-11.31975 15.092,-11.31975 z"
     style="fill:#f9ec2b;fill-opacity:1;stroke-width:0.86602539"
     bx:origin="0.5 0.5"
     inkscape:connector-curvature="0" />
  <path
     id="path-10"
     d="m 267.298,54.188503 c 8.342,0 15.093,5.06325 15.093,11.31975 0,6.25575 -6.751,11.31825 -15.093,11.31825 -8.341,0 -15.092,-5.0625 -15.092,-11.31825 0,-6.2565 6.751,-11.31975 15.092,-11.31975 z"
     style="fill:#01954b;fill-opacity:1;stroke-width:0.86602539"
     bx:origin="0.5 0.5"
     inkscape:connector-curvature="0" />
  <path
     id="path-18"
     style="fill:#666666;fill-opacity:0.5;fill-rule:nonzero;stroke:none;stroke-width:0.86602539"
     d="m 89.829998,64.889503 c 0,3.46575 -3.745,6.27375 -8.366,6.27375 -4.619,0 -8.364,-2.808 -8.364,-6.27375 0,-3.46425 3.745,-6.27375 8.364,-6.27375 4.621,0 8.366,2.8095 8.366,6.27375"
     bx:origin="0.5 0.5"
     clip-path="url(#clipPath16)"
     inkscape:connector-curvature="0" />
  <g
     transform="matrix(1,0,0,0.75,3.1969935,1.232502)"
     id="g75">
    <path
       id="path-3"
       style="fill:#4c4c4c;fill-opacity:1;fill-rule:nonzero;stroke:none"
       d="m 163.348,35.415 -0.342,0.939 h 0.26 z m -9.644,-1.119 c -0.028,0 -0.048,0.015 -0.067,0.033 l -0.212,1.12 v 0.007 c 0,0.044 0.027,0.076 0.068,0.076 h 0.193 c 0.05,0 0.17,-0.1 0.181,-0.149 l 0.178,-0.924 c 0.006,-0.054 -0.081,-0.163 -0.131,-0.163 z m 39.054,-0.445 h 1.091 l -0.085,0.46 h -0.273 l -0.571,3.264 h -0.522 l 0.571,-3.264 h -0.292 z m -4.841,0 h 0.459 l 0.241,1.944 0.36,-1.944 h 0.521 l -0.683,3.724 h -0.458 l -0.176,-2.16 -0.426,2.16 h -0.538 z m -4.724,0 h 0.963 l -0.066,0.46 h -0.522 l -0.214,1.152 h 0.508 l -0.067,0.397 h -0.519 l -0.214,1.253 h 0.525 l -0.084,0.462 h -1.027 z m -5.915,0 h 0.604 l 0.096,2.158 0.93,-2.144 h 0.586 l -0.619,3.71 h -0.457 l 0.296,-1.962 -0.816,1.962 h -0.324 l -0.1,-2.01 -0.359,2.01 h -0.522 z m -5.392,0 h 0.457 l 0.242,1.944 0.36,-1.944 h 0.521 l -0.683,3.724 h -0.472 l -0.166,-2.16 -0.422,2.16 h -0.537 z m -4.205,0 h 0.474 l -0.7,3.724 h -0.458 z m -4.333,0 h 0.62 l -0.196,3.724 h -0.619 l 0.081,-0.856 h -0.375 l -0.31,0.856 h -0.553 z m -5.425,0 h 1.09 l -0.065,0.46 h -0.275 l -0.587,3.264 h -0.522 l 0.571,-3.264 h -0.294 z m -4.658,0 h 1.039 c 0.195,0 0.318,0.172 0.28,0.378 l -0.246,1.319 c -0.025,0.142 -0.274,0.259 -0.406,0.312 h 0.032 0.015 0.019 v 0.017 h 0.014 0.017 0.016 0.016 l 0.016,0.017 h 0.017 0.017 0.015 v 0.016 h 0.019 0.014 v 0.017 h 0.018 c 0.021,0.041 0.03,0.157 0.03,0.182 0,0.02 -0.262,1.466 -0.262,1.466 h -0.469 c 0,0 0.253,-1.298 0.26,-1.351 0.003,-0.057 -0.006,-0.13 -0.018,-0.181 -0.003,-0.04 -0.005,-0.108 -0.046,-0.149 h -0.326 l -0.312,1.681 h -0.47 z m -4.597,0 h 0.978 l -0.081,0.46 h -0.506 l -0.228,1.152 h 0.506 l -0.065,0.397 h -0.509 l -0.207,1.253 h 0.503 l -0.063,0.462 h -1.044 z m -4.739,0 h 1.076 l -0.069,0.46 h -0.274 l -0.589,3.264 h -0.523 l 0.573,-3.264 h -0.294 z m -4.89,0 h 0.455 l 0.246,1.944 0.359,-1.944 h 0.535 l -0.699,3.724 h -0.455 l -0.178,-2.16 -0.428,2.16 h -0.535 z m -4.498,0 h 0.963 l -0.065,0.46 h -0.522 l -0.212,1.152 h 0.506 l -0.065,0.397 h -0.521 l -0.197,1.253 h 0.505 l -0.082,0.462 h -1.041 z m 87.512,-0.133 h 0.602 l 0.098,2.142 0.928,-2.125 0.588,-0.017 -0.62,3.709 h -0.456 l 0.294,-1.964 -0.813,1.964 h -0.329 l -0.097,-2.012 -0.359,2.012 h -0.536 z m -4.026,0 h 0.979 l -0.082,0.445 h -0.505 l -0.227,1.17 h 0.519 l -0.08,0.378 h -0.505 l -0.212,1.254 h 0.505 l -0.067,0.462 h -1.039 z m -4.269,0 h 1.092 l -0.079,0.445 h -0.279 l -0.568,3.264 h -0.539 l 0.571,-3.264 h -0.277 z m -3.796,0 h 0.018 0.015 0.016 0.017 0.016 0.717 c 0.192,0 0.33,0.158 0.294,0.362 l -0.18,0.923 h -0.44 l 0.099,-0.608 c 0.023,-0.14 -0.059,-0.248 -0.196,-0.248 -0.136,0 -0.272,0.108 -0.294,0.248 l -0.082,0.443 c -0.016,0.026 0.024,0.153 0.049,0.165 0.058,0.038 0.637,1 0.637,1.074 0.017,0.034 0.017,0.05 0.017,0.064 -0.023,0.12 -0.164,0.942 -0.164,0.942 -0.036,0.186 -0.218,0.344 -0.405,0.344 h -0.702 c -0.191,0 -0.314,-0.158 -0.278,-0.344 l 0.161,-0.942 h 0.475 l -0.115,0.676 c -0.022,0.139 0.064,0.266 0.198,0.266 0.135,0 0.263,-0.127 0.29,-0.266 l 0.1,-0.544 c -0.092,-0.228 -0.665,-1.057 -0.702,-1.253 -0.023,-0.023 -0.036,-0.14 -0.034,-0.229 0.005,-0.1 0.132,-0.711 0.132,-0.711 l 0.016,-0.016 v -0.016 -0.016 l 0.019,-0.033 v -0.018 l 0.014,-0.016 v -0.017 l 0.016,-0.016 v -0.015 l 0.016,-0.016 0.015,-0.017 v -0.019 h 0.017 l 0.018,-0.014 0.016,-0.017 0.017,-0.016 0.016,-0.016 0.016,-0.018 0.018,-0.015 h 0.015 l 0.015,-0.018 h 0.016 l 0.017,-0.016 h 0.017 0.034 z m -5.327,0 h 0.587 l 0.081,1.402 0.751,-1.402 h 0.586 l -1.206,2.142 -0.294,1.567 h -0.522 l 0.263,-1.682 z m -3.747,0 h 0.017 0.016 0.013 0.02 0.014 0.718 c 0.193,0 0.33,0.158 0.293,0.362 l -0.18,0.923 h -0.438 l 0.098,-0.608 c 0.022,-0.14 -0.06,-0.248 -0.197,-0.248 -0.136,0 -0.271,0.108 -0.294,0.248 l -0.08,0.443 c -0.014,0.026 0.025,0.153 0.046,0.165 0.063,0.038 0.639,1 0.639,1.074 0.012,0.034 0.02,0.05 0.014,0.064 -0.014,0.12 -0.179,0.942 -0.179,0.942 -0.034,0.186 -0.213,0.344 -0.407,0.344 h -0.681 c -0.194,0 -0.315,-0.158 -0.28,-0.344 l 0.165,-0.942 h 0.47 l -0.115,0.676 c -0.021,0.139 0.061,0.266 0.199,0.266 0.131,0 0.27,-0.127 0.292,-0.266 l 0.096,-0.544 c -0.086,-0.228 -0.664,-1.057 -0.7,-1.253 -0.024,-0.023 -0.036,-0.14 -0.033,-0.229 0.007,-0.1 0.132,-0.711 0.132,-0.711 h 0.014 v -0.016 -0.016 -0.016 l 0.019,-0.033 v -0.018 l 0.014,-0.016 v -0.017 l 0.019,-0.016 v -0.015 l 0.013,-0.016 0.02,-0.017 v -0.019 h 0.015 l 0.015,-0.014 0.017,-0.017 0.016,-0.016 v -0.016 h 0.019 l 0.013,-0.018 0.019,-0.015 h 0.015 l 0.017,-0.018 h 0.016 l 0.015,-0.016 h 0.018 0.032 z m -68.365,4.911 h 93.002 v -5.487 h -93.002 z m 33.106,-21.685 h 0.015 0.019 0.015 0.018 0.945 c 0.221,0 0.694,0.513 0.648,0.741 l -0.861,4.12 c -0.039,0.214 -0.569,0.722 -0.784,0.722 h -0.893 c -0.185,0 -0.315,-0.121 -0.327,-0.295 0,-0.028 -0.003,-0.067 0,-0.098 l 0.96,-5.059 0.018,-0.017 0.014,-0.015 0.034,-0.018 h 0.017 l 0.016,-0.015 0.014,-0.018 h 0.017 l 0.016,-0.016 h 0.018 l 0.033,-0.016 h 0.015 0.018 0.015 z m -12.985,0 h 1.009 c 0.225,0 0.693,0.513 0.651,0.741 l -0.861,4.136 c -0.042,0.212 -0.326,0.706 -0.536,0.706 h -1.222 -0.02 -0.013 l -0.019,-0.015 h -0.016 -0.017 -0.015 -0.016 v -0.018 h -0.017 -0.016 l -0.017,-0.015 h -0.015 l -0.017,-0.015 -0.017,-0.017 h -0.018 v -0.016 l -0.013,-0.017 -0.019,-0.017 V 22.38 l -0.013,-0.014 -0.017,-0.019 v -0.015 -0.016 l -0.017,-0.017 v -0.017 -0.016 l -0.017,-0.017 v -0.017 c 0,-0.028 -0.004,-0.067 0,-0.098 l 0.976,-5.059 c 0.09,-0.075 0.2,-0.131 0.312,-0.131 m 71.235,-0.068 h 0.063 c 0.614,0 1.019,0.501 0.912,1.119 l -1.956,10.961 c -0.105,0.621 -0.671,1.138 -1.285,1.138 -0.616,0 -0.872,-0.516 -0.767,-1.138 l 1.94,-10.961 0.015,-0.048 0.02,-0.047 0.013,-0.067 0.018,-0.049 0.014,-0.066 0.017,-0.048 0.015,-0.051 0.034,-0.049 0.017,-0.048 0.031,-0.053 0.018,-0.048 0.03,-0.049 0.035,-0.033 0.032,-0.05 0.033,-0.049 0.048,-0.033 0.034,-0.034 0.031,-0.031 0.049,-0.032 0.049,-0.035 0.032,-0.032 0.048,-0.033 0.051,-0.018 0.049,-0.032 0.033,-0.016 0.063,-0.017 0.05,-0.018 h 0.05 l 0.048,-0.014 h 0.066 z m -8.393,0 h 0.959 c 0.619,0 1.037,0.501 0.932,1.119 l -2.053,10.961 c -0.108,0.622 -0.706,1.138 -1.32,1.138 h -0.946 z m 7.169,-1.928 c -0.894,0 -1.748,0.743 -1.908,1.665 l -2.328,13.529 c -0.152,0.865 0.414,1.548 1.274,1.548 h 3.435 c 0.862,0 1.699,-0.683 1.857,-1.548 l 2.524,-13.529 c 0.174,-0.922 -0.409,-1.665 -1.3,-1.665 z m -8.944,0 -3.147,16.742 h 4.76 c 0.864,0 1.695,-0.683 1.857,-1.548 l 2.526,-13.529 c 0.17,-0.924 -0.411,-1.665 -1.304,-1.665 z m -8.295,0 -3.144,16.742 h 2.412 l 1.939,-9.703 0.766,9.703 h 2.086 l 3.144,-16.742 h -2.411 l -1.612,8.753 -1.079,-8.753 z m -5.294,0 -3.26,16.742 h 4.693 l 0.325,-2.074 h -2.312 l 0.96,-5.653 h 2.315 l 0.325,-1.746 h -2.313 l 1.011,-5.192 h 2.312 l 0.325,-2.077 z m -5.737,0 -0.389,2.077 h 1.302 l -2.575,14.665 h 2.38 l 2.623,-14.665 h 1.254 l 0.326,-2.077 z m -8.078,0 -3.146,16.742 h 2.411 l 1.937,-9.703 0.767,9.703 h 2.086 l 3.144,-16.742 h -2.411 l -1.612,8.753 -1.074,-8.753 z m -3.178,0 -3.143,16.742 h 2.081 l 3.147,-16.742 z m -8.279,0 -3.144,16.742 h 2.397 l 1.936,-9.703 0.766,9.703 h 2.088 l 3.143,-16.742 h -2.395 l -1.627,8.753 -1.076,-8.753 z m -11.161,0 -3.128,16.742 h 2.088 l 1.416,-7.577 h 1.483 c 0.195,0.182 0.216,0.522 0.246,0.691 0.037,0.246 0.078,0.561 0.048,0.806 -0.027,0.246 -1.141,6.08 -1.141,6.08 h 2.086 c 0,0 1.174,-6.356 1.174,-6.458 0.003,-0.104 0,-0.429 -0.115,-0.608 -0.077,-0.117 -0.207,-0.382 -0.36,-0.479 -0.289,-0.188 -0.617,-0.314 -0.617,-0.314 h -0.147 c 0.594,-0.238 1.721,-0.629 1.839,-1.27 l 1.141,-5.948 c 0.174,-0.924 -0.408,-1.665 -1.304,-1.665 z m -5.603,0 -3.26,16.742 h 4.694 l 0.327,-2.074 h -2.314 l 0.944,-5.653 h 2.313 l 0.324,-1.746 h -2.311 l 1.025,-5.192 h 2.315 l 0.325,-2.077 z m -7.446,0 -3.144,16.742 h 2.085 l 1.435,-7.577 h 2.656 c 0.862,0 1.682,-0.692 1.841,-1.552 l 1.14,-5.948 c 0.168,-0.924 -0.412,-1.665 -1.307,-1.665 h -2.621 z m -7.495,0 -2.606,15.194 c -0.152,0.865 0.427,1.548 1.287,1.548 h 3.11 c 0.862,0 1.699,-0.683 1.859,-1.548 l 2.786,-15.194 h -1.957 l -2.655,14.768 c -0.036,0.212 -0.245,0.395 -0.456,0.395 h -1.546 c -0.217,0 -0.361,-0.182 -0.328,-0.395 l 2.591,-14.768 z m -5.997,0 c -0.891,0 -1.762,0.743 -1.923,1.665 v 0.017 0.016 0.018 l -0.014,0.014 v 0.035 0.015 l -0.017,0.034 v 0.032 l -0.015,0.034 v 0.048 l -0.019,0.033 v 0.051 l -0.014,0.05 -0.018,0.048 -0.018,0.099 -0.03,0.116 -0.014,0.115 -0.035,0.115 -0.017,0.133 -0.033,0.13 -0.029,0.149 -0.035,0.133 -0.05,0.278 -0.031,0.148 -0.032,0.134 -0.017,0.131 -0.033,0.132 -0.034,0.132 -0.015,0.131 -0.013,0.116 -0.035,0.1 -0.018,0.114 v 0.048 l -0.014,0.035 v 0.046 0.034 l -0.019,0.053 v 0.031 0.032 l -0.015,0.034 v 0.017 0.016 c -0.016,0.403 0.037,0.954 0.163,1.056 0.158,0.884 3.083,4.993 2.998,5.62 -0.08,0.627 -0.423,2.47 -0.423,2.47 -0.105,0.622 -0.528,1.12 -1.143,1.12 -0.612,0 -1.031,-0.495 -0.927,-1.12 l 0.554,-3.063 h -2.183 l -0.734,4.249 c -0.149,0.865 0.429,1.548 1.29,1.548 h 3.109 c 0.863,0 1.683,-0.683 1.841,-1.548 0,0 0.804,-3.971 0.799,-4.249 -0.003,-0.285 -0.08,-0.316 -0.08,-0.316 0,-0.323 -2.604,-4.667 -2.869,-4.831 -0.114,-0.065 -0.207,-0.494 -0.213,-0.755 -0.004,-0.26 0.343,-1.996 0.343,-1.996 0.108,-0.618 0.69,-1.119 1.305,-1.119 0.615,0 0.871,0.501 0.764,1.119 l -0.471,2.751 h 2.2 l 0.767,-4.133 c 0.172,-0.922 -0.412,-1.665 -1.307,-1.665 z"
       bx:origin="0.5 0.5"
       clip-path="url(#clipPath16)"
       inkscape:connector-curvature="0" />
    <g
       transform="matrix(1.605718,0,0,-1.605718,113.09349,29.645523)"
       id="g104">
      <path
         id="path106"
         style="fill:#4c4c4c;fill-opacity:1;fill-rule:nonzero;stroke:none"
         d="m 0,0 c 0,-0.841 -1.525,-1.523 -3.407,-1.523 -1.882,0 -3.408,0.682 -3.408,1.523 0,0.841 1.526,1.523 3.408,1.523 C -1.525,1.523 0,0.841 0,0"
         inkscape:connector-curvature="0" />
    </g>
    <g
       transform="matrix(1.605718,0,0,-1.605718,122.88773,33.697067)"
       id="g108">
      <path
         id="path110"
         style="fill:#4c4c4c;fill-opacity:1;fill-rule:nonzero;stroke:none"
         d="m 0,0 c 0,-0.841 -1.525,-1.523 -3.407,-1.523 -1.882,0 -3.408,0.682 -3.408,1.523 0,0.841 1.526,1.523 3.408,1.523 C -1.525,1.523 0,0.841 0,0"
         inkscape:connector-curvature="0" />
    </g>
    <g
       transform="matrix(1.605718,0,0,-1.605718,123.54625,31.09185)"
       id="g112">
      <path
         id="path114"
         style="fill:#4c4c4c;fill-opacity:1;fill-rule:nonzero;stroke:none"
         d="M 0,0 C -0.41,1.706 -1.897,3.592 -3.817,2.772 -2.254,6.378 0.697,5.805 1.721,4.575 2.519,3.618 2.5,0.343 0,0"
         inkscape:connector-curvature="0" />
    </g>
    <g
       transform="matrix(1.605718,0,0,-1.605718,113.90374,26.6623)"
       id="g116">
      <path
         id="path118"
         style="fill:#4c4c4c;fill-opacity:1;fill-rule:nonzero;stroke:none"
         d="M 0,0 C -0.41,1.706 -1.897,3.591 -3.817,2.772 -2.254,6.378 0.697,5.805 1.721,4.575 2.519,3.618 2.5,0.343 0,0"
         inkscape:connector-curvature="0" />
    </g>
  </g>
</svg>
