<?xml version="1.0" encoding="UTF-8" standalone="no"?>
<!-- Generator: Adobe Illustrator 16.0.3, SVG Export Plug-In . SVG Version: 6.00 Build 0)  -->

<svg
   xmlns:dc="http://purl.org/dc/elements/1.1/"
   xmlns:cc="http://creativecommons.org/ns#"
   xmlns:rdf="http://www.w3.org/1999/02/22-rdf-syntax-ns#"
   xmlns:svg="http://www.w3.org/2000/svg"
   xmlns="http://www.w3.org/2000/svg"
   xmlns:sodipodi="http://sodipodi.sourceforge.net/DTD/sodipodi-0.dtd"
   xmlns:inkscape="http://www.inkscape.org/namespaces/inkscape"
   version="1.1"
   id="Ebene_1"
   x="0px"
   y="0px"
   width="566.92877"
   height="73.827751"
   viewBox="0 0 566.92876 73.827754"
   enable-background="new 0 0 566.929 98.437"
   xml:space="preserve"
   sodipodi:docname="logo.svg"
   inkscape:version="0.92.2 (5c3e80d, 2017-08-06)"><metadata
     id="metadata16"><rdf:RDF><cc:Work
         rdf:about=""><dc:format>image/svg+xml</dc:format><dc:type
           rdf:resource="http://purl.org/dc/dcmitype/StillImage" /><dc:title></dc:title></cc:Work></rdf:RDF></metadata><defs
     id="defs14" /><sodipodi:namedview
     pagecolor="#ffffff"
     bordercolor="#666666"
     borderopacity="1"
     objecttolerance="10"
     gridtolerance="10"
     guidetolerance="10"
     inkscape:pageopacity="0"
     inkscape:pageshadow="2"
     inkscape:window-width="1920"
     inkscape:window-height="1017"
     id="namedview12"
     showgrid="false"
     inkscape:zoom="1.7411722"
     inkscape:cx="303.38089"
     inkscape:cy="36.908638"
     inkscape:window-x="-8"
     inkscape:window-y="-8"
     inkscape:window-maximized="1"
     inkscape:current-layer="g9"
     fit-margin-top="0"
     fit-margin-left="0"
     fit-margin-right="0"
     fit-margin-bottom="0" /><g
     id="g9"
     transform="translate(5.6493463e-8,-24.60925)"><g
       id="g6"
       transform="matrix(1,0,0,0.75,0,24.60925)"><path
         id="path2842"
         d="M 59.308,59.926 C 59.31,68.114 46.035,74.753 29.656,74.753 13.279,74.755 0.001,68.117 0,59.928 0,59.927 0,59.927 0,59.926 -0.001,51.737 13.274,45.098 29.652,45.097 c 16.377,0 29.655,6.639 29.656,14.826 0,0.002 0,0.002 0,0.003 z"
         inkscape:connector-curvature="0"
         style="fill:#01954b" /><path
         id="path3624"
         d="m 110.379,83.357 c 0.002,8.188 -13.273,14.828 -29.651,14.828 -16.377,0 -29.655,-6.637 -29.657,-14.825 0,-0.002 0,-0.002 0,-0.003 -0.002,-8.188 13.273,-14.828 29.651,-14.829 16.379,0 29.655,6.637 29.657,14.826 0,0.002 0,0.002 0,0.003 z"
         inkscape:connector-curvature="0"
         style="fill:#f9ec2b" /><path
         id="path3644"
         d="m 60.398,0.252 c -14.947,0 -27.095,11.946 -27.449,26.822 0.621,-0.043 1.239,-0.069 1.871,-0.069 15.169,0 27.466,12.309 27.466,27.492 0,0.227 -0.011,0.446 -0.017,0.671 14.3,-0.96 25.595,-12.867 25.595,-27.424 0,-15.183 -12.297,-27.492 -27.466,-27.492 z"
         inkscape:connector-curvature="0"
         style="fill:#323b98" /><path
         id="path3897"
         d="m 112.393,24.334 c -15.165,0 -27.458,12.301 -27.458,27.474 0,0.338 0.005,0.68 0.017,1.013 0.367,-0.014 0.728,-0.032 1.098,-0.032 14.824,0 26.905,11.759 27.441,26.46 14.659,-0.572 26.359,-12.631 26.359,-27.44 0.001,-15.174 -12.292,-27.475 -27.457,-27.475 z"
         inkscape:connector-curvature="0"
         style="fill:#eb2d2f" /></g><path
       id="polyline2177"
       d="m 186.893,24.60925 c -3.758,0 -7.412,2.3175 -8.083,5.1885 v 0.05175 0.051 0.05175 l -0.068,0.051 v 0.1035 0.051 l -0.069,0.10275 v 0.1035 l -0.069,0.10275 v 0.1545 l -0.068,0.10275 v 0.1545 l -0.069,0.15375 -0.069,0.1545 -0.068,0.3075 -0.137,0.35925 -0.067,0.35925 -0.138,0.35925 -0.069,0.41025 -0.138,0.411 -0.136,0.462 -0.138,0.411 -0.205,0.87375 -0.138,0.46275 -0.137,0.41025 -0.067,0.411 -0.138,0.41025 -0.136,0.411 -0.069,0.411 -0.069,0.35925 -0.138,0.30825 -0.069,0.35925 v 0.1545 l -0.067,0.10275 v 0.1545 0.10275 l -0.068,0.1545 v 0.10275 0.10275 l -0.069,0.10275 v 0.05175 0.051 c -0.07,1.25625 0.163,2.97 0.685,3.28875 0.665,2.766 12.958,15.5685 12.604,17.5185 -0.332,1.9545 -1.781,7.707 -1.781,7.707 -0.446,1.93875 -2.21,3.49275 -4.794,3.49275 -2.586,0 -4.351,-1.54875 -3.905,-3.49275 l 2.329,-9.55575 h -9.179 l -3.083,13.2555 c -0.628,2.691 1.801,4.8285 5.411,4.8285 h 13.085 c 3.624,0 7.076,-2.1375 7.739,-4.8285 0,0 3.372,-12.381 3.356,-13.2555 -0.013,-0.8805 -0.341,-0.9765 -0.341,-0.9765 0,-1.0065 -10.939,-14.55 -12.056,-15.054 -0.481,-0.21075 -0.877,-1.55175 -0.892,-2.3625 -0.021,-0.8055 1.439,-6.21675 1.439,-6.21675 0.444,-1.93875 2.894,-3.4935 5.48,-3.4935 2.585,0 3.664,1.55475 3.219,3.4935 l -1.986,8.57925 h 9.247 l 3.22,-12.8955 c 0.729,-2.86875 -1.721,-5.18625 -5.479,-5.18625 z m 25.207,0 -10.959,47.37 c -0.628,2.691 1.802,4.8285 5.412,4.8285 h 13.084 c 3.624,0 7.138,-2.1375 7.809,-4.8285 l 11.712,-47.37 h -8.219 L 219.772,70.642 c -0.163,0.669 -1.028,1.23375 -1.917,1.23375 h -6.509 c -0.911,0 -1.519,-0.56025 -1.371,-1.23375 l 10.894,-46.03275 z m 31.511,0 L 230.39,76.807 h 8.768 l 6.029,-23.6325 h 11.166 c 3.632,0 7.074,-2.15325 7.739,-4.8285 l 4.795,-18.5475 c 0.724,-2.877 -1.72,-5.18925 -5.477,-5.18925 h -11.03 z m 31.306,0 -13.699,52.19775 h 19.727 l 1.37,-6.47325 h -9.727 l 3.974,-17.622 h 9.726 l 1.37,-5.44575 h -9.725 l 4.315,-16.1835 h 9.728 l 1.368,-6.47325 z m 23.564,0 L 285.33,76.807 h 8.768 l 5.96,-23.6325 h 6.235 c 0.818,0.57225 0.915,1.62825 1.024,2.15775 0.164,0.76875 0.334,1.74975 0.208,2.51775 -0.114,0.76275 -4.797,18.957 -4.797,18.957 h 8.769 c 0,0 4.933,-19.821 4.933,-20.139 0.014,-0.32325 0,-1.33875 -0.478,-1.9005 -0.322,-0.36 -0.873,-1.18725 -1.509,-1.4895 -1.223,-0.58875 -2.603,-0.97725 -2.603,-0.97725 h -0.62 c 2.512,-0.74175 7.24,-1.9635 7.744,-3.9555 l 4.794,-18.5475 c 0.728,-2.87625 -1.721,-5.1885 -5.479,-5.1885 z m 46.924,0 -13.222,52.19775 h 10.071 l 8.15,-30.2595 3.221,30.2595 h 8.769 l 13.22,-52.19775 h -10.069 l -6.851,27.28125 -4.521,-27.28125 z m 34.798,0 -13.22,52.19775 h 8.769 L 388.97,24.60925 Z m 13.356,0 L 380.34,76.807 h 10.139 l 8.151,-30.2595 3.22,30.2595 h 8.769 L 423.84,24.60925 H 413.701 L 406.92,51.8905 402.398,24.60925 Z m 33.979,0 -1.646,6.474 h 5.481 L 420.549,76.807 h 10.003 L 441.58,31.08325 h 5.274 l 1.371,-6.474 z m 24.111,0 -13.698,52.19775 h 19.726 l 1.371,-6.47325 h -9.726 l 4.042,-17.622 h 9.725 L 464.46,47.266 h -9.726 l 4.245,-16.1835 h 9.728 l 1.37,-6.47325 z m 22.264,0 -13.22,52.19775 h 10.137 l 8.153,-30.2595 3.219,30.2595 h 8.768 l 13.223,-52.19775 h -10.139 l -6.782,27.28125 -4.523,-27.28125 z m 34.869,0 -13.223,52.19775 h 20.003 c 3.633,0 7.137,-2.1375 7.81,-4.8285 l 10.616,-42.18075 c 0.721,-2.87625 -1.72,-5.1885 -5.478,-5.1885 z m 37.606,0 c -3.76,0 -7.344,2.3175 -8.015,5.1885 l -9.798,42.18075 c -0.635,2.691 1.74,4.8285 5.347,4.8285 h 14.452 c 3.624,0 7.138,-2.1375 7.812,-4.8285 l 10.615,-42.18075 c 0.728,-2.871 -1.729,-5.1885 -5.479,-5.1885 z m -30.14,6.01125 h 4.042 c 2.585,0 4.349,1.55475 3.903,3.4935 l -8.631,34.1655 c -0.451,1.93875 -2.962,3.54525 -5.548,3.54525 h -3.973 z m 35.277,0 h 0.275 c 2.585,0 4.281,1.55475 3.834,3.4935 l -8.217,34.1655 c -0.448,1.93275 -2.829,3.54525 -5.412,3.54525 -2.587,0 -3.666,-1.6065 -3.223,-3.54525 l 8.153,-34.1655 0.067,-0.1545 0.07,-0.1545 0.067,-0.2055 0.068,-0.1545 0.07,-0.2055 0.067,-0.1545 0.07,-0.1545 0.134,-0.15375 0.069,-0.1545 0.138,-0.1545 0.068,-0.15375 0.138,-0.1545 0.138,-0.10275 0.135,-0.15375 0.138,-0.1545 0.205,-0.10275 0.138,-0.1035 0.137,-0.10275 0.205,-0.10275 0.206,-0.10275 0.138,-0.10275 0.204,-0.1035 0.206,-0.051 0.207,-0.10275 0.137,-0.05175 0.273,-0.05175 0.205,-0.051 h 0.204 l 0.206,-0.05175 h 0.275 z M 252.036,30.826 h 4.248 c 0.933,0 2.911,1.602 2.741,2.31225 l -3.632,12.8955 c -0.169,0.6675 -1.37,2.20875 -2.258,2.20875 h -5.14 -0.068 -0.068 l -0.069,-0.051 h -0.067 -0.069 -0.069 -0.069 v -0.05175 h -0.069 -0.068 l -0.07,-0.051 h -0.068 l -0.068,-0.05175 -0.068,-0.051 h -0.068 v -0.05175 l -0.069,-0.051 -0.069,-0.05175 v -0.05175 l -0.068,-0.051 -0.07,-0.05175 v -0.051 -0.05175 l -0.068,-0.051 v -0.05175 -0.051 l -0.07,-0.05175 v -0.051 c 0,-0.0855 -0.012,-0.21375 0,-0.309 l 4.111,-15.7725 c 0.377,-0.23175 0.837,-0.41025 1.302,-0.41025 z m 54.595,0 h 0.07 0.068 0.069 0.068 3.974 c 0.933,0 2.923,1.602 2.738,2.31225 L 309.986,45.982 c -0.159,0.67275 -2.389,2.2605 -3.286,2.2605 h -3.768 c -0.777,0 -1.314,-0.38325 -1.369,-0.92325 0,-0.0855 -0.016,-0.2085 0,-0.309 l 4.042,-15.7725 0.067,-0.05175 0.07,-0.051 0.134,-0.05175 h 0.068 l 0.069,-0.05175 0.068,-0.051 h 0.069 l 0.068,-0.05175 h 0.07 l 0.136,-0.051 h 0.067 0.068 0.067 V 30.826 Z M 167.438,81.32875 V 98.437 H 558.443 V 81.32875 Z m 287.434,1.79775 h 0.066 0.067 0.07 0.067 0.068 3.017 c 0.811,0 1.395,0.48825 1.232,1.13025 l -0.755,2.8785 h -1.848 l 0.409,-1.90125 c 0.094,-0.42975 -0.244,-0.77175 -0.823,-0.77175 -0.571,0 -1.135,0.3405 -1.232,0.77175 l -0.34,1.3875 c -0.058,0.0825 0.114,0.47175 0.204,0.5145 0.254,0.1095 2.671,3.11475 2.671,3.33825 0.058,0.11175 0.09,0.165 0.067,0.20625 -0.069,0.37575 -0.753,2.92725 -0.753,2.92725 -0.147,0.58575 -0.907,1.0785 -1.712,1.0785 h -2.877 c -0.799,0 -1.313,-0.49275 -1.165,-1.0785 l 0.686,-2.92725 h 1.988 l -0.479,2.10675 c -0.092,0.42825 0.239,0.82125 0.818,0.82125 0.554,0 1.144,-0.39 1.237,-0.82125 l 0.409,-1.69575 c -0.367,-0.70875 -2.791,-3.291 -2.946,-3.90525 -0.106,-0.069 -0.152,-0.44025 -0.136,-0.71925 0.021,-0.30525 0.547,-2.2095 0.547,-2.2095 h 0.07 v -0.051 -0.05025 -0.051 l 0.067,-0.1035 V 83.9515 l 0.066,-0.0525 v -0.051 l 0.069,-0.05025 v -0.051 l 0.068,-0.05025 0.07,-0.0525 v -0.05025 h 0.067 l 0.07,-0.051 0.067,-0.0525 0.068,-0.05025 v -0.0525 h 0.069 l 0.066,-0.05025 0.067,-0.051 h 0.07 l 0.068,-0.05025 h 0.069 l 0.068,-0.051 h 0.067 0.138 z m 15.753,0 h 2.467 l 0.342,4.368 3.15,-4.368 h 2.468 l -5.07,6.6795 -1.233,4.88025 h -2.191 l 1.097,-5.241 z m 22.401,0 h 0.067 0.07 0.067 0.07 0.067 3.013 c 0.812,0 1.381,0.48825 1.233,1.13025 l -0.754,2.8785 h -1.85 l 0.413,-1.90125 c 0.091,-0.42975 -0.243,-0.77175 -0.822,-0.77175 -0.574,0 -1.144,0.3405 -1.233,0.77175 l -0.343,1.3875 c -0.072,0.0825 0.092,0.47175 0.205,0.5145 0.242,0.1095 2.671,3.11475 2.671,3.33825 0.072,0.11175 0.07,0.165 0.07,0.20625 -0.094,0.37575 -0.686,2.92725 -0.686,2.92725 -0.147,0.58575 -0.915,1.0785 -1.714,1.0785 h -2.944 c -0.798,0 -1.314,-0.49275 -1.167,-1.0785 l 0.686,-2.92725 h 1.987 l -0.479,2.10675 c -0.092,0.42825 0.264,0.82125 0.823,0.82125 0.571,0 1.119,-0.39 1.232,-0.82125 l 0.41,-1.69575 c -0.374,-0.70875 -2.787,-3.291 -2.945,-3.90525 -0.105,-0.069 -0.149,-0.44025 -0.136,-0.71925 0.021,-0.30525 0.548,-2.2095 0.548,-2.2095 l 0.067,-0.051 v -0.05025 -0.051 l 0.068,-0.1035 V 83.9515 l 0.069,-0.0525 v -0.051 l 0.068,-0.05025 v -0.051 l 0.069,-0.05025 0.068,-0.0525 v -0.05025 h 0.07 l 0.065,-0.051 0.068,-0.0525 0.069,-0.05025 0.068,-0.0525 0.067,-0.05025 0.07,-0.051 h 0.068 l 0.069,-0.05025 h 0.068 l 0.067,-0.051 h 0.068 0.136 z m 15.96,0 h 4.591 l -0.344,1.38825 h -1.165 L 509.672,94.687 h -2.26 l 2.396,-10.17225 h -1.163 z m 17.948,0 h 4.109 l -0.344,1.38825 h -2.124 l -0.956,3.648 h 2.191 l -0.344,1.1805 h -2.124 l -0.889,3.9045 h 2.121 l -0.271,1.4385 h -4.385 z m 16.919,0 h 2.535 l 0.409,6.6795 3.906,-6.627 2.465,-0.0525 -2.601,11.55975 h -1.918 l 1.232,-6.1125 -3.426,6.1125 h -1.371 l -0.409,-6.2685 -1.508,6.2685 h -2.262 z M 175.932,83.539 h 4.042 l -0.275,1.437 h -2.191 l -0.89,3.59775 h 2.124 l -0.275,1.233 h -2.192 l -0.821,3.90525 h 2.123 l -0.343,1.43775 h -4.384 z m 18.906,0 h 1.918 l 1.027,6.06225 1.506,-6.06225 h 2.262 l -2.947,11.61 h -1.917 l -0.754,-6.732 -1.78,6.732 h -2.262 z m 20.551,0 h 4.521 l -0.273,1.437 h -1.165 l -2.466,10.173 h -2.19 l 2.396,-10.173 h -1.233 z m 19.934,0 h 4.11 l -0.343,1.437 h -2.124 l -0.959,3.59775 h 2.124 l -0.274,1.233 h -2.123 l -0.89,3.90525 h 2.123 l -0.273,1.43775 h -4.384 z m 19.318,0 h 4.383 c 0.813,0 1.327,0.53925 1.165,1.1805 l -1.027,4.11 c -0.114,0.44475 -1.157,0.8085 -1.714,0.9765 h 0.138 0.068 0.07 v 0.051 h 0.068 0.07 0.066 0.07 l 0.068,0.05025 h 0.068 0.068 0.07 v 0.051 h 0.068 0.07 v 0.0525 h 0.068 c 0.092,0.12375 0.136,0.49425 0.136,0.56475 0,0.069 -1.097,4.57275 -1.097,4.57275 h -1.986 c 0,0 1.061,-4.0455 1.097,-4.21275 0.022,-0.18 -0.026,-0.39675 -0.068,-0.56475 -0.016,-0.1245 -0.024,-0.3375 -0.206,-0.4635 h -1.371 l -1.301,5.241 h -1.987 z m 19.59,0 h 4.589 l -0.273,1.437 h -1.163 l -2.467,10.173 h -2.192 l 2.397,-10.173 h -1.232 z m 22.811,0 h 2.604 l -0.822,11.61 h -2.604 l 0.342,-2.67225 h -1.574 l -1.303,2.67225 h -2.327 z m 18.224,0 h 1.986 l -2.947,11.61 h -1.918 z m 17.671,0 h 1.92 l 1.026,6.06225 1.509,-6.06225 h 2.191 l -2.877,11.61 h -1.986 l -0.685,-6.732 -1.784,6.732 h -2.258 z m 22.675,0 h 2.535 l 0.409,6.7305 3.908,-6.67875 h 2.463 l -2.602,11.559 h -1.917 l 1.232,-6.114 -3.427,6.114 h -1.37 l -0.409,-6.267 -1.507,6.267 h -2.193 z m 24.866,0 h 4.042 l -0.276,1.437 h -2.191 l -0.889,3.59775 h 2.123 l -0.275,1.233 h -2.191 l -0.89,3.90525 h 2.19 l -0.342,1.43775 h -4.315 z m 19.864,0 h 1.918 l 1.028,6.06225 1.507,-6.06225 h 2.191 l -2.875,11.61 h -1.918 l -0.755,-6.732 -1.782,6.732 h -2.26 z m 20.346,0 h 4.589 l -0.342,1.437 h -1.163 l -2.399,10.173 h -2.193 l 2.399,-10.173 h -1.232 z m -164.197,1.38525 c -0.108,0 -0.198,0.048 -0.276,0.1035 l -0.89,3.49275 c 0,0.0285 0,0.024 0,0.0525 0,0.11175 0.104,0.20475 0.274,0.20475 h 0.821 c 0.204,0 0.717,-0.30825 0.755,-0.46275 l 0.751,-2.877 c 0.036,-0.165 -0.342,-0.5145 -0.547,-0.5145 h -0.888 z m 40.551,3.4935 -1.437,2.92875 h 1.095 z"
       style="fill:#eb2d2f;fill-opacity:1;stroke-width:0.86602539"
       inkscape:connector-curvature="0" /></g></svg>