<?xml version="1.0" encoding="UTF-8" standalone="no"?>
<!-- Generator: Adobe Illustrator 13.0.0, SVG Export Plug-In . SVG Version: 6.00 Build 14948)  -->

<svg
   xmlns:ns="&amp;#38;ns_sfw;"
   xmlns:dc="http://purl.org/dc/elements/1.1/"
   xmlns:cc="http://creativecommons.org/ns#"
   xmlns:rdf="http://www.w3.org/1999/02/22-rdf-syntax-ns#"
   xmlns:svg="http://www.w3.org/2000/svg"
   xmlns="http://www.w3.org/2000/svg"
   xmlns:sodipodi="http://sodipodi.sourceforge.net/DTD/sodipodi-0.dtd"
   xmlns:inkscape="http://www.inkscape.org/namespaces/inkscape"
   version="1.2"
   id="Layer_3"
   x="0px"
   y="0px"
   width="560.16101"
   height="175.09351"
   viewBox="0 0 560.16099 175.0935"
   xml:space="preserve"
   inkscape:version="0.92.2 (5c3e80d, 2017-08-06)"
   sodipodi:docname="controller.svg"><defs
     id="defs66" /><sodipodi:namedview
     pagecolor="#ffffff"
     bordercolor="#666666"
     borderopacity="1"
     objecttolerance="10"
     gridtolerance="10"
     guidetolerance="10"
     inkscape:pageopacity="0"
     inkscape:pageshadow="2"
     inkscape:window-width="1920"
     inkscape:window-height="1017"
     id="namedview64"
     showgrid="false"
     fit-margin-top="0"
     fit-margin-left="0"
     fit-margin-right="0"
     fit-margin-bottom="0"
     inkscape:zoom="0.48145317"
     inkscape:cx="280.78151"
     inkscape:cy="116.11601"
     inkscape:window-x="-8"
     inkscape:window-y="-8"
     inkscape:window-maximized="1"
     inkscape:current-layer="Layer_3" /><metadata
     id="metadata55"><rdf:RDF><cc:Work
         rdf:about=""><dc:format>image/svg+xml</dc:format><dc:type
           rdf:resource="http://purl.org/dc/dcmitype/StillImage" /><dc:title></dc:title></cc:Work></rdf:RDF><ns:sfw><ns:slices /><ns:sliceSourceBounds
         x="679.719"
         y="423.384"
         width="560.161"
         height="233.458"
         bottomLeftOrigin="true" /></ns:sfw></metadata><path
     d="M 0,108.61875 C 0.002,71.907 39.68,42.1455 88.631,42.144 v 0 0.6885 0.68925 c -23.97,0 -45.663,7.28625 -61.372,19.06575 v 0 c -15.707,11.784 -25.42,28.053 -25.42,46.03125 v 0 c 0,17.97675 9.714,34.24725 25.421,46.02825 v 0 c 15.709,11.781 37.402,19.0665 61.373,19.0665 v 0 c 23.97,0 45.662,-7.2855 61.372,-19.0665 v 0 c 15.708,-11.781 25.42,-28.0515 25.422,-46.02825 v 0 C 175.425,90.6405 165.713,74.3715 150.005,62.58825 v 0 C 134.295,50.80875 112.603,43.5225 88.633,43.5225 v 0 -0.68925 -0.6885 c 48.95,7.5e-4 88.631,29.763 88.631,66.47475 v 0 c 0,36.711 -39.682,66.4725 -88.631,66.474 v 0 C 39.681,175.09125 0.002,145.3305 0,108.61875 Z"
     id="path4"
     inkscape:connector-curvature="0"
     style="fill:#f4f4f4;stroke-width:0.86602539" /><path
     d="m 51.247,108.618 c 0,-15.48525 16.737,-28.038 37.385,-28.038 v 0 0.68925 0.68925 c -9.818,0 -18.699,2.9835 -25.136,7.80825 v 0 c -6.435,4.82625 -10.412,11.4855 -10.412,18.852 v 0 c 0,7.3635 3.977,14.02575 10.412,18.852 v 0 c 6.437,4.827 15.316,7.809 25.136,7.809 v 0 c 9.822,0 18.702,-2.98275 25.137,-7.809 v 0 c 6.436,-4.82625 10.411,-11.48775 10.413,-18.852 v 0 C 124.18,101.253 120.205,94.593 113.769,89.76675 v 0 C 107.333,84.94125 98.454,81.9585 88.632,81.9585 v 0 V 81.26925 80.58 c 20.648,0 37.385,12.552 37.388,28.038 v 0 c -0.002,15.48525 -16.74,28.0395 -37.388,28.0395 v 0 c -20.648,0 -37.385,-12.5535 -37.385,-28.0395 z"
     id="path6"
     inkscape:connector-curvature="0"
     style="fill:#f4f4f4;stroke-width:0.86602539" /><polygon
     points="101.843,161.286 106.946,141.912 112.049,161.286 "
     id="polygon8"
     style="fill:#f4f4f4"
     transform="matrix(1,0,0,0.75,-18.313,-43.341)" /><polygon
     points="74.114,176.999 64.024,159.691 81.332,169.782 "
     id="polygon10"
     style="fill:#f4f4f4"
     transform="matrix(1,0,0,0.75,-18.313,-43.341)" /><polygon
     points="65.618,207.717 46.245,202.613 65.618,197.51 "
     id="polygon12"
     style="fill:#f4f4f4"
     transform="matrix(1,0,0,0.75,-18.313,-43.341)" /><polygon
     points="81.332,235.444 64.024,245.536 74.114,228.228 "
     id="polygon14"
     style="fill:#f4f4f4"
     transform="matrix(1,0,0,0.75,-18.313,-43.341)" /><polygon
     points="112.049,243.94 106.946,263.313 101.843,243.94 "
     id="polygon16"
     style="fill:#f4f4f4"
     transform="matrix(1,0,0,0.75,-18.313,-43.341)" /><polygon
     points="139.777,228.228 149.868,245.536 132.56,235.444 "
     id="polygon18"
     style="fill:#f4f4f4"
     transform="matrix(1,0,0,0.75,-18.313,-43.341)" /><polygon
     points="148.275,197.51 167.647,202.613 148.275,207.717 "
     id="polygon20"
     style="fill:#f4f4f4"
     transform="matrix(1,0,0,0.75,-18.313,-43.341)" /><polygon
     points="132.56,169.782 149.868,159.691 139.777,176.999 "
     id="polygon22"
     style="fill:#f4f4f4"
     transform="matrix(1,0,0,0.75,-18.313,-43.341)" /><g
     id="g24"
     transform="matrix(1,0,0,0.75,-18.313,-43.341)"><path
       d="m 265.771,171.37 c 0.002,-18.104 14.677,-32.779 32.782,-32.781 v 0 0.92 0.918 c -17.09,0.03 -30.913,13.854 -30.944,30.943 v 0 c 0.031,17.086 13.854,30.91 30.944,30.94 v 0 c 17.087,-0.03 30.911,-13.854 30.941,-30.94 v 0 c -0.03,-17.089 -13.854,-30.913 -30.941,-30.943 v 0 -0.918 -0.92 c 18.102,0.002 32.78,14.676 32.78,32.781 v 0 c 0,18.101 -14.678,32.778 -32.78,32.779 v 0 c -18.104,-0.002 -32.78,-14.678 -32.782,-32.779 z"
       id="path26"
       inkscape:connector-curvature="0"
       style="fill:#f4f4f4" /><path
       d="m 276.264,171.37 c 0,-12.309 9.979,-22.287 22.288,-22.287 v 0 0.919 0.918 c -11.294,0.021 -20.43,9.156 -20.45,20.45 v 0 c 0.02,11.293 9.156,20.428 20.45,20.448 v 0 c 11.292,-0.02 20.428,-9.154 20.448,-20.448 v 0 c -0.021,-11.293 -9.156,-20.429 -20.448,-20.45 v 0 -0.918 -0.919 c 12.308,0 22.285,9.979 22.287,22.287 v 0 c -0.002,12.306 -9.979,22.286 -22.287,22.288 v 0 c -12.309,-0.003 -22.288,-9.981 -22.288,-22.288 z"
       id="path28"
       inkscape:connector-curvature="0"
       style="fill:#f4f4f4" /></g><g
     id="g30"
     transform="matrix(1,0,0,0.75,-18.313,-43.341)"><path
       d="m 348.942,162.179 c 0.002,-18.104 14.678,-32.778 32.78,-32.779 v 0 0.92 0.919 c -17.09,0.03 -30.911,13.854 -30.94,30.94 v 0 c 0.029,17.089 13.851,30.911 30.94,30.94 v 0 c 17.088,-0.029 30.909,-13.851 30.94,-30.94 v 0 c -0.031,-17.088 -13.853,-30.91 -30.94,-30.94 v 0 -0.919 -0.92 c 18.103,0.001 32.778,14.675 32.779,32.779 v 0 c -10e-4,18.103 -14.677,32.779 -32.779,32.779 v 0 c -18.102,0 -32.778,-14.676 -32.78,-32.779 z"
       id="path32"
       inkscape:connector-curvature="0"
       style="fill:#f4f4f4" /><path
       d="m 359.436,162.179 c 0,-12.309 9.977,-22.287 22.287,-22.287 v 0 0.92 0.918 c -11.295,0.021 -20.429,9.155 -20.449,20.449 v 0 c 0.021,11.293 9.154,20.427 20.449,20.448 v 0 c 11.293,-0.021 20.429,-9.155 20.448,-20.448 v 0 c -0.02,-11.293 -9.155,-20.428 -20.448,-20.449 v 0 -0.918 -0.92 c 12.307,0 22.285,9.978 22.287,22.287 v 0 c -0.002,12.308 -9.98,22.286 -22.287,22.286 v 0 c -12.31,0.001 -22.287,-9.976 -22.287,-22.286 z"
       id="path34"
       inkscape:connector-curvature="0"
       style="fill:#f4f4f4" /></g><g
     id="g36"
     transform="matrix(1,0,0,0.75,-18.313,-43.341)"><path
       d="m 432.112,152.99 c 0.002,-18.105 14.676,-32.779 32.78,-32.779 v 0 0.918 0.919 c -17.09,0.03 -30.911,13.853 -30.94,30.941 v 0 c 0.029,17.088 13.851,30.91 30.94,30.94 v 0 c 17.087,-0.03 30.91,-13.853 30.941,-30.94 v 0 c -0.031,-17.088 -13.854,-30.912 -30.941,-30.941 v 0 -0.919 -0.918 c 18.1,0 32.778,14.674 32.78,32.779 v 0 c -0.002,18.104 -14.681,32.777 -32.78,32.779 v 0 c -18.104,-0.002 -32.778,-14.676 -32.78,-32.779 z"
       id="path38"
       inkscape:connector-curvature="0"
       style="fill:#f4f4f4" /><path
       d="m 442.604,152.99 c 0.002,-12.31 9.978,-22.286 22.288,-22.288 v 0 0.919 0.92 c -11.294,0.02 -20.43,9.154 -20.448,20.448 v 0 c 0.019,11.293 9.154,20.428 20.448,20.448 v 0 c 11.295,-0.02 20.43,-9.155 20.45,-20.448 v 0 c -0.02,-11.294 -9.155,-20.428 -20.45,-20.448 v 0 -0.92 -0.919 c 12.31,0.002 22.287,9.979 22.287,22.288 v 0 c 0,12.311 -9.978,22.287 -22.287,22.287 v 0 c -12.31,-10e-4 -22.287,-9.978 -22.288,-22.287 z"
       id="path40"
       inkscape:connector-curvature="0"
       style="fill:#f4f4f4" /></g><g
     id="g42"
     transform="matrix(1,0,0,0.75,-18.313,-43.341)"><path
       d="m 512.916,90.567 c 0,-18.104 14.676,-32.779 32.78,-32.779 v 0 0.919 0.918 c -17.09,0.032 -30.91,13.853 -30.942,30.942 v 0 c 0.032,17.088 13.853,30.91 30.942,30.94 v 0 c 17.088,-0.031 30.908,-13.852 30.939,-30.94 v 0 C 576.604,73.478 562.783,59.657 545.696,59.625 v 0 -0.918 -0.919 c 18.103,0 32.778,14.675 32.778,32.779 v 0 c 0,18.104 -14.676,32.779 -32.778,32.779 v 0 c -18.104,0 -32.78,-14.675 -32.78,-32.779 z"
       id="path44"
       inkscape:connector-curvature="0"
       style="fill:#f4f4f4" /><path
       d="m 523.407,90.567 c 0.002,-12.31 9.979,-22.288 22.289,-22.288 v 0 0.918 0.919 c -11.295,0.021 -20.428,9.155 -20.449,20.449 v 0 c 0.02,11.293 9.154,20.428 20.449,20.449 v 0 c 11.295,-0.021 20.428,-9.157 20.448,-20.449 v 0 C 566.123,79.271 556.991,70.136 545.696,70.116 v 0 -0.919 -0.917 c 12.31,0 22.286,9.978 22.287,22.288 v 0 c -10e-4,12.308 -9.978,22.287 -22.287,22.287 v 0 c -12.31,-0.001 -22.287,-9.98 -22.289,-22.288 z"
       id="path46"
       inkscape:connector-curvature="0"
       style="fill:#f4f4f4" /></g><g
     id="g48"
     transform="matrix(1,0,0,0.75,-18.313,-43.341)"><path
       d="m 265.771,253.005 c 0,-18.104 14.676,-32.781 32.781,-32.781 v 0 0.921 0.919 c -17.09,0.031 -30.913,13.852 -30.944,30.941 v 0 c 0.031,17.088 13.854,30.91 30.944,30.942 v 0 c 17.087,-0.032 30.91,-13.854 30.941,-30.942 v 0 c -0.031,-17.09 -13.854,-30.91 -30.941,-30.941 v 0 -0.919 -0.921 c 18.104,0 32.78,14.677 32.781,32.781 v 0 c -0.001,18.104 -14.678,32.778 -32.781,32.78 v 0 c -18.103,-0.002 -32.781,-14.677 -32.781,-32.78 z"
       id="path50"
       inkscape:connector-curvature="0"
       style="fill:#f4f4f4" /><path
       d="m 276.265,253.006 c 0,-12.31 9.977,-22.287 22.288,-22.289 v 0 0.92 0.919 c -11.296,0.021 -20.43,9.154 -20.449,20.45 v 0 c 0.019,11.294 9.154,20.429 20.449,20.45 v 0 c 11.292,-0.021 20.428,-9.156 20.449,-20.45 v 0 c -0.021,-11.296 -9.157,-20.429 -20.449,-20.45 v 0 -0.919 -0.92 c 12.307,0.002 22.285,9.979 22.287,22.289 v 0 c -0.003,12.31 -9.979,22.286 -22.287,22.288 v 0 c -12.311,-0.002 -22.288,-9.979 -22.288,-22.288 z"
       id="path52"
       inkscape:connector-curvature="0"
       style="fill:#f4f4f4" /></g><g
     id="g54"
     transform="matrix(1,0,0,0.75,-18.313,-43.341)"><path
       d="m 348.942,243.816 c 0.002,-18.104 14.678,-32.781 32.78,-32.781 v 0 0.921 0.918 c -17.09,0.029 -30.911,13.854 -30.94,30.942 v 0 c 0.029,17.087 13.851,30.909 30.94,30.938 v 0 c 17.088,-0.029 30.909,-13.852 30.94,-30.938 v 0 c -0.031,-17.089 -13.853,-30.913 -30.94,-30.942 v 0 -0.918 -0.921 c 18.103,0 32.778,14.677 32.779,32.781 v 0 c -10e-4,18.103 -14.677,32.779 -32.779,32.779 v 0 c -18.102,10e-4 -32.778,-14.676 -32.78,-32.779 z"
       id="path56"
       inkscape:connector-curvature="0"
       style="fill:#f4f4f4" /><path
       d="m 359.436,243.816 c 0,-12.31 9.977,-22.287 22.287,-22.287 v 0 0.919 0.92 c -11.295,0.019 -20.429,9.153 -20.449,20.448 v 0 c 0.021,11.292 9.154,20.428 20.449,20.447 v 0 c 11.293,-0.02 20.429,-9.155 20.448,-20.447 v 0 c -0.02,-11.295 -9.155,-20.43 -20.448,-20.448 v 0 -0.92 -0.919 c 12.307,0 22.285,9.978 22.287,22.287 v 0 c -0.002,12.309 -9.98,22.283 -22.287,22.286 v 0 c -12.31,-0.002 -22.287,-9.977 -22.287,-22.286 z"
       id="path58"
       inkscape:connector-curvature="0"
       style="fill:#f4f4f4" /></g><path
     d="m 413.799,132.6285 c 0.002,-13.578 14.676,-24.58425 32.78,-24.58575 v 0 0.69 0.68925 c -17.09,0.0233 -30.911,10.38975 -30.94,23.2065 v 0 c 0.029,12.816 13.851,23.1825 30.94,23.205 v 0 c 17.087,-0.0225 30.91,-10.38975 30.941,-23.205 v 0 C 477.489,119.811 463.666,109.44525 446.579,109.422 v 0 -0.68925 -0.69 c 18.1,0.001 32.778,11.00775 32.78,24.58575 v 0 c -0.002,13.578 -14.681,24.58275 -32.78,24.58575 v 0 c -18.104,-0.003 -32.778,-11.0085 -32.78,-24.58575 z"
     id="path60"
     inkscape:connector-curvature="0"
     style="fill:#f4f4f4;stroke-width:0.86602539" /><path
     d="m 424.291,132.6285 c 0.002,-9.2325 9.978,-16.716 22.288,-16.716 v 0 0.68925 0.69 c -11.294,0.015 -20.43,6.8655 -20.448,15.33675 v 0 c 0.019,8.46975 9.154,15.32175 20.448,15.33525 v 0 c 11.295,-0.015 20.43,-6.8655 20.45,-15.33525 v 0 c -0.02,-8.47125 -9.155,-15.32175 -20.45,-15.33675 v 0 -0.69 -0.68925 c 12.31,0 22.287,7.48425 22.287,16.716 v 0 c 0,9.23175 -9.978,16.7145 -22.287,16.7145 v 0 c -12.31,0 -22.287,-7.48275 -22.288,-16.7145 z"
     id="path62"
     inkscape:connector-curvature="0"
     style="fill:#f4f4f4;stroke-width:0.86602539" /></svg>