<?xml version="1.0" encoding="UTF-8" standalone="no"?>
<!-- Created with Inkscape (http://www.inkscape.org/) -->

<svg
   xmlns:dc="http://purl.org/dc/elements/1.1/"
   xmlns:cc="http://creativecommons.org/ns#"
   xmlns:rdf="http://www.w3.org/1999/02/22-rdf-syntax-ns#"
   xmlns:svg="http://www.w3.org/2000/svg"
   xmlns="http://www.w3.org/2000/svg"
   xmlns:sodipodi="http://sodipodi.sourceforge.net/DTD/sodipodi-0.dtd"
   xmlns:inkscape="http://www.inkscape.org/namespaces/inkscape"
   version="1.2"
   width="512.34375"
   height="413.53125"
   viewBox="0 0 512.34375 413.53124"
   id="Layer_3"
   xml:space="preserve"
   inkscape:version="0.91 r13725"
   sodipodi:docname="controller2.svg"><sodipodi:namedview
     pagecolor="#ffffff"
     bordercolor="#666666"
     borderopacity="1"
     objecttolerance="10"
     gridtolerance="10"
     guidetolerance="10"
     inkscape:pageopacity="0"
     inkscape:pageshadow="2"
     inkscape:window-width="1556"
     inkscape:window-height="792"
     id="namedview8"
     showgrid="false"
     fit-margin-top="0"
     fit-margin-left="0"
     fit-margin-right="0"
     fit-margin-bottom="0"
     inkscape:zoom="1.1242452"
     inkscape:cx="360.85692"
     inkscape:cy="213.12554"
     inkscape:window-x="0"
     inkscape:window-y="0"
     inkscape:window-maximized="0"
     inkscape:current-layer="Layer_3" /><metadata
     id="metadata13"><rdf:RDF><cc:Work
         rdf:about=""><dc:format>image/svg+xml</dc:format><dc:type
           rdf:resource="http://purl.org/dc/dcmitype/StillImage" /><dc:title></dc:title></cc:Work></rdf:RDF></metadata><defs
     id="defs11" /><path
     d="m 0,0 0,1 0,52.34375 0,0.75 0.6875,0.21875 348.125,110.84375 0.15625,0.0625 0.15625,0 162.21875,0 1,0 0,-1 0,-65.65625 C 512.34375,44.112443 465.72569,0 408.28125,0 L 1,0 0,0 Z m 2,2 406.28125,0 c 56.42156,0 102.0625,43.254557 102.0625,96.5625 l 0,64.65625 -161.03125,0 L 2,52.625 2,2 Z"
     id="path3"
     style="color:#000000;font-style:normal;font-variant:normal;font-weight:normal;font-stretch:normal;font-size:medium;line-height:normal;font-family:Sans;-inkscape-font-specification:Sans;text-indent:0;text-align:start;text-decoration:none;text-decoration-line:none;letter-spacing:normal;word-spacing:normal;text-transform:none;direction:ltr;block-progression:tb;writing-mode:lr-tb;baseline-shift:baseline;text-anchor:start;display:inline;overflow:visible;visibility:visible;fill:#f4f4f4;fill-opacity:1;stroke:none;stroke-width:2;marker:none;enable-background:accumulate"
     inkscape:connector-curvature="0" /><path
     d="m 324.6875,175.84375 0,1 0,103.5 0,1 1,0 185.375,0 1,0 0,-1 0,-103.5 0,-1 -1,0 -185.375,0 -1,0 z m 2,2 183.375,0 0,101.5 -183.375,0 0,-101.5 z"
     id="rect5"
     style="color:#000000;font-style:normal;font-variant:normal;font-weight:normal;font-stretch:normal;font-size:medium;line-height:normal;font-family:Sans;-inkscape-font-specification:Sans;text-indent:0;text-align:start;text-decoration:none;text-decoration-line:none;letter-spacing:normal;word-spacing:normal;text-transform:none;direction:ltr;block-progression:tb;writing-mode:lr-tb;baseline-shift:baseline;text-anchor:start;display:inline;overflow:visible;visibility:visible;fill:#f4f4f4;fill-opacity:1;stroke:none;stroke-width:2;marker:none;enable-background:accumulate"
     inkscape:connector-curvature="0" /><path
     d="m 169.59375,116.25 0,1.34375 0,203.75 -60.03125,30.78125 -0.53125,0.28125 0,0.59375 0,59.53125 0,1 1,0 244.34375,0 1,0 0,-1 0,-115.875 0,-1 -1,0 -44.28125,0 0,-134.875 0,-0.71875 -0.71875,-0.21875 -138.5,-43.1875 -1.28125,-0.40625 z m 2,2.71875 136.5,42.5625 0,135.125 0,1 1,0 44.28125,0 0,113.875 -242.34375,0 0,-57.90625 60,-30.78125 0.5625,-0.28125 0,-0.625 0,-202.96875 z"
     id="polygon7"
     style="color:#000000;font-style:normal;font-variant:normal;font-weight:normal;font-stretch:normal;font-size:medium;line-height:normal;font-family:Sans;-inkscape-font-specification:Sans;text-indent:0;text-align:start;text-decoration:none;text-decoration-line:none;letter-spacing:normal;word-spacing:normal;text-transform:none;direction:ltr;block-progression:tb;writing-mode:lr-tb;baseline-shift:baseline;text-anchor:start;display:inline;overflow:visible;visibility:visible;fill:#f4f4f4;fill-opacity:1;stroke:none;stroke-width:2;marker:none;enable-background:accumulate"
     inkscape:connector-curvature="0" /></svg>