<?xml version="1.0" encoding="UTF-8" standalone="no"?>
<!-- Generator: Adobe Illustrator 16.0.3, SVG Export Plug-In . SVG Version: 6.00 Build 0)  -->

<svg
   xmlns:dc="http://purl.org/dc/elements/1.1/"
   xmlns:cc="http://creativecommons.org/ns#"
   xmlns:rdf="http://www.w3.org/1999/02/22-rdf-syntax-ns#"
   xmlns:svg="http://www.w3.org/2000/svg"
   xmlns="http://www.w3.org/2000/svg"
   xmlns:sodipodi="http://sodipodi.sourceforge.net/DTD/sodipodi-0.dtd"
   xmlns:inkscape="http://www.inkscape.org/namespaces/inkscape"
   version="1.1"
   id="Ebene_1"
   x="0px"
   y="0px"
   width="562.95679"
   height="341.21542"
   viewBox="0 0 562.95677 341.21543"
   enable-background="new 0 0 566.929 458.929"
   xml:space="preserve"
   inkscape:version="0.92.2 (5c3e80d, 2017-08-06)"
   sodipodi:docname="logo.svg"><metadata
     id="metadata33"><rdf:RDF><cc:Work
         rdf:about=""><dc:format>image/svg+xml</dc:format><dc:type
           rdf:resource="http://purl.org/dc/dcmitype/StillImage" /><dc:title></dc:title></cc:Work></rdf:RDF></metadata><defs
     id="defs31" /><sodipodi:namedview
     pagecolor="#ffffff"
     bordercolor="#666666"
     borderopacity="1"
     objecttolerance="10"
     gridtolerance="10"
     guidetolerance="10"
     inkscape:pageopacity="0"
     inkscape:pageshadow="2"
     inkscape:window-width="1920"
     inkscape:window-height="1017"
     id="namedview29"
     showgrid="false"
     fit-margin-top="0"
     fit-margin-left="0"
     fit-margin-right="0"
     fit-margin-bottom="0"
     inkscape:zoom="1.4368413"
     inkscape:cx="164.17676"
     inkscape:cy="242.27635"
     inkscape:window-x="-8"
     inkscape:window-y="-8"
     inkscape:window-maximized="1"
     inkscape:current-layer="g5" /><g
     id="g3"
     transform="translate(-1.987,-115.72858)"><g
       id="g5"
       style="fill:#fa8c4e;fill-opacity:1"><path
         d="m 564.898,251.25725 c 0.103,-1.0125 0,-2.05875 0,-2.90625 0.015,-19.36575 0.018,-38.7315 -0.007,-58.09725 -10e-4,-1.00575 -0.074,-2.04675 -0.417,-3.01125 -7.45,-20.98425 -20.942,-39.27 -43.296,-53.4135 -18.353,-11.61075 -39.435,-18.08775 -63.727,-18.08475 -64.021,0.008 -128.042,0.003 -192.064,0.003 -86.168,0 -172.335,-7.5e-4 -258.502,0.008 -1.591,0 -3.182,-0.06 -4.898,0 0,14.808 0,29.4435 0,44.0175 1.204,0.35175 2.251,0.7065 3.338,0.9675 7.92,1.8975 15.849,3.77625 23.776,5.65875 79.821,18.95475 159.644,37.9065 239.464,56.86725 37.698,8.95425 75.383,17.93925 113.091,26.8695 2.366,0.56025 4.884,1.08075 7.333,1.083 57.348,0.0607 114.696,0.048 172.045,0.039 1.128,0 2.515,0.078 3.864,0 z m -222.241,-2.7915 c -51.406,-12.2205 -102.396,-24.342 -154.027,-36.615 0,57.01875 0,113.469 0,170.01375 -22.218,8.406 -44.116,16.68975 -65.864,24.918 0,16.878 0,33.4395 0,50.1615 89.945,0 179.608,0 269.52,0 0,-32.487 0,-64.7745 0,-97.48875 -16.6,0 -32.95,0 -49.629,0 0,-37.173 0,-73.91925 0,-110.9895 z m 17.448,13.28775 c 0,28.56675 0,56.94 0,85.509 68.267,0 136.274,0 204.543,0 0,-28.56675 0,-56.94 0,-85.509 -68.267,0 -136.273,0 -204.543,0 z"
         id="path7"
         inkscape:connector-curvature="0"
         style="clip-rule:evenodd;fill:#fb7b27;fill-opacity:1;fill-rule:evenodd;stroke-width:0.86602539" /></g><g
       id="g11"><path
         d="m 3.972,59.45 c -2.648,266.31932 -1.324,133.15966 0,0 z"
         id="path15"
         inkscape:connector-curvature="0"
         sodipodi:nodetypes="cc" /></g><g
       id="g17" /></g></svg>