<?xml version="1.0" encoding="UTF-8" standalone="no"?>
<!-- Generator: Adobe Illustrator 13.0.0, SVG Export Plug-In . SVG Version: 6.00 Build 14948)  -->

<svg
   xmlns:ns="&amp;#38;ns_sfw;"
   xmlns:dc="http://purl.org/dc/elements/1.1/"
   xmlns:cc="http://creativecommons.org/ns#"
   xmlns:rdf="http://www.w3.org/1999/02/22-rdf-syntax-ns#"
   xmlns:svg="http://www.w3.org/2000/svg"
   xmlns="http://www.w3.org/2000/svg"
   xmlns:sodipodi="http://sodipodi.sourceforge.net/DTD/sodipodi-0.dtd"
   xmlns:inkscape="http://www.inkscape.org/namespaces/inkscape"
   version="1.2"
   id="Layer_3"
   x="0px"
   y="0px"
   width="574.771"
   height="187.33051"
   viewBox="0 0 574.77097 187.3305"
   xml:space="preserve"
   inkscape:version="0.92.2 (5c3e80d, 2017-08-06)"
   sodipodi:docname="controller.svg"><defs
     id="defs30" /><sodipodi:namedview
     pagecolor="#ffffff"
     bordercolor="#666666"
     borderopacity="1"
     objecttolerance="10"
     gridtolerance="10"
     guidetolerance="10"
     inkscape:pageopacity="0"
     inkscape:pageshadow="2"
     inkscape:window-width="1920"
     inkscape:window-height="1017"
     id="namedview28"
     showgrid="false"
     fit-margin-top="0"
     fit-margin-left="0"
     fit-margin-right="0"
     fit-margin-bottom="0"
     inkscape:zoom="0.48145317"
     inkscape:cx="-66.642698"
     inkscape:cy="118.099"
     inkscape:window-x="-8"
     inkscape:window-y="-8"
     inkscape:window-maximized="1"
     inkscape:current-layer="Layer_3" /><metadata
     id="metadata55"><rdf:RDF><cc:Work
         rdf:about=""><dc:format>image/svg+xml</dc:format><dc:type
           rdf:resource="http://purl.org/dc/dcmitype/StillImage" /><dc:title></dc:title></cc:Work></rdf:RDF><ns:sfw><ns:slices /><ns:sliceSourceBounds
         x="-7231"
         y="-7652"
         width="16383"
         height="16383"
         bottomLeftOrigin="true" /></ns:sfw></metadata><path
     id="path3"
     d="M 7.78,0 C 3.498,0 0,2.62425 0,5.83425 V 181.518 c 0,3.2115 3.498,5.8125 7.78,5.8125 h 559.24 c 4.282,0 7.751,-2.601 7.751,-5.8125 V 5.83425 C 574.771,2.6235 571.301,0 567.018,0 Z m 0,1.4145 h 559.24 c 3.264,0 5.865,1.97325 5.865,4.41975 V 181.518 c 0,2.44725 -2.602,4.398 -5.865,4.398 H 7.78 c -3.264,0 -5.894,-1.953 -5.894,-4.39875 V 5.8335 C 1.887,3.387 4.517,1.41375 7.78,1.4145 Z"
     inkscape:connector-curvature="0"
     style="fill:#f4f4f4;stroke-width:0.86602539" /><path
     id="path5"
     d="m 21.925,30.7425 c -2.666,0 -4.833,1.647 -4.833,3.64725 V 170.157 c 0,1.99875 2.167,3.6465 4.833,3.6465 h 530.452 c 2.665,0 4.832,-1.64775 4.832,-3.6465 V 34.38975 c 0,-2.00025 -2.167,-3.64725 -4.832,-3.64725 z m 0,1.4145 h 530.452 c 1.644,0 2.947,0.9975 2.947,2.23275 V 170.157 c 0,1.2345 -1.304,2.232 -2.947,2.232 H 21.925 c -1.647,0 -2.947,-0.9975 -2.947,-2.232 V 34.38975 c 0,-1.23525 1.301,-2.23275 2.947,-2.23275 z"
     inkscape:connector-curvature="0"
     style="fill:#f4f4f4;stroke-width:0.86602539" /><path
     id="path7"
     d="m 196.762,109.7985 c -5.901,0 -10.698,3.59775 -10.698,8.022 v 28.179 c 0,4.425 4.798,8.04525 10.698,8.04525 h 138.117 c 5.566,0 9.99,-3.2595 10.489,-7.3365 h 0.207 v -0.708 -28.179 c 0,-4.42425 -4.797,-8.022 -10.696,-8.022 H 196.762 Z m 0,1.4145 h 138.117 c 4.882,0 8.81,2.9475 8.81,6.6075 v 27.4725 0.7065 c 0,3.66 -3.928,6.63 -8.81,6.63 H 196.762 c -4.881,0 -8.811,-2.97 -8.811,-6.63 v -28.179 c 0,-3.66 3.929,-6.6075 8.811,-6.6075 z"
     inkscape:connector-curvature="0"
     style="fill:#f4f4f4;stroke-width:0.86602539" /><path
     id="path9"
     d="m 195.555,114.5505 c -2.397,0 -4.361,1.47375 -4.361,3.27 v 28.17825 c 0,1.7985 1.965,3.2715 4.361,3.2715 h 140.531 c 2.396,0 4.361,-1.47375 4.361,-3.2715 v -28.1775 c 0,-1.797 -1.965,-3.27 -4.361,-3.27 H 195.555 Z m 0,1.41525 h 140.531 c 1.377,0 2.475,0.825 2.475,1.8555 v 28.17825 c 0,1.03425 -1.098,1.85775 -2.475,1.85775 H 195.555 c -1.376,0 -2.476,-0.82425 -2.476,-1.85775 v -28.17825 c 0.001,-1.0305 1.098,-1.8555 2.476,-1.8555 z"
     inkscape:connector-curvature="0"
     style="fill:#f4f4f4;stroke-width:0.86602539" /><path
     id="path11"
     d="m 193.838,83.079 c -4.821,0 -8.752,2.9475 -8.752,6.564 v 8.796 c 0,3.61725 3.931,6.5415 8.752,6.5415 H 337.79 c 4.824,0 8.753,-2.92425 8.753,-6.5415 v -8.796 c 0,-3.6165 -3.929,-6.564 -8.753,-6.564 z m 0,1.4145 H 337.79 c 3.807,0 6.867,2.29725 6.867,5.1495 v 8.796 c 0,2.8515 -3.061,5.12625 -6.867,5.12625 H 193.838 c -3.802,0 -6.866,-2.2755 -6.866,-5.12625 v -8.796 c 0,-2.85225 3.065,-5.1495 6.866,-5.1495 z"
     inkscape:connector-curvature="0"
     style="fill:#f4f4f4;stroke-width:0.86602539" /><path
     id="path13"
     d="m 193.838,57.087 c -4.821,0 -8.752,2.94825 -8.752,6.564 v 8.79675 c 0,3.6165 3.931,6.564 8.752,6.564 H 337.79 c 4.824,0 8.753,-2.94825 8.753,-6.564 V 63.6495 c 0,-3.615 -3.929,-6.56325 -8.753,-6.56325 H 193.838 Z m 0,1.4145 H 337.79 c 3.807,0 6.867,2.29875 6.867,5.1495 v 8.79675 c 0,2.85225 -3.061,5.1495 -6.867,5.1495 H 193.838 c -3.802,0 -6.866,-2.29725 -6.866,-5.1495 V 63.651 c 0,-2.85075 3.065,-5.1495 6.866,-5.1495 z"
     inkscape:connector-curvature="0"
     style="fill:#f4f4f4;stroke-width:0.86602539" /><path
     id="path15"
     d="M 185.087,31.44975 V 44.622 c 0,3.61575 3.932,6.564 8.752,6.564 h 143.953 c 4.824,0 8.753,-2.949 8.753,-6.564 V 31.44975 h -1.886 V 44.622 c 0,2.85225 -3.063,5.1495 -6.867,5.1495 H 193.839 c -3.801,0 -6.866,-2.298 -6.866,-5.1495 V 31.44975 Z"
     inkscape:connector-curvature="0"
     style="fill:#f4f4f4;stroke-width:0.86602539" /><path
     id="path17"
     d="m 193.838,161.0295 c -4.821,0 -8.752,2.9475 -8.752,6.564 v 5.547 h 1.886 v -5.547 c 0,-2.8515 3.065,-5.14875 6.866,-5.14875 H 337.79 c 3.807,0 6.867,2.29725 6.867,5.14875 v 5.5035 h 1.886 v -5.5035 c 0,-3.61575 -3.929,-6.564 -8.753,-6.564 z"
     inkscape:connector-curvature="0"
     style="fill:#f4f4f4;stroke-width:0.86602539" /><path
     id="path19"
     d="m 376.454,107.96625 c -2.934,0 -5.333,1.79925 -5.333,3.999 v 39.8925 c 0,2.202 2.399,4.00125 5.333,4.00125 h 53.19 c 2.936,0 5.333,-1.79925 5.333,-4.00125 v -39.8925 c 0,-2.19975 -2.397,-3.999 -5.333,-3.999 z m 0,1.4145 h 53.19 c 1.916,0 3.447,1.1505 3.447,2.5845 v 39.8925 c 0,1.437 -1.531,2.586 -3.447,2.586 h -53.19 c -1.912,0 -3.447,-1.149 -3.447,-2.586 v -39.8925 c -0.001,-1.434 1.535,-2.5845 3.447,-2.5845 z"
     inkscape:connector-curvature="0"
     style="fill:#f4f4f4;stroke-width:0.86602539" /><path
     id="circle21"
     d="m 403.038,112.36575 c -14.391,0 -26.049,8.76675 -26.049,19.5585 0,10.791 11.658,19.5585 26.049,19.5585 14.388,0 26.077,-8.7675 26.077,-19.5585 0,-10.791 -11.69,-19.5585 -26.077,-19.5585 z m 0,1.4145 c 13.37,0 24.19,8.1165 24.19,18.144 0,10.0275 -10.82,18.144 -24.19,18.144 -13.369,0 -24.163,-8.1165 -24.163,-18.144 0,-10.0275 10.792,-18.144 24.163,-18.144 z"
     inkscape:connector-curvature="0"
     style="fill:#f4f4f4;stroke-width:0.86602539" /><path
     id="path23"
     d="m 450.628,107.96625 c -2.935,0 -5.334,1.79925 -5.334,3.999 v 39.8925 c 0,2.202 2.401,4.00125 5.334,4.00125 h 53.19 c 2.934,0 5.335,-1.79925 5.335,-4.00125 v -39.8925 c 0,-2.19975 -2.401,-3.999 -5.335,-3.999 z m 0,1.4145 h 53.19 c 1.915,0 3.446,1.1505 3.446,2.5845 v 39.8925 c 0,1.437 -1.531,2.586 -3.446,2.586 h -53.19 c -1.915,0 -3.446,-1.149 -3.446,-2.586 v -39.8925 c 0,-1.434 1.531,-2.5845 3.446,-2.5845 z"
     inkscape:connector-curvature="0"
     style="fill:#f4f4f4;stroke-width:0.86602539" /><path
     id="circle25"
     d="m 477.231,112.36575 c -14.39,0 -26.079,8.76675 -26.079,19.5585 0,10.791 11.689,19.5585 26.079,19.5585 14.388,0 26.048,-8.7675 26.048,-19.5585 0,-10.791 -11.66,-19.5585 -26.048,-19.5585 z m 0,1.4145 c 13.369,0 24.161,8.1165 24.161,18.144 0,10.0275 -10.792,18.144 -24.161,18.144 -13.37,0 -24.193,-8.1165 -24.193,-18.144 0,-10.0275 10.823,-18.144 24.193,-18.144 z"
     inkscape:connector-curvature="0"
     style="fill:#f4f4f4;stroke-width:0.86602539" /><path
     id="polyline27"
     d="M 148.991,2.652 V 7.18275 7.89 h 0.943 22.13 0.943 V 7.18275 2.652 h -1.886 V 6.4755 H 150.876 V 2.652 Z"
     inkscape:connector-curvature="0"
     style="fill:#f4f4f4;stroke-width:0.86602539" /><g
     id="g29"
     transform="matrix(1,0,0,0.75,-11.601,-32.59125)"><path
       d="m 225.773,229.146 h -0.004 v -0.941 -0.944 h 0.004 28.788 c 4.553,-0.01 8.238,-3.691 8.247,-8.248 v 0 c -0.009,-4.555 -3.693,-8.237 -8.247,-8.247 v 0 H 225.77 c -4.555,0.01 -8.24,3.692 -8.249,8.247 v 0 c 0.008,4.557 3.693,8.238 8.249,8.248 v 0 0.944 0.941 c -5.597,0 -10.133,-4.535 -10.133,-10.134 v 0 c 0,-5.598 4.536,-10.133 10.133,-10.133 v 0 h 28.792 c 5.596,0 10.131,4.535 10.131,10.133 v 0 c 0,5.599 -4.536,10.134 -10.131,10.134 v 0 z"
       id="path18"
       inkscape:connector-curvature="0"
       style="fill:#f4f4f4" /><path
       d="m 300.273,229.146 v -0.941 -0.944 h 28.792 c 4.552,-0.01 8.238,-3.691 8.246,-8.248 v 0 c -0.008,-4.555 -3.694,-8.237 -8.246,-8.247 v 0 h -28.792 c -4.555,0.01 -8.239,3.692 -8.248,8.247 v 0 c 0.009,4.557 3.695,8.238 8.248,8.248 v 0 0.944 0.941 c -5.595,0 -10.133,-4.535 -10.133,-10.134 v 0 c 0,-5.598 4.536,-10.133 10.133,-10.133 v 0 h 28.792 c 5.594,0 10.131,4.535 10.131,10.133 v 0 c 0,5.599 -4.537,10.134 -10.131,10.134 v 0 z"
       id="path20"
       inkscape:connector-curvature="0"
       style="fill:#f4f4f4" /></g><path
     id="path35"
     d="m 84.751,66.657 c -5.361,0.001 -9.722,3.27225 -9.724,7.293 V 91.23375 H 51.982 c -5.361,7.5e-4 -9.722,3.27225 -9.724,7.293 v 24.77475 c 0.002,4.02075 4.363,7.29075 9.724,7.29225 h 23.044 v 17.2845 c 0.002,4.02075 4.363,7.2915 9.724,7.29375 h 33.004 c 5.361,-0.001 9.723,-3.27225 9.724,-7.29375 v -17.2845 h 23.074 c 5.362,-7.5e-4 9.722,-3.27075 9.724,-7.29225 V 98.52675 c -0.002,-4.0215 -4.363,-7.2915 -9.724,-7.293 H 127.479 V 73.95 c 0,-4.0185 -4.366,-7.29 -9.722,-7.2915 H 84.753 Z m 0,1.4145 h 33.004 c 4.344,0.002 7.836,2.62125 7.838,5.8785 v 17.99025 0.7065 h 0.943 24.017 c 4.344,0.001 7.837,2.6205 7.839,5.8785 v 24.7755 c -0.002,3.258 -3.496,5.8785 -7.839,5.87925 h -24.017 -0.943 v 0.7065 17.99025 c -0.002,3.25875 -3.496,5.87775 -7.838,5.87925 H 84.751 c -4.344,-0.002 -7.836,-2.62125 -7.839,-5.87925 V 129.8865 129.18 H 75.969 51.982 c -4.344,-0.001 -7.836,-2.622 -7.838,-5.87925 v -24.7755 c 0.001,-3.258 3.496,-5.877 7.838,-5.8785 h 23.987 0.942 V 91.94025 73.95 c 0.003,-3.25725 3.496,-5.877 7.84,-5.8785 z m 0,2.96175 c -2.125,0.002 -3.856,1.3245 -3.861,2.9175 V 93.0675 c 0,0 0,0.021 0,0.045 0,0.012 0,0.003 0,0.0217 -0.009,0.42525 -0.06,0.85275 -0.471,1.39275 -0.339,0.46125 -1.274,0.8895 -1.769,0.972 l -0.029,0.0225 c -0.449,0.0892 -0.822,0.1095 -1.238,0.11025 H 51.982 c -2.124,0.003 -3.886,1.30125 -3.89,2.895 v 24.7748 c 0.004,1.59375 1.766,2.892 3.89,2.895 h 25.519 0.03 c 0.004,0 0.031,0 0.059,0 0.733,0 1.776,0.23475 2.417,0.774 0.694,0.579 0.856,1.2585 0.854,1.83375 v 19.07325 c 0.004,1.59375 1.766,2.895 3.89,2.89575 h 33.004 c 2.125,-0.002 3.885,-1.30275 3.89,-2.89575 v -19.07325 c -0.009,-0.663 0.358,-1.40925 1.001,-1.87875 0.647,-0.483 1.588,-0.7335 2.447,-0.72975 h 25.459 c 2.124,-0.003 3.856,-1.30125 3.86,-2.895 v -0.0203 -24.7545 c -0.003,-1.59375 -1.736,-2.8935 -3.86,-2.895 h -25.459 c -0.583,-0.005 -1.149,-0.0503 -1.857,-0.3315 -0.585,-0.2205 -1.261,-0.8655 -1.415,-1.28175 V 93.996 c -0.141,-0.339 -0.169,-0.657 -0.169,-0.98325 v -19.0515 c -0.004,-1.593 -1.766,-2.916 -3.891,-2.91675 H 84.756 Z m 0,1.4145 h 33.004 c 1.106,0 2.002,0.672 2.004,1.503 V 93.0015 93.024 c 0.002,0.40575 0.059,0.86325 0.265,1.37025 0.002,0.006 -0.002,0.0157 0,0.0225 0.326,0.861 1.158,1.66875 2.328,2.121 v 0.0225 c 0.006,0.003 0.023,-0.002 0.03,0 1.043,0.4065 2.038,0.48075 2.711,0.486 h 25.459 c 1.107,7.5e-4 1.972,0.64875 1.974,1.4805 v 24.7545 c -0.001,0.83025 -0.865,1.5 -1.974,1.5015 h -25.459 c -1.341,-0.005 -2.71,0.38625 -3.743,1.14975 h -0.03 c -1.046,0.77175 -1.576,1.8315 -1.562,2.87325 V 147.879 c -0.002,0.83025 -0.898,1.48125 -2.004,1.482 H 84.751 c -1.106,-7.5e-4 -2.001,-0.65025 -2.004,-1.482 v -19.07325 c 0.003,-0.8055 -0.242,-1.87875 -1.326,-2.78475 -1.091,-0.92025 -2.616,-1.23825 -3.831,-1.23825 -0.021,0 -0.055,-7.5e-4 -0.088,0 h -0.03 -25.49 c -1.11,-10e-4 -2.002,-0.64875 -2.004,-1.4805 v -24.7755 c 0.002,-0.831 0.897,-1.479 2.004,-1.4805 h 25.402 c 0.49,-7.5e-4 1.077,-0.0315 1.709,-0.1545 0.008,-0.001 0.021,0.001 0.029,0 1.099,-0.1905 2.265,-0.75075 2.947,-1.68 0.628,-0.8235 0.697,-1.59525 0.707,-2.07825 v -0.021 c -10e-4,-0.0555 0,-0.045 0,-0.045 V 73.95075 c 0.003,-0.8295 0.868,-1.5015 1.975,-1.503 z"
     inkscape:connector-curvature="0"
     style="fill:#f4f4f4;stroke-width:0.86602539" /><path
     id="polygon37"
     d="m 69.457,99.939 -1.621,1.21575 -12.317,9.26025 -0.678,0.48675 0.678,0.5085 12.317,9.26025 1.621,1.19475 v -1.70325 -2.364 h 7.602 0.943 v -0.7065 -12.35625 -0.70575 h -0.943 -7.602 v -2.388 z m -1.887,3.42525 v 1.37025 0.708 h 0.943 7.602 v 10.93875 H 68.513 67.57 v 0.708 1.34775 L 57.522,110.89875 67.57,103.3665 Z"
     inkscape:connector-curvature="0"
     style="fill:#f4f4f4;stroke-width:0.86602539" /><path
     id="circle39"
     d="m 101.257,101.778 c -6.709,0 -12.17,4.09575 -12.17,9.1275 0,5.031 5.462,9.1275 12.17,9.1275 6.708,0 12.17,-4.0965 12.17,-9.1275 0,-5.03175 -5.462,-9.1275 -12.17,-9.1275 z m 0,1.41525 c 5.689,0 10.284,3.4455 10.284,7.71225 0,4.266 -4.594,7.713 -10.284,7.713 -5.69,0 -10.284,-3.447 -10.284,-7.713 0.001,-4.26675 4.595,-7.71225 10.284,-7.71225 z"
     inkscape:connector-curvature="0"
     style="fill:#f4f4f4;stroke-width:0.86602539" /><path
     id="polygon41"
     d="m 92.087,128.34225 v 0.7065 5.7015 h -3.182 -2.269 l 1.622,1.2165 12.347,9.26025 0.648,0.486 0.678,-0.486 12.348,-9.26025 1.59,-1.2165 h -2.268 -3.153 v -5.7015 -0.7065 h -0.943 -16.474 z m 1.886,1.41375 h 14.588 v 5.703 0.70575 h 0.942 1.827 l -10.079,7.5585 -10.079,-7.5585 h 1.856 0.943 V 135.459 Z"
     inkscape:connector-curvature="0"
     style="fill:#f4f4f4;stroke-width:0.86602539" /><path
     id="polygon43"
     d="m 133.045,99.939 v 1.7025 2.388 h -7.604 -0.942 v 0.70575 12.3555 0.7065 h 0.943 7.604 v 2.364 1.70325 l 1.621,-1.19475 12.347,-9.2595 0.648,-0.5085 -0.648,-0.48675 -12.347,-9.26025 z m 1.886,3.40425 10.079,7.55925 -10.079,7.55775 v -1.3695 -0.708 h -0.943 -7.603 v -10.9395 h 7.603 0.943 V 104.736 Z"
     inkscape:connector-curvature="0"
     style="fill:#f4f4f4;stroke-width:0.86602539" /><path
     id="polygon45"
     d="m 101.257,76.09125 -0.648,0.5085 -12.347,9.237 -1.621,1.21575 h 2.269 3.183 v 5.7015 0.70725 h 0.942 16.473 0.943 V 92.754 87.0525 h 3.154 2.269 l -1.591,-1.21575 -12.348,-9.237 z m 0,2.0115 10.048,7.53675 h -1.797 -0.943 v 0.7065 5.70225 H 93.978 V 86.346 85.6395 h -0.943 -1.827 z"
     inkscape:connector-curvature="0"
     style="fill:#f4f4f4;stroke-width:0.86602539" /></svg>