<?xml version="1.0" encoding="UTF-8" standalone="no"?>
<!-- Generator: Adobe Illustrator 13.0.0, SVG Export Plug-In . SVG Version: 6.00 Build 14948)  -->

<svg
   xmlns:ns="&amp;ns_sfw;"
   xmlns:dc="http://purl.org/dc/elements/1.1/"
   xmlns:cc="http://creativecommons.org/ns#"
   xmlns:rdf="http://www.w3.org/1999/02/22-rdf-syntax-ns#"
   xmlns:svg="http://www.w3.org/2000/svg"
   xmlns="http://www.w3.org/2000/svg"
   xmlns:sodipodi="http://sodipodi.sourceforge.net/DTD/sodipodi-0.dtd"
   xmlns:inkscape="http://www.inkscape.org/namespaces/inkscape"
   version="1.1"
   id="Ebene_1"
   x="0px"
   y="0px"
   width="285.603"
   height="64.342499"
   viewBox="23.577 0 285.603 64.342498"
   enable-background="new 23.577 0 290.5 85.789"
   xml:space="preserve"
   sodipodi:docname="logo.svg"
   inkscape:version="0.92.2 (5c3e80d, 2017-08-06)"><defs
     id="defs71" /><sodipodi:namedview
     pagecolor="#ffffff"
     bordercolor="#666666"
     borderopacity="1"
     objecttolerance="10"
     gridtolerance="10"
     guidetolerance="10"
     inkscape:pageopacity="0"
     inkscape:pageshadow="2"
     inkscape:window-width="1920"
     inkscape:window-height="1017"
     id="namedview69"
     showgrid="false"
     fit-margin-top="0"
     fit-margin-left="0"
     fit-margin-right="0"
     fit-margin-bottom="0"
     inkscape:zoom="1.2013769"
     inkscape:cx="141.969"
     inkscape:cy="42.895499"
     inkscape:window-x="-8"
     inkscape:window-y="-8"
     inkscape:window-maximized="1"
     inkscape:current-layer="Ebene_1" /><metadata
     id="metadata2"><ns:sfw><ns:slices /><ns:sliceSourceBounds
         x="816.781"
         y="517.325"
         width="285.603"
         height="85.789"
         bottomLeftOrigin="true" /></ns:sfw><rdf:RDF><cc:Work
         rdf:about=""><dc:format>image/svg+xml</dc:format><dc:type
           rdf:resource="http://purl.org/dc/dcmitype/StillImage" /><dc:title></dc:title></cc:Work></rdf:RDF></metadata><g
     id="g26"
     transform="matrix(1,0,0,0.75,-3.281,0)"><path
       d="M 277.235,70.452 H 62.086 C 42.663,70.452 26.858,54.648 26.858,35.224 26.858,15.8 42.665,0 62.086,0 h 215.146 c 19.426,0 35.229,15.802 35.229,35.226 0,19.423 -15.801,35.226 -35.226,35.226 z M 62.086,8.333 c -14.829,0 -26.895,12.063 -26.895,26.895 0,14.828 12.064,26.895 26.895,26.895 h 215.146 c 14.826,0 26.896,-12.065 26.896,-26.895 0,-14.83 -12.068,-26.895 -26.896,-26.895 H 62.086 Z"
       id="path4"
       inkscape:connector-curvature="0"
       style="fill:#d61616" /><path
       d="M 89.718,51.562 V 19.047 H 79.94 V 41.782 L 65.516,19.047 H 55.004 v 32.515 h 9.779 V 28.093 l 15.154,23.469 z"
       id="path6"
       inkscape:connector-curvature="0"
       style="fill:#d61616" /><path
       d="M 105.61,51.562 V 29.56 h -9.778 v 22.002 z"
       id="path8"
       inkscape:connector-curvature="0"
       style="fill:#d61616" /><path
       d="m 105.61,24.914 v -5.867 h -9.778 v 5.867 z"
       id="path10"
       inkscape:connector-curvature="0"
       style="fill:#d61616" /><path
       id="_x33_162"
       d="M 139.834,51.562 V 36.403 c 0,-3.178 -6.112,-7.577 -9.289,-7.577 h -2.935 c -2.199,0 -4.646,1.956 -6.846,2.934 v -2.2 h -9.778 v 22.002 h 9.778 V 36.403 c 0,-1.467 3.422,-3.178 4.891,-3.178 1.467,0 4.154,1.711 4.154,3.178 v 15.158 z"
       inkscape:connector-curvature="0"
       style="fill:#d61616" /><path
       id="_x33_162_1_"
       d="M 221.655,52.319 V 37.162 c 0,-3.18 -6.109,-7.578 -9.293,-7.578 h -2.932 c -2.201,0 -4.646,1.956 -6.849,2.933 v -2.199 h -9.776 V 52.32 h 9.776 V 37.162 c 0,-1.467 3.425,-3.18 4.892,-3.18 1.467,0 4.154,1.713 4.154,3.18 v 15.156 h 10.028 z"
       inkscape:connector-curvature="0"
       style="fill:#d61616" /><path
       d="M 155.725,51.562 V 29.56 h 5.135 v -2.934 h -5.135 V 21.98 h -10.021 v 4.646 h -5.135 v 2.934 h 5.135 v 22.002 z"
       id="path14"
       inkscape:connector-curvature="0"
       style="fill:#d61616" /><path
       d="m 174.549,28.826 c -7.823,0 -14.423,5.378 -14.423,11.979 0,6.846 6.6,12.223 14.423,12.223 6.846,0 12.469,-3.91 13.936,-9.045 h -10.021 v 2.935 c 0,2.444 -1.709,3.18 -3.91,3.18 -2.199,0 -3.668,-0.734 -3.668,-3.18 v -6.111 h 18.094 c -0.005,-6.602 -6.361,-11.981 -14.431,-11.981 z m 0,2.2 c 2.201,0 3.912,1.468 3.912,3.912 v 2.199 h -7.578 v -2.199 c 0,-2.445 1.467,-3.912 3.666,-3.912 z"
       id="path16"
       inkscape:connector-curvature="0"
       style="fill:#d61616" /><path
       d="m 270.875,28.826 c -8.07,0 -14.427,5.378 -14.427,11.979 0,6.846 6.354,12.223 14.427,12.223 7.817,0 14.422,-5.377 14.422,-12.223 -0.004,-6.6 -6.603,-11.979 -14.422,-11.979 z m 0,2.2 c 2.194,0 3.666,1.468 3.666,3.912 v 11.979 c 0,2.443 -1.472,3.179 -3.666,3.179 -2.445,0 -3.914,-0.734 -3.914,-3.179 V 34.938 c -0.002,-2.445 1.467,-3.912 3.914,-3.912 z"
       id="path18"
       inkscape:connector-curvature="0"
       style="fill:#d61616" /><path
       d="m 242.758,19.047 v 11.979 c 0,0 -2.937,-2.199 -6.849,-2.199 -6.11,0 -11.244,5.378 -11.244,11.246 0,6.111 5.136,12.224 11.244,12.224 3.912,0 6.849,-1.467 6.849,-1.467 v 0.731 h 9.778 V 19.047 Z m -3.668,13.446 c 2.198,0 3.668,1.712 3.668,3.912 v 9.045 c 0,2.2 -1.47,2.934 -3.668,2.934 -2.443,0 -3.912,-0.732 -3.912,-2.934 v -9.045 c 0,-2.2 1.469,-3.912 3.912,-3.912 z"
       id="path20"
       inkscape:connector-curvature="0"
       style="fill:#d61616" /><g
       id="g24"><path
         d="m 286.516,29.216 c -2.773,0 -5.035,-2.258 -5.035,-5.035 0,-2.959 2.213,-5.28 5.035,-5.28 2.729,0 5.037,2.417 5.037,5.28 0,2.681 -2.35,5.035 -5.037,5.035 z m 0,-9.533 c -2.426,0 -4.252,1.935 -4.252,4.5 0,2.344 1.908,4.254 4.252,4.254 2.229,0 4.254,-2.027 4.254,-4.254 0,-2.399 -1.983,-4.5 -4.254,-4.5 z m 0.885,6.647 -0.863,-1.516 h -1.096 v 1.321 h -0.779 V 21.59 h 2.104 c 0.979,0 1.488,0.813 1.488,1.613 0,0.614 -0.303,1.237 -0.885,1.491 l 0.711,1.248 z m -1.959,-2.294 h 1.32 c 0.221,0 0.396,-0.079 0.521,-0.235 0.119,-0.149 0.188,-0.368 0.188,-0.597 0,-0.312 -0.15,-0.832 -0.709,-0.832 h -1.32 z"
         id="path22"
         inkscape:connector-curvature="0"
         style="fill:#d61616" /></g></g><g
     id="g66"
     transform="matrix(1,0,0,0.75,-3.281,0)"><path
       d="m 48.071,85.789 h -9.103 c -2.601,0 -3.901,-1.301 -3.901,-3.901 v -7.803 h 13.004 v 2.602 H 37.667 v 1.95 H 48.07 v 2.601 H 37.667 v 0.65 c 0,0.867 0.434,1.301 1.301,1.301 h 9.103 z"
       id="path28"
       inkscape:connector-curvature="0"
       style="fill:#8c8c8c" /><path
       d="M 49.372,85.789 V 74.085 h 9.103 c 2.601,0 3.901,1.301 3.901,3.901 v 7.803 h -2.601 v -7.803 c 0,-0.866 -0.434,-1.3 -1.3,-1.3 h -6.502 v 9.103 z"
       id="path30"
       inkscape:connector-curvature="0"
       style="fill:#8c8c8c" /><path
       d="M 63.676,74.085 H 76.68 v 2.602 h -5.202 v 9.103 h -2.601 v -9.103 h -5.202 v -2.602 z"
       id="path32"
       inkscape:connector-curvature="0"
       style="fill:#8c8c8c" /><path
       d="m 90.984,85.789 h -9.103 c -2.601,0 -3.901,-1.301 -3.901,-3.901 v -7.803 h 13.004 v 2.602 H 80.581 v 1.95 h 10.403 v 2.601 H 80.581 v 0.65 c 0,0.867 0.434,1.301 1.301,1.301 h 9.103 v 2.6 z"
       id="path34"
       inkscape:connector-curvature="0"
       style="fill:#8c8c8c" /><path
       d="M 94.886,81.238 V 85.79 H 92.285 V 74.085 h 9.103 c 2.601,0 3.901,1.188 3.901,3.563 0,1.127 -0.187,1.955 -0.559,2.483 0.373,0.616 0.559,1.418 0.559,2.406 v 3.251 h -2.601 v -3.251 c 0,-0.867 -0.434,-1.301 -1.3,-1.301 h -6.502 z m 0,-2.601 h 7.803 v -1.95 h -7.803 z"
       id="path36"
       inkscape:connector-curvature="0"
       style="fill:#8c8c8c" /><path
       d="m 106.589,74.085 h 13.004 v 2.602 h -5.202 v 9.103 h -2.601 v -9.103 h -5.202 v -2.602 z"
       id="path38"
       inkscape:connector-curvature="0"
       style="fill:#8c8c8c" /><path
       d="m 123.495,82.538 v 3.251 h -2.601 v -7.803 c 0,-2.601 1.3,-3.901 3.901,-3.901 h 5.202 c 2.601,0 3.901,1.301 3.901,3.901 v 7.803 h -2.601 v -3.251 z m 7.802,-2.6 v -1.951 c 0,-0.866 -0.434,-1.3 -1.3,-1.3 h -5.202 c -0.867,0 -1.301,0.434 -1.301,1.3 v 1.951 z"
       id="path40"
       inkscape:connector-curvature="0"
       style="fill:#8c8c8c" /><path
       d="M 135.199,85.789 V 74.085 h 2.601 v 11.704 z"
       id="path42"
       inkscape:connector-curvature="0"
       style="fill:#8c8c8c" /><path
       d="M 139.1,85.789 V 74.085 h 9.103 c 2.601,0 3.901,1.301 3.901,3.901 v 7.803 h -2.601 v -7.803 c 0,-0.866 -0.434,-1.3 -1.3,-1.3 h -6.502 v 9.103 H 139.1 Z"
       id="path44"
       inkscape:connector-curvature="0"
       style="fill:#8c8c8c" /><path
       d="M 153.404,85.789 V 74.085 h 10.403 c 2.602,0 3.901,1.301 3.901,3.901 v 7.803 h -2.601 v -7.803 c 0,-0.866 -0.434,-1.3 -1.301,-1.3 h -1.95 v 9.103 h -2.601 v -9.103 h -3.251 v 9.103 z"
       id="path46"
       inkscape:connector-curvature="0"
       style="fill:#8c8c8c" /><path
       d="m 182.013,85.789 h -9.103 c -2.601,0 -3.901,-1.301 -3.901,-3.901 v -7.803 h 13.004 v 2.602 H 171.61 v 1.95 h 10.403 v 2.601 H 171.61 v 0.65 c 0,0.867 0.434,1.301 1.301,1.301 h 9.103 v 2.6 z"
       id="path48"
       inkscape:connector-curvature="0"
       style="fill:#8c8c8c" /><path
       d="M 183.314,85.789 V 74.085 h 9.103 c 2.602,0 3.901,1.301 3.901,3.901 v 7.803 h -2.601 v -7.803 c 0,-0.866 -0.434,-1.3 -1.301,-1.3 h -6.502 v 9.103 z"
       id="path50"
       inkscape:connector-curvature="0"
       style="fill:#8c8c8c" /><path
       d="m 197.619,74.085 h 13.004 v 2.602 h -5.201 v 9.103 h -2.602 v -9.103 h -5.201 z"
       id="path52"
       inkscape:connector-curvature="0"
       style="fill:#8c8c8c" /><path
       d="m 217.125,83.189 h 10.403 v -1.951 h -6.502 c -2.601,0 -3.901,-1.175 -3.901,-3.523 0,-2.419 1.301,-3.629 3.901,-3.629 h 9.103 v 2.602 h -10.403 v 1.95 h 6.502 c 2.602,0 3.901,1.192 3.901,3.576 0,2.384 -1.3,3.576 -3.901,3.576 h -9.103 z"
       id="path54"
       inkscape:connector-curvature="0"
       style="fill:#8c8c8c" /><path
       d="m 236.63,81.238 h -1.3 c -2.601,0 -3.901,-1.3 -3.901,-3.901 v -3.251 h 2.601 v 3.251 c 0,0.867 0.434,1.301 1.301,1.301 h 5.201 c 0.867,0 1.301,-0.434 1.301,-1.301 v -3.251 h 2.601 v 3.251 c 0,2.602 -1.3,3.901 -3.901,3.901 h -1.3 v 4.552 h -2.602 v -4.552 z"
       id="path56"
       inkscape:connector-curvature="0"
       style="fill:#8c8c8c" /><path
       d="m 245.734,83.189 h 10.403 v -1.951 h -6.502 c -2.601,0 -3.901,-1.175 -3.901,-3.523 0,-2.419 1.301,-3.629 3.901,-3.629 h 9.103 v 2.602 h -10.403 v 1.95 h 6.502 c 2.602,0 3.901,1.192 3.901,3.576 0,2.384 -1.3,3.576 -3.901,3.576 h -9.103 z"
       id="path58"
       inkscape:connector-curvature="0"
       style="fill:#8c8c8c" /><path
       d="m 260.039,74.085 h 13.004 v 2.602 h -5.201 v 9.103 h -2.602 v -9.103 h -5.201 z"
       id="path60"
       inkscape:connector-curvature="0"
       style="fill:#8c8c8c" /><path
       d="m 287.346,85.789 h -9.103 c -2.601,0 -3.901,-1.301 -3.901,-3.901 v -7.803 h 13.004 v 2.602 h -10.403 v 1.95 h 10.403 v 2.601 h -10.403 v 0.65 c 0,0.867 0.434,1.301 1.301,1.301 h 9.103 v 2.6 z"
       id="path62"
       inkscape:connector-curvature="0"
       style="fill:#8c8c8c" /><path
       d="M 288.647,85.789 V 74.085 h 10.403 c 2.601,0 3.901,1.301 3.901,3.901 v 7.803 h -2.601 v -7.803 c 0,-0.866 -0.434,-1.3 -1.301,-1.3 h -1.95 v 9.103 h -2.602 v -9.103 h -3.251 v 9.103 z"
       id="path64"
       inkscape:connector-curvature="0"
       style="fill:#8c8c8c" /></g></svg>