<?xml version="1.0" encoding="UTF-8" standalone="no"?>
<svg
   xmlns:dc="http://purl.org/dc/elements/1.1/"
   xmlns:cc="http://creativecommons.org/ns#"
   xmlns:rdf="http://www.w3.org/1999/02/22-rdf-syntax-ns#"
   xmlns:svg="http://www.w3.org/2000/svg"
   xmlns="http://www.w3.org/2000/svg"
   xmlns:sodipodi="http://sodipodi.sourceforge.net/DTD/sodipodi-0.dtd"
   xmlns:inkscape="http://www.inkscape.org/namespaces/inkscape"
   viewBox="0 0 329.69586 130.29167"
   height="130.29167"
   width="329.69586"
   xml:space="preserve"
   version="1.1"
   id="svg2"
   sodipodi:docname="controller.svg"
   inkscape:version="0.92.2 (5c3e80d, 2017-08-06)"><sodipodi:namedview
     pagecolor="#ffffff"
     bordercolor="#666666"
     borderopacity="1"
     objecttolerance="10"
     gridtolerance="10"
     guidetolerance="10"
     inkscape:pageopacity="0"
     inkscape:pageshadow="2"
     inkscape:window-width="1920"
     inkscape:window-height="1017"
     id="namedview158"
     showgrid="false"
     inkscape:zoom="2.1171002"
     inkscape:cx="93.673723"
     inkscape:cy="125.79441"
     inkscape:window-x="-8"
     inkscape:window-y="-8"
     inkscape:window-maximized="1"
     inkscape:current-layer="g152"
     fit-margin-top="0"
     fit-margin-left="0"
     fit-margin-right="0"
     fit-margin-bottom="0" /><metadata
     id="metadata8"><rdf:RDF><cc:Work
         rdf:about=""><dc:format>image/svg+xml</dc:format><dc:type
           rdf:resource="http://purl.org/dc/dcmitype/StillImage" /><dc:title></dc:title></cc:Work></rdf:RDF></metadata><defs
     id="defs6"><clipPath
       id="clipPath16"
       clipPathUnits="userSpaceOnUse"><path
         id="path18"
         d="M 0,138.978 H 263.757 V 0 H 0 Z"
         inkscape:connector-curvature="0" /></clipPath><clipPath
       id="clipPath28"
       clipPathUnits="userSpaceOnUse"><path
         id="path30"
         d="m 166.998,51.6678 h 0.79 v -1.1399 h -0.79 z"
         inkscape:connector-curvature="0" /></clipPath><clipPath
       id="clipPath44"
       clipPathUnits="userSpaceOnUse"><path
         id="path46"
         d="m 209.098,102.598 h 1.1 v -0.81 h -1.1 z"
         inkscape:connector-curvature="0" /></clipPath><clipPath
       id="clipPath60"
       clipPathUnits="userSpaceOnUse"><path
         id="path62"
         d="m 221.548,93.7179 h 0.83 v -1.33 h -0.83 z"
         inkscape:connector-curvature="0" /></clipPath><clipPath
       id="clipPath76"
       clipPathUnits="userSpaceOnUse"><path
         id="path78"
         d="m 229.768,81.8779 h 1.22 v -0.8401 h -1.22 z"
         inkscape:connector-curvature="0" /></clipPath><clipPath
       id="clipPath96"
       clipPathUnits="userSpaceOnUse"><path
         id="path98"
         d="m 183.718,36.6279 h 1.2 v -0.8901 h -1.2 z"
         inkscape:connector-curvature="0" /></clipPath><clipPath
       id="clipPath112"
       clipPathUnits="userSpaceOnUse"><path
         id="path114"
         d="m 234.458,60.9679 h 0.94 v -0.96 h -0.94 z"
         inkscape:connector-curvature="0" /></clipPath></defs><g
     transform="matrix(1.25,0,0,-1.25,0,130.29167)"
     id="g10"><g
       id="g12"><g
         clip-path="url(#clipPath16)"
         id="g14"><g
           transform="matrix(1,0,0,0.75,234.7277,24.988414)"
           id="g20"><path
             id="path22"
             style="fill:#0f0f0f;fill-opacity:1;fill-rule:nonzero;stroke:none"
             d="m 0,0 c -16.27,-17.17 -46.35,-15.09 -67.18,4.8 -20.84,19.88 -24.44,49.91 -8.17,67.08 7.12,7.51 16.88,11.33 27.35,11.59 13.47,0.34 28.12,-5.2 39.84,-16.39 C 12.68,47.2 16.27,17.16 0,0 M -7.57,67.7 C -19.45,79.03 -34.35,84.69 -48.06,84.34 V 84.33 C -58.73,84.06 -68.7,80.16 -75.99,72.47 -92.64,54.9 -88.9,24.32 -67.78,4.18 -46.66,-15.97 -16.03,-18.17 0.63,-0.59 17.29,16.98 13.56,47.56 -7.57,67.7"
             inkscape:connector-curvature="0" /></g><g
           id="g24"
           transform="matrix(1,0,0,0.75,0,-1.0861612e-5)"><g
             id="g26" /><g
             id="g32"><g
               style="opacity:0.33999604"
               id="g34"
               clip-path="url(#clipPath28)"><g
                 id="g36"
                 transform="translate(167.7877,51.0279)"><path
                   id="path38"
                   style="fill:#f3f3f3;fill-opacity:1;fill-rule:nonzero;stroke:none"
                   d="m 0,0 -0.71,-0.5 c -0.03,0.04 -0.05,0.07 -0.08,0.11 0.1,0.35 0.22,0.69 0.36,1.03 C -0.3,0.42 -0.15,0.21 0,0"
                   inkscape:connector-curvature="0" /></g></g></g></g><g
           id="g40"
           transform="matrix(1,0,0,0.75,0,-1.0861612e-5)"><g
             id="g42" /><g
             id="g48"><g
               style="opacity:0.33999604"
               id="g50"
               clip-path="url(#clipPath44)"><g
                 id="g52"
                 transform="translate(210.1977,102.5578)"><path
                   id="path54"
                   style="fill:#f3f3f3;fill-opacity:1;fill-rule:nonzero;stroke:none"
                   d="m 0,0 -0.4,-0.77 c -0.23,0.12 -0.47,0.24 -0.7,0.35 0.33,0.17 0.67,0.33 1.02,0.46 C -0.05,0.03 -0.03,0.01 0,0"
                   inkscape:connector-curvature="0" /></g></g></g></g><g
           id="g56"
           transform="matrix(1,0,0,0.75,0,-1.0861612e-5)"><g
             id="g58" /><g
             id="g64"><g
               style="opacity:0.33999604"
               id="g66"
               clip-path="url(#clipPath60)"><g
                 id="g68"
                 transform="translate(222.1577,93.7179)"><path
                   id="path70"
                   style="fill:#f3f3f3;fill-opacity:1;fill-rule:nonzero;stroke:none"
                   d="M 0,0 C 0.07,-0.08 0.15,-0.15 0.22,-0.23 0.19,-0.6 0.15,-0.97 0.08,-1.33 c -0.22,0.24 -0.45,0.48 -0.69,0.72 z"
                   inkscape:connector-curvature="0" /></g></g></g></g><g
           id="g72"
           transform="matrix(1,0,0,0.75,0,-1.0861612e-5)"><g
             id="g74" /><g
             id="g80"><g
               style="opacity:0.33999604"
               id="g82"
               clip-path="url(#clipPath76)"><g
                 id="g84"
                 transform="translate(230.9877,81.4278)"><path
                   id="path86"
                   style="fill:#f3f3f3;fill-opacity:1;fill-rule:nonzero;stroke:none"
                   d="M 0,0 -0.78,-0.39 C -0.92,-0.11 -1.06,0.17 -1.22,0.45 -0.82,0.36 -0.43,0.24 -0.05,0.1 -0.03,0.07 -0.02,0.03 0,0"
                   inkscape:connector-curvature="0" /></g></g></g></g><g
           transform="matrix(1,0,0,0.75,235.3877,45.613414)"
           id="g88"><path
             id="path90"
             style="fill:#151415;fill-opacity:1;fill-rule:nonzero;stroke:none"
             d="m 0,0 c -0.44,-7.55 -3.21,-14.69 -8.46,-20.24 -10.59,-11.23 -28.04,-12.65 -42.97,-4.84 0.33,0.14 0.65,0.3 0.96,0.48 14.52,-7.33 31.22,-5.82 41.38,4.95 4.9,5.19 7.59,11.79 8.16,18.84 C -0.61,-0.56 -0.3,-0.29 0,0"
             inkscape:connector-curvature="0" /></g><g
           id="g92"
           transform="matrix(1,0,0,0.75,0,-1.0861612e-5)"><g
             id="g94" /><g
             id="g100"><g
               style="opacity:0.33999604"
               id="g102"
               clip-path="url(#clipPath96)"><g
                 id="g104"
                 transform="translate(184.1177,36.6279)"><path
                   id="path106"
                   style="fill:#f3f3f3;fill-opacity:1;fill-rule:nonzero;stroke:none"
                   d="M 0,0 C 0.26,-0.14 0.53,-0.28 0.8,-0.41 0.49,-0.59 0.17,-0.75 -0.16,-0.89 -0.24,-0.85 -0.32,-0.81 -0.4,-0.77 Z"
                   inkscape:connector-curvature="0" /></g></g></g></g><g
           id="g108"
           transform="matrix(1,0,0,0.75,0,-1.0861612e-5)"><g
             id="g110" /><g
             id="g116"><g
               style="opacity:0.33999604"
               id="g118"
               clip-path="url(#clipPath112)"><g
                 id="g120"
                 transform="translate(235.3977,60.9278)"><path
                   id="path122"
                   style="fill:#f3f3f3;fill-opacity:1;fill-rule:nonzero;stroke:none"
                   d="m 0,0 c 0,-0.04 0,-0.07 -0.01,-0.11 -0.3,-0.29 -0.61,-0.56 -0.93,-0.81 0.03,0.32 0.05,0.64 0.07,0.96 z"
                   inkscape:connector-curvature="0" /></g></g></g></g><g
           transform="matrix(1,0,0,0.75,178.9277,26.653339)"
           id="g124"><path
             id="path126"
             style="fill:#151415;fill-opacity:1;fill-rule:nonzero;stroke:none"
             d="m 0,0 c -6.4,0 -11.58,5.17 -11.58,11.57 0,6.4 5.18,11.58 11.58,11.58 6.4,0 11.56,-5.18 11.56,-11.58 C 11.56,5.17 6.4,0 0,0 m 0,24.01 c -5.25,0 -9.75,-3.27 -11.57,-7.88 -0.14,-0.34 -0.26,-0.68 -0.36,-1.03 -0.33,-1.12 -0.51,-2.31 -0.51,-3.53 0,-6.86 5.58,-12.44 12.44,-12.44 1.79,0 3.49,0.38 5.03,1.07 0.33,0.14 0.65,0.3 0.96,0.48 3.84,2.11 6.44,6.2 6.44,10.89 0,6.86 -5.57,12.44 -12.43,12.44"
             inkscape:connector-curvature="0" /></g><g
           transform="matrix(1,0,0,0.75,201.9177,37.085914)"
           id="g128"><path
             id="path130"
             style="fill:#151415;fill-opacity:1;fill-rule:nonzero;stroke:none"
             d="m 0,0 c -6.4,0 -11.58,5.18 -11.58,11.57 0,6.4 5.18,11.58 11.58,11.58 6.39,0 11.56,-5.18 11.56,-11.58 C 11.56,5.18 6.39,0 0,0 m 0,24.01 c -6.87,0 -12.44,-5.57 -12.44,-12.44 0,-6.86 5.57,-12.44 12.44,-12.44 6.86,0 12.42,5.58 12.42,12.44 0,6.87 -5.56,12.44 -12.42,12.44"
             inkscape:connector-curvature="0" /></g><g
           transform="matrix(1,0,0,0.75,226.7977,43.678339)"
           id="g132"><path
             id="path134"
             style="fill:#151415;fill-opacity:1;fill-rule:nonzero;stroke:none"
             d="m 0,0 c -6.4,0 -11.58,5.16 -11.58,11.56 0,6.4 5.18,11.58 11.58,11.58 6.39,0 11.57,-5.18 11.57,-11.58 C 11.57,5.16 6.39,0 0,0 M 4.14,23.29 C 3.76,23.43 3.37,23.55 2.97,23.64 2.02,23.88 1.02,24 0,24 -6.87,24 -12.44,18.43 -12.44,11.56 -12.44,4.7 -6.87,-0.87 0,-0.87 c 2.89,0 5.55,0.98 7.66,2.64 0.32,0.25 0.63,0.52 0.93,0.81 2.37,2.26 3.85,5.45 3.85,8.98 0,5.42 -3.47,10.02 -8.3,11.73"
             inkscape:connector-curvature="0" /></g><g
           transform="matrix(1,0,0,0.75,169.9877,51.688339)"
           id="g136"><path
             id="path138"
             style="fill:#0f0f0f;fill-opacity:1;fill-rule:nonzero;stroke:none"
             d="m 0,0 c -4.54,0 -8.21,3.67 -8.21,8.21 0,4.54 3.67,8.21 8.21,8.21 4.54,0 8.21,-3.68 8.21,-8.21 C 8.21,3.67 4.54,0 0,0 m 0,17.28 c -5,0 -9.07,-4.07 -9.07,-9.07 0,-5.01 4.07,-9.08 9.07,-9.08 5.01,0 9.07,4.07 9.07,9.08 0,5 -4.06,9.07 -9.07,9.07"
             inkscape:connector-curvature="0" /></g><g
           transform="matrix(1,0,0,0.75,191.0677,59.923414)"
           id="g140"><path
             id="path142"
             style="fill:#0f0f0f;fill-opacity:1;fill-rule:nonzero;stroke:none"
             d="m 0,0 c -4.53,0 -8.19,3.67 -8.19,8.21 0,4.54 3.66,8.21 8.19,8.21 4.54,0 8.21,-3.67 8.21,-8.21 C 8.21,3.67 4.54,0 0,0 m 0,17.28 c -5,0 -9.06,-4.07 -9.06,-9.07 0,-5.01 4.06,-9.07 9.06,-9.07 5.01,0 9.08,4.06 9.08,9.07 0,5 -4.07,9.07 -9.08,9.07"
             inkscape:connector-curvature="0" /></g><g
           transform="matrix(1,0,0,0.75,213.3277,64.423414)"
           id="g144"><path
             id="path146"
             style="fill:#0f0f0f;fill-opacity:1;fill-rule:nonzero;stroke:none"
             d="m 0,0 c -4.54,0 -8.21,3.68 -8.21,8.21 0,4.54 3.67,8.21 8.21,8.21 4.54,0 8.21,-3.67 8.21,-8.21 C 8.21,3.68 4.54,0 0,0 m 0,17.29 c -1.13,0 -2.21,-0.21 -3.21,-0.59 -0.35,-0.13 -0.69,-0.29 -1.02,-0.46 -2.88,-1.52 -4.84,-4.55 -4.84,-8.03 0,-5 4.07,-9.07 9.07,-9.07 4.42,0 8.1,3.17 8.91,7.35 0.07,0.36 0.11,0.73 0.14,1.1 C 9.06,7.8 9.07,8 9.07,8.21 9.07,13.22 5.01,17.29 0,17.29"
             inkscape:connector-curvature="0" /></g><g
           transform="matrix(1,0,0,0.75,135.7577,54.628414)"
           id="g148"><path
             id="path150"
             style="fill:#0f0f0f;fill-opacity:1;fill-rule:nonzero;stroke:none"
             d="m 0,0 h -15.44 c -2.57,0 -4.65,2.08 -4.65,4.66 0,2.57 2.08,4.65 4.65,4.65 H 0 C 2.58,9.31 4.66,7.23 4.66,4.66 4.66,2.08 2.58,0 0,0 m 0,10.17 h -15.44 c -3.04,0 -5.51,-2.47 -5.51,-5.51 0,-3.05 2.47,-5.52 5.51,-5.52 H 0 c 3.05,0 5.53,2.47 5.53,5.52 0,3.04 -2.48,5.51 -5.53,5.51"
             inkscape:connector-curvature="0" /></g><g
           transform="translate(235.3577,32.7278)"
           id="g152"><path
             id="path154"
             style="fill:#3b3a3c;fill-opacity:1;fill-rule:nonzero;stroke:none;stroke-width:0.86602539"
             d="M 27.28,9.1055391 C 24.17,21.788039 14.77,34.883039 1.25,44.730539 c -27.13,19.77 -67.43,26.775 -101.12,26.775 h -7.23 c -15.13,0 -31.59,-1.4175 -47.6,-4.77 -0.21,-0.045 -2.61,-0.5175 -3.98,-0.8775 -0.01,0 -0.03,-0.0075 -0.04,-0.015 -18.18,-4.1925 -35.57,-10.9725 -49.49,-21.1125 -13.52,-9.8475 -22.92,-22.9425 -26.03,-35.6249999 -3.11,-12.69 0.09,-25.0050001 11.87,-33.2025001 12.99,-9.0375 24.25,-9.8175 34.39,-7.56 10.14,2.2575 19.2,7.485 28.02,10.3875 8.55,2.8125 28.84,9.6075 48.03,9.6075 h 16.91 c 19.18,0 39.48,-6.795 48.03,-9.6075 8.82,-2.9025 17.86,-8.13 28,-10.3875 10.14,-2.2575 21.42,-1.4775 34.4,7.56 11.79,8.1975 14.98,20.5125001 11.87,33.2025001"
             inkscape:connector-curvature="0"
             sodipodi:nodetypes="ccssccccccscsscscc" /></g><g
           transform="matrix(1,0,0,0.75,226.9277,30.433414)"
           id="g156"><path
             id="path158"
             style="fill:#0f0f0f;fill-opacity:1;fill-rule:nonzero;stroke:none"
             d="m 0,0 c -10.59,-11.23 -28.04,-12.65 -42.97,-4.84 -1.54,-0.69 -3.24,-1.07 -5.03,-1.07 -6.86,0 -12.44,5.58 -12.44,12.44 0,1.22 0.18,2.41 0.51,3.53 0.1,0.35 0.22,0.69 0.36,1.03 -10.2,14.88 -10.33,33.7 0.67,45.36 10.1,10.7 26.62,12.26 41.07,5.11 0.33,0.17 0.67,0.33 1.02,0.46 1,0.38 2.08,0.59 3.21,0.59 5.01,0 9.07,-4.07 9.07,-9.08 0,-0.21 -0.01,-0.41 -0.02,-0.62 -0.03,-0.37 -0.07,-0.74 -0.14,-1.1 3.09,-3.24 5.6,-6.79 7.53,-10.51 0.4,-0.09 0.79,-0.21 1.17,-0.35 4.83,-1.71 8.3,-6.31 8.3,-11.73 0,-3.53 -1.48,-6.72 -3.85,-8.98 C 8.02,12.69 5.25,5.55 0,0 M -0.36,59.82 C -12.08,71.01 -26.73,76.55 -40.2,76.21 -50.67,75.95 -60.43,72.13 -67.55,64.62 -83.82,47.45 -80.22,17.42 -59.38,-2.46 -38.55,-22.35 -8.47,-24.43 7.8,-7.26 24.07,9.9 20.48,39.94 -0.36,59.82"
             inkscape:connector-curvature="0" /></g><g
           transform="matrix(1,0,0,0.75,201.9177,36.433414)"
           id="g160"><path
             id="path162"
             style="fill:#37373f;fill-opacity:1;fill-rule:nonzero;stroke:none"
             d="m 0,0 c -6.87,0 -12.44,5.58 -12.44,12.44 0,6.87 5.57,12.44 12.44,12.44 6.86,0 12.42,-5.57 12.42,-12.44 C 12.42,5.58 6.86,0 0,0 m -19.91,39.53 c 0,5 4.06,9.07 9.06,9.07 5.01,0 9.08,-4.07 9.08,-9.07 0,-5.01 -4.07,-9.07 -9.08,-9.07 -5,0 -9.06,4.06 -9.06,9.07 M -31.93,19.47 c -5,0 -9.07,4.07 -9.07,9.08 0,5 4.07,9.07 9.07,9.07 5.01,0 9.07,-4.07 9.07,-9.07 0,-5.01 -4.06,-9.08 -9.07,-9.08 M 24.88,8.79 c -6.87,0 -12.44,5.57 -12.44,12.43 0,6.87 5.57,12.44 12.44,12.44 1.02,0 2.02,-0.12 2.97,-0.36 -1.93,3.72 -4.44,7.27 -7.53,10.51 -0.81,-4.18 -4.49,-7.35 -8.91,-7.35 -5,0 -9.07,4.07 -9.07,9.07 0,3.48 1.96,6.51 4.84,8.03 -14.45,7.15 -30.97,5.59 -41.07,-5.11 -11,-11.66 -10.87,-30.48 -0.67,-45.36 1.82,4.61 6.32,7.88 11.57,7.88 6.86,0 12.43,-5.58 12.43,-12.44 0,-4.69 -2.6,-8.78 -6.44,-10.89 14.52,-7.33 31.22,-5.82 41.38,4.95 4.9,5.19 7.59,11.79 8.16,18.84 C 30.43,9.77 27.77,8.79 24.88,8.79"
             inkscape:connector-curvature="0" /></g><g
           transform="matrix(1,0,0,0.75,238.3677,52.348339)"
           id="g164"><path
             id="path166"
             style="fill:#1d1e23;fill-opacity:1;fill-rule:nonzero;stroke:none"
             d="m 0,0 c 0,-6.4 -5.18,-11.56 -11.57,-11.56 -6.4,0 -11.58,5.16 -11.58,11.56 0,6.4 5.18,11.58 11.58,11.58 C -5.18,11.58 0,6.4 0,0"
             inkscape:connector-curvature="0" /></g><g
           transform="matrix(1,0,0,0.75,213.4777,45.763414)"
           id="g168"><path
             id="path170"
             style="fill:#1d1e23;fill-opacity:1;fill-rule:nonzero;stroke:none"
             d="m 0,0 c 0,-6.39 -5.17,-11.57 -11.56,-11.57 -6.4,0 -11.58,5.18 -11.58,11.57 0,6.4 5.18,11.58 11.58,11.58 C -5.17,11.58 0,6.4 0,0"
             inkscape:connector-curvature="0" /></g><g
           transform="matrix(1,0,0,0.75,190.4877,35.330839)"
           id="g172"><path
             id="path174"
             style="fill:#1d1e23;fill-opacity:1;fill-rule:nonzero;stroke:none"
             d="m 0,0 c 0,-6.4 -5.16,-11.57 -11.56,-11.57 -6.4,0 -11.58,5.17 -11.58,11.57 0,6.4 5.18,11.58 11.58,11.58 C -5.16,11.58 0,6.4 0,0"
             inkscape:connector-curvature="0" /></g><g
           transform="matrix(1,0,0,0.75,221.5377,70.580839)"
           id="g176"><path
             id="path178"
             style="fill:#5e6155;fill-opacity:1;fill-rule:nonzero;stroke:none"
             d="m 0,0 c 0,-4.53 -3.67,-8.21 -8.21,-8.21 -4.54,0 -8.21,3.68 -8.21,8.21 0,4.54 3.67,8.21 8.21,8.21 C -3.67,8.21 0,4.54 0,0"
             inkscape:connector-curvature="0" /></g><g
           transform="matrix(1,0,0,0.75,199.2777,66.080839)"
           id="g180"><path
             id="path182"
             style="fill:#5e6155;fill-opacity:1;fill-rule:nonzero;stroke:none"
             d="m 0,0 c 0,-4.54 -3.67,-8.21 -8.21,-8.21 -4.53,0 -8.19,3.67 -8.19,8.21 0,4.54 3.66,8.21 8.19,8.21 C -3.67,8.21 0,4.54 0,0"
             inkscape:connector-curvature="0" /></g><g
           transform="matrix(1,0,0,0.75,178.1977,57.845914)"
           id="g184"><path
             id="path186"
             style="fill:#5e6155;fill-opacity:1;fill-rule:nonzero;stroke:none"
             d="m 0,0 c 0,-4.54 -3.67,-8.21 -8.21,-8.21 -4.54,0 -8.21,3.67 -8.21,8.21 0,4.54 3.67,8.21 8.21,8.21 C -3.67,8.21 0,4.53 0,0"
             inkscape:connector-curvature="0" /></g><g
           transform="matrix(1,0,0,0.75,183.7977,98.615839)"
           id="g188"><path
             id="path190"
             style="fill:#151415;fill-opacity:1;fill-rule:nonzero;stroke:none"
             d="m 0,0 c 0,0 -2.94,-3.32 -4.52,-4.79 -0.71,-0.66 -1.39,-1.65 -2.62,-2.3 -1.23,-0.64 -2.98,-0.89 -5.79,-0.21 -5.38,1.29 -26.02,4.04 -33.83,4.04 h -10.3 c -7.81,0 -28.45,-2.75 -33.84,-4.04 -2.81,-0.68 -4.56,-0.43 -5.8,0.21 -1.23,0.65 -1.89,1.64 -2.61,2.3 -1.35,1.26 -3.48,3.67 -4.08,4.35 -0.09,0.12 -0.15,0.18 -0.15,0.18 -0.14,0.16 -0.19,0.18 -0.3,0.37 l 0.96,0.19 c 0.02,-0.03 2.67,-3.07 4.16,-4.45 0.81,-0.77 1.41,-1.65 2.43,-2.18 1.02,-0.53 2.51,-0.78 5.19,-0.14 5.6,1.35 26.03,4.08 34.04,4.08 h 10.3 c 8.01,0 28.44,-2.73 34.04,-4.08 2.68,-0.64 4.17,-0.39 5.19,0.14 1.02,0.53 1.62,1.41 2.43,2.18 1.29,1.19 3.52,3.73 4.12,4.42 z"
             inkscape:connector-curvature="0" /></g><g
           transform="matrix(1,0,0,0.75,86.4577,36.425914)"
           id="g192"><path
             id="path194"
             style="fill:#0f0f0f;fill-opacity:1;fill-rule:nonzero;stroke:none"
             d="m 0,0 c -15.54,-16.81 -39.17,-20.38 -52.78,-7.8 -13.61,12.59 -11.91,36.42 3.63,53.24 15.54,16.81 39.18,20.37 52.78,7.79 v 0.01 C 17.24,40.65 15.54,16.82 0,0 M 9.87,57.88 C -6.28,72.81 -34.43,68.75 -53,48.65 -71.57,28.55 -73.42,0.16 -57.27,-14.76 c 16.15,-14.93 44.32,-10.87 62.89,9.23 18.57,20.09 20.4,48.48 4.25,63.41"
             inkscape:connector-curvature="0" /></g><g
           transform="matrix(1,0,0,0.75,140.4149,58.119739)"
           id="g196"><path
             id="path198"
             style="fill:#a09fc4;fill-opacity:1;fill-rule:nonzero;stroke:none"
             d="m 0,0 c 0,-2.577 -2.075,-4.652 -4.652,-4.652 h -15.441 c -2.577,0 -4.652,2.075 -4.652,4.652 0,2.577 2.075,4.652 4.652,4.652 H -4.652 C -2.075,4.652 0,2.577 0,0"
             inkscape:connector-curvature="0" /></g><g
           transform="matrix(1,0,0,0.75,61.3477,34.813339)"
           id="g200"><path
             id="path202"
             style="fill:#37373f;fill-opacity:1;fill-rule:nonzero;stroke:none"
             d="m 0,0 c -14.36,0 -26.01,11.65 -26.01,26.02 0,14.36 11.65,26.01 26.01,26.01 14.37,0 26.02,-11.65 26.02,-26.01 C 26.02,11.65 14.37,0 0,0 M 28.74,55.39 V 55.38 C 15.14,67.96 -8.5,64.4 -24.04,47.59 -39.58,30.77 -41.28,6.94 -27.67,-5.65 c 13.61,-12.58 37.24,-9.01 52.78,7.8 15.54,16.82 17.24,40.65 3.63,53.24"
             inkscape:connector-curvature="0" /></g><g
           transform="matrix(1,0,0,0.75,82.1477,49.895914)"
           id="g204"><path
             id="path206"
             style="fill:#3b3a3c;fill-opacity:1;fill-rule:nonzero;stroke:none"
             d="M 0,0 C -0.08,-0.25 -0.13,-0.29 -0.2,-0.32 -0.27,-0.36 -0.46,-0.4 -0.81,-0.38 l -7.08,0.32 c -2.39,0.12 -4.41,-0.56 -5.83,-1.94 -1.42,-1.39 -2.23,-3.44 -2.34,-6.01 l -0.32,-6.55 c -0.01,-0.33 -0.08,-0.52 -0.14,-0.61 -0.07,-0.1 -0.13,-0.13 -0.27,-0.17 -1.62,-0.3 -3.29,-0.42 -5.01,-0.34 -1.74,0.07 -3.42,0.35 -5.02,0.82 h -0.02 c -0.13,0.05 -0.15,0.08 -0.19,0.16 -0.04,0.09 -0.07,0.3 -0.05,0.67 l 0.3,6.58 c 0.11,2.61 -0.49,4.72 -1.8,6.21 -1.31,1.48 -3.29,2.29 -5.78,2.4 l -6.92,0.33 c -0.55,0.03 -0.72,0.24 -0.77,0.46 v 0.01 c -0.3,1.6 -0.42,3.26 -0.34,4.95 0.08,1.77 0.36,3.47 0.84,5.1 0,0.01 0.01,0 0.01,0.01 v 0.02 c 0.04,0.1 0.06,0.12 0.11,0.15 0.05,0.02 0.24,0.04 0.55,0.02 l 6.98,-0.32 c 2.56,-0.12 4.62,0.49 6.05,1.8 1.43,1.31 2.19,3.29 2.31,5.83 l 0.34,7.11 c 0.01,0.25 0.06,0.38 0.09,0.43 0.04,0.05 0.04,0.06 0.14,0.08 h 0.01 c 1.66,0.32 3.4,0.46 5.17,0.38 1.79,-0.09 3.52,-0.4 5.16,-0.88 0.11,-0.04 0.1,-0.03 0.12,-0.1 0.02,-0.08 0.02,-0.31 0,-0.65 l -0.32,-6.97 c -0.11,-2.45 0.53,-4.48 1.82,-5.91 1.3,-1.43 3.22,-2.23 5.58,-2.34 l 7.31,-0.34 C 0.13,10.32 0.24,10.26 0.3,10.21 0.36,10.15 0.4,10.05 0.45,9.9 0.45,9.89 0.46,9.89 0.46,9.88 0.76,8.28 0.88,6.62 0.8,4.92 0.72,3.22 0.45,1.57 0,0 m -7.09,-9.7 -2.77,1.11 -0.65,0.27 0.51,0.46 1.93,1.74 0.5,0.46 0.2,-0.64 0.85,-2.87 0.27,-0.87 z m -25.93,2.18 -2.86,-0.85 -0.85,-0.26 0.32,0.84 1.12,2.77 0.26,0.64 0.46,-0.52 1.76,-1.9 0.46,-0.52 z m -1.49,29.04 2.79,-1.12 0.63,-0.26 -0.51,-0.46 -1.92,-1.74 -0.5,-0.47 -0.2,0.66 -0.86,2.86 -0.25,0.87 z m 25.94,-2.19 2.87,0.87 0.86,0.26 -0.34,-0.85 -1.12,-2.77 -0.25,-0.63 -0.47,0.5 -1.75,1.92 -0.46,0.51 z M -20.8,31.06 c -13.9,0 -25.15,-11.26 -25.15,-25.15 0,-13.9 11.25,-25.16 25.15,-25.16 13.9,0 25.16,11.26 25.16,25.16 0,13.89 -11.26,25.15 -25.16,25.15"
             inkscape:connector-curvature="0" /></g><g
           transform="matrix(1,0,0,0.75,61.3477,35.458414)"
           id="g208"><path
             id="path210"
             style="fill:#3b3a3c;fill-opacity:1;fill-rule:nonzero;stroke:none"
             d="m 0,0 c -13.9,0 -25.15,11.26 -25.15,25.16 0,13.89 11.25,25.15 25.15,25.15 13.9,0 25.16,-11.26 25.16,-25.15 C 25.16,11.26 13.9,0 0,0 m 0,51.17 c -14.36,0 -26.01,-11.65 -26.01,-26.01 0,-14.37 11.65,-26.02 26.01,-26.02 14.37,0 26.02,11.65 26.02,26.02 0,14.36 -11.65,26.01 -26.02,26.01"
             inkscape:connector-curvature="0" /></g><g
           transform="matrix(1,0,0,0.75,49.7977,44.405914)"
           id="g212"><path
             id="path214"
             style="fill:#151415;fill-opacity:1;fill-rule:nonzero;stroke:none"
             d="m 0,0 -0.67,-0.2 -2.86,-0.85 -0.85,-0.26 0.32,0.84 1.12,2.77 0.26,0.64 0.46,-0.52 1.76,-1.9 z"
             inkscape:connector-curvature="0" /></g><g
           transform="matrix(1,0,0,0.75,75.8977,42.365839)"
           id="g216"><path
             id="path218"
             style="fill:#151415;fill-opacity:1;fill-rule:nonzero;stroke:none"
             d="m 0,0 -0.84,0.34 -2.77,1.11 -0.65,0.27 0.51,0.46 1.93,1.74 0.5,0.46 0.2,-0.64 0.85,-2.87 z"
             inkscape:connector-curvature="0" /></g><g
           transform="matrix(1,0,0,0.75,77.3077,65.240839)"
           id="g220"><path
             id="path222"
             style="fill:#151415;fill-opacity:1;fill-rule:nonzero;stroke:none"
             d="m 0,0 -0.34,-0.85 -1.12,-2.77 -0.25,-0.63 -0.47,0.5 -1.75,1.92 -0.46,0.51 0.66,0.19 2.87,0.87 z"
             inkscape:connector-curvature="0" /></g><g
           transform="matrix(1,0,0,0.75,51.0577,65.000839)"
           id="g224"><path
             id="path226"
             style="fill:#151415;fill-opacity:1;fill-rule:nonzero;stroke:none"
             d="m 0,0 -0.51,-0.46 -1.92,-1.74 -0.5,-0.47 -0.2,0.66 -0.86,2.86 -0.25,0.87 0.82,-0.34 2.79,-1.12 z"
             inkscape:connector-curvature="0" /></g><g
           transform="matrix(1,0,0,0.75,61.3477,51.080839)"
           id="g228"><path
             id="path230"
             style="fill:#212120;fill-opacity:1;fill-rule:nonzero;stroke:none"
             d="m 0,0 c -2.39,0 -4.32,1.93 -4.32,4.33 0,2.39 1.93,4.34 4.32,4.34 2.4,0 4.33,-1.95 4.33,-4.34 C 4.33,1.93 2.4,0 0,0 m 21.26,8.3 c 0,0.01 -0.01,0.01 -0.01,0.02 C 21.2,8.47 21.16,8.57 21.1,8.63 21.04,8.68 20.93,8.74 20.68,8.75 L 13.37,9.09 C 11.01,9.2 9.09,10 7.79,11.43 6.5,12.86 5.86,14.89 5.97,17.34 l 0.32,6.97 c 0.02,0.34 0.02,0.57 0,0.65 -0.02,0.07 -0.01,0.06 -0.12,0.1 -1.64,0.48 -3.37,0.79 -5.16,0.88 -1.77,0.08 -3.51,-0.06 -5.17,-0.38 h -0.01 c -0.1,-0.02 -0.1,-0.03 -0.14,-0.08 -0.03,-0.05 -0.08,-0.18 -0.09,-0.43 l -0.34,-7.11 c -0.12,-2.54 -0.88,-4.52 -2.31,-5.83 -1.43,-1.31 -3.49,-1.92 -6.05,-1.8 l -6.98,0.32 c -0.31,0.02 -0.5,0 -0.55,-0.02 -0.05,-0.03 -0.07,-0.05 -0.11,-0.15 v -0.02 c 0,-0.01 -0.01,0 -0.01,-0.01 -0.48,-1.63 -0.76,-3.33 -0.84,-5.1 -0.08,-1.69 0.04,-3.35 0.34,-4.95 V 0.37 c 0.05,-0.22 0.22,-0.43 0.77,-0.46 l 6.92,-0.33 c 2.49,-0.11 4.47,-0.92 5.78,-2.4 1.31,-1.49 1.91,-3.6 1.8,-6.21 l -0.3,-6.58 c -0.02,-0.37 0.01,-0.58 0.05,-0.67 0.04,-0.08 0.06,-0.11 0.19,-0.16 h 0.02 c 1.6,-0.47 3.28,-0.75 5.02,-0.82 1.72,-0.08 3.39,0.04 5.01,0.34 0.14,0.04 0.2,0.07 0.27,0.17 0.06,0.09 0.13,0.28 0.14,0.61 l 0.32,6.55 c 0.11,2.57 0.92,4.62 2.34,6.01 1.42,1.38 3.44,2.06 5.83,1.94 l 7.08,-0.32 c 0.35,-0.02 0.54,0.02 0.61,0.06 0.07,0.03 0.12,0.07 0.2,0.32 0.45,1.57 0.72,3.22 0.8,4.92 0.08,1.7 -0.04,3.36 -0.34,4.96"
             inkscape:connector-curvature="0" /></g><g
           transform="matrix(1,0,0,0.75,65.6777,54.328414)"
           id="g232"><path
             id="path234"
             style="fill:#151415;fill-opacity:1;fill-rule:nonzero;stroke:none"
             d="m 0,0 c 0,-2.4 -1.93,-4.33 -4.33,-4.33 -2.39,0 -4.32,1.93 -4.32,4.33 0,2.39 1.93,4.34 4.32,4.34 C -1.93,4.34 0,2.39 0,0"
             inkscape:connector-curvature="0" /></g><g
           transform="matrix(1,0,0,0.75,182.8177,98.818414)"
           id="g236"><path
             id="path238"
             style="fill:#353535;fill-opacity:1;fill-rule:nonzero;stroke:none"
             d="m 0,0 c -0.6,-0.69 -2.83,-3.23 -4.12,-4.42 -0.81,-0.77 -1.41,-1.65 -2.43,-2.18 -1.02,-0.53 -2.51,-0.78 -5.19,-0.14 -5.6,1.35 -26.03,4.08 -34.04,4.08 h -10.3 c -8.01,0 -28.44,-2.73 -34.04,-4.08 -2.68,-0.64 -4.17,-0.39 -5.19,0.14 -1.02,0.53 -1.62,1.41 -2.43,2.18 -1.49,1.38 -4.14,4.42 -4.16,4.45 15.91,4.43 32.29,6.33 47.34,6.33 h 7.23 C -32.28,6.36 -15.91,4.44 0,0"
             inkscape:connector-curvature="0" /></g><g
           transform="matrix(1,0,0,0.75,148.2394,80.299789)"
           id="g240"><path
             id="path242"
             style="fill:#d5d5d5;fill-opacity:1;fill-rule:nonzero;stroke:none"
             d="m 0,0 h -6.437 v 1.505 h 4.412 c -0.321,0.971 -0.586,1.76 -0.843,2.553 -0.64,1.975 -1.238,3.967 -1.941,5.918 -0.17,0.472 -0.629,1.057 -1.049,1.155 C -6.565,11.295 -6.794,10.562 -6.99,9.955 -7.969,6.927 -8.976,3.91 -9.923,0.872 c -0.222,-0.714 -0.547,-0.954 -1.265,-0.935 -1.975,0.054 -3.952,0.005 -5.927,0.023 -2.002,0.018 -3.311,1.328 -3.355,3.4 -0.039,1.866 -0.043,3.735 10e-4,5.601 0.048,2.104 1.315,3.385 3.338,3.414 1.781,0.025 3.562,0.005 5.406,0.005 v -1.585 c -1.53,0 -3.052,0 -4.574,0 -2.147,10e-4 -2.64,-0.518 -2.641,-2.782 0,-1.408 -0.006,-2.817 0.002,-4.226 0.009,-1.507 0.695,-2.241 2.113,-2.256 1.152,-0.012 2.303,-0.003 3.514,-0.003 v 4.914 h -2.931 v 1.529 h 4.566 V 1.498 c 0.083,-0.01 0.166,-0.02 0.249,-0.03 0.966,2.976 1.934,5.952 2.897,8.929 0.551,1.702 1.565,2.394 3.2,2.142 0.91,-0.139 1.584,-0.67 1.882,-1.571 C -2.265,7.394 -1.118,3.807 0.038,0.224 0.055,0.17 0.018,0.098 0,0"
             inkscape:connector-curvature="0" /></g><g
           transform="matrix(1,0,0,0.75,107.9018,80.275114)"
           id="g244"><path
             id="path246"
             style="fill:#d5d5d5;fill-opacity:1;fill-rule:nonzero;stroke:none"
             d="m 0,0 v 1.567 c 1.717,0 3.401,-0.019 5.085,0.006 1.409,0.02 2.462,1.043 2.512,2.381 C 7.647,5.262 6.605,6.381 5.22,6.479 4.657,6.518 4.087,6.464 3.528,6.524 2.666,6.617 2.038,7.429 2.039,8.368 c 10e-4,0.951 0.622,1.801 1.491,1.826 1.842,0.054 3.685,0.017 5.577,0.017 V 8.661 H 6.305 3.693 C 3.692,8.487 3.69,8.313 3.688,8.139 4.204,8.116 4.72,8.084 5.237,8.072 7.183,8.027 8.589,6.893 9.074,4.967 9.667,2.615 7.979,0.112 5.654,0.015 3.81,-0.061 1.96,0 0,0"
             inkscape:connector-curvature="0" /></g><g
           transform="matrix(1,0,0,0.75,107.8864,81.911389)"
           id="g248"><path
             id="path250"
             style="fill:#d5d5d5;fill-opacity:1;fill-rule:nonzero;stroke:none"
             d="m 0,0 v 1.619 h 5.433 c 0,0.151 0.001,0.303 0.001,0.455 C 4.88,2.096 4.327,2.129 3.772,2.139 2.217,2.166 1.06,2.91 0.378,4.342 c -0.694,1.459 -0.587,2.92 0.328,4.261 0.627,0.92 1.494,1.543 2.586,1.578 1.908,0.061 3.82,0.017 5.805,0.017 V 8.645 C 7.383,8.645 5.667,8.674 3.952,8.637 2.25,8.6 1.145,7.011 1.659,5.41 1.968,4.447 2.851,3.8 3.983,3.734 4.515,3.702 5.052,3.742 5.581,3.688 6.439,3.6 7.089,2.792 7.099,1.866 7.109,0.941 6.46,0.04 5.622,0.016 3.779,-0.036 1.935,0 0,0"
             inkscape:connector-curvature="0" /></g><g
           transform="matrix(1,0,0,0.75,126.9755,89.544739)"
           id="g252"><path
             id="path254"
             style="fill:#d5d5d5;fill-opacity:1;fill-rule:nonzero;stroke:none"
             d="m 0,0 v -1.532 c -1.698,0 -3.38,0.002 -5.061,0 -1.768,-0.002 -2.384,-0.627 -2.396,-2.457 -0.009,-1.473 -0.004,-2.946 0.007,-4.419 0.013,-1.7 0.666,-2.385 2.269,-2.389 1.686,-0.005 3.372,-10e-4 5.121,-10e-4 v -1.573 c -1.258,0 -2.497,-0.002 -3.735,0.001 -0.784,0.002 -1.57,-0.026 -2.35,0.029 -1.437,0.102 -2.745,1.446 -2.782,2.95 -0.053,2.158 -0.05,4.32 -0.001,6.479 0.032,1.383 1.2,2.806 2.521,2.88 C -4.292,0.087 -2.166,0 0,0"
             inkscape:connector-curvature="0" /></g><g
           transform="matrix(1,0,0,0.75,141.7092,83.248789)"
           id="g256"><path
             id="path258"
             style="fill:#d5d5d5;fill-opacity:1;fill-rule:nonzero;stroke:none"
             d="M 0,0 H 1.294 C 1.092,0.624 0.921,1.153 0.751,1.682 0.676,1.678 0.602,1.673 0.528,1.668 0.366,1.156 0.204,0.645 0,0 m -3.152,-3.897 c 1.092,3.373 2.154,6.674 3.241,9.965 0.077,0.233 0.318,0.481 0.536,0.56 C 0.745,6.671 1.08,6.413 1.143,6.227 2.029,3.589 2.886,0.94 3.774,-1.781 H 0.087 c -0.041,0.391 -0.077,0.739 -0.114,1.087 -0.052,0.019 -0.105,0.039 -0.158,0.058 -0.21,-0.611 -0.426,-1.22 -0.629,-1.833 -0.541,-1.626 -0.539,-1.627 -2.338,-1.428"
             inkscape:connector-curvature="0" /></g><g
           transform="matrix(1,0,0,0.75,133.0764,83.367664)"
           id="g260"><path
             id="path262"
             style="fill:#d5d5d5;fill-opacity:1;fill-rule:nonzero;stroke:none"
             d="M 0,0 C -0.472,0.138 -0.752,0.22 -1.088,0.318 V 1.71 h 2.392 v -3.646 c -1.223,0 -2.439,-0.069 -3.638,0.047 -0.312,0.031 -0.802,0.631 -0.817,0.988 -0.082,1.962 -0.058,3.93 -0.035,5.895 0.009,0.689 0.412,1.093 1.077,1.1 C -0.293,6.111 1.524,6.1 3.422,6.1 V 4.541 C 2.055,4.541 0.714,4.503 -0.623,4.555 -1.444,4.588 -1.761,4.288 -1.708,3.423 -1.653,2.509 -1.705,1.589 -1.694,0.672 -1.68,-0.423 -1.175,-0.686 0,0"
             inkscape:connector-curvature="0" /></g><g
           transform="matrix(1,0,0,0.75,121.7351,83.169514)"
           id="g264"><path
             id="path266"
             style="fill:#d5d5d5;fill-opacity:1;fill-rule:nonzero;stroke:none"
             d="m 0,0 c 1.688,-0.315 3.436,0.015 5.186,-0.183 v -1.486 c -2.002,0 -3.964,-0.049 -5.92,0.049 -0.312,0.016 -0.779,0.653 -0.85,1.064 -0.136,0.789 -0.04,1.622 -0.04,2.519 H 3.944 V 0.494 H 0.052 C 0.034,0.329 0.017,0.165 0,0"
             inkscape:connector-curvature="0" /></g><g
           transform="matrix(1,0,0,0.75,126.9759,87.931264)"
           id="g268"><path
             id="path270"
             style="fill:#d5d5d5;fill-opacity:1;fill-rule:nonzero;stroke:none"
             d="m 0,0 v -1.477 c -1.736,-0.247 -3.517,0.158 -5.223,-0.219 0.006,-0.135 0.012,-0.271 0.017,-0.406 h 3.912 v -1.543 h -5.553 c 0,0.905 -0.078,1.85 0.041,2.766 0.043,0.328 0.553,0.828 0.865,0.84 C -3.978,0.038 -2.011,0 0,0"
             inkscape:connector-curvature="0" /></g><g
           transform="matrix(1,0,0,0.75,123.4803,62.986864)"
           id="g272"><path
             id="path274"
             style="fill:#d5d5d5;fill-opacity:1;fill-rule:nonzero;stroke:none"
             d="m 0,0 c -0.187,0 -0.351,0.023 -0.489,0.072 -0.14,0.049 -0.256,0.117 -0.351,0.205 -0.093,0.086 -0.164,0.192 -0.213,0.313 -0.049,0.121 -0.075,0.254 -0.08,0.398 h 0.474 c 0.008,-0.093 0.03,-0.174 0.067,-0.242 0.037,-0.068 0.084,-0.125 0.142,-0.17 0.057,-0.045 0.123,-0.078 0.196,-0.099 0.074,-0.022 0.153,-0.032 0.237,-0.032 0.079,0.002 0.152,0.01 0.216,0.026 0.066,0.015 0.122,0.039 0.168,0.068 0.047,0.029 0.082,0.065 0.108,0.107 0.025,0.043 0.038,0.09 0.038,0.143 0,0.055 -0.012,0.1 -0.036,0.139 -0.026,0.037 -0.065,0.07 -0.121,0.101 -0.054,0.03 -0.127,0.057 -0.215,0.082 -0.09,0.024 -0.2,0.049 -0.33,0.075 -0.15,0.033 -0.278,0.072 -0.386,0.117 -0.108,0.043 -0.196,0.095 -0.266,0.156 -0.068,0.061 -0.12,0.131 -0.153,0.209 -0.033,0.078 -0.05,0.168 -0.049,0.271 0,0.11 0.022,0.211 0.068,0.303 0.047,0.094 0.112,0.174 0.196,0.24 0.085,0.067 0.185,0.12 0.301,0.159 0.118,0.037 0.248,0.056 0.391,0.056 0.149,0 0.285,-0.019 0.408,-0.06 0.123,-0.041 0.23,-0.1 0.32,-0.176 C 0.729,2.385 0.8,2.291 0.851,2.18 0.901,2.07 0.929,1.943 0.932,1.805 H 0.464 C 0.431,2.102 0.251,2.25 -0.073,2.25 -0.231,2.25 -0.353,2.223 -0.437,2.17 -0.52,2.115 -0.562,2.043 -0.562,1.949 -0.562,1.912 -0.553,1.879 -0.535,1.85 -0.517,1.822 -0.487,1.797 -0.447,1.773 -0.407,1.75 -0.355,1.729 -0.292,1.709 -0.229,1.689 -0.153,1.67 -0.063,1.65 0.015,1.635 0.094,1.619 0.176,1.6 0.258,1.58 0.338,1.557 0.417,1.527 0.495,1.5 0.569,1.467 0.639,1.428 0.708,1.389 0.769,1.34 0.821,1.283 0.874,1.227 0.916,1.16 0.945,1.084 0.976,1.008 0.991,0.92 0.991,0.816 0.991,0.695 0.966,0.586 0.917,0.486 0.867,0.387 0.799,0.301 0.711,0.229 0.623,0.156 0.519,0.102 0.396,0.061 0.275,0.02 0.143,0 0,0"
             inkscape:connector-curvature="0" /></g><g
           transform="matrix(1,0,0,0.75,126.8924,64.643614)"
           id="g276"><path
             id="path278"
             style="fill:#d5d5d5;fill-opacity:1;fill-rule:nonzero;stroke:none"
             d="m 0,0 h -0.812 l -0.002,-2.166 h -0.489 l 0.003,2.164 h -0.808 l 10e-4,0.451 H 0 Z"
             inkscape:connector-curvature="0" /></g><g
           transform="matrix(1,0,0,0.75,128.5282,63.893614)"
           id="g280"><path
             id="path282"
             style="fill:#d5d5d5;fill-opacity:1;fill-rule:nonzero;stroke:none"
             d="m 0,0 -0.315,0.826 -0.3,-0.828 z M 0.979,-1.164 H 0.436 L 0.15,-0.416 h -0.913 l -0.272,-0.748 -0.516,-0.002 1.005,2.617 h 0.465 z"
             inkscape:connector-curvature="0" /></g><g
           transform="matrix(1,0,0,0.75,130.2948,64.147039)"
           id="g284"><path
             id="path286"
             style="fill:#d5d5d5;fill-opacity:1;fill-rule:nonzero;stroke:none"
             d="M 0,0 H 0.648 C 0.735,0.002 0.81,0.008 0.872,0.02 0.935,0.031 0.985,0.051 1.025,0.078 1.064,0.105 1.094,0.143 1.112,0.187 1.131,0.232 1.14,0.287 1.14,0.352 1.141,0.467 1.104,0.553 1.032,0.607 0.96,0.66 0.849,0.687 0.698,0.687 H 0 Z M 1.755,-1.5 H 1.23 L 0.982,-0.787 C 0.964,-0.738 0.939,-0.693 0.91,-0.652 0.88,-0.611 0.846,-0.574 0.806,-0.545 0.767,-0.516 0.723,-0.492 0.675,-0.475 0.626,-0.459 0.576,-0.449 0.521,-0.449 H -0.001 L -0.002,-1.5 h -0.487 l 0.003,2.615 h 1.17 C 0.753,1.115 0.819,1.113 0.883,1.111 0.946,1.109 1.006,1.102 1.064,1.09 1.122,1.076 1.178,1.059 1.231,1.035 1.284,1.012 1.335,0.98 1.383,0.937 1.426,0.902 1.463,0.861 1.495,0.814 1.527,0.77 1.553,0.723 1.574,0.672 1.596,0.621 1.611,0.568 1.622,0.514 1.634,0.459 1.639,0.404 1.639,0.352 1.639,0.191 1.6,0.055 1.522,-0.061 1.446,-0.174 1.34,-0.262 1.204,-0.322 1.315,-0.408 1.406,-0.543 1.476,-0.727 Z"
             inkscape:connector-curvature="0" /></g><g
           transform="matrix(1,0,0,0.75,134.4217,64.648039)"
           id="g288"><path
             id="path290"
             style="fill:#d5d5d5;fill-opacity:1;fill-rule:nonzero;stroke:none"
             d="m 0,0 h -0.812 l -0.002,-2.166 h -0.489 l 0.003,2.164 h -0.808 l 10e-4,0.451 H 0 Z"
             inkscape:connector-curvature="0" /></g><g
           transform="matrix(1,0,0,0.75,172.6717,56.894164)"
           id="g292"><path
             id="path294"
             style="fill:#6f7066;fill-opacity:1;fill-rule:nonzero;stroke:none"
             d="m 0,0 -2.409,0.876 -0.719,-2.424 -1.461,-0.723 1.09,3.524 -3.473,1.291 1.461,0.723 2.373,-0.918 0.755,2.466 1.425,0.705 -1.098,-3.553 3.481,-1.262 z"
             inkscape:connector-curvature="0" /></g><g
           transform="matrix(1,0,0,0.75,192.3825,65.902114)"
           id="g296"><path
             id="path298"
             style="fill:#6f7066;fill-opacity:1;fill-rule:nonzero;stroke:none"
             d="m 0,0 0.88,-1.779 -1.521,-0.753 -0.881,1.779 -4.201,1.7 1.644,0.814 2.917,-1.314 0.714,3.111 1.644,0.813 z"
             inkscape:connector-curvature="0" /></g><g
           transform="matrix(1,0,0,0.75,211.8233,67.844989)"
           id="g300"><path
             id="path302"
             style="fill:#6f7066;fill-opacity:1;fill-rule:nonzero;stroke:none"
             d="M 0,0 -0.374,0.756 1.204,5.53 -1.792,4.048 -2.214,4.901 2.624,7.296 3.021,6.494 1.443,1.778 4.8,3.439 5.223,2.585 Z"
             inkscape:connector-curvature="0" /></g><g
           transform="matrix(1,0,0,0.75,180.4995,36.079189)"
           id="g304"><path
             id="path306"
             style="fill:#35353a;fill-opacity:1;fill-rule:nonzero;stroke:none"
             d="M 0,0 -1.879,1.272 -2.43,1.008 -2.544,-1.214 Z m 2.906,-1.029 -0.855,-0.408 -1.378,0.896 -3.242,-1.548 -0.132,-1.617 -0.893,-0.425 0.488,5.666 1.259,0.601 z"
             inkscape:connector-curvature="0" /></g><g
           transform="matrix(1,0,0,0.75,203.2935,47.007589)"
           id="g308"><path
             id="path310"
             style="fill:#35353a;fill-opacity:1;fill-rule:nonzero;stroke:none"
             d="m 0,0 -3.265,-1.542 -0.533,1.129 3.265,1.542 C -0.2,1.286 0.057,1.173 0.236,0.794 0.413,0.419 0.333,0.157 0,0 M 0.893,-1.891 0.38,-2.133 -2.377,-3.424 -2.91,-2.296 -0.123,-0.98 0.36,-0.762 c 0.333,0.157 0.588,0.048 0.763,-0.322 0.179,-0.379 0.103,-0.65 -0.23,-0.807 m 0.074,1.828 C 1.207,0.162 1.241,0.5 1.08,0.948 L 0.908,1.335 C 0.552,2.089 -0.067,2.256 -0.941,1.843 l -3.953,-1.867 0.342,-0.745 1.422,-3.011 0.364,-0.75 3.953,1.866 c 0.874,0.413 1.137,1 0.783,1.75 l -0.189,0.379 c -0.207,0.331 -0.476,0.489 -0.814,0.472"
             inkscape:connector-curvature="0" /></g><g
           transform="matrix(1,0,0,0.75,227.1077,53.931514)"
           id="g312"><path
             id="path314"
             style="fill:#35353a;fill-opacity:1;fill-rule:nonzero;stroke:none"
             d="m 0,0 -1.919,-0.791 c -1.288,-0.524 -0.964,-0.992 -0.543,-2.018 0.42,-1.027 0.515,-1.585 1.798,-1.059 l 3.396,1.39 0.315,-0.77 -3.39,-1.393 c -1.793,-0.737 -2.248,-0.028 -2.879,1.512 -0.631,1.54 -0.813,2.369 0.966,3.104 L 1.155,1.372 1.468,0.608 Z"
             inkscape:connector-curvature="0" /></g></g></g></g></svg>