<?xml version="1.0" encoding="UTF-8" standalone="no"?>
<!-- Generator: Adobe Illustrator 16.0.3, SVG Export Plug-In . SVG Version: 6.00 Build 0)  -->

<svg
   xmlns:dc="http://purl.org/dc/elements/1.1/"
   xmlns:cc="http://creativecommons.org/ns#"
   xmlns:rdf="http://www.w3.org/1999/02/22-rdf-syntax-ns#"
   xmlns:svg="http://www.w3.org/2000/svg"
   xmlns="http://www.w3.org/2000/svg"
   xmlns:sodipodi="http://sodipodi.sourceforge.net/DTD/sodipodi-0.dtd"
   xmlns:inkscape="http://www.inkscape.org/namespaces/inkscape"
   version="1.1"
   id="Layer_1"
   x="0px"
   y="0px"
   width="566.93201"
   height="66.365341"
   viewBox="0 0 566.93199 66.365339"
   enable-background="new 0 0 566.929 92.175"
   xml:space="preserve"
   sodipodi:docname="logo.svg"
   inkscape:version="0.92.2 (5c3e80d, 2017-08-06)"><metadata
     id="metadata21"><rdf:RDF><cc:Work
         rdf:about=""><dc:format>image/svg+xml</dc:format><dc:type
           rdf:resource="http://purl.org/dc/dcmitype/StillImage" /><dc:title></dc:title></cc:Work></rdf:RDF></metadata><defs
     id="defs19" /><sodipodi:namedview
     pagecolor="#ffffff"
     bordercolor="#666666"
     borderopacity="1"
     objecttolerance="10"
     gridtolerance="10"
     guidetolerance="10"
     inkscape:pageopacity="0"
     inkscape:pageshadow="2"
     inkscape:window-width="1920"
     inkscape:window-height="1017"
     id="namedview17"
     showgrid="false"
     inkscape:zoom="0.61559735"
     inkscape:cx="-41.423177"
     inkscape:cy="46.087221"
     inkscape:window-x="-8"
     inkscape:window-y="-8"
     inkscape:window-maximized="1"
     inkscape:current-layer="g14"
     fit-margin-top="0"
     fit-margin-left="0"
     fit-margin-right="0"
     fit-margin-bottom="0" /><g
     id="g14"
     transform="translate(0,-25.809384)"><g
       id="g4"
       style="fill:#990033;fill-opacity:1"
       transform="matrix(1,0,0,0.72,0,25.808923)"><path
         d="m 18.421,92.138 1.372,-18.127 h 7.505 l 1.511,18.127 H 47.331 L 35.72,0.45 H 11.787 L 0,92.138 h 18.421 m 7.792,-33.255 h -5.337 l 2.706,-35.63 2.631,35.63 M 77.555,0.45 H 51.749 V 92.138 H 69.401 V 39.921 l 7.301,52.216 H 88.165 L 95.179,40.205 V 92.137 H 112.83 V 0.45 H 86.987 L 82.188,40.948 77.555,0.45 m 38.488,11.158 c -0.012,6.318 -0.084,12.634 -0.033,18.955 0.033,1.033 0.096,2.065 0.156,2.808 0.134,1.565 0.257,2.042 0.518,3.058 0.268,1.004 0.72,2.259 1.432,3.368 0.334,0.531 0.71,1.036 1.269,1.646 0.559,0.61 1.301,1.325 2.083,1.993 1.611,1.394 3.367,2.47 5.129,3.4 3.851,2.129 7.678,4.232 11.555,6.39 0.52,0.329 1.071,0.605 1.619,1.137 1.332,1.28 1.328,2.768 1.309,4.191 l 0.074,1.98 0.028,12.415 c 0.012,0.907 -0.075,1.802 -0.512,2.765 -0.149,0.28 -0.354,0.539 -0.6,0.75 -0.782,0.651 -1.768,0.822 -2.742,0.433 -0.3,-0.125 -0.576,-0.306 -0.81,-0.531 -0.982,-0.945 -0.869,-2.287 -1.01,-3.438 L 135.5,54.243 h -19.514 l 0.02,20.921 c 0.016,2.568 0.033,5.002 0.589,7.518 0.299,1.297 0.776,2.645 1.5,3.852 0.724,1.207 1.691,2.273 2.826,3.106 1.134,0.832 2.434,1.43 3.461,1.785 1.028,0.355 1.784,0.467 2.54,0.558 0.756,0.091 1.511,0.191 2.269,0.191 l 19.826,-0.001 c 0.898,0 1.798,0.04 2.905,-0.265 1.109,-0.304 2.422,-0.844 3.557,-1.565 1.137,-0.722 2.096,-1.625 2.756,-2.593 0.66,-0.968 1.023,-2.002 1.336,-2.934 0.313,-0.932 0.574,-1.763 0.765,-2.872 0.191,-1.108 0.313,-2.494 0.382,-3.881 0.066,-1.387 0.033,-2.775 0.033,-4.163 V 59.203 c 0,-0.276 0,-0.553 -0.008,-1.174 -0.006,-0.621 -0.018,-1.586 -0.061,-2.689 -0.043,-1.104 -0.118,-2.344 -0.186,-3.146 -0.067,-0.801 -0.127,-1.163 -0.201,-1.523 -0.074,-0.359 -0.164,-0.715 -0.265,-1.069 -0.101,-0.353 -0.212,-0.704 -0.495,-1.312 -0.281,-0.607 -0.733,-1.473 -1.278,-2.277 -0.544,-0.804 -1.18,-1.546 -1.89,-2.208 -0.711,-0.661 -1.496,-1.24 -2.37,-1.838 -1.807,-1.227 -3.822,-2.482 -5.766,-3.56 l -8.284,-4.52 c -0.499,-0.272 -0.991,-0.557 -1.466,-0.869 -0.476,-0.313 -0.935,-0.647 -1.211,-0.857 -0.497,-0.379 -0.498,-0.429 -0.707,-0.651 -0.082,-0.093 -0.161,-0.188 -0.298,-0.413 -0.312,-0.497 -0.689,-1.371 -0.759,-2.11 -0.049,-0.397 -0.007,-0.797 -0.007,-1.198 0.005,-2.886 -0.015,-5.865 0.014,-8.657 -0.017,-0.65 -0.001,-1.393 0.24,-2.087 0.111,-0.341 0.257,-0.671 0.438,-0.949 0.94,-1.257 2.065,-1.441 3.305,-0.92 0.282,0.147 0.542,0.359 0.762,0.606 0.22,0.247 0.4,0.527 0.529,0.83 0.128,0.302 0.206,0.625 0.257,1.072 0.105,0.921 0.114,2.188 0.107,3.302 V 31.89 h 19.598 c -0.021,-5.63 0.068,-11.255 -0.063,-16.891 -0.055,-1.304 -0.149,-2.607 -0.229,-3.466 -0.079,-0.859 -0.145,-1.273 -0.227,-1.684 -0.085,-0.411 -0.185,-0.817 -0.301,-1.221 -0.116,-0.403 -0.245,-0.803 -0.553,-1.489 -0.307,-0.686 -0.79,-1.657 -1.424,-2.523 C 157.318,3.75 156.533,2.991 155.65,2.376 154.766,1.761 153.785,1.292 152.943,0.989 151.286,0.42 150.024,0.324 148.584,0.14 147.878,0.065 147.17,-0.005 146.46,0.001 l -16.964,0.136 c -1.947,0.063 -3.875,0.305 -5.903,0.873 -0.618,0.189 -1.198,0.427 -1.75,0.719 -1.11,0.606 -2.034,1.269 -2.993,2.447 -0.483,0.599 -0.994,1.363 -1.413,2.174 -0.847,1.661 -1.354,3.472 -1.394,5.258 M 163.976,0.45 v 14.789 h 9.775 v 76.898 h 19.598 V 15.239 h 9.701 V 0.45 h -39.074 m 65.204,0 h -20.866 v 91.688 h 19.569 V 55.591 c 1.282,0.049 2.563,-0.108 3.863,0.293 0.274,0.098 0.531,0.246 0.752,0.435 0.904,0.776 0.834,1.767 0.973,2.703 0.17,1.881 0.037,3.771 0.084,5.654 v 27.461 h 19.568 l -0.018,-28.663 c -0.031,-2.825 -0.223,-5.624 -0.839,-8.45 -0.173,-0.638 -0.402,-1.276 -0.688,-1.905 -0.433,-1.004 -1.019,-1.943 -1.732,-2.772 -0.713,-0.829 -1.554,-1.549 -2.482,-2.126 -0.928,-0.577 -1.947,-1.011 -3.006,-1.285 0.511,-0.127 1.017,-0.287 1.519,-0.48 1.007,-0.383 1.952,-0.93 2.786,-1.612 0.833,-0.683 1.555,-1.502 2.127,-2.415 0.57,-0.913 0.993,-1.919 1.248,-2.966 0.209,-0.75 0.384,-1.504 0.525,-2.262 0.459,-3.09 0.623,-6.187 0.561,-9.291 v -9.6 c 0.061,-1.895 -0.029,-3.802 -0.271,-5.699 -0.118,-0.945 -0.274,-1.886 -0.442,-2.666 -0.167,-0.781 -0.346,-1.402 -0.578,-2.004 -0.232,-0.602 -0.516,-1.184 -0.846,-1.737 -0.331,-0.554 -0.709,-1.079 -1.129,-1.569 -0.656,-0.7 -1.396,-1.321 -2.201,-1.844 -1.67,-1.083 -3.544,-1.688 -5.393,-1.846 C 237.91,0.438 233.543,0.581 229.18,0.45 m -1.297,14.908 c 0.924,0.007 1.841,0.018 2.768,0.022 0.442,0.04 0.895,0.152 1.333,0.35 1.273,0.838 1.338,1.902 1.454,2.93 0.082,1.154 0.078,2.315 0.117,3.474 -0.016,4.017 0.051,8.032 -0.047,12.048 -0.01,0.717 -0.07,1.432 -0.177,2.146 -0.033,0.334 -0.131,0.663 -0.288,0.96 -0.156,0.297 -0.371,0.563 -0.629,0.779 -0.592,0.533 -1.38,0.56 -2.091,0.644 -0.81,0.077 -1.627,0.086 -2.44,0.029 V 15.358 m 47.692,76.78 1.371,-18.127 h 7.506 l 1.51,18.127 h 18.522 L 292.874,0.45 H 268.94 l -11.785,91.688 h 18.42 m 7.793,-33.255 h -5.338 l 2.706,-35.63 2.632,35.63 M 351.087,6.108 c -0.671,-1.077 -1.538,-2.035 -2.546,-2.802 -1.01,-0.768 -2.158,-1.345 -3.013,-1.688 -0.855,-0.343 -1.415,-0.451 -1.974,-0.55 -0.561,-0.099 -1.12,-0.187 -1.682,-0.252 -0.563,-0.064 -1.127,-0.105 -2.467,-0.165 -1.34,-0.059 -3.455,-0.191 -5.571,-0.192 L 308.46,0.45 v 91.688 l 31.104,-0.052 c 0.774,-0.002 1.532,-0.222 2.292,-0.356 1.605,-0.289 3.016,-0.594 4.523,-1.276 0.793,-0.356 1.646,-0.831 2.421,-1.416 0.774,-0.585 1.472,-1.282 2.13,-2.356 0.658,-1.075 1.277,-2.526 1.732,-4.301 0.453,-1.774 0.801,-3.871 0.796,-5.971 l -0.136,-62.58 c -0.004,-1.429 -0.362,-2.84 -0.727,-4.146 -0.362,-1.305 -0.837,-2.499 -1.508,-3.576 m -21.824,9.33 c 0.417,0 0.835,-0.033 1.238,0.017 0.405,0.05 0.792,0.144 1.112,0.244 0.32,0.1 0.57,0.209 0.795,0.359 0.224,0.15 0.421,0.342 0.578,0.562 0.678,1.017 0.594,2.464 0.654,3.747 V 73.17 c 0,0.39 -0.002,0.78 -0.057,1.16 -0.057,0.378 -0.149,0.746 -0.271,1.065 -0.122,0.319 -0.272,0.592 -0.472,0.824 -0.198,0.232 -0.445,0.423 -0.715,0.576 -0.27,0.153 -0.554,0.339 -0.865,0.339 h -3.205 V 15.438 h 1.208"
         id="path2"
         style="fill:#990033;fill-opacity:1"
         inkscape:connector-curvature="0" /></g><g
       id="g12"
       style="fill:#999999;fill-opacity:1"
       transform="matrix(1,0,0,0.72,0,25.808923)"><path
         d="m 429.747,82.679 h -21.398 c -2.561,-0.081 -4.542,-0.188 -5.889,-0.313 -1.109,-0.104 -1.934,-0.477 -2.565,-1.178 -0.588,-0.59 -0.938,-1.54 -1.046,-2.821 -0.127,-1.505 -0.23,-3.796 -0.313,-6.783 V 20.113 c 0,-2.498 0.082,-4.492 0.245,-5.927 0.142,-1.25 0.579,-2.192 1.366,-2.913 0.689,-0.691 1.471,-1.078 2.391,-1.18 1.098,-0.122 3.085,-0.185 5.906,-0.185 h 21.303 v 14.871 h 9.966 V 0.45 h -33.769 c -2.479,0 -4.978,0.152 -7.428,0.452 -2.611,0.322 -4.953,1.41 -6.992,3.267 -2.102,2.102 -3.329,4.65 -3.65,7.576 -0.298,2.721 -0.449,6.049 -0.449,9.893 V 73.11 c 0,3.428 0.152,6.335 0.453,8.642 0.323,2.499 1.422,4.7 3.265,6.54 1.84,1.843 4.101,2.962 6.722,3.329 2.444,0.344 5.592,0.518 9.351,0.518 h 32.626 v -24.33 h -10.094 v 14.87 z"
         id="path6"
         style="fill:#999999;fill-opacity:1"
         inkscape:connector-curvature="0" /><path
         d="m 506.18,16.3 c 0,-1.792 -0.064,-3.528 -0.193,-5.16 -0.135,-1.718 -0.531,-3.268 -1.176,-4.608 -0.66,-1.364 -1.656,-2.554 -2.963,-3.535 -1.298,-0.971 -3.1,-1.693 -5.408,-2.155 -0.612,-0.086 -1.18,-0.152 -1.71,-0.198 -0.517,-0.042 -1.182,-0.084 -1.997,-0.129 -0.836,-0.042 -1.92,-0.064 -3.229,-0.064 h -41.331 v 9.458 h 8.641 V 82.68 h -8.641 v 9.458 h 28.522 V 82.68 h -8.769 V 50.451 h 20.678 c 1.799,0 3.563,-0.043 5.24,-0.128 1.762,-0.087 3.396,-0.357 4.861,-0.803 1.535,-0.467 2.904,-1.272 4.068,-2.394 1.165,-1.123 2.082,-2.667 2.729,-4.612 0.359,-1.171 0.585,-2.487 0.676,-3.914 0.084,-1.38 0.084,-3.208 0.002,-5.397 z m -10.73,3.6 v 11.482 c 0,2.177 -0.063,3.971 -0.188,5.334 -0.107,1.208 -0.422,2.15 -0.932,2.8 -0.484,0.618 -1.316,1.057 -2.473,1.304 -1.317,0.282 -3.27,0.426 -5.803,0.426 H 467.925 V 9.909 h 17.623 c 2.479,0 4.438,0.083 5.83,0.25 1.213,0.144 2.111,0.485 2.667,1.012 0.548,0.521 0.917,1.423 1.096,2.68 0.205,1.438 0.309,3.474 0.309,6.049 z"
         id="path8"
         style="fill:#999999;fill-opacity:1"
         inkscape:connector-curvature="0" /><path
         d="M 556.834,67.809 V 82.68 h -21.398 c -2.56,-0.081 -4.541,-0.188 -5.889,-0.313 -1.107,-0.104 -1.935,-0.477 -2.563,-1.178 -0.588,-0.59 -0.94,-1.54 -1.047,-2.822 -0.125,-1.5 -0.231,-3.79 -0.313,-6.782 V 20.113 c 0,-2.498 0.082,-4.492 0.245,-5.926 0.146,-1.252 0.579,-2.194 1.368,-2.914 0.689,-0.692 1.472,-1.078 2.389,-1.18 1.098,-0.122 3.085,-0.185 5.906,-0.185 h 21.303 v 14.871 h 9.969 V 0.45 h -33.771 c -2.478,0 -4.976,0.152 -7.426,0.452 -2.613,0.322 -4.955,1.41 -6.994,3.267 -2.101,2.102 -3.328,4.65 -3.648,7.575 -0.299,2.718 -0.451,6.047 -0.451,9.894 V 73.11 c 0,3.43 0.152,6.338 0.453,8.642 0.324,2.499 1.422,4.699 3.266,6.54 1.84,1.843 4.103,2.962 6.721,3.329 2.445,0.344 5.591,0.518 9.352,0.518 h 32.626 v -24.33 z"
         id="path10"
         style="fill:#999999;fill-opacity:1"
         inkscape:connector-curvature="0" /></g></g></svg>