<?xml version="1.0" encoding="UTF-8" standalone="no"?>
<!-- Generator: Adobe Illustrator 13.0.0, SVG Export Plug-In . SVG Version: 6.00 Build 14948)  -->

<svg
   xmlns:ns="&amp;#38;ns_sfw;"
   xmlns:dc="http://purl.org/dc/elements/1.1/"
   xmlns:cc="http://creativecommons.org/ns#"
   xmlns:rdf="http://www.w3.org/1999/02/22-rdf-syntax-ns#"
   xmlns:svg="http://www.w3.org/2000/svg"
   xmlns="http://www.w3.org/2000/svg"
   xmlns:sodipodi="http://sodipodi.sourceforge.net/DTD/sodipodi-0.dtd"
   xmlns:inkscape="http://www.inkscape.org/namespaces/inkscape"
   version="1.2"
   id="Layer_3"
   x="0px"
   y="0px"
   width="147.01059"
   height="247.782"
   viewBox="0 0 147.01058 247.78199"
   xml:space="preserve"
   inkscape:version="0.92.2 (5c3e80d, 2017-08-06)"
   sodipodi:docname="controller.svg"><defs
     id="defs49" /><sodipodi:namedview
     pagecolor="#ffffff"
     bordercolor="#666666"
     borderopacity="1"
     objecttolerance="10"
     gridtolerance="10"
     guidetolerance="10"
     inkscape:pageopacity="0"
     inkscape:pageshadow="2"
     inkscape:window-width="1920"
     inkscape:window-height="1017"
     id="namedview47"
     showgrid="false"
     fit-margin-top="0"
     fit-margin-left="0"
     fit-margin-right="0"
     fit-margin-bottom="0"
     inkscape:zoom="0.48145317"
     inkscape:cx="74.578759"
     inkscape:cy="166.02499"
     inkscape:window-x="-8"
     inkscape:window-y="-8"
     inkscape:window-maximized="1"
     inkscape:current-layer="Layer_3" /><metadata
     id="metadata55"><rdf:RDF><cc:Work
         rdf:about=""><dc:format>image/svg+xml</dc:format><dc:type
           rdf:resource="http://purl.org/dc/dcmitype/StillImage" /><dc:title></dc:title></cc:Work></rdf:RDF><ns:sfw><ns:slices /><ns:sliceSourceBounds
         x="885.921"
         y="373.476"
         width="147.01"
         height="330.375"
         bottomLeftOrigin="true" /></ns:sfw></metadata><path
     id="polyline3"
     inkscape:connector-curvature="0"
     d="m 4.0142458,0 v 0.693 l 1.099,142.01025 h 1.849 L 5.8622458,1.368 H 141.37025 l -1.1,141.33525 h 1.823 l 1.1,-142.01025 V 0 h -0.899 H 4.9392458 Z"
     style="fill:#eaeaea;stroke-width:0.86602539" /><path
     id="polyline5"
     inkscape:connector-curvature="0"
     d="m 6.9372458,142.6275 -1.823,0.15 15.3900002,103.2795 0.099,0.61875 h 0.825 34.375 v -1.36725 h -33.577 z"
     style="fill:#eaeaea;stroke-width:0.86602539" /><path
     id="polyline7"
     inkscape:connector-curvature="0"
     d="m 140.27125,142.6275 -15.29,102.681 H 91.455246 v 1.36725 h 34.353004 0.823 l 0.075,-0.61875 15.389,-103.2795 z"
     style="fill:#eaeaea;stroke-width:0.86602539" /><path
     id="path9"
     inkscape:connector-curvature="0"
     d="m 30.945246,159.06075 c -1.159,0 -2.148,0.696 -2.148,1.57425 v 13.50975 c 0,0.87675 0.989,1.5735 2.148,1.5735 h 24.009 c 0.804,0 1.406,-0.38025 1.774,-0.88125 h 0.375 V 174.14475 160.635 c 0,-0.87825 -0.964,-1.57425 -2.124,-1.57425 z m 0,1.368 h 24.034 c 0.199,0 0.3,0.0945 0.3,0.20625 v 12.816 0.69375 c 0,0.11025 -0.125,0.2055 -0.325,0.2055 h -24.009 c -0.2,0 -0.324,-0.0953 -0.324,-0.2055 V 160.635 c 0,-0.11175 0.125,-0.20625 0.324,-0.20625 z"
     style="fill:#eaeaea;stroke-width:0.86602539" /><g
     id="g11"
     transform="matrix(1,0,0,0.75,-224.51575,-8.08425)"><path
       id="path13"
       d="m 273.416,45.92 c 0,0.463 -0.386,0.836 -0.862,0.836 h -25.279 c -0.477,0 -0.864,-0.373 -0.864,-0.836 V 26.702 c 0,-0.463 0.386,-0.836 0.864,-0.836 h 25.279 c 0.476,0 0.862,0.374 0.862,0.836 z"
       inkscape:connector-curvature="0"
       style="fill:none;stroke:#eaeaea;stroke-width:1.83130002" /><path
       id="path15"
       d="m 311.629,45.92 c 0,0.463 -0.387,0.836 -0.864,0.836 h -25.278 c -0.476,0 -0.862,-0.373 -0.862,-0.836 V 26.702 c 0,-0.463 0.386,-0.836 0.862,-0.836 h 25.278 c 0.478,0 0.864,0.374 0.864,0.836 z"
       inkscape:connector-curvature="0"
       style="fill:none;stroke:#eaeaea;stroke-width:1.83130002" /><path
       id="path17"
       d="m 349.843,45.92 c 0,0.463 -0.387,0.836 -0.863,0.836 H 323.7 c -0.476,0 -0.864,-0.373 -0.864,-0.836 V 26.702 c 0,-0.463 0.389,-0.836 0.864,-0.836 h 25.279 c 0.477,0 0.863,0.374 0.863,0.836 V 45.92 Z"
       inkscape:connector-curvature="0"
       style="fill:none;stroke:#eaeaea;stroke-width:1.83130002" /></g><path
     id="path19"
     inkscape:connector-curvature="0"
     d="m 61.950246,159.06075 c -1.16,0 -2.149,0.696 -2.149,1.57425 v 13.50975 c 0,0.87675 0.989,1.5735 2.149,1.5735 h 24.033 c 0.804,0 1.383,-0.3825 1.749,-0.88125 h 0.4 V 174.14475 160.635 c 0,-0.87675 -0.99,-1.57425 -2.149,-1.57425 z m 0,1.368 h 24.033 c 0.199,0 0.301,0.0937 0.301,0.20625 v 12.816 0.69375 c 0,0.111 -0.102,0.2055 -0.301,0.2055 h -24.033 c -0.2,0 -0.326,-0.0953 -0.326,-0.2055 V 160.635 c 10e-4,-0.11175 0.126,-0.20625 0.326,-0.20625 z"
     style="fill:#eaeaea;stroke-width:0.86602539" /><path
     id="path21"
     inkscape:connector-curvature="0"
     d="m 92.354246,159.06075 c -1.159,0 -2.147,0.6975 -2.147,1.57425 v 13.50975 c 0,0.87525 0.988,1.5735 2.147,1.5735 h 24.033004 c 1.159,0 2.124,-0.69825 2.124,-1.5735 V 160.635 c 0,-0.87675 -0.965,-1.57425 -2.124,-1.57425 z m 0,1.368 h 24.033004 c 0.197,0 0.299,0.0937 0.299,0.20625 v 13.50975 c 0,0.111 -0.102,0.2055 -0.299,0.2055 H 92.354246 c -0.201,0 -0.325,-0.0945 -0.325,-0.2055 V 160.635 c 0,-0.1125 0.124,-0.20625 0.325,-0.20625 z"
     style="fill:#eaeaea;stroke-width:0.86602539" /><path
     id="path23"
     inkscape:connector-curvature="0"
     d="m 30.945246,179.5785 c -1.159,0 -2.148,0.696 -2.148,1.5735 v 13.50975 c 0,0.8775 0.989,1.575 2.148,1.575 h 24.009 c 0.806,0 1.409,-0.396 1.774,-0.89925 h 0.375 v -0.675 -13.50975 c 0,-0.8775 -0.964,-1.5735 -2.124,-1.5735 h -24.034 z m 0,1.36725 h 24.034 c 0.199,0 0.3,0.0945 0.3,0.2055 v 12.81675 0.693 c 0,0.1125 -0.125,0.2055 -0.325,0.2055 h -24.009 c -0.2,0 -0.324,-0.093 -0.324,-0.2055 v -13.50975 c 0,-0.111 0.125,-0.2055 0.324,-0.2055 z"
     style="fill:#eaeaea;stroke-width:0.86602539" /><path
     id="path25"
     inkscape:connector-curvature="0"
     d="m 61.950246,179.5785 c -1.16,0 -2.149,0.696 -2.149,1.5735 v 13.50975 c 0,0.8775 0.989,1.575 2.149,1.575 h 24.033 c 0.806,0 1.385,-0.39825 1.749,-0.89925 h 0.4 v -0.675 -13.50975 c 0,-0.876 -0.99,-1.5735 -2.149,-1.5735 h -24.033 z m 0,1.36725 h 24.033 c 0.199,0 0.301,0.0937 0.301,0.2055 v 12.81675 0.693 c 0,0.11325 -0.102,0.2055 -0.301,0.2055 h -24.033 c -0.2,0 -0.326,-0.093 -0.326,-0.2055 v -13.50975 c 10e-4,-0.111 0.126,-0.2055 0.326,-0.2055 z"
     style="fill:#eaeaea;stroke-width:0.86602539" /><path
     id="path27"
     inkscape:connector-curvature="0"
     d="m 92.354246,179.5785 c -1.159,0 -2.147,0.6975 -2.147,1.5735 v 13.50975 c 0,0.87675 0.988,1.575 2.147,1.575 h 24.033004 c 1.159,0 2.124,-0.69825 2.124,-1.575 V 181.152 c 0,-0.876 -0.965,-1.5735 -2.124,-1.5735 z m 0,1.36725 h 24.033004 c 0.197,0 0.299,0.0937 0.299,0.2055 V 194.661 c 0,0.11325 -0.102,0.2055 -0.299,0.2055 H 92.354246 c -0.201,0 -0.325,-0.0923 -0.325,-0.2055 v -13.50975 c 0,-0.11175 0.124,-0.2055 0.325,-0.2055 z"
     style="fill:#eaeaea;stroke-width:0.86602539" /><path
     id="path29"
     inkscape:connector-curvature="0"
     d="m 30.945246,198.52125 c -1.159,0 -2.148,0.71475 -2.148,1.593 v 13.491 c 0,0.876 0.989,1.5915 2.148,1.5915 h 24.009 c 0.804,0 1.406,-0.39975 1.774,-0.8985 h 0.375 v -0.693 -13.491 c 0,-0.87825 -0.964,-1.593 -2.124,-1.593 z m 0,1.36725 h 24.034 c 0.199,0 0.3,0.114 0.3,0.22575 v 12.81675 0.67425 c 0,0.11175 -0.125,0.2055 -0.325,0.2055 h -24.009 c -0.2,0 -0.324,-0.0937 -0.324,-0.2055 v -13.491 c 0,-0.11175 0.125,-0.22575 0.324,-0.22575 z"
     style="fill:#eaeaea;stroke-width:0.86602539" /><path
     id="path31"
     inkscape:connector-curvature="0"
     d="m 61.950246,198.52125 c -1.16,0 -2.149,0.71475 -2.149,1.593 v 13.491 c 0,0.876 0.989,1.5915 2.149,1.5915 h 24.033 c 0.804,0 1.383,-0.4005 1.749,-0.8985 h 0.4 v -0.693 -13.491 c 0,-0.87675 -0.99,-1.593 -2.149,-1.593 z m 0,1.36725 h 24.033 c 0.199,0 0.301,0.11325 0.301,0.22575 v 12.81675 0.67425 c 0,0.1125 -0.102,0.2055 -0.301,0.2055 h -24.033 c -0.2,0 -0.326,-0.0937 -0.326,-0.2055 v -13.491 c 10e-4,-0.11175 0.126,-0.22575 0.326,-0.22575 z"
     style="fill:#eaeaea;stroke-width:0.86602539" /><path
     id="path33"
     inkscape:connector-curvature="0"
     d="m 92.354246,198.52125 c -1.159,0 -2.147,0.71625 -2.147,1.593 v 13.491 c 0,0.876 0.988,1.5915 2.147,1.5915 h 24.033004 c 1.159,0 2.124,-0.7155 2.124,-1.5915 v -13.491 c 0,-0.87675 -0.965,-1.593 -2.124,-1.593 z m 0,1.36725 h 24.033004 c 0.197,0 0.299,0.11325 0.299,0.22575 v 13.491 c 0,0.1125 -0.102,0.2055 -0.299,0.2055 H 92.354246 c -0.201,0 -0.325,-0.093 -0.325,-0.2055 v -13.491 c 0,-0.1125 0.124,-0.22575 0.325,-0.22575 z"
     style="fill:#eaeaea;stroke-width:0.86602539" /><path
     id="path35"
     inkscape:connector-curvature="0"
     d="m 30.945246,217.20225 c -1.159,0 -2.148,0.717 -2.148,1.593 v 13.491 c 0,0.87675 0.989,1.5735 2.148,1.5735 h 24.009 c 0.804,0 1.406,-0.38175 1.774,-0.88125 h 0.375 v -0.69225 -13.491 c 0,-0.876 -0.964,-1.593 -2.124,-1.593 z m 0,1.368 h 24.034 c 0.199,0 0.3,0.1125 0.3,0.225 v 12.79725 0.6945 c 0,0.111 -0.125,0.2055 -0.325,0.2055 h -24.009 c -0.2,0 -0.324,-0.0945 -0.324,-0.2055 v -13.491 c 0,-0.11325 0.125,-0.22575 0.324,-0.22575 z"
     style="fill:#eaeaea;stroke-width:0.86602539" /><path
     id="path37"
     inkscape:connector-curvature="0"
     d="m 61.950246,217.20225 c -1.16,0 -2.149,0.717 -2.149,1.593 v 13.491 c 0,0.87675 0.989,1.5735 2.149,1.5735 h 24.033 c 0.804,0 1.383,-0.384 1.749,-0.88125 h 0.4 v -0.69225 -13.491 c 0,-0.876 -0.99,-1.593 -2.149,-1.593 z m 0,1.368 h 24.033 c 0.199,0 0.301,0.111 0.301,0.225 v 12.79725 0.6945 c 0,0.111 -0.102,0.2055 -0.301,0.2055 h -24.033 c -0.2,0 -0.326,-0.0945 -0.326,-0.2055 v -13.491 c 10e-4,-0.11325 0.126,-0.22575 0.326,-0.22575 z"
     style="fill:#eaeaea;stroke-width:0.86602539" /><path
     id="path39"
     inkscape:connector-curvature="0"
     d="m 92.354246,217.20225 c -1.159,0 -2.147,0.717 -2.147,1.593 v 13.491 c 0,0.876 0.988,1.5735 2.147,1.5735 h 24.033004 c 1.159,0 2.124,-0.6975 2.124,-1.5735 v -13.491 c 0,-0.876 -0.965,-1.593 -2.124,-1.593 z m 0,1.368 h 24.033004 c 0.197,0 0.299,0.111 0.299,0.225 v 13.491 c 0,0.111 -0.102,0.2055 -0.299,0.2055 H 92.354246 c -0.201,0 -0.325,-0.0945 -0.325,-0.2055 v -13.491 c 0,-0.114 0.124,-0.225 0.325,-0.225 z"
     style="fill:#eaeaea;stroke-width:0.86602539" /><path
     id="rect41"
     inkscape:connector-curvature="0"
     d="m 54.755246,236.24025 v 0.693 10.15575 0.693 h 0.899 35.902 0.923 v -0.693 -10.15575 -0.693 h -0.923 -35.902 z m 1.824,1.36725 h 34.051 v 8.78775 h -34.051 z"
     style="fill:#eaeaea;stroke-width:0.86602539" /><path
     id="line47"
     inkscape:connector-curvature="0"
     d="M 6.2132458,127.44975 V 128.838 H 141.37125 v -1.38825 z"
     style="fill:#eaeaea;stroke-width:0.86602539" /><path
     id="line49"
     inkscape:connector-curvature="0"
     d="m 6.2132458,142.83375 v 1.3875 H 141.37125 v -1.3875 z"
     style="fill:#eaeaea;stroke-width:0.86602539" /><g
     id="g51"
     transform="matrix(1,0,0,0.75,-224.51575,-8.08425)"><path
       d="m 300.526,149.218 c -0.037,-0.545 -0.481,-0.97 -1.026,-0.97 v 0 c -0.547,0 -0.988,0.425 -1.025,0.97 v 0 l -0.062,0.91 -0.91,-0.056 c -4.301,-0.268 -8.371,-1.399 -12.036,-3.22 v 0 l -0.819,-0.406 0.404,-0.817 c 0.076,-0.155 0.111,-0.314 0.111,-0.469 v 0 c -0.002,-0.361 -0.182,-0.699 -0.514,-0.891 v 0 c -0.165,-0.095 -0.333,-0.136 -0.508,-0.136 v 0 c -0.336,0 -0.667,0.165 -0.867,0.466 v 0 l -0.508,0.761 -0.762,-0.507 c -3.486,-2.324 -6.482,-5.321 -8.808,-8.807 v 0 l -0.506,-0.761 0.76,-0.508 c 0.301,-0.2 0.466,-0.533 0.466,-0.869 v 0 c 0,-0.173 -0.042,-0.344 -0.136,-0.507 v 0 c -0.194,-0.334 -0.533,-0.512 -0.894,-0.514 v 0 c -0.157,0 -0.312,0.035 -0.462,0.109 v 0 l -0.821,0.407 -0.407,-0.819 c -1.82,-3.666 -2.949,-7.735 -3.217,-12.036 v 0 l -0.058,-0.91 0.91,-0.06 c 0.545,-0.037 0.97,-0.481 0.97,-1.025 v 0 c 0,-0.547 -0.425,-0.991 -0.97,-1.028 v 0 l -0.91,-0.062 0.058,-0.91 c 0.266,-4.301 1.397,-8.369 3.217,-12.034 v 0 l 0.407,-0.817 0.817,0.405 c 0.15,0.074 0.31,0.109 0.466,0.109 v 0 c 0.361,-0.002 0.702,-0.182 0.892,-0.512 v 0 c 0.097,-0.167 0.138,-0.338 0.138,-0.512 v 0 c 0,-0.334 -0.165,-0.667 -0.464,-0.865 v 0 l -0.764,-0.508 0.508,-0.761 c 2.324,-3.488 5.32,-6.485 8.806,-8.809 v 0 l 0.762,-0.51 0.51,0.764 c 0.198,0.299 0.528,0.466 0.865,0.466 v 0 c 0.175,0 0.347,-0.043 0.51,-0.136 v 0 c 0.33,-0.192 0.512,-0.532 0.512,-0.892 v 0 c 0,-0.159 -0.033,-0.315 -0.107,-0.464 v 0 l -0.406,-0.821 0.819,-0.407 c 3.665,-1.82 7.735,-2.949 12.034,-3.219 v 0 l 0.91,-0.058 0.062,0.913 c 0.04,0.544 0.481,0.972 1.028,0.97 v 0 c 0.542,0.002 0.989,-0.425 1.026,-0.97 v 0 l 0.06,-0.91 0.91,0.056 c 4.301,0.27 8.371,1.399 12.036,3.219 v 0 l 0.827,0.411 -0.419,0.825 c -0.071,0.143 -0.106,0.295 -0.106,0.456 v 0 c 0.002,0.359 0.182,0.698 0.514,0.89 v 0 c 0.161,0.095 0.336,0.138 0.51,0.138 v 0 c 0.338,-0.002 0.666,-0.167 0.866,-0.466 v 0 l 0.508,-0.764 0.764,0.51 c 3.484,2.324 6.48,5.321 8.805,8.806 v 0 l 0.51,0.764 -0.766,0.508 c -0.3,0.198 -0.465,0.528 -0.465,0.867 v 0 c 0,0.171 0.042,0.343 0.141,0.51 v 0 c 0.188,0.331 0.526,0.51 0.89,0.512 v 0 c 0.159,0 0.315,-0.035 0.466,-0.109 v 0 l 0.817,-0.405 0.409,0.817 c 1.82,3.666 2.949,7.733 3.217,12.034 v 0 l 0.059,0.912 -0.91,0.06 c -0.545,0.035 -0.971,0.48 -0.971,1.028 v 0 c 0,0.544 0.424,0.988 0.971,1.025 v 0 l 0.908,0.06 -0.057,0.912 c -0.268,4.301 -1.396,8.369 -3.217,12.034 v 0 l -0.409,0.821 -0.819,-0.409 c -0.152,-0.076 -0.305,-0.109 -0.464,-0.109 v 0 c -0.361,0.002 -0.697,0.18 -0.892,0.512 v 0 l -0.793,-0.456 0.789,0.464 c -0.093,0.159 -0.135,0.326 -0.135,0.501 v 0 c 0,0.334 0.167,0.667 0.469,0.867 v 0 l 0.764,0.507 -0.508,0.764 c -2.326,3.486 -5.322,6.482 -8.809,8.807 v 0 l -0.762,0.505 -0.507,-0.757 c -0.205,-0.306 -0.533,-0.468 -0.867,-0.468 v 0 c -0.171,0 -0.345,0.041 -0.514,0.138 v 0 c -0.33,0.19 -0.508,0.528 -0.512,0.892 v 0 c 0,0.155 0.035,0.312 0.111,0.464 v 0 l 0.406,0.819 -0.819,0.409 c -3.663,1.82 -7.733,2.949 -12.034,3.217 v 0 l -0.912,0.056 z m -3.668,-1.031 c 0.429,-1.036 1.445,-1.77 2.642,-1.77 v 0 c 1.197,0 2.213,0.732 2.642,1.77 v 0 c 3.509,-0.308 6.837,-1.223 9.886,-2.642 v 0 c -0.017,-0.127 -0.025,-0.255 -0.025,-0.382 v 0 c -0.002,-0.982 0.51,-1.951 1.431,-2.479 v 0 c 0.445,-0.258 0.94,-0.384 1.426,-0.384 v 0 c 0.63,0 1.246,0.21 1.749,0.598 v 0 c 2.809,-1.977 5.26,-4.428 7.238,-7.236 v 0 c -0.39,-0.503 -0.6,-1.122 -0.6,-1.753 v 0 c 0,-0.478 0.122,-0.975 0.386,-1.423 v 0 l -0.002,-10e-4 c 0.528,-0.917 1.494,-1.432 2.479,-1.43 v 0 c 0.127,0 0.255,0.008 0.383,0.026 v 0 c 1.418,-3.05 2.334,-6.38 2.644,-9.887 v 0 c -1.037,-0.43 -1.77,-1.446 -1.77,-2.642 v 0 c 0,-1.197 0.732,-2.215 1.77,-2.645 v 0 c -0.31,-3.507 -1.226,-6.838 -2.645,-9.888 v 0 c -0.128,0.017 -0.255,0.026 -0.382,0.026 v 0 c -0.984,0.002 -1.95,-0.512 -2.477,-1.426 v 0 c -0.26,-0.448 -0.386,-0.943 -0.386,-1.426 v 0 c 0,-0.63 0.209,-1.248 0.598,-1.751 v 0 c -1.979,-2.809 -4.43,-5.26 -7.237,-7.238 v 0 c -0.503,0.387 -1.121,0.596 -1.75,0.596 v 0 c -0.485,0 -0.98,-0.124 -1.424,-0.382 v 0 c -0.919,-0.528 -1.433,-1.494 -1.431,-2.477 v 0 c 0,-0.127 0.009,-0.255 0.025,-0.383 v 0 c -3.05,-1.418 -6.381,-2.334 -9.888,-2.643 v 0 c -0.429,1.036 -1.443,1.77 -2.64,1.771 v 0 c -1.199,-0.001 -2.214,-0.736 -2.644,-1.771 v 0 c -3.509,0.309 -6.838,1.225 -9.889,2.644 v 0 c 0.017,0.127 0.025,0.255 0.025,0.382 v 0 c 0.002,0.982 -0.512,1.946 -1.428,2.477 v 0 c -0.448,0.258 -0.941,0.384 -1.426,0.382 v 0 c -0.629,0 -1.247,-0.209 -1.75,-0.596 v 0 c -2.808,1.978 -5.259,4.43 -7.236,7.239 v 0 c 0.387,0.503 0.596,1.12 0.596,1.749 v 0 c 0,0.485 -0.126,0.979 -0.384,1.426 v 0 c -0.528,0.918 -1.494,1.43 -2.479,1.428 v 0 c -0.127,0 -0.254,-0.009 -0.381,-0.026 v 0 c -1.418,3.05 -2.335,6.38 -2.643,9.888 v 0 c 1.036,0.429 1.768,1.447 1.77,2.645 v 0 c 0,1.196 -0.733,2.212 -1.769,2.642 v 0 c 0.309,3.507 1.225,6.837 2.643,9.887 v 0 c 0.127,-0.018 0.254,-0.026 0.381,-0.026 v 0 c 0.984,-0.002 1.948,0.512 2.48,1.43 v 0 c 0.258,0.448 0.382,0.941 0.382,1.424 v 0 c 0,0.631 -0.209,1.248 -0.597,1.751 v 0 c 1.978,2.808 4.428,5.26 7.237,7.238 v 0 c 0.503,-0.388 1.121,-0.598 1.751,-0.598 v 0 c 0.481,0 0.978,0.124 1.426,0.384 v 0 c 0.916,0.528 1.428,1.495 1.426,2.477 v 0 c 0,0.128 -0.009,0.256 -0.026,0.384 v 0 c 3.056,1.416 6.386,2.333 9.893,2.641 z"
       id="path28"
       inkscape:connector-curvature="0"
       style="fill:#eaeaea" /></g><path
     id="circle55"
     inkscape:connector-curvature="0"
     d="m 74.991246,40.791 c -29.471,0 -53.389,17.93775 -53.389,40.04175 0,22.10325 23.917,40.041 53.389,40.041 29.473004,0 53.364004,-17.93775 53.364004,-40.041 0,-22.104 -23.892,-40.04175 -53.364004,-40.04175 z m 0,1.368 c 28.482004,0 51.539004,17.31225 51.539004,38.67375 0,21.36075 -23.057,38.655 -51.539004,38.655 -28.481,0 -51.565,-17.29425 -51.565,-38.655 0,-21.3615 23.083,-38.67375 51.565,-38.67375 z"
     style="fill:#eaeaea;stroke-width:0.86602539" /><path
     id="circle57"
     inkscape:connector-curvature="0"
     d="m 74.991246,45.86925 c -25.729,0 -46.619,15.66675 -46.619,34.9635 0,19.29675 20.89,34.94475 46.619,34.94475 25.729004,0 46.593004,-15.64875 46.593004,-34.94475 0,-19.29675 -20.864,-34.9635 -46.593004,-34.9635 z m 0,1.386 c 24.74,0 44.769004,15.0225 44.769004,33.5775 0,18.55425 -20.028004,33.57675 -44.769004,33.57675 -24.74,0 -44.794,-15.0225 -44.794,-33.57675 -0.001,-18.555 20.054,-33.5775 44.794,-33.5775 z"
     style="fill:#eaeaea;stroke-width:0.86602539" /><path
     id="circle59"
     inkscape:connector-curvature="0"
     d="m 74.991246,63.669 c -12.631,0 -22.909,7.68975 -22.909,17.16375 0,9.47325 10.278,17.163 22.909,17.163 12.631,0 22.885,-7.68975 22.885,-17.163 0,-9.474 -10.254,-17.16375 -22.885,-17.16375 z m 0,1.368 c 11.643,0 21.061,7.06425 21.061,15.7965 0,8.7315 -9.418,15.795 -21.061,15.795 -11.641,0 -21.061,-7.0635 -21.061,-15.795 0,-8.73225 9.42,-15.7965 21.061,-15.7965 z"
     style="fill:#eaeaea;stroke-width:0.86602539" /><path
     id="rect61"
     inkscape:connector-curvature="0"
     d="m 11.409246,3.48525 v 0.67425 32.22825 0.693 h 0.925 122.566004 0.925 V 36.38775 4.16025 3.486 h -0.925 -122.566004 -0.925 z m 1.824,1.368 H 133.97525 v 30.8595 H 13.233246 Z"
     style="fill:#eaeaea;stroke-width:0.86602539" /><path
     id="rect63"
     inkscape:connector-curvature="0"
     d="m 16.231246,7.0455 v 0.693 22.70925 0.693 h 0.924 112.923004 0.924 V 30.44775 7.7385 7.0455 h -0.924 -112.923004 z m 1.823,1.386 H 129.15425 V 29.75475 H 18.054246 Z"
     style="fill:#eaeaea;stroke-width:0.86602539" /><path
     id="line65"
     inkscape:connector-curvature="0"
     d="m 5.4132458,0.0945 -0.95,1.1805 7.4960002,3.4845 0.974,-1.1805 z"
     style="fill:#eaeaea;stroke-width:0.86602539" /><path
     id="line67"
     inkscape:connector-curvature="0"
     d="m 12.958246,3.672 -1.273,0.97425 4.821,3.579 1.273,-0.97425 z"
     style="fill:#eaeaea;stroke-width:0.86602539" /><path
     id="line69"
     inkscape:connector-curvature="0"
     d="m 141.79625,0.1125 -7.395,3.4665 0.975,1.16175 7.395,-3.46575 z"
     style="fill:#eaeaea;stroke-width:0.86602539" /><path
     id="line71"
     inkscape:connector-curvature="0"
     d="m 134.05025,3.6915 -4.621,3.56025 1.299,0.97425 4.647,-3.579 z"
     style="fill:#eaeaea;stroke-width:0.86602539" /><path
     id="line73"
     inkscape:connector-curvature="0"
     d="m 130.85425,30.09225 -1.575,0.7125 4.646,5.8455 1.574,-0.69375 z"
     style="fill:#eaeaea;stroke-width:0.86602539" /><path
     id="line75"
     inkscape:connector-curvature="0"
     d="m 16.356246,30.09225 -4.821,5.93925 1.574,0.73125 4.822,-5.958 z"
     style="fill:#eaeaea;stroke-width:0.86602539" /><path
     id="path77"
     inkscape:connector-curvature="0"
     d="m 142.19525,16.002 v 1.36725 h 2.024 c 0.311,0 0.557,0.04425 0.698,0.15075 0.145,0.10575 0.387,0.39675 0.227,1.27425 -0.112,0.60375 -0.235,2.088 -0.375,4.15875 -0.142,2.0715 -0.301,4.66275 -0.45,7.251 -0.297,5.17875 -0.566,10.4145 -0.65,11.29875 -0.094,0.98325 -0.157,1.833 -0.399,2.34225 -0.239,0.50925 -0.425,0.72375 -1.45,0.8055 l 0.201,1.34925 c 1.54,-0.12375 2.572,-0.83925 2.973,-1.686 0.4,-0.84825 0.411,-1.77825 0.499,-2.718 0.101,-1.03875 0.354,-6.1425 0.651,-11.3175 0.148,-2.5875 0.31,-5.18775 0.449,-7.251 0.141,-2.06325 0.277,-3.6555 0.35,-4.047 0.205,-1.113 -0.064,-1.941 -0.726,-2.436 -0.658,-0.495 -1.483,-0.543 -1.997,-0.543 h -2.025 z"
     style="fill:#eaeaea;stroke-width:0.86602539" /><path
     id="path79"
     inkscape:connector-curvature="0"
     d="m 2.7902458,16.002 c -0.514,0 -1.339,0.048 -1.99900003,0.543 -0.659,0.495 -0.929,1.32225 -0.724,2.436 0.072,0.39225 0.21,1.98375 0.35,4.047 0.141,2.064 0.302,4.66425 0.449,7.251 0.29800003,5.175 0.55200003,10.27875 0.64900003,11.3175 0.09,0.93975 0.1,1.86975 0.501,2.718 0.4,0.84675 1.432,1.56225 2.973,1.686 l 0.2,-1.34925 c -1.024,-0.0817 -1.209,-0.297 -1.449,-0.8055 -0.241,-0.50925 -0.306,-1.359 -0.4,-2.34225 -0.083,-0.88425 -0.351,-6.12 -0.649,-11.29875 -0.148,-2.589 -0.31,-5.18025 -0.45,-7.251 -0.141,-2.07075 -0.264,-3.55575 -0.375,-4.15875 -0.161,-0.87675 0.083,-1.1685 0.225,-1.27425 0.142,-0.1065 0.389,-0.15075 0.699,-0.15075 h 2.023 v -1.36725 h -2.023 z"
     style="fill:#eaeaea;stroke-width:0.86602539" /><rect
     x="41.61425"
     y="239.68649"
     width="10.518"
     height="2.81025"
     id="rect43"
     style="fill:#f4f4f4;stroke-width:0.86602539" /><rect
     x="94.86425"
     y="239.68649"
     width="10.518"
     height="2.81025"
     id="rect45"
     style="fill:#f4f4f4;stroke-width:0.86602539" /></svg>