<?xml version="1.0" encoding="UTF-8" standalone="no"?>
<!-- Generator: Adobe Illustrator 13.0.0, SVG Export Plug-In . SVG Version: 6.00 Build 14948)  -->

<svg
   xmlns:ns="&amp;#38;ns_sfw;"
   xmlns:dc="http://purl.org/dc/elements/1.1/"
   xmlns:cc="http://creativecommons.org/ns#"
   xmlns:rdf="http://www.w3.org/1999/02/22-rdf-syntax-ns#"
   xmlns:svg="http://www.w3.org/2000/svg"
   xmlns="http://www.w3.org/2000/svg"
   xmlns:sodipodi="http://sodipodi.sourceforge.net/DTD/sodipodi-0.dtd"
   xmlns:inkscape="http://www.inkscape.org/namespaces/inkscape"
   version="1.2"
   id="Layer_3"
   x="0px"
   y="0px"
   width="539.60254"
   height="227.10225"
   viewBox="0 0 539.60252 227.10224"
   xml:space="preserve"
   inkscape:version="0.92.2 (5c3e80d, 2017-08-06)"
   sodipodi:docname="controller.svg"><defs
     id="defs50" /><sodipodi:namedview
     pagecolor="#ffffff"
     bordercolor="#666666"
     borderopacity="1"
     objecttolerance="10"
     gridtolerance="10"
     guidetolerance="10"
     inkscape:pageopacity="0"
     inkscape:pageshadow="2"
     inkscape:window-width="1920"
     inkscape:window-height="1017"
     id="namedview48"
     showgrid="false"
     fit-margin-top="0"
     fit-margin-left="0"
     fit-margin-right="0"
     fit-margin-bottom="0"
     inkscape:zoom="0.48145317"
     inkscape:cx="269.19515"
     inkscape:cy="152.68899"
     inkscape:window-x="-8"
     inkscape:window-y="-8"
     inkscape:window-maximized="1"
     inkscape:current-layer="Layer_3" /><metadata
     id="metadata55"><rdf:RDF><cc:Work
         rdf:about=""><dc:format>image/svg+xml</dc:format><dc:type
           rdf:resource="http://purl.org/dc/dcmitype/StillImage" /><dc:title></dc:title></cc:Work></rdf:RDF><ns:sfw><ns:slices /><ns:sliceSourceBounds
         x="691.305"
         y="-7652"
         width="539.602"
         height="16383"
         bottomLeftOrigin="true" /></ns:sfw></metadata><path
     id="path3"
     d="m 115.13764,5.35275 c -3.655,0.23325 -9.813,1.134 -20.590002,3.43425 -10.644,2.27025 -26.682,3.963 -41.103,5.56275 -7.21,0.7995 -14.01,1.5705 -19.574,2.40975 -5.565,0.83925 -9.834,1.6875 -12.21,2.81175 -8.917,4.21575 -10.239,12.3015 -10.791,15.2025 -0.161,0.8415 0.032,1.54875 0.481,2.0685 0.45,0.519 1.12,0.801 1.741,0.9645 0.572,0.14925 1.109,0.18825 1.554,0.201 0.039,0.687 0.228,1.77825 1.687,2.75175 l 1.151,-0.9645 c -1.305,-0.867 -1.21,-2.3895 -1.21,-2.3895 l 0.081,-0.78375 -1.044,0.1005 c 0,0 -0.911,0.0757 -1.66,-0.12 -0.376,-0.099 -0.664,-0.2385 -0.858,-0.46275 -0.193,-0.2235 -0.333,-0.56625 -0.214,-1.18425 0.56,-2.94075 1.847,-10.4505 9.987,-14.29875 1.888,-0.89325 6.12,-1.80075 11.62,-2.631 5.502,-0.8295 12.317,-1.611 19.521,-2.40975 14.409,-1.59825 30.426,-3.2655 41.29,-5.583 h 0.026 C 105.75164,7.74375 111.83064,6.858 115.26664,6.639 c 1.718,-0.1095 2.771,-0.05025 3.374,0.06075 0.603,0.1095 0.744,0.2145 0.884,0.34125 l 1.312,-0.8235 c -0.334,-0.291 -0.917,-0.60075 -1.8,-0.7635 -0.891,-0.16275 -2.081,-0.21675 -3.907,-0.1005 h 0.008 z"
     inkscape:connector-curvature="0"
     style="fill:#f4f4f4;stroke-width:0.86602539" /><path
     id="path5"
     d="m 15.791638,43.6905 c -0.906,0.1545 -1.845,0.15075 -2.838,0.28125 -0.993,0.13125 -2.051,0.44025 -2.918,1.20525 -1.7360002,1.52925 -2.7750002,4.545 -3.4280002,11.4675 -1.301,13.79325 -4.64,61.611 -5.382,75.954 -0.36900002,7.1145 -1.95200002,17.46375 -0.83000002,27.73425 1.12200002,10.2705 4.95400002,20.51025 15.58400022,27.27225 3.19,2.04 6.673,3.92625 10.016,5.16075 3.342,1.23525 6.587,1.8615 9.345,1.22625 l -0.509,-1.22625 c -2.063,0.47625 -4.939,-0.002 -8.087,-1.164 -3.147,-1.164 -6.525,-2.96925 -9.64,-4.96125 C 6.9696378,180.18225 3.1856378,170.32425 2.0826378,160.22175 c -1.10300002,-10.1025 0.483,-20.385 0.857,-27.59325 0.74,-14.3025 4.06,-62.154 5.355,-75.89025 0.645,-6.8445 1.8420002,-9.681 3.0250002,-10.725 0.592,-0.522 1.143,-0.6795 1.928,-0.78375 0.786,-0.1035 1.786,-0.108 2.919,-0.30075 l -0.375,-1.24575 z"
     inkscape:connector-curvature="0"
     style="fill:#f4f4f4;stroke-width:0.86602539" /><path
     id="path7"
     d="m 160.08864,0.0105 c -11.778,0 -19.029,0.57 -28.009,2.65125 -8.98,2.08125 -19.653,5.6445 -38.559002,11.6685 -37.736,12.0255 -50.787,11.15775 -61.822,12.18975 -5.971,0.55875 -9.905,2.22675 -12.451,6.00525 -2.544,3.777 -3.87,9.558 -5.355,18.65625 -2.969,18.18075 -7.9130002,52.49775 -8.4080002,79.24425 -0.247,13.3125 -2.011,26.1705 0.481,37.15125 2.493,10.98375 9.4020002,20.1075 26.2410002,25.54575 31.131,10.05525 50.328,9.14325 83.330002,19.11825 33.322,10.07175 84.784,14.86125 138.246,14.86125 h 31.167 0.856 c 53.464,0 104.933,-4.79025 138.246,-14.86125 33.002,-9.975 52.199,-9.063 83.329,-19.11825 16.84,-5.4375 23.749,-14.56125 26.241,-25.54575 2.493,-10.9815 0.729,-23.8395 0.482,-37.15125 -0.494,-26.75025 -5.44,-61.06575 -8.407,-79.24425 -1.487,-9.09825 -2.812,-14.87925 -5.355,-18.65625 -2.546,-3.78825 -6.479,-5.457 -12.452,-6.01575 -11.035,-1.03125 -24.084,-0.16425 -61.83,-12.18975 -18.902,-6.024 -29.604,-9.5865 -38.584,-11.6685 C 398.49664,0.57 391.27364,0 379.49964,0 h -90.751 -37.941 -90.724 z m 0,1.2855 h 90.723 37.942 90.75 c 11.706,0 18.655,0.54675 27.473,2.59125 8.816,2.043 19.508,5.5995 38.425,11.62725 37.902,12.07725 51.532,11.28525 62.282,12.291 5.677,0.53025 8.783,1.84275 11.112,5.301 2.331,3.459 3.716,9.165 5.196,18.2355 2.964,18.15675 7.915,52.45875 8.406,79.1025 0.25,13.38525 1.979,26.21475 -0.454,36.9315 -2.433,10.7175 -8.861,19.29675 -25.225,24.58125 -30.857,9.9675 -50.055,9.02925 -83.303,19.07925 -32.751,9.89775 -83.731,14.72775 -136.746,14.7795 -0.287,0 -0.568,0 -0.854,0 h -32.026 c -53.327,0 -104.674,-4.82925 -137.603,-14.7795 -33.246002,-10.0455 -52.440002,-9.1065 -83.299002,-19.074 -16.363,-5.28975 -22.792,-13.869 -25.2250002,-24.58125 -2.432,-10.719 -0.703,-23.547 -0.456,-36.93375 0.494,-26.643 5.4440002,-60.94725 8.4090002,-79.1085 1.482,-9.0705 2.838,-14.7765 5.167,-18.2355 2.331,-3.45825 5.463,-4.77075 11.14,-5.301 10.751,-1.00575 24.381,-0.2145 62.285,-12.291 18.911002,-6.027 29.579002,-9.58425 38.396002,-11.628 8.817,-2.04375 15.792,-2.5905 27.497,-2.5905 z"
     inkscape:connector-curvature="0"
     style="fill:#f4f4f4;stroke-width:0.86602539" /><path
     id="path9"
     d="m 424.46164,5.35275 c -1.826,-0.11625 -3.021,-0.06225 -3.908,0.1005 -0.887,0.16275 -1.473,0.47175 -1.794,0.7635 l 1.303,0.8235 c 0.14,-0.126 0.28,-0.231 0.883,-0.34125 0.603,-0.111 1.654,-0.17025 3.375,-0.06075 3.436,0.219 9.514,1.1055 20.243,3.39375 l 0.24,0.0405 c 10.86,2.295 26.763,3.9555 41.076,5.5425 7.205,0.7995 13.992,1.58025 19.494,2.40975 5.5,0.8295 9.759,1.7385 11.646,2.631 8.141,3.849 9.429,11.35875 9.988,14.29875 0.117,0.61875 -0.021,0.96 -0.214,1.185 -0.194,0.22425 -0.482,0.36375 -0.856,0.462 -0.75,0.1965 -1.661,0.12 -1.661,0.12 l -1.071,-0.1005 0.107,0.783 c 0,0 0.096,1.52325 -1.205,2.39025 l 1.125,0.9645 c 1.459,-0.9735 1.676,-2.064 1.713,-2.75175 0.445,-0.012 0.981,-0.0503 1.554,-0.201 0.621,-0.16275 1.291,-0.4455 1.74,-0.9645 0.449,-0.519 0.643,-1.22625 0.481,-2.0685 -0.551,-2.90025 -1.874,-10.98675 -10.791,-15.20175 -2.376,-1.12425 -6.646,-1.9725 -12.211,-2.81175 -5.552,-0.84075 -12.346,-1.61175 -19.553,-2.41125 -14.42,-1.59975 -30.46,-3.29175 -41.104,-5.56275 -10.778,-2.30025 -16.939,-3.20175 -20.59,-3.43425 z"
     inkscape:connector-curvature="0"
     style="fill:#f4f4f4;stroke-width:0.86602539" /><path
     id="path11"
     d="m 523.79764,43.6905 -0.374,1.24575 c 1.133,0.19275 2.105,0.19725 2.892,0.30075 0.787,0.1035 1.362,0.26175 1.955,0.783 1.179,1.0395 2.352,3.8775 2.998,10.6635 v 0.06 c 1.296,13.73925 4.643,61.58925 5.383,75.89025 0.372,7.2075 1.933,17.493 0.83,27.594 -1.104,10.101 -4.86,19.96125 -14.996,26.40825 -3.113,1.99275 -6.492,3.798 -9.639,4.95975 -3.147,1.16475 -6.024,1.64175 -8.087,1.1655 l -0.497,1.227 c 2.759,0.63825 6.003,0.012 9.345,-1.22475 3.343,-1.2345 6.825,-3.12 10.016,-5.16 10.63,-6.76275 14.464,-17.00325 15.584,-27.273 1.121,-10.2705 -0.463,-20.619 -0.83,-27.73425 -0.742,-14.34075 -4.082,-62.1585 -5.382,-75.954 -0.653,-6.92175 -1.692,-9.9375 -3.427,-11.4675 -0.869,-0.76425 -1.953,-1.074 -2.946,-1.2045 -0.993,-0.1305 -1.904,-0.12675 -2.811,-0.28125 z"
     inkscape:connector-curvature="0"
     style="fill:#f4f4f4;stroke-width:0.86602539" /><path
     id="path13"
     d="m 261.36164,25.03425 c -63.826,0 -97.306,3.9135 -110.964,5.0205 -7.051,0.57225 -11.483,2.81025 -14.191,6.5475 -2.709,3.7365 -3.81,8.86875 -4.74,15.423 -1.87,13.17975 -9.105,95.91375 -5.543,120.2955 0.492,3.36075 0.939,8.1495 5.383,12.753 4.444,4.605 12.82,8.952 28.893,11.709 31.975,5.48325 74.084,8.8365 91.658,8.8365 h 35.881 c 17.572,0 59.682,-3.354 91.658,-8.8365 16.073,-2.75775 24.448,-7.10475 28.892,-11.709 4.444,-4.6035 4.892,-9.39075 5.382,-12.753 3.563,-24.38175 -3.699,-107.115 -5.568,-120.2955 -0.93,-6.55425 -2.032,-11.68725 -4.74,-15.423 -2.708,-3.73725 -7.14,-5.97525 -14.19,-6.5475 -13.655,-1.107 -47.138,-5.0205 -110.964,-5.0205 h -16.843 z m 0,1.28475 h 16.841 c 63.733,0 96.988,3.88275 110.775,5.001 6.668,0.54075 10.397,2.48025 12.879,5.904 2.483,3.42375 3.629,8.42475 4.552,14.94075 1.838,12.963 9.031,96.14025 5.544,120.01425 -0.498,3.40575 -0.915,7.83525 -5.061,12.1305 -4.147,4.296 -12.085,8.51325 -27.901,11.226 -31.803,5.45475 -73.974,8.79675 -91.255,8.79675 h -35.882 c -17.282,0 -59.48,-3.3405 -91.28,-8.79675 -15.817,-2.71275 -23.756,-6.93 -27.901,-11.226 -4.147,-4.29525 -4.563,-8.72475 -5.061,-12.1305 -3.488,-23.87475 3.73,-107.05125 5.569,-120.01425 0.925,-6.516 2.043,-11.517 4.525,-14.94075 2.483,-3.42375 6.212,-5.36325 12.88,-5.904 13.785,-1.11825 47.044,-5.001 110.776,-5.001 z"
     inkscape:connector-curvature="0"
     style="fill:#f4f4f4;stroke-width:0.86602539" /><path
     id="path15"
     d="m 151.39164,43.59 c -1.487,0 -2.705,0.9135 -2.705,2.02875 v 116.6205 c 0,1.11375 1.218,2.028 2.705,2.028 h 236.819 c 1.486,0 2.704,-0.91425 2.704,-2.028 V 161.5965 45.618 c 0,-1.1145 -1.218,-2.02875 -2.704,-2.02875 h -236.819 z m 0,1.28475 h 236.819 c 0.561,0 0.991,0.3225 0.991,0.74325 v 116.6205 c 0,0.4215 -0.431,0.7425 -0.991,0.7425 h -236.819 c -0.561,0 -0.991,-0.32175 -0.991,-0.7425 V 45.618 c 0,-0.42075 0.43,-0.74325 0.991,-0.74325 z"
     inkscape:connector-curvature="0"
     style="fill:#f4f4f4;stroke-width:0.86602539" /><g
     id="g17"
     transform="matrix(1,0,0,0.75,-29.899362,-18.762)"><path
       d="m 129.542,228.164 c 0,-5.183 4.201,-9.384 9.386,-9.384 v 0 0.857 0.855 c -4.238,0.009 -7.665,3.438 -7.673,7.671 v 0 c 0.008,4.236 3.435,7.665 7.673,7.671 v 0 c 4.236,-0.006 7.663,-3.435 7.671,-7.671 v 0 c -0.008,-4.233 -3.435,-7.662 -7.671,-7.671 v 0 -0.855 -0.857 c 5.183,0 9.384,4.201 9.384,9.384 v 0 c 0,5.183 -4.201,9.384 -9.384,9.386 v 0 c -5.184,-0.002 -9.386,-4.203 -9.386,-9.386 z"
       id="path12"
       inkscape:connector-curvature="0"
       style="fill:#f4f4f4" /><path
       d="m 96.121,226.993 c -4.25,-1.081 -7.08,-4.896 -7.08,-9.089 v 0 c 0,-0.765 0.093,-1.542 0.29,-2.314 v 0 c 1.079,-4.25 4.895,-7.082 9.091,-7.082 v 0 c 0.762,0 1.539,0.092 2.313,0.292 v 0 l 40.496,10.271 -0.422,1.659 -40.498,-10.271 c -0.634,-0.163 -1.266,-0.238 -1.889,-0.238 v 0 c -3.424,0 -6.55,2.314 -7.43,5.794 v 0 c -0.162,0.63 -0.238,1.264 -0.238,1.89 v 0 c 0,3.422 2.313,6.549 5.79,7.428 v 0 l 40.494,10.271 h 0.002 l -0.422,1.662 z"
       id="path14"
       inkscape:connector-curvature="0"
       style="fill:#f4f4f4" /></g><g
     id="g23"
     transform="matrix(1,0,0,0.75,-29.899362,-18.762)"><path
       d="m 129.542,257.58 c 0.002,-5.183 4.201,-9.384 9.386,-9.386 v 0 0.858 0.856 c -4.236,0.008 -7.665,3.437 -7.671,7.671 v 0 c 0.006,4.236 3.435,7.662 7.671,7.671 v 0 c 4.237,-0.009 7.665,-3.435 7.671,-7.671 v 0 c -0.006,-4.234 -3.434,-7.663 -7.671,-7.671 v 0 -0.856 -0.858 c 5.185,0.002 9.384,4.203 9.384,9.386 v 0 c 0,5.183 -4.202,9.384 -9.384,9.386 v 0 c -5.183,-0.002 -9.385,-4.203 -9.386,-9.386 z"
       id="path17"
       inkscape:connector-curvature="0"
       style="fill:#f4f4f4" /><path
       d="m 96.123,256.409 c -4.251,-1.077 -7.083,-4.896 -7.083,-9.091 v 0 c 0,-0.765 0.094,-1.542 0.291,-2.313 v 0 c 1.079,-4.249 4.894,-7.082 9.089,-7.082 v 0 c 0.765,0 1.542,0.093 2.315,0.293 v 0 l 40.497,10.271 -0.422,1.661 -40.499,-10.271 c -0.634,-0.164 -1.266,-0.238 -1.892,-0.238 v 0 c -3.422,0 -6.548,2.313 -7.428,5.791 v 0 c -0.162,0.63 -0.237,1.264 -0.237,1.89 v 0 c 0,3.426 2.313,6.551 5.789,7.43 v 0 l 40.495,10.271 v 0.002 l -0.422,1.658 z"
       id="path19"
       inkscape:connector-curvature="0"
       style="fill:#f4f4f4" /></g><path
     id="path29"
     d="m 484.89664,134.946 c -0.441,-0.054 -0.905,-0.0637 -1.365,0.0203 l -55.722,10.182 c -1.845,0.33525 -2.966,1.7505 -2.518,3.132 0.448,1.383 2.307,2.2455 4.151,1.908 l 55.722,-10.1805 c 1.842,-0.336 2.991,-1.752 2.543,-3.13425 -0.335,-1.03575 -1.482,-1.7625 -2.811,-1.9275 z m -0.936,1.2855 c 0.941,-0.17175 1.859,0.237 2.088,0.94425 0.229,0.7065 -0.344,1.41525 -1.286,1.58625 l -55.722,10.16175 c -0.943,0.17175 -1.86,-0.23625 -2.089,-0.9435 -0.229,-0.70725 0.343,-1.41525 1.286,-1.58625 z"
     inkscape:connector-curvature="0"
     style="fill:#f4f4f4;stroke-width:0.86602539" /><path
     id="path31"
     d="m 484.89664,143.178 c -0.441,-0.0532 -0.905,-0.0435 -1.365,0.0412 l -55.722,10.182 c -1.844,0.33675 -2.966,1.75125 -2.518,3.1335 0.448,1.3815 2.308,2.22375 4.151,1.8885 l 55.722,-10.1625 c 1.842,-0.336 2.991,-1.74975 2.543,-3.1335 -0.335,-1.03575 -1.482,-1.7835 -2.812,-1.94775 v -0.001 z m -0.936,1.287 c 0.941,-0.1725 1.859,0.25725 2.088,0.96225 0.229,0.70875 -0.344,1.41525 -1.286,1.58775 l -55.722,10.16025 c -0.944,0.1725 -1.858,-0.23475 -2.089,-0.94275 -0.229,-0.708 0.343,-1.41525 1.286,-1.587 z"
     inkscape:connector-curvature="0"
     style="fill:#f4f4f4;stroke-width:0.86602539" /><path
     id="path33"
     d="m 484.89664,151.43025 c -0.441,-0.054 -0.905,-0.0435 -1.365,0.0412 l -55.722,10.1805 c -1.844,0.336 -2.966,1.73175 -2.518,3.11325 0.448,1.383 2.308,2.24475 4.151,1.908 l 55.722,-10.161 c 1.842,-0.336 2.991,-1.75125 2.543,-3.1335 -0.335,-1.0365 -1.482,-1.78275 -2.811,-1.9485 z m -0.936,1.2855 c 0.941,-0.1725 1.859,0.25725 2.088,0.9645 0.229,0.7065 -0.344,1.39425 -1.286,1.56675 l -55.722,10.18125 c -0.944,0.17175 -1.858,-0.2565 -2.089,-0.96375 -0.229,-0.70575 0.343,-1.39425 1.286,-1.566 l 55.713,-10.1805 z"
     inkscape:connector-curvature="0"
     style="fill:#f4f4f4;stroke-width:0.86602539" /><path
     id="path35"
     d="m 484.89664,159.6885 c -0.441,-0.0548 -0.905,-0.0435 -1.365,0.0397 l -55.729,10.1865 c -1.844,0.336 -2.965,1.731 -2.517,3.1125 0.448,1.3815 2.307,2.2455 4.149,1.90875 l 55.723,-10.18275 c 1.843,-0.336 2.993,-1.731 2.544,-3.1125 -0.337,-1.0365 -1.485,-1.78275 -2.812,-1.9485 z m -0.936,1.28475 c 0.941,-0.17175 1.859,0.2565 2.088,0.963 0.229,0.70725 -0.344,1.39425 -1.286,1.5675 l -55.729,10.179 c -0.943,0.1725 -1.859,-0.2565 -2.089,-0.9645 -0.229,-0.7065 0.343,-1.39425 1.284,-1.56675 l 55.722,-10.1805 z"
     inkscape:connector-curvature="0"
     style="fill:#f4f4f4;stroke-width:0.86602539" /><path
     id="path37"
     d="m 484.89664,167.94 c -0.441,-0.0547 -0.905,-0.0443 -1.365,0.0405 l -55.722,10.16175 c -1.844,0.336 -2.966,1.74975 -2.518,3.1335 0.448,1.3815 2.308,2.244 4.151,1.90725 l 55.722,-10.18125 c 1.842,-0.3375 2.991,-1.73175 2.543,-3.11325 -0.335,-1.038 -1.482,-1.785 -2.811,-1.9485 z m -0.936,1.28475 c 0.941,-0.1725 1.859,0.258 2.088,0.96375 0.229,0.70725 -0.344,1.39425 -1.286,1.56675 l -55.722,10.18275 c -0.944,0.17175 -1.86,-0.258 -2.089,-0.9645 -0.229,-0.7065 0.343,-1.3935 1.286,-1.566 l 55.713,-10.179 z"
     inkscape:connector-curvature="0"
     style="fill:#f4f4f4;stroke-width:0.86602539" /><path
     id="circle39"
     d="m 445.45664,88.7145 c -10.089,0 -18.262,6.1515 -18.262,13.7175 0,7.5645 8.173,13.716 18.262,13.716 10.087,0 18.287,-6.15075 18.287,-13.716 10e-4,-7.566 -8.2,-13.7175 -18.287,-13.7175 z m 0,1.28625 c 9.161,0 16.574,5.559 16.574,12.43125 0,6.87 -7.413,12.43125 -16.574,12.43125 -9.163,0 -16.548,-5.5605 -16.548,-12.43125 0.001,-6.8715 7.385,-12.43125 16.548,-12.43125 z"
     inkscape:connector-curvature="0"
     style="fill:#f4f4f4;stroke-width:0.86602539" /><path
     id="circle41"
     d="m 495.01564,76.164 c -10.086,0 -18.261,6.15075 -18.261,13.716 0,7.56675 8.175,13.71825 18.261,13.71825 10.089,0 18.29,-6.1515 18.29,-13.71825 0,-7.56525 -8.2,-13.716 -18.29,-13.716 z m 0,1.2855 c 9.163,0 16.576,5.5605 16.576,12.4305 0,6.873 -7.413,12.43125 -16.576,12.43125 -9.16,0 -16.547,-5.559 -16.547,-12.43125 0,-6.87075 7.387,-12.4305 16.547,-12.4305 z"
     inkscape:connector-curvature="0"
     style="fill:#f4f4f4;stroke-width:0.86602539" /><path
     id="circle43"
     d="m 445.98864,36.36 c -3.263,0 -5.918,1.992 -5.918,4.43775 0,2.4465 2.655,4.43775 5.918,4.43775 3.26,0 5.917,-1.992 5.917,-4.43775 0,-2.44575 -2.658,-4.43775 -5.917,-4.43775 z m 0,1.28475 c 2.334,0 4.202,1.40175 4.202,3.153 0,1.75125 -1.868,3.153 -4.202,3.153 -2.337,0 -4.205,-1.401 -4.205,-3.153 0,-1.752 1.868,-3.153 4.205,-3.153 z"
     inkscape:connector-curvature="0"
     style="fill:#f4f4f4;stroke-width:0.86602539" /><path
     id="path45"
     d="m 60.134638,68.63175 c -2.102,0 -3.802,1.29675 -3.802,2.8725 V 84.9795 c 0,0.36975 -0.109,0.4035 -0.107,0.402 0.001,-0.001 -0.094,0.0405 -0.375,0.0405 h -18.075 c -2.102,0 -3.829,1.2945 -3.829,2.87175 v 16.12575 c 0,1.57575 1.728,2.87175 3.829,2.87175 h 17.994 c 0.262,0 0.36,0.0473 0.428,0.1005 0.069,0.0532 0.134,0.14325 0.134,0.32175 v 13.476 c 0,1.5765 1.701,2.87175 3.802,2.87175 h 21.529 c 2.101,0 3.802,-1.296 3.802,-2.87175 V 107.754 c 0,-0.33975 0.112,-0.42525 0.107,-0.4215 -0.004,0.003 0.077,-0.0413 0.482,-0.0405 h 17.968002 c 2.102,0 3.829,-1.296 3.829,-2.871 V 88.29375 c 0,-1.5765 -1.728,-2.87175 -3.829,-2.87175 H 86.081638 c -0.342,0 -0.438,-0.066 -0.483,-0.1005 -0.043,-0.0338 -0.133,-0.1005 -0.133,-0.34125 V 71.505 c 0,-1.57575 -1.702,-2.87175 -3.802,-2.87175 l -21.529,-0.001 z m 0,1.2855 h 21.529 c 1.175,0 2.088,0.70575 2.088,1.58775 v 13.47525 c 0,0.4545 0.181,0.9075 0.617,1.245 0.435,0.33675 1.067,0.4815 1.713,0.4815 h 17.941002 c 1.175,0 2.115,0.705 2.115,1.587 v 16.12575 c 0,0.88125 -0.939,1.587 -2.115,1.587 H 86.055638 c -0.614,0 -1.253,0.0705 -1.714,0.4215 -0.461,0.351 -0.59,0.831 -0.59,1.326 v 13.4355 c 0,0.88125 -0.913,1.58625 -2.088,1.58625 h -21.529 c -1.175,0 -2.088,-0.705 -2.088,-1.58625 v -13.476 c 0,-0.44775 -0.199,-0.90225 -0.616,-1.2255 -0.417,-0.32325 -1.026,-0.48075 -1.66,-0.48075 h -17.995 c -1.175,0 -2.115,-0.70575 -2.115,-1.587 V 88.293 c 0,-0.88125 0.939,-1.587 2.115,-1.587 h 18.075 c 0.431,0 0.985,-0.0322 1.472,-0.34125 0.489,-0.30825 0.724,-0.80625 0.724,-1.38525 v -13.476 c 0,-0.8805 0.913,-1.58625 2.088,-1.58625 z"
     inkscape:connector-curvature="0"
     style="fill:#f4f4f4;stroke-width:0.86602539" /><path
     id="path47"
     d="m 64.471638,70.3035 c -3.125,0 -5.677,1.914 -5.677,4.25775 V 87.012 c 0,0.237 -0.074,0.27825 -0.053,0.261 0.02,-0.0165 0.07,0 -0.107,0 h -16.789 c -3.125,0 -5.676,1.91325 -5.676,4.2585 v 9.639 c 0,2.343 2.551,4.257 5.676,4.257 h 16.655 c 0.038,0 0.11,0.0247 0.16,0.0607 0.05,0.036 0.134,0.0975 0.134,0.34125 v 12.3105 c 0,2.3445 2.551,4.2585 5.677,4.2585 h 12.853 c 3.125,0 5.678,-1.914 5.678,-4.2585 v -12.492 c 0,-0.22425 0.023,-0.19425 0,-0.18075 -0.024,0.0135 0.109,-0.0405 0.455,-0.0405 h 16.495 c 3.125002,0 5.676002,-1.91325 5.676002,-4.25775 v -9.639 c 0,-2.3445 -2.55,-4.2585 -5.676002,-4.2585 h -16.547 c -0.276,0 -0.29,-0.0292 -0.321,-0.0608 -0.033,-0.03 -0.08,-0.1365 -0.08,-0.30075 l -0.004,-12.36525 c 0,-2.34375 -2.551,-4.25775 -5.676,-4.25775 h -12.856 z m 0,1.2855 h 12.853 c 2.2,0 3.963,1.323 3.963,2.97225 V 86.9115 c 0,0.357 0.095,0.7635 0.455,1.10475 0.36,0.342 0.994,0.543 1.66,0.543 h 16.548 c 2.199002,0 3.963002,1.32225 3.963002,2.97225 v 9.639 c 0,1.6485 -1.765,2.9715 -3.963002,2.9715 h -16.494 c -0.505,0 -1.029,0.0315 -1.5,0.3015 -0.47,0.27075 -0.669,0.75675 -0.669,1.2045 v 12.49125 c 0,1.6485 -1.764,2.973 -3.963,2.973 h -12.853 c -2.198,0 -3.963,-1.3245 -3.963,-2.973 v -12.3105 c 0,-0.52125 -0.24,-0.975 -0.643,-1.2645 -0.403,-0.291 -0.91,-0.42225 -1.365,-0.42225 h -16.656 c -2.199,0 -3.963,-1.323 -3.963,-2.9715 v -9.63975 c 0,-1.65 1.764,-2.97225 3.963,-2.97225 h 16.79 c 0.472,0 1.019,-0.114 1.392,-0.4215 0.374,-0.30825 0.482,-0.702 0.482,-1.125 V 74.5605 c -10e-4,-1.64775 1.765,-2.9715 3.963,-2.9715 z"
     inkscape:connector-curvature="0"
     style="fill:#f4f4f4;stroke-width:0.86602539" /><path
     id="circle49"
     d="m 70.898638,90.14175 c -4.559,0 -8.274,2.787 -8.274,6.2055 0,3.4185 3.716,6.20475 8.274,6.20475 4.559,0 8.274,-2.78625 8.274,-6.20475 0,-3.4185 -3.715,-6.2055 -8.274,-6.2055 z m 0,1.2855 c 3.633,0 6.561,2.1945 6.561,4.92 0,2.724 -2.928,4.92 -6.561,4.92 -3.633,0 -6.561,-2.196 -6.561,-4.92 0,-2.7255 2.928,-4.92 6.561,-4.92 z"
     inkscape:connector-curvature="0"
     style="fill:#f4f4f4;stroke-width:0.86602539" /><g
     id="g51"
     transform="matrix(1,0,0,0.75,-29.899362,-18.762)"><path
       d="m 95.909,140.716 c -1.406,-0.002 -2.549,-1.138 -2.549,-2.549 v 0 c 0,-0.589 0.202,-1.136 0.538,-1.565 v 0 l 4.605,-8.3 c 0.41,-0.854 1.284,-1.443 2.295,-1.443 v 0 c 1.001,0 1.869,0.575 2.266,1.377 v 0 l 4.981,8.917 v 0.04 c 0.125,0.3 0.194,0.631 0.194,0.974 v 0 c -0.002,1.409 -1.142,2.549 -2.549,2.549 v 0 z m 4.115,-11.628 -4.7,8.476 -0.053,0.065 c -0.123,0.149 -0.196,0.332 -0.196,0.538 v 0 c 0,0.461 0.375,0.833 0.835,0.835 v 0 h 9.781 c 0.461,-0.002 0.833,-0.375 0.835,-0.835 v 0 c 0,-0.141 -0.037,-0.272 -0.096,-0.385 v 0 l -0.048,-0.092 -4.834,-8.656 c -0.137,-0.274 -0.422,-0.464 -0.75,-0.464 v 0 c -0.33,0.001 -0.616,0.195 -0.774,0.518 z"
       id="path34"
       inkscape:connector-curvature="0"
       style="fill:#f4f4f4" /></g><g
     id="g55"
     transform="matrix(1,0,0,0.75,-29.899362,-18.762)"><path
       d="m 83.922,160.389 -8.304,-4.604 c -0.852,-0.409 -1.441,-1.287 -1.441,-2.296 v 0 c 0,-1.001 0.577,-1.868 1.379,-2.266 v 0 l 10,-5.586 v 0.414 c 1.373,0.038 2.477,1.162 2.477,2.548 v 0 9.779 c 0,1.41 -1.141,2.549 -2.549,2.551 v 0 c -0.587,-0.002 -1.133,-0.205 -1.562,-0.54 z m -7.566,-7.653 c -0.277,0.14 -0.468,0.423 -0.466,0.751 v 0 c -0.002,0.334 0.193,0.618 0.515,0.775 v 0 l 8.481,4.7 0.062,0.053 c 0.147,0.124 0.332,0.195 0.536,0.197 v 0 c 0.461,-0.002 0.835,-0.375 0.837,-0.837 v 0 -9.779 c -0.002,-0.46 -0.375,-0.833 -0.837,-0.835 v 0 c -0.146,0.002 -0.272,0.035 -0.385,0.092 v 0 z"
       id="path38"
       inkscape:connector-curvature="0"
       style="fill:#f4f4f4" /></g><g
     id="g59"
     transform="matrix(1,0,0,0.75,-29.899362,-18.762)"><path
       d="m 98.535,178.726 -4.98,-8.916 v -0.036 c -0.125,-0.302 -0.195,-0.633 -0.193,-0.979 v 0 c 0,-1.409 1.14,-2.548 2.549,-2.548 v 0 h 9.779 c 1.409,0 2.549,1.142 2.549,2.548 v 0 c 0,0.588 -0.201,1.134 -0.535,1.563 v 0 l -4.606,8.304 c -0.411,0.853 -1.288,1.44 -2.297,1.442 v 0 c -1.001,10e-4 -1.869,-0.575 -2.266,-1.378 z m 1.516,-0.799 c 0.14,0.276 0.42,0.465 0.749,0.465 v 0 c 0.333,0 0.617,-0.193 0.775,-0.516 v 0 l 4.7,-8.479 0.054,-0.064 c 0.123,-0.146 0.195,-0.331 0.195,-0.537 v 0 c 0,-0.46 -0.375,-0.835 -0.835,-0.835 v 0 H 95.91 c -0.461,0 -0.835,0.375 -0.835,0.835 v 0 c 0,0.142 0.033,0.272 0.095,0.389 v 0 h -0.001 0.001 l 0.023,0.043 z m -5.64,-8.345 0.165,-0.086 z"
       id="path41"
       inkscape:connector-curvature="0"
       style="fill:#f4f4f4" /></g><g
     id="g63"
     transform="matrix(1,0,0,0.75,-29.899362,-18.762)"><path
       d="m 113.564,158.376 v -9.781 c 0,-1.41 1.141,-2.549 2.549,-2.549 v 0 c 0.592,-0.002 1.141,0.204 1.571,0.541 v 0 l 8.294,4.6 c 0.856,0.411 1.443,1.287 1.443,2.296 v 0 c 0,1 -0.575,1.866 -1.379,2.266 v 0 l -8.579,4.786 -0.01,0.013 -0.154,0.082 c -0.355,0.189 -0.763,0.293 -1.186,0.293 v 0 c -1.408,0 -2.549,-1.139 -2.549,-2.547 z m 1.713,-9.78 v 9.781 c 0,0.46 0.374,0.833 0.835,0.833 v 0 c 0.121,0 0.229,-0.025 0.327,-0.067 v 0 l 8.801,-4.908 c 0.277,-0.14 0.468,-0.425 0.466,-0.751 v 0 c 0,-0.334 -0.191,-0.616 -0.515,-0.775 v 0 l -8.476,-4.7 -0.063,-0.051 c -0.15,-0.125 -0.336,-0.197 -0.54,-0.197 v 0 c -0.459,-0.001 -0.835,0.375 -0.835,0.835 z"
       id="path44"
       inkscape:connector-curvature="0"
       style="fill:#f4f4f4" /></g><path
     id="circle67"
     d="m 445.45664,86.72925 c -11.557,0 -20.941,7.038 -20.941,15.705 0,8.66775 9.385,15.70425 20.941,15.70425 11.555,0 20.939,-7.03725 20.939,-15.70425 10e-4,-8.667 -9.384,-15.705 -20.939,-15.705 z m 0,1.2855 c 10.629,0 19.226,6.44625 19.226,14.4195 0,7.97325 -8.597,14.4195 -19.226,14.4195 -10.631,0 -19.227,-6.44625 -19.227,-14.4195 10e-4,-7.9725 8.596,-14.4195 19.227,-14.4195 z"
     inkscape:connector-curvature="0"
     style="fill:#f4f4f4;stroke-width:0.86602539" /><path
     id="circle69"
     d="m 495.01564,74.17875 c -11.555,0 -20.939,7.03725 -20.939,15.70425 0,8.66775 9.385,15.705 20.939,15.705 11.557,0 20.941,-7.03725 20.941,-15.705 0,-8.667 -9.384,-15.70425 -20.941,-15.70425 z m 0,1.28475 c 10.629,0 19.227,6.44625 19.227,14.4195 0,7.97175 -8.597,14.4195 -19.227,14.4195 -10.628,0 -19.226,-6.44775 -19.226,-14.4195 0,-7.9725 8.598,-14.4195 19.226,-14.4195 z"
     inkscape:connector-curvature="0"
     style="fill:#f4f4f4;stroke-width:0.86602539" /></svg>