<?xml version="1.0" encoding="UTF-8" standalone="no"?>
<!-- Generator: Adobe Illustrator 16.0.3, SVG Export Plug-In . SVG Version: 6.00 Build 0)  -->

<svg
   xmlns:dc="http://purl.org/dc/elements/1.1/"
   xmlns:cc="http://creativecommons.org/ns#"
   xmlns:rdf="http://www.w3.org/1999/02/22-rdf-syntax-ns#"
   xmlns:svg="http://www.w3.org/2000/svg"
   xmlns="http://www.w3.org/2000/svg"
   xmlns:sodipodi="http://sodipodi.sourceforge.net/DTD/sodipodi-0.dtd"
   xmlns:inkscape="http://www.inkscape.org/namespaces/inkscape"
   version="1.1"
   id="svg2"
   inkscape:version="0.48.5 r10040"
   sodipodi:version="0.32"
   sodipodi:docname="gba_logo_white.svg"
   x="0px"
   y="0px"
   width="566.929px"
   height="66.041px"
   viewBox="0 0 566.929 66.041"
   enable-background="new 0 0 566.929 66.041"
   xml:space="preserve"><metadata
   id="metadata18"><rdf:RDF><cc:Work
       rdf:about=""><dc:format>image/svg+xml</dc:format><dc:type
         rdf:resource="http://purl.org/dc/dcmitype/StillImage" /><dc:title /></cc:Work></rdf:RDF></metadata><defs
   id="defs16" />
<sodipodi:namedview
   height="206.5px"
   width="1772.6px"
   inkscape:window-x="-8"
   inkscape:window-y="-8"
   inkscape:current-layer="svg2"
   inkscape:pageshadow="2"
   inkscape:window-width="1920"
   inkscape:pageopacity="1"
   inkscape:window-height="1017"
   objecttolerance="10.0"
   inkscape:cx="239.02077"
   borderopacity="1.0"
   inkscape:cy="-6.9715248"
   guidetolerance="10.0"
   pagecolor="#0000ad"
   inkscape:zoom="2.5600001"
   bordercolor="#666666"
   gridtolerance="10.0"
   id="base"
   showgrid="false"
   inkscape:window-maximized="1">
	</sodipodi:namedview>
<path
   id="path10"
   fill="#1F00CC"
   d="M296.042,8.236l4.352-6.971h-66.25c-5.084,0.076-9.82,1.502-14.135,4.274l-5.084,3.736  c-2.234-2.696-4.43-4.584-6.588-5.854c-2.695-1.502-5.699-2.156-9.127-2.156H87.009l-3.66,11.169L81.541,1.266H57.003l-0.885,2.079  l-2.311-0.809c-12.943-4.43-25.383-3.081-37.131,4.198c-5.971,3.813-10.477,8.59-13.25,14.443c-2.85,5.855-3.814,12.364-3.158,19.76  c0.461,4.43,2.002,8.551,4.699,12.287c2.695,3.736,6.123,6.74,10.398,8.897c6.201,3.235,12.941,4.198,19.99,3.081h21.84  l5.469-12.133l2.004,12.133l131.266-0.153c2.852,0,5.701-0.694,8.59-1.964c2.85-1.271,5.314-3.082,7.549-5.316  c3.66,3.891,8.012,6.51,13.096,7.55c6.895,1.656,13.559,0.462,19.836-3.505l0.811-0.617l-0.617,3.968h26.73l0.656-4.622  c1.578-0.23,2.85-1.039,3.967-2.389h72.682c11.17,0,19.373-2.85,24.381-8.589l5.393,8.589h77.768V47.217l13.98,10.938h96.102V8.313  H462.744v10.784L448.955,8.313h-55.387l-6.818,12.942l-7.549-13.02H296.042L296.042,8.236z"
   style="fill:#ffffff;fill-opacity:1" />










<path
   id="path32"
   d="m 273.433,49.873 -1.271,-0.308 h -2.234 v 5.238 h 0.732 v -2.388 h 1.039 l 1.426,2.388 h 0.809 l -1.58,-2.388 c 1.041,0 1.656,-0.462 1.656,-1.502 0.038,-0.462 -0.116,-0.886 -0.577,-1.04 z m -0.154,1.041 c 0,0.616 -0.617,0.885 -1.734,0.885 h -0.885 v -1.656 h 1.424 c 0.847,0 1.195,0.308 1.195,0.771 l 0,0 z m 3.158,1.348 c 0,-1.349 -0.539,-2.389 -1.35,-3.275 -0.885,-0.885 -2.002,-1.424 -3.311,-1.424 -1.271,0 -2.389,0.539 -3.275,1.424 -0.885,0.887 -1.348,1.965 -1.348,3.275 0,1.271 0.463,2.311 1.348,3.234 0.887,0.887 2.004,1.426 3.275,1.426 1.27,0 2.387,-0.539 3.311,-1.426 0.811,-0.924 1.35,-1.963 1.35,-3.234 z m -1.889,-2.774 c 0.693,0.693 1.117,1.656 1.117,2.773 0,1.04 -0.461,1.965 -1.117,2.773 -0.654,0.654 -1.656,1.04 -2.771,1.04 -1.117,0 -2.08,-0.386 -2.773,-1.04 -0.811,-0.809 -1.195,-1.732 -1.195,-2.773 0,-1.117 0.387,-2.08 1.195,-2.773 0.654,-0.809 1.656,-1.194 2.773,-1.194 1.154,0 2.117,0.347 2.771,1.194 z M 205.025,11.626 c -1.887,-1.194 -3.736,-1.81 -5.545,-1.81 h -17.949 l -7.396,46.644 h 21.57 c 2.311,0 4.699,-0.731 7.203,-2.233 2.465,-1.503 4.352,-3.352 5.854,-5.624 1.58,-2.618 2.156,-5.161 1.889,-7.856 -0.309,-2.928 -1.889,-5.701 -4.623,-8.32 5.469,-5.623 6.74,-10.939 3.891,-16.023 -1.234,-1.889 -2.775,-3.508 -4.894,-4.778 z m -16.678,16.755 1.502,-8.666 h 6.279 c 1.58,0 2.773,0.461 3.582,1.348 0.693,0.809 0.963,1.811 0.809,3.004 -0.154,1.195 -0.73,2.157 -1.656,3.005 -1.039,0.886 -2.311,1.349 -3.813,1.349 h -6.703 l 10.861,11.092 c 0.887,0.887 1.35,2.042 1.271,3.313 -0.076,1.271 -0.693,2.312 -1.811,3.236 -1.115,0.885 -2.695,1.425 -4.852,1.425 h -8.475 l 1.502,-9.437 h 8.088 c 1.811,0 3.236,0.539 4.275,1.502 l -10.859,-11.171 0,0 z M 237.88,9.97 c -5.469,-1.271 -10.477,0 -15.33,3.736 -4.852,3.582 -8.012,8.743 -9.668,15.253 -1.424,6.432 -0.73,12.518 1.889,17.871 2.773,5.547 6.74,8.898 12.209,10.092 5.393,1.271 10.4,0 15.254,-3.659 4.854,-3.736 8.088,-8.897 9.59,-15.407 1.502,-6.432 0.811,-12.44 -1.887,-17.871 -2.697,-5.47 -6.74,-8.821 -12.057,-10.015 l 0,0 z m -0.808,9.359 c 2.619,1.04 4.275,3.429 5.162,6.972 0.885,3.582 0.693,7.318 -0.617,11.285 -1.271,3.891 -3.35,6.818 -6.047,8.667 -2.773,2.003 -5.393,2.388 -7.857,1.271 -2.619,-1.04 -4.352,-3.429 -5.238,-6.972 -0.963,-3.659 -0.617,-7.396 0.654,-11.285 1.271,-3.813 3.352,-6.818 6.047,-8.821 2.657,-1.887 5.355,-2.311 7.896,-1.117 l 0,0 z m 47.877,-9.821 -11.209,0 -9.59,15.367 -5.971,-15.367 -11.092,0 11.477,24.765 -3.619,22.187 9.744,0 2.928,-19.566 z m -118.17,0 -26.694,0 -7.509,46.952 26.884,0 1.733,-9.976 -16.947,0 1.347,-8.397 14.676,0 1.578,-10.091 -14.828,0 1.272,-8.396 16.908,0 z M 50.841,10.354 C 40.519,6.619 30.542,7.813 20.99,13.706 11.554,19.483 7.433,28.304 8.55,39.82 c 0.307,3.352 1.578,6.433 3.736,9.129 2.156,2.696 4.93,4.621 8.242,6.123 3.35,1.503 6.895,2.08 10.631,1.888 4.121,-0.231 7.857,-1.425 11.516,-3.429 l 0.385,-0.23 -1.424,3.158 H 51.65 l 6.434,-13.981 h 11.092 l 2.465,13.981 h 16.41 l 8.396,-26.191 5.393,26.191 h 6.508 l 12.557,-29.041 1.271,29.041 h 9.592 L 129.803,9.545 H 118.13 L 107.192,35.197 102.493,9.545 H 92.901 L 80.539,47.484 74.183,9.545 H 62.359 L 44.255,50.489 46.874,33.348 H 29.001 l -1.348,8.821 h 7.473 l -0.732,4.698 -7.857,0.54 c -3.158,-0.809 -5.393,-2.465 -6.895,-5.085 -1.271,-2.465 -1.887,-5.007 -1.578,-7.856 0.385,-3.968 2.311,-7.55 5.969,-10.785 3.313,-2.928 7.551,-4.584 12.635,-5.238 4.854,-0.732 9.129,-0.231 12.711,1.348 l 1.462,-9.437 0,0 z m 16.91,22.957 H 61.82 l 4.121,-9.051 1.81,9.051 z m 465.018,-4.545 0,-4.738 25.689,0 0,-7.471 -35.203,0 0,32.931 35.627,0 0,-7.626 -26.113,0 0,-5.854 15.061,0 0,-7.242 z M 484.738,18.404 c -1.348,1.195 -2.041,3.352 -2.041,6.434 v 16.33 c 0,3.159 0.693,5.316 2.002,6.51 1.271,1.195 3.582,1.811 6.973,1.811 h 19.373 c 3.352,0 5.777,-0.616 7.049,-1.811 1.271,-1.193 2.004,-3.351 2.004,-6.51 v -4.583 l -9.514,-0.154 v 5.085 H 492.172 V 24.221 h 18.412 v 4.507 h 9.514 v -3.89 c 0,-3.236 -0.732,-5.393 -2.004,-6.434 -1.271,-1.271 -3.504,-1.887 -7.049,-1.887 h -19.373 c -3.352,0.04 -5.663,0.618 -6.934,1.887 l 0,0 z m -61.705,-1.847 -8.358,0 -19.529,33.008 9.861,0 0,-0.077 13.481,0 0,-7.357 -9.436,0 9.36,-16.985 13.789,24.419 10.746,0 0,-0.077 5.469,0 0,-19.913 24.921,19.913 6.471,0 0,-32.931 -8.629,0 0,19.681 -25.152,-19.681 -6.432,0 0,27.384 z m -110.006,0 h -8.318 l -19.605,33.009 h 23.342 v -7.318 h -9.514 l 9.514,-17.063 13.789,24.42 h 10.631 v -0.076 h 16.6 c 14.367,0 21.57,-5.547 21.57,-16.523 0,-1.888 -0.23,-3.66 -0.732,-5.316 l 13.25,21.84 h 6.355 L 408.975,16.598 H 398.883 L 386.98,38.164 374.423,16.596 h -10.861 l 3.004,4.93 c -3.504,-3.313 -8.551,-4.93 -15.137,-4.93 h -21.84 V 43.98 l -16.562,-27.423 0,0 z m 25.961,7.471 h 12.52 c 6.508,0 9.82,2.851 9.82,8.551 0,3.429 -1.039,5.932 -3.004,7.241 -1.887,1.348 -5.469,2.003 -10.477,2.003 h -8.82 V 24.028 h -0.039 z" />
</svg>