<?xml version="1.0" encoding="UTF-8" standalone="no"?>
<!-- Generator: Adobe Illustrator 16.0.3, SVG Export Plug-In . SVG Version: 6.00 Build 0)  -->

<svg
   xmlns:dc="http://purl.org/dc/elements/1.1/"
   xmlns:cc="http://creativecommons.org/ns#"
   xmlns:rdf="http://www.w3.org/1999/02/22-rdf-syntax-ns#"
   xmlns:svg="http://www.w3.org/2000/svg"
   xmlns="http://www.w3.org/2000/svg"
   xmlns:sodipodi="http://sodipodi.sourceforge.net/DTD/sodipodi-0.dtd"
   xmlns:inkscape="http://www.inkscape.org/namespaces/inkscape"
   version="1.1"
   id="svg2"
   inkscape:version="0.48.5 r10040"
   sodipodi:version="0.32"
   sodipodi:docname="gba_logo_white.svg"
   x="0px"
   y="0px"
   width="566.929px"
   height="66.041px"
   viewBox="0 0 566.929 66.041"
   enable-background="new 0 0 566.929 66.041"
   xml:space="preserve"><metadata
   id="metadata18"><rdf:RDF><cc:Work
       rdf:about=""><dc:format>image/svg+xml</dc:format><dc:type
         rdf:resource="http://purl.org/dc/dcmitype/StillImage" /><dc:title></dc:title></cc:Work></rdf:RDF></metadata><defs
   id="defs16" />
<sodipodi:namedview
   height="206.5px"
   width="1772.6px"
   inkscape:window-x="-8"
   inkscape:window-y="-8"
   inkscape:current-layer="svg2"
   inkscape:pageshadow="2"
   inkscape:window-width="1920"
   inkscape:pageopacity="1"
   inkscape:window-height="1017"
   objecttolerance="10.0"
   inkscape:cx="239.02077"
   borderopacity="1.0"
   inkscape:cy="-6.9715248"
   guidetolerance="10.0"
   pagecolor="#0000ad"
   inkscape:zoom="2.5600001"
   bordercolor="#666666"
   gridtolerance="10.0"
   id="base"
   showgrid="false"
   inkscape:window-maximized="1">
	</sodipodi:namedview>
<path
   style="fill:#ffffff;fill-opacity:1"
   d="M 39.46875 0 C 31.631768 -0.046572266 24.03 2.169375 16.6875 6.71875 C 10.7165 10.53175 6.2105 15.3345 3.4375 21.1875 C 0.58749998 27.0425 -0.37475 33.5415 0.28125 40.9375 C 0.74225 45.3675 2.27175 49.48275 4.96875 53.21875 C 7.66375 56.95475 11.1 59.968 15.375 62.125 C 21.576 65.36 28.29475 66.3045 35.34375 65.1875 L 57.1875 65.1875 L 62.65625 53.0625 L 64.65625 65.1875 L 195.9375 65.0625 C 198.7895 65.0625 201.64225 64.36375 204.53125 63.09375 C 207.38125 61.82275 209.8275 60.01525 212.0625 57.78125 C 215.7225 61.67225 220.07225 64.2725 225.15625 65.3125 C 232.05125 66.9685 238.723 65.7795 245 61.8125 L 245.8125 61.1875 L 245.1875 65.15625 L 271.9375 65.15625 L 272.59375 60.53125 C 274.17175 60.30125 275.4455 59.50625 276.5625 58.15625 L 349.21875 58.15625 C 360.38875 58.15625 368.617 55.3015 373.625 49.5625 L 379 58.15625 L 456.78125 58.15625 L 456.78125 47.21875 L 470.75 58.15625 L 566.84375 58.15625 L 566.84375 8.3125 L 462.75 8.3125 L 462.75 19.09375 L 448.96875 8.3125 L 393.5625 8.3125 L 386.75 21.25 L 379.1875 8.25 L 296.03125 8.25 L 300.40625 1.25 L 234.15625 1.25 C 229.07225 1.326 224.315 2.75925 220 5.53125 L 214.9375 9.28125 C 212.7035 6.58525 210.50175 4.67625 208.34375 3.40625 C 205.64875 1.90425 202.64675 1.25 199.21875 1.25 L 87 1.25 L 83.34375 12.4375 L 81.53125 1.28125 L 57 1.28125 L 56.125 3.34375 L 53.8125 2.53125 C 48.958875 0.86999999 44.170939 0.02794336 39.46875 0 z M 39.375 8.21875 C 43.1445 8.2452227 46.973 8.943125 50.84375 10.34375 L 49.375 19.78125 C 45.793 18.20225 41.51025 17.7055 36.65625 18.4375 C 31.57225 19.0915 27.34425 20.7595 24.03125 23.6875 C 20.37325 26.9225 18.4475 30.50075 18.0625 34.46875 C 17.7535 37.31775 18.38525 39.8475 19.65625 42.3125 C 21.15825 44.9325 23.37325 46.59725 26.53125 47.40625 L 34.40625 46.875 L 35.125 42.15625 L 27.65625 42.15625 L 29 33.34375 L 46.875 33.34375 L 44.25 50.5 L 62.34375 9.53125 L 74.1875 9.53125 L 80.53125 47.46875 L 92.90625 9.53125 L 102.5 9.53125 L 107.1875 35.1875 L 118.125 9.53125 L 129.8125 9.53125 L 131.78125 56.46875 L 122.1875 56.46875 L 120.90625 27.40625 L 108.34375 56.46875 L 101.84375 56.46875 L 96.4375 30.28125 L 88.0625 56.46875 L 71.65625 56.46875 L 69.1875 42.46875 L 58.09375 42.46875 L 51.65625 56.46875 L 41.625 56.46875 L 43.0625 53.3125 L 42.6875 53.53125 C 39.0285 55.53525 35.27725 56.73775 31.15625 56.96875 C 27.42025 57.16075 23.88125 56.5655 20.53125 55.0625 C 17.21925 53.5605 14.43725 51.6335 12.28125 48.9375 C 10.12325 46.2415 8.8695 43.1645 8.5625 39.8125 C 7.4455 28.2965 11.564 19.49575 21 13.71875 C 26.97 10.035625 33.0925 8.1746289 39.375 8.21875 z M 140.09375 9.5 L 166.78125 9.5 L 165.1875 19.59375 L 148.28125 19.59375 L 147.03125 28 L 161.84375 28 L 160.28125 38.09375 L 145.59375 38.09375 L 144.25 46.46875 L 161.1875 46.46875 L 159.46875 56.46875 L 132.5625 56.46875 L 140.09375 9.5 z M 233.875 9.5 C 235.18941 9.5012031 236.50775 9.651 237.875 9.96875 C 243.192 11.16275 247.2405 14.53 249.9375 20 C 252.6355 25.431 253.3145 31.41175 251.8125 37.84375 C 250.3105 44.35375 247.07275 49.514 242.21875 53.25 C 237.36475 56.909 232.36175 58.2085 226.96875 56.9375 C 221.49975 55.7435 217.55425 52.39075 214.78125 46.84375 C 212.16225 41.49075 211.451 35.40075 212.875 28.96875 C 214.531 22.45875 217.7105 17.30075 222.5625 13.71875 C 226.20225 10.91675 229.93178 9.4963906 233.875 9.5 z M 247.09375 9.5 L 258.1875 9.5 L 264.15625 24.875 L 273.75 9.5 L 284.9375 9.5 L 267.625 36.90625 L 264.6875 56.46875 L 254.9375 56.46875 L 258.5625 34.28125 L 247.09375 9.5 z M 181.53125 9.8125 L 199.46875 9.8125 C 201.27775 9.8125 203.14425 10.431 205.03125 11.625 C 207.15025 12.895 208.67225 14.51725 209.90625 16.40625 C 212.75525 21.49025 211.50025 26.8145 206.03125 32.4375 C 208.76525 35.0565 210.34725 37.822 210.65625 40.75 C 210.92325 43.445 210.33 45.97575 208.75 48.59375 C 207.248 50.86575 205.37125 52.71575 202.90625 54.21875 C 200.40225 55.72075 198.02975 56.46875 195.71875 56.46875 L 174.125 56.46875 L 181.53125 9.8125 z M 491.6875 16.53125 L 511.03125 16.53125 C 514.57625 16.53125 516.82275 17.13525 518.09375 18.40625 C 519.36575 19.44725 520.09375 21.60775 520.09375 24.84375 L 520.09375 28.71875 L 510.59375 28.71875 L 510.59375 24.21875 L 492.1875 24.21875 L 492.1875 41.53125 L 510.59375 41.53125 L 510.59375 36.4375 L 520.09375 36.59375 L 520.09375 41.15625 C 520.09375 44.31525 519.36475 46.4945 518.09375 47.6875 C 516.82175 48.8825 514.38325 49.5 511.03125 49.5 L 491.6875 49.5 C 488.2965 49.5 485.9585 48.8825 484.6875 47.6875 C 483.3785 46.4935 482.6875 44.31525 482.6875 41.15625 L 482.6875 24.84375 C 482.6875 21.76175 483.402 19.60125 484.75 18.40625 C 486.021 17.13725 488.3355 16.57125 491.6875 16.53125 z M 304.71875 16.5625 L 313.03125 16.5625 L 329.59375 43.96875 L 329.59375 16.59375 L 351.4375 16.59375 C 358.0235 16.59375 363.0585 18.21825 366.5625 21.53125 L 363.5625 16.59375 L 374.4375 16.59375 L 386.96875 38.15625 L 398.875 16.59375 L 408.96875 16.59375 L 389.90625 49.53125 L 383.5625 49.53125 L 370.3125 27.6875 C 370.8145 29.3435 371.03125 31.112 371.03125 33 C 371.03125 43.976 363.83575 49.53125 349.46875 49.53125 L 332.875 49.53125 L 332.875 49.59375 L 322.25 49.59375 L 308.4375 25.1875 L 298.9375 42.25 L 308.4375 42.25 L 308.4375 49.5625 L 285.09375 49.5625 L 304.71875 16.5625 z M 414.6875 16.5625 L 423.03125 16.5625 L 439.59375 43.9375 L 439.59375 16.5625 L 446.03125 16.5625 L 471.1875 36.25 L 471.1875 16.5625 L 479.8125 16.5625 L 479.8125 49.5 L 473.34375 49.5 L 448.40625 29.5625 L 448.40625 49.5 L 442.9375 49.5 L 442.9375 49.5625 L 432.1875 49.5625 L 418.40625 25.15625 L 409.0625 42.125 L 418.5 42.125 L 418.5 49.5 L 405 49.5 L 405 49.5625 L 395.15625 49.5625 L 414.6875 16.5625 z M 523.25 16.5625 L 558.46875 16.5625 L 558.46875 24.03125 L 532.78125 24.03125 L 532.78125 28.78125 L 547.84375 28.78125 L 547.84375 36 L 532.78125 36 L 532.78125 41.875 L 558.875 41.875 L 558.875 49.5 L 523.25 49.5 L 523.25 16.5625 z M 234.15625 18.65625 C 232.51193 18.654814 230.84813 19.258125 229.1875 20.4375 C 226.4925 22.4405 224.396 25.46825 223.125 29.28125 C 221.854 33.17025 221.50575 36.9035 222.46875 40.5625 C 223.35475 44.1055 225.09975 46.49125 227.71875 47.53125 C 230.18275 48.64825 232.7895 48.253 235.5625 46.25 C 238.2595 44.401 240.354 41.48475 241.625 37.59375 C 242.935 33.62675 243.10375 29.8945 242.21875 26.3125 C 241.33175 22.7695 239.6815 20.38375 237.0625 19.34375 C 236.10962 18.896 235.14284 18.657111 234.15625 18.65625 z M 189.84375 19.71875 L 188.34375 28.375 L 188.375 28.40625 L 195.0625 28.40625 C 196.5645 28.40625 197.836 27.9485 198.875 27.0625 C 199.801 26.2145 200.37725 25.2575 200.53125 24.0625 C 200.68525 22.8695 200.41175 21.8715 199.71875 21.0625 C 198.90975 20.1755 197.705 19.71875 196.125 19.71875 L 189.84375 19.71875 z M 339.03125 24.03125 L 339.03125 41.8125 L 347.84375 41.8125 C 352.85175 41.8125 356.4255 41.1605 358.3125 39.8125 C 360.2775 38.5035 361.3125 36.02275 361.3125 32.59375 C 361.3125 26.89375 358.008 24.03125 351.5 24.03125 L 339.03125 24.03125 z M 65.9375 24.25 L 61.8125 33.3125 L 67.75 33.3125 L 65.9375 24.25 z M 191.96875 32.09375 L 199.21875 39.5625 C 198.17975 38.5995 196.7485 38.0625 194.9375 38.0625 L 186.84375 38.0625 L 185.34375 47.5 L 193.8125 47.5 C 195.9695 47.5 197.54125 46.9475 198.65625 46.0625 C 199.77425 45.1385 200.39275 44.0835 200.46875 42.8125 C 200.54775 41.5415 200.10575 40.387 199.21875 39.5 L 191.96875 32.09375 z M 271.78125 47.5625 C 273.09025 47.5625 274.20875 48.115 275.09375 49 C 275.90475 49.886 276.4375 50.901 276.4375 52.25 C 276.4375 53.521 275.90475 54.576 275.09375 55.5 C 274.16975 56.387 273.05125 56.9375 271.78125 56.9375 C 270.51025 56.9375 269.387 56.387 268.5 55.5 C 267.615 54.577 267.15625 53.521 267.15625 52.25 C 267.15625 50.94 267.615 49.887 268.5 49 C 269.386 48.115 270.51025 47.5625 271.78125 47.5625 z M 271.78125 48.28125 C 270.66425 48.28125 269.654 48.691 269 49.5 C 268.192 50.193 267.8125 51.133 267.8125 52.25 C 267.8125 53.291 268.189 54.22225 269 55.03125 C 269.693 55.68525 270.66425 56.0625 271.78125 56.0625 C 272.89625 56.0625 273.9085 55.68525 274.5625 55.03125 C 275.2185 54.22325 275.65625 53.29 275.65625 52.25 C 275.65625 51.133 275.2555 50.193 274.5625 49.5 C 273.9085 48.653 272.93525 48.28125 271.78125 48.28125 z M 269.9375 49.5625 L 272.15625 49.5625 L 273.4375 49.875 C 273.8985 50.029 274.038 50.44425 274 50.90625 C 274 51.94625 273.38475 52.40625 272.34375 52.40625 L 273.9375 54.8125 L 273.125 54.8125 L 271.6875 52.40625 L 270.65625 52.40625 L 270.65625 54.8125 L 269.9375 54.8125 L 269.9375 49.5625 z M 270.65625 50.15625 L 270.65625 51.8125 L 271.53125 51.8125 C 272.64825 51.8125 273.28125 51.52225 273.28125 50.90625 C 273.28125 50.44325 272.94075 50.15625 272.09375 50.15625 L 270.65625 50.15625 z "
   transform="translate(-6.4847716e-6,0)"
   id="path10" />











</svg>