<?xml version="1.0" encoding="UTF-8" standalone="no"?>
<!-- Generator: Adobe Illustrator 16.0.3, SVG Export Plug-In . SVG Version: 6.00 Build 0)  -->

<svg
   xmlns:dc="http://purl.org/dc/elements/1.1/"
   xmlns:cc="http://creativecommons.org/ns#"
   xmlns:rdf="http://www.w3.org/1999/02/22-rdf-syntax-ns#"
   xmlns:svg="http://www.w3.org/2000/svg"
   xmlns="http://www.w3.org/2000/svg"
   xmlns:sodipodi="http://sodipodi.sourceforge.net/DTD/sodipodi-0.dtd"
   xmlns:inkscape="http://www.inkscape.org/namespaces/inkscape"
   version="1.1"
   id="svg2"
   inkscape:version="0.92.2 (5c3e80d, 2017-08-06)"
   sodipodi:version="0.32"
   sodipodi:docname="logo.svg"
   x="0px"
   y="0px"
   width="566.78705"
   height="49.533791"
   viewBox="0 0 566.78703 49.53379"
   enable-background="new 0 0 566.929 66.041"
   xml:space="preserve"><metadata
     id="metadata18"><rdf:RDF><cc:Work
         rdf:about=""><dc:format>image/svg+xml</dc:format><dc:type
           rdf:resource="http://purl.org/dc/dcmitype/StillImage" /><dc:title></dc:title></cc:Work></rdf:RDF></metadata><defs
     id="defs16" /><sodipodi:namedview
     height="206.5px"
     width="1772.6px"
     inkscape:window-x="-4"
     inkscape:window-y="-4"
     inkscape:current-layer="svg2"
     inkscape:pageshadow="2"
     inkscape:window-width="1440"
     inkscape:pageopacity="0.0"
     inkscape:window-height="844"
     objecttolerance="10.0"
     inkscape:cx="462.64189"
     borderopacity="1.0"
     inkscape:cy="283.81202"
     guidetolerance="10.0"
     pagecolor="#ffffff"
     inkscape:zoom="0.32"
     bordercolor="#666666"
     gridtolerance="10.0"
     id="base"
     showgrid="false"
     fit-margin-top="0"
     fit-margin-left="0"
     fit-margin-right="0"
     fit-margin-bottom="0"
     inkscape:window-maximized="0" /><path
     id="path10"
     d="m 295.97108,6.1788638 4.352,-5.22825 h -66.25 c -5.084,0.057 -9.82,1.1265 -14.135,3.2055 l -5.084,2.802 c -2.234,-2.022 -4.43,-3.438 -6.588,-4.3905 -2.695,-1.1265 -5.699,-1.617 -9.127,-1.617 H 86.938075 l -3.66,8.37675 -1.808,-8.376 h -24.538 l -0.885,1.55925 -2.311,-0.60675 c -12.943,-3.3225 -25.383,-2.31075 -37.131,3.1485 -5.971,2.85975 -10.4769999,6.4425002 -13.2499999,10.8322502 -2.84999998,4.39125 -3.81399998,9.273 -3.15799998,14.82 0.461,3.3225 2.00199998,6.41325 4.69899998,9.21525 2.695,2.802 6.1229999,5.055 10.3979999,6.67275 6.201,2.42625 12.941,3.1485 19.99,2.31075 h 21.84 l 5.469,-9.09975 2.004,9.09975 131.266005,-0.11475 c 2.852,0 5.701,-0.5205 8.59,-1.473 2.85,-0.95325 5.314,-2.3115 7.549,-3.987 3.66,2.91825 8.012,4.8825 13.096,5.6625 6.895,1.242 13.559,0.3465 19.836,-2.62875 l 0.811,-0.46275 -0.617,2.976 h 26.73 l 0.656,-3.4665 c 1.578,-0.1725 2.85,-0.77925 3.967,-1.79175 h 72.682 c 11.17,0 19.373,-2.1375 24.381,-6.44175 l 5.393,6.44175 h 77.768 v -8.20275 l 13.98,8.2035 h 96.102 V 6.2366138 h -104.114 v 8.0880002 l -13.789,-8.0880002 h -55.387 l -6.818,9.7065002 -7.549,-9.7650002 h -83.159 z"
     inkscape:connector-curvature="0"
     style="fill:#1f00cc;stroke-width:0.86602539" /><path
     id="path12"
     d="m 312.95608,12.419614 h -8.318 l -19.605,24.75675 h 23.342 v -5.4885 h -9.514 l 9.514,-12.79725 13.789,18.315 h 10.631 v -0.057 h 16.6 c 14.367,0 21.57,-4.16025 21.57,-12.39225 0,-1.416 -0.23,-2.745 -0.732,-3.987 l 13.25,16.38 h 6.355 l 19.066,-24.699 h -10.092 l -11.903,16.1745 -12.557,-16.176 h -10.861 l 3.004,3.6975 c -3.504,-2.48475 -8.551,-3.6975 -15.137,-3.6975 h -21.84 v 20.538 z m 25.961,5.60325 h 12.52 c 6.508,0 9.82,2.13825 9.82,6.41325 0,2.57175 -1.039,4.449 -3.004,5.43075 -1.887,1.011 -5.469,1.50225 -10.477,1.50225 h -8.82 v -13.34625 z"
     inkscape:connector-curvature="0"
     style="fill:#ffffff;stroke-width:0.86602539" /><polygon
     id="polygon14"
     points="405.007,49.565 405.007,49.488 418.488,49.488 418.488,42.131 409.052,42.131 418.412,25.146 432.201,49.565 442.947,49.565 442.947,49.488 448.416,49.488 448.416,29.575 473.337,49.488 479.808,49.488 479.808,16.557 471.179,16.557 471.179,36.238 446.027,16.557 439.595,16.557 439.595,43.941 423.033,16.557 414.675,16.557 395.146,49.565 "
     transform="matrix(1,0,0,0.75,-0.07092488,0.0018638)"
     style="fill:#ffffff" /><path
     id="path16"
     d="m 484.66708,13.804864 c -1.348,0.89625 -2.041,2.514 -2.041,4.8255 v 12.2475 c 0,2.36925 0.693,3.987 2.002,4.8825 1.271,0.89625 3.582,1.35825 6.973,1.35825 h 19.373 c 3.352,0 5.777,-0.462 7.049,-1.35825 1.271,-0.89475 2.004,-2.51325 2.004,-4.8825 v -3.43725 l -9.514,-0.1155 v 3.81375 h -18.412 v -12.97125 h 18.412 v 3.38025 h 9.514 v -2.9175 c 0,-2.427 -0.732,-4.04475 -2.004,-4.8255 -1.271,-0.95325 -3.504,-1.41525 -7.049,-1.41525 h -19.373 c -3.352,0.03 -5.663,0.4635 -6.934,1.41525 z"
     inkscape:connector-curvature="0"
     style="fill:#ffffff;stroke-width:0.86602539" /><polygon
     id="polygon18"
     points="558.458,16.557 523.255,16.557 523.255,49.488 558.882,49.488 558.882,41.862 532.769,41.862 532.769,36.008 547.83,36.008 547.83,28.766 532.769,28.766 532.769,24.028 558.458,24.028 "
     transform="matrix(1,0,0,0.75,-0.07092488,0.0018638)"
     style="fill:#ffffff" /><path
     id="path20"
     d="m 50.770075,7.7673638 c -10.322,-2.80125 -20.299,-1.90575 -29.851,2.5140002 -9.436,4.33275 -13.5569999,10.9485 -12.4399999,19.5855 0.307,2.514 1.5779999,4.82475 3.7359999,6.84675 2.156,2.022 4.93,3.46575 8.242,4.59225 3.35,1.12725 6.895,1.56 10.631,1.416 4.121,-0.17325 7.857,-1.06875 11.516,-2.57175 l 0.385,-0.1725 -1.424,2.3685 h 10.014 l 6.434,-10.48575 h 11.092 l 2.465,10.48575 h 16.41 l 8.396,-19.64325 5.393005,19.64325 h 6.508 l 12.557,-21.78075 1.271,21.78075 h 9.592 l -1.965,-35.1855002 h -11.673 l -10.938,19.2390002 -4.699,-19.2390002 h -9.592005 l -12.362,28.4542502 -6.356,-28.4542502 h -11.824 l -18.104,30.7080002 2.619,-12.85575 h -17.873 l -1.348,6.61575 h 7.473 l -0.732,3.5235 -7.857,0.405 c -3.158,-0.60675 -5.393,-1.84875 -6.895,-3.81375 -1.271,-1.84875 -1.887,-3.75525 -1.578,-5.892 0.385,-2.976 2.311,-5.6625 5.969,-8.08875 3.313,-2.196 7.551,-3.438 12.635,-3.9285 4.854,-0.549 9.129,-0.17325 12.711,1.011 z m 16.91,17.2177502 h -5.931 l 4.121,-6.78825 z"
     inkscape:connector-curvature="0"
     style="fill:#ffffff;stroke-width:0.86602539" /><polygon
     id="polygon22"
     points="159.46,56.46 161.193,46.484 144.246,46.484 145.593,38.087 160.269,38.087 161.847,27.996 147.019,27.996 148.291,19.6 165.199,19.6 166.779,9.508 140.085,9.508 132.576,56.46 "
     transform="matrix(1,0,0,0.75,-0.07092488,0.0018638)"
     style="fill:#ffffff" /><polygon
     id="polygon24"
     points="258.179,9.508 247.087,9.508 258.564,34.273 254.945,56.46 264.689,56.46 267.617,36.894 284.949,9.508 273.74,9.508 264.15,24.875 "
     transform="matrix(1,0,0,0.75,-0.07092488,0.0018638)"
     style="fill:#ffffff" /><path
     id="path26"
     d="m 237.80908,7.4793638 c -5.469,-0.95325 -10.477,0 -15.33,2.8020002 -4.852,2.6865 -8.012,6.55725 -9.668,11.43975 -1.424,4.824 -0.73,9.3885 1.889,13.40325 2.773,4.16025 6.74,6.6735 12.209,7.569 5.393,0.95325 10.4,0 15.254,-2.74425 4.854,-2.802 8.088,-6.67275 9.59,-11.55525 1.502,-4.824 0.811,-9.33 -1.887,-13.40325 -2.697,-4.1025 -6.74,-6.6157502 -12.057,-7.5112502 z m -0.808,7.0192502 c 2.619,0.78 4.275,2.57175 5.162,5.229 0.885,2.6865 0.693,5.4885 -0.617,8.46375 -1.271,2.91825 -3.35,5.1135 -6.047,6.50025 -2.773,1.50225 -5.393,1.791 -7.857,0.95325 -2.619,-0.78 -4.352,-2.57175 -5.238,-5.229 -0.963,-2.74425 -0.617,-5.547 0.654,-8.46375 1.271,-2.85975 3.352,-5.1135 6.047,-6.61575 2.657,-1.41525 5.355,-1.73325 7.896,-0.83775 z"
     inkscape:connector-curvature="0"
     style="fill:#ffffff;stroke-width:0.86602539" /><path
     id="path28"
     d="m 204.95408,8.7213638 c -1.887,-0.8955 -3.736,-1.3575 -5.545,-1.3575 h -17.949 l -7.396,34.9830002 h 21.57 c 2.311,0 4.699,-0.54825 7.203,-1.67475 2.465,-1.12725 4.352,-2.514 5.854,-4.218 1.58,-1.9635 2.156,-3.87075 1.889,-5.892 -0.309,-2.196 -1.889,-4.27575 -4.623,-6.24 5.469,-4.21725 6.74,-8.20425 3.891,-12.01725 -1.234,-1.41675 -2.775,-2.6310002 -4.894,-3.5835002 z m -16.678,12.5662502 1.502,-6.4995 h 6.279 c 1.58,0 2.773,0.34575 3.582,1.011 0.693,0.60675 0.963,1.35825 0.809,2.253 -0.154,0.89625 -0.73,1.61775 -1.656,2.25375 -1.039,0.6645 -2.311,1.01175 -3.813,1.01175 h -6.703 l 10.861,8.319 c 0.887,0.66525 1.35,1.5315 1.271,2.48475 -0.076,0.95325 -0.693,1.734 -1.811,2.427 -1.115,0.66375 -2.695,1.06875 -4.852,1.06875 h -8.475 l 1.502,-7.07775 h 8.088 c 1.811,0 3.236,0.40425 4.275,1.1265 z"
     inkscape:connector-curvature="0"
     style="fill:#ffffff;stroke-width:0.86602539" /><path
     id="path30"
     d="m 276.36608,39.198364 c 0,-1.01175 -0.539,-1.79175 -1.35,-2.45625 -0.885,-0.66375 -2.002,-1.068 -3.311,-1.068 -1.271,0 -2.389,0.40425 -3.275,1.068 -0.885,0.66525 -1.348,1.47375 -1.348,2.45625 0,0.95325 0.463,1.73325 1.348,2.4255 0.887,0.66525 2.004,1.0695 3.275,1.0695 1.27,0 2.387,-0.40425 3.311,-1.0695 0.811,-0.693 1.35,-1.47225 1.35,-2.4255 z m -1.889,-2.0805 c 0.693,0.51975 1.117,1.242 1.117,2.07975 0,0.78 -0.461,1.47375 -1.117,2.07975 -0.654,0.4905 -1.656,0.78 -2.771,0.78 -1.117,0 -2.08,-0.2895 -2.773,-0.78 -0.811,-0.60675 -1.195,-1.299 -1.195,-2.07975 0,-0.83775 0.387,-1.56 1.195,-2.07975 0.654,-0.60675 1.656,-0.8955 2.773,-0.8955 1.154,0 2.117,0.26025 2.771,0.8955 z"
     inkscape:connector-curvature="0"
     style="fill:#ffffff;stroke-width:0.86602539" /><path
     id="path32"
     d="m 273.36208,37.406614 -1.271,-0.231 h -2.234 v 3.9285 h 0.732 v -1.791 h 1.039 l 1.426,1.791 h 0.809 l -1.58,-1.791 c 1.041,0 1.656,-0.3465 1.656,-1.1265 0.038,-0.3465 -0.116,-0.6645 -0.577,-0.78 z m -0.154,0.78075 c 0,0.462 -0.617,0.66375 -1.734,0.66375 h -0.885 v -1.242 h 1.424 c 0.847,0 1.195,0.231 1.195,0.57825 z"
     inkscape:connector-curvature="0"
     style="fill:#ffffff;stroke-width:0.86602539" /></svg>