<?xml version="1.0" encoding="UTF-8" standalone="no"?>
<!-- Generator: Adobe Illustrator 13.0.0, SVG Export Plug-In . SVG Version: 6.00 Build 14948)  -->

<svg
   xmlns:dc="http://purl.org/dc/elements/1.1/"
   xmlns:cc="http://creativecommons.org/ns#"
   xmlns:rdf="http://www.w3.org/1999/02/22-rdf-syntax-ns#"
   xmlns:svg="http://www.w3.org/2000/svg"
   xmlns="http://www.w3.org/2000/svg"
   xmlns:sodipodi="http://sodipodi.sourceforge.net/DTD/sodipodi-0.dtd"
   xmlns:inkscape="http://www.inkscape.org/namespaces/inkscape"
   id="Layer_3"
   xml:space="preserve"
   height="262.69843"
   viewBox="0 0 598.19009 262.69617"
   width="598.18909"
   version="1.2"
   y="0px"
   x="0px"
   inkscape:version="0.92.2 (5c3e80d, 2017-08-06)"
   sodipodi:docname="controller.svg"><defs
     id="defs30" /><sodipodi:namedview
     pagecolor="#ffffff"
     bordercolor="#666666"
     borderopacity="1"
     objecttolerance="10"
     gridtolerance="10"
     guidetolerance="10"
     inkscape:pageopacity="0"
     inkscape:pageshadow="2"
     inkscape:window-width="1920"
     inkscape:window-height="1017"
     id="namedview28"
     showgrid="false"
     fit-margin-top="0"
     fit-margin-left="0"
     fit-margin-right="0"
     fit-margin-bottom="0"
     inkscape:zoom="0.48145238"
     inkscape:cx="299.09757"
     inkscape:cy="175.13638"
     inkscape:window-x="-8"
     inkscape:window-y="-8"
     inkscape:window-maximized="1"
     inkscape:current-layer="Layer_3" /><metadata
     id="metadata55"><rdf:RDF><cc:Work
         rdf:about=""><dc:format>image/svg+xml</dc:format><dc:type
           rdf:resource="http://purl.org/dc/dcmitype/StillImage" /><dc:title></dc:title></cc:Work></rdf:RDF></metadata><path
     id="path3"
     style="color:#000000;text-indent:0;text-align:start;text-transform:none;direction:ltr;baseline-shift:baseline;fill:#f4f4f4;stroke-width:0.86602539;enable-background:accumulate"
     d="m 294.78257,-0.00179733 c -91.93,0 -172.38,23.98575433 -204.969998,36.39825433 -16.879,6.4305 -41.048,18.64275 -60.093,36.28125 -19.045,17.63549 -32.9580002,40.742993 -29.06300026,68.785493 4.99960006,35.9985 27.06800026,65.29875 50.56200026,85.995 11.747,10.34625 23.846,18.53625 34.375,24.35175 10.529,5.8152 19.425998,9.279 25.093998,10.10175 8.1265,1.17968 18.219,1.26338 28.031,-1.45312 9.8125,-2.7165 19.294,-8.27775 26.094,-18.28125 13.446,-19.78125 21.082,-39.216 48,-49.5 27.04,-10.33125 62.088,-12.28125 69.594,-12.28125 h 33.375 c 7.5068,0 42.555,1.9503 69.594,12.28125 l 0.19,0.075 c 26.76,10.3035 34.399,29.69625 47.812,49.4295 6.7999,10.0035 16.281,15.56475 26.094,18.28125 9.8125,2.71657 19.905,2.6328 28.031,1.45312 5.6673,-0.8226 14.565,-4.28632 25.094,-10.10175 10.529,-5.8152 22.628,-14.00475 34.375,-24.35175 23.495,-20.69325 45.562,-49.9935 50.562,-85.995 3.8947,-28.044 -10.017,-51.150003 -29.062,-68.789243 -19.04,-17.63475 -43.21,-29.847 -60.08,-36.2775 -32.59,-12.41175 -113.04,-36.39825433 -204.97,-36.39825433 h -8.625 z m 0,1.50000003 h 8.625 c 91.467,0 171.74,23.9205043 204.06,36.2340043 16.654,6.34485 40.661,18.4635 59.469,35.883 18.808,17.41874 32.426,40.092743 28.594,67.687493 -4.9489,35.6295 -26.802,64.6815 -50.094,85.1925 -11.646,10.257 -23.636,18.37575 -34.031,24.117 -10.395,5.74155 -19.279,9.0945 -24.281,9.8205 -7.8435,1.13858 -17.591,1.21343 -26.969,-1.38285 -9.3778,-2.5962 -18.405,-7.8525 -25,-17.5545 -13.342,-19.62825 -21.186,-39.57675 -48.875,-50.15625 -27.567,-10.53225 -62.549,-12.4455 -70.5,-12.4455 h -33.375 c -7.9467,0 -42.907,1.9017 -70.469,12.4215 l -0.0312,0.0234 c -27.69,10.5795 -35.533,30.528 -48.875,50.15625 -6.5951,9.70275 -15.622,14.95875 -25,17.5545 -9.3777,2.59613 -19.125,2.52143 -26.969,1.38285 -4.99,-0.7275 -13.872998,-4.08 -24.268998,-9.8175 -10.395,-5.745 -22.385,-13.86 -34.031,-24.12 -23.291,-20.5125 -45.1450002,-49.5675 -50.0940002,-85.1925 -3.8322,-27.6 9.7858002,-50.272503 28.5940002,-67.690493 18.808,-17.41875 42.815,-29.538 59.469,-35.883 C 123.06137,25.414357 203.32037,1.4946027 294.79037,1.4946027 Z"
     inkscape:connector-curvature="0" /><path
     id="circle5"
     style="color:#000000;text-indent:0;text-align:start;text-transform:none;direction:ltr;baseline-shift:baseline;fill:#f4f4f4;stroke-width:0.86602539;enable-background:accumulate"
     d="m 139.53257,44.810707 c -51.185998,0 -92.687998,31.12649 -92.687998,69.515993 0,38.3895 41.502,69.53925 92.687998,69.53925 51.186,0 92.719,-31.14975 92.719,-69.53925 0,-38.389503 -41.533,-69.515993 -92.719,-69.515993 z m 0,1.5 c 50.105,0 90.719,30.43724 90.719,68.015993 0,37.57875 -40.614,68.03925 -90.719,68.03925 -50.104998,0 -90.687998,-30.4605 -90.687998,-68.03925 0,-37.578753 40.583,-68.015993 90.687998,-68.015993 z"
     inkscape:connector-curvature="0" /><path
     id="circle7"
     style="color:#000000;text-indent:0;text-align:start;text-transform:none;direction:ltr;baseline-shift:baseline;fill:#f4f4f4;stroke-width:0.86602539;enable-background:accumulate"
     d="m 139.53257,59.506207 c -40.372998,0 -73.093998,24.53999 -73.093998,54.820493 0,30.27975 32.72,54.84375 73.093998,54.84375 40.373,0 73.125,-24.564 73.125,-54.84375 0,-30.279753 -32.752,-54.820493 -73.125,-54.820493 z m 0,1.5 c 39.293,0 71.125,23.85074 71.125,53.320493 0,29.46975 -31.832,53.34375 -71.125,53.34375 -39.293,0 -71.093998,-23.874 -71.093998,-53.34375 0,-29.469753 31.800998,-53.320493 71.093998,-53.320493 z"
     inkscape:connector-curvature="0" /><path
     id="circle9"
     style="color:#000000;text-indent:0;text-align:start;text-transform:none;direction:ltr;baseline-shift:baseline;fill:#f4f4f4;stroke-width:0.86602539;enable-background:accumulate"
     d="m 139.53257,73.216957 c -30.273,0 -54.811998,18.40499 -54.811998,41.108993 0,22.70475 24.539998,41.133 54.811998,41.133 30.273,0 54.844,-18.42825 54.844,-41.133 0,-22.704753 -24.571,-41.108993 -54.844,-41.108993 z m 0,1.5 c 29.192,0 52.844,17.71574 52.844,39.608993 0,21.894 -23.652,39.633 -52.844,39.633 -29.192,0 -52.811998,-17.739 -52.811998,-39.633 0,-21.894003 23.620998,-39.608993 52.811998,-39.608993 z"
     inkscape:connector-curvature="0" /><path
     id="path11"
     style="color:#000000;text-indent:0;text-align:start;text-transform:none;direction:ltr;baseline-shift:baseline;fill:#f4f4f4;stroke-width:0.86602539;enable-background:accumulate"
     d="m 129.59257,76.310697 c -1.8201,0 -3.3125,1.11848 -3.3125,2.48438 v 20.90625 c 0,1.588423 -0.62293,2.704803 -1.6875,3.468753 -1.06457,0.76395 -2.6671,1.21875 -4.8438,1.21875 H 92.154772 c -1.8206,0 -3.3125,1.11892 -3.3125,2.48437 v 14.9295 c 0,1.3659 1.4925,2.48438 3.3125,2.48438 h 27.593998 c 2.021,0 3.638,0.4708 4.75,1.2891 1.112,0.81825 1.7812,2.01757 1.7812,3.60937 v 20.6955 c 0,1.3659 1.4924,2.48438 3.3125,2.48438 h 19.906 c 1.8207,0 3.3125,-1.11885 3.3125,-2.48438 v -20.625 c 4.6e-4,-1.58632 0.52745,-2.8128 1.5312,-3.63285 1.0038,-0.81997 2.5776,-1.3359 5.0938,-1.3359 h 27.5 c 1.8212,0 3.3125,-1.11892 3.3125,-2.48437 v -14.9295 c 0,-1.36545 -1.4913,-2.48438 -3.3125,-2.48438 h -27.469 c -2.6217,0 -4.209,-0.50366 -5.1875,-1.26562 -0.97853,-0.762 -1.4688,-1.88018 -1.4688,-3.421883 v -20.90625 c 0,-1.3659 -1.4924,-2.48437 -3.3125,-2.48437 h -19.906 z m 0,1.5 h 19.906 c 0.7399,0 1.3125,0.42878 1.3125,0.98438 v 20.90625 c 0,1.774803 0.58403,3.349653 2.0312,4.476603 1.44717,1.12695 3.6657,1.7109 6.625,1.7109 h 27.469 c 0.7408,0 1.3125,0.42985 1.3125,0.98437 v 14.9295 c 0,0.55454 -0.5717,0.98438 -1.3125,0.98438 h -27.5 c -2.8928,0 -5.15,0.6488 -6.5938,1.82812 -1.4437,1.1793 -2.0307,2.8137 -2.0312,4.64063 v 20.625 c 0,0.55599 -0.57118,0.98437 -1.3125,0.98437 h -19.906 c -0.7399,0 -1.3125,-0.42877 -1.3125,-0.98437 v -20.6955 c 0,-1.91745 -0.87821,-3.53963 -2.4062,-4.6641 -1.528,-1.1244 -3.68,-1.73438 -6.125,-1.73438 H 92.155072 c -0.73795,0 -1.3125,-0.43023 -1.3125,-0.98437 v -14.9295 c 0,-0.55453 0.57312,-0.98438 1.3125,-0.98438 h 27.593998 c 2.5453,0 4.7073,-0.556 6.2188,-1.64062 1.5114,-1.08465 2.3125,-2.65755 2.3125,-4.546883 v -20.90625 c 0,-0.5556 0.5726,-0.98437 1.3125,-0.98437 z"
     inkscape:connector-curvature="0" /><path
     id="path13"
     style="color:#000000;text-indent:0;text-align:start;text-transform:none;direction:ltr;baseline-shift:baseline;fill:#f4f4f4;stroke-width:0.86602539;enable-background:accumulate"
     d="m 150.78257,87.815697 c 0,9.4155 10.781,18.093753 24.156,18.093753 v -1.5 c -12.212,0 -22.156,-8.042253 -22.156,-16.593753 z"
     inkscape:connector-curvature="0" /><path
     id="polygon15"
     style="color:#000000;text-indent:0;text-align:start;text-transform:none;direction:ltr;baseline-shift:baseline;fill-rule:nonzero;stroke-width:0.86602539;enable-background:accumulate"
     d="m 174.22257,87.230697 -1.125,0.35157 -8.75,2.7891 -0.71875,0.21093 0.5625,0.39844 5.1562,3.63285 0.53125,0.375 0.28125,-0.49219 3.5938,-6.42187 0.46875,-0.84375 z m -1.8438,1.40625 -2.875,5.0625 -4.0625,-2.88285 z"
     inkscape:connector-curvature="0" /><path
     id="circle17"
     style="color:#000000;text-indent:0;text-align:start;text-transform:none;direction:ltr;baseline-shift:baseline;fill:#f4f4f4;stroke-width:0.86602539;enable-background:accumulate"
     d="m 139.53257,105.4182 c -6.5631,0 -11.875,3.98393 -11.875,8.90625 0,4.92233 5.3119,8.9295 11.875,8.9295 6.5631,0 11.906,-4.00732 11.906,-8.9295 0,-4.92232 -5.3431,-8.90625 -11.906,-8.90625 z m 0,1.5 c 5.4822,0 9.9062,3.2946 9.9062,7.40625 0,4.11165 -4.424,7.42965 -9.9062,7.42965 -5.4822,0 -9.875,-3.318 -9.875,-7.42965 0,-4.11165 4.3928,-7.40625 9.875,-7.40625 z"
     inkscape:connector-curvature="0" /><path
     id="path19"
     style="color:#000000;text-indent:0;text-align:start;text-transform:none;direction:ltr;baseline-shift:baseline;fill:#f4f4f4;stroke-width:0.86602539;enable-background:accumulate"
     d="m 126.31257,87.793197 c 0,9.159 -10.723,16.617003 -22.125,16.617003 v 1.5 c 12.554,0 24.125,-8.085753 24.125,-18.117003 z"
     inkscape:connector-curvature="0" /><path
     id="polygon21"
     style="color:#000000;text-indent:0;text-align:start;text-transform:none;direction:ltr;baseline-shift:baseline;fill-rule:nonzero;stroke-width:0.86602539;enable-background:accumulate"
     d="m 103.41257,88.333197 0.46875,0.84375 3.7188,6.5625 0.28125,0.53907 0.53125,-0.42188 4.8438,-3.86715 0.5,-0.39844 -0.65625,-0.21093 -8.5625,-2.69535 -1.125,-0.35157 z m 1.875,1.38285 6.75,2.15625 -3.8438,3.04688 z"
     inkscape:connector-curvature="0" /><path
     id="path23"
     style="color:#000000;text-indent:0;text-align:start;text-transform:none;direction:ltr;baseline-shift:baseline;fill:#f4f4f4;stroke-width:0.86602539;enable-background:accumulate"
     d="m 104.16257,122.7657 v 1.5 c 12.211,0 22.156,8.0415 22.156,16.59375 h 2 c 0,-9.41625 -10.782,-18.09375 -24.156,-18.09375 z"
     inkscape:connector-curvature="0" /><path
     id="polygon25"
     style="color:#000000;text-indent:0;text-align:start;text-transform:none;direction:ltr;baseline-shift:baseline;fill-rule:nonzero;stroke-width:0.86602539;enable-background:accumulate"
     d="m 109.22257,133.6857 -0.28125,0.49219 -3.5938,6.42188 -0.46875,0.84375 1.125,-0.35157 8.75,-2.7891 0.71875,-0.21093 -0.5625,-0.39844 -5.1562,-3.63285 -0.53125,-0.375 z m 0.375,1.2891 4.0625,2.85938 -6.9375,2.20312 z"
     inkscape:connector-curvature="0" /><path
     id="path27"
     style="color:#000000;text-indent:0;text-align:start;text-transform:none;direction:ltr;baseline-shift:baseline;fill:#f4f4f4;stroke-width:0.86602539;enable-background:accumulate"
     d="m 174.91257,122.7657 c -12.554,0 -24.125,8.0865 -24.125,18.117 h 2 c 0,-9.15825 10.723,-16.617 22.125,-16.617 z"
     inkscape:connector-curvature="0" /><path
     id="polygon29"
     style="color:#000000;text-indent:0;text-align:start;text-transform:none;direction:ltr;baseline-shift:baseline;fill-rule:nonzero;stroke-width:0.86602539;enable-background:accumulate"
     d="m 171.22257,132.3957 -0.53125,0.42188 -4.8438,3.86715 -0.5,0.39844 0.65625,0.21093 8.5625,2.69535 1.125,0.35157 -0.46875,-0.84375 -3.7188,-6.5625 -0.28125,-0.53907 z m -0.34375,1.35938 2.9375,5.20312 -6.75,-2.15625 z"
     inkscape:connector-curvature="0" /><path
     id="path31"
     style="color:#000000;text-indent:0;text-align:start;text-transform:none;direction:ltr;baseline-shift:baseline;fill:#f4f4f4;stroke-width:0.86602539;enable-background:accumulate"
     d="m 503.53257,61.427707 c -4.0692,0.0578 -8.3971,0.22438 -12.906,0.51562 -18.037,1.16498 -38.999,4.39703 -58.375,11.27325 -14.463,5.13277 -30.896,12.8835 -45,20.97675 -14.104,8.092503 -25.868,16.497003 -31,23.133003 -5.1525,6.6633 -5.8039,15.3825 -3.8438,23.64825 1.9602,8.26575 6.5213,16.08675 12.188,21 11.238,9.74625 30.594,15.2445 55.281,10.28925 12.328,-2.47395 20.222,-6.15653 28.406,-10.4535 8.1838,-4.2966 16.672,-9.222 30.5,-14.34375 27.706,-10.2615 51.272,-14.085 64.094,-17.2035 6.4803,-1.57658 13.213,-4.30538 18.344,-9.28125 5.1308,-4.97588 8.6395,-12.17025 8.8125,-22.593753 0.17552,-10.515 -5.6556,-18.6555 -13.406,-24.46875 -7.7507,-5.81295 -17.388,-9.33075 -25.125,-10.78125 -5.821,-1.09177 -15.761,-1.88422 -27.969,-1.7109 z m 0.0625,1.5234 c 12.094,-0.16458 21.894,0.60674 27.406,1.64062 7.3739,1.38233 16.772,4.7976 24.219,10.383 7.4471,5.58517 12.981,13.2975 12.812,23.391 -0.169,10.182753 -3.5456,17.019753 -8.375,21.703503 -4.8294,4.68352 -11.148,7.2507 -17.375,8.766 -12.569,3.0561 -36.359,6.92752 -64.219,17.22675 l -0.15625,0.0703 c -13.991,5.18213 -22.652,10.16925 -30.781,14.4375 -8.1297,4.26825 -15.693,7.8225 -27.75,10.242 -24.083,4.83383 -42.508,-0.50472 -53.25,-9.8205 -5.3238,-4.61662 -9.8464,-12.24675 -11.75,-20.27325 -1.9036,-8.0265 -1.2127,-16.425 3.5938,-22.641 4.8282,-6.24315 16.502,-14.65575 30.5,-22.687503 13.998,-8.03175 30.337,-15.74175 44.625,-20.81249 19.09,-6.77505 39.866,-9.9795 57.719,-11.133 4.4633,-0.28828 8.7501,-0.43733 12.781,-0.49219 z"
     inkscape:connector-curvature="0" /><path
     id="path33"
     style="color:#000000;text-indent:0;text-align:start;text-transform:none;direction:ltr;baseline-shift:baseline;fill:#f4f4f4;stroke-width:0.86602539;enable-background:accumulate"
     d="m 518.62257,70.873207 c -8.4685,-0.19181 -17.478,1.0656 -26.219,3.60937 -23.013,6.69772 -51.828,15.192 -65.344,20.391 -10.751,4.13527 -25.026,8.514753 -37.156,14.320503 -12.13,5.8056 -22.206,13.0875 -24.156,23.0625 -3.8695,19.79775 19.444,34.4175 44.094,30.984 12.195,-1.6983 20.464,-5.382 29,-9.84375 8.5356,-4.46175 17.387,-9.68325 31.031,-14.6715 13.657,-4.99305 28.184,-8.5905 40.875,-11.484 12.69,-2.89388 23.488,-5.08448 29.844,-7.3359 6.4857,-2.29718 12.376,-7.33155 15.25,-13.66425 2.8735,-6.332553 2.689,-13.974753 -3.125,-21.375003 -5.8166,-7.4028 -15.14,-11.733 -25.844,-13.3125 -2.676,-0.39483 -5.4272,-0.61575 -8.25,-0.67969 z m -0.0625,1.5 c 2.7206,0.0609 5.3759,0.2783 7.9375,0.65625 10.246,1.51177 18.983,5.56394 24.5,12.58574 5.519,7.02465 5.6765,14.18925 2.9688,20.156253 -2.7077,5.96708 -8.3404,10.7145 -14.219,12.7965 -6.0069,2.12775 -16.838,4.31715 -29.562,7.21875 -12.724,2.9016 -27.368,6.52568 -41.188,11.5785 -13.833,5.05778 -22.848,10.3875 -31.312,14.8125 -8.4649,4.42478 -16.373,7.9365 -28.219,9.58575 -23.432,3.26325 -45.433,-10.4325 -41.75,-29.27325 1.8273,-9.34425 11.336,-16.329 23.25,-22.03125 11.914,-5.70202 26.122,-10.06575 37,-14.250003 13.273,-5.10502 42.181,-13.6245 65.188,-20.3205 8.5171,-2.47874 17.244,-3.69824 25.406,-3.51562 z"
     inkscape:connector-curvature="0" /><path
     id="circle35"
     style="color:#000000;text-indent:0;text-align:start;text-transform:none;direction:ltr;baseline-shift:baseline;fill:#f4f4f4;stroke-width:0.86602539;enable-background:accumulate"
     d="m 403.09257,112.3332 c -16.9,0 -30.625,10.29375 -30.625,22.96875 0,12.675 13.725,22.96875 30.625,22.96875 16.9,0 30.625,-10.29375 30.625,-22.96875 0,-12.675 -13.725,-22.96875 -30.625,-22.96875 z m 0,1.5 c 15.819,0 28.625,9.6045 28.625,21.46875 0,11.86425 -12.806,21.46875 -28.625,21.46875 -15.819,0 -28.625,-9.6045 -28.625,-21.46875 0,-11.86425 12.806,-21.46875 28.625,-21.46875 z"
     inkscape:connector-curvature="0" /><path
     id="circle37"
     style="color:#000000;text-indent:0;text-align:start;text-transform:none;direction:ltr;baseline-shift:baseline;fill:#f4f4f4;stroke-width:0.86602539;enable-background:accumulate"
     d="m 403.09257,116.5782 c -13.77,0 -24.938,8.3985 -24.938,18.72675 0,10.3275 11.167,18.72675 24.938,18.72675 13.77,0 24.969,-8.3985 24.969,-18.72675 0,-10.3275 -11.198,-18.72675 -24.969,-18.72675 z m 0,1.5 c 12.69,0 22.969,7.70925 22.969,17.22675 0,9.5175 -10.279,17.22675 -22.969,17.22675 -12.69,0 -22.938,-7.70925 -22.938,-17.22675 0,-9.5175 10.248,-17.22675 22.938,-17.22675 z"
     inkscape:connector-curvature="0" /><path
     id="circle39"
     style="color:#000000;text-indent:0;text-align:start;text-transform:none;direction:ltr;baseline-shift:baseline;fill:#f4f4f4;stroke-width:0.86602539;enable-background:accumulate"
     d="m 459.78257,90.328197 c -16.9,0 -30.625,10.270503 -30.625,22.945503 0,12.675 13.725,22.96875 30.625,22.96875 16.9,0 30.594,-10.29375 30.594,-22.96875 0,-12.675 -13.694,-22.945503 -30.594,-22.945503 z m 0,1.5 c 15.819,0 28.594,9.580503 28.594,21.445503 0,11.86425 -12.774,21.46875 -28.594,21.46875 -15.819,0 -28.625,-9.6045 -28.625,-21.46875 0,-11.86425 12.806,-21.445503 28.625,-21.445503 z"
     inkscape:connector-curvature="0" /><path
     id="circle41"
     style="color:#000000;text-indent:0;text-align:start;text-transform:none;direction:ltr;baseline-shift:baseline;fill:#f4f4f4;stroke-width:0.86602539;enable-background:accumulate"
     d="m 459.78257,94.565697 c -13.771,0 -24.969,8.375253 -24.969,18.703503 0,10.32825 11.198,18.72675 24.969,18.72675 13.771,0 24.938,-8.3985 24.938,-18.72675 0,-10.32825 -11.167,-18.703503 -24.938,-18.703503 z m 0,1.5 c 12.69,0 22.938,7.685253 22.938,17.203503 0,9.5175 -10.247,17.22675 -22.938,17.22675 -12.69,0 -22.969,-7.70925 -22.969,-17.22675 0,-9.5175 10.279,-17.203503 22.969,-17.203503 z"
     inkscape:connector-curvature="0" /><path
     id="circle43"
     style="color:#000000;text-indent:0;text-align:start;text-transform:none;direction:ltr;baseline-shift:baseline;fill:#f4f4f4;stroke-width:0.86602539;enable-background:accumulate"
     d="m 519.78257,74.083957 c -16.901,0 -30.625,10.29299 -30.625,22.96874 0,12.675753 13.724,22.968753 30.625,22.968753 16.901,0 30.625,-10.293 30.625,-22.968753 0,-12.67575 -13.724,-22.96874 -30.625,-22.96874 z m 0,1.49999 c 15.82,0 28.625,9.60375 28.625,21.46875 0,11.865003 -12.805,21.468753 -28.625,21.468753 -15.82,0 -28.625,-9.60375 -28.625,-21.468753 0,-11.865 12.805,-21.46875 28.625,-21.46875 z"
     inkscape:connector-curvature="0" /><path
     id="circle45"
     style="color:#000000;text-indent:0;text-align:start;text-transform:none;direction:ltr;baseline-shift:baseline;fill:#f4f4f4;stroke-width:0.86602539;enable-background:accumulate"
     d="m 519.78257,78.328197 c -13.771,0 -24.938,8.3985 -24.938,18.72675 0,10.328253 11.167,18.726753 24.938,18.726753 13.771,0 24.969,-8.3985 24.969,-18.726753 0,-10.32825 -11.198,-18.72675 -24.969,-18.72675 z m 0,1.5 c 12.69,0 22.969,7.70925 22.969,17.22675 0,9.517503 -10.279,17.226753 -22.969,17.226753 -12.69,0 -22.938,-7.70925 -22.938,-17.226753 0,-9.5175 10.247,-17.22675 22.938,-17.22675 z"
     inkscape:connector-curvature="0" /><path
     id="path47"
     style="color:#000000;text-indent:0;text-align:start;text-transform:none;direction:ltr;baseline-shift:baseline;fill:#f4f4f4;stroke-width:0.86602539;enable-background:accumulate"
     d="m 442.91257,37.756207 c -1.8765,-0.0971 -3.8,0.0982 -5.6875,0.58593 l -41.1,10.59375 c -7.5491,1.95 -11.57,8.14125 -8.9688,13.8045 2.601,5.66318 10.855,8.7015 18.406,6.75 l 41.1,-10.617 c 7.55,-1.95075 11.57,-8.14125 8.9688,-13.8045 -1.9508,-4.24687 -7.0894,-7.02105 -12.719,-7.3125 z m -0.125,1.5 c 4.8532,0.24675 9.2508,2.63272 10.938,6.30465 2.249,4.89682 -1.1907,10.19625 -7.7188,11.883 l -41.09,10.617 c -6.5291,1.6875 -13.595,-0.89228 -15.844,-5.7891 -2.249,-4.89683 1.1918,-10.22025 7.7188,-11.90625 l 41.09,-10.617 c 1.632,-0.42168 3.2885,-0.57444 4.9062,-0.49219 z"
     inkscape:connector-curvature="0" /><path
     id="path49"
     style="color:#000000;text-indent:0;text-align:start;text-transform:none;direction:ltr;baseline-shift:baseline;fill:#f4f4f4;stroke-width:0.86602539;enable-background:accumulate"
     d="m 441.84257,42.631207 c -1.064,-0.0555 -2.1808,0.0285 -3.25,0.30468 l -39.78,10.28925 c -4.2769,1.10475 -6.5366,4.6203 -5.0625,7.8285 1.4729,3.2085 6.1604,4.92593 10.438,3.82035 l 39.75,-10.28925 c 4.2779,-1.10467 6.5666,-4.61992 5.0938,-7.8285 -1.1055,-2.4057 -3.9956,-3.9585 -7.1875,-4.125 z m -0.15625,1.4766 c 2.4158,0.12174 4.6273,1.30957 5.4688,3.14062 1.1212,2.4423 -0.58769,5.0889 -3.8438,5.92965 l -39.781,10.266 c -3.2549,0.84135 -6.7852,-0.4408 -7.9062,-2.88285 -1.1218,-2.44117 0.58865,-5.0889 3.8438,-5.92965 l 39.79,-10.266 c 0.81378,-0.21019 1.6322,-0.29839 2.4375,-0.25781 z"
     inkscape:connector-curvature="0" /></svg>