<?xml version="1.0" encoding="UTF-8" standalone="no"?>
<!-- Generator: Adobe Illustrator 13.0.0, SVG Export Plug-In . SVG Version: 6.00 Build 14948)  -->

<svg
   xmlns:ns="&amp;#38;#38;ns_sfw;"
   xmlns:dc="http://purl.org/dc/elements/1.1/"
   xmlns:cc="http://creativecommons.org/ns#"
   xmlns:rdf="http://www.w3.org/1999/02/22-rdf-syntax-ns#"
   xmlns:svg="http://www.w3.org/2000/svg"
   xmlns="http://www.w3.org/2000/svg"
   xmlns:sodipodi="http://sodipodi.sourceforge.net/DTD/sodipodi-0.dtd"
   xmlns:inkscape="http://www.inkscape.org/namespaces/inkscape"
   version="1.2"
   id="Layer_3"
   x="0px"
   y="0px"
   width="583.36627"
   height="230.53439"
   viewBox="0 0 583.36625 230.53439"
   xml:space="preserve"
   inkscape:version="0.92.2 (5c3e80d, 2017-08-06)"
   sodipodi:docname="controller.svg"><defs
     id="defs29" /><sodipodi:namedview
     pagecolor="#ffffff"
     bordercolor="#666666"
     borderopacity="1"
     objecttolerance="10"
     gridtolerance="10"
     guidetolerance="10"
     inkscape:pageopacity="0"
     inkscape:pageshadow="2"
     inkscape:window-width="1920"
     inkscape:window-height="1017"
     id="namedview27"
     showgrid="false"
     fit-margin-top="0"
     fit-margin-left="0"
     fit-margin-right="0"
     fit-margin-bottom="0"
     inkscape:zoom="0.48145317"
     inkscape:cx="-17.737389"
     inkscape:cy="151.5722"
     inkscape:window-x="-8"
     inkscape:window-y="-8"
     inkscape:window-maximized="1"
     inkscape:current-layer="Layer_3" /><metadata
     id="metadata55"><rdf:RDF><cc:Work
         rdf:about=""><dc:format>image/svg+xml</dc:format><dc:type
           rdf:resource="http://purl.org/dc/dcmitype/StillImage" /><dc:title></dc:title></cc:Work></rdf:RDF><ns:sfw><ns:slices /><ns:sliceSourceBounds
         x="-7231"
         y="-7652"
         width="16383"
         height="16383"
         bottomLeftOrigin="true" /></ns:sfw></metadata><path
     id="ellipse3"
     d="m 214.35136,52.905753 c -36.656,-25.41225 -100.118,-18.40575 -141.759004,15.39 -41.65,33.796497 -45.998,81.806997 -9.34,107.216997 36.658,25.4175 100.156004,18.40425 141.807004,-15.39075 41.651,-33.7935 45.958,-81.806247 9.294,-107.222997 z m -1.3,1.0545 c 35.728,24.7605 31.679,71.858247 -9.398,105.191997 -41.086,33.33375 -103.382,40.074 -139.099004,15.30975 -35.719,-24.756 -31.636,-71.85 9.446,-105.191247 41.082004,-33.33525 103.343004,-40.071 139.060004,-15.3105 z"
     inkscape:connector-curvature="0"
     style="fill:#f4f4f4;stroke-width:0.86602539" /><path
     id="ellipse5"
     d="m 199.25836,61.669503 c -30.099,-20.868 -82.364,-14.961 -116.741004,12.9315 -34.378,27.893247 -38.132,67.429497 -8.033,88.302747 30.099004,20.8665 82.364004,14.95875 116.742004,-12.9345 34.377,-27.89325 38.128,-67.429497 8.029,-88.302747 z m -1.3,1.0545 c 29.154,20.2125 25.675,58.837497 -8.138,86.270997 -33.814,27.43425 -84.883,33.0645 -114.033004,12.852 -29.156,-20.20575 -25.677,-58.83 8.136,-86.264247 33.812004,-27.43725 84.880004,-33.06675 114.033004,-12.85425 z"
     inkscape:connector-curvature="0"
     style="fill:#f4f4f4;stroke-width:0.86602539" /><path
     id="path7"
     d="m 283.68036,0.0015 c -33.468,0 -69.873,3.132 -105.276,10.54275 -0.688,0.15 -1.309,0.54 -1.436,1.0545 -0.127,0.5145 0.168,0.9435 0.538,1.2555 0,0 5.863,5.07825 9.362,7.515 1.587,1.1055 3.045,2.7405 5.772,3.813003 2.727,1.0725 6.623,1.476 12.831,0.35925 11.909,-2.143503 57.564,-6.706503 74.83,-6.706503 h 22.79 c 17.265,0 62.918,4.563 74.83,6.706503 6.207,1.11675 10.074,0.71325 12.801,-0.35925 2.727,-1.072503 4.217,-2.708253 5.802,-3.813003 3.492,-2.4315 9.093,-7.24575 9.093,-7.24575 l -1.466,-0.942 c 0,0 -5.603,4.8285 -8.913,7.13325 -1.812,1.263 -3.131,2.7255 -5.383,3.61125 -2.253,0.885753 -5.549,1.292253 -11.484,0.22425 -12.378,-2.2275 -57.571,-6.75225 -75.278,-6.75225 h -22.79 c -17.708,0 -62.902,4.52475 -75.278,6.75225 -5.937,1.068003 -9.232,0.661503 -11.485,-0.22425 -2.252,-0.8865 -3.57,-2.349 -5.383,-3.61125 -3.292,-2.29275 -9.14,-7.34025 -9.188,-7.3815 35.19,-7.362 71.415,-10.49775 104.711,-10.49775 h 15.992 c 34.192,0 71.468,3.351 107.554,11.148 -0.27,0.23475 -7.83,6.8085 -11.036,9.03975 -1.78,1.239 -3.319,2.688003 -5.831,3.588753 -2.512,0.90075 -6.063,1.314 -11.994,0.24675 -12.383,-2.22825 -57.575,-6.752253 -75.281,-6.752253 h -22.789 c -17.708,0 -62.901,4.524003 -75.278,6.751503 -5.931,1.068 -9.48,0.654 -11.993,-0.24675 -2.512,-0.9 -4.051,-2.349003 -5.832,-3.588753 -3.284,-2.28675 -11.245,-8.99475 -11.245,-8.99475 -1.043,-0.8895 -2.641,-0.9915 -3.924,-0.6945 -41.118,9.2445 -80.551004,24.386253 -111.978004,47.284503 -29.897,21.7845 -50.6939998,50.740497 -57.5729998,78.799497 -6.879,28.06125 0.198,55.305 26.2599998,73.437 28.719,19.98075 53.625,21.70425 76.056004,16.71075 22.432,-4.9935 42.46,-16.55625 61.969,-22.9695 18.913,-6.216 63.788,-21.24225 106.234,-21.24225 h 37.384 c 42.446,0 87.32,15.02625 106.233,21.24225 19.509,6.41325 39.509,17.97675 61.938,22.9695 22.432,4.9935 47.37,3.2685 76.087,-16.71075 26.063,-18.1335 33.139,-45.378 26.261,-73.437 -6.883,-28.059 -27.68,-57.014997 -57.578,-78.799497 C 463.30936,15.49575 374.17036,0 299.66336,0 h -16.001 z m 124.053,12.67275 c 41.978,9.123 82.317,24.313503 114.253,47.576253 29.607,21.5715 50.237,50.287497 57.035,78.017247 6.798,27.72675 -0.202,54.4035 -25.691,72.138 -28.357,19.7295 -52.246,21.28425 -74.201,16.39725 -21.954,-4.8885 -41.894,-16.38075 -61.729,-22.902 -18.892,-6.20925 -63.965,-21.3765 -107.009,-21.3765 h -37.385 c -43.046,0 -88.12,15.16725 -107.008,21.3765 -19.837,6.52125 -39.777,18.015 -61.73,22.902 -21.965004,4.8885 -45.855004,3.33 -74.214004,-16.40175 C 4.5663562,192.67125 -2.4336438,165.9915 4.3633562,138.2625 11.160356,110.5425 31.790356,81.823503 61.397356,60.253503 92.554356,37.552503 131.68836,22.49775 172.55936,13.305 c 0.767,-0.177 1.52,-0.102 1.944,0.26925 0,0 7.848,6.65775 11.366,9.10725 1.62,1.128003 3.358,2.778003 6.31,3.835503 2.953,1.0575 7.066,1.455 13.279,0.33675 11.911,-2.1435 57.564,-6.707253 74.83,-6.707253 h 22.79 c 17.265,0 62.918,4.563003 74.829,6.707253 6.214,1.11825 10.328,0.72075 13.279,-0.33675 2.953,-1.0575 4.691,-2.7075 6.311,-3.835503 3.538,-2.463 11.306,-9.2865 11.306,-9.2865 l -1.076,-0.7185 z"
     inkscape:connector-curvature="0"
     style="fill:#f4f4f4;stroke-width:0.86602539" /><path
     id="path9"
     d="m 412.85336,35.374503 c -23.602,0.45225 -45.641,6.91575 -61.76,19.67175 -36.844,29.157 -28.561,79.875747 18.155,113.295747 46.713,33.42225 114.464,37.07475 151.301,7.9185 36.843,-29.157 28.59,-79.875747 -18.126,-113.295747 -26.28,-18.801 -59.231,-28.17225 -89.57,-27.59175 z m 0.149,1.4355 c 29.785,-0.5595 62.181,8.6355 88.109,27.18675 46.096,32.979 54.016,82.803747 18.034,111.279747 -35.982,28.4745 -102.491,25.0155 -148.583,-7.96275 -46.096,-32.97975 -54.048,-82.804497 -18.064,-111.279747 15.744,-12.45825 37.338,-18.789 60.504,-19.224 z"
     inkscape:connector-curvature="0"
     style="fill:#f4f4f4;stroke-width:0.86602539" /><path
     id="path11"
     d="m 420.26136,52.444503 c -18.995,0.38925 -36.874,5.71125 -50.007,16.1505 -25.401,20.193 -24.646,52.815747 -0.718,78.123747 l 1.561,-0.82425 c -23.492,-24.8505 -24.143,-56.690247 0.539,-76.308747 22.683,-18.03225 60.07,-20.42325 92.385,-7.896 l 0.87,-1.28025 c -14.413,-5.58675 -29.85,-8.26575 -44.627,-7.9635 z"
     inkscape:connector-curvature="0"
     style="fill:#f4f4f4;stroke-width:0.86602539" /><path
     id="path13"
     d="m 491.36136,75.075003 -1.35,1.0125 c 8.043,6.0915 14.432,12.9 19.141,20.031 l 1.732,-0.65325 c -4.801,-7.269 -11.342,-14.18925 -19.529,-20.3895 h 0.006 z"
     inkscape:connector-curvature="0"
     style="fill:#f4f4f4;stroke-width:0.86602539" /><path
     id="path15"
     d="m 518.72236,129.405 c -0.902,12.291 -6.89,23.83725 -18.214,32.83875 -22.895,18.1995 -60.765,20.46375 -93.283,7.53675 l -0.896,1.278 c 33.144,13.17675 72.021,10.90275 95.585,-7.8285 11.657,-9.2595 17.792,-21.168 18.721,-33.75075 l -1.914,-0.0675 z"
     inkscape:connector-curvature="0"
     style="fill:#f4f4f4;stroke-width:0.86602539" /><path
     id="circle17"
     d="m 135.69036,67.226253 c -31.77,0 -57.542004,19.329 -57.542004,43.156497 0,23.82825 25.772004,43.15725 57.542004,43.15725 31.771,0 57.543,-19.329 57.543,-43.15725 0,-23.826747 -25.773,-43.156497 -57.543,-43.156497 z m 0,1.43625 c 30.737,0 55.629,18.669 55.629,41.720997 0,23.05275 -24.892,41.72175 -55.629,41.72175 -30.736,0 -55.628004,-18.669 -55.628004,-41.72175 -10e-4,-23.051997 24.892004,-41.720997 55.628004,-41.720997 z"
     inkscape:connector-curvature="0"
     style="fill:#f4f4f4;stroke-width:0.86602539" /><path
     id="path19"
     d="m 137.99736,73.101753 c -4.056,-0.14025 -8.025,0.093 -11.843,0.65025 -0.01,0.001 -0.02,-0.001 -0.03,0 v 0.0225 c -0.575,0.078 -1.19,0.30075 -1.555,0.69525 -0.372,0.40425 -0.502,0.90525 -0.538,1.4805 l -0.748,11.82075 c -0.243,3.945 -1.778,6.79725 -4.486,8.658 -2.708,1.8615 -6.679,2.7855 -11.993,2.6025 l -15.462004,-0.5385 c -0.775,-0.0262 -1.378,-0.0367 -2.003,0.15675 -0.626,0.1935 -1.108,0.6315 -1.346,1.09875 v 0.045 0.0218 c -1.106,2.818497 -1.786,5.774247 -1.974,8.837997 -0.179,2.92575 0.094,5.78325 0.778,8.54625 v 0.0225 c 0.298,1.03875 1.644,1.8645 3.499,1.929 l 15.313004,0.516 c 5.126,0.1755 8.929,1.40025 11.425,3.52125 2.497,2.12025 3.75,5.211 3.499,9.28575 l -0.658,10.92375 c -0.043,0.69825 0.011,1.23975 0.299,1.72725 0.288,0.48825 0.848,0.84675 1.436,1.032 l 0.06,0.0217 h 0.06 c 3.726,0.81525 7.616,1.32 11.664,1.45875 3.958,0.13725 7.841,-0.0765 11.575,-0.60675 h 0.03 l 0.03,-0.0217 c 0.64,-0.12075 1.282,-0.39375 1.705,-0.85275 0.422,-0.4575 0.614,-1.044 0.658,-1.74975 l 0.688,-10.87875 c 0.246,-3.99375 1.882,-7.00425 4.606,-8.99475 2.724,-1.989 6.568,-2.99475 11.455,-2.82675 l 15.672,0.5385 c 0.858,0.0307 1.581,0.0337 2.273,-0.22425 0.692,-0.2565 1.157,-0.75975 1.436,-1.3455 v -0.0225 -0.0225 c 1.035,-2.724 1.673,-5.595 1.854,-8.5455 0.182,-2.96325 -0.104,-5.86275 -0.808,-8.658 v -0.0217 l -0.047,-0.0435 c -0.163,-0.402 -0.411,-0.84675 -0.928,-1.18875 -0.516,-0.342 -1.244,-0.53175 -2.093,-0.561 l -16.174,-0.5595 c -4.832,-0.16725 -8.54,-1.361997 -11.007,-3.409497 -2.467,-2.0475 -3.76,-4.998 -3.529,-8.7705 l 0.717,-11.57475 c 0.034,-0.5475 0.122,-1.0215 -0.06,-1.5255 -0.181,-0.504 -0.807,-0.98175 -1.555,-1.167 h -0.03 c -3.782,-0.8415 -7.757,-1.3605 -11.873,-1.503 z m -0.09,1.4355 c 3.961,0.1365 7.789,0.6495 11.426,1.458 0.233,0.0555 0.227,0.0413 0.27,0.15675 0.046,0.12975 0.034,0.5205 0,1.07625 l -0.718,11.57475 c -0.249,4.05375 1.18,7.431 4.038,9.8025 2.857,2.371497 7.106,3.699747 12.322,3.880497 l 16.18,0.561 c 0.548,0.0188 0.784,0.10725 0.927,0.2025 0.136,0.09 0.223,0.26625 0.329,0.516 0.005,0.0135 0.024,0.009 0.03,0.0225 0.659,2.6595 0.921,5.41275 0.748,8.232 -0.173,2.82525 -0.779,5.559 -1.765,8.1645 -0.196,0.41325 -0.287,0.48 -0.449,0.53925 -0.161,0.06 -0.585,0.11625 -1.346,0.0893 l -15.672,-0.5385 c -5.29,-0.1815 -9.749,0.93525 -12.891,3.23025 -3.141,2.2965 -4.913,5.70225 -5.173,9.95925 l -0.689,10.875 c -0.033,0.53625 -0.184,0.85275 -0.329,1.0095 -0.146,0.15825 -0.287,0.21 -0.598,0.26925 -3.57,0.50325 -7.278,0.714 -11.065,0.58275 -3.862,-0.13275 -7.57,-0.59625 -11.125,-1.36875 -0.01,-7.5e-4 -0.021,0.003 -0.03,0 -0.289,-0.0922 -0.339,-0.1335 -0.419,-0.2685 -0.084,-0.141 -0.157,-0.49875 -0.12,-1.0995 l 0.658,-10.92375 c 0.267,-4.32975 -1.081,-7.83375 -3.978,-10.296 -2.896,-2.46 -7.279,-3.80325 -12.771,-3.99225 l -15.313004,-0.5385 c -1.217,-0.042 -1.59,-0.39675 -1.705,-0.76275 -0.002,-0.007 0.002,-0.0157 0,-0.0225 -0.653,-2.64825 -0.919,-5.4015 -0.748,-8.21025 0.18,-2.931 0.802,-5.76075 1.854,-8.4555 0.012,-0.0232 0.02,-0.002 0.03,-0.0225 0.002,-0.007 -0.003,-0.0157 0,-0.0225 0.091,-0.16725 0.137,-0.21525 0.239,-0.246747 0.119,-0.0368 0.53,-0.069 1.226,-0.045 l 15.433004,0.538497 c 5.654,0.195 10.204,-0.808497 13.369,-2.983497 3.165,-2.17425 4.856,-5.47125 5.115,-9.66825 l 0.748,-11.799 c 0.026,-0.4185 0.134,-0.63675 0.209,-0.71775 0.075,-0.081 0.085,-0.10875 0.299,-0.135 h 0.03 c 3.678,-0.5385 7.513,-0.7635 11.425,-0.62775 v 0.004 z"
     inkscape:connector-curvature="0"
     style="fill:#f4f4f4;stroke-width:0.86602539" /><path
     id="circle21"
     d="m 135.69036,101.748 c -6.336,0 -11.484,3.8835 -11.484,8.6355 0,4.752 5.148,8.613 11.484,8.613 6.337,0 11.485,-3.861 11.485,-8.613 0,-4.752 -5.148,-8.6355 -11.485,-8.6355 z m 0,1.4355 c 5.303,0 9.571,3.2235 9.571,7.2 0,3.97725 -4.268,7.1775 -9.571,7.1775 -5.302,0 -9.57,-3.201 -9.57,-7.1775 0,-3.9765 4.268,-7.2 9.57,-7.2 z"
     inkscape:connector-curvature="0"
     style="fill:#f4f4f4;stroke-width:0.86602539" /><path
     id="polygon23"
     d="m 103.54336,83.918253 0.568,1.4355 1.884,4.755 0.449,1.0995 1.106,-0.78525 4.247,-2.8935 1.137,-0.76275 -1.406,-0.426 -6.161,-1.8615 z m 2.961,2.445 2.901,0.87525 -2.034,1.368 z"
     inkscape:connector-curvature="0"
     style="fill:#f4f4f4;stroke-width:0.86602539" /><path
     id="polygon25"
     d="m 104.20436,127.452 -0.568,1.0545 -2.483,4.59825 -0.717,1.3905 1.884,-0.426 6.341,-1.41375 1.465,-0.336 -1.017,-0.85275 -3.888,-3.16275 z m 0.627,2.64675 1.825,1.503 -2.991,0.67275 z"
     inkscape:connector-curvature="0"
     style="fill:#f4f4f4;stroke-width:0.86602539" /><path
     id="polygon27"
     d="m 164.93836,129.56175 -1.107,0.76275 -4.247,2.8935 -1.137,0.76275 1.436,0.44925 6.131,1.839 1.854,0.561 -0.598,-1.4355 -1.885,-4.75575 z m -0.958,2.58 0.898,2.24325 -2.9,-0.87525 z"
     inkscape:connector-curvature="0"
     style="fill:#f4f4f4;stroke-width:0.86602539" /><path
     id="polygon29"
     d="m 170.98636,86.250753 -1.914,0.426 -6.34,1.4355 -1.466,0.31425 1.017,0.852 3.888,3.18525 1.017,0.83025 0.568,-1.0545 2.482,-4.59825 z m -3.29,2.24325 -1.136,2.15325 -1.825,-1.50225 z"
     inkscape:connector-curvature="0"
     style="fill:#f4f4f4;stroke-width:0.86602539" /><path
     id="circle31"
     d="m 395.74136,131.7585 c -15.183,0 -27.516,9.24975 -27.516,20.637 0,11.38725 12.333,20.63625 27.516,20.63625 15.183,0 27.485,-9.249 27.485,-20.63625 0,-11.38725 -12.303,-20.637 -27.485,-20.637 z m 0,1.43625 c 14.148,0 25.571,8.589 25.571,19.20075 0,10.61175 -11.423,19.20075 -25.571,19.20075 -14.148,0 -25.602,-8.589 -25.602,-19.20075 0,-10.61175 11.453,-19.20075 25.602,-19.20075 z"
     inkscape:connector-curvature="0"
     style="fill:#f4f4f4;stroke-width:0.86602539" /><path
     id="circle33"
     d="m 446.58036,108.68175 c -15.182,0 -27.516,9.249 -27.516,20.63625 0,11.388 12.334,20.63625 27.516,20.63625 15.184,0 27.486,-9.24825 27.486,-20.63625 0,-11.38725 -12.303,-20.63625 -27.486,-20.63625 z m 0,1.4355 c 14.147,0 25.572,8.58975 25.572,19.20075 0,10.611 -11.425,19.20075 -25.572,19.20075 -14.147,0 -25.602,-8.589 -25.602,-19.20075 0,-10.61175 11.454,-19.20075 25.602,-19.20075 z"
     inkscape:connector-curvature="0"
     style="fill:#f4f4f4;stroke-width:0.86602539" /><path
     id="circle35"
     d="m 501.61136,94.118253 c -15.184,0 -27.516,9.249747 -27.516,20.636247 0,11.3865 12.332,20.6145 27.516,20.6145 15.183,0 27.515,-9.228 27.515,-20.6145 0,-11.3865 -12.333,-20.636247 -27.515,-20.636247 z m 0,1.4355 c 14.147,0 25.601,8.589747 25.601,19.200747 0,10.611 -11.454,19.17825 -25.601,19.17825 -14.148,0 -25.602,-8.56725 -25.602,-19.17825 0,-10.611 11.453,-19.200747 25.602,-19.200747 z"
     inkscape:connector-curvature="0"
     style="fill:#f4f4f4;stroke-width:0.86602539" /><path
     id="circle37"
     d="m 375.96836,87.550503 c -11.069,0 -20.068,6.74925 -20.068,15.050997 0,8.3025 8.999,15.051 20.068,15.051 11.069,0 20.068,-6.74925 20.068,-15.051 10e-4,-8.301747 -8.998,-15.050997 -20.068,-15.050997 z m 0,1.4355 c 10.035,0 18.154,6.09 18.154,13.615497 0,7.5255 -8.119,13.6155 -18.154,13.6155 -10.036,0 -18.154,-6.09 -18.154,-13.6155 0,-7.526247 8.118,-13.615497 18.154,-13.615497 z"
     inkscape:connector-curvature="0"
     style="fill:#f4f4f4;stroke-width:0.86602539" /><path
     id="circle39"
     d="m 422.59636,69.336003 c -11.07,0 -20.039,6.74925 -20.039,15.051 0,8.30175 8.969,15.051 20.039,15.051 11.069,0 20.067,-6.74925 20.067,-15.051 0,-8.30175 -8.998,-15.051 -20.067,-15.051 z m 0,1.4355 c 10.035,0 18.153,6.08925 18.153,13.6155 0,7.52625 -8.118,13.6155 -18.153,13.6155 -10.035,0 -18.126,-6.09 -18.126,-13.6155 0,-7.52625 8.091,-13.6155 18.126,-13.6155 z"
     inkscape:connector-curvature="0"
     style="fill:#f4f4f4;stroke-width:0.86602539" /><path
     id="circle41"
     d="m 471.82736,59.376003 c -11.069,0 -20.068,6.74925 -20.068,15.051 0,8.30175 8.999,15.05175 20.068,15.05175 11.069,0 20.068,-6.75 20.068,-15.05175 0,-8.30175 -8.999,-15.051 -20.068,-15.051 z m 0,1.4355 c 10.034,0 18.154,6.09 18.154,13.6155 0,7.52625 -8.118,13.61625 -18.154,13.61625 -10.034,0 -18.153,-6.09 -18.153,-13.61625 -10e-4,-7.5255 8.118,-13.6155 18.153,-13.6155 z"
     inkscape:connector-curvature="0"
     style="fill:#f4f4f4;stroke-width:0.86602539" /><path
     id="path43"
     d="m 266.11836,95.761503 c -4.586,0 -8.314,2.79675 -8.314,6.236247 0,3.4395 3.729,6.2355 8.314,6.2355 h 34.155 c 4.587,0 8.345,-2.79675 8.345,-6.2355 0,-3.438747 -3.758,-6.236247 -8.345,-6.236247 z m 0,1.4355 h 34.155 c 3.553,0 6.431,2.13675 6.431,4.799997 0,2.66325 -2.878,4.8 -6.431,4.8 h -34.155 c -3.551,0 -6.4,-2.13675 -6.4,-4.8 -0.001,-2.663247 2.849,-4.799997 6.4,-4.799997 z"
     inkscape:connector-curvature="0"
     style="fill:#f4f4f4;stroke-width:0.86602539" /><path
     id="path45"
     d="m 266.11836,92.840253 c -6.732,0 -12.202,4.1025 -12.202,9.151497 0,5.04975 5.47,9.1515 12.202,9.1515 h 34.155 c 6.732,0 12.203,-4.10175 12.203,-9.1515 0,-5.048997 -5.471,-9.151497 -12.203,-9.151497 z m 0,1.4355 h 34.155 c 5.697,0 10.288,3.4425 10.288,7.715997 0,4.2735 -4.591,7.716 -10.288,7.716 h -34.155 c -5.698,0 -10.288,-3.4425 -10.288,-7.716 0,-4.273497 4.59,-7.715997 10.288,-7.715997 z"
     inkscape:connector-curvature="0"
     style="fill:#f4f4f4;stroke-width:0.86602539" /><path
     id="path47"
     d="m 176.96836,11.84475 c -0.093,0.05775 -0.288,0.15225 -0.538,0.22425 -0.5,0.14475 -1.209,0.21375 -1.465,0.20175 l -0.12,1.4355 c 0.715,0.033 1.514,-0.072 2.273,-0.29175 0.38,-0.1095 0.748,-0.2475 1.078,-0.4485 0.329,-0.20175 0.677,-0.5085 0.718,-0.942 l -1.915,-0.11175 c 0.01,-0.11475 0.063,-0.12525 -0.031,-0.0675 z"
     inkscape:connector-curvature="0"
     style="fill:#f4f4f4;stroke-width:0.86602539" /></svg>