<?xml version="1.0" encoding="UTF-8" standalone="no"?>
<svg
   xmlns:dc="http://purl.org/dc/elements/1.1/"
   xmlns:cc="http://creativecommons.org/ns#"
   xmlns:rdf="http://www.w3.org/1999/02/22-rdf-syntax-ns#"
   xmlns:svg="http://www.w3.org/2000/svg"
   xmlns="http://www.w3.org/2000/svg"
   xmlns:sodipodi="http://sodipodi.sourceforge.net/DTD/sodipodi-0.dtd"
   xmlns:inkscape="http://www.inkscape.org/namespaces/inkscape"
   viewBox="0 0 360.51376 70.701561"
   height="70.701561"
   width="360.51376"
   xml:space="preserve"
   version="1.1"
   id="svg2"
   sodipodi:docname="logo.svg"
   inkscape:version="0.92.2 (5c3e80d, 2017-08-06)"><sodipodi:namedview
     pagecolor="#ffffff"
     bordercolor="#666666"
     borderopacity="1"
     objecttolerance="10"
     gridtolerance="10"
     guidetolerance="10"
     inkscape:pageopacity="0"
     inkscape:pageshadow="2"
     inkscape:window-width="1920"
     inkscape:window-height="1017"
     id="namedview40"
     showgrid="false"
     fit-margin-top="0"
     fit-margin-left="0"
     fit-margin-right="0"
     fit-margin-bottom="0"
     inkscape:zoom="0.9680629"
     inkscape:cx="180.25688"
     inkscape:cy="47.134501"
     inkscape:window-x="-8"
     inkscape:window-y="-8"
     inkscape:window-maximized="1"
     inkscape:current-layer="svg2" /><metadata
     id="metadata8"><rdf:RDF><cc:Work
         rdf:about=""><dc:format>image/svg+xml</dc:format><dc:type
           rdf:resource="http://purl.org/dc/dcmitype/StillImage" /><dc:title></dc:title></cc:Work></rdf:RDF></metadata><defs
     id="defs6"><clipPath
       id="clipPath16"
       clipPathUnits="userSpaceOnUse"><path
         id="path18"
         d="M 0,75.415 H 288.411 V 0 H 0 Z"
         inkscape:connector-curvature="0" /></clipPath></defs><g
     transform="matrix(1.25,0,0,-0.9375,0,70.701563)"
     id="g10"><g
       id="g12"><g
         clip-path="url(#clipPath16)"
         id="g14"><path
           id="path20"
           style="fill:#959595;fill-opacity:1;fill-rule:nonzero;stroke:none"
           d="m 57.603,67.471 h 6.311 V 57.373 h -6.311 z m -16.409,0 h 6.311 V 57.373 h -6.311 z m -15.146,0 h 6.311 V 57.373 h -6.311 z m 0,1.262 V 72.52 H 61.39 c 1.684,0 2.525,-1.262 2.525,-3.787 z"
           inkscape:connector-curvature="0" /><g
           transform="translate(67.7012,61.16)"
           id="g22"><path
             id="path24"
             style="fill:#959595;fill-opacity:1;fill-rule:nonzero;stroke:none"
             d="m 0,0 v 6.311 h 6.311 c 0,-0.843 0.422,-1.262 1.262,-1.262 H 22.72 V 1.262 H 6.311 C 6.311,0.419 6.733,0 7.573,0 H 23.982 V -3.787 H 2.524 C 0.841,-3.787 0,-2.524 0,0 M 0,11.36 H 23.982 V 7.573 H 0 Z"
             inkscape:connector-curvature="0" /></g><g
           transform="translate(95.4703,61.16)"
           id="g26"><path
             id="path28"
             style="fill:#959595;fill-opacity:1;fill-rule:nonzero;stroke:none"
             d="M 0,0 V 6.311 H 6.311 V 0 h 12.622 c 0.841,0 1.263,0.212 1.263,0.631 0,0.419 -0.422,0.631 -1.263,0.631 h -6.311 v 3.787 h 11.36 c 2.525,0 3.787,-1.262 3.787,-3.787 V 0 c 0,-2.524 -0.841,-3.787 -2.524,-3.787 H 2.524 C 0.841,-3.787 0,-2.524 0,0 m 0,7.573 c 0,2.525 0.841,3.787 2.524,3.787 H 26.507 V 7.573 Z"
             inkscape:connector-curvature="0" /></g><g
           transform="translate(147.2218,57.3733)"
           id="g30"><path
             id="path32"
             style="fill:#959595;fill-opacity:1;fill-rule:nonzero;stroke:none"
             d="M 0,0 V 2.524 H -12.622 V 6.311 H 0 v 3.787 H 6.311 V 0 Z m -20.196,10.098 h 6.311 V 0 h -6.311 z m 0,1.262 c 0,2.525 0.841,3.787 2.525,3.787 H 3.787 c 1.683,0 2.524,-1.262 2.524,-3.787 z"
             inkscape:connector-curvature="0" /></g><g
           transform="translate(181.302,57.3733)"
           id="g34"><path
             id="path36"
             style="fill:#959595;fill-opacity:1;fill-rule:nonzero;stroke:none"
             d="m 0,0 h -16.409 v 3.787 h 12.622 v 6.311 H 2.524 V 3.787 C 2.524,1.262 1.684,0 0,0 m -23.982,10.098 h 6.311 V 0 h -6.311 z m 0,1.262 v 3.787 H 0 c 1.684,0 2.524,-1.262 2.524,-3.787 z"
             inkscape:connector-curvature="0" /></g><g
           transform="translate(195.1866,59.8978)"
           id="g38"><path
             id="path40"
             style="fill:#959595;fill-opacity:1;fill-rule:nonzero;stroke:none"
             d="m 0,0 v 3.787 h 11.36 c 0.841,0 1.262,0.419 1.262,1.262 v 2.524 h 6.311 V 3.787 C 18.933,1.262 18.093,0 16.409,0 l 3.787,-2.524 H 13.885 L 10.098,0 Z m -7.573,7.573 h 6.311 V -2.525 h -6.311 z m 0,1.263 c 0,2.524 0.84,3.786 2.524,3.786 h 21.458 c 1.684,0 2.524,-1.262 2.524,-3.786 z"
             inkscape:connector-curvature="0" /></g><path
           id="path42"
           style="fill:#959595;fill-opacity:1;fill-rule:nonzero;stroke:none"
           d="m 219.169,72.52 h 6.311 V 57.373 h -6.311 z"
           inkscape:connector-curvature="0" /><g
           transform="translate(250.5444,68.7334)"
           id="g44"><path
             id="path46"
             style="fill:#959595;fill-opacity:1;fill-rule:nonzero;stroke:none"
             d="m 0,0 2.524,3.787 h 7.574 L 7.573,0 Z m -9.918,-11.36 -6.311,10.098 h 7.574 l 3.786,-6.059 3.787,6.059 H 6.491 L 0.18,-11.36 Z M -17.491,0 -20.015,3.787 h 7.573 L -9.918,0 Z"
             inkscape:connector-curvature="0" /></g><g
           transform="translate(264.429,61.16)"
           id="g48"><path
             id="path50"
             style="fill:#959595;fill-opacity:1;fill-rule:nonzero;stroke:none"
             d="m 0,0 v 6.311 h 6.311 c 0,-0.843 0.422,-1.262 1.262,-1.262 H 22.72 V 1.262 H 6.311 C 6.311,0.419 6.733,0 7.573,0 H 23.982 V -3.787 H 2.524 C 0.841,-3.787 0,-2.524 0,0 M 0,11.36 H 23.982 V 7.573 H 0 Z"
             inkscape:connector-curvature="0" /></g><g
           transform="translate(26.0476,3.8277)"
           id="g52"><path
             id="path54"
             style="fill:#959595;fill-opacity:1;fill-rule:nonzero;stroke:none"
             d="m 0,0 v 12.307 h 51.79 c 2.655,0 3.984,0.685 3.984,2.051 0,1.366 -1.329,2.051 -3.984,2.051 H 15.935 v 12.307 h 35.058 c 3.187,0 4.781,1.366 4.781,4.102 H 75.693 V 12.307 C 75.693,4.102 71.974,0 64.538,0 Z m 0,36.92 v 12.307 h 64.538 c 7.436,0 11.155,-4.102 11.155,-12.307 z"
             inkscape:connector-curvature="0" /></g><g
           transform="translate(109.708,20.2367)"
           id="g56"><path
             id="path58"
             style="fill:#959595;fill-opacity:1;fill-rule:nonzero;stroke:none"
             d="M 0,0 C 0,8.204 3.984,12.307 11.951,12.307 H 51.79 c 2.655,0 3.984,1.366 3.984,4.102 H 75.693 V 12.307 C 75.693,4.102 71.709,0 63.741,0 H 19.919 C 17.264,0 15.935,-1.366 15.935,-4.102 H 75.693 V -16.409 H 0 Z m 0,20.511 v 12.307 h 63.741 c 7.968,0 11.952,-4.102 11.952,-12.307 z"
             inkscape:connector-curvature="0" /></g><g
           transform="translate(264.5084,53.0547)"
           id="g60"><path
             id="path62"
             style="fill:#959595;fill-opacity:1;fill-rule:nonzero;stroke:none"
             d="M 0,0 H 23.903 L 6.146,-12.307 H -17.7 Z m -0.228,-49.227 -23.39,16.233 -23.391,-16.233 h -23.903 l 35.342,24.555 -11.895,8.263 H 0.228 l -11.895,-8.263 35.342,-24.555 z M -53.383,-12.307 -71.14,0 h 23.903 l 17.7,-12.307 z"
             inkscape:connector-curvature="0" /></g><g
           transform="translate(7.2368,3.8089)"
           id="g64"><path
             id="path66"
             style="fill:#2c3792;fill-opacity:1;fill-rule:nonzero;stroke:none"
             d="M 0,0 C -0.932,0 -1.734,0.334 -2.412,1.003 -3.09,1.672 -3.428,2.607 -3.428,3.809 v 9.141 h 3.047 V 3.809 c 0,-0.508 0.127,-0.762 0.381,-0.762 0.254,0 0.381,0.254 0.381,0.762 v 2.285 c 0,1.743 0.707,3.323 2.121,4.736 1.412,1.413 3.118,2.12 5.116,2.12 1.98,0 3.682,-0.707 5.104,-2.12 1.422,-1.413 2.133,-2.993 2.133,-4.736 v -9.903 h -3.048 v 9.141 c 0,1.406 -0.414,2.518 -1.244,3.339 C 9.733,9.493 8.753,9.903 7.618,9.903 6.467,9.903 5.481,9.493 4.659,8.671 3.838,7.85 3.428,6.738 3.428,5.332 V 3.809 C 3.428,2.607 3.094,1.672 2.424,1.003 1.756,0.334 0.947,0 0,0 m 0,-3.809 c -1.981,0 -3.682,0.707 -5.104,2.12 -1.422,1.414 -2.133,2.993 -2.133,4.736 V 12.95 H -4.19 V 3.809 c 0,-1.406 0.414,-2.518 1.244,-3.339 0.831,-0.822 1.811,-1.232 2.946,-1.232 1.15,0 2.137,0.41 2.959,1.232 C 3.78,1.291 4.19,2.403 4.19,3.809 v 1.523 c 0,1.203 0.334,2.137 1.004,2.806 0.668,0.669 1.476,1.003 2.424,1.003 0.931,0 1.734,-0.334 2.412,-1.003 0.678,-0.669 1.016,-1.603 1.016,-2.806 V -3.809 H 7.999 V 5.332 C 7.999,5.84 7.872,6.094 7.618,6.094 7.364,6.094 7.237,5.84 7.237,5.332 V 3.047 C 7.237,1.304 6.53,-0.275 5.116,-1.689 3.703,-3.102 1.998,-3.809 0,-3.809"
             inkscape:connector-curvature="0" /></g><g
           transform="translate(11.4265,22.0913)"
           id="g68"><path
             id="path70"
             style="fill:#2c3792;fill-opacity:1;fill-rule:nonzero;stroke:none"
             d="M 0,0 V 9.903 H 3.047 V 3.047 c 0.508,0 0.762,0.254 0.762,0.762 v 8.379 H 6.856 V 3.047 C 6.856,1.016 5.84,0 3.809,0 Z m -0.762,0 h -3.809 c -2.031,0 -3.047,1.016 -3.047,3.047 v 9.141 h 3.047 V 3.809 c 0,-0.508 0.254,-0.762 0.762,-0.762 v 6.856 h 3.047 z m -3.809,-3.809 c -4.57,0 -6.856,2.285 -6.856,6.856 v 9.141 h 3.048 V 3.047 c 0,-2.539 1.269,-3.809 3.808,-3.809 h 8.38 c 2.539,0 3.809,1.27 3.809,3.809 v 9.141 h 3.047 V 3.047 c 0,-4.571 -2.286,-6.856 -6.856,-6.856 z"
             inkscape:connector-curvature="0" /></g><g
           transform="translate(6.8559,39.612)"
           id="g72"><path
             id="path74"
             style="fill:#2c3792;fill-opacity:1;fill-rule:nonzero;stroke:none"
             d="m 0,0 c -2.031,0 -3.047,1.016 -3.047,3.047 v 9.141 H 0 V 3.809 C 0,3.301 0.254,3.047 0.762,3.047 h 6.856 c 0.508,0 0.761,0.254 0.761,0.762 V 5.332 H 7.618 V 3.809 H 4.571 v 4.57 h 6.856 V 3.047 C 11.427,1.016 10.411,0 8.379,0 Z m 0,-3.809 c -4.571,0 -6.856,2.285 -6.856,6.856 v 9.141 h 3.047 V 3.047 c 0,-2.539 1.27,-3.809 3.809,-3.809 h 8.379 c 2.54,0 3.809,1.27 3.809,3.809 V 9.141 H 3.809 V 3.809 H 0.762 v 8.379 H 15.235 V 3.047 c 0,-4.571 -2.285,-6.856 -6.856,-6.856 z"
             inkscape:connector-curvature="0" /></g><g
           transform="translate(11.6805,64.2426)"
           id="g76"><path
             id="path78"
             style="fill:#2c3792;fill-opacity:1;fill-rule:nonzero;stroke:none"
             d="m 0,0 3.555,-1.397 v 2.794 z m 6.602,-1.904 h -1.65 l 5.459,-2.159 V -7.11 l -17.775,6.602 c -0.338,0.085 -0.508,0.254 -0.508,0.508 0,0.254 0.17,0.423 0.508,0.508 L 6.602,5.84 Z m 0.762,0 V 7.11 L -8.126,1.016 C -8.463,0.847 -8.633,0.508 -8.633,0 c 0,-0.423 0.17,-0.762 0.507,-1.016 l 18.537,-6.856 v -3.047 l -19.552,7.11 c -1.694,0.847 -2.539,2.117 -2.539,3.809 0,1.946 0.845,3.216 2.539,3.809 l 19.552,7.364 V -1.904 Z"
             inkscape:connector-curvature="0" /></g></g></g></g></svg>