<?xml version="1.0" encoding="UTF-8" standalone="no"?>
<svg
   xmlns:dc="http://purl.org/dc/elements/1.1/"
   xmlns:cc="http://creativecommons.org/ns#"
   xmlns:rdf="http://www.w3.org/1999/02/22-rdf-syntax-ns#"
   xmlns:svg="http://www.w3.org/2000/svg"
   xmlns="http://www.w3.org/2000/svg"
   xmlns:sodipodi="http://sodipodi.sourceforge.net/DTD/sodipodi-0.dtd"
   xmlns:inkscape="http://www.inkscape.org/namespaces/inkscape"
   viewBox="0 0 498.57629 166.18702"
   height="166.18701"
   width="498.57629"
   xml:space="preserve"
   version="1.1"
   id="svg2"
   sodipodi:docname="controller.svg"
   inkscape:version="0.92.2 (5c3e80d, 2017-08-06)"><sodipodi:namedview
     pagecolor="#ffffff"
     bordercolor="#666666"
     borderopacity="1"
     objecttolerance="10"
     gridtolerance="10"
     guidetolerance="10"
     inkscape:pageopacity="0"
     inkscape:pageshadow="2"
     inkscape:window-width="1920"
     inkscape:window-height="1017"
     id="namedview78"
     showgrid="false"
     fit-margin-top="0"
     fit-margin-left="0"
     fit-margin-right="0"
     fit-margin-bottom="0"
     inkscape:zoom="0.69955474"
     inkscape:cx="249.44438"
     inkscape:cy="110.79137"
     inkscape:window-x="-8"
     inkscape:window-y="-8"
     inkscape:window-maximized="1"
     inkscape:current-layer="svg2" /><metadata
     id="metadata8"><rdf:RDF><cc:Work
         rdf:about=""><dc:format>image/svg+xml</dc:format><dc:type
           rdf:resource="http://purl.org/dc/dcmitype/StillImage" /><dc:title></dc:title></cc:Work></rdf:RDF></metadata><defs
     id="defs6"><clipPath
       id="clipPath16"
       clipPathUnits="userSpaceOnUse"><path
         id="path18"
         d="M 0,177.267 H 399.111 V 0 H 0 Z"
         inkscape:connector-curvature="0" /></clipPath></defs><g
     transform="matrix(1.25,0,0,-0.9375,0,166.18738)"
     id="g10"><g
       id="g12"><g
         clip-path="url(#clipPath16)"
         id="g14"><g
           transform="translate(336.0423,65.739)"
           id="g20"><path
             id="path22"
             style="fill:#666870;fill-opacity:1;fill-rule:nonzero;stroke:none"
             d="m 0,0 c -0.001,5.204 -0.007,10.409 0.002,15.613 0.003,1.674 0.23,1.813 1.719,1.058 5.364,-2.723 11.008,-4.712 16.895,-5.843 6.606,-1.27 13.273,-1.549 20.01,-0.792 7.95,0.893 15.425,3.178 22.542,6.759 1.165,0.586 1.574,0.347 1.576,-1.004 0.012,-10.271 0.19,-20.548 -0.05,-30.814 -0.277,-11.864 -8.552,-21.823 -20.029,-24.573 -1.81,-0.433 -3.655,-0.733 -5.553,-0.7 -3.697,0.064 -7.395,0.014 -11.093,0.018 -11.609,0.015 -21.654,7.501 -24.947,18.615 -0.69,2.326 -1.078,4.707 -1.073,7.145 C 0.007,-9.678 0.001,-4.839 0,0"
             inkscape:connector-curvature="0" /></g><g
           transform="translate(362.3387,97.4094)"
           id="g24"><path
             id="path26"
             style="fill:#d8d5cb;fill-opacity:1;fill-rule:nonzero;stroke:none"
             d="m 0,0 c 0,-2.419 0.074,-4.841 -0.021,-7.257 -0.089,-2.247 0.917,-3.796 2.82,-4.746 1.026,-0.513 1.376,-1.187 1.333,-2.263 -0.054,-1.321 -0.058,-2.648 -10e-4,-3.97 0.054,-1.237 -0.449,-1.706 -1.691,-1.689 -5.241,0.074 -10.33,1.053 -15.35,2.466 -4.236,1.192 -8.229,2.984 -12.122,5.014 -0.682,0.356 -1.242,0.765 -1.254,1.63 -0.058,4.38 -0.242,8.78 1.289,12.994 3.281,9.033 9.589,14.81 18.878,17.231 2.649,0.691 5.408,0.853 8.156,0.672 1.067,-0.071 1.485,0.33 1.467,1.388 -0.027,1.642 0.079,3.286 0.033,4.927 -0.117,4.083 1.397,7.516 4.252,10.32 2.376,2.334 3.375,5.135 3.426,8.365 0.028,1.734 0.041,3.469 -10e-4,5.203 -0.027,1.107 0.514,1.407 1.518,1.399 0.963,-0.007 1.602,-0.205 1.56,-1.352 -0.094,-2.597 0.196,-5.204 -0.171,-7.793 -0.438,-3.095 -1.862,-5.717 -4.085,-7.87 C 7.663,32.37 6.555,29.61 6.609,26.335 6.634,24.829 6.677,23.319 6.594,21.817 6.523,20.514 6.991,20.009 8.317,20.079 c 4.159,0.219 8.231,-0.332 12.036,-2.05 8.941,-4.039 14.316,-10.868 15.83,-20.646 0.408,-2.638 0.212,-5.282 0.276,-7.924 0.022,-0.887 -0.387,-1.398 -1.167,-1.811 -6.958,-3.69 -14.261,-6.249 -22.137,-7.1 -1.86,-0.2 -3.7,-0.479 -5.579,-0.473 -1.115,0.004 -1.571,0.456 -1.542,1.559 0.039,1.505 0.031,3.013 0,4.518 -0.016,0.822 0.256,1.377 1.041,1.728 2.21,0.989 3.133,2.741 3.108,5.141 -0.05,4.701 -0.046,9.403 -0.003,14.104 0.021,2.303 -0.896,3.962 -3.005,4.907 -0.818,0.367 -1.151,0.955 -1.137,1.831 0.023,1.461 0.004,2.922 -0.002,4.382 C 6.034,18.864 6.008,19.47 5.156,19.506 4.248,19.545 4.121,18.959 4.122,18.251 4.124,16.79 4.098,15.329 4.124,13.869 4.139,13.04 3.808,12.52 3.058,12.143 0.952,11.086 -0.145,9.447 -0.024,6.983 0.089,4.66 0,2.328 0,0"
             inkscape:connector-curvature="0" /></g><g
           transform="translate(370.5633,100.3676)"
           id="g28"><path
             id="path30"
             style="fill:#666870;fill-opacity:1;fill-rule:nonzero;stroke:none"
             d="m 0,0 c 0.001,-1.32 0.035,-2.642 -0.007,-3.961 -0.062,-1.967 -1.509,-3.492 -3.197,-3.434 -1.738,0.059 -3.072,1.552 -3.087,3.515 -0.021,2.641 -0.027,5.282 0.002,7.923 0.023,2.116 1.203,3.413 3.074,3.464 C -1.524,7.554 -0.081,6.054 -0.01,4.098 0.039,2.733 -0.001,1.366 0,0"
             inkscape:connector-curvature="0" /></g><g
           transform="translate(370.5633,100.3676)"
           id="g32"><path
             id="path34"
             style="fill:none;stroke:#4f4c4d;stroke-width:0.5;stroke-linecap:butt;stroke-linejoin:miter;stroke-miterlimit:10;stroke-dasharray:none;stroke-opacity:1"
             d="m 0,0 c 0.001,-1.32 0.035,-2.642 -0.007,-3.961 -0.062,-1.967 -1.509,-3.492 -3.197,-3.434 -1.738,0.059 -3.072,1.552 -3.087,3.515 -0.021,2.641 -0.027,5.282 0.002,7.923 0.023,2.116 1.203,3.413 3.074,3.464 C -1.524,7.554 -0.081,6.054 -0.01,4.098 0.039,2.733 -0.001,1.366 0,0 Z"
             inkscape:connector-curvature="0" /></g><g
           transform="translate(0,108.413)"
           id="g36"><path
             id="path38"
             style="fill:#d8d5cb;fill-opacity:1;fill-rule:nonzero;stroke:none"
             d="m 0,0 v 23.256 c 0,7.795 6.378,14.173 14.173,14.173 H 297.08 c 7.795,0 14.173,-6.378 14.173,-14.173 V 0"
             inkscape:connector-curvature="0" /></g><g
           transform="translate(311.253,37.4294)"
           id="g40"><path
             id="path42"
             style="fill:#cac2b5;fill-opacity:1;fill-rule:nonzero;stroke:none"
             d="m 0,0 v -23.256 c 0,-7.795 -6.378,-14.173 -14.173,-14.173 H -297.08 c -7.795,0 -14.173,6.378 -14.173,14.173 V 0"
             inkscape:connector-curvature="0" /></g><g
           transform="translate(297.0798,11.1573)"
           id="g44"><path
             id="path46"
             style="fill:#efede1;fill-opacity:1;fill-rule:nonzero;stroke:none"
             d="m 0,0 h -282.907 c -7.795,0 -14.173,6.378 -14.173,14.173 v 95.555 c 0,7.796 6.378,14.174 14.173,14.174 H 0 c 7.795,0 14.173,-6.378 14.173,-14.174 V 14.173 C 14.173,6.378 7.795,0 0,0"
             inkscape:connector-curvature="0" /></g><path
           id="path48"
           style="fill:#c0ba9f;fill-opacity:1;fill-rule:nonzero;stroke:none"
           d="M 35.202,113.581 H 19.903 v 9.956 h 15.299 z"
           inkscape:connector-curvature="0" /><path
           id="path50"
           style="fill:#c0ba9f;fill-opacity:1;fill-rule:nonzero;stroke:none"
           d="M 56.15,113.581 H 40.851 v 9.956 H 56.15 Z"
           inkscape:connector-curvature="0" /><path
           id="path52"
           style="fill:#666870;fill-opacity:1;fill-rule:nonzero;stroke:none"
           d="M 76.65,113.581 H 61.351 v 9.956 H 76.65 Z"
           inkscape:connector-curvature="0" /><path
           id="path54"
           style="fill:#666870;fill-opacity:1;fill-rule:nonzero;stroke:none"
           d="M 97.763,113.581 H 82.464 v 9.956 h 15.299 z"
           inkscape:connector-curvature="0" /><path
           id="path56"
           style="fill:#666870;fill-opacity:1;fill-rule:nonzero;stroke:none"
           d="m 118.875,113.581 h -15.299 v 9.956 h 15.299 z"
           inkscape:connector-curvature="0" /><path
           id="path58"
           style="fill:#666870;fill-opacity:1;fill-rule:nonzero;stroke:none"
           d="m 139.63,113.581 h -15.299 v 9.956 h 15.299 z"
           inkscape:connector-curvature="0" /><path
           id="path60"
           style="fill:#c0ba9f;fill-opacity:1;fill-rule:nonzero;stroke:none"
           d="m 160.437,113.581 h -15.299 v 9.956 h 15.299 z"
           inkscape:connector-curvature="0" /><path
           id="path62"
           style="fill:#c0ba9f;fill-opacity:1;fill-rule:nonzero;stroke:none"
           d="M 181.549,113.581 H 166.25 v 9.956 h 15.299 z"
           inkscape:connector-curvature="0" /><path
           id="path64"
           style="fill:#c0ba9f;fill-opacity:1;fill-rule:nonzero;stroke:none"
           d="m 202.356,113.581 h -15.299 v 9.956 h 15.299 z"
           inkscape:connector-curvature="0" /><path
           id="path66"
           style="fill:#cac2b5;fill-opacity:1;fill-rule:nonzero;stroke:none"
           d="M 35.202,87.267 H 19.903 v 15.299 h 15.299 z"
           inkscape:connector-curvature="0" /><path
           id="path68"
           style="fill:#cac2b5;fill-opacity:1;fill-rule:nonzero;stroke:none"
           d="M 35.202,66.096 H 19.903 v 15.299 h 15.299 z"
           inkscape:connector-curvature="0" /><path
           id="path70"
           style="fill:#c0ba9f;fill-opacity:1;fill-rule:nonzero;stroke:none"
           d="M 56.15,87.267 H 40.851 v 15.299 H 56.15 Z"
           inkscape:connector-curvature="0" /><path
           id="path72"
           style="fill:#c0ba9f;fill-opacity:1;fill-rule:nonzero;stroke:none"
           d="M 76.65,87.267 H 61.351 v 15.299 H 76.65 Z"
           inkscape:connector-curvature="0" /><path
           id="path74"
           style="fill:#c0ba9f;fill-opacity:1;fill-rule:nonzero;stroke:none"
           d="M 97.763,87.267 H 82.464 v 15.299 h 15.299 z"
           inkscape:connector-curvature="0" /><path
           id="path76"
           style="fill:#c0ba9f;fill-opacity:1;fill-rule:nonzero;stroke:none"
           d="m 118.875,87.267 h -15.299 v 15.299 h 15.299 z"
           inkscape:connector-curvature="0" /><path
           id="path78"
           style="fill:#c0ba9f;fill-opacity:1;fill-rule:nonzero;stroke:none"
           d="m 139.63,87.267 h -15.299 v 15.299 h 15.299 z"
           inkscape:connector-curvature="0" /><path
           id="path80"
           style="fill:#c0ba9f;fill-opacity:1;fill-rule:nonzero;stroke:none"
           d="m 160.437,87.267 h -15.299 v 15.299 h 15.299 z"
           inkscape:connector-curvature="0" /><path
           id="path82"
           style="fill:#c0ba9f;fill-opacity:1;fill-rule:nonzero;stroke:none"
           d="M 181.549,87.267 H 166.25 v 15.299 h 15.299 z"
           inkscape:connector-curvature="0" /><path
           id="path84"
           style="fill:#c0ba9f;fill-opacity:1;fill-rule:nonzero;stroke:none"
           d="M 56.15,66.096 H 40.851 V 81.395 H 56.15 Z"
           inkscape:connector-curvature="0" /><path
           id="path86"
           style="fill:#c0ba9f;fill-opacity:1;fill-rule:nonzero;stroke:none"
           d="M 76.65,66.096 H 61.351 V 81.395 H 76.65 Z"
           inkscape:connector-curvature="0" /><path
           id="path88"
           style="fill:#c0ba9f;fill-opacity:1;fill-rule:nonzero;stroke:none"
           d="M 97.763,66.096 H 82.464 v 15.299 h 15.299 z"
           inkscape:connector-curvature="0" /><path
           id="path90"
           style="fill:#c0ba9f;fill-opacity:1;fill-rule:nonzero;stroke:none"
           d="m 118.875,66.096 h -15.299 v 15.299 h 15.299 z"
           inkscape:connector-curvature="0" /><path
           id="path92"
           style="fill:#c0ba9f;fill-opacity:1;fill-rule:nonzero;stroke:none"
           d="M 139.63,66.096 H 124.331 V 81.395 H 139.63 Z"
           inkscape:connector-curvature="0" /><path
           id="path94"
           style="fill:#c0ba9f;fill-opacity:1;fill-rule:nonzero;stroke:none"
           d="m 160.437,66.096 h -15.299 v 15.299 h 15.299 z"
           inkscape:connector-curvature="0" /><path
           id="path96"
           style="fill:#c0ba9f;fill-opacity:1;fill-rule:nonzero;stroke:none"
           d="M 76.65,45.348 H 61.351 V 60.647 H 76.65 Z"
           inkscape:connector-curvature="0" /><path
           id="path98"
           style="fill:#c0ba9f;fill-opacity:1;fill-rule:nonzero;stroke:none"
           d="M 97.763,45.348 H 82.464 v 15.299 h 15.299 z"
           inkscape:connector-curvature="0" /><path
           id="path100"
           style="fill:#c0ba9f;fill-opacity:1;fill-rule:nonzero;stroke:none"
           d="m 118.875,45.348 h -15.299 v 15.299 h 15.299 z"
           inkscape:connector-curvature="0" /><path
           id="path102"
           style="fill:#c0ba9f;fill-opacity:1;fill-rule:nonzero;stroke:none"
           d="M 139.63,45.348 H 124.331 V 60.647 H 139.63 Z"
           inkscape:connector-curvature="0" /><path
           id="path104"
           style="fill:#c0ba9f;fill-opacity:1;fill-rule:nonzero;stroke:none"
           d="m 160.437,45.348 h -15.299 v 15.299 h 15.299 z"
           inkscape:connector-curvature="0" /><path
           id="path106"
           style="fill:#c0ba9f;fill-opacity:1;fill-rule:nonzero;stroke:none"
           d="M 35.202,24.177 H 19.903 v 15.299 h 15.299 z"
           inkscape:connector-curvature="0" /><path
           id="path108"
           style="fill:#c0ba9f;fill-opacity:1;fill-rule:nonzero;stroke:none"
           d="M 181.549,24.177 H 166.25 v 15.299 h 15.299 z"
           inkscape:connector-curvature="0" /><path
           id="path110"
           style="fill:#c0ba9f;fill-opacity:1;fill-rule:nonzero;stroke:none"
           d="m 202.356,24.177 h -15.299 v 15.299 h 15.299 z"
           inkscape:connector-curvature="0" /><path
           id="path112"
           style="fill:#c0ba9f;fill-opacity:1;fill-rule:nonzero;stroke:none"
           d="m 226.078,24.177 h -15.299 v 15.299 h 15.299 z"
           inkscape:connector-curvature="0" /><path
           id="path114"
           style="fill:#c0ba9f;fill-opacity:1;fill-rule:nonzero;stroke:none"
           d="m 247.191,24.177 h -15.299 v 15.299 h 15.299 z"
           inkscape:connector-curvature="0" /><path
           id="path116"
           style="fill:#c0ba9f;fill-opacity:1;fill-rule:nonzero;stroke:none"
           d="m 247.191,45.348 h -15.299 v 15.299 h 15.299 z"
           inkscape:connector-curvature="0" /><path
           id="path118"
           style="fill:#cac2b5;fill-opacity:1;fill-rule:nonzero;stroke:none"
           d="m 288.804,45.348 h -15.299 v 15.299 h 15.299 z"
           inkscape:connector-curvature="0" /><path
           id="path120"
           style="fill:#c0ba9f;fill-opacity:1;fill-rule:nonzero;stroke:none"
           d="m 268.303,24.177 h -15.299 v 15.299 h 15.299 z"
           inkscape:connector-curvature="0" /><path
           id="path122"
           style="fill:#cac2b5;fill-opacity:1;fill-rule:nonzero;stroke:none"
           d="m 288.804,24.177 h -15.299 v 15.299 h 15.299 z"
           inkscape:connector-curvature="0" /><path
           id="path124"
           style="fill:#cac2b5;fill-opacity:1;fill-rule:nonzero;stroke:none"
           d="m 288.804,66.096 h -15.299 v 15.299 h 15.299 z"
           inkscape:connector-curvature="0" /><path
           id="path126"
           style="fill:#666870;fill-opacity:1;fill-rule:nonzero;stroke:none"
           d="m 288.804,87.267 h -15.299 v 15.299 h 15.299 z"
           inkscape:connector-curvature="0" /><path
           id="path128"
           style="fill:#666870;fill-opacity:1;fill-rule:nonzero;stroke:none"
           d="m 268.303,87.267 h -15.299 v 15.299 h 15.299 z"
           inkscape:connector-curvature="0" /><path
           id="path130"
           style="fill:#666870;fill-opacity:1;fill-rule:nonzero;stroke:none"
           d="m 247.191,87.267 h -15.299 v 15.299 h 15.299 z"
           inkscape:connector-curvature="0" /><path
           id="path132"
           style="fill:#666870;fill-opacity:1;fill-rule:nonzero;stroke:none"
           d="m 226.078,87.267 h -15.299 v 15.299 h 15.299 z"
           inkscape:connector-curvature="0" /><path
           id="path134"
           style="fill:#cac2b5;fill-opacity:1;fill-rule:nonzero;stroke:none"
           d="M 56.15,45.348 H 19.904 V 60.647 H 56.15 Z"
           inkscape:connector-curvature="0" /><path
           id="path136"
           style="fill:#cac2b5;fill-opacity:1;fill-rule:nonzero;stroke:none"
           d="m 202.497,45.348 h -36.246 v 15.299 h 36.246 z"
           inkscape:connector-curvature="0" /><path
           id="path138"
           style="fill:#666870;fill-opacity:1;fill-rule:nonzero;stroke:none"
           d="m 202.497,66.096 h -36.246 v 15.299 h 36.246 z"
           inkscape:connector-curvature="0" /><path
           id="path140"
           style="fill:#666870;fill-opacity:1;fill-rule:nonzero;stroke:none"
           d="m 187.198,102.566 h 15.299 V 66.32 h -15.299 z"
           inkscape:connector-curvature="0" /><path
           id="path142"
           style="fill:#666870;fill-opacity:1;fill-rule:nonzero;stroke:none"
           d="M 160.437,24.177 H 40.851 v 15.299 h 119.586 z"
           inkscape:connector-curvature="0" /><g
           transform="translate(257.4112,118.5821)"
           id="g144"><path
             id="path146"
             style="fill:#666870;fill-opacity:1;fill-rule:nonzero;stroke:none"
             d="m 0,0 c 0,-4.263 -3.456,-7.719 -7.719,-7.719 -4.263,0 -7.719,3.456 -7.719,7.719 0,4.263 3.456,7.719 7.719,7.719 C -3.456,7.719 0,4.263 0,0"
             inkscape:connector-curvature="0" /></g><g
           transform="translate(278.1592,118.6046)"
           id="g148"><path
             id="path150"
             style="fill:#2c9d40;fill-opacity:1;fill-rule:nonzero;stroke:none"
             d="m 0,0 c 0,-4.263 -3.456,-7.719 -7.719,-7.719 -4.263,0 -7.719,3.456 -7.719,7.719 0,4.263 3.456,7.719 7.719,7.719 C -3.456,7.719 0,4.263 0,0"
             inkscape:connector-curvature="0" /></g><g
           transform="translate(143.4942,145.8423)"
           id="g152"><path
             id="path154"
             style="fill:#d8d5cb;fill-opacity:1;fill-rule:nonzero;stroke:none"
             d="m 0,0 c -0.201,7.046 1.91,7.603 6.837,12.442 4.1,4.027 5.824,8.861 5.912,14.434 0.047,2.992 0.102,-0.858 0.029,2.134 -0.047,1.911 0.888,2.427 2.621,2.414 1.661,-0.013 2.763,-0.355 2.691,-2.333 C 17.927,24.61 18.396,26.955 17.763,22.489 17.007,17.148 14.549,12.623 10.714,8.908 6.619,4.941 5.704,5.651 5.798,0"
             inkscape:connector-curvature="0" /></g></g></g></g></svg>