<?xml version="1.0" encoding="UTF-8" standalone="no"?>
<svg
   xmlns:dc="http://purl.org/dc/elements/1.1/"
   xmlns:cc="http://creativecommons.org/ns#"
   xmlns:rdf="http://www.w3.org/1999/02/22-rdf-syntax-ns#"
   xmlns:svg="http://www.w3.org/2000/svg"
   xmlns="http://www.w3.org/2000/svg"
   xmlns:sodipodi="http://sodipodi.sourceforge.net/DTD/sodipodi-0.dtd"
   xmlns:inkscape="http://www.inkscape.org/namespaces/inkscape"
   width="335.14206"
   height="95.55201"
   viewBox="0 0 335.14206 95.55201"
   version="1.1"
   xml:space="preserve"
   style="clip-rule:evenodd;fill-rule:evenodd;stroke-linejoin:round;stroke-miterlimit:1.41420996"
   id="svg11"
   sodipodi:docname="system.svg"
   inkscape:version="0.92.2 (5c3e80d, 2017-08-06)"><metadata
     id="metadata17"><rdf:RDF><cc:Work
         rdf:about=""><dc:format>image/svg+xml</dc:format><dc:type
           rdf:resource="http://purl.org/dc/dcmitype/StillImage" /><dc:title></dc:title></cc:Work></rdf:RDF></metadata><defs
     id="defs15" /><sodipodi:namedview
     pagecolor="#ffffff"
     bordercolor="#666666"
     borderopacity="1"
     objecttolerance="10"
     gridtolerance="10"
     guidetolerance="10"
     inkscape:pageopacity="0"
     inkscape:pageshadow="2"
     inkscape:window-width="1920"
     inkscape:window-height="1017"
     id="namedview13"
     showgrid="false"
     units="px"
     inkscape:zoom="2.1580756"
     inkscape:cx="213.66969"
     inkscape:cy="-30.468608"
     inkscape:window-x="-8"
     inkscape:window-y="-8"
     inkscape:window-maximized="1"
     inkscape:current-layer="g4180"
     fit-margin-top="0"
     fit-margin-left="0"
     fit-margin-right="0"
     fit-margin-bottom="0" /><g
     id="g4180"
     transform="matrix(1.1526871,0,0,1.1526871,0,-31.850363)"><g
       id="g5052"
       transform="matrix(1,0,0,0.75,0,27.631604)"><path
         sodipodi:nodetypes="ccccccccccccccccccccccccccccccccccccccccccccc"
         inkscape:connector-curvature="0"
         style="fill-rule:nonzero"
         d="m 244.172,0.002 c -7.536,0.289 -12.292,8.279 -12.36,15.261 -0.402,2.214 -1.656,2.841 -4.846,2.552 -8.716,-0.572 -16.669,4.478 -22.437,10.596 -0.725,-6.498 -7.402,-9.478 -13.186,-9.778 -9.714,-2.257 -21.177,-0.411 -27.971,7.406 -1.763,-6.879 -9.67,-9.365 -16.033,-8.539 -5.019,0.336 -9.7,2.305 -14.264,4.253 -4.044,-5.823 -12.752,-4.98 -18.047,-1.41 C 108.947,15.951 98.65,18.968 97.08,26.658 95.788,30.263 93.791,33.551 91.825,36.816 88.924,26.597 91.015,15.332 86.32,5.613 79.887,-2.16 66.26,0.255 61.776,8.94 56.776,16.673 52.901,25.144 46.899,32.207 33.907,49.954 21.474,68.129 8.048,85.55 4.647,90.03 0.731,95.072 0,100.894 c 1.612,7.625 11.231,10.417 17.888,7.86 9.439,-3.109 14.368,-12.525 18.505,-20.768 2.114,-3.677 4.298,-7.323 6.783,-10.765 10.855,-0.445 21.774,-0.447 32.56,1.004 2.997,10.111 2.771,22.438 11.307,29.905 6.512,5.517 18.674,0.943 18.831,-7.957 18.235,-80.825 164.067,27.73 184.835,-34.923 0.526,-4.614 -4.303,-6.978 -8.255,-6.735 -1.839,0.411 -3.673,-1.872 -1.666,-3.051 4.993,-3.586 10.625,-9.782 8.357,-16.399 -0.684,-2.282 -4.043,-2.676 -4.752,-4.083 2.642,-8.883 -4.63,-18.14 -15.039,-17.516 -7.719,0.167 -14.465,4.466 -20.186,9.32 1.21,-7.834 6.181,-20.2667007 5.095,-23.198 -2.136,-3.31 -6.538,-3.62 -10.091,-3.586 z M 101.716,89.156 c -3.376,6.902 -1.758,17.001 5.921,20.229 6.19,2.652 13.355,0.245 18.753,-3.064 4.757,4.102 12.26,2.701 16.628,-0.936 4.552,3.911 11.538,2.227 15.896,-0.936 3.981,3.282 10.358,2.783 13.936,-0.643 6.14,3.521 14.402,1.976 19.771,-2.12 5.919,4.271 14.222,2.682 20.139,-0.748 0.864,-0.512 1.588,-1.936 2.376,-0.529 4.581,3.616 11.778,2.515 15.599,-1.602 6.194,4.17 14.753,2.941 20.661,-1.151 7.378,4.452 18.461,2.639 23.354,-4.654 2.032,-3.195 2.266,-7.359 0.642,-10.752 -2.433,-18.04 -151.21,-33.715 -173.676,6.906 z"
         id="path5366" /></g><path
       id="path5328"
       d="m 89.851,106.12285 c -3.234,-1.479 -5.501,-5.583 -7.738,-14.007746 -1.068,-4.0245 -2.296,-7.68 -2.729,-8.12325 -1.301,-1.33575 -6.99,-1.92825 -23.398,-1.905 -5.2,0.0067 -15.092,-0.591 -16.021,0.73575 -1.574,2.247 -6.081,7.029 -8.262,10.08825 -5.422,7.627496 -7.21,9.504746 -11.038,11.584496 -5.086,2.763 -12.339,2.5905 -15.442,-0.369 -1.329,-1.2675 -1.345,-1.4415 -0.27,-3.0195 0.627,-0.92175 2.953,-3.470996 5.168,-5.664746 2.215,-2.1945 7.097,-7.02225 10.85,-10.72875 3.752,-3.7065 7.365,-7.53675 8.027,-8.511 0.663,-0.975 5.832,-6.40575 11.486,-12.06825 12.487,-12.50625 19.915,-20.685 23.132,-25.4715 2.771,-4.12425 4.234,-5.2695 8.022,-6.28275 7.689,-2.0565 12.977,0.597 12.987,6.516 0.009,3.8745 1.825,14.10225 3.906,21.96975 2.611,9.8745 3.239,11.22375 5.691,12.2385 1.399,0.57975 163.351,1.902 165.162,1.899 32.623,-0.04575 29.076,-1.506 22.92,6.20175 -7.25,9.0765 -18.497,5.622 -31.767,5.727 -20.119,-0.7395 -115.656,-5.8395 -153.141,-5.3205 -2.901,1.5495 -2.766,3.1245 0.784,9.15225 5.628,9.558746 4.127,16.385246 -3.602,16.379246 -1.376,-10e-4 -3.503,-0.4605 -4.727,-1.02 z M 77.166,73.557104 c 0.249,-0.1875 -0.4,-4.017 -1.441,-8.511 -1.93,-8.32425 -4.095,-14.535 -5.254,-15.07275 -1.007,-0.4665 -21.587,20.5875 -22.17,22.68075 -0.143,0.51225 1.095,0.804 4.412,1.03875 5.867,0.41475 23.855,0.315 24.453,-0.13575 z m 169.428,-42.53175 c -2.031,-0.126 -4.292,0.1395 -6.091,0.98325 -2.622,1.8 -3.621,4.86075 -4.35,7.2165 -0.389,1.27425 -0.703,2.65425 -1.099,3.81375 -0.396,1.15875 -0.935,2.07675 -1.421,2.3985 -0.243,0.16125 -0.413,0.20925 -0.725,0.18675 -0.704,-0.192 -1.092,-0.42225 -1.676,-0.621 -5.386,-1.443 -10.895,-0.58125 -15.556,1.47675 -4.661,2.05725 -8.528,5.301 -10.818,8.7555 -0.012,0.018 -0.023,0.03675 -0.032,0.0555 -2.117,4.1475 -5.754,8.8995 -11.359,10.22175 -0.505,-1.90275 0.157,-4.06425 1.26,-6.36075 1.207,-2.51025 2.821,-5.118 3.448,-7.668 1.3,-1.503 1.698,-2.75025 1.134,-3.75975 -0.58,-1.035 -1.967,-1.569 -3.496,-1.9185 -3.059,-0.69975 -7.222,-0.78075 -9.47,-1.33725 -0.039,-0.0097 -0.079,-0.01725 -0.12,-0.0225 -11.803,-1.54425 -22.75,4.938 -26.954,12.7515 -0.019,0.03375 -0.033,0.06825 -0.043,0.1035 -1.343,4.683 -7.877,7.59825 -13.943,8.622 -0.028,0.0045 -0.056,0.0105 -0.083,0.01725 -3.334,0.8385 -5.814,-0.048 -7.381,-1.69125 -1.567,-1.64325 -2.072,-4.0875 -0.985,-6.2355 0.028,-0.05625 0.046,-0.1155 0.052,-0.1755 0.199,-1.9095 2.112,-5.14125 4.562,-7.1055 1.225,-0.9825 2.564,-1.63725 3.771,-1.7805 1.185,-0.14025 2.316,0.12525 3.556,1.20975 0.143,0.1905 0.236,0.64725 0.187,1.239 -0.051,0.603 -0.202,1.3095 -0.278,1.9905 -0.076,0.68025 -0.127,1.3455 0.296,1.9575 0.212,0.306 0.592,0.585 1.069,0.72075 0.477,0.13575 1.005,0.144 1.586,0.069 l -0.32,-0.0045 c 1.906,0.30675 3.575,0.192 4.772,-0.52575 1.16,-0.69525 1.697,-1.86075 1.754,-3.3375 1.71,-2.352 1.583,-4.59825 -0.037,-6.10275 -1.634,-1.51725 -4.577,-2.1975 -7.994,-1.83075 -6.014,-0.5685 -11.517,1.095 -15.79,3.89175 -4.285,2.80425 -7.375,6.73875 -8.679,10.806 -1.005,2.3475 -0.919,5.052 0.347,7.3335 1.271,2.289 3.817,4.16025 7.554,4.59675 l 0.005,7.5e-4 c 7.62,0.86175 15.99,0.0465 22.192,-3.82425 0.052,-0.03225 0.098,-0.069 0.138,-0.1095 0.874,-0.885 1.517,-1.182 1.748,-1.2165 0.115,-0.01725 0.15,-0.012 0.259,0.033 0.108,0.04425 0.273,0.15 0.454,0.3225 0.723,0.69075 1.479,2.30025 2.891,3.4065 0.025,0.0195 0.052,0.03825 0.08,0.0555 3.049,1.84125 6.819,2.067 10.263,1.3425 3.445,-0.72525 6.628,-2.36925 8.807,-4.356 l -0.023,0.021 c 0.593,-0.495 1.184,-0.96375 1.691,-1.3125 0.208,-0.144 0.254,-0.144 0.427,-0.23775 -0.05,0.318 -0.078,0.62625 -0.377,1.353 -0.031,0.0765 -0.043,0.156 -0.034,0.23625 0.191,1.8315 1.245,3.15 2.789,3.88125 1.544,0.73125 3.471,0.89025 5.423,0.711 3.905,-0.35775 8.04,-2.02425 10.106,-4.116 0.007,-0.0075 0.015,-0.015 0.022,-0.0225 0.884,-0.9825 1.543,-1.31025 1.708,-1.338 0.083,-0.01425 0.069,-0.0165 0.162,0.027 0.093,0.0435 0.256,0.162 0.434,0.3525 0.712,0.76125 1.442,2.49675 3.092,3.5415 0.011,0.0068 0.022,0.01275 0.032,0.01875 3.071,1.76325 6.805,1.95525 10.213,1.22175 3.409,-0.73425 6.55,-2.36625 8.718,-4.3365 l -0.023,0.02025 c 0.593,-0.495 1.185,-0.96375 1.691,-1.3125 0.209,-0.14475 0.256,-0.144 0.428,-0.23775 -0.049,0.318 -0.078,0.62625 -0.376,1.353 -0.032,0.07575 -0.043,0.15525 -0.035,0.234 0.185,1.82325 1.23,3.1395 2.764,3.873 1.535,0.73275 3.453,0.8985 5.398,0.72675 3.889,-0.34275 8.014,-1.9875 10.082,-4.06875 0.008,-0.009 0.017,-0.018 0.025,-0.02775 0.546,-0.61425 1.011,-1.01625 1.362,-1.239 0.351,-0.22275 0.547,-0.25425 0.645,-0.25425 0.098,0 0.208,0.02475 0.418,0.16725 0.21,0.1425 0.47,0.39375 0.744,0.70875 0.548,0.6315 1.155,1.5045 1.978,2.28825 0.819,0.78075 1.914,1.5 3.415,1.6875 6.306,1.2825 13.537,1.041 19.51,-1.2285 0.038,-0.01425 0.074,-0.03 0.108,-0.048 2.334,-1.24125 5.398,-2.58975 7.959,-4.257 2.561,-1.66725 4.674,-3.70725 4.847,-6.30825 0.029,-0.43425 -0.522,-0.76125 -1.079,-0.63975 -2.785,0.60525 -5.026,2.3145 -7.351,3.912 -2.324,1.59825 -4.697,3.09 -7.45,3.519 -0.074,0.01125 -0.145,0.03 -0.212,0.0555 -2.551,0.9765 -5.761,0.84675 -8.081,-0.12 -2.157,-0.89925 -3.478,-2.439 -3.101,-4.575 6.567,-0.24825 14.065,-0.4875 19.215,-4.39725 2.882,-2.0865 3.485,-5.33025 2.267,-7.956 -1.205,-2.5995 -5.334,-4.31025 -8.847,-4.29375 -5.939,0.02775 -11.417,1.54575 -15.594,4.40775 -4.138,2.83575 -7.082,6.732 -8.33,10.77 -0.979,1.12125 -3.286,3.45825 -5.489,4.8915 -1.115,0.72525 -2.214,1.1775 -2.867,1.21725 -0.326,0.0195 -0.525,-0.02175 -0.752,-0.16275 -0.194,-0.12075 -0.41,-0.4185 -0.604,-0.801 4.226,-10.6995 9.085,-21.27075 13.425,-31.98 0.112,-0.27525 -0.038,-0.57225 -0.364,-0.723 -0.982,-0.45525 -2.238,-0.71175 -3.592,-0.7965 z m -122.381,13.0905 c -3.092,0.0045 -5.894,1.2915 -8.236,2.586 -0.956,0.52725 -1.774,1.02675 -2.557,1.49025 0.147,-0.363 0.241,-0.71325 0.223,-1.04475 -0.052,-0.966 -0.979,-1.686 -2.089,-2.001 -2.22,-0.63 -5.384,-0.27075 -8.046,0.43575 -0.228,0.06075 -0.41,0.19125 -0.501,0.35925 -3.802,7.047 -10.35,13.79775 -9.986,21.32775 0.623,5.02275 1.936,4.44675 8.967,4.36275 0.389,-0.07725 1.379,-1.13325 1.516,-1.4175 1.257,-2.61375 3.401,-7.47225 5.825,-10.917 0.017,-0.0225 0.031,-0.0465 0.043,-0.0705 0.547,-1.08 3.148,-4.09575 5.488,-5.8845 1.171,-0.894 2.366,-1.44225 2.78,-1.46925 0.207,-0.01275 0.185,-0.033 0.32,0.12375 0.13,0.15 0.289,0.56625 0.328,1.206 -0.394,0.80175 -0.5,1.5015 -0.102,2.06325 0.436,0.61425 1.307,0.86625 2.13,0.94425 1.645,0.156 3.591,-0.2145 4.913,-0.4365 0.345,-0.05775 0.605,-0.27 0.653,-0.53175 0.105,-0.5715 0.569,-1.49775 1.147,-2.5095 0.579,-1.01175 1.26,-2.1255 1.772,-3.20175 0.511,-1.077 0.883,-2.11125 0.703,-3.0705 -0.09,-0.47925 -0.346,-0.951 -0.821,-1.31475 -0.472,-0.36075 -1.128,-0.594 -1.907,-0.70425 -0.857,-0.222 -1.719,-0.327 -2.563,-0.3255 z m 58.208,4.32075 c 1.98,0.1155 3.612,0.84 4.547,2.56275 -2.547,5.08575 -6.194,10.134 -11.916,13.42125 l -1.04,0.372 -1.035,0.207 c -1.775,-0.1545 -2.671,-0.6825 -3.204,-1.491 -0.547,-0.8295 -0.649,-2.03325 -0.39,-3.3705 0.518,-2.67375 2.436,-5.81925 3.8,-7.4385 0.025,-0.02925 0.047,-0.06 0.065,-0.09225 1.377,-2.4435 5.734,-4.371 9.173,-4.17075 z m 44.008,0.0015 c 2.114,0.015 3.871,0.71925 4.92,2.6535 -2.629,5.03325 -6.197,10.05825 -11.891,13.3155 -1.219,0.42525 -2.199,0.61275 -2.926,0.627 -0.744,0.01425 -1.221,-0.1215 -1.604,-0.3585 -0.767,-0.47475 -1.207,-1.56225 -1.205,-2.97375 0.005,-2.823 1.765,-6.7155 3.063,-8.06325 0.046,-0.048 0.083,-0.1005 0.11,-0.156 0.636,-1.32525 2.077,-2.61675 3.847,-3.552 1.77,-0.93525 3.856,-1.50525 5.686,-1.4925 z m 41.568,0.261 c 0.966,-0.009 1.291,0.237 1.542,0.7845 0.252,0.54675 0.219,1.437 -0.145,2.3625 -0.73,1.85025 -2.654,3.411 -4.698,3.9645 -2.512,0.68025 -4.881,0.861 -4.996,0.74775 -0.129,-0.075 -0.259,-0.144 -0.31,-0.252 -0.072,-0.15 -0.093,-0.38025 -0.018,-0.68475 0.151,-0.60975 0.697,-1.46625 1.451,-2.33025 1.49,-1.7085 3.789,-3.48675 4.941,-4.12875 0.944,-0.32325 1.699,-0.459 2.233,-0.4635 z"
       style="fill:#f4c401;fill-rule:nonzero;stroke-width:0.86602539"
       inkscape:connector-curvature="0" /><path
       id="circle5423"
       d="m 235.56,75.203354 c 0,3.98325 -4.37,7.26075 -9.681,7.26075 -5.311,0 -9.681,-3.2775 -9.681,-7.26075 0,-3.98325 4.37,-7.26075 9.681,-7.26075 5.311,0 9.681,3.2775 9.681,7.26075 z"
       style="fill:#ffffff;stroke-width:0.86602539"
       inkscape:connector-curvature="0" /><g
       id="g5416"
       transform="matrix(1,0,0,0.75,0,27.631604)"><path
         id="path5376"
         d="m 221.178,71.439 c -1.617,0.584 -2.634,2.58 -3.634,3.392 -2.896,-4.939 -9.817,-4.666 -14.608,-3.19 -2.5,0.931 -4.658,2.838 -6.19,4.881 -2.243,-4.454 -7.999,-4.242 -12.229,-3.912 -4.797,0.439 -10.069,4.404 -9.633,9.586 0.312,1.242 1.368,3.139 -0.579,3.504 -1.788,1.104 -2.897,2.953 -3.991,4.686 0.685,-4.204 3.748,-8.776 1.878,-12.966 -2.923,-3.297 -7.765,-2.006 -11.592,-2.889 -9.341,-0.067 -17.332,7.502 -19.599,16.27 -0.44,1.222 -3.034,5.467 -2.955,3.455 0.615,-7.399 6.984,-11.928 10.249,-18.054 2.496,-3.968 3.245,-10.747 -1.728,-13.138 -5.388,-2.92 -12.92,0.406 -14.213,6.463 -1.503,3.64 -2.113,8.46 -3.221,11.621 -1.604,-4.162 -6.999,-4.065 -10.701,-3.722 -10.767,1.563 -19.518,14.132 -14.781,24.534 2.871,5.499 10.076,6.485 15.427,4.429 2.767,-0.622 5.441,-2.579 7.617,-3.772 4.235,5.103 12.707,3.227 16.299,-1.422 3.145,4.546 9.929,4.21 13.808,0.839 1.173,-1.105 2.763,-2.047 3.763,-0.18 3.352,3.19 9.585,1.807 11.779,-2.157 5.168,4.617 13.635,3.385 18.766,-0.675 0.92,-0.995 1.66,-1.702 2.509,-0.313 5.309,4.148 12.992,2.339 18.368,-0.677 0.974,-0.804 1.65,-2.14 2.389,-2.96 3.006,6.273 12.721,5.316 15.991,-0.178 3.582,3.25 8.89,4.044 13.515,2.817 2.855,-0.545 5.404,-2.342 7.808,-3.594 2.066,1.456 4.241,2.916 6.922,2.693 6.381,0.638 14.247,-2.407 15.545,-9.363 0.84,-2.497 -1.234,-4.96 -1.493,-7.029 4.041,-1.768 4.841,-7.484 2.657,-10.957 -2.723,-3.51 -7.899,-2.665 -11.804,-2.383 -3.123,0.346 -6.108,2.243 -8.047,4.386 -1.562,-0.309 -2.374,-2.466 -4.327,-2.508 -9.84,-2.971 -20.629,4.713 -22.429,14.529 -0.455,0.79 -0.978,3.153 -1.638,3.031 0.463,-4.941 4.163,-9.841 2.358,-14.888 -1.132,-1.879 -5.904,-1.959 -8.256,-0.189 z m 22.694,5.898 c -0.924,3.652 2.72,7.785 6.417,6.204 -0.971,3.536 -6.153,6.914 -9.499,4.266 -0.935,-3.662 0,-8.148 3.082,-10.47 z m 11.263,1.032 c 1.065,1.156 -1.983,1.863 -0.375,0.102 0.122,0.057 0.297,-0.151 0.375,-0.102 z m -47.266,1.075 c 0.435,0.244 0.155,0.21 0,0 z m -11.47,3.108 c 0.626,0.868 -1.201,1.63 -0.368,0.399 0.088,-0.03 0.277,-0.54 0.368,-0.399 z m -37.739,0.274 c 2.311,1.473 0.266,4.782 -1.149,6.28 -1.208,1.524 -2.55,4.697 -4.358,4.569 -0.324,-4.019 1.293,-9.541 5.507,-10.849 z m 57.222,0.853 c 0.654,2.384 -2.17,3.869 -1.709,1.041 0.293,-0.71 1.646,-0.561 1.709,-1.041 z m 44.165,1.838 c 1.686,0.342 2.074,3.438 -0.186,2.742 -1.766,-0.447 -1.041,-2.397 0.186,-2.742 z m -67.132,0.601 c -0.414,0.674 0.086,-0.272 0,0 z m -74.891,0.191 c -0.785,3.39 2.338,7.686 6.031,6.207 1.573,-0.614 2.69,-0.989 0.823,0.73 -2.346,2.611 -5.832,5.356 -9.523,4.083 -1.724,-3.686 -0.568,-8.67 2.669,-11.02 z m 83.619,2.647 c 1.895,0.791 1.171,5.176 -0.936,3.344 -0.184,-1.085 0.644,-2.76 0.936,-3.344 z m -21.474,1.527 c 1.711,0.421 2.352,4.629 -0.088,3.489 -0.621,-1.016 -0.132,-2.464 0.088,-3.489 z"
         style="fill:#ffffff;fill-rule:nonzero"
         inkscape:connector-curvature="0" /><path
         id="path5361"
         d="m 142.245,64.296 c -2.383,-0.028 -4.936,0.974 -6.428,3.208 -0.009,0.014 -0.018,0.028 -0.026,0.043 -2.801,5.389 -3.472,11.562 -5.093,17.233 l 0.011,-0.033 c -0.561,1.505 -0.748,3.142 -1.076,4.652 -0.328,1.51 -0.785,2.871 -1.807,3.902 -0.011,0.011 -0.022,0.023 -0.032,0.035 -1.647,2.05 -3.922,4.274 -6.404,5.574 -2.451,1.283 -5.045,1.668 -7.598,0.231 -1.557,-2.327 -1.881,-5.611 -1.095,-8.603 0.794,-3.018 2.688,-5.687 5.403,-6.803 0.607,-0.152 1.042,-0.153 1.324,-0.071 0.288,0.084 0.453,0.229 0.596,0.473 0.286,0.486 0.36,1.41 0.365,2.38 0.006,0.97 -0.055,1.966 0.227,2.766 0.141,0.401 0.408,0.779 0.833,0.958 0.409,0.172 0.895,0.141 1.455,-0.031 1.135,0.176 2.056,-0.086 2.645,-0.705 0.621,-0.653 0.902,-1.572 1.061,-2.556 0.317,-1.968 0.147,-4.324 0.402,-5.476 0.045,-0.205 -0.055,-0.414 -0.243,-0.508 -7.767,-3.848 -17.689,0.847 -20.581,8.824 0,0.003 -0.005,0.007 -0.005,0.011 -2.031,3.264 -2.152,7.526 -0.632,10.736 1.515,3.199 4.789,5.325 9.25,4.163 5.094,0.216 9.752,-3.231 12.867,-6.359 0.037,1.449 0.507,2.613 1.309,3.433 1.008,1.032 2.456,1.528 3.993,1.612 3.074,0.168 6.603,-1.259 8.206,-3.869 v -0.003 c 0.667,-1.1 1.197,-1.697 1.538,-1.907 0.171,-0.105 0.275,-0.122 0.371,-0.113 0.095,0.01 0.209,0.056 0.359,0.174 0.598,0.474 1.432,2.074 2.761,3.684 0.044,0.053 0.099,0.096 0.162,0.125 3.155,1.44 6.292,0.688 8.894,-1.034 1.741,-1.152 3.241,-2.742 4.463,-4.421 0.016,0.257 -0.044,0.519 0.014,0.769 0.289,1.257 1.059,2.412 2.113,3.247 1.053,0.834 2.401,1.35 3.846,1.284 1.444,-0.066 2.968,-0.723 4.335,-2.155 0.029,-0.03 0.053,-0.065 0.073,-0.102 0.778,-1.467 1.406,-1.954 1.875,-2.033 0.47,-0.079 1.023,0.216 1.717,0.755 0.694,0.539 1.479,1.272 2.437,1.811 0.958,0.538 2.119,0.871 3.46,0.563 l -0.107,0.012 0.758,0.006 c 0.005,0.001 0.011,0.001 0.017,0 l 0.752,-0.02 -0.038,-0.001 c 2.879,0.16 6.108,-0.791 8.421,-2.636 2.313,-1.845 3.687,-4.675 2.655,-8.023 -0.329,-1.118 -1.31,-2.169 -2.441,-3.257 -1.132,-1.088 -2.435,-2.192 -3.443,-3.232 -1.008,-1.041 -1.668,-2.028 -1.683,-2.701 -0.008,-0.337 0.096,-0.619 0.437,-0.943 0.331,-0.315 0.917,-0.642 1.789,-0.936 1.024,-0.045 1.474,0.265 1.8,0.788 0.333,0.533 0.483,1.349 0.614,2.166 0.131,0.818 0.217,1.642 0.717,2.246 0.249,0.302 0.636,0.517 1.082,0.55 0.434,0.031 0.92,-0.091 1.494,-0.334 0.667,-0.193 1.128,-0.775 1.477,-1.476 0.354,-0.709 0.595,-1.575 0.707,-2.454 0.112,-0.88 0.098,-1.771 -0.102,-2.538 -0.2,-0.767 -0.611,-1.455 -1.33,-1.73 -0.015,-0.006 -0.03,-0.01 -0.046,-0.015 -2.557,-0.679 -5.827,-1.121 -8.805,-0.644 -2.978,0.478 -5.708,1.929 -6.92,4.998 0,0.006 -0.005,0.012 -0.007,0.018 -0.624,1.794 -0.013,3.5 1.011,5.019 1.024,1.518 2.469,2.919 3.671,4.255 1.202,1.335 2.126,2.604 2.237,3.701 0.055,0.549 -0.061,1.066 -0.459,1.635 -0.389,0.554 -1.076,1.15 -2.128,1.763 -1.568,0.327 -2.53,0.093 -3.133,-0.415 -0.613,-0.516 -0.93,-1.383 -1.014,-2.437 -0.167,-2.11 0.654,-4.857 1.249,-6.04 0.145,-0.288 -0.046,-0.633 -0.368,-0.661 -1.572,-0.139 -2.813,0.482 -3.777,1.42 -0.964,0.938 -1.698,2.179 -2.422,3.385 -0.723,1.206 -1.437,2.377 -2.278,3.179 -0.733,0.699 -1.574,1.053 -2.637,1.061 0.011,-4.521 1.738,-8.976 2.712,-13.558 l -0.036,0.102 c 0.438,-0.91 0.692,-1.67 0.746,-2.335 0.054,-0.665 -0.121,-1.264 -0.532,-1.679 -0.808,-0.816 -2.221,-0.902 -4.137,-0.758 -7.402,-2.295 -15.867,0.568 -19.89,7.328 v 0.004 c -1.364,2.334 -2.558,5.985 -4.222,8.816 -0.832,1.416 -1.776,2.613 -2.862,3.34 -1.003,0.67 -2.125,0.94 -3.502,0.672 -0.347,-3.414 1.103,-6.857 1.807,-10.419 3.357,-4.754 7.973,-9.098 9.924,-15.013 l -0.029,0.067 c 1.265,-2.448 1.044,-4.546 -0.07,-5.966 -1.113,-1.42 -3.019,-2.15 -5.005,-2.174 z m 0.308,4.326 c 0.448,0.273 0.71,0.637 0.776,1.219 0.083,0.744 -0.122,1.764 -0.501,2.845 -0.754,2.15 -2.137,4.523 -2.848,5.934 l -0.413,0.666 c 0.008,-0.123 -0.006,-0.185 0.012,-0.327 0.102,-0.911 0.353,-2.17 0.687,-3.519 0.621,-2.502 1.531,-5.229 2.287,-6.818 z m 126.872,0.543 c -1.042,-0.081 -2.14,-0.047 -3.188,0.032 -1.397,0.104 -2.703,0.3 -3.637,0.452 l -0.01,0.002 c -2.341,0.44 -3.905,1.431 -4.772,2.758 -0.867,1.327 -1.016,2.944 -0.688,4.556 0.644,3.174 3.082,6.413 5.94,8.111 1.155,1.859 1.066,3.121 0.47,3.981 -0.602,0.87 -1.843,1.386 -3.14,1.417 -1.298,0.031 -2.597,-0.424 -3.3,-1.292 -0.7,-0.864 -0.922,-2.168 0.053,-4.163 1.04,-1.078 1.537,-1.885 1.479,-2.633 -0.031,-0.385 -0.271,-0.73 -0.581,-0.904 -0.31,-0.174 -0.666,-0.223 -1.044,-0.208 -0.756,0.03 -1.63,0.327 -2.435,0.845 -0.805,0.519 -1.54,1.268 -1.917,2.241 v 0.007 c -0.904,2.458 -3.416,4.886 -6.184,6.043 -2.743,1.146 -5.625,1.077 -7.626,-1.185 -0.836,-2.504 -0.89,-5.597 -0.063,-8.312 0.835,-2.739 2.536,-5.066 5.164,-6.128 0.609,-0.153 1.045,-0.153 1.328,-0.07 0.288,0.084 0.453,0.229 0.596,0.472 0.286,0.487 0.361,1.411 0.366,2.381 0.005,0.97 -0.055,1.965 0.227,2.766 0.141,0.4 0.408,0.779 0.833,0.957 0.408,0.172 0.895,0.141 1.455,-0.03 1.135,0.175 2.055,-0.087 2.644,-0.706 0.621,-0.652 0.902,-1.571 1.061,-2.555 0.317,-1.968 0.147,-4.323 0.402,-5.475 0.045,-0.205 -0.055,-0.415 -0.243,-0.508 -7.295,-3.618 -16.642,0.325 -20.004,7.553 -0.006,0.013 -0.01,0.025 -0.014,0.038 -0.814,2.251 -1.813,5.431 -3.271,7.954 -0.728,1.262 -1.57,2.355 -2.531,3.088 -0.832,0.634 -1.769,0.939 -2.825,0.958 0.28,-5.131 2.235,-10.218 3.328,-15.427 l -0.036,0.105 c 0.359,-0.742 0.57,-1.355 0.625,-1.891 0.054,-0.535 -0.074,-1.041 -0.432,-1.361 -0.358,-0.321 -0.846,-0.412 -1.39,-0.393 -0.526,0.018 -1.141,0.153 -1.839,0.363 -1.743,0.064 -3.002,0.816 -3.824,1.951 -0.831,1.149 -1.258,2.646 -1.559,4.25 -0.601,3.207 -0.72,6.896 -1.905,9.044 l -0.006,0.005 c -1.764,3.31 -0.806,6.379 1.332,7.926 2.138,1.547 5.412,1.59 8.08,-0.772 l -0.206,0.104 c 0.784,-0.167 1.383,-0.817 1.984,-1.541 0.6,-0.724 1.176,-1.562 1.691,-2.193 0.258,-0.316 0.502,-0.579 0.702,-0.742 0.2,-0.164 0.34,-0.201 0.368,-0.2 0.029,0.001 0.068,-0.011 0.191,0.207 0.123,0.218 0.263,0.638 0.375,1.271 0.012,0.07 0.041,0.136 0.083,0.193 1.999,2.694 5.122,3.573 8.284,3.442 3.161,-0.132 6.406,-1.244 8.87,-2.579 0.059,-0.032 0.11,-0.077 0.15,-0.132 0.921,-1.252 1.645,-1.683 2.251,-1.755 0.606,-0.071 1.224,0.215 1.95,0.699 1.451,0.968 3.223,2.685 5.826,2.324 l -0.064,0.005 c 2.065,0.006 4.485,-0.148 6.7,-0.822 2.212,-0.673 4.24,-1.884 5.404,-3.992 0.979,-1.642 1.224,-3.176 0.95,-4.568 -0.275,-1.393 -1.046,-2.625 -2.004,-3.758 -1.877,-2.221 -4.487,-4.134 -5.921,-6.068 0,-1.301 0.366,-1.96 0.838,-2.232 0.493,-0.283 1.227,-0.232 1.99,0.149 0.763,0.381 1.513,1.077 1.965,1.91 0.452,0.834 0.616,1.782 0.278,2.756 -0.099,0.286 0.103,0.588 0.406,0.605 1.296,0.076 2.442,-0.053 3.281,-0.664 0.806,-0.587 1.182,-1.637 1.082,-3.031 0.49,-1.244 0.582,-2.286 0.294,-3.13 -0.294,-0.86 -0.967,-1.462 -1.789,-1.844 -0.822,-0.381 -1.806,-0.576 -2.848,-0.657 z m -58.677,3.981 c -0.59,-0.009 -1.228,0.052 -1.904,0.175 -3.031,-0.595 -6.532,0.606 -8.698,2.728 -1.098,1.075 -1.856,2.404 -1.965,3.87 -0.109,1.467 0.452,3.036 1.853,4.518 0.04,0.041 0.086,0.075 0.138,0.099 2.189,1.033 4.328,3.956 4.823,6.403 0.247,1.224 0.099,2.279 -0.514,2.984 -0.607,0.7 -1.746,1.147 -3.726,0.99 -1.408,-0.332 -1.987,-0.893 -2.237,-1.594 -0.252,-0.706 -0.142,-1.65 0.123,-2.653 0.264,-1.004 0.669,-2.045 0.895,-2.985 0.113,-0.471 0.184,-0.918 0.151,-1.346 -0.033,-0.429 -0.194,-0.859 -0.537,-1.16 -0.109,-0.096 -0.257,-0.134 -0.398,-0.104 -3.959,0.858 -5.782,4.516 -5.485,7.802 0.148,1.642 0.817,3.217 2.023,4.325 1.206,1.108 2.949,1.72 5.115,1.465 l -0.064,0.004 c 3.282,0.069 6.756,-0.414 9.666,-2.183 l 0.006,-0.004 c 2.982,-1.87 3.77,-4.921 3.092,-7.732 -0.678,-2.808 -2.744,-5.432 -5.449,-6.748 l -0.007,-0.004 c -1.718,-0.878 -2.264,-1.806 -2.291,-2.558 -0.027,-0.754 0.485,-1.477 1.241,-1.917 0.755,-0.439 1.698,-0.554 2.42,-0.186 0.722,0.368 1.334,1.224 1.377,3.034 l 0.033,-0.182 c -0.304,0.75 -0.209,1.456 0.203,1.888 0.412,0.432 1.009,0.574 1.602,0.58 0.592,0.007 1.203,-0.129 1.716,-0.396 0.513,-0.267 0.971,-0.699 1.031,-1.31 l -0.036,0.139 c 0.92,-2.105 1.012,-4.059 0.266,-5.533 -0.746,-1.473 -2.333,-2.377 -4.463,-2.409 z m -50.968,7.362 c 1.508,0.803 2.14,1.853 2.266,3.123 0.13,1.297 -0.314,2.848 -1.105,4.427 -1.576,3.147 -4.488,6.371 -6.373,8.097 -0.625,0.457 -1.16,0.577 -1.63,0.513 -0.474,-0.066 -0.911,-0.33 -1.284,-0.747 -0.745,-0.833 -1.154,-2.269 -0.932,-3.397 0.005,-0.017 0.005,-0.034 0.007,-0.051 0.216,-2.61 0.989,-5.777 2.471,-8.177 1.466,-2.376 3.555,-3.979 6.581,-3.788 z"
         style="fill:#98a6af;fill-rule:nonzero"
         inkscape:connector-curvature="0" /></g><path
       id="path5396"
       d="m 234.095,75.180104 c 0,3.44025 -3.774,6.27075 -8.361,6.27075 -4.586,0 -8.36,-2.8305 -8.36,-6.27075 0,-3.4395 3.774,-6.27 8.36,-6.27 4.587,0 8.361,2.8305 8.361,6.27 z"
       style="fill:#db0123;stroke-width:0.86602539"
       inkscape:connector-curvature="0" /><path
       id="circle5398"
       d="m 224.796,72.319604 c 0,0.801 -0.879,1.46025 -1.947,1.46025 -1.068,0 -1.948,-0.65925 -1.948,-1.46025 0,-0.80175 0.88,-1.461 1.948,-1.461 1.068,0 1.947,0.65925 1.947,1.461 z"
       style="fill:#ffffff;stroke-width:0.86602539"
       inkscape:connector-curvature="0" /></g></svg>