<?xml version="1.0" encoding="UTF-8" standalone="no"?>
<!-- Generator: Adobe Illustrator 16.0.0, SVG Export Plug-In . SVG Version: 6.00 Build 0)  -->

<svg
   xmlns:dc="http://purl.org/dc/elements/1.1/"
   xmlns:cc="http://creativecommons.org/ns#"
   xmlns:rdf="http://www.w3.org/1999/02/22-rdf-syntax-ns#"
   xmlns:svg="http://www.w3.org/2000/svg"
   xmlns="http://www.w3.org/2000/svg"
   xmlns:xlink="http://www.w3.org/1999/xlink"
   xmlns:sodipodi="http://sodipodi.sourceforge.net/DTD/sodipodi-0.dtd"
   xmlns:inkscape="http://www.inkscape.org/namespaces/inkscape"
   version="1.1"
   id="svg2"
   inkscape:export-filename="/home/kivutar/Bureau/lakka-menu/reload.png"
   inkscape:export-xdpi="90"
   inkscape:version="0.92.2 (5c3e80d, 2017-08-06)"
   inkscape:export-ydpi="90"
   sodipodi:docname="logo.svg"
   x="0px"
   y="0px"
   width="184.11028"
   height="40.5"
   viewBox="0 128 184.11028 40.5"
   enable-background="new 0 128 64 64"
   xml:space="preserve"><metadata
     id="metadata8"><rdf:RDF><cc:Work
         rdf:about=""><dc:format>image/svg+xml</dc:format><dc:type
           rdf:resource="http://purl.org/dc/dcmitype/StillImage" /><dc:title /></cc:Work></rdf:RDF></metadata><defs
     id="defs6"><linearGradient
       inkscape:collect="always"
       id="linearGradient821"><stop
         style="stop-color:#cc0000;stop-opacity:1;"
         offset="0"
         id="stop817" /><stop
         style="stop-color:#cc0000;stop-opacity:0;"
         offset="1"
         id="stop819" /></linearGradient><linearGradient
       inkscape:collect="always"
       xlink:href="#linearGradient821"
       id="linearGradient823"
       x1="55.569758"
       y1="160.16852"
       x2="153.76744"
       y2="160.16852"
       gradientUnits="userSpaceOnUse" /></defs><sodipodi:namedview
     pagecolor="#ffffff"
     bordercolor="#666666"
     borderopacity="1"
     objecttolerance="10"
     gridtolerance="10"
     guidetolerance="10"
     inkscape:pageopacity="0"
     inkscape:pageshadow="2"
     inkscape:window-width="1920"
     inkscape:window-height="1017"
     id="namedview4"
     showgrid="true"
     fit-margin-top="0"
     fit-margin-left="0"
     fit-margin-right="0"
     fit-margin-bottom="0"
     inkscape:zoom="5.2149125"
     inkscape:cx="87.924978"
     inkscape:cy="23.493973"
     inkscape:window-x="-8"
     inkscape:window-y="-8"
     inkscape:window-maximized="1"
     inkscape:current-layer="text817"><inkscape:grid
       type="xygrid"
       id="grid823"
       originx="-5.8135594"
       originy="-5" /></sodipodi:namedview><path
     id="Settings_1_"
     d="M 26.999999,128 C 4.5849998,128 0,131.4155 0,148.25075 0,165.086 4.5139998,168.5 26.999999,168.5 c 22.489,0 27,-3.40725 27,-20.24925 0,-16.8435 -4.585,-20.25075 -27,-20.25075 z m -1.854,23.8815 -0.215,1.875 c -0.879,0.14175 -1.787,0.21975 -2.723,0.21975 -0.934,0 -1.844,-0.078 -2.721,-0.21975 l -0.217,-1.875 c -1.623,-0.35625 -3.082,-0.99825 -4.273,-1.8525 l -2.273,0.79875 c -1.221,-1.0065 -2.158,-2.20875 -2.7250002,-3.53625 l 2.0610002,-1.07775 c -0.193,-0.594 -0.297,-1.2135 -0.297,-1.851 0,-0.639 0.104,-1.25775 0.297,-1.85175 L 9.9999988,141.5 c 0.5660002,-1.32675 1.5040002,-2.59575 2.7250002,-3.60225 l 2.273,0.79875 c 1.191,-0.85275 2.65,-1.49625 4.273,-1.85325 l 0.217,-1.87425 c 0.877,-0.141 1.578,-0.219 2.512,-0.219 0.936,0 2.053,0.078 2.932,0.21975 l 0.215,1.87425 c 1.623,0.357 3.082,1.0005 4.273,1.85325 l 2.275,-0.79875 c 1.219,1.0065 2.156,2.20875 2.723,3.5355 l -2.059,1.0785 c 0.193,0.594 0.295,1.21275 0.295,1.85175 0,0.6375 -0.102,1.257 -0.295,1.851 l 2.059,1.07775 c -0.566,1.3275 -1.504,2.52975 -2.723,3.53625 l -2.275,-0.79875 c -1.191,0.85275 -2.65,1.49475 -4.274,1.851 z m 17.481,7.389 -1.494,-0.38025 c -0.664,0.5925 -1.514,1.0695 -2.492,1.3755 l 0.035,1.17975 c -0.533,0.13575 -2.082,0.30375 -3.082,0.30375 0,0 -0.182,-0.0127 -0.311,-0.0225 l -0.307,-1.15725 c -1.045,-0.1395 -2.014,-0.465 -2.836,-0.93525 l -1.344,0.61425 c -0.855,-0.56325 -1.549,-1.26525 -2.023,-2.0625 l 1.184,-0.77925 c -0.174,-0.36 -0.295,-0.741 -0.354,-1.13925 -0.059,-0.39675 -0.051,-0.78975 0.016,-1.17 l -1.385,-0.56625 c 0.232,-0.85725 0.707,-1.6545 1.375,-2.34525 l 1.492,0.3795 c 0.664,-0.5925 1.514,-1.0695 2.494,-1.374 l -0.037,-1.18125 c 0.535,-0.13425 1.094,-0.22875 1.678,-0.27675 0.582,-0.0472 1.156,-0.0465 1.717,-0.004 l 0.307,1.1595 c 1.045,0.138 2.014,0.4635 2.834,0.93375 l 1.346,-0.615 c 0.854,0.5655 1.549,1.26675 2.021,2.06475 l -1.184,0.77775 c 0.176,0.36075 0.297,0.74175 0.355,1.14075 0.057,0.3975 0.049,0.78825 -0.016,1.16925 l 1.384,0.56625 c -0.23,0.85725 -0.705,1.6545 -1.373,2.3445 z m -6.926,-6.37425 c -2.088,0.17175 -3.596,1.58175 -3.365,3.14925 0.23,1.56525 2.11,2.6955 4.199,2.52225 2.09,-0.1725 3.594,-1.58175 3.365,-3.14775 -0.23,-1.56675 -2.11,-2.69625 -4.199,-2.52375 z m -13.492,-13.6215 c -3.75,0 -6.791,2.28 -6.791,5.094 0,2.8125 3.041,5.0925 6.791,5.0925 3.75,0 6.791,-2.28 6.791,-5.0925 0,-2.814 -3.041,-5.094 -6.791,-5.094 z"
     style="fill:#cc0000;stroke-width:0.86602539;fill-opacity:1"
     inkscape:connector-curvature="0" /><g
     aria-label="RGB-Pi"
     transform="scale(1.1547005,0.86602542)"
     style="font-style:normal;font-weight:normal;font-size:34.64101791px;line-height:1.25;font-family:sans-serif;letter-spacing:0px;word-spacing:0px;fill:#cc0000;fill-opacity:1;stroke:none;stroke-width:0.86602539"
     id="text817"><path
       d="m 61.745097,149.45059 q 4.849742,0 7.40394,1.77824 2.586529,1.77823 2.586529,5.43171 0,4.55876 -4.494094,6.17534 0.6143,0.74362 1.390259,1.81057 0.775959,1.06694 1.584249,2.32787 0.808291,1.2286 1.551918,2.5542 0.743627,1.29326 1.325596,2.5542 h -4.558758 q -0.614301,-1.16394 -1.325596,-2.32788 -0.711296,-1.19627 -1.454923,-2.29554 -0.711295,-1.13161 -1.422591,-2.10156 -0.711295,-1.00228 -1.325596,-1.77824 -0.452643,0.0323 -0.775959,0.0323 -0.323316,0 -0.614301,0 h -1.972228 v 8.47089 h -4.073784 v -22.0825 q 1.487255,-0.32331 3.168499,-0.42031 1.681244,-0.12932 3.00684,-0.12932 z m 0.290984,3.52414 q -1.293264,0 -2.392539,0.097 v 7.24228 h 1.778239 q 1.487254,0 2.618861,-0.16166 1.131606,-0.16166 1.875233,-0.58197 0.775959,-0.42031 1.163938,-1.1316 0.38798,-0.7113 0.38798,-1.81057 0,-1.03462 -0.38798,-1.74591 -0.387979,-0.7113 -1.131606,-1.13161 -0.711296,-0.42031 -1.713576,-0.58197 -1.00228,-0.19399 -2.19855,-0.19399 z"
       style="font-style:normal;font-variant:normal;font-weight:500;font-stretch:normal;font-size:32.33161545px;font-family:Ubuntu;-inkscape-font-specification:'Ubuntu Medium';fill:#cc0000;fill-opacity:1;stroke-width:0.86602539"
       id="path832" /><path
       d="m 86.441904,152.74841 q -3.459483,0 -5.302385,2.16622 -1.810571,2.13389 -1.810571,5.94902 0,1.81057 0.420311,3.33015 0.452643,1.48726 1.293265,2.5542 0.872953,1.06694 2.133886,1.68125 1.293265,0.58196 3.006841,0.58196 1.066943,0 1.842902,-0.0647 0.775959,-0.097 1.228601,-0.22632 v -8.05057 h 4.073784 v 10.76643 q -0.840622,0.32331 -2.845182,0.71129 -2.004561,0.38798 -4.623421,0.38798 -2.424872,0 -4.429432,-0.77596 -2.00456,-0.77596 -3.427151,-2.26321 -1.39026,-1.48726 -2.166218,-3.65347 -0.775959,-2.16622 -0.775959,-4.97907 0,-2.81285 0.840622,-4.97907 0.872954,-2.16622 2.360208,-3.65347 1.487254,-1.51959 3.491814,-2.29555 2.004561,-0.77596 4.267774,-0.77596 1.551917,0 2.748187,0.22632 1.228601,0.19399 2.101555,0.45265 0.872954,0.25865 1.422591,0.54963 0.581969,0.29099 0.80829,0.42031 l -1.228601,3.33016 q -0.969948,-0.58197 -2.424871,-0.96995 -1.422591,-0.42031 -3.00684,-0.42031 z"
       style="font-style:normal;font-variant:normal;font-weight:500;font-stretch:normal;font-size:32.33161545px;font-family:Ubuntu;-inkscape-font-specification:'Ubuntu Medium';fill:#cc0000;fill-opacity:1;stroke-width:0.86602539"
       id="path834" /><path
       d="m 104.82546,172.34137 q -1.77824,0 -3.58881,-0.12933 -1.810574,-0.097 -3.168501,-0.45264 v -21.75918 q 0.711295,-0.12932 1.519585,-0.22632 0.808286,-0.12932 1.648916,-0.19399 0.84062,-0.0647 1.64891,-0.097 0.84062,-0.0323 1.58425,-0.0323 2.03689,0 3.7828,0.32331 1.7459,0.29099 3.00684,1.00228 1.29326,0.7113 2.00456,1.87524 0.71129,1.16394 0.71129,2.87751 0,1.58425 -0.77596,2.71586 -0.74362,1.1316 -2.10155,1.81057 2.03689,0.67896 3.00684,2.00456 0.96995,1.32559 0.96995,3.36249 0,3.45948 -2.52187,5.20539 -2.52186,1.71357 -7.72725,1.71357 z m -2.74819,-10.34612 v 6.82197 q 0.67896,0.0647 1.45492,0.097 0.77596,0.0323 1.42259,0.0323 1.26094,0 2.32788,-0.16166 1.09927,-0.16165 1.87523,-0.54963 0.80829,-0.42032 1.26094,-1.09928 0.48497,-0.67896 0.48497,-1.74591 0,-1.90756 -1.39026,-2.65119 -1.39026,-0.74363 -3.84746,-0.74363 z m 0,-3.20083 h 2.87751 q 2.32788,0 3.65348,-0.64663 1.32559,-0.67896 1.32559,-2.39254 0,-1.61658 -1.39026,-2.29554 -1.35793,-0.67897 -3.55648,-0.67897 -0.93761,0 -1.68124,0.0323 -0.7113,0.0323 -1.2286,0.097 z"
       style="font-style:normal;font-variant:normal;font-weight:500;font-stretch:normal;font-size:32.33161545px;font-family:Ubuntu;-inkscape-font-specification:'Ubuntu Medium';fill:#cc0000;fill-opacity:1;stroke-width:0.86602539"
       id="path836" /><path
       d="m 117.34588,161.05764 h 8.6972 v 3.58881 h -8.6972 z"
       style="font-style:normal;font-variant:normal;font-weight:500;font-stretch:normal;font-size:32.33161545px;font-family:Ubuntu;-inkscape-font-specification:'Ubuntu Medium';fill:#cc0000;fill-opacity:1;stroke-width:0.86602539"
       id="path838" /><path
       d="m 135.78954,149.45059 q 4.88208,0 7.46861,1.77824 2.61886,1.77823 2.61886,5.56103 0,1.97223 -0.7113,3.39482 -0.67896,1.39026 -2.00456,2.29555 -1.32559,0.87295 -3.23316,1.29326 -1.90756,0.42031 -4.36477,0.42031 h -2.03689 v 7.88892 h -4.07378 v -22.0825 q 1.42259,-0.32331 3.13616,-0.42031 1.74591,-0.12932 3.20083,-0.12932 z m 0.29099,3.52414 q -1.55192,0 -2.5542,0.097 v 7.63026 h 1.97223 q 2.94218,0 4.52643,-0.80829 1.58425,-0.84062 1.58425,-3.13617 0,-1.09927 -0.42032,-1.8429 -0.42031,-0.74363 -1.16393,-1.16394 -0.74363,-0.42031 -1.77824,-0.58197 -1.00228,-0.19399 -2.16622,-0.19399 z"
       style="font-style:normal;font-variant:normal;font-weight:500;font-stretch:normal;font-size:32.33161545px;font-family:Ubuntu;-inkscape-font-specification:'Ubuntu Medium';fill:#cc0000;fill-opacity:1;stroke-width:0.86602539"
       id="path840" /><path
       d="M 153.34713,172.08272 H 149.435 v -16.90944 h 3.91213 z m 0.42031,-21.85617 q 0,1.09927 -0.7113,1.7459 -0.71129,0.64664 -1.68124,0.64664 -1.00228,0 -1.71358,-0.64664 -0.71129,-0.64663 -0.71129,-1.7459 0,-1.13161 0.71129,-1.77824 0.7113,-0.64664 1.71358,-0.64664 0.96995,0 1.68124,0.64664 0.7113,0.64663 0.7113,1.77824 z"
       style="font-style:normal;font-variant:normal;font-weight:500;font-stretch:normal;font-size:32.33161545px;font-family:Ubuntu;-inkscape-font-specification:'Ubuntu Medium';fill:#cc0000;fill-opacity:1;stroke-width:0.86602539"
       id="path842" /></g><g
     aria-label="config"
     transform="scale(1.1547005,0.86602542)"
     style="font-style:normal;font-weight:normal;font-size:34.64101791px;line-height:1.25;font-family:sans-serif;letter-spacing:0px;word-spacing:0px;fill:#000000;fill-opacity:1;stroke:none;stroke-width:0.86602539"
     id="text821"><path
       d="m 104.51522,189.71729 q -1.49649,0 -2.49415,-0.58197 -0.99766,-0.58197 -1.63506,-1.57963 -0.609681,-1.02537 -0.886809,-2.41101 -0.249415,-1.38564 -0.249415,-3.0207 0,-3.60266 1.302504,-5.6257 1.33021,-2.05075 3.99064,-2.05075 0.80367,0 1.44107,0.19399 0.63739,0.19399 1.19165,0.49883 l -0.60968,1.96761 q -0.8591,-0.55425 -1.91219,-0.55425 -1.49649,0 -2.21702,1.35792 -0.69282,1.35793 -0.69282,4.21235 0,1.19165 0.13856,2.21703 0.13857,0.99766 0.47112,1.71819 0.36027,0.72053 0.91452,1.13623 0.58197,0.41569 1.46878,0.41569 0.60968,0 1.0808,-0.13857 0.49883,-0.16627 0.94224,-0.41569 l 0.52654,1.85676 q -0.4434,0.30484 -1.19165,0.55426 -0.72053,0.24941 -1.57963,0.24941 z"
       style="font-style:normal;font-variant:normal;font-weight:normal;font-stretch:normal;font-size:27.71281242px;font-family:'Ubuntu Condensed';-inkscape-font-specification:'Ubuntu Condensed, ';stroke-width:0.86602539"
       id="path821" /><path
       d="m 119.05492,182.09627 q 0,1.71819 -0.30484,3.13155 -0.30484,1.38564 -0.94224,2.3833 -0.60968,0.99766 -1.57963,1.55192 -0.94223,0.55425 -2.24473,0.55425 -1.30251,0 -2.27246,-0.55425 -0.96994,-0.55426 -1.60734,-1.55192 -0.60968,-0.99766 -0.91452,-2.3833 -0.30484,-1.41336 -0.30484,-3.13155 0,-1.69048 0.30484,-3.10384 0.30484,-1.41335 0.91452,-2.41101 0.6374,-1.02538 1.60734,-1.57963 0.96995,-0.55426 2.27246,-0.55426 1.3025,0 2.24473,0.55426 0.96995,0.55425 1.57963,1.57963 0.6374,0.99766 0.94224,2.41101 0.30484,1.41336 0.30484,3.10384 z m -2.49415,0 q 0,-1.21937 -0.13857,-2.21703 -0.13856,-1.02537 -0.4434,-1.7459 -0.30484,-0.74825 -0.80367,-1.13623 -0.49883,-0.41569 -1.19165,-0.41569 -0.72054,0 -1.21937,0.41569 -0.47112,0.38798 -0.80367,1.13623 -0.30484,0.72053 -0.4434,1.7459 -0.13857,0.99766 -0.13857,2.21703 0,1.21936 0.13857,2.24474 0.13856,0.99766 0.4434,1.71819 0.33255,0.72053 0.80367,1.13623 0.49883,0.38798 1.21937,0.38798 0.69282,0 1.19165,-0.38798 0.49883,-0.4157 0.80367,-1.13623 0.30484,-0.72053 0.4434,-1.71819 0.13857,-1.02538 0.13857,-2.24474 z"
       style="font-style:normal;font-variant:normal;font-weight:normal;font-stretch:normal;font-size:27.71281242px;font-family:'Ubuntu Condensed';-inkscape-font-specification:'Ubuntu Condensed, ';stroke-width:0.86602539"
       id="path823" /><path
       d="m 122.5437,175.22349 q 1.02538,-0.30484 2.21703,-0.49883 1.19165,-0.2217 2.18931,-0.2217 1.0808,0 1.96761,0.30484 0.88681,0.27713 1.49649,0.96995 0.6374,0.69282 0.96995,1.88447 0.36027,1.16394 0.36027,2.90984 v 8.78497 h -2.38331 v -8.59098 q 0,-2.1616 -0.55425,-3.15926 -0.55426,-0.99766 -2.07846,-0.99766 -0.80367,0 -1.80134,0.27713 v 12.47077 h -2.3833 z"
       style="font-style:normal;font-variant:normal;font-weight:normal;font-stretch:normal;font-size:27.71281242px;font-family:'Ubuntu Condensed';-inkscape-font-specification:'Ubuntu Condensed, ';stroke-width:0.86602539"
       id="path825" /><path
       d="m 140.15303,167.85188 q 0.63739,0 1.16394,0.11085 0.52654,0.11086 0.91452,0.27713 l -0.4434,1.88447 q -0.72054,-0.24941 -1.41336,-0.24941 -0.99766,0 -1.55192,0.66511 -0.52654,0.63739 -0.52654,2.24473 v 2.02304 h 3.74123 v 2.05075 h -3.74123 v 12.49848 h -2.3833 v -16.57227 q 0,-2.35559 1.05309,-3.63038 1.05308,-1.3025 3.18697,-1.3025 z m 6.34623,21.50515 h -2.3833 V 174.8078 h 2.3833 z m -1.19165,-17.12652 q -0.63739,0 -1.10851,-0.4157 -0.44341,-0.4434 -0.44341,-1.16393 0,-0.72054 0.44341,-1.13623 0.47112,-0.4434 1.10851,-0.4434 0.6374,0 1.0808,0.4434 0.47112,0.41569 0.47112,1.13623 0,0.72053 -0.47112,1.16393 -0.4434,0.4157 -1.0808,0.4157 z"
       style="font-style:normal;font-variant:normal;font-weight:normal;font-stretch:normal;font-size:27.71281242px;font-family:'Ubuntu Condensed';-inkscape-font-specification:'Ubuntu Condensed, ';stroke-width:0.86602539"
       id="path827" /><path
       d="m 159.44418,188.94133 q 0,1.55192 -0.41569,2.60501 -0.38798,1.0808 -1.0808,1.7459 -0.69282,0.66511 -1.63506,0.96995 -0.91452,0.30484 -1.96761,0.30484 -0.88681,0 -1.77362,-0.19399 -0.88681,-0.19399 -1.63506,-0.58196 l 0.49883,-1.99533 q 0.49884,0.27713 1.21937,0.49883 0.72053,0.22171 1.49649,0.22171 1.35793,0 2.13389,-0.77596 0.77596,-0.77596 0.77596,-2.66043 v -0.69282 q -0.44341,0.19399 -0.94224,0.33255 -0.49883,0.11085 -1.13623,0.11085 -2.605,0 -3.82436,-1.77362 -1.19165,-1.80133 -1.19165,-5.07144 0,-1.74591 0.30484,-3.13155 0.33255,-1.41335 0.99766,-2.3833 0.69282,-0.99766 1.77362,-1.49649 1.0808,-0.52655 2.63272,-0.52655 1.02537,0 1.99532,0.2217 0.99766,0.19399 1.77362,0.52655 z m -2.3833,-12.19363 q -0.38798,-0.11086 -0.74825,-0.13857 -0.36027,-0.0554 -0.66511,-0.0554 -1.66277,0 -2.43873,1.27479 -0.74824,1.27478 -0.74824,4.15692 0,2.605 0.74824,3.6858 0.74825,1.05309 2.13389,1.05309 0.47112,0 0.88681,-0.11085 0.44341,-0.11085 0.83139,-0.30484 z"
       style="font-style:normal;font-variant:normal;font-weight:normal;font-stretch:normal;font-size:27.71281242px;font-family:'Ubuntu Condensed';-inkscape-font-specification:'Ubuntu Condensed, ';stroke-width:0.86602539"
       id="path829" /></g></svg>