<?xml version="1.0" encoding="UTF-8" standalone="no"?>
<!-- Created with Inkscape (http://www.inkscape.org/) -->

<svg
   xmlns:dc="http://purl.org/dc/elements/1.1/"
   xmlns:cc="http://creativecommons.org/ns#"
   xmlns:rdf="http://www.w3.org/1999/02/22-rdf-syntax-ns#"
   xmlns:svg="http://www.w3.org/2000/svg"
   xmlns="http://www.w3.org/2000/svg"
   xmlns:sodipodi="http://sodipodi.sourceforge.net/DTD/sodipodi-0.dtd"
   xmlns:inkscape="http://www.inkscape.org/namespaces/inkscape"
   version="1.2"
   width="598.68585"
   height="163.67422"
   viewBox="0 0 598.68585 163.67422"
   id="Layer_3"
   xml:space="preserve"
   inkscape:version="0.91 r13725"
   sodipodi:docname="controller2.svg"><sodipodi:namedview
     pagecolor="#ffffff"
     bordercolor="#666666"
     borderopacity="1"
     objecttolerance="10"
     gridtolerance="10"
     guidetolerance="10"
     inkscape:pageopacity="0"
     inkscape:pageshadow="2"
     inkscape:window-width="690"
     inkscape:window-height="480"
     id="namedview15"
     showgrid="false"
     fit-margin-top="0"
     fit-margin-left="0"
     fit-margin-right="0"
     fit-margin-bottom="0"
     inkscape:zoom="0.48106476"
     inkscape:cx="299.34359"
     inkscape:cy="81.834978"
     inkscape:window-x="0"
     inkscape:window-y="0"
     inkscape:window-maximized="0"
     inkscape:current-layer="Layer_3" /><metadata
     id="metadata27"><rdf:RDF><cc:Work
         rdf:about=""><dc:format>image/svg+xml</dc:format><dc:type
           rdf:resource="http://purl.org/dc/dcmitype/StillImage" /><dc:title></dc:title></cc:Work></rdf:RDF></metadata><defs
     id="defs25" /><path
     d="m 37.570096,44.096499 c -7.507737,0.221044 -15.104994,2.292433 -21.6875,7.375 C 7.0874939,58.263 4.062882,67.882246 4.0075957,76.627749 c -0.055286,8.745503 2.7098086,16.631795 5.875,20.5 1.6904543,2.113068 2.3992773,3.471851 2.4687503,4.218751 0.03474,0.37345 -0.0093,0.61192 -0.21875,0.9375 -0.2094,0.32558 -0.621235,0.73908 -1.21875,1.1875 -0.787856,0.59066 -1.826576,1.66512 -3.0625003,3.09375 -1.2359243,1.42863 -2.6215262,3.17172 -3.875,5.03125 -1.2534738,1.85953 -2.3860545,3.83468 -3.125,5.6875 -0.73894546,1.85282 -1.12704997,3.61058 -0.625,5.1875 0.8219427,2.58395 3.285968,7.55159 7.84375,12.46875 4.5577823,4.91716 11.2054703,9.72631 20.2812503,11.71875 17.985029,3.94731 34.666594,-0.81196 43.40625,-8.65625 l 0.03125,0 0,-0.0312 c 1.238087,-1.29223 2.181724,-2.24947 2.875,-2.84375 0.693276,-0.59428 1.113108,-0.79261 1.3125,-0.8125 0.199392,-0.0199 0.406081,0.0594 0.90625,0.46875 0.500169,0.40935 1.173559,1.11937 2.09375,2.09375 2.041248,2.16145 6.352729,4.87887 11.59375,7.15625 5.241021,2.27738 11.377934,4.04955 17.000004,3.9375 10.59874,-0.21319 21.71533,-3.14816 28.71875,-11.84375 6.0372,6.12192 14.17109,12.71875 24.75,12.71875 10.64103,0 11.4192,-1.09375 15.34375,-1.09375 3.78315,0 7.66892,1.97223 16.46875,1.3125 8.75646,-0.65648 12.77871,-2.59375 16.09375,-2.59375 1.71587,0 2.61255,0.27726 3.5625,0.59375 0.94995,0.31649 2.00623,0.6875 3.5625,0.6875 2.90744,0 10.96599,-0.39988 14.4375,-1.09375 3.30429,-0.66045 2.41832,-1.06329 7.8125,0.59375 l 0.0937,0.0312 c 3.11844,0.95944 8.69753,1.12822 14.0625,0.9375 2.68248,-0.0954 5.30879,-0.2913 7.46875,-0.5625 2.15996,-0.2712 3.79824,-0.56039 4.875,-1.0625 3.10352,-1.44914 6.00685,-2.04882 11.25,-1 2.6744,0.53498 5.70878,1.23818 8.5,1.625 2.79122,0.38682 5.33953,0.51837 7.25,-0.4375 1.31448,-0.65702 1.92436,-0.53508 3.21875,-0.25 1.29439,0.28508 3.11128,0.8125 6.03125,0.8125 2.805,0 7.09102,-0.0205 11,-0.15625 1.95449,-0.0679 3.81554,-0.15721 5.375,-0.3125 1.55946,-0.15529 2.76773,-0.3172 3.65625,-0.6875 0.91647,-0.3818 2.46303,-0.25921 4,0.125 1.53697,0.38421 2.98394,0.96518 4,1.21875 0.61312,0.15381 1.65501,0.28077 3.15625,0.4375 1.50124,0.15673 3.3773,0.30192 5.34375,0.4375 3.9329,0.27117 8.16298,0.45046 10.59375,0.21875 2.47842,-0.23625 4.51539,-1.20896 6.625,-2 2.10961,-0.79104 4.30502,-1.45336 7.25,-1.25 3.02572,0.20894 6.96495,0.97316 10.625,1.4375 3.66005,0.46434 7.00078,0.75518 9.3125,-0.46875 2.68241,-1.42057 6.72289,-5.42073 8.875,-16.5625 l -1.96875,-0.375 c -2.08189,10.77823 -5.79416,14.10207 -7.84375,15.1875 -1.35628,0.71807 -4.55705,0.70266 -8.125,0.25 -3.56795,-0.45266 -7.51972,-1.21444 -10.75,-1.4375 -3.31102,-0.22864 -5.85711,0.51679 -8.0625,1.34375 -2.20539,0.82696 -4.07142,1.67925 -6.125,1.875 -2.10123,0.20029 -6.3619,0.0493 -10.25,-0.21875 -1.94405,-0.13404 -3.80924,-0.28382 -5.28125,-0.4375 -1.47201,-0.15368 -2.65637,-0.34356 -2.90625,-0.40625 -0.71094,-0.17743 -2.26947,-0.76271 -3.96875,-1.1875 -1.69928,-0.42479 -3.60772,-0.72845 -5.28125,-0.0312 -0.40598,0.1692 -1.60568,0.38307 -3.09375,0.53125 -1.48807,0.14818 -3.32087,0.2455 -5.25,0.3125 -3.85827,0.13399 -8.10125,0.15625 -10.90625,0.15625 -2.68903,0 -4.19114,-0.47233 -5.59375,-0.78125 -1.40261,-0.30892 -2.85598,-0.41548 -4.5625,0.4375 -1.10953,0.55513 -3.40572,0.58693 -6.0625,0.21875 -2.64724,-0.36686 -5.66311,-1.0506 -8.375,-1.59375 l -0.0312,0 c -5.54485,-1.10918 -9.10027,-0.41661 -12.46875,1.15625 -0.54124,0.25239 -2.20034,0.64498 -4.28125,0.90625 -2.08091,0.26127 -4.65073,0.43774 -7.28125,0.53125 -5.26103,0.18703 -10.91469,-0.0772 -13.40625,-0.84375 -5.64103,-1.73555 -5.76991,-1.28313 -8.90625,-0.65625 -3.00249,0.60013 -11.32869,1.03125 -14.03125,1.03125 -1.24873,0 -1.94545,-0.26324 -2.9375,-0.59375 -0.99205,-0.33051 -2.23637,-0.6875 -4.1875,-0.6875 -4.02096,0 -7.74646,1.95623 -16.25,2.59375 l -0.0312,0 c -8.43395,0.6261 -11.87267,-1.3125 -16.28125,-1.3125 -4.27545,0 -4.83878,1.09375 -15.34375,1.09375 -10.13768,0 -18.1104,-6.64748 -24.09375,-12.84375 l -0.8125,-0.875 -0.6875,0.96875 c -6.43375,8.7175 -17.32208,11.66147 -27.9375,11.875 -5.16593,0.10295 -11.094775,-1.55063 -16.156254,-3.75 -5.061479,-2.19937 -9.279498,-4.9962 -10.90625,-6.71875 l -0.09375,-0.0937 c -0.859449,-0.9116 -1.560251,-1.64857 -2.21875,-2.1875 -0.686519,-0.56187 -1.464392,-0.96273 -2.34375,-0.875 -0.879358,0.0877 -1.620589,0.58099 -2.4375,1.28125 -0.799804,0.68559 -1.733064,1.64957 -2.9375,2.90625 -0.02576,0.0269 -0.03647,0.0353 -0.0625,0.0625 -8.108662,7.22826 -24.208023,11.93392 -41.5625,8.125 -8.61622,-1.89156 -14.907782,-6.47166 -19.2500003,-11.15625 -4.342268,-4.68469 -6.7182427,-9.52455 -7.4063,-11.6876 -0.25345,-0.79608 -0.062867,-2.22861 0.59375,-3.875 0.656617,-1.64639 1.7054738,-3.4999 2.90625,-5.28125 1.2007762,-1.78135 2.5341118,-3.47441 3.71875,-4.84375 1.1846383,-1.36934 2.2746063,-2.43266 2.7812503,-2.8125 0.696985,-0.52308 1.276618,-1.04865 1.6875,-1.6875 0.410882,-0.63885 0.604388,-1.4012 0.53125,-2.1875 -0.146277,-1.572601 -1.144704,-3.110569 -2.90625,-5.312501 l 0,-0.03125 C 8.7842871,92.594704 5.955132,84.957996 6.0075957,76.658999 6.0600594,68.360002 8.8514475,59.435748 17.101346,53.065249 c 8.268325,-6.384244 18.262558,-7.763001 27.65625,-6.625 9.393692,1.138001 18.159195,4.800961 23.625,8.375 5.544012,3.624684 8.563241,6.563982 10,9.4375 1.436759,2.873518 1.405854,5.808646 0.5625,9.8125 l -0.15625,0.78125 0.71875,0.34375 c 0,0 0.146645,0.03868 0.25,0.0625 0.103355,0.02382 0.229113,0.05571 0.375,0.0625 0.291774,0.01357 0.657243,-0.0061 1.15625,-0.125 0.998015,-0.23772 2.479269,-0.834133 4.75,-2.21875 4.254313,-2.593178 11.713257,-5.359043 19.937504,-5.78125 4.04819,-0.20734 8.91991,0.519521 13.3125,1.75 4.39259,1.230479 8.33863,2.969226 10.40625,4.59375 1.19713,0.941057 2.19797,1.517354 3.15625,1.75 0.95828,0.232646 1.88712,0.06924 2.59375,-0.34375 1.41326,-0.825978 2.10039,-2.238577 3.125,-3.3125 0.98499,-1.031505 2.07145,-1.554107 3.71875,-1.90625 1.6473,-0.352143 3.83042,-0.502262 6.75,-0.71875 2.84914,-0.210776 6.63291,-0.217789 10.03125,-0.03125 3.39834,0.186539 6.51835,0.629436 7.6875,1.0625 1.68344,0.623346 3.33335,0.52506 4.875,0.03125 1.54165,-0.49381 2.97862,-1.347816 4.40625,-2.28125 0.12411,-0.08115 0.70848,-0.325763 1.5,-0.5 0.79152,-0.174237 1.82155,-0.335713 3,-0.46875 2.3569,-0.266074 5.30737,-0.435384 8.3125,-0.46875 3.00513,-0.03337 6.08443,0.06308 8.625,0.3125 2.54057,0.249421 4.60626,0.733486 5.375,1.15625 2.15924,1.187958 3.48651,1.93279 5,2.1875 1.51349,0.25471 2.9919,-0.03097 5.34375,-0.6875 2.07634,-0.579745 5.52187,-0.636631 8.625,-0.4375 3.10313,0.199131 6.00361,0.653996 6.84375,0.875 1.83683,0.483187 4.82674,2.069632 8.09375,0.5625 1.1375,-0.525345 3.1253,-0.765923 5.1875,-0.625 2.0622,0.140923 4.20993,0.663687 5.84375,1.40625 3.7032,1.683554 6.76192,1.76895 10.40625,-0.28125 1.32983,-0.748126 5.65209,-1.684132 10.4375,-1.75 4.78541,-0.06587 10.15197,0.667866 14.0625,2.75 2.0973,1.116693 3.64624,1.857579 4.9375,2.28125 1.29126,0.423671 2.39095,0.535998 3.375,0.28125 1.96811,-0.509496 3.04164,-2.054696 5.5,-3.9375 2.11861,-1.623016 6.813,-2.27161 11.21875,-2.21875 4.40575,0.05286 8.62383,0.695127 9.71875,0.96875 2.4,0.600463 6.24516,2.593394 9.65625,1.28125 1.12093,-0.431037 3.40509,-0.635091 5.5625,-0.53125 2.15741,0.103841 4.2943,0.521973 5.0625,0.90625 1.05473,0.527611 2.27052,1.217433 3.84375,1.40625 1.57323,0.188817 3.43225,-0.148279 5.71875,-1.40625 1.30382,-0.71765 3.65946,-1.291956 6.53125,-1.5 l -0.15625,-2 c -3.03621,0.219956 -5.57357,0.7444 -7.34375,1.71875 -2.0285,1.116029 -3.37573,1.322433 -4.5,1.1875 -1.12427,-0.134933 -2.08523,-0.636111 -3.1875,-1.1875 -1.3888,-0.694723 -3.55516,-1.013341 -5.875,-1.125 -2.31984,-0.111659 -4.68993,0.0083 -6.375,0.65625 -2.19891,0.845856 -5.6575,-0.648213 -8.4375,-1.34375 -1.49408,-0.373377 -5.64375,-0.97636 -10.21875,-1.03125 -4.575,-0.05489 -9.48611,0.364016 -12.4375,2.625 -2.61164,2.000196 -3.72861,3.321246 -4.78125,3.59375 -0.52632,0.136252 -1.16779,0.105079 -2.25,-0.25 -1.08221,-0.355079 -2.5688,-1.061443 -4.625,-2.15625 -4.39647,-2.340866 -10.02691,-3.037632 -15.03125,-2.96875 -5.00434,0.06888 -9.25283,0.837376 -11.375,2.03125 l -0.0312,0 c -3.24246,1.817282 -5.1576,1.704194 -8.5625,0.15625 -1.92618,-0.875437 -4.2822,-1.406673 -6.5625,-1.5625 -2.26859,-0.155027 -4.46172,0.05271 -6.125,0.8125 -0.009,0.0039 -0.0227,-0.004 -0.0312,0 -2.33167,1.057356 -4.49833,-0.09519 -6.75,-0.6875 -1.20886,-0.317996 -4.01063,-0.731631 -7.21875,-0.9375 -3.20812,-0.205869 -6.71959,-0.215255 -9.28125,0.5 -2.28715,0.638469 -3.41974,0.83279 -4.46875,0.65625 -1.04901,-0.17654 -2.21924,-0.782708 -4.375,-1.96875 -1.38876,-0.763736 -3.51189,-1.11539 -6.15625,-1.375 -2.64436,-0.25961 -5.74938,-0.377759 -8.8125,-0.34375 -3.06312,0.03401 -6.08071,0.223355 -8.53125,0.5 -1.22527,0.138322 -2.32378,0.302991 -3.21875,0.5 -0.89497,0.197009 -1.57911,0.372648 -2.15625,0.75 -1.37737,0.900566 -2.67015,1.66656 -3.90625,2.0625 -1.2361,0.39594 -2.36319,0.455654 -3.59375,0 -1.74385,-0.645936 -4.80234,-0.965289 -8.28125,-1.15625 -3.47891,-0.190961 -7.30439,-0.220224 -10.28125,0 -2.90642,0.215512 -5.14555,0.346893 -7.03125,0.75 -1.8857,0.403107 -3.43774,1.158505 -4.71875,2.5 -1.24039,1.300077 -2.05526,2.580978 -2.71875,2.96875 -0.33174,0.193886 -0.56544,0.25326 -1.09375,0.125 -0.52831,-0.12826 -1.33838,-0.535557 -2.40625,-1.375 -2.46348,-1.935476 -6.50119,-3.690979 -11.0626,-4.96875 -4.56141,-1.277771 -9.60194,-2.03616 -13.96875,-1.8125 -8.605761,0.441793 -16.283317,3.263678 -20.875004,6.0625 -2.054185,1.252575 -3.24512,1.686333 -3.96875,1.875 0.606908,-3.585684 0.622404,-6.786443 -0.875,-9.78125 -1.691741,-3.383482 -5.012512,-6.477184 -10.6875,-10.1875 -5.753195,-3.761961 -14.713942,-7.537001 -24.46875,-8.71875 -2.438702,-0.295437 -4.934921,-0.417431 -7.4375,-0.34375 z"
     id="path3"
     style="color:#000000;font-style:normal;font-variant:normal;font-weight:normal;font-stretch:normal;font-size:medium;line-height:normal;font-family:Sans;-inkscape-font-specification:Sans;text-indent:0;text-align:start;text-decoration:none;text-decoration-line:none;letter-spacing:normal;word-spacing:normal;text-transform:none;direction:ltr;block-progression:tb;writing-mode:lr-tb;baseline-shift:baseline;text-anchor:start;display:inline;overflow:visible;visibility:visible;fill:#f4f4f4;fill-opacity:1;stroke:none;stroke-width:2;marker:none;enable-background:accumulate"
     inkscape:connector-curvature="0" /><path
     d="m 364.28885,67.533999 -0.28125,1.96875 c 2.56991,0.373299 5.56815,1.264829 8.1875,2.0625 9.25853,2.817489 17.42745,16.22503 18.0625,32.531251 0.14229,3.67757 0.19152,7.01049 0.125,10.0625 l 2,0.0625 c 0.0675,-3.09599 0.0187,-6.50432 -0.125,-10.21875 -0.65895,-16.919781 -8.87928,-31.12124 -19.46875,-34.343751 -2.63465,-0.802329 -5.71391,-1.720299 -8.5,-2.125 z"
     id="path5"
     style="color:#000000;font-style:normal;font-variant:normal;font-weight:normal;font-stretch:normal;font-size:medium;line-height:normal;font-family:Sans;-inkscape-font-specification:Sans;text-indent:0;text-align:start;text-decoration:none;text-decoration-line:none;letter-spacing:normal;word-spacing:normal;text-transform:none;direction:ltr;block-progression:tb;writing-mode:lr-tb;baseline-shift:baseline;text-anchor:start;display:inline;overflow:visible;visibility:visible;fill:#f4f4f4;fill-opacity:1;stroke:none;stroke-width:2;marker:none;enable-background:accumulate"
     inkscape:connector-curvature="0" /><path
     d="m 41.507596,53.377749 c -6.476712,-0.455103 -12.665702,0.732274 -17.59375,4.1875 -12.952863,9.080977 -14.0364753,25.568981 -3.59375,36.3125 5.165937,5.313183 12.117497,9.517561 17.5,13.093751 2.691251,1.7881 4.973714,3.41958 6.40625,4.875 0.716268,0.72771 1.221212,1.39433 1.46875,1.96875 0.247538,0.57442 0.279347,1.02516 0.125,1.5 -0.365361,1.12402 -1.239241,1.97816 -2.65625,2.53125 -1.417009,0.55309 -3.373022,0.75423 -5.65625,0.40625 -4.566456,-0.69597 -10.437028,-3.53933 -16.0625,-9.375 l -0.71875,-0.71875 -0.71875,0.71875 c -7.637667,7.92518 -10.5312503,11.4375 -10.5312503,11.4375 l -0.53125,0.625 0.53125,0.65625 c 8.9195753,10.82162 22.0052453,18.94487 40.6250003,15.71875 9.418698,-1.63183 16.689642,-7.1043 20.34375,-14.375 3.654108,-7.2707 3.676025,-16.33439 -1.21875,-24.937501 -4.916696,-8.641638 -12.976257,-12.362662 -19.34375,-15.3125 -3.183746,-1.474919 -5.958873,-2.788004 -7.71875,-4.28125 -1.742452,-1.478462 -2.545018,-2.981422 -2.1875,-5.4375 0.173605,-0.868716 0.697418,-1.388536 1.90625,-1.6875 1.208832,-0.298964 3.062142,-0.236567 5.25,0.3125 4.375717,1.098134 10.16457,4.080948 15.8125,9.09375 l 0.875,0.78125 0.625,-1 7.78125,-12.34375 0.4375,-0.71875 -0.625,-0.5625 c -6.541151,-5.95305 -15.257885,-10.516406 -24,-12.5 C 45.853317,53.8506 43.6665,53.52945 41.507596,53.377749 Z m -0.125,1.96875 c 2.041557,0.142748 4.125154,0.462461 6.21875,0.9375 8.106718,1.839422 16.242548,6.095215 22.4375,11.53125 l -6.6875,10.65625 c -5.568643,-4.731713 -11.202322,-7.67121 -15.75,-8.8125 -2.397017,-0.601558 -4.488239,-0.732755 -6.1875,-0.3125 -1.699261,0.420255 -3.076855,1.570466 -3.40625,3.21875 l 0,0.03125 c -0.478371,3.109689 0.778158,5.56459 2.875,7.34375 2.096842,1.77916 4.975121,3.088794 8.15625,4.5625 6.362257,2.947412 13.861196,6.456638 18.4375,14.5 l 0,0.03125 c 4.58308,8.073511 4.541984,16.325481 1.1875,23.000001 -3.358142,6.6818 -10.056948,11.77933 -18.90625,13.3125 -17.524849,3.03641 -29.561914,-4.25656 -38.15625,-14.375 0.285627,-0.33959 3.008968,-3.50922 9.1875,-9.96875 5.647422,5.57712 11.556905,8.4749 16.4375,9.21875 2.553272,0.38914 4.814509,0.21888 6.65625,-0.5 1.841741,-0.71888 3.274111,-2.02877 3.84375,-3.78125 0.313153,-0.96341 0.206075,-1.99294 -0.1875,-2.90625 -0.393575,-0.91331 -1.05169,-1.75729 -1.875,-2.59375 -1.64662,-1.67292 -4.029126,-3.31722 -6.75,-5.125 -5.441747,-3.61556 -12.284437,-7.769684 -17.1875,-12.812501 -9.693275,-9.972481 -8.764637,-24.845477 3.3125,-33.3125 4.457452,-3.125274 10.21908,-4.271994 16.34375,-3.84375 z"
     id="path7"
     style="color:#000000;font-style:normal;font-variant:normal;font-weight:normal;font-stretch:normal;font-size:medium;line-height:normal;font-family:Sans;-inkscape-font-specification:Sans;text-indent:0;text-align:start;text-decoration:none;text-decoration-line:none;letter-spacing:normal;word-spacing:normal;text-transform:none;direction:ltr;block-progression:tb;writing-mode:lr-tb;baseline-shift:baseline;text-anchor:start;display:inline;overflow:visible;visibility:visible;fill:#f4f4f4;fill-opacity:1;stroke:none;stroke-width:2;marker:none;enable-background:accumulate"
     inkscape:connector-curvature="0" /><path
     d="m 105.41385,74.127749 c -6.668436,0.315928 -12.508506,2.329004 -15.593754,4.25 -4.097262,2.550912 -8.182638,7.890364 -10.65625,14.8125 -2.473612,6.922141 -3.293176,15.456021 -0.5625,24.312501 2.743263,8.89679 8.574294,14.49847 14.9375,17.53125 6.363206,3.03278 13.236714,3.57411 18.312504,2.4375 10.84475,-2.42749 16.78452,-7.87119 19.9375,-12.71875 3.15298,-4.84756 3.5625,-9.1875 3.5625,-9.1875 l 0.0937,-0.78125 -0.75,-0.25 -14.96875,-5.1875 -0.8125,-0.28125 -0.40625,0.78125 c 0,0 -1.35561,2.72109 -3.6875,4.96875 -1.16595,1.12383 -2.55176,2.09766 -4.09375,2.59375 -1.54199,0.49609 -3.23812,0.56251 -5.1875,-0.25 -3.97643,-1.65675 -5.92459,-4.98962 -6.531204,-8.78125 -0.606614,-3.79163 0.264969,-8.00062 2.000004,-10.937501 1.65707,-2.804167 4.68285,-4.004597 7.9375,-3.5 3.25465,0.504597 6.67165,2.754532 8.84375,7.031251 l 0.40625,0.78125 0.8125,-0.28125 c 0,0 9.17751,-2.999179 16,-4.562501 l 1.0625,-0.25 -0.3125,-1.03125 c -4.48663,-14.122095 -14.11999,-19.833429 -23.46875,-21.1875 -2.33719,-0.338518 -4.65219,-0.417809 -6.875,-0.3125 z m 0.0937,2.03125 c 2.11706,-0.112159 4.30632,-0.03648 6.5,0.28125 8.5467,1.237901 17.0682,6.093917 21.46875,18.8125 -6.34505,1.532526 -13.35194,3.760255 -14.375,4.09375 -2.45306,-4.294306 -6.16036,-6.799087 -9.875,-7.375 -3.9371,-0.610403 -7.88582,0.912667 -9.968754,4.4375 -2.003969,3.392116 -2.906636,7.981631 -2.21875,12.281251 0.687886,4.29962 3.095484,8.37325 7.750004,10.3125 2.36562,0.98599 4.62543,0.93569 6.5625,0.3125 1.93707,-0.62319 3.5597,-1.79471 4.875,-3.0625 2.06026,-1.98584 3.14092,-3.83421 3.625,-4.71875 l 13.375,4.625 c -0.13748,0.9441 -0.64758,3.73912 -3.09375,7.5 -2.90427,4.46519 -8.3385,9.52024 -18.71875,11.84375 -4.56121,1.02139 -11.06496,0.54747 -17.000004,-2.28125 -5.934994,-2.82872 -11.327463,-7.94929 -13.9062,-16.3125 -2.591324,-8.40452 -1.813888,-16.46864 0.53125,-23.031251 2.345138,-6.562614 6.318012,-11.586162 9.84375,-13.78125 2.632752,-1.639254 8.27383,-3.601022 14.625004,-3.9375 z"
     id="path9"
     style="color:#000000;font-style:normal;font-variant:normal;font-weight:normal;font-stretch:normal;font-size:medium;line-height:normal;font-family:Sans;-inkscape-font-specification:Sans;text-indent:0;text-align:start;text-decoration:none;text-decoration-line:none;letter-spacing:normal;word-spacing:normal;text-transform:none;direction:ltr;block-progression:tb;writing-mode:lr-tb;baseline-shift:baseline;text-anchor:start;display:inline;overflow:visible;visibility:visible;fill:#f4f4f4;fill-opacity:1;stroke:none;stroke-width:2;marker:none;enable-background:accumulate"
     inkscape:connector-curvature="0" /><path
     d="m 199.6326,74.033999 -1,0.03125 -20.71875,0.71875 -1.03125,0.03125 0.0625,1.03125 c 0,0 1.15625,20.904746 1.15625,28.718751 0,3.9252 -0.20301,7.78695 -1.40625,10.4375 -1.20324,2.65055 -3.15736,4.20725 -7.46875,3.9375 -2.08258,-0.13008 -3.40537,-0.84262 -4.40625,-1.96875 -1.00088,-1.12613 -1.66642,-2.72995 -2.03125,-4.5625 -0.72967,-3.6651 -0.31093,-8.1863 -0.0937,-11.375 0.4237,-6.208439 2.71875,-22.968751 2.71875,-22.968751 l 0.15625,-1.125 -1.125,0 -21.28125,-0.15625 -0.875,0 -0.125,0.84375 c -1.94544,12.611049 -3.16098,23.604671 -2.90625,32.687501 0.25473,9.08283 1.94601,16.3036 5.96875,21.3125 4.07046,5.06832 10.75648,7.02768 17,7.25 6.24352,0.22232 12.06184,-1.15984 15.03125,-3.46875 1.19101,-0.92609 1.89762,-1.0316 2.0625,-1 0.16488,0.0316 0.26081,0.13553 0.40625,0.625 0.29087,0.97893 0.125,2.75 0.125,2.75 l -0.1875,1.15625 1.1875,-0.0312 20.4375,-0.5625 1,-0.0312 -0.0312,-1 -2.59375,-62.281251 -0.0312,-1 z m -1.9375,2.0625 2.53125,60.281251 -18.3125,0.5 c 0.0168,-0.68264 -0.0345,-1.57573 -0.28125,-2.40625 -0.24994,-0.84116 -0.83479,-1.81994 -1.9375,-2.03125 -1.10271,-0.21131 -2.25776,0.28759 -3.65625,1.375 -2.20959,1.71809 -7.87527,3.27168 -13.75,3.0625 -5.87473,-0.20918 -11.94646,-2.07532 -15.5,-6.5 -3.60126,-4.4841 -5.28273,-11.26383 -5.53125,-20.125 -0.24256,-8.64877 0.92613,-19.288308 2.78125,-31.468751 l 19.28125,0.15625 c -0.20383,1.481502 -2.20616,15.800347 -2.625,21.937501 -0.21382,3.1393 -0.66033,7.83585 0.15625,11.9375 0.40829,2.05082 1.13673,3.97004 2.46875,5.46875 1.33202,1.49871 3.26083,2.49883 5.78125,2.65625 4.89461,0.30625 7.94849,-1.88255 9.40625,-5.09375 1.45776,-3.2112 1.59375,-7.29545 1.59375,-11.28125 0,-7.721799 -1.0484,-26.419263 -1.125,-27.812501 l 18.71875,-0.65625 z"
     id="path11"
     style="color:#000000;font-style:normal;font-variant:normal;font-weight:normal;font-stretch:normal;font-size:medium;line-height:normal;font-family:Sans;-inkscape-font-specification:Sans;text-indent:0;text-align:start;text-decoration:none;text-decoration-line:none;letter-spacing:normal;word-spacing:normal;text-transform:none;direction:ltr;block-progression:tb;writing-mode:lr-tb;baseline-shift:baseline;text-anchor:start;display:inline;overflow:visible;visibility:visible;fill:#f4f4f4;fill-opacity:1;stroke:none;stroke-width:2;marker:none;enable-background:accumulate"
     inkscape:connector-curvature="0" /><path
     d="m 271.53885,76.690249 c -6.09476,-0.391576 -12.62009,1.478311 -18.34375,5.3125 l -0.1875,0.125 -0.0937,0.15625 c -0.23782,0.37399 -0.43957,0.632751 -0.53125,0.71875 0.0479,-0.01231 -0.51788,-0.298662 -1.53125,-1.3125 -1.18893,-1.188932 -3.72905,-3.228741 -7.1875,-4.15625 -3.45845,-0.927509 -7.85141,-0.63144 -12.25,2.78125 l -0.0312,0.03125 -0.0625,0.0625 c -0.77834,0.778336 -1.65116,1.656581 -2.21875,2.0625 -0.19408,-2.605206 -1.1875,-4.8125 -1.1875,-4.8125 l -0.28125,-0.5625 -0.625,0 -18,0 -1,0 0,1 0.4375,57.375001 0,1 1,0 20,-0.125 0.96875,-0.0312 0.0312,-0.9375 c 0,0 1.01481,-31.85945 1.15625,-35.25 0.022,-0.527071 0.35808,-1.335231 0.96875,-2.031251 0.61067,-0.69602 1.46751,-1.255926 2.25,-1.46875 0.78249,-0.212824 1.43589,-0.162491 2.125,0.40625 0.68911,0.568741 1.43516,1.769534 1.875,3.968751 l 0,0.0312 c 0.88595,4.45719 1.03169,13.37905 0.90625,21.09375 -0.12565,7.72751 -0.5,14.3125 -0.5,14.3125 l -0.0625,1.0625 1.0625,-0.0312 20.71875,-0.125 1.0625,0 -0.0625,-1.09375 c 0,0 -1.45772,-20.07336 -0.28125,-29.28125 0.43272,-3.39351 0.74779,-6.16646 1.46875,-7.843751 0.36048,-0.838644 0.78404,-1.366847 1.34375,-1.71875 0.55971,-0.351903 1.31766,-0.564024 2.46875,-0.5 1.15371,0.06416 1.92972,0.364213 2.53125,0.84375 0.60153,0.479537 1.06325,1.200527 1.375,2.343751 0.6235,2.28645 0.53454,6.14612 -0.25,11.78125 -1.57162,11.28848 -4.15625,20.4375 -4.15625,20.4375 l -0.28125,1.09375 1.09375,0.1875 21.15625,3.4375 0.84375,0.15625 0.25,-0.84375 c 0,0 4.66688,-15.31139 2.5,-37.625001 l 0,-0.03125 c -1.10728,-11.371015 -7.01315,-18.258152 -14.5625,-20.84375 -1.88734,-0.6464 -3.87466,-1.025725 -5.90625,-1.15625 z m -0.125,2 c 1.86792,0.117264 3.66628,0.446025 5.375,1.03125 6.8349,2.340902 12.16903,8.376265 13.21875,19.15625 1.96953,20.225851 -1.58788,33.898661 -2.1875,36.031251 l -19.15625,-3.125 c 0.40177,-1.47101 2.45784,-9.22155 3.90625,-19.625 0.79746,-5.72787 0.9975,-9.73795 0.21875,-12.593751 -0.38938,-1.427902 -1.06825,-2.582381 -2.0625,-3.375 -0.99425,-0.792619 -2.25171,-1.201407 -3.6875,-1.28125 -1.43791,-0.07998 -2.64746,0.197903 -3.625,0.8125 -0.97754,0.614597 -1.65848,1.539644 -2.125,2.625 -0.93304,2.170711 -1.19572,5.008511 -1.625,8.375001 -1.18827,9.30031 0.0896,26.88673 0.21875,28.625 l -18.625,0.125 c 0.0464,-0.87556 0.35173,-6.11578 0.46875,-13.3125 0.12635,-7.77099 0.0426,-16.63092 -0.9375,-21.53125 -0.49516,-2.475785 -1.37267,-4.142992 -2.5625,-5.125001 -1.18983,-0.982009 -2.67024,-1.157176 -3.9375,-0.8125 -1.26726,0.344676 -2.38198,1.14002 -3.21875,2.09375 -0.83677,0.95373 -1.41874,2.08232 -1.46875,3.281251 -0.14254,3.4169 -1.07266,32.62887 -1.125,34.28125 l -18.03125,0.125 -0.4375,-55.375001 16.3125,0 c 0.25957,0.64732 0.74394,1.961571 0.84375,3.65625 0.0226,0.383678 0.0634,0.726621 0.21875,1.0625 0.15536,0.335879 0.47521,0.667169 0.875,0.8125 0.79958,0.290661 1.36859,-0.08955 1.84375,-0.40625 0.92062,-0.613592 1.77706,-1.583446 2.53125,-2.34375 0.0203,-0.01571 0.0423,-0.01569 0.0625,-0.03125 0.01,-0.0096 0.0217,-0.02171 0.0312,-0.03125 3.90579,-2.987211 7.4839,-3.135866 10.4375,-2.34375 2.9783,0.798741 5.31218,2.655932 6.28125,3.625 1.1105,1.111014 1.7705,1.827553 2.875,1.90625 0.55225,0.03935 1.0978,-0.212593 1.4375,-0.53125 0.26894,-0.252284 0.45094,-0.562962 0.65625,-0.875 5.36491,-3.565918 11.42946,-5.255955 17,-4.90625 z"
     id="path13"
     style="color:#000000;font-style:normal;font-variant:normal;font-weight:normal;font-stretch:normal;font-size:medium;line-height:normal;font-family:Sans;-inkscape-font-specification:Sans;text-indent:0;text-align:start;text-decoration:none;text-decoration-line:none;letter-spacing:normal;word-spacing:normal;text-transform:none;direction:ltr;block-progression:tb;writing-mode:lr-tb;baseline-shift:baseline;text-anchor:start;display:inline;overflow:visible;visibility:visible;fill:#f4f4f4;fill-opacity:1;stroke:none;stroke-width:2;marker:none;enable-background:accumulate"
     inkscape:connector-curvature="0" /><path
     d="m 361.16385,76.690249 c -6.09459,-0.391577 -12.62009,1.478315 -18.34375,5.3125 l -0.1875,0.125 -0.125,0.15625 c -0.23811,0.374078 -0.4082,0.632654 -0.5,0.71875 0.0482,-0.01229 -0.51783,-0.298609 -1.53125,-1.3125 -1.18893,-1.188932 -3.72905,-3.228741 -7.1875,-4.15625 -3.45845,-0.927509 -7.85141,-0.63144 -12.25,2.78125 l -0.0625,0.03125 -0.0312,0.0625 c -0.76797,0.767486 -1.64978,1.616248 -2.21875,2.03125 -0.2005,-2.589887 -1.2188,-4.78125 -1.2188,-4.78125 l -0.25,-0.5625 -0.65625,0 -17.96875,0 -1,0 0,1 0.4375,57.375001 0,1 1,0 20,-0.125 0.96875,-0.0312 0.0312,-0.9375 c 0,0 0.98356,-31.85945 1.125,-35.25 0.022,-0.527071 0.38933,-1.335231 1,-2.031251 0.61067,-0.69602 1.43626,-1.255926 2.21875,-1.46875 0.78249,-0.212824 1.46714,-0.162491 2.15625,0.40625 0.68911,0.568741 1.43516,1.769534 1.875,3.968751 0.88948,4.44979 1.00052,13.39747 0.875,21.125 -0.12552,7.72753 -0.46875,14.3125 -0.46875,14.3125 l -0.0625,1.0625 1.0625,-0.0312 20.71875,-0.125 1.0625,0 -0.0625,-1.09375 c 0,0 -1.48802,-20.07315 -0.3125,-29.28125 0.43272,-3.39351 0.7477,-6.16649 1.46875,-7.843751 0.36053,-0.838629 0.78389,-1.36682 1.34375,-1.71875 0.55986,-0.35193 1.31738,-0.564027 2.46875,-0.5 1.15343,0.06415 1.961,0.364204 2.5625,0.84375 0.6015,0.479546 1.06319,1.200515 1.375,2.343751 0.62361,2.28647 0.53454,6.14615 -0.25,11.78125 -1.57162,11.28842 -4.15625,20.4375 -4.15625,20.4375 l -0.3125,1.09375 1.125,0.1875 21.125,3.4375 0.875,0.15625 0.25,-0.84375 c 0,0 4.64532,-15.32499 2.46875,-37.656251 -1.10727,-11.371 -6.98214,-18.258144 -14.53125,-20.84375 -1.88728,-0.646401 -3.87472,-1.025724 -5.90625,-1.15625 z m -0.125,2 c 1.86786,0.117263 3.66634,0.446026 5.375,1.03125 6.83464,2.340894 12.16902,8.37625 13.21875,19.15625 1.97089,20.221051 -1.58657,33.893461 -2.1875,36.031251 l -19.15625,-3.125 c 0.40192,-1.47101 2.45784,-9.2215 3.90625,-19.625 0.79746,-5.7279 0.99764,-9.73797 0.21875,-12.593751 -0.38944,-1.42789 -1.06831,-2.582389 -2.0625,-3.375 -0.99419,-0.792611 -2.25193,-1.201404 -3.6875,-1.28125 -1.43813,-0.07997 -2.67858,0.19793 -3.65625,0.8125 -0.97767,0.61457 -1.6584,1.539629 -2.125,2.625 -0.9332,2.170741 -1.16447,5.008511 -1.59375,8.375001 -1.18728,9.30018 0.0897,26.88695 0.21875,28.625 l -18.625,0.125 c 0.0463,-0.87562 0.3206,-6.11584 0.4375,-13.3125 0.12623,-7.77097 0.042,-16.63104 -0.9375,-21.53125 -0.49516,-2.475785 -1.34142,-4.142992 -2.53125,-5.125001 -1.18983,-0.982009 -2.67024,-1.157176 -3.9375,-0.8125 -1.26726,0.344676 -2.38198,1.14002 -3.21875,2.09375 -0.83677,0.95373 -1.44999,2.08232 -1.5,3.281251 l 0,0.0312 c -0.14388,3.46231 -1.04145,32.59908 -1.09375,34.25 l -18.03125,0.125 -0.4375,-55.375001 16.28125,0 c 0.25842,0.644254 0.74368,1.95716 0.84375,3.65625 0.0226,0.383644 0.0947,0.726651 0.25,1.0625 0.15529,0.335849 0.44394,0.667115 0.84375,0.8125 0.79963,0.290769 1.39992,-0.08956 1.875,-0.40625 0.92045,-0.61358 1.77678,-1.583605 2.53125,-2.34375 0.0204,-0.01583 0.0421,-0.01558 0.0625,-0.03125 0.01,-0.0096 0.0217,-0.02171 0.0312,-0.03125 3.90548,-2.98662 7.45285,-3.135812 10.40625,-2.34375 2.9783,0.798741 5.34343,2.655932 6.3125,3.625 1.11045,1.11096 1.73922,1.827531 2.84375,1.90625 0.55226,0.03936 1.12908,-0.21269 1.46875,-0.53125 0.27266,-0.255719 0.44793,-0.557748 0.65625,-0.875 5.35925,-3.555463 11.43763,-5.255453 17,-4.90625 z"
     id="path15"
     style="color:#000000;font-style:normal;font-variant:normal;font-weight:normal;font-stretch:normal;font-size:medium;line-height:normal;font-family:Sans;-inkscape-font-specification:Sans;text-indent:0;text-align:start;text-decoration:none;text-decoration-line:none;letter-spacing:normal;word-spacing:normal;text-transform:none;direction:ltr;block-progression:tb;writing-mode:lr-tb;baseline-shift:baseline;text-anchor:start;display:inline;overflow:visible;visibility:visible;fill:#f4f4f4;fill-opacity:1;stroke:none;stroke-width:2;marker:none;enable-background:accumulate"
     inkscape:connector-curvature="0" /><path
     d="m 446.2576,9.3152491 c -0.65615,-0.083116 -1.37422,-0.040734 -2.21875,0.09375 -3.26475,0.5198846 -14.45821,2.8036479 -17.34375,3.5624999 -1.50268,0.395181 -2.67122,1.067988 -3.4375,2.15625 -0.76628,1.088262 -1.1358,2.445074 -1.46875,4.21875 -0.1927,1.026531 -0.90591,5.971144 -1.90625,13.09375 -1.00034,7.122606 -2.26363,16.325295 -3.53125,25.5 -2.53523,18.34941 -5.0367,36.564327 -5.21875,37.90625 -0.0484,0.3593 -0.10663,0.590313 -0.15625,0.875 -0.19915,-0.326645 -0.34688,-0.526902 -0.625,-1.09375 -0.55686,-1.13407 -3.07138,-5.67857 -6.6875,-12.125 -3.61612,-6.44643 -8.28057,-14.698035 -12.90625,-22.875 -4.62568,-8.176965 -9.23334,-16.283988 -12.75,-22.46875 -1.75833,-3.092381 -3.22841,-5.697015 -4.3125,-7.59375 -1.08409,-1.896735 -1.7426,-3.027099 -1.9375,-3.34375 -0.26204,-0.426103 -0.5022,-0.949315 -1,-1.4375 -0.4978,-0.488185 -1.22916,-0.825861 -2.1875,-0.96875 -1.91667,-0.285778 -4.90864,0.02578 -10.875,1.21875 l -0.0312,0 c -8.1162,1.795611 -10.01118,2.089063 -12,2.53125 -1.00882,0.224008 -2.24081,0.476013 -3.09375,1.46875 -0.42647,0.496368 -0.66814,1.215825 -0.625,1.96875 0.0431,0.752925 0.32656,1.542229 0.84375,2.4375 0.75147,1.302478 9.64385,16.292005 20.625,34.78125 l 1.71875,-1 c -10.9809,-18.488755 -19.97452,-33.653728 -20.62505,-34.78125 -0.41781,-0.723229 -0.54498,-1.256737 -0.5625,-1.5625 -0.0175,-0.305763 0.0344,-0.389368 0.15625,-0.53125 0.24381,-0.283763 1.06782,-0.636758 2,-0.84375 1.89718,-0.421813 3.8622,-0.699611 12,-2.5 5.90164,-1.180029 8.81842,-1.418222 10.15625,-1.21875 0.66891,0.09974 0.89723,0.244779 1.09375,0.4375 0.19652,0.192721 0.40579,0.522353 0.71875,1.03125 0.0928,0.150849 0.79219,1.386747 1.875,3.28125 1.08281,1.894503 2.58588,4.502178 4.34375,7.59375 3.51574,6.183144 8.09381,14.32434 12.71875,22.5 4.62494,8.17566 9.29221,16.401024 12.90625,22.84375 3.61404,6.442726 6.24211,11.18782 6.65625,12.03125 0.50068,1.020451 0.87454,1.715438 1.28125,2.21875 0.20335,0.251656 0.40696,0.455843 0.71875,0.625 0.31179,0.169157 0.8563,0.249901 1.25,0.0625 0.3937,-0.187401 0.55969,-0.472016 0.6875,-0.71875 0.12781,-0.246734 0.21289,-0.48711 0.28125,-0.75 0.13671,-0.525781 0.22155,-1.136703 0.3125,-1.8125 0.17895,-1.319077 2.68373,-19.58966 5.21875,-37.9375 1.26751,-9.17392 2.56256,-18.34895 3.5625,-25.46875 0.99994,-7.1198 1.7437,-12.300531 1.875,-13 0.31505,-1.678324 0.65078,-2.764012 1.125,-3.4375 0.47422,-0.673488 1.08118,-1.051181 2.3125,-1.375 2.58246,-0.679148 14.091,-3.011885 17.15625,-3.5 0.73797,-0.117516 1.30093,-0.138759 1.65625,-0.09375 0.35532,0.04501 0.46156,0.114182 0.53125,0.1875 0.13938,0.146636 0.32794,0.800071 0.125,2.21875 -0.0414,0.289248 -0.41658,2.49101 -1,5.9375 -0.58342,3.44649 -1.3807,8.199465 -2.34375,13.84375 -1.92609,11.288571 -4.45584,26.095279 -7,40.9375 -5.08832,29.684441 -10.24535,59.548211 -10.59375,61.500001 -0.3531,1.97763 -0.68366,3.16303 -1.0625,3.78125 -0.37884,0.61822 -0.71774,0.81292 -1.625,1.03125 -2.03084,0.48873 -8.89618,1.95006 -11.3125,2.21875 -1.15016,0.12794 -1.57749,-0.0105 -2,-0.34375 -0.42251,-0.33321 -0.90442,-1.06725 -1.59375,-2.15625 -0.145,-0.22899 -1.97055,-3.28438 -4.78125,-8 -2.8107,-4.71562 -6.65559,-11.1844 -11.0625,-18.59375 l -1.71875,1.03125 c 4.40709,7.40965 8.2512,13.87712 11.0625,18.59375 2.8113,4.71663 4.5155,7.56224 4.8125,8.03125 0.67667,1.069 1.17751,1.98296 2.03125,2.65625 0.85374,0.67329 2.02991,0.91006 3.46875,0.75 2.76368,-0.30731 9.42134,-1.73473 11.5625,-2.25 1.17874,-0.28367 2.19784,-0.85222 2.84375,-1.90625 0.64591,-1.05403 0.97785,-2.45063 1.34375,-4.5 0.3706,-2.07621 5.50532,-31.81494 10.59375,-61.500001 2.54421,-14.842529 5.07375,-29.648008 7,-40.9375 0.96313,-5.644746 1.76006,-10.426888 2.34375,-13.875 0.58369,-3.448112 0.93338,-5.502998 1,-5.96875 0.22906,-1.601321 0.27837,-2.924636 -0.625,-3.875 -0.45168,-0.4751821 -1.09385,-0.7293837 -1.75,-0.8124999 z"
     id="path17"
     style="color:#000000;font-style:normal;font-variant:normal;font-weight:normal;font-stretch:normal;font-size:medium;line-height:normal;font-family:Sans;-inkscape-font-specification:Sans;text-indent:0;text-align:start;text-decoration:none;text-decoration-line:none;letter-spacing:normal;word-spacing:normal;text-transform:none;direction:ltr;block-progression:tb;writing-mode:lr-tb;baseline-shift:baseline;text-anchor:start;display:inline;overflow:visible;visibility:visible;fill:#f4f4f4;fill-opacity:1;stroke:none;stroke-width:2;marker:none;enable-background:accumulate"
     inkscape:connector-curvature="0" /><path
     d="m 466.0076,12.502749 c -0.70821,-0.0897 -1.6351,-0.246887 -2.625,0.09375 -1.00167,0.344687 -1.87397,1.307794 -2.25,2.8125 -0.0835,0.333472 -0.15558,0.841782 -0.3125,1.8125 -0.15692,0.970718 -0.36814,2.302641 -0.625,3.96875 -0.51372,3.332218 -1.20743,7.948512 -2.03125,13.4375 -1.64765,10.977976 -3.81118,25.440964 -5.96875,39.96875 -2.15757,14.527786 -4.30783,29.138151 -6,40.437501 -1.69217,11.29935 -2.93652,19.40117 -3.15625,20.53125 -0.52436,2.69628 -0.41248,4.27634 0.34375,5.34375 0.75623,1.06741 1.94561,1.17029 2.53125,1.28125 0.50824,0.0959 1.48707,0.1844 2.9375,0.3125 1.45043,0.1281 3.28779,0.2644 5.15625,0.40625 3.73692,0.28371 7.58132,0.55603 8.9375,0.59375 1.5693,0.0443 2.77141,-0.77138 3.40625,-1.78125 0.63484,-1.00987 0.86515,-2.14535 1.03125,-3.125 0.0559,-0.32847 0.21294,-1.52659 0.5,-3.5625 0.28706,-2.03591 0.69407,-4.8392 1.15625,-8.15625 0.92435,-6.63409 2.11465,-15.32876 3.3125,-24 1.19785,-8.671245 2.37951,-17.316944 3.28125,-23.906251 0.45087,-3.294653 0.82363,-6.0913 1.09375,-8.09375 0.13131,-0.973453 0.14358,-1.121732 0.21875,-1.6875 0.10354,0.352929 0.0974,0.272209 0.21875,0.6875 0.60391,2.066114 1.43062,4.951469 2.4375,8.40625 2.01376,6.909562 4.68692,16.053052 7.375,25.281251 5.37617,18.4564 10.82685,37.1599 11.4375,39.125 0.60057,1.93437 1.2165,3.09167 1.96875,3.84375 0.75225,0.75208 1.62408,0.96355 2.21875,1.09375 0.41165,0.0902 1.14296,0.21057 2.1875,0.34375 1.04454,0.13318 2.35024,0.26391 3.6875,0.40625 2.67452,0.28469 5.37369,0.54242 6.6875,0.5 1.34244,-0.0433 2.41655,-0.60179 3.125,-1.34375 0.70845,-0.74196 1.12699,-1.59802 1.59375,-2.375 1.1413,-1.90177 34.00472,-58.667224 37.0625,-64.000001 -0.14491,1.841 -0.3531,4.277753 -0.59375,7.28125 -0.50403,6.290802 -1.18946,14.650101 -1.875,23.093751 -1.37108,16.88731 -2.79062,34.21743 -2.9375,35.65625 -0.17165,1.67625 -0.067,2.94124 0.4375,3.9375 0.50445,0.99626 1.51271,1.55153 2.53125,1.6875 1.84772,0.24766 18.30013,1.91272 20.96875,2.03125 0.76651,0.0347 1.45396,-0.13447 2,-0.5 0.54604,-0.36553 0.90054,-0.88054 1.125,-1.40625 0.44892,-1.05142 0.47816,-2.1883 0.53125,-3.0625 0.004,-0.0645 0.20351,-2.19923 0.5,-5.5625 0.29649,-3.36327 0.72038,-8.07598 1.21875,-13.6875 0.99674,-11.22304 2.30799,-26.03477 3.625,-40.875001 1.31701,-14.840229 2.63717,-29.708295 3.625,-41 0.49391,-5.645853 0.89758,-10.396363 1.1875,-13.8125 0.14496,-1.708069 0.26487,-3.078039 0.34375,-4.0625 0.0789,-0.984461 0.12031,-1.481062 0.125,-1.78125 0.0197,-1.293125 -0.24876,-2.382913 -0.84375,-3.1875 -0.59499,-0.804587 -1.49518,-1.229394 -2.4375,-1.34375 l -0.0312,0 c -1.71865,-0.207107 -15.43393,-1.46875 -18.1875,-1.46875 -1.27424,0 -2.33641,0.149889 -3.3125,0.59375 -0.97609,0.443861 -1.80119,1.172052 -2.5625,2.1875 -0.23349,0.31126 -0.40733,0.6357 -0.8125,1.34375 -0.40517,0.70805 -0.95036,1.695391 -1.625,2.90625 -1.34927,2.421717 -3.19247,5.771544 -5.375,9.75 -4.36506,7.956911 -10.07038,18.401367 -15.75,28.84375 -5.67962,10.442383 -11.3282,20.884074 -15.625,28.8125 -4.2968,7.928431 -7.19307,13.252891 -7.46875,13.781251 -0.0563,0.10799 -0.0747,0.10923 -0.125,0.1875 -0.0328,-0.0853 -0.0624,-0.10909 -0.0937,-0.21875 -0.0699,-0.24488 -1.65526,-6.06871 -3.9375,-14.500001 -2.28234,-8.431288 -5.30976,-19.575145 -8.34385,-30.78125 -3.03409,-11.206105 -6.07422,-22.48586 -8.4375,-31.1875 -2.36328,-8.70164 -4.01851,-14.781204 -4.3125,-15.78125 -0.56792,-1.930604 -1.27176,-3.112567 -2.375,-3.75 -1.10324,-0.637433 -2.27094,-0.663987 -3.78125,-0.875 -3.15044,-0.440023 -10.66778,-1.188011 -18.28125,-1.90625 -0.0129,-0.0012 -0.0184,0.0012 -0.0312,0 z m -1.96875,1.96875 c 0.38233,-0.131563 1.0223,-0.05978 1.75,0.03125 l 0.0312,0 c 7.61932,0.718652 15.18852,1.483017 18.21875,1.90625 1.58169,0.220987 2.54749,0.327433 3.0625,0.625 0.51501,0.297567 0.92642,0.825104 1.4375,2.5625 0.24501,0.833454 1.9495,7.04939 4.3125,15.75 2.363,8.70061 5.40347,19.950355 8.4375,31.15625 3.03403,11.205895 6.06146,22.349788 8.34375,30.78125 2.28229,8.431461 3.79194,14.052881 3.9375,14.562501 0.12729,0.44524 0.29504,0.83683 0.53125,1.1875 0.23621,0.35067 0.59,0.70557 1.125,0.8125 0.535,0.10693 1.05528,-0.13327 1.40625,-0.4375 0.35097,-0.30423 0.62341,-0.67405 0.875,-1.15625 0.15582,-0.29864 3.14114,-5.82239 7.4375,-13.750001 4.29636,-7.927605 9.946,-18.371258 15.625,-28.8125 5.679,-10.441242 11.38716,-20.89088 15.75,-28.84375 2.18142,-3.976435 4.02978,-7.335557 5.375,-9.75 0.67261,-1.207221 1.22676,-2.179061 1.625,-2.875 0.39824,-0.695939 0.71449,-1.202635 0.65625,-1.125 0.64069,-0.854552 1.17509,-1.318111 1.78125,-1.59375 0.60616,-0.275639 1.36524,-0.40625 2.5,-0.40625 2.06173,0 16.69919,1.283432 17.96875,1.4375 0.53268,0.06464 0.84424,0.225087 1.09375,0.5625 0.24951,0.337413 0.45283,0.960875 0.4375,1.96875 1.9e-4,-0.01244 -0.0466,0.677634 -0.125,1.65625 -0.0784,0.978616 -0.19893,2.324856 -0.34375,4.03125 -0.28964,3.412788 -0.69366,8.167524 -1.1875,13.8125 -0.98767,11.289951 -2.30801,26.160104 -3.625,41 -1.31699,14.839901 -2.62824,29.651631 -3.625,40.875001 -0.49838,5.61168 -0.92218,10.32329 -1.21875,13.6875 -0.29657,3.36421 -0.47695,5.24923 -0.5,5.625 -0.0539,0.8878 -0.10942,1.85742 -0.34375,2.40625 -0.11716,0.27441 -0.25089,0.42725 -0.40625,0.53125 -0.15536,0.104 -0.37401,0.17608 -0.8125,0.15625 -2.14938,-0.0955 -19.42222,-1.81366 -20.8125,-2 -0.59946,-0.08 -0.78545,-0.20126 -1,-0.625 -0.21455,-0.42374 -0.3711,-1.32475 -0.21875,-2.8125 0.17612,-1.72518 1.56633,-18.79906 2.9375,-35.6875 0.68559,-8.44422 1.37088,-16.833084 1.875,-23.125001 0.25206,-3.145959 0.44749,-5.763884 0.59375,-7.625 0.0731,-0.930558 0.1483,-1.670472 0.1875,-2.1875 0.0196,-0.258514 0.0209,-0.448436 0.0312,-0.59375 0.0103,-0.145314 0.0312,-0.111907 0.0312,-0.3125 0,-0.202123 0.0352,-0.382064 -0.125,-0.75 -0.0801,-0.183968 -0.31096,-0.512619 -0.71875,-0.625 -0.40779,-0.112381 -0.71277,0.04996 -0.875,0.15625 -0.32446,0.212575 -0.42111,0.386044 -0.5625,0.59375 -0.14139,0.207706 -0.2901,0.46089 -0.46875,0.78125 -0.43152,0.77156 -37.51901,64.823611 -38.28125,66.093751 -0.50524,0.84102 -0.9107,1.57771 -1.34375,2.03125 -0.43305,0.45354 -0.83119,0.69009 -1.71875,0.71875 -0.91619,0.0296 -3.79002,-0.18694 -6.4375,-0.46875 -1.32374,-0.14091 -2.59754,-0.30649 -3.625,-0.4375 -1.02746,-0.13101 -1.83665,-0.24546 -2,-0.28125 -0.55633,-0.1218 -0.8515,-0.19533 -1.25,-0.59375 -0.3985,-0.39842 -0.91932,-1.23037 -1.46875,-3 -0.54035,-1.7389 -6.06142,-20.63765 -11.4375,-39.09375 -2.68804,-9.228053 -5.32986,-18.371251 -7.34375,-25.281251 -1.00695,-3.455 -1.86454,-6.339106 -2.46875,-8.40625 -0.60421,-2.067144 -0.93773,-3.179345 -1.03125,-3.46875 -0.11628,-0.361141 -0.15783,-0.688226 -0.65625,-1.03125 -0.24921,-0.171512 -0.72918,-0.255883 -1.0625,-0.125 -0.33332,0.130883 -0.48769,0.340951 -0.59375,0.5 -0.42424,0.636196 -0.4528,1.219719 -0.53125,2.0625 -0.003,0.02868 -0.1677,1.374923 -0.4375,3.375 -0.2698,2.000077 -0.64298,4.768544 -1.09375,8.0625 -0.90155,6.587912 -2.08348,15.235619 -3.28125,23.906251 -1.19777,8.67063 -2.41957,17.36713 -3.34375,24 -0.46209,3.31644 -0.83822,6.12232 -1.125,8.15625 -0.28678,2.03393 -0.50612,3.35222 -0.53125,3.5 -0.1569,0.92535 -0.36459,1.84287 -0.71875,2.40625 -0.35416,0.56338 -0.67255,0.87149 -1.65625,0.84375 -1.19682,-0.0333 -5.11892,-0.31096 -8.84375,-0.59375 -1.86242,-0.1414 -3.68746,-0.27929 -5.125,-0.40625 -1.43754,-0.12696 -2.59324,-0.25167 -2.75,-0.28125 -0.74436,-0.14104 -1.07573,-0.17866 -1.28125,-0.46875 -0.20552,-0.29009 -0.48264,-1.33078 0,-3.8125 0.28377,-1.45942 1.46376,-9.32348 3.15625,-20.625 1.69249,-11.30152 3.87369,-25.909787 6.03125,-40.437501 2.15756,-14.527714 4.29024,-28.962101 5.9375,-39.9375 0.82363,-5.4877 1.51833,-10.110453 2.03125,-13.4375 0.25646,-1.663524 0.46952,-3.006927 0.625,-3.96875 0.15548,-0.961823 0.28371,-1.634847 0.28125,-1.625 0.27097,-1.084294 0.58642,-1.305937 0.96875,-1.4375 z"
     id="path19"
     style="color:#000000;font-style:normal;font-variant:normal;font-weight:normal;font-stretch:normal;font-size:medium;line-height:normal;font-family:Sans;-inkscape-font-specification:Sans;text-indent:0;text-align:start;text-decoration:none;text-decoration-line:none;letter-spacing:normal;word-spacing:normal;text-transform:none;direction:ltr;block-progression:tb;writing-mode:lr-tb;baseline-shift:baseline;text-anchor:start;display:inline;overflow:visible;visibility:visible;fill:#f4f4f4;fill-opacity:1;stroke:none;stroke-width:2;marker:none;enable-background:accumulate"
     inkscape:connector-curvature="0" /><path
     d="m 447.8826,0.00274907 c -1.0977,0.02061123 -2.09841,0.16118132 -2.84375,0.25 -1.6764,0.19976995 -6.51755,1.14781343 -11.53125,2.18750003 -5.0137,1.0396866 -10.08768,2.1327125 -11.96875,2.59375 -4.09109,1.0026954 -7.17916,4.5905722 -8,8.9687499 -0.20904,1.11351 -0.78938,5.170498 -1.59375,10.8125 -0.80437,5.642002 -1.80355,12.79525 -2.78125,19.8125 -1.74918,12.554378 -3.07272,22.232883 -3.40625,24.65625 -2.32852,-4.143751 -24.79164,-44.106457 -27.875,-49.40625 -1.72426,-2.963726 -4.07348,-4.372693 -6.34375,-4.84375 -2.27027,-0.471057 -4.4297,-0.09196 -6,0.21875 -1.53323,0.30288 -7.32715,1.408567 -13.40625,2.6875 -6.0791,1.278933 -12.3768,2.701461 -15.3125,3.75 -3.15738,1.127718 -4.60111,3.929581 -4.90625,6.6875 -0.30514,2.757919 0.33305,5.548922 1.3125,7.40625 0.86479,1.639677 5.05248,8.60801 9.4375,15.90625 4.38502,7.29824 8.92788,14.821729 10.34375,17.1875 l 1.71875,-1 c -1.42513,-2.381229 -5.96052,-9.92349 -10.34375,-17.21875 -4.38323,-7.29526 -8.67179,-14.447927 -9.375,-15.78125 -0.74655,-1.415672 -1.34561,-4.004919 -1.09375,-6.28125 0.25186,-2.276331 1.18188,-4.180968 3.5625,-5.03125 2.6023,-0.929461 9.0366,-2.381933 15.09375,-3.65625 6.05715,-1.274317 11.78398,-2.37938 13.34375,-2.6875 1.5227,-0.301291 3.41652,-0.592693 5.21875,-0.21875 1.80223,0.373943 3.55451,1.336726 5.03125,3.875 3.15894,5.429708 29.28125,51.9375 29.28125,51.9375 l 1.46875,2.59375 0.40625,-2.9375 c 0,0 1.85741,-13.53025 3.8125,-27.5625 0.97755,-7.016125 1.97744,-14.174409 2.78125,-19.8125 0.80381,-5.638091 1.42479,-9.81876 1.59375,-10.71875 0.68916,-3.675822 3.28634,-6.5796953 6.53125,-7.3749999 l 0.5,-0.125 c 1.97477,-0.4727232 6.58591,-1.4756399 11.375,-2.46875 4.94551,-1.0255452 9.84018,-1.9799226 11.25,-2.15625 l 0.125,-0.03125 c 1.53033,-0.1823626 3.63367,-0.4520996 5.5625,0.125 1.92883,0.5770996 3.72915,1.9119648 4.90625,5.375 l 0.46875,1.40625 1.125,-1 c 2.44254,-2.1165046 5.53322,-2.6546054 9.6875,-2.375 2.09453,0.1404835 6.77176,0.6136642 11.1875,1.09375 4.41574,0.4800858 8.69844,0.9894343 9.6875,1.1875 2.15067,0.4305028 7.34474,1.9975569 9.28125,9.0624999 2.03983,7.441886 19.875,74.125 19.875,74.125 l 0.625,2.40625 1.21875,-2.1875 c 0,0 8.79107,-16.261668 17.90625,-33.03125 4.55759,-8.384791 9.19029,-16.894454 12.84375,-23.5625 3.65346,-6.668046 6.38779,-11.581747 6.9375,-12.46875 2.38537,-3.852055 5.9036,-6.717373 13.5625,-6.09375 3.98389,0.324305 8.77654,0.661059 12.90625,1.125 2.06485,0.231971 3.95182,0.505344 5.46875,0.8125 1.51693,0.307156 2.69356,0.692537 3.125,0.96875 2.46572,1.577986 5.66826,4.875922 4.90625,12.84375 -0.39831,4.164896 -2.93838,32.675231 -5.4375,60.65625 -1.24956,13.990511 -2.48459,27.842771 -3.4375,38.437501 -0.95291,10.59473 -1.62268,18.01927 -1.71875,18.875 -0.20931,1.86438 -0.72944,4.83065 -2.15625,7.25 -1.42681,2.41935 -3.64777,4.30634 -7.65625,4.40625 -8.47078,0.21111 -21.50389,-2.00624 -24.0625,-2.46875 -1.00864,-0.18187 -3.03117,-1.07788 -4.6875,-2.8125 -1.65633,-1.73462 -3.01877,-4.25603 -2.96875,-7.9375 0.10535,-7.6816 2.71875,-32.5625 2.71875,-32.5625 L 545.3201,115.284 c 0,0 -4.50908,7.8253 -9.28125,16.09375 -2.38609,4.13423 -4.84007,8.39783 -6.84375,11.8125 -2.00368,3.41467 -3.58343,6.03196 -4.09375,6.78125 -2.21268,3.24885 -5.13143,6.04802 -10.3125,5.78125 -5.55221,-0.28693 -10.46152,-0.71404 -14.25,-1.6875 -3.75722,-0.96543 -6.62118,-2.48927 -8.59375,-8.71875 -2.03213,-6.41458 -11.625,-38.625 -11.625,-38.625 l -1.9375,0.15625 c 0,0 -0.88618,7.46717 -1.90625,15.53125 -1.02007,8.06408 -2.20793,16.83248 -2.6875,19.03125 -0.47698,2.1878 -1.70344,4.45954 -3.40625,6.125 -1.70281,1.66546 -3.84785,2.71892 -6.21875,2.6875 -5.25146,-0.0696 -17.41182,-1.11758 -20.59375,-1.78125 -1.52261,-0.31749 -3.465,-1.24087 -4.9375,-2.65625 -1.4725,-1.41538 -2.50116,-3.25571 -2.40625,-5.5625 l -1.96875,-0.15625 c -0.38723,2.74632 -0.93193,4.60123 -1.78125,5.875 -0.84932,1.27377 -2.0083,2.08159 -4.0625,2.6875 -4.21472,1.24415 -15.22653,3.21079 -17.375,3.5625 -1.03029,0.16952 -2.64585,0.30559 -4.21875,-0.125 -1.5729,-0.43059 -3.12238,-1.3591 -4.3125,-3.59375 -2.68949,-5.04804 -11.75,-19.625 -11.75,-19.625 l -1.71875,1.0625 c 0,0 9.12699,14.69404 11.6875,19.5 1.43388,2.69235 3.5574,4.04484 5.5625,4.59375 2.0051,0.54891 3.89879,0.34773 5.0625,0.15625 2.23753,-0.36629 13.06572,-2.27915 17.625,-3.625 2.3328,-0.68809 4.05882,-1.77602 5.1875,-3.46875 0.48586,-0.72867 0.81916,-1.60849 1.125,-2.53125 0.52467,1.01339 1.15326,1.93368 1.9375,2.6875 1.78175,1.71262 4.00711,2.78499 5.9375,3.1875 3.72207,0.77633 15.50621,1.7401 20.96875,1.8125 2.9861,0.0396 5.65506,-1.29271 7.65625,-3.25 2.00119,-1.95729 3.37148,-4.5288 3.9375,-7.125 0.56343,-2.58323 1.69757,-11.14583 2.71875,-19.21875 0.71308,-5.63723 1.0168,-8.13164 1.34375,-10.84375 1.7711,5.95549 8.4247,28.36329 10.25,34.125 2.12743,6.71852 5.91922,9.01393 10,10.0625 4.04952,1.04054 9.06246,1.46093 14.65625,1.75 5.96693,0.30723 9.67118,-3.1451 12.0625,-6.65625 0.64068,-0.94071 2.17943,-3.48411 4.1875,-6.90625 2.00807,-3.42214 4.45634,-7.67598 6.84375,-11.8125 3.58112,-6.20479 5.45185,-9.49825 6.9375,-12.09375 -0.62525,6.04539 -2.18978,21.45496 -2.28125,28.125 -0.057,4.19353 1.53358,7.31562 3.5,9.375 1.96642,2.05938 4.23114,3.08987 5.8125,3.375 2.61939,0.47349 15.60553,2.72089 24.46875,2.5 4.65752,-0.11609 7.63781,-2.5666 9.3125,-5.40625 1.67469,-2.83965 2.18356,-6.04763 2.40625,-8.03125 0.11993,-1.06827 0.797,-8.31058 1.75,-18.90625 0.953,-10.59567 2.18793,-24.44688 3.4375,-38.437501 2.49913,-27.981231 5.04481,-56.550146 5.4375,-60.65625 0.81999,-8.574172 -2.88422,-12.844736 -5.8125,-14.71875 -0.91656,-0.586787 -2.1988,-0.92325 -3.8125,-1.25 -1.6137,-0.32675 -3.5586,-0.576846 -5.65625,-0.8125 -4.19529,-0.471309 -9.00464,-0.802305 -12.96875,-1.125 -8.2331,-0.670377 -12.79087,2.726055 -15.4375,7 -0.70929,1.144497 -3.31327,5.890765 -6.96875,12.5625 -3.65548,6.671735 -8.28559,15.176666 -12.84375,23.5625 -8.51264,15.66105 -15.69629,28.896982 -16.75,30.84375 -1.08469,-4.060323 -17.19429,-64.44693 -19.1875,-71.71875 -2.16349,-7.8930569 -8.31842,-9.9632527 -10.84375,-10.4687499 -1.34794,-0.2699343 -5.41349,-0.7683358 -9.84375,-1.25 -4.43026,-0.4816642 -9.09678,-0.9472335 -11.28125,-1.09375 -3.89689,-0.262282 -7.25675,0.2783256 -10.03125,2.15625 -1.39788,-3.120741 -3.53366,-4.8149782 -5.71875,-5.46875003 -1.22896,-0.36770019 -2.43355,-0.45811123 -3.53125,-0.4375 z"
     id="path21"
     style="color:#000000;font-style:normal;font-variant:normal;font-weight:normal;font-stretch:normal;font-size:medium;line-height:normal;font-family:Sans;-inkscape-font-specification:Sans;text-indent:0;text-align:start;text-decoration:none;text-decoration-line:none;letter-spacing:normal;word-spacing:normal;text-transform:none;direction:ltr;block-progression:tb;writing-mode:lr-tb;baseline-shift:baseline;text-anchor:start;display:inline;overflow:visible;visibility:visible;fill:#f4f4f4;fill-opacity:1;stroke:none;stroke-width:2;marker:none;enable-background:accumulate"
     inkscape:connector-curvature="0" /></svg>