<?xml version="1.0" encoding="UTF-8" standalone="no"?>
<!-- Generator: Adobe Illustrator 19.0.0, SVG Export Plug-In . SVG Version: 6.00 Build 0)  -->

<svg
   xmlns:dc="http://purl.org/dc/elements/1.1/"
   xmlns:cc="http://creativecommons.org/ns#"
   xmlns:rdf="http://www.w3.org/1999/02/22-rdf-syntax-ns#"
   xmlns:svg="http://www.w3.org/2000/svg"
   xmlns="http://www.w3.org/2000/svg"
   xmlns:sodipodi="http://sodipodi.sourceforge.net/DTD/sodipodi-0.dtd"
   xmlns:inkscape="http://www.inkscape.org/namespaces/inkscape"
   version="1.1"
   id="Layer_1"
   x="0px"
   y="0px"
   viewBox="-201 259.7 566.94781 205.5911"
   xml:space="preserve"
   sodipodi:docname="logo.svg"
   width="566.94781"
   height="205.59109"
   inkscape:version="0.92.2 (5c3e80d, 2017-08-06)"><metadata
     id="metadata33"><rdf:RDF><cc:Work
         rdf:about=""><dc:format>image/svg+xml</dc:format><dc:type
           rdf:resource="http://purl.org/dc/dcmitype/StillImage" /><dc:title></dc:title></cc:Work></rdf:RDF></metadata><defs
     id="defs31" /><sodipodi:namedview
     pagecolor="#ffffff"
     bordercolor="#666666"
     borderopacity="1"
     objecttolerance="10"
     gridtolerance="10"
     guidetolerance="10"
     inkscape:pageopacity="0"
     inkscape:pageshadow="2"
     inkscape:window-width="1920"
     inkscape:window-height="1017"
     id="namedview29"
     showgrid="false"
     fit-margin-top="0"
     fit-margin-left="0"
     fit-margin-right="0"
     fit-margin-bottom="0"
     inkscape:zoom="0.3822563"
     inkscape:cx="283.52966"
     inkscape:cy="137.05001"
     inkscape:window-x="-8"
     inkscape:window-y="-8"
     inkscape:window-maximized="1"
     inkscape:current-layer="g24" /><g
     id="g26"
     transform="translate(-172.97034,-68.608898)"><g
       id="g4"
       transform="matrix(1,0,0,0.75,0,133.475)"><path
         d="m 29.9,461.3 c -0.4,0 -0.8,-0.1 -1.2,-0.3 -38,-18.4 -57.6,-39.9 -56.7,-62.1 0.7,-18.3 15.6,-35.6 43.2,-50 26.1,-13.6 63,-24.5 106.6,-31.3 1.5,-0.2 2.8,0.8 3,2.2 0.2,1.5 -0.8,2.8 -2.2,3 -88.3,14 -143.9,43.2 -145.2,76.3 -0.8,19.7 18.3,40 53.7,57.1 1.3,0.6 1.9,2.2 1.2,3.6 -0.4,1 -1.4,1.5 -2.4,1.5 z"
         id="path2"
         inkscape:connector-curvature="0"
         style="fill:#ff0000" /></g><g
       id="g8"
       transform="matrix(1,0,0,0.75,0,133.475)"><path
         d="m 361,324.8 c -0.1,0 -0.3,0 -0.4,0 -28.1,-4.6 -57.7,-7.7 -88,-9.1 -1.5,-0.1 -2.6,-1.3 -2.5,-2.8 0.1,-1.5 1.3,-2.6 2.8,-2.5 30.6,1.5 60.4,4.6 88.6,9.2 1.4,0.2 2.4,1.6 2.2,3.1 -0.3,1.2 -1.4,2.1 -2.7,2.1 z"
         id="path6"
         inkscape:connector-curvature="0"
         style="fill:#ff0000" /></g><g
       id="g12"
       transform="matrix(1,0,0,0.75,0,133.475)"><path
         d="m 277.2,506.7 c -0.7,0 -1.5,0 -2.2,0 -1.5,0 -2.7,-1.2 -2.7,-2.7 0,-1.5 1.2,-2.7 2.7,-2.7 0,0 0,0 0,0 0.7,0 1.5,0 2.2,0 142.5,0 255,-37 256.4,-84.6 0.5,-16.7 -12.9,-33.6 -38.7,-48.9 -25.7,-15.3 -62.6,-28.3 -106.7,-37.6 -1.4,-0.3 -2.4,-1.7 -2.1,-3.2 0.3,-1.4 1.7,-2.4 3.2,-2.1 44.6,9.5 82,22.7 108.3,38.2 27.6,16.4 41.9,34.9 41.3,53.6 -0.8,25.3 -28.8,48.4 -78.7,65 -48.3,16.2 -113.3,25 -183,25 z"
         id="path10"
         inkscape:connector-curvature="0"
         style="fill:#ff0000" /></g><polygon
       points="289.9,323.3 297.3,356.8 227,410.3 309.6,377.4 332.8,401.5 325.4,368.1 395.7,314.5 313.1,347.4 "
       id="polygon14"
       transform="matrix(1,0,0,0.75,0,133.475)"
       style="fill:#ff0000" /><g
       id="g24"><path
         d="m 237.4,459.725 c 1,-3.75 2.8,-3.15 7.9,-3.75 l 4.7,-0.525 -1.5,5.85 -4.7,0.525 c -5,0.525 -7.3,1.575 -6.4,-2.1 z m -10.2,-5.4 -3.6,14.7 c -1,4.05 0.6,5.325 5.8,4.725 l 29.8,-3.525 6.4,-25.8 -29.8,3.525 c -5.2,0.6 -7.6,2.4 -8.6,6.375 z m 189.4,-23.175 -0.3,1.425 30.8,-3.675 c 2.4,-0.3 4.8,-2.1 5.3,-4.125 0.5,-2.025 -1.1,-3.375 -3.5,-3.075 l -7.9,0.9 -12.6,1.5 -3.2,0.375 c -3.8,0.45 -7.9,3.6 -8.6,6.675 z m -215.9,66.45 0.3,-1.05 c 1.1,0.075 2.5,0.375 3.7,0.225 l 32,-3.75 c -1.2,4.8 -9.6,6 -22.5,7.5 l -14.6,1.725 -7.8,31.65 19.2,-2.25 c 47.3,-3.525 65.4,-21.825 71.1,-43.725 l 57.7,-6.9 9.3,-37.5 4.7,-0.6 c 5.1,-0.6 4.4,-1.275 3.4,2.7 l -8.5,34.35 41.4,-4.95 0.6,-2.25 c 3.1,1.05 6.8,1.425 10.6,0.975 l 71.6,-8.55 6.7,-27 -4.6,-2.475 c 4,-3.6 7.2,-7.95 8.1,-11.625 l 1.1,-4.275 c 3.6,-15.9 -16,-20.1 -24.9,-19.05 l -41.1,4.875 c -7.3,0.9 -15.3,4.65 -21.1,9.675 -5.4,-3.975 -13.7,-5.55 -18.6,-4.95 l -45.8,5.475 5.1,8.475 41.3,-4.875 c 6,-0.675 9.9,1.05 11,4.575 -0.4,0.9 -11,43.2 -11,43.2 l -14.8,1.725 7.9,-31.95 c 1,-3.975 -0.6,-5.325 -5.8,-4.725 l -28.4,3.375 -9.3,37.5 -16.3,1.95 10.6,-42.975 -13.4,-11.85 -48.1,13.2 22.8,-2.7 0.4,-0.075 -14.5,58.65 c -3.7,14.925 -24.9,29.1 -43.7,31.35 l -19.2,2.25 2.9,-11.7 14.6,-1.725 c 12.9,-1.5 27.3,-11.175 29.8,-21.3 l 1.6,-6.375 -38.1,4.5 c -8.2,0.975 -12.6,-2.775 -11,-9.225 l 6.8,-27.525 c 1.2,-4.875 5.3,-9 10.7,-11.1 l 0.1,-0.75 19.1,-11.025 -11.2,1.425 c -5.9,0.675 -17,4.05 -24,10.725 -5.3,-4.725 -14.5,-6.6 -19.8,-6 l -41.1,4.875 6.7,-27 30,-3.6 c 15.9,-1.875 33.6,-15.375 36.7,-27.975 l 4.5,-18.15 c 3.1,-12.675 -8.7,-22.575 -24.7,-20.7 l -65.5,7.8 -13.9,56.25 -60.3,7.2 c -5.1,0.6 -10.1,4.35 -11.1,8.4 L 28,511.1 c -1,4.05 2.3,6.825 7.4,6.225 l 115,-13.725 9.3,-37.5 4.7,-0.525 c 5.2,-0.6 4.4,-1.275 3.4,2.7 l -8.5,34.35 z m -85.3,-20.55 -38.5,4.575 1.4,-5.85 31.1,-3.675 7.6,-30.45 -31.1,3.675 1.4,-5.85 38.5,-4.575 z m -2.4,9.375 -3.2,12.9 -68,8.1 21.2,-85.575 56.2,-6.675 -2.9,11.7 -39.9,4.725 -6.1,24.6 32.5,-3.9 -2.9,11.7 -32.5,3.975 -6.1,24.6 z m 78.2,3.225 -16.3,1.95 7.9,-31.95 c 1,-3.975 -0.6,-5.325 -5.8,-4.725 l -28.4,3.375 -9.3,37.5 -16.3,1.95 12.2,-49.275 0.4,-0.075 54,-6.45 c 8.2,-0.975 12.6,2.775 11,9.225 z m 105.7,-60.375 15.9,-1.875 -12.2,49.275 -16.3,1.95 12.2,-49.2 z m 98.7,23.25 5.6,-22.8 c 1.8,-7.2 12.1,-14.25 20.9,-15.3 l 38,-4.5 c 6.4,-0.75 10.9,4.575 9.6,9.825 l -1.9,7.35 c -1.3,5.25 -8.5,10.875 -14.9,11.625 l -39.5,4.725 -0.6,2.625 c -0.8,3 1.9,5.4 5.6,4.95 l 44.1,-5.25 -3,12 -49.8,5.925 c -8.5,0.975 -15.8,-3.975 -14.1,-11.175 z m -235.4,-63.9 5.5,-22.275 20.7,-2.475 c 2.7,-0.3 4.1,0.825 3.6,3 l -3.8,15.225 c -0.5,2.175 -2.6,3.75 -5.3,4.05 z"
         id="path16"
         inkscape:connector-curvature="0"
         style="fill:#ff0000;stroke-width:0.86602539" /><g
         id="g22"
         style="fill-opacity:1"
         transform="matrix(1,0,0,0.75,0,133.475)"><path
           d="m 292.6,354.1 -4.4,-17.4 -2.5,0.3 -0.8,4.3 c -0.6,3 -2.9,5.4 -5.8,5.9 l -17,2.7 c -2.8,0.4 -4.4,-1.3 -3.9,-4.3 l 8.6,-46.1 c 0.5,-3 2.9,-5.4 5.7,-5.8 l 17,-2.7 c 2.8,-0.4 4.4,1.3 3.9,4.3 l -1.1,5.9 34.4,-5.5 1.3,-7 c 3.3,-17.7 -8.8,-31.2 -25.6,-28.6 l -32.9,5.2 c -16.8,2.7 -34.8,20.9 -38,38.7 l -9.2,49.2 c -3.3,17.7 8.8,31.2 25.6,28.6 l 11,-1.7 z"
           id="path18"
           style="fill:#ff0000;fill-opacity:1"
           inkscape:connector-curvature="0" /><path
           d="m 317,343.6 c 0.9,-2.4 1.5,-3.3 2,-5.8 l 1.2,-6.3 -13.7,2.2 z"
           id="path20"
           style="fill:#ff0000;fill-opacity:1"
           inkscape:connector-curvature="0" /></g></g></g></svg>