<?xml version="1.0" encoding="UTF-8" standalone="no"?>
<svg
   xmlns:dc="http://purl.org/dc/elements/1.1/"
   xmlns:cc="http://creativecommons.org/ns#"
   xmlns:rdf="http://www.w3.org/1999/02/22-rdf-syntax-ns#"
   xmlns:svg="http://www.w3.org/2000/svg"
   xmlns="http://www.w3.org/2000/svg"
   xmlns:sodipodi="http://sodipodi.sourceforge.net/DTD/sodipodi-0.dtd"
   xmlns:inkscape="http://www.inkscape.org/namespaces/inkscape"
   viewBox="0 0 379.96488 118.05469"
   height="118.05469"
   width="379.96487"
   xml:space="preserve"
   version="1.1"
   id="svg2"
   sodipodi:docname="controller.svg"
   inkscape:version="0.92.2 (5c3e80d, 2017-08-06)"><sodipodi:namedview
     pagecolor="#ffffff"
     bordercolor="#666666"
     borderopacity="1"
     objecttolerance="10"
     gridtolerance="10"
     guidetolerance="10"
     inkscape:pageopacity="0"
     inkscape:pageshadow="2"
     inkscape:window-width="1920"
     inkscape:window-height="1017"
     id="namedview83"
     showgrid="false"
     fit-margin-top="0"
     fit-margin-left="0"
     fit-margin-right="0"
     fit-margin-bottom="0"
     inkscape:zoom="0.91850566"
     inkscape:cx="189.98237"
     inkscape:cy="78.703125"
     inkscape:window-x="-8"
     inkscape:window-y="-8"
     inkscape:window-maximized="1"
     inkscape:current-layer="svg2" /><metadata
     id="metadata8"><rdf:RDF><cc:Work
         rdf:about=""><dc:format>image/svg+xml</dc:format><dc:type
           rdf:resource="http://purl.org/dc/dcmitype/StillImage" /><dc:title></dc:title></cc:Work></rdf:RDF></metadata><defs
     id="defs6"><clipPath
       id="clipPath16"
       clipPathUnits="userSpaceOnUse"><path
         id="path18"
         d="M 0,125.925 H 303.972 V 0 H 0 Z"
         inkscape:connector-curvature="0" /></clipPath></defs><g
     transform="matrix(1.25,0,0,-0.9375,-1.25e-4,118.05469)"
     id="g10"><g
       id="g12"><g
         clip-path="url(#clipPath16)"
         id="g14"><g
           transform="translate(301.1281)"
           id="g20"><path
             id="path22"
             style="fill:#333333;fill-opacity:1;fill-rule:nonzero;stroke:none"
             d="m 0,0 h -298.284 c -1.564,0 -2.844,1.28 -2.844,2.844 v 120.237 c 0,1.565 1.28,2.845 2.844,2.845 H 0 c 1.564,0 2.844,-1.28 2.844,-2.845 V 2.844 C 2.844,1.28 1.564,0 0,0"
             inkscape:connector-curvature="0" /></g><g
           transform="translate(124.6718,9.7423)"
           id="g24"><path
             id="path26"
             style="fill:#b12a12;fill-opacity:1;fill-rule:nonzero;stroke:none"
             d="m 0,0 h -93.51 c -3.129,0 -5.689,2.56 -5.689,5.689 v 93.51 c 0,3.129 2.56,5.689 5.689,5.689 H 0 c 3.129,0 5.689,-2.56 5.689,-5.689 V 5.689 C 5.689,2.56 3.129,0 0,0"
             inkscape:connector-curvature="0" /></g><g
           transform="translate(122.1971,12.5181)"
           id="g28"><path
             id="path30"
             style="fill:#333333;fill-opacity:1;fill-rule:nonzero;stroke:none"
             d="m 0,0 h -88.561 c -2.963,0 -5.387,2.425 -5.387,5.388 v 88.56 c 0,2.964 2.424,5.388 5.387,5.388 H 0 c 2.963,0 5.388,-2.424 5.388,-5.388 V 5.388 C 5.388,2.425 2.963,0 0,0"
             inkscape:connector-curvature="0" /></g><g
           transform="translate(117.3589,17.0552)"
           id="g32"><path
             id="path34"
             style="fill:#cccccc;fill-opacity:1;fill-rule:nonzero;stroke:none"
             d="m 0,0 h -78.884 c -3.129,0 -5.689,2.56 -5.689,5.689 v 78.884 c 0,3.129 2.56,5.689 5.689,5.689 H 0 c 3.129,0 5.689,-2.56 5.689,-5.689 V 5.689 C 5.689,2.56 3.129,0 0,0"
             inkscape:connector-curvature="0" /></g><path
           id="path36"
           style="fill:#cccccc;fill-opacity:1;fill-rule:nonzero;stroke:none"
           d="M 236.367,19.046 H 190.339 V 64.2 h 46.028 z"
           inkscape:connector-curvature="0" /><path
           id="path38"
           style="fill:#b12a12;fill-opacity:1;fill-rule:nonzero;stroke:none"
           d="m 236.367,66.74 h -46.028 v 13.915 h 46.028 z"
           inkscape:connector-curvature="0" /><path
           id="path40"
           style="fill:#b12a12;fill-opacity:1;fill-rule:nonzero;stroke:none"
           d="m 287.383,66.74 h -46.028 v 13.915 h 46.028 z"
           inkscape:connector-curvature="0" /><path
           id="path42"
           style="fill:#cccccc;fill-opacity:1;fill-rule:nonzero;stroke:none"
           d="M 287.383,19.046 H 241.355 V 64.2 h 46.028 z"
           inkscape:connector-curvature="0" /><g
           transform="translate(91.6291,27.3117)"
           id="g44"><path
             id="path46"
             style="fill:#333333;fill-opacity:1;fill-rule:nonzero;stroke:none"
             d="m 0,0 h -28.353 c -10.951,0 -19.911,8.96 -19.911,19.911 v 28.353 c 0,10.951 8.96,19.911 19.911,19.911 H 0 c 10.951,0 19.911,-8.96 19.911,-19.911 V 19.911 C 19.911,8.96 10.951,0 0,0"
             inkscape:connector-curvature="0" /></g><g
           transform="translate(77.4525,54.4148)"
           id="g48"><path
             id="path50"
             style="fill:#000000;fill-opacity:1;fill-rule:nonzero;stroke:none"
             d="m 0,0 v 0 c -3.841,0 -6.984,3.143 -6.984,6.984 0,3.842 3.143,6.985 6.984,6.985 3.841,0 6.984,-3.143 6.984,-6.985 C 6.984,3.143 3.841,0 0,0"
             inkscape:connector-curvature="0" /></g><g
           transform="translate(77.1889,73.6048)"
           id="g52"><path
             id="path54"
             style="fill:#000000;fill-opacity:1;fill-rule:nonzero;stroke:none"
             d="m 0,0 v 0 c -1.545,0 -2.81,1.264 -2.81,2.81 v 9.476 c 0,1.545 1.265,2.81 2.81,2.81 1.545,0 2.81,-1.265 2.81,-2.81 V 2.81 C 2.81,1.264 1.545,0 0,0"
             inkscape:connector-curvature="0" /></g><g
           transform="translate(77.1889,49.1935)"
           id="g56"><path
             id="path58"
             style="fill:#000000;fill-opacity:1;fill-rule:nonzero;stroke:none"
             d="m 0,0 v 0 c -1.545,0 -2.81,-1.264 -2.81,-2.81 v -9.476 c 0,-1.545 1.265,-2.81 2.81,-2.81 1.545,0 2.81,1.265 2.81,2.81 V -2.81 C 2.81,-1.264 1.545,0 0,0"
             inkscape:connector-curvature="0" /></g><g
           transform="translate(89.3945,61.3991)"
           id="g60"><path
             id="path62"
             style="fill:#000000;fill-opacity:1;fill-rule:nonzero;stroke:none"
             d="m 0,0 v 0 c 0,1.545 1.264,2.81 2.81,2.81 h 9.476 c 1.545,0 2.81,-1.265 2.81,-2.81 0,-1.545 -1.265,-2.81 -2.81,-2.81 H 2.81 C 1.264,-2.81 0,-1.545 0,0"
             inkscape:connector-curvature="0" /></g><g
           transform="translate(64.9832,61.3991)"
           id="g64"><path
             id="path66"
             style="fill:#000000;fill-opacity:1;fill-rule:nonzero;stroke:none"
             d="m 0,0 v 0 c 0,1.545 -1.264,2.81 -2.81,2.81 h -9.476 c -1.545,0 -2.81,-1.265 -2.81,-2.81 0,-1.545 1.265,-2.81 2.81,-2.81 H -2.81 C -1.264,-2.81 0,-1.545 0,0"
             inkscape:connector-curvature="0" /></g><g
           transform="translate(213.3535,25.9075)"
           id="g68"><path
             id="path70"
             style="fill:#191919;fill-opacity:1;fill-rule:nonzero;stroke:none"
             d="m 0,0 v 0 c -8.656,0 -15.738,7.082 -15.738,15.738 0,8.656 7.082,15.738 15.738,15.738 8.656,0 15.738,-7.082 15.738,-15.738 C 15.738,7.082 8.656,0 0,0"
             inkscape:connector-curvature="0" /></g><g
           transform="translate(264.3691,25.9075)"
           id="g72"><path
             id="path74"
             style="fill:#191919;fill-opacity:1;fill-rule:nonzero;stroke:none"
             d="m 0,0 v 0 c -8.656,0 -15.738,7.082 -15.738,15.738 0,8.656 7.082,15.738 15.738,15.738 8.656,0 15.738,-7.082 15.738,-15.738 C 15.738,7.082 8.656,0 0,0"
             inkscape:connector-curvature="0" /></g><g
           transform="translate(56.9862,79.0034)"
           id="g76"><path
             id="path78"
             style="fill:#000000;fill-opacity:1;fill-rule:nonzero;stroke:none"
             d="M 0,0 3.277,-0.878 6.554,-1.756 4.155,-4.155 1.756,-6.554 0.878,-3.277 Z"
             inkscape:connector-curvature="0" /></g><g
           transform="translate(97.9294,79.0034)"
           id="g80"><path
             id="path82"
             style="fill:#000000;fill-opacity:1;fill-rule:nonzero;stroke:none"
             d="m 0,0 -3.277,-0.878 -3.277,-0.878 2.399,-2.399 2.399,-2.399 0.878,3.277 z"
             inkscape:connector-curvature="0" /></g><g
           transform="translate(56.9862,43.7948)"
           id="g84"><path
             id="path86"
             style="fill:#000000;fill-opacity:1;fill-rule:nonzero;stroke:none"
             d="M 0,0 3.277,0.878 6.554,1.756 4.155,4.155 1.756,6.554 0.878,3.277 Z"
             inkscape:connector-curvature="0" /></g><g
           transform="translate(97.9294,43.7948)"
           id="g88"><path
             id="path90"
             style="fill:#000000;fill-opacity:1;fill-rule:nonzero;stroke:none"
             d="m 0,0 -3.277,0.878 -3.277,0.878 2.399,2.399 2.399,2.399 0.878,-3.277 z"
             inkscape:connector-curvature="0" /></g><path
           id="path92"
           style="fill:#666666;fill-opacity:1;fill-rule:nonzero;stroke:none"
           d="m 139.332,19.046 h -3.84 V 64.2 h 3.84 z"
           inkscape:connector-curvature="0" /><path
           id="path94"
           style="fill:#666666;fill-opacity:1;fill-rule:nonzero;stroke:none"
           d="m 144.761,19.046 h -3.84 V 64.2 h 3.84 z"
           inkscape:connector-curvature="0" /><path
           id="path96"
           style="fill:#666666;fill-opacity:1;fill-rule:nonzero;stroke:none"
           d="m 150.19,19.046 h -3.84 V 64.2 h 3.84 z"
           inkscape:connector-curvature="0" /><path
           id="path98"
           style="fill:#666666;fill-opacity:1;fill-rule:nonzero;stroke:none"
           d="m 155.62,19.046 h -3.84 V 64.2 h 3.84 z"
           inkscape:connector-curvature="0" /><path
           id="path100"
           style="fill:#666666;fill-opacity:1;fill-rule:nonzero;stroke:none"
           d="m 161.049,19.046 h -3.84 V 64.2 h 3.84 z"
           inkscape:connector-curvature="0" /><path
           id="path102"
           style="fill:#666666;fill-opacity:1;fill-rule:nonzero;stroke:none"
           d="m 166.478,19.046 h -3.84 V 64.2 h 3.84 z"
           inkscape:connector-curvature="0" /><path
           id="path104"
           style="fill:#666666;fill-opacity:1;fill-rule:nonzero;stroke:none"
           d="m 171.907,19.046 h -3.84 V 64.2 h 3.84 z"
           inkscape:connector-curvature="0" /><path
           id="path106"
           style="fill:#666666;fill-opacity:1;fill-rule:nonzero;stroke:none"
           d="m 177.336,19.046 h -3.84 V 64.2 h 3.84 z"
           inkscape:connector-curvature="0" /><path
           id="path108"
           style="fill:#666666;fill-opacity:1;fill-rule:nonzero;stroke:none"
           d="m 182.765,19.046 h -3.84 V 64.2 h 3.84 z"
           inkscape:connector-curvature="0" /><path
           id="path110"
           style="fill:#666666;fill-opacity:1;fill-rule:nonzero;stroke:none"
           d="m 188.194,19.046 h -3.84 V 64.2 h 3.84 z"
           inkscape:connector-curvature="0" /><g
           transform="translate(139.1737,35.1342)"
           id="g112"><path
             id="path114"
             style="fill:#ffffff;fill-opacity:1;fill-rule:nonzero;stroke:none"
             d="m 0,0 6.195,0.005 c 2.534,0 4.587,2.054 4.587,4.587 0,2.533 -2.053,4.587 -4.587,4.587 L 4.586,9.172 c -0.128,0 -0.232,0.104 -0.232,0.232 0,0.128 0.104,0.232 0.232,0.232 l 6.18,-10e-4 0.004,1.943 H 4.585 c -1.199,0 -2.17,-0.972 -2.17,-2.17 0,-1.199 0.971,-2.17 2.17,-2.17 L 6.201,7.22 C 7.652,7.22 8.828,6.044 8.828,4.594 8.828,3.143 7.652,1.967 6.201,1.967 H 0.002 L 0,0"
             inkscape:connector-curvature="0" /></g><g
           transform="translate(139.1761,37.558)"
           id="g116"><path
             id="path118"
             style="fill:#ffffff;fill-opacity:1;fill-rule:nonzero;stroke:none"
             d="m 0,0 h 6.199 c 1.199,0 2.17,0.971 2.17,2.17 0,1.198 -0.971,2.169 -2.17,2.169 L 4.583,4.357 c -1.451,0 -2.627,1.176 -2.627,2.627 0,1.45 1.176,2.626 2.627,2.626 l 6.185,0.003 -0.004,1.952 -6.18,0.003 c -2.533,0 -4.587,-2.054 -4.587,-4.588 0,-2.533 2.054,-4.587 4.587,-4.587 L 6.183,2.392 c 0.124,0 0.224,-0.101 0.224,-0.225 0,-0.123 -0.1,-0.224 -0.224,-0.224 L -0.002,1.941 0,0"
             inkscape:connector-curvature="0" /></g><g
           transform="translate(154.757,37.0886)"
           id="g120"><path
             id="path122"
             style="fill:#ffffff;fill-opacity:1;fill-rule:nonzero;stroke:none"
             d="m 0,0 c -1.073,0 -1.953,0.86 -1.953,1.953 v 6.21 c 0,1.052 0.88,1.923 1.953,1.923 l 6.612,-0.002 v 1.951 L 0,12.036 c -2.15,0 -3.893,-1.743 -3.893,-3.893 v -6.19 c 0,-2.149 1.743,-3.892 3.893,-3.892 L 6.585,-1.942 6.583,0.003 0,0"
             inkscape:connector-curvature="0" /></g><g
           transform="translate(153.2775,45.2316)"
           id="g124"><path
             id="path126"
             style="fill:#ffffff;fill-opacity:1;fill-rule:nonzero;stroke:none"
             d="M 0,0 C 0,0.82 0.659,1.484 1.48,1.484 H 8.092 V -0.463 H 2.395 c -0.457,0 -0.462,-0.458 -0.462,-0.458 h 4.75 L 6.685,-2.862 H -0.003 L 0,0"
             inkscape:connector-curvature="0" /></g><g
           transform="translate(154.757,37.5608)"
           id="g128"><path
             id="path130"
             style="fill:#ffffff;fill-opacity:1;fill-rule:nonzero;stroke:none"
             d="M 0,0 C -0.818,0 -1.481,0.663 -1.481,1.481 L -1.483,4.345 H 5.205 L 5.204,2.398 H 0.453 C 0.458,1.94 0.915,1.939 0.915,1.939 h 5.67 L 6.583,0.002 0,0"
             inkscape:connector-curvature="0" /></g><g
           transform="translate(166.0023,37.0939)"
           id="g132"><path
             id="path134"
             style="fill:#ffffff;fill-opacity:1;fill-rule:nonzero;stroke:none"
             d="m 0,0 c -1.073,0 -1.948,0.875 -1.948,1.948 v 6.19 c 0,1.072 0.869,1.943 1.943,1.943 l 6.402,0.001 v 1.948 l -6.417,0.001 c -2.151,0 -3.893,-1.744 -3.893,-3.893 v -6.19 c 0,-2.15 1.757,-3.893 3.908,-3.893 L 6.397,-1.948 V 7.218 H 0.894 V 5.275 H 4.452 V -0.001 L 0,0"
             inkscape:connector-curvature="0" /></g><g
           transform="translate(164.5123,39.0417)"
           id="g136"><path
             id="path138"
             style="fill:#ffffff;fill-opacity:1;fill-rule:nonzero;stroke:none"
             d="M 0,0 C 0,-0.82 0.665,-1.495 1.485,-1.495 H 5.483 V 2.868 H 2.39 V 0.919 H 3.537 L 3.542,0.46 2.4,0.462 c -0.252,0 -0.457,0.205 -0.457,0.457 L 1.936,5.273 c 0,0 -10e-4,0.454 0.459,0.463 H 7.892 L 7.887,7.679 1.485,7.674 C 0.665,7.674 0,7.009 0,6.19 V 0"
             inkscape:connector-curvature="0" /></g><g
           transform="translate(178.415,46.7483)"
           id="g140"><path
             id="path142"
             style="fill:#ffffff;fill-opacity:1;fill-rule:nonzero;stroke:none"
             d="m 0,0 c 0.086,0.248 0.322,0.426 0.599,0.426 0.277,0 0.513,-0.179 0.599,-0.427 l 3.105,-9.211 h -4.548 l 0.005,2.166 h 1.521 l -0.686,2.04 -2.229,-6.595 H -3.93 L 0,0"
             inkscape:connector-curvature="0" /></g><g
           transform="translate(183.3461,37.0932)"
           id="g144"><path
             id="path146"
             style="fill:#ffffff;fill-opacity:1;fill-rule:nonzero;stroke:none"
             d="M 0,0 H -5.169 V -1.945 H 2.7 l -4.093,12.147 c -0.358,1.185 -1.539,2.054 -2.94,2.054 -1.401,0 -2.582,-0.869 -2.941,-2.052 l -4.131,-12.149 h 2.061 l 4.007,11.811 c 0.164,0.391 0.55,0.665 1,0.665 0.449,0 0.834,-0.272 0.999,-0.662 L 0,0"
             inkscape:connector-curvature="0" /></g><path
           id="path148"
           style="fill:#000000;fill-opacity:1;fill-rule:nonzero;stroke:none"
           d="m 18.245,0 h -1.47 v 125.926 h 1.47 z"
           inkscape:connector-curvature="0" /><g
           transform="translate(143.0115,125.9255)"
           id="g150"><path
             id="path152"
             style="fill:#000000;fill-opacity:1;fill-rule:nonzero;stroke:none"
             d="m 0,0 v -39.899 c 0,-0.232 -0.186,-0.42 -0.416,-0.42 h -0.53 c -0.229,0 -0.415,0.188 -0.415,0.42 V 0"
             inkscape:connector-curvature="0" /></g><g
           transform="translate(303.9725,85.6066)"
           id="g154"><path
             id="path156"
             style="fill:#000000;fill-opacity:1;fill-rule:nonzero;stroke:none"
             d="m 0,0 h -161.902 c -0.232,0 -0.42,0.186 -0.42,0.416 v 0.53 c 0,0.229 0.188,0.415 0.42,0.415 H 0"
             inkscape:connector-curvature="0" /></g><g
           transform="translate(303.9725,12.9728)"
           id="g158"><path
             id="path160"
             style="fill:#000000;fill-opacity:1;fill-rule:nonzero;stroke:none"
             d="m 0,0 h -161.902 c -0.232,0 -0.42,0.186 -0.42,0.416 v 0.53 c 0,0.229 0.188,0.415 0.42,0.415 H 0"
             inkscape:connector-curvature="0" /></g><g
           transform="translate(141.6503)"
           id="g162"><path
             id="path164"
             style="fill:#000000;fill-opacity:1;fill-rule:nonzero;stroke:none"
             d="m 0,0 v 13.914 c 0,0.232 0.186,0.42 0.416,0.42 h 0.53 c 0.229,0 0.415,-0.188 0.415,-0.42 V 0"
             inkscape:connector-curvature="0" /></g></g></g></g></svg>